0
SECTION
2
ENTITIES
0
LINE
8
PARAMETRIX
10
0.0000
20
0.0000
11
0.0000
21
-31.4159
0
LINE
8
PARAMETRIX
10
0.0000
20
-31.4159
11
0.0000
21
-231.4159
0
LINE
8
PARAMETRIX
10
0.0000
20
-231.4159
11
200.0000
21
-231.4159
0
LINE
8
PARAMETRIX
10
200.0000
20
-231.4159
11
200.0000
21
-31.4159
0
LINE
8
PARAMETRIX
10
200.0000
20
-31.4159
11
200.0000
21
0.0000
0
LINE
8
PARAMETRIX
10
200.0000
20
0.0000
11
231.4159
21
-0.0000
0
LINE
8
PARAMETRIX
10
231.4159
20
-0.0000
11
431.4159
21
-0.0000
0
LINE
8
PARAMETRIX
10
431.4159
20
-0.0000
11
441.8879
21
-0.0000
0
LINE
8
PARAMETRIX
10
441.8879
20
-0.0000
11
641.8879
21
-0.0000
0
LINE
8
PARAMETRIX
10
641.8879
20
-0.0000
11
641.8879
21
200.0000
0
LINE
8
PARAMETRIX
10
641.8879
20
200.0000
11
441.8879
21
200.0000
0
LINE
8
PARAMETRIX
10
441.8879
20
200.0000
11
431.4159
21
200.0000
0
LINE
8
PARAMETRIX
10
431.4159
20
200.0000
11
231.4159
21
200.0000
0
LINE
8
PARAMETRIX
10
231.4159
20
200.0000
11
200.0000
21
200.0000
0
LINE
8
PARAMETRIX
10
200.0000
20
200.0000
11
200.0000
21
231.4159
0
LINE
8
PARAMETRIX
10
200.0000
20
231.4159
11
200.0000
21
431.4159
0
LINE
8
PARAMETRIX
10
200.0000
20
431.4159
11
0.0000
21
431.4159
0
LINE
8
PARAMETRIX
10
0.0000
20
431.4159
11
0.0000
21
231.4159
0
LINE
8
PARAMETRIX
10
0.0000
20
231.4159
11
0.0000
21
200.0000
0
LINE
8
PARAMETRIX
10
0.0000
20
200.0000
11
-31.4159
21
200.0000
0
LINE
8
PARAMETRIX
10
-31.4159
20
200.0000
11
-231.4159
21
200.0000
0
LINE
8
PARAMETRIX
10
-231.4159
20
200.0000
11
-231.4159
21
0.0000
0
LINE
8
PARAMETRIX
10
-231.4159
20
0.0000
11
-31.4159
21
0.0000
0
LINE
8
PARAMETRIX
10
-31.4159
20
0.0000
11
0.0000
21
0.0000
0
LINE
8
PARAMETRIX
10
0.0000
20
0.0000
11
0.0000
21
-31.4159
0
LINE
8
PARAMETRIX
10
0.0000
20
-31.4159
11
0.0000
21
-231.4159
0
LINE
8
PARAMETRIX
10
0.0000
20
-231.4159
11
200.0000
21
-231.4159
0
LINE
8
PARAMETRIX
10
200.0000
20
-231.4159
11
200.0000
21
-31.4159
0
LINE
8
PARAMETRIX
10
200.0000
20
-31.4159
11
200.0000
21
0.0000
0
LINE
8
PARAMETRIX
10
200.0000
20
0.0000
11
231.4159
21
-0.0000
0
LINE
8
PARAMETRIX
10
231.4159
20
-0.0000
11
431.4159
21
-0.0000
0
LINE
8
PARAMETRIX
10
431.4159
20
-0.0000
11
441.8879
21
-0.0000
0
LINE
8
PARAMETRIX
10
441.8879
20
-0.0000
11
641.8879
21
-0.0000
0
LINE
8
PARAMETRIX
10
641.8879
20
-0.0000
11
641.8879
21
200.0000
0
LINE
8
PARAMETRIX
10
641.8879
20
200.0000
11
441.8879
21
200.0000
0
LINE
8
PARAMETRIX
10
441.8879
20
200.0000
11
431.4159
21
200.0000
0
LINE
8
PARAMETRIX
10
431.4159
20
200.0000
11
231.4159
21
200.0000
0
LINE
8
PARAMETRIX
10
231.4159
20
200.0000
11
200.0000
21
200.0000
0
LINE
8
PARAMETRIX
10
200.0000
20
200.0000
11
200.0000
21
231.4159
0
LINE
8
PARAMETRIX
10
200.0000
20
231.4159
11
200.0000
21
431.4159
0
LINE
8
PARAMETRIX
10
200.0000
20
431.4159
11
0.0000
21
431.4159
0
LINE
8
PARAMETRIX
10
0.0000
20
431.4159
11
0.0000
21
231.4159
0
LINE
8
PARAMETRIX
10
0.0000
20
231.4159
11
0.0000
21
200.0000
0
LINE
8
PARAMETRIX
10
0.0000
20
200.0000
11
-31.4159
21
200.0000
0
LINE
8
PARAMETRIX
10
-31.4159
20
200.0000
11
-231.4159
21
200.0000
0
LINE
8
PARAMETRIX
10
-231.4159
20
200.0000
11
-231.4159
21
0.0000
0
LINE
8
PARAMETRIX
10
-231.4159
20
0.0000
11
-31.4159
21
0.0000
0
LINE
8
PARAMETRIX
10
-31.4159
20
0.0000
11
0.0000
21
0.0000
0
CIRCLE
8
PARAMETRIX
10
100.0000
20
100.0000
40
25.0000
0
CIRCLE
8
PARAMETRIX
10
298.0826
20
66.6667
40
25.0000
0
CIRCLE
8
PARAMETRIX
10
364.7493
20
133.3333
40
25.0000
0
CIRCLE
8
PARAMETRIX
10
50.0000
20
-181.4159
40
25.0000
0
CIRCLE
8
PARAMETRIX
10
100.0000
20
-131.4159
40
25.0000
0
CIRCLE
8
PARAMETRIX
10
150.0000
20
-81.4159
40
25.0000
0
CIRCLE
8
PARAMETRIX
10
50.0000
20
281.4159
40
25.0000
0
CIRCLE
8
PARAMETRIX
10
50.0000
20
381.4159
40
25.0000
0
CIRCLE
8
PARAMETRIX
10
150.0000
20
281.4159
40
25.0000
0
CIRCLE
8
PARAMETRIX
10
150.0000
20
381.4159
40
25.0000
0
CIRCLE
8
PARAMETRIX
10
-131.4159
20
100.0000
40
25.0000
0
CIRCLE
8
PARAMETRIX
10
-181.4159
20
50.0000
40
25.0000
0
CIRCLE
8
PARAMETRIX
10
-81.4159
20
50.0000
40
25.0000
0
CIRCLE
8
PARAMETRIX
10
-181.4159
20
150.0000
40
25.0000
0
CIRCLE
8
PARAMETRIX
10
-81.4159
20
150.0000
40
25.0000
0
CIRCLE
8
PARAMETRIX
10
591.8879
20
150.0000
40
25.0000
0
CIRCLE
8
PARAMETRIX
10
541.8879
20
150.0000
40
25.0000
0
CIRCLE
8
PARAMETRIX
10
491.8879
20
150.0000
40
25.0000
0
CIRCLE
8
PARAMETRIX
10
591.8879
20
50.0000
40
25.0000
0
CIRCLE
8
PARAMETRIX
10
541.8879
20
50.0000
40
25.0000
0
CIRCLE
8
PARAMETRIX
10
491.8879
20
50.0000
40
25.0000
0
ARC
8
PARAMETRIX
10
100.0000
20
-30.4159
40
1.0000
50
180.0000
51
0.0000
0
LINE
8
PARAMETRIX
10
101.0000
20
-30.4159
11
101.0000
21
-1.0000
0
ARC
8
PARAMETRIX
10
100.0000
20
-1.0000
40
1.0000
50
0.0000
51
180.0000
0
LINE
8
PARAMETRIX
10
99.0000
20
-1.0000
11
99.0000
21
-30.4159
0
ARC
8
PARAMETRIX
10
230.4159
20
100.0000
40
1.0000
50
270.0000
51
90.0000
0
LINE
8
PARAMETRIX
10
230.4159
20
101.0000
11
201.0000
21
101.0000
0
ARC
8
PARAMETRIX
10
201.0000
20
100.0000
40
1.0000
50
90.0000
51
270.0000
0
LINE
8
PARAMETRIX
10
201.0000
20
99.0000
11
230.4159
21
99.0000
0
ARC
8
PARAMETRIX
10
100.0000
20
230.4159
40
1.0000
50
0.0000
51
180.0000
0
LINE
8
PARAMETRIX
10
99.0000
20
230.4159
11
99.0000
21
201.0000
0
ARC
8
PARAMETRIX
10
100.0000
20
201.0000
40
1.0000
50
180.0000
51
0.0000
0
LINE
8
PARAMETRIX
10
101.0000
20
201.0000
11
101.0000
21
230.4159
0
ARC
8
PARAMETRIX
10
-30.4159
20
100.0000
40
1.0000
50
90.0000
51
270.0000
0
LINE
8
PARAMETRIX
10
-30.4159
20
99.0000
11
-1.0000
21
99.0000
0
ARC
8
PARAMETRIX
10
-1.0000
20
100.0000
40
1.0000
50
270.0000
51
90.0000
0
LINE
8
PARAMETRIX
10
-1.0000
20
101.0000
11
-30.4159
21
101.0000
0
ARC
8
PARAMETRIX
10
440.8879
20
100.0000
40
1.0000
50
270.0000
51
90.0000
0
LINE
8
PARAMETRIX
10
440.8879
20
101.0000
11
432.4159
21
101.0000
0
ARC
8
PARAMETRIX
10
432.4159
20
100.0000
40
1.0000
50
90.0000
51
270.0000
0
LINE
8
PARAMETRIX
10
432.4159
20
99.0000
11
440.8879
21
99.0000
0
ENDSEC
0
EOF
