<svg width="971" height="739" viewBox="-280 -268 971 739" xmlns="http://www.w3.org/2000/svg"><path d="M 0.0000 200.0000 L 0.0000 231.4159 L 0.0000 431.4159 L 200.0000 431.4159 L 200.0000 231.4159 L 200.0000 200.0000 L 231.4159 200.0000 L 431.4159 200.0000 L 441.8879 200.0000 L 641.8879 200.0000 L 641.8879 0.0000 L 441.8879 -0.0000 L 431.4159 -0.0000 L 231.4159 -0.0000 L 200.0000 -0.0000 L 200.0000 -31.4159 L 200.0000 -231.4159 L 0.0000 -231.4159 L 0.0000 -31.4159 L 0.0000 -0.0000 L -31.4159 -0.0000 L -231.4159 -0.0000 L -231.4159 200.0000 L -31.4159 200.0000 L 0.0000 200.0000 Z" stroke="green" stroke-width="1" fill="none" /><path d="M 0.0000 200.0000 L 0.0000 231.4159 L 0.0000 431.4159 L 200.0000 431.4159 L 200.0000 231.4159 L 200.0000 200.0000 L 231.4159 200.0000 L 431.4159 200.0000 L 441.8879 200.0000 L 641.8879 200.0000 L 641.8879 0.0000 L 441.8879 -0.0000 L 431.4159 -0.0000 L 231.4159 -0.0000 L 200.0000 -0.0000 L 200.0000 -31.4159 L 200.0000 -231.4159 L 0.0000 -231.4159 L 0.0000 -31.4159 L 0.0000 -0.0000 L -31.4159 -0.0000 L -231.4159 -0.0000 L -231.4159 200.0000 L -31.4159 200.0000 L 0.0000 200.0000 Z" stroke="green" stroke-width="1" fill="none" /><circle cx="100.0000" cy="100.0000" r="25.0000" stroke="green" stroke-width="1" fill="none" /><circle cx="298.0826" cy="133.3333" r="25.0000" stroke="green" stroke-width="1" fill="none" /><circle cx="364.7493" cy="66.6667" r="25.0000" stroke="green" stroke-width="1" fill="none" /><circle cx="50.0000" cy="381.4159" r="25.0000" stroke="green" stroke-width="1" fill="none" /><circle cx="100.0000" cy="331.4159" r="25.0000" stroke="green" stroke-width="1" fill="none" /><circle cx="150.0000" cy="281.4159" r="25.0000" stroke="green" stroke-width="1" fill="none" /><circle cx="50.0000" cy="-81.4159" r="25.0000" stroke="green" stroke-width="1" fill="none" /><circle cx="50.0000" cy="-181.4159" r="25.0000" stroke="green" stroke-width="1" fill="none" /><circle cx="150.0000" cy="-81.4159" r="25.0000" stroke="green" stroke-width="1" fill="none" /><circle cx="150.0000" cy="-181.4159" r="25.0000" stroke="green" stroke-width="1" fill="none" /><circle cx="-131.4159" cy="100.0000" r="25.0000" stroke="green" stroke-width="1" fill="none" /><circle cx="-181.4159" cy="150.0000" r="25.0000" stroke="green" stroke-width="1" fill="none" /><circle cx="-81.4159" cy="150.0000" r="25.0000" stroke="green" stroke-width="1" fill="none" /><circle cx="-181.4159" cy="50.0000" r="25.0000" stroke="green" stroke-width="1" fill="none" /><circle cx="-81.4159" cy="50.0000" r="25.0000" stroke="green" stroke-width="1" fill="none" /><circle cx="591.8879" cy="50.0000" r="25.0000" stroke="green" stroke-width="1" fill="none" /><circle cx="541.8879" cy="50.0000" r="25.0000" stroke="green" stroke-width="1" fill="none" /><circle cx="491.8879" cy="50.0000" r="25.0000" stroke="green" stroke-width="1" fill="none" /><circle cx="591.8879" cy="150.0000" r="25.0000" stroke="green" stroke-width="1" fill="none" /><circle cx="541.8879" cy="150.0000" r="25.0000" stroke="green" stroke-width="1" fill="none" /><circle cx="491.8879" cy="150.0000" r="25.0000" stroke="green" stroke-width="1" fill="none" /><path d="M 99.0000 230.4159 A 1.0000 1.0000 0 0 0 101.0000 230.4159 L 101.0000 201.0000 A 1.0000 1.0000 0 0 0 99.0000 201.0000 L 99.0000 230.4159 Z" stroke="green" stroke-width="1" fill="none" /><path d="M 230.4159 101.0000 A 1.0000 1.0000 0 0 0 230.4159 99.0000 L 201.0000 99.0000 A 1.0000 1.0000 0 0 0 201.0000 101.0000 L 230.4159 101.0000 Z" stroke="green" stroke-width="1" fill="none" /><path d="M 101.0000 -30.4159 A 1.0000 1.0000 0 0 0 99.0000 -30.4159 L 99.0000 -1.0000 A 1.0000 1.0000 0 0 0 101.0000 -1.0000 L 101.0000 -30.4159 Z" stroke="green" stroke-width="1" fill="none" /><path d="M -30.4159 99.0000 A 1.0000 1.0000 0 0 0 -30.4159 101.0000 L -1.0000 101.0000 A 1.0000 1.0000 0 0 0 -1.0000 99.0000 L -30.4159 99.0000 Z" stroke="green" stroke-width="1" fill="none" /><path d="M 440.8879 101.0000 A 1.0000 1.0000 0 0 0 440.8879 99.0000 L 432.4159 99.0000 A 1.0000 1.0000 0 0 0 432.4159 101.0000 L 440.8879 101.0000 Z" stroke="green" stroke-width="1" fill="none" /></svg>