<svg width="285" height="792" viewBox="-39 -40 285 792" xmlns="http://www.w3.org/2000/svg"><path d="M 0.0000 710.7051 L 200.0000 710.7051 L 200.0000 700.7051 L 0.0000 700.7051 L 0.0000 710.7051 Z" stroke="green" stroke-width="1" fill="none" /><path d="M 200.0000 710.7051 A 25.0000 25.0000 0 0 0 225.0000 685.7051 L 215.0000 685.7051 A 15.0000 15.0000 0 0 1 200.0000 700.7051 L 200.0000 710.7051 Z" stroke="green" stroke-width="1" fill="none" /><path d="M 225.0000 685.7051 L 225.0000 485.7051 L 215.0000 485.7051 L 215.0000 685.7051 L 225.0000 685.7051 Z" stroke="green" stroke-width="1" fill="none" /><path d="M 0.0000 700.7051 A 15.0000 15.0000 0 0 1 -15.0000 685.7051 L -25.0000 685.7051 A 25.0000 25.0000 0 0 0 -0.0000 710.7051 L 0.0000 700.7051 Z" stroke="green" stroke-width="1" fill="none" /><path d="M -15.0000 685.7051 L -15.0000 485.7051 L -25.0000 485.7051 L -25.0000 685.7051 L -15.0000 685.7051 Z" stroke="green" stroke-width="1" fill="none" /><path d="M 0.0000 410.7051 L 200.0000 410.7051 L 200.0000 400.7051 L 0.0000 400.7051 L 0.0000 410.7051 Z" stroke="green" stroke-width="1" fill="none" /><path d="M 200.0000 410.7051 A 25.0000 25.0000 0 0 0 225.0000 385.7051 L 215.0000 385.7051 A 15.0000 15.0000 0 0 1 200.0000 400.7051 L 200.0000 410.7051 Z" stroke="green" stroke-width="1" fill="none" /><path d="M 225.0000 385.7051 L 225.0000 185.7051 L 215.0000 185.7051 L 215.0000 385.7051 L 225.0000 385.7051 Z" stroke="green" stroke-width="1" fill="none" /><path d="M 225.0000 185.7051 A 25.0000 25.0000 0 0 0 221.6506 173.2051 L 212.9904 178.2051 A 15.0000 15.0000 0 0 1 215.0000 185.7051 L 225.0000 185.7051 Z" stroke="green" stroke-width="1" fill="none" /><path d="M 221.6506 173.2051 L 121.6506 0.0000 L 112.9904 5.0000 L 212.9904 178.2051 L 221.6506 173.2051 Z" stroke="green" stroke-width="1" fill="none" /><path d="M 0.0000 400.7051 A 15.0000 15.0000 0 0 1 -15.0000 385.7051 L -25.0000 385.7051 A 25.0000 25.0000 0 0 0 -0.0000 410.7051 L 0.0000 400.7051 Z" stroke="green" stroke-width="1" fill="none" /><path d="M -15.0000 385.7051 L -15.0000 185.7051 L -25.0000 185.7051 L -25.0000 385.7051 L -15.0000 385.7051 Z" stroke="green" stroke-width="1" fill="none" /></svg>