0
SECTION
2
ENTITIES
0
LINE
8
PARAMETRIX
10
0.0000
20
0.0000
11
200.0000
21
0.0000
0
LINE
8
PARAMETRIX
10
200.0000
20
0.0000
11
200.0000
21
10.0000
0
LINE
8
PARAMETRIX
10
200.0000
20
10.0000
11
0.0000
21
10.0000
0
LINE
8
PARAMETRIX
10
0.0000
20
10.0000
11
0.0000
21
0.0000
0
ARC
8
PARAMETRIX
10
200.0000
20
25.0000
40
25.0000
50
270.0000
51
360.0000
0
LINE
8
PARAMETRIX
10
225.0000
20
25.0000
11
215.0000
21
25.0000
0
ARC
8
PARAMETRIX
10
200.0000
20
25.0000
40
15.0000
50
270.0000
51
360.0000
0
LINE
8
PARAMETRIX
10
200.0000
20
10.0000
11
200.0000
21
0.0000
0
LINE
8
PARAMETRIX
10
225.0000
20
25.0000
11
225.0000
21
225.0000
0
LINE
8
PARAMETRIX
10
225.0000
20
225.0000
11
215.0000
21
225.0000
0
LINE
8
PARAMETRIX
10
215.0000
20
225.0000
11
215.0000
21
25.0000
0
LINE
8
PARAMETRIX
10
215.0000
20
25.0000
11
225.0000
21
25.0000
0
ARC
8
PARAMETRIX
10
0.0000
20
25.0000
40
15.0000
50
180.0000
51
270.0000
0
LINE
8
PARAMETRIX
10
-15.0000
20
25.0000
11
-25.0000
21
25.0000
0
ARC
8
PARAMETRIX
10
0.0000
20
25.0000
40
25.0000
50
180.0000
51
270.0000
0
LINE
8
PARAMETRIX
10
-0.0000
20
0.0000
11
0.0000
21
10.0000
0
LINE
8
PARAMETRIX
10
-15.0000
20
25.0000
11
-15.0000
21
225.0000
0
LINE
8
PARAMETRIX
10
-15.0000
20
225.0000
11
-25.0000
21
225.0000
0
LINE
8
PARAMETRIX
10
-25.0000
20
225.0000
11
-25.0000
21
25.0000
0
LINE
8
PARAMETRIX
10
-25.0000
20
25.0000
11
-15.0000
21
25.0000
0
LINE
8
PARAMETRIX
10
0.0000
20
300.0000
11
200.0000
21
300.0000
0
LINE
8
PARAMETRIX
10
200.0000
20
300.0000
11
200.0000
21
310.0000
0
LINE
8
PARAMETRIX
10
200.0000
20
310.0000
11
0.0000
21
310.0000
0
LINE
8
PARAMETRIX
10
0.0000
20
310.0000
11
0.0000
21
300.0000
0
ARC
8
PARAMETRIX
10
200.0000
20
325.0000
40
25.0000
50
270.0000
51
0.0000
0
LINE
8
PARAMETRIX
10
225.0000
20
325.0000
11
215.0000
21
325.0000
0
ARC
8
PARAMETRIX
10
200.0000
20
325.0000
40
15.0000
50
270.0000
51
0.0000
0
LINE
8
PARAMETRIX
10
200.0000
20
310.0000
11
200.0000
21
300.0000
0
LINE
8
PARAMETRIX
10
225.0000
20
325.0000
11
225.0000
21
525.0000
0
LINE
8
PARAMETRIX
10
225.0000
20
525.0000
11
215.0000
21
525.0000
0
LINE
8
PARAMETRIX
10
215.0000
20
525.0000
11
215.0000
21
325.0000
0
LINE
8
PARAMETRIX
10
215.0000
20
325.0000
11
225.0000
21
325.0000
0
ARC
8
PARAMETRIX
10
200.0000
20
525.0000
40
25.0000
50
0.0000
51
30.0000
0
LINE
8
PARAMETRIX
10
221.6506
20
537.5000
11
212.9904
21
532.5000
0
ARC
8
PARAMETRIX
10
200.0000
20
525.0000
40
15.0000
50
0.0000
51
30.0000
0
LINE
8
PARAMETRIX
10
215.0000
20
525.0000
11
225.0000
21
525.0000
0
LINE
8
PARAMETRIX
10
221.6506
20
537.5000
11
121.6506
21
710.7051
0
LINE
8
PARAMETRIX
10
121.6506
20
710.7051
11
112.9904
21
705.7051
0
LINE
8
PARAMETRIX
10
112.9904
20
705.7051
11
212.9904
21
532.5000
0
LINE
8
PARAMETRIX
10
212.9904
20
532.5000
11
221.6506
21
537.5000
0
ARC
8
PARAMETRIX
10
0.0000
20
325.0000
40
15.0000
50
180.0000
51
270.0000
0
LINE
8
PARAMETRIX
10
-15.0000
20
325.0000
11
-25.0000
21
325.0000
0
ARC
8
PARAMETRIX
10
0.0000
20
325.0000
40
25.0000
50
180.0000
51
270.0000
0
LINE
8
PARAMETRIX
10
-0.0000
20
300.0000
11
0.0000
21
310.0000
0
LINE
8
PARAMETRIX
10
-15.0000
20
325.0000
11
-15.0000
21
525.0000
0
LINE
8
PARAMETRIX
10
-15.0000
20
525.0000
11
-25.0000
21
525.0000
0
LINE
8
PARAMETRIX
10
-25.0000
20
525.0000
11
-25.0000
21
325.0000
0
LINE
8
PARAMETRIX
10
-25.0000
20
325.0000
11
-15.0000
21
325.0000
0
ENDSEC
0
EOF
