<svg width="134" height="220" viewBox="-90 -11 134 220" xmlns="http://www.w3.org/2000/svg"><path d="M -23.5000 190.8883 L 23.5000 190.8883 L 23.5000 140.8883 L 29.7284 94.9160 A 30.0000 30.0000 0 1 0 -29.7284 94.9160 L -23.5000 140.8883 L -23.5000 190.8883 Z" stroke="green" stroke-width="1" fill="none" /><circle cx="0.0000" cy="165.8883" r="15.0000" stroke="green" stroke-width="1" fill="none" /><circle cx="0.0000" cy="90.8883" r="20.0000" stroke="green" stroke-width="1" fill="none" /><circle cx="0.0000" cy="125.8883" r="10.0000" stroke="green" stroke-width="1" fill="none" /><circle cx="0.0000" cy="90.8883" r="20.0000" stroke="green" stroke-width="1" fill="none" /><circle cx="0.0000" cy="90.8883" r="17.0000" stroke="green" stroke-width="1" fill="none" /><path d="M -47.8702 0.0000 L -83.3416 30.8348 L -50.5386 68.5703 L -25.0787 107.3522 A 30.0000 30.0000 0 1 0 19.7939 68.3451 L -15.0673 37.7355 L -47.8702 0.0000 Z" stroke="green" stroke-width="1" fill="none" /><circle cx="-49.2044" cy="34.2851" r="15.0000" stroke="green" stroke-width="1" fill="none" /><circle cx="0.0000" cy="90.8883" r="20.0000" stroke="green" stroke-width="1" fill="none" /><circle cx="-22.9621" cy="64.4735" r="10.0000" stroke="green" stroke-width="1" fill="none" /></svg>