<svg width="76" height="76" viewBox="-34 -34 76 76" xmlns="http://www.w3.org/2000/svg"><circle cx="0.0000" cy="0.0000" r="5.0000" stroke="green" stroke-width="1" fill="none" /><path d="M -23.5000 30.0000 L 23.5000 30.0000 L 23.5000 27.0000 L -23.5000 27.0000 L -23.5000 30.0000 Z" stroke="green" stroke-width="1" fill="none" /><path d="M 23.5000 30.0000 A 6.5000 6.5000 0 0 0 30.0000 23.5000 L 27.0000 23.5000 A 3.5000 3.5000 0 0 1 23.5000 27.0000 L 23.5000 30.0000 Z" stroke="green" stroke-width="1" fill="none" /><path d="M 30.0000 23.5000 L 30.0000 -23.5000 L 27.0000 -23.5000 L 27.0000 23.5000 L 30.0000 23.5000 Z" stroke="green" stroke-width="1" fill="none" /><path d="M 30.0000 -23.5000 A 6.5000 6.5000 0 0 0 23.5000 -30.0000 L 23.5000 -27.0000 A 3.5000 3.5000 0 0 1 27.0000 -23.5000 L 30.0000 -23.5000 Z" stroke="green" stroke-width="1" fill="none" /><path d="M 23.5000 -30.0000 L -23.5000 -30.0000 L -23.5000 -27.0000 L 23.5000 -27.0000 L 23.5000 -30.0000 Z" stroke="green" stroke-width="1" fill="none" /><path d="M -23.5000 -30.0000 A 6.5000 6.5000 0 0 0 -30.0000 -23.5000 L -27.0000 -23.5000 A 3.5000 3.5000 0 0 1 -23.5000 -27.0000 L -23.5000 -30.0000 Z" stroke="green" stroke-width="1" fill="none" /><path d="M -30.0000 -23.5000 L -30.0000 23.5000 L -27.0000 23.5000 L -27.0000 -23.5000 L -30.0000 -23.5000 Z" stroke="green" stroke-width="1" fill="none" /><path d="M -30.0000 23.5000 A 6.5000 6.5000 0 0 0 -23.5000 30.0000 L -23.5000 27.0000 A 3.5000 3.5000 0 0 1 -27.0000 23.5000 L -30.0000 23.5000 Z" stroke="green" stroke-width="1" fill="none" /><path d="M -23.5000 26.0000 L 23.5000 26.0000 L 23.5000 23.0000 L -23.5000 23.0000 L -23.5000 26.0000 Z" stroke="green" stroke-width="1" fill="none" /><path d="M 23.5000 26.0000 A 6.5000 6.5000 0 0 0 30.0000 19.5000 L 27.0000 19.5000 A 3.5000 3.5000 0 0 1 23.5000 23.0000 L 23.5000 26.0000 Z" stroke="green" stroke-width="1" fill="none" /><path d="M 30.0000 19.5000 L 30.0000 -19.5000 L 27.0000 -19.5000 L 27.0000 19.5000 L 30.0000 19.5000 Z" stroke="green" stroke-width="1" fill="none" /><path d="M 30.0000 -19.5000 A 6.5000 6.5000 0 0 0 23.5000 -26.0000 L 23.5000 -23.0000 A 3.5000 3.5000 0 0 1 27.0000 -19.5000 L 30.0000 -19.5000 Z" stroke="green" stroke-width="1" fill="none" /><path d="M 23.5000 -26.0000 L -23.5000 -26.0000 L -23.5000 -23.0000 L 23.5000 -23.0000 L 23.5000 -26.0000 Z" stroke="green" stroke-width="1" fill="none" /><path d="M -23.5000 -26.0000 A 6.5000 6.5000 0 0 0 -30.0000 -19.5000 L -27.0000 -19.5000 A 3.5000 3.5000 0 0 1 -23.5000 -23.0000 L -23.5000 -26.0000 Z" stroke="green" stroke-width="1" fill="none" /><path d="M -30.0000 -19.5000 L -30.0000 19.5000 L -27.0000 19.5000 L -27.0000 -19.5000 L -30.0000 -19.5000 Z" stroke="green" stroke-width="1" fill="none" /><path d="M -30.0000 19.5000 A 6.5000 6.5000 0 0 0 -23.5000 26.0000 L -23.5000 23.0000 A 3.5000 3.5000 0 0 1 -27.0000 19.5000 L -30.0000 19.5000 Z" stroke="green" stroke-width="1" fill="none" /></svg>