0
SECTION
2
ENTITIES
0
CIRCLE
8
PARAMETRIX
10
0.0000
20
0.0000
40
5.0000
0
LINE
8
PARAMETRIX
10
-23.5000
20
-30.0000
11
23.5000
21
-30.0000
0
LINE
8
PARAMETRIX
10
23.5000
20
-30.0000
11
23.5000
21
-27.0000
0
LINE
8
PARAMETRIX
10
23.5000
20
-27.0000
11
-23.5000
21
-27.0000
0
LINE
8
PARAMETRIX
10
-23.5000
20
-27.0000
11
-23.5000
21
-30.0000
0
ARC
8
PARAMETRIX
10
23.5000
20
-23.5000
40
6.5000
50
270.0000
51
0.0000
0
LINE
8
PARAMETRIX
10
30.0000
20
-23.5000
11
27.0000
21
-23.5000
0
ARC
8
PARAMETRIX
10
23.5000
20
-23.5000
40
3.5000
50
270.0000
51
0.0000
0
LINE
8
PARAMETRIX
10
23.5000
20
-27.0000
11
23.5000
21
-30.0000
0
LINE
8
PARAMETRIX
10
30.0000
20
-23.5000
11
30.0000
21
23.5000
0
LINE
8
PARAMETRIX
10
30.0000
20
23.5000
11
27.0000
21
23.5000
0
LINE
8
PARAMETRIX
10
27.0000
20
23.5000
11
27.0000
21
-23.5000
0
LINE
8
PARAMETRIX
10
27.0000
20
-23.5000
11
30.0000
21
-23.5000
0
ARC
8
PARAMETRIX
10
23.5000
20
23.5000
40
6.5000
50
360.0000
51
90.0000
0
LINE
8
PARAMETRIX
10
23.5000
20
30.0000
11
23.5000
21
27.0000
0
ARC
8
PARAMETRIX
10
23.5000
20
23.5000
40
3.5000
50
0.0000
51
90.0000
0
LINE
8
PARAMETRIX
10
27.0000
20
23.5000
11
30.0000
21
23.5000
0
LINE
8
PARAMETRIX
10
23.5000
20
30.0000
11
-23.5000
21
30.0000
0
LINE
8
PARAMETRIX
10
-23.5000
20
30.0000
11
-23.5000
21
27.0000
0
LINE
8
PARAMETRIX
10
-23.5000
20
27.0000
11
23.5000
21
27.0000
0
LINE
8
PARAMETRIX
10
23.5000
20
27.0000
11
23.5000
21
30.0000
0
ARC
8
PARAMETRIX
10
-23.5000
20
23.5000
40
6.5000
50
90.0000
51
180.0000
0
LINE
8
PARAMETRIX
10
-30.0000
20
23.5000
11
-27.0000
21
23.5000
0
ARC
8
PARAMETRIX
10
-23.5000
20
23.5000
40
3.5000
50
90.0000
51
180.0000
0
LINE
8
PARAMETRIX
10
-23.5000
20
27.0000
11
-23.5000
21
30.0000
0
LINE
8
PARAMETRIX
10
-30.0000
20
23.5000
11
-30.0000
21
-23.5000
0
LINE
8
PARAMETRIX
10
-30.0000
20
-23.5000
11
-27.0000
21
-23.5000
0
LINE
8
PARAMETRIX
10
-27.0000
20
-23.5000
11
-27.0000
21
23.5000
0
LINE
8
PARAMETRIX
10
-27.0000
20
23.5000
11
-30.0000
21
23.5000
0
ARC
8
PARAMETRIX
10
-23.5000
20
-23.5000
40
6.5000
50
180.0000
51
270.0000
0
LINE
8
PARAMETRIX
10
-23.5000
20
-30.0000
11
-23.5000
21
-27.0000
0
ARC
8
PARAMETRIX
10
-23.5000
20
-23.5000
40
3.5000
50
180.0000
51
270.0000
0
LINE
8
PARAMETRIX
10
-27.0000
20
-23.5000
11
-30.0000
21
-23.5000
0
LINE
8
PARAMETRIX
10
-23.5000
20
-26.0000
11
23.5000
21
-26.0000
0
LINE
8
PARAMETRIX
10
23.5000
20
-26.0000
11
23.5000
21
-23.0000
0
LINE
8
PARAMETRIX
10
23.5000
20
-23.0000
11
-23.5000
21
-23.0000
0
LINE
8
PARAMETRIX
10
-23.5000
20
-23.0000
11
-23.5000
21
-26.0000
0
ARC
8
PARAMETRIX
10
23.5000
20
-19.5000
40
6.5000
50
270.0000
51
0.0000
0
LINE
8
PARAMETRIX
10
30.0000
20
-19.5000
11
27.0000
21
-19.5000
0
ARC
8
PARAMETRIX
10
23.5000
20
-19.5000
40
3.5000
50
270.0000
51
0.0000
0
LINE
8
PARAMETRIX
10
23.5000
20
-23.0000
11
23.5000
21
-26.0000
0
LINE
8
PARAMETRIX
10
30.0000
20
-19.5000
11
30.0000
21
19.5000
0
LINE
8
PARAMETRIX
10
30.0000
20
19.5000
11
27.0000
21
19.5000
0
LINE
8
PARAMETRIX
10
27.0000
20
19.5000
11
27.0000
21
-19.5000
0
LINE
8
PARAMETRIX
10
27.0000
20
-19.5000
11
30.0000
21
-19.5000
0
ARC
8
PARAMETRIX
10
23.5000
20
19.5000
40
6.5000
50
360.0000
51
90.0000
0
LINE
8
PARAMETRIX
10
23.5000
20
26.0000
11
23.5000
21
23.0000
0
ARC
8
PARAMETRIX
10
23.5000
20
19.5000
40
3.5000
50
0.0000
51
90.0000
0
LINE
8
PARAMETRIX
10
27.0000
20
19.5000
11
30.0000
21
19.5000
0
LINE
8
PARAMETRIX
10
23.5000
20
26.0000
11
-23.5000
21
26.0000
0
LINE
8
PARAMETRIX
10
-23.5000
20
26.0000
11
-23.5000
21
23.0000
0
LINE
8
PARAMETRIX
10
-23.5000
20
23.0000
11
23.5000
21
23.0000
0
LINE
8
PARAMETRIX
10
23.5000
20
23.0000
11
23.5000
21
26.0000
0
ARC
8
PARAMETRIX
10
-23.5000
20
19.5000
40
6.5000
50
90.0000
51
180.0000
0
LINE
8
PARAMETRIX
10
-30.0000
20
19.5000
11
-27.0000
21
19.5000
0
ARC
8
PARAMETRIX
10
-23.5000
20
19.5000
40
3.5000
50
90.0000
51
180.0000
0
LINE
8
PARAMETRIX
10
-23.5000
20
23.0000
11
-23.5000
21
26.0000
0
LINE
8
PARAMETRIX
10
-30.0000
20
19.5000
11
-30.0000
21
-19.5000
0
LINE
8
PARAMETRIX
10
-30.0000
20
-19.5000
11
-27.0000
21
-19.5000
0
LINE
8
PARAMETRIX
10
-27.0000
20
-19.5000
11
-27.0000
21
19.5000
0
LINE
8
PARAMETRIX
10
-27.0000
20
19.5000
11
-30.0000
21
19.5000
0
ARC
8
PARAMETRIX
10
-23.5000
20
-19.5000
40
6.5000
50
180.0000
51
270.0000
0
LINE
8
PARAMETRIX
10
-23.5000
20
-26.0000
11
-23.5000
21
-23.0000
0
ARC
8
PARAMETRIX
10
-23.5000
20
-19.5000
40
3.5000
50
180.0000
51
270.0000
0
LINE
8
PARAMETRIX
10
-27.0000
20
-19.5000
11
-30.0000
21
-19.5000
0
ENDSEC
0
EOF
