<svg width="76" height="230" viewBox="-34 -11 76 230" xmlns="http://www.w3.org/2000/svg"><path d="M -23.5000 200.0000 L 23.5000 200.0000 L 23.5000 150.0000 L -23.5000 150.0000 L -23.5000 200.0000 Z" stroke="green" stroke-width="1" fill="none" /><circle cx="0.0000" cy="175.0000" r="15.0000" stroke="green" stroke-width="1" fill="none" /><path d="M -30.0000 200.0000 L -27.0000 200.0000 L -27.0000 70.0000 L -30.0000 70.0000 L -30.0000 200.0000 Z" stroke="green" stroke-width="1" fill="none" /><path d="M 27.0000 200.0000 L 30.0000 200.0000 L 30.0000 70.0000 L 27.0000 70.0000 L 27.0000 200.0000 Z" stroke="green" stroke-width="1" fill="none" /><path d="M 19.5000 0.0000 L -19.5000 0.0000 L -19.5000 50.0000 L 19.5000 50.0000 L 19.5000 0.0000 Z" stroke="green" stroke-width="1" fill="none" /><circle cx="-0.0000" cy="25.0000" r="15.0000" stroke="green" stroke-width="1" fill="none" /><path d="M 26.0000 0.0000 L 23.0000 0.0000 L 23.0000 130.0000 L 26.0000 130.0000 L 26.0000 0.0000 Z" stroke="green" stroke-width="1" fill="none" /><path d="M -23.0000 0.0000 L -26.0000 0.0000 L -26.0000 130.0000 L -23.0000 130.0000 L -23.0000 0.0000 Z" stroke="green" stroke-width="1" fill="none" /><circle cx="0.0000" cy="100.0000" r="5.0000" stroke="green" stroke-width="1" fill="none" /></svg>