<svg width="619" height="313" viewBox="-31 -16 619 313" xmlns="http://www.w3.org/2000/svg"><path d="M 0.0000 275.0125 L 200.0000 275.0125 L 205.2360 275.0125 L 367.9558 212.5794 L 378.4778 167.0034 L 383.3648 167.0034 L 427.5410 150.4973 L 470.6599 121.4133 L 553.5637 65.4940 L 509.3874 0.0000 L 426.4837 55.9193 L 383.3648 85.0034 L 378.4778 85.0034 L 215.7580 129.4365 L 205.2360 175.0125 L 200.0000 175.0125 L 0.0000 175.0125 L 0.0000 275.0125 Z" stroke="green" stroke-width="1" fill="none" /><path d="M 0.0000 275.0125 L 200.0000 275.0125 L 205.2360 275.0125 L 367.9558 212.5794 L 378.4778 167.0034 L 383.3648 167.0034 L 427.5410 150.4973 L 470.6599 121.4133 L 553.5637 65.4940 L 509.3874 0.0000 L 426.4837 55.9193 L 383.3648 85.0034 L 378.4778 85.0034 L 215.7580 129.4365 L 205.2360 175.0125 L 200.0000 175.0125 L 0.0000 175.0125 L 0.0000 275.0125 Z" stroke="green" stroke-width="1" fill="none" /><path d="M 204.2360 226.0125 A 1.0000 1.0000 0 0 0 204.2360 224.0125 L 201.0000 224.0125 A 1.0000 1.0000 0 0 0 201.0000 226.0125 L 204.2360 226.0125 Z" stroke="green" stroke-width="1" fill="none" /><path d="M 285.8465 192.5966 A 1.0000 1.0000 0 1 0 287.7952 193.0465 L 297.8674 149.4193 A 1.0000 1.0000 0 0 0 295.9186 148.9694 L 285.8465 192.5966 Z" stroke="green" stroke-width="1" fill="none" /><path d="M 382.3648 127.0034 A 1.0000 1.0000 0 0 0 382.3648 125.0034 L 379.4778 125.0034 A 1.0000 1.0000 0 0 0 379.4778 127.0034 L 382.3648 127.0034 Z" stroke="green" stroke-width="1" fill="none" /><path d="M 448.3019 90.0545 A 1.0000 1.0000 0 1 0 447.1836 88.3964 L 405.7227 116.3621 A 1.0000 1.0000 0 0 0 406.8411 118.0202 L 448.3019 90.0545 Z" stroke="green" stroke-width="1" fill="none" /></svg>