0
SECTION
2
ENTITIES
0
LINE
8
PARAMETRIX
10
0.0000
20
0.0000
11
200.0000
21
0.0000
0
LINE
8
PARAMETRIX
10
200.0000
20
0.0000
11
205.2360
21
0.0000
0
LINE
8
PARAMETRIX
10
205.2360
20
0.0000
11
367.9558
21
62.4332
0
LINE
8
PARAMETRIX
10
367.9558
20
62.4332
11
378.4778
21
108.0092
0
LINE
8
PARAMETRIX
10
378.4778
20
108.0092
11
383.3648
21
108.0092
0
LINE
8
PARAMETRIX
10
383.3648
20
108.0092
11
427.5410
21
124.5152
0
LINE
8
PARAMETRIX
10
427.5410
20
124.5152
11
470.6599
21
153.5993
0
LINE
8
PARAMETRIX
10
470.6599
20
153.5993
11
553.5637
21
209.5186
0
LINE
8
PARAMETRIX
10
553.5637
20
209.5186
11
509.3874
21
275.0125
0
LINE
8
PARAMETRIX
10
509.3874
20
275.0125
11
426.4837
21
219.0932
0
LINE
8
PARAMETRIX
10
426.4837
20
219.0932
11
383.3648
21
190.0092
0
LINE
8
PARAMETRIX
10
383.3648
20
190.0092
11
378.4778
21
190.0092
0
LINE
8
PARAMETRIX
10
378.4778
20
190.0092
11
215.7580
21
145.5760
0
LINE
8
PARAMETRIX
10
215.7580
20
145.5760
11
205.2360
21
100.0000
0
LINE
8
PARAMETRIX
10
205.2360
20
100.0000
11
200.0000
21
100.0000
0
LINE
8
PARAMETRIX
10
200.0000
20
100.0000
11
0.0000
21
100.0000
0
LINE
8
PARAMETRIX
10
0.0000
20
100.0000
11
0.0000
21
0.0000
0
LINE
8
PARAMETRIX
10
0.0000
20
0.0000
11
200.0000
21
0.0000
0
LINE
8
PARAMETRIX
10
200.0000
20
0.0000
11
205.2360
21
0.0000
0
LINE
8
PARAMETRIX
10
205.2360
20
0.0000
11
367.9558
21
62.4332
0
LINE
8
PARAMETRIX
10
367.9558
20
62.4332
11
378.4778
21
108.0092
0
LINE
8
PARAMETRIX
10
378.4778
20
108.0092
11
383.3648
21
108.0092
0
LINE
8
PARAMETRIX
10
383.3648
20
108.0092
11
427.5410
21
124.5152
0
LINE
8
PARAMETRIX
10
427.5410
20
124.5152
11
470.6599
21
153.5993
0
LINE
8
PARAMETRIX
10
470.6599
20
153.5993
11
553.5637
21
209.5186
0
LINE
8
PARAMETRIX
10
553.5637
20
209.5186
11
509.3874
21
275.0125
0
LINE
8
PARAMETRIX
10
509.3874
20
275.0125
11
426.4837
21
219.0932
0
LINE
8
PARAMETRIX
10
426.4837
20
219.0932
11
383.3648
21
190.0092
0
LINE
8
PARAMETRIX
10
383.3648
20
190.0092
11
378.4778
21
190.0092
0
LINE
8
PARAMETRIX
10
378.4778
20
190.0092
11
215.7580
21
145.5760
0
LINE
8
PARAMETRIX
10
215.7580
20
145.5760
11
205.2360
21
100.0000
0
LINE
8
PARAMETRIX
10
205.2360
20
100.0000
11
200.0000
21
100.0000
0
LINE
8
PARAMETRIX
10
200.0000
20
100.0000
11
0.0000
21
100.0000
0
LINE
8
PARAMETRIX
10
0.0000
20
100.0000
11
0.0000
21
0.0000
0
ARC
8
PARAMETRIX
10
204.2360
20
50.0000
40
1.0000
50
270.0000
51
90.0000
0
LINE
8
PARAMETRIX
10
204.2360
20
51.0000
11
201.0000
21
51.0000
0
ARC
8
PARAMETRIX
10
201.0000
20
50.0000
40
1.0000
50
90.0000
51
270.0000
0
LINE
8
PARAMETRIX
10
201.0000
20
49.0000
11
204.2360
21
49.0000
0
ARC
8
PARAMETRIX
10
286.8208
20
82.1910
40
1.0000
50
167.0000
51
347.0000
0
LINE
8
PARAMETRIX
10
287.7952
20
81.9660
11
297.8674
21
125.5933
0
ARC
8
PARAMETRIX
10
296.8930
20
125.8182
40
1.0000
50
347.0000
51
167.0000
0
LINE
8
PARAMETRIX
10
295.9186
20
126.0432
11
285.8465
21
82.4159
0
ARC
8
PARAMETRIX
10
382.3648
20
149.0092
40
1.0000
50
270.0000
51
90.0000
0
LINE
8
PARAMETRIX
10
382.3648
20
150.0092
11
379.4778
21
150.0092
0
ARC
8
PARAMETRIX
10
379.4778
20
149.0092
40
1.0000
50
90.0000
51
270.0000
0
LINE
8
PARAMETRIX
10
379.4778
20
148.0092
11
382.3648
21
148.0092
0
ARC
8
PARAMETRIX
10
447.7428
20
185.7871
40
1.0000
50
304.0000
51
124.0000
0
LINE
8
PARAMETRIX
10
447.1836
20
186.6161
11
405.7227
21
158.6504
0
ARC
8
PARAMETRIX
10
406.2819
20
157.8214
40
1.0000
50
124.0000
51
304.0000
0
LINE
8
PARAMETRIX
10
406.8411
20
156.9923
11
448.3019
21
184.9580
0
ENDSEC
0
EOF
