<svg width="442" height="607" viewBox="-22 -37 442 607" xmlns="http://www.w3.org/2000/svg"><path d="M 0.0000 529.7029 L 200.0000 529.7029 L 200.0000 519.7029 L 0.0000 519.7029 L 0.0000 529.7029 Z" stroke="green" stroke-width="1" fill="none" /><path d="M 200.0000 529.7029 A 25.0000 25.0000 0 0 0 206.4705 528.8511 L 203.8823 519.1918 A 15.0000 15.0000 0 0 1 200.0000 519.7029 L 200.0000 529.7029 Z" stroke="green" stroke-width="1" fill="none" /><path d="M 206.4705 528.8511 L 374.8179 483.7425 L 372.2297 474.0832 L 203.8823 519.1918 L 206.4705 528.8511 Z" stroke="green" stroke-width="1" fill="none" /><path d="M 374.8179 483.7425 A 25.0000 25.0000 0 0 0 381.2234 438.1652 L 376.0730 446.7368 A 15.0000 15.0000 0 0 1 372.2297 474.0832 L 374.8179 483.7425 Z" stroke="green" stroke-width="1" fill="none" /><path d="M 381.2234 438.1652 L 380.3662 437.6501 L 375.2158 446.2218 L 376.0730 446.7368 L 381.2234 438.1652 Z" stroke="green" stroke-width="1" fill="none" /><path d="M 380.3662 437.6501 A 25.0000 25.0000 0 0 0 374.7995 435.1717 L 371.8758 444.7347 A 15.0000 15.0000 0 0 1 375.2158 446.2218 L 380.3662 437.6501 Z" stroke="green" stroke-width="1" fill="none" /><path d="M 374.7995 435.1717 L 329.7010 421.3837 L 326.7773 430.9467 L 371.8758 444.7347 L 374.7995 435.1717 Z" stroke="green" stroke-width="1" fill="none" /><path d="M 329.7010 421.3837 A 25.0000 25.0000 0 0 0 303.8131 462.0196 L 311.2445 455.3283 A 15.0000 15.0000 0 0 1 326.7773 430.9467 L 329.7010 421.3837 Z" stroke="green" stroke-width="1" fill="none" /><path d="M 303.8131 462.0196 L 370.7261 536.3341 L 378.1576 529.6427 L 311.2445 455.3283 L 303.8131 462.0196 Z" stroke="green" stroke-width="1" fill="none" /><path d="M 0.0000 129.7029 L 200.0000 129.7029 L 200.0000 119.7029 L 0.0000 119.7029 L 0.0000 129.7029 Z" stroke="green" stroke-width="1" fill="none" /><path d="M 200.0000 129.7029 A 25.0000 25.0000 0 0 0 206.4705 128.8511 L 203.8823 119.1918 A 15.0000 15.0000 0 0 1 200.0000 119.7029 L 200.0000 129.7029 Z" stroke="green" stroke-width="1" fill="none" /><path d="M 206.4705 128.8511 L 207.4364 128.5922 L 204.8482 118.9330 L 203.8823 119.1918 L 206.4705 128.8511 Z" stroke="green" stroke-width="1" fill="none" /><path d="M 207.4364 128.5922 A 25.0000 25.0000 0 0 0 213.8419 83.0149 L 208.6915 91.5866 A 15.0000 15.0000 0 0 1 204.8482 118.9330 L 207.4364 128.5922 Z" stroke="green" stroke-width="1" fill="none" /><path d="M 213.8419 83.0149 L 69.2572 -3.8603 L 64.1068 4.7113 L 208.6915 91.5866 L 213.8419 83.0149 Z" stroke="green" stroke-width="1" fill="none" /><path d="M 69.2572 -3.8603 A 25.0000 25.0000 0 0 0 63.6905 -6.3388 L 60.7668 3.2243 A 15.0000 15.0000 0 0 1 64.1068 4.7113 L 69.2572 -3.8603 Z" stroke="green" stroke-width="1" fill="none" /><path d="M 63.6905 -6.3388 L 62.7342 -6.6311 L 59.8105 2.9319 L 60.7668 3.2243 L 63.6905 -6.3388 Z" stroke="green" stroke-width="1" fill="none" /><path d="M 62.7342 -6.6311 A 25.0000 25.0000 0 0 0 36.8463 34.0047 L 44.2778 27.3134 A 15.0000 15.0000 0 0 1 59.8105 2.9319 L 62.7342 -6.6311 Z" stroke="green" stroke-width="1" fill="none" /><path d="M 36.8463 34.0047 L 103.7594 108.3192 L 111.1908 101.6279 L 44.2778 27.3134 L 36.8463 34.0047 Z" stroke="green" stroke-width="1" fill="none" /></svg>