0
SECTION
2
ENTITIES
0
LINE
8
PARAMETRIX
10
0.0000
20
0.0000
11
200.0000
21
0.0000
0
LINE
8
PARAMETRIX
10
200.0000
20
0.0000
11
200.0000
21
10.0000
0
LINE
8
PARAMETRIX
10
200.0000
20
10.0000
11
0.0000
21
10.0000
0
LINE
8
PARAMETRIX
10
0.0000
20
10.0000
11
0.0000
21
0.0000
0
ARC
8
PARAMETRIX
10
200.0000
20
25.0000
40
25.0000
50
270.0000
51
285.0000
0
LINE
8
PARAMETRIX
10
206.4705
20
0.8519
11
203.8823
21
10.5111
0
ARC
8
PARAMETRIX
10
200.0000
20
25.0000
40
15.0000
50
270.0000
51
285.0000
0
LINE
8
PARAMETRIX
10
200.0000
20
10.0000
11
200.0000
21
0.0000
0
LINE
8
PARAMETRIX
10
206.4705
20
0.8519
11
374.8179
21
45.9604
0
LINE
8
PARAMETRIX
10
374.8179
20
45.9604
11
372.2297
21
55.6197
0
LINE
8
PARAMETRIX
10
372.2297
20
55.6197
11
203.8823
21
10.5111
0
LINE
8
PARAMETRIX
10
203.8823
20
10.5111
11
206.4705
21
0.8519
0
ARC
8
PARAMETRIX
10
368.3474
20
70.1086
40
25.0000
50
285.0000
51
59.0000
0
LINE
8
PARAMETRIX
10
381.2234
20
91.5377
11
376.0730
21
82.9661
0
ARC
8
PARAMETRIX
10
368.3474
20
70.1086
40
15.0000
50
285.0000
51
59.0000
0
LINE
8
PARAMETRIX
10
372.2297
20
55.6197
11
374.8179
21
45.9604
0
LINE
8
PARAMETRIX
10
381.2234
20
91.5377
11
380.3662
21
92.0528
0
LINE
8
PARAMETRIX
10
380.3662
20
92.0528
11
375.2158
21
83.4811
0
LINE
8
PARAMETRIX
10
375.2158
20
83.4811
11
376.0730
21
82.9661
0
LINE
8
PARAMETRIX
10
376.0730
20
82.9661
11
381.2234
21
91.5377
0
ARC
8
PARAMETRIX
10
367.4903
20
70.6236
40
25.0000
50
59.0000
51
73.0000
0
LINE
8
PARAMETRIX
10
374.7995
20
94.5312
11
371.8758
21
84.9682
0
ARC
8
PARAMETRIX
10
367.4903
20
70.6236
40
15.0000
50
59.0000
51
73.0000
0
LINE
8
PARAMETRIX
10
375.2158
20
83.4811
11
380.3662
21
92.0528
0
LINE
8
PARAMETRIX
10
374.7995
20
94.5312
11
329.7010
21
108.3192
0
LINE
8
PARAMETRIX
10
329.7010
20
108.3192
11
326.7773
21
98.7562
0
LINE
8
PARAMETRIX
10
326.7773
20
98.7562
11
371.8758
21
84.9682
0
LINE
8
PARAMETRIX
10
371.8758
20
84.9682
11
374.7995
21
94.5312
0
ARC
8
PARAMETRIX
10
322.3917
20
84.4116
40
25.0000
50
73.0000
51
222.0000
0
LINE
8
PARAMETRIX
10
303.8131
20
67.6833
11
311.2445
21
74.3746
0
ARC
8
PARAMETRIX
10
322.3917
20
84.4116
40
15.0000
50
73.0000
51
222.0000
0
LINE
8
PARAMETRIX
10
326.7773
20
98.7562
11
329.7010
21
108.3192
0
LINE
8
PARAMETRIX
10
303.8131
20
67.6833
11
370.7261
21
-6.6311
0
LINE
8
PARAMETRIX
10
370.7261
20
-6.6311
11
378.1576
21
0.0602
0
LINE
8
PARAMETRIX
10
378.1576
20
0.0602
11
311.2445
21
74.3746
0
LINE
8
PARAMETRIX
10
311.2445
20
74.3746
11
303.8131
21
67.6833
0
LINE
8
PARAMETRIX
10
0.0000
20
400.0000
11
200.0000
21
400.0000
0
LINE
8
PARAMETRIX
10
200.0000
20
400.0000
11
200.0000
21
410.0000
0
LINE
8
PARAMETRIX
10
200.0000
20
410.0000
11
0.0000
21
410.0000
0
LINE
8
PARAMETRIX
10
0.0000
20
410.0000
11
0.0000
21
400.0000
0
ARC
8
PARAMETRIX
10
200.0000
20
425.0000
40
25.0000
50
270.0000
51
285.0000
0
LINE
8
PARAMETRIX
10
206.4705
20
400.8519
11
203.8823
21
410.5111
0
ARC
8
PARAMETRIX
10
200.0000
20
425.0000
40
15.0000
50
270.0000
51
285.0000
0
LINE
8
PARAMETRIX
10
200.0000
20
410.0000
11
200.0000
21
400.0000
0
LINE
8
PARAMETRIX
10
206.4705
20
400.8519
11
207.4364
21
401.1107
0
LINE
8
PARAMETRIX
10
207.4364
20
401.1107
11
204.8482
21
410.7699
0
LINE
8
PARAMETRIX
10
204.8482
20
410.7699
11
203.8823
21
410.5111
0
LINE
8
PARAMETRIX
10
203.8823
20
410.5111
11
206.4705
21
400.8519
0
ARC
8
PARAMETRIX
10
200.9659
20
425.2588
40
25.0000
50
285.0000
51
59.0000
0
LINE
8
PARAMETRIX
10
213.8419
20
446.6880
11
208.6915
21
438.1163
0
ARC
8
PARAMETRIX
10
200.9659
20
425.2588
40
15.0000
50
285.0000
51
59.0000
0
LINE
8
PARAMETRIX
10
204.8482
20
410.7699
11
207.4364
21
401.1107
0
LINE
8
PARAMETRIX
10
213.8419
20
446.6880
11
69.2572
21
533.5632
0
LINE
8
PARAMETRIX
10
69.2572
20
533.5632
11
64.1068
21
524.9916
0
LINE
8
PARAMETRIX
10
64.1068
20
524.9916
11
208.6915
21
438.1163
0
LINE
8
PARAMETRIX
10
208.6915
20
438.1163
11
213.8419
21
446.6880
0
ARC
8
PARAMETRIX
10
56.3812
20
512.1341
40
25.0000
50
59.0000
51
73.0000
0
LINE
8
PARAMETRIX
10
63.6905
20
536.0417
11
60.7668
21
526.4786
0
ARC
8
PARAMETRIX
10
56.3812
20
512.1341
40
15.0000
50
59.0000
51
73.0000
0
LINE
8
PARAMETRIX
10
64.1068
20
524.9916
11
69.2572
21
533.5632
0
LINE
8
PARAMETRIX
10
63.6905
20
536.0417
11
62.7342
21
536.3341
0
LINE
8
PARAMETRIX
10
62.7342
20
536.3341
11
59.8105
21
526.7710
0
LINE
8
PARAMETRIX
10
59.8105
20
526.7710
11
60.7668
21
526.4786
0
LINE
8
PARAMETRIX
10
60.7668
20
526.4786
11
63.6905
21
536.0417
0
ARC
8
PARAMETRIX
10
55.4249
20
512.4264
40
25.0000
50
73.0000
51
222.0000
0
LINE
8
PARAMETRIX
10
36.8463
20
495.6982
11
44.2778
21
502.3895
0
ARC
8
PARAMETRIX
10
55.4249
20
512.4264
40
15.0000
50
73.0000
51
222.0000
0
LINE
8
PARAMETRIX
10
59.8105
20
526.7710
11
62.7342
21
536.3341
0
LINE
8
PARAMETRIX
10
36.8463
20
495.6982
11
103.7594
21
421.3837
0
LINE
8
PARAMETRIX
10
103.7594
20
421.3837
11
111.1908
21
428.0750
0
LINE
8
PARAMETRIX
10
111.1908
20
428.0750
11
44.2778
21
502.3895
0
LINE
8
PARAMETRIX
10
44.2778
20
502.3895
11
36.8463
21
495.6982
0
ENDSEC
0
EOF
