<svg width="120" height="76" viewBox="-56 -34 120 76" xmlns="http://www.w3.org/2000/svg"><circle cx="0.0000" cy="0.0000" r="5.0000" stroke="green" stroke-width="1" fill="none" /><path d="M -43.5000 30.0000 L 43.5000 30.0000 L 43.5000 27.0000 L -43.5000 27.0000 L -43.5000 30.0000 Z" stroke="green" stroke-width="1" fill="none" /><path d="M 43.5000 30.0000 A 6.5000 6.5000 0 0 0 50.0000 23.5000 L 47.0000 23.5000 A 3.5000 3.5000 0 0 1 43.5000 27.0000 L 43.5000 30.0000 Z" stroke="green" stroke-width="1" fill="none" /><path d="M 50.0000 23.5000 L 50.0000 -23.5000 L 47.0000 -23.5000 L 47.0000 23.5000 L 50.0000 23.5000 Z" stroke="green" stroke-width="1" fill="none" /><path d="M 50.0000 -23.5000 A 6.5000 6.5000 0 0 0 43.5000 -30.0000 L 43.5000 -27.0000 A 3.5000 3.5000 0 0 1 47.0000 -23.5000 L 50.0000 -23.5000 Z" stroke="green" stroke-width="1" fill="none" /><path d="M 43.5000 -30.0000 L -43.5000 -30.0000 L -43.5000 -27.0000 L 43.5000 -27.0000 L 43.5000 -30.0000 Z" stroke="green" stroke-width="1" fill="none" /><path d="M -43.5000 -30.0000 A 6.5000 6.5000 0 0 0 -50.0000 -23.5000 L -47.0000 -23.5000 A 3.5000 3.5000 0 0 1 -43.5000 -27.0000 L -43.5000 -30.0000 Z" stroke="green" stroke-width="1" fill="none" /><path d="M -50.0000 -23.5000 L -50.0000 23.5000 L -47.0000 23.5000 L -47.0000 -23.5000 L -50.0000 -23.5000 Z" stroke="green" stroke-width="1" fill="none" /><path d="M -50.0000 23.5000 A 6.5000 6.5000 0 0 0 -43.5000 30.0000 L -43.5000 27.0000 A 3.5000 3.5000 0 0 1 -47.0000 23.5000 L -50.0000 23.5000 Z" stroke="green" stroke-width="1" fill="none" /><path d="M -33.5000 26.0000 L 33.5000 26.0000 L 33.5000 23.0000 L -33.5000 23.0000 L -33.5000 26.0000 Z" stroke="green" stroke-width="1" fill="none" /><path d="M 33.5000 26.0000 A 6.5000 6.5000 0 0 0 40.0000 19.5000 L 37.0000 19.5000 A 3.5000 3.5000 0 0 1 33.5000 23.0000 L 33.5000 26.0000 Z" stroke="green" stroke-width="1" fill="none" /><path d="M 40.0000 19.5000 L 40.0000 -19.5000 L 37.0000 -19.5000 L 37.0000 19.5000 L 40.0000 19.5000 Z" stroke="green" stroke-width="1" fill="none" /><path d="M 40.0000 -19.5000 A 6.5000 6.5000 0 0 0 33.5000 -26.0000 L 33.5000 -23.0000 A 3.5000 3.5000 0 0 1 37.0000 -19.5000 L 40.0000 -19.5000 Z" stroke="green" stroke-width="1" fill="none" /><path d="M 33.5000 -26.0000 L -33.5000 -26.0000 L -33.5000 -23.0000 L 33.5000 -23.0000 L 33.5000 -26.0000 Z" stroke="green" stroke-width="1" fill="none" /><path d="M -33.5000 -26.0000 A 6.5000 6.5000 0 0 0 -40.0000 -19.5000 L -37.0000 -19.5000 A 3.5000 3.5000 0 0 1 -33.5000 -23.0000 L -33.5000 -26.0000 Z" stroke="green" stroke-width="1" fill="none" /><path d="M -40.0000 -19.5000 L -40.0000 19.5000 L -37.0000 19.5000 L -37.0000 -19.5000 L -40.0000 -19.5000 Z" stroke="green" stroke-width="1" fill="none" /><path d="M -40.0000 19.5000 A 6.5000 6.5000 0 0 0 -33.5000 26.0000 L -33.5000 23.0000 A 3.5000 3.5000 0 0 1 -37.0000 19.5000 L -40.0000 19.5000 Z" stroke="green" stroke-width="1" fill="none" /></svg>