<svg width="270" height="373" viewBox="-150 -19 270 373" xmlns="http://www.w3.org/2000/svg"><path d="M -43.5000 330.2786 L 43.5000 330.2786 L 43.5000 280.2786 L 90.2595 213.1533 A 110.0000 110.0000 0 1 0 -90.2595 213.1533 L -43.5000 280.2786 L -43.5000 330.2786 Z" stroke="green" stroke-width="1" fill="none" /><circle cx="0.0000" cy="305.2786" r="15.0000" stroke="green" stroke-width="1" fill="none" /><circle cx="0.0000" cy="150.2786" r="100.0000" stroke="green" stroke-width="1" fill="none" /><circle cx="0.0000" cy="265.2786" r="10.0000" stroke="green" stroke-width="1" fill="none" /><circle cx="0.0000" cy="150.2786" r="100.0000" stroke="green" stroke-width="1" fill="none" /><circle cx="0.0000" cy="150.2786" r="97.0000" stroke="green" stroke-width="1" fill="none" /><path d="M -86.2473 0.0000 L -136.8128 43.9560 L -104.0099 81.6914 L -109.5123 139.9321 A 110.0000 110.0000 0 1 0 4.9953 40.3921 L -53.4443 37.7355 L -86.2473 0.0000 Z" stroke="green" stroke-width="1" fill="none" /><circle cx="-95.1286" cy="40.8457" r="15.0000" stroke="green" stroke-width="1" fill="none" /><circle cx="0.0000" cy="150.2786" r="100.0000" stroke="green" stroke-width="1" fill="none" /><circle cx="-72.1665" cy="67.2606" r="5.0000" stroke="green" stroke-width="1" fill="none" /></svg>