0
SECTION
2
ENTITIES
0
LINE
8
PARAMETRIX
10
-74.2920
20
-10.0000
11
125.7080
21
-10.0000
0
LINE
8
PARAMETRIX
10
125.7080
20
-10.0000
11
125.7080
21
90.0000
0
LINE
8
PARAMETRIX
10
125.7080
20
90.0000
11
-74.2920
21
90.0000
0
LINE
8
PARAMETRIX
10
-74.2920
20
90.0000
11
-74.2920
21
-10.0000
0
LINE
8
PARAMETRIX
10
0.0000
20
0.0000
11
100.0000
21
0.0000
0
LINE
8
PARAMETRIX
10
100.0000
20
0.0000
11
115.7080
21
-0.0000
0
LINE
8
PARAMETRIX
10
115.7080
20
-0.0000
11
115.7080
21
-5.0000
0
LINE
8
PARAMETRIX
10
115.7080
20
-5.0000
11
-64.2920
21
-5.0000
0
LINE
8
PARAMETRIX
10
-64.2920
20
-5.0000
11
-64.2920
21
-0.0000
0
LINE
8
PARAMETRIX
10
-64.2920
20
-0.0000
11
-48.5841
21
0.0000
0
LINE
8
PARAMETRIX
10
-48.5841
20
0.0000
11
-8.5841
21
0.0000
0
LINE
8
PARAMETRIX
10
-8.5841
20
0.0000
11
-8.5841
21
80.0000
0
LINE
8
PARAMETRIX
10
-8.5841
20
80.0000
11
-48.5841
21
80.0000
0
LINE
8
PARAMETRIX
10
-48.5841
20
80.0000
11
-64.2920
21
80.0000
0
LINE
8
PARAMETRIX
10
-64.2920
20
80.0000
11
-64.2920
21
85.0000
0
LINE
8
PARAMETRIX
10
-64.2920
20
85.0000
11
115.7080
21
85.0000
0
LINE
8
PARAMETRIX
10
115.7080
20
85.0000
11
115.7080
21
80.0000
0
LINE
8
PARAMETRIX
10
115.7080
20
80.0000
11
100.0000
21
80.0000
0
LINE
8
PARAMETRIX
10
100.0000
20
80.0000
11
0.0000
21
80.0000
0
LINE
8
PARAMETRIX
10
0.0000
20
80.0000
11
0.0000
21
0.0000
0
LINE
8
PARAMETRIX
10
10.0000
20
5.0000
11
10.0000
21
75.0000
0
LINE
8
PARAMETRIX
10
10.0000
20
75.0000
11
90.0000
21
75.0000
0
LINE
8
PARAMETRIX
10
90.0000
20
75.0000
11
90.0000
21
70.0000
0
LINE
8
PARAMETRIX
10
90.0000
20
70.0000
11
74.2920
21
70.0000
0
LINE
8
PARAMETRIX
10
74.2920
20
70.0000
11
34.2920
21
70.0000
0
LINE
8
PARAMETRIX
10
34.2920
20
70.0000
11
34.2920
21
10.0000
0
LINE
8
PARAMETRIX
10
34.2920
20
10.0000
11
74.2920
21
10.0000
0
LINE
8
PARAMETRIX
10
74.2920
20
10.0000
11
90.0000
21
10.0000
0
LINE
8
PARAMETRIX
10
90.0000
20
10.0000
11
90.0000
21
5.0000
0
LINE
8
PARAMETRIX
10
90.0000
20
5.0000
11
10.0000
21
5.0000
0
LINE
8
PARAMETRIX
10
0.0000
20
0.0000
11
100.0000
21
0.0000
0
LINE
8
PARAMETRIX
10
100.0000
20
0.0000
11
115.7080
21
-0.0000
0
LINE
8
PARAMETRIX
10
115.7080
20
-0.0000
11
115.7080
21
-5.0000
0
LINE
8
PARAMETRIX
10
115.7080
20
-5.0000
11
-64.2920
21
-5.0000
0
LINE
8
PARAMETRIX
10
-64.2920
20
-5.0000
11
-64.2920
21
-0.0000
0
LINE
8
PARAMETRIX
10
-64.2920
20
-0.0000
11
-48.5841
21
0.0000
0
LINE
8
PARAMETRIX
10
-48.5841
20
0.0000
11
-8.5841
21
0.0000
0
LINE
8
PARAMETRIX
10
-8.5841
20
0.0000
11
-8.5841
21
80.0000
0
LINE
8
PARAMETRIX
10
-8.5841
20
80.0000
11
-48.5841
21
80.0000
0
LINE
8
PARAMETRIX
10
-48.5841
20
80.0000
11
-64.2920
21
80.0000
0
LINE
8
PARAMETRIX
10
-64.2920
20
80.0000
11
-64.2920
21
85.0000
0
LINE
8
PARAMETRIX
10
-64.2920
20
85.0000
11
115.7080
21
85.0000
0
LINE
8
PARAMETRIX
10
115.7080
20
85.0000
11
115.7080
21
80.0000
0
LINE
8
PARAMETRIX
10
115.7080
20
80.0000
11
100.0000
21
80.0000
0
LINE
8
PARAMETRIX
10
100.0000
20
80.0000
11
0.0000
21
80.0000
0
LINE
8
PARAMETRIX
10
0.0000
20
80.0000
11
0.0000
21
0.0000
0
CIRCLE
8
PARAMETRIX
10
-28.5841
20
40.0000
40
15.0000
0
CIRCLE
8
PARAMETRIX
10
54.2920
20
40.0000
40
15.0000
0
ARC
8
PARAMETRIX
10
114.7080
20
40.0000
40
1.0000
50
270.0000
51
90.0000
0
LINE
8
PARAMETRIX
10
114.7080
20
41.0000
11
101.0000
21
41.0000
0
ARC
8
PARAMETRIX
10
101.0000
20
40.0000
40
1.0000
50
90.0000
51
270.0000
0
LINE
8
PARAMETRIX
10
101.0000
20
39.0000
11
114.7080
21
39.0000
0
ARC
8
PARAMETRIX
10
89.0000
20
40.0000
40
1.0000
50
270.0000
51
90.0000
0
LINE
8
PARAMETRIX
10
89.0000
20
41.0000
11
75.2920
21
41.0000
0
ARC
8
PARAMETRIX
10
75.2920
20
40.0000
40
1.0000
50
90.0000
51
270.0000
0
LINE
8
PARAMETRIX
10
75.2920
20
39.0000
11
89.0000
21
39.0000
0
ARC
8
PARAMETRIX
10
-63.2920
20
40.0000
40
1.0000
50
90.0000
51
270.0000
0
LINE
8
PARAMETRIX
10
-63.2920
20
39.0000
11
-49.5841
21
39.0000
0
ARC
8
PARAMETRIX
10
-49.5841
20
40.0000
40
1.0000
50
270.0000
51
90.0000
0
LINE
8
PARAMETRIX
10
-49.5841
20
41.0000
11
-63.2920
21
41.0000
0
ENDSEC
0
EOF
