<svg width="230" height="120" viewBox="-86 -16 230 120" xmlns="http://www.w3.org/2000/svg"><path d="M -74.2920 90.0000 L 125.7080 90.0000 L 125.7080 -10.0000 L -74.2920 -10.0000 L -74.2920 90.0000 Z" stroke="green" stroke-width="1" fill="none" /><path d="M 0.0000 80.0000 L 100.0000 80.0000 L 115.7080 80.0000 L 115.7080 85.0000 L -64.2920 85.0000 L -64.2920 80.0000 L -48.5841 80.0000 L -8.5841 80.0000 L -8.5841 -0.0000 L -48.5841 -0.0000 L -64.2920 0.0000 L -64.2920 -5.0000 L 115.7080 -5.0000 L 115.7080 0.0000 L 100.0000 0.0000 L 0.0000 0.0000 L 0.0000 80.0000 Z" stroke="green" stroke-width="1" fill="none" /><path d="M 10.0000 75.0000 L 10.0000 5.0000 L 90.0000 5.0000 L 90.0000 10.0000 L 74.2920 10.0000 L 34.2920 10.0000 L 34.2920 70.0000 L 74.2920 70.0000 L 90.0000 70.0000 L 90.0000 75.0000 L 10.0000 75.0000 Z" stroke="green" stroke-width="1" fill="none" /><path d="M 0.0000 80.0000 L 100.0000 80.0000 L 115.7080 80.0000 L 115.7080 85.0000 L -64.2920 85.0000 L -64.2920 80.0000 L -48.5841 80.0000 L -8.5841 80.0000 L -8.5841 -0.0000 L -48.5841 -0.0000 L -64.2920 0.0000 L -64.2920 -5.0000 L 115.7080 -5.0000 L 115.7080 0.0000 L 100.0000 0.0000 L 0.0000 0.0000 L 0.0000 80.0000 Z" stroke="green" stroke-width="1" fill="none" /><circle cx="-28.5841" cy="40.0000" r="15.0000" stroke="green" stroke-width="1" fill="none" /><circle cx="54.2920" cy="40.0000" r="15.0000" stroke="green" stroke-width="1" fill="none" /><path d="M 114.7080 41.0000 A 1.0000 1.0000 0 0 0 114.7080 39.0000 L 101.0000 39.0000 A 1.0000 1.0000 0 0 0 101.0000 41.0000 L 114.7080 41.0000 Z" stroke="green" stroke-width="1" fill="none" /><path d="M 89.0000 41.0000 A 1.0000 1.0000 0 0 0 89.0000 39.0000 L 75.2920 39.0000 A 1.0000 1.0000 0 0 0 75.2920 41.0000 L 89.0000 41.0000 Z" stroke="green" stroke-width="1" fill="none" /><path d="M -63.2920 39.0000 A 1.0000 1.0000 0 0 0 -63.2920 41.0000 L -49.5841 41.0000 A 1.0000 1.0000 0 0 0 -49.5841 39.0000 L -63.2920 39.0000 Z" stroke="green" stroke-width="1" fill="none" /></svg>