<svg width="54" height="478" viewBox="-18 -39 54 478" xmlns="http://www.w3.org/2000/svg"><path d="M 0.0000 395.0000 L 10.0000 395.0000 L 10.0000 385.0000 L 0.0000 385.0000 L 0.0000 395.0000 Z" stroke="green" stroke-width="1" fill="none" /><path d="M 10.0000 395.0000 A 5.0000 5.0000 0 0 1 15.0000 400.0000 L 25.0000 400.0000 A 15.0000 15.0000 0 0 0 10.0000 385.0000 L 10.0000 395.0000 Z" stroke="green" stroke-width="1" fill="none" /><path d="M 15.0000 400.0000 L 15.0000 410.0000 L 25.0000 410.0000 L 25.0000 400.0000 L 15.0000 400.0000 Z" stroke="green" stroke-width="1" fill="none" /><path d="M 0.0000 385.0000 A 5.0000 5.0000 0 0 1 -5.0000 380.0000 L -15.0000 380.0000 A 15.0000 15.0000 0 0 0 -0.0000 395.0000 L 0.0000 385.0000 Z" stroke="green" stroke-width="1" fill="none" /><path d="M -5.0000 380.0000 L -5.0000 340.0000 L -15.0000 340.0000 L -15.0000 380.0000 L -5.0000 380.0000 Z" stroke="green" stroke-width="1" fill="none" /><path d="M 0.0000 -5.0000 L 10.0000 -5.0000 L 10.0000 -15.0000 L 0.0000 -15.0000 L 0.0000 -5.0000 Z" stroke="green" stroke-width="1" fill="none" /><path d="M 10.0000 -5.0000 A 5.0000 5.0000 0 0 1 15.0000 0.0000 L 25.0000 0.0000 A 15.0000 15.0000 0 0 0 10.0000 -15.0000 L 10.0000 -5.0000 Z" stroke="green" stroke-width="1" fill="none" /><path d="M 15.0000 0.0000 L 15.0000 40.0000 L 25.0000 40.0000 L 25.0000 0.0000 L 15.0000 0.0000 Z" stroke="green" stroke-width="1" fill="none" /></svg>