0
SECTION
2
ENTITIES
0
LINE
8
PARAMETRIX
10
0.0000
20
0.0000
11
10.0000
21
0.0000
0
LINE
8
PARAMETRIX
10
10.0000
20
0.0000
11
10.0000
21
10.0000
0
LINE
8
PARAMETRIX
10
10.0000
20
10.0000
11
0.0000
21
10.0000
0
LINE
8
PARAMETRIX
10
0.0000
20
10.0000
11
0.0000
21
0.0000
0
ARC
8
PARAMETRIX
10
10.0000
20
-5.0000
40
5.0000
50
0.0000
51
90.0000
0
LINE
8
PARAMETRIX
10
15.0000
20
-5.0000
11
25.0000
21
-5.0000
0
ARC
8
PARAMETRIX
10
10.0000
20
-5.0000
40
15.0000
50
0.0000
51
90.0000
0
LINE
8
PARAMETRIX
10
10.0000
20
10.0000
11
10.0000
21
0.0000
0
LINE
8
PARAMETRIX
10
15.0000
20
-5.0000
11
15.0000
21
-15.0000
0
LINE
8
PARAMETRIX
10
15.0000
20
-15.0000
11
25.0000
21
-15.0000
0
LINE
8
PARAMETRIX
10
25.0000
20
-15.0000
11
25.0000
21
-5.0000
0
LINE
8
PARAMETRIX
10
25.0000
20
-5.0000
11
15.0000
21
-5.0000
0
ARC
8
PARAMETRIX
10
0.0000
20
15.0000
40
5.0000
50
180.0000
51
270.0000
0
LINE
8
PARAMETRIX
10
-5.0000
20
15.0000
11
-15.0000
21
15.0000
0
ARC
8
PARAMETRIX
10
0.0000
20
15.0000
40
15.0000
50
180.0000
51
270.0000
0
LINE
8
PARAMETRIX
10
-0.0000
20
0.0000
11
0.0000
21
10.0000
0
LINE
8
PARAMETRIX
10
-5.0000
20
15.0000
11
-5.0000
21
55.0000
0
LINE
8
PARAMETRIX
10
-5.0000
20
55.0000
11
-15.0000
21
55.0000
0
LINE
8
PARAMETRIX
10
-15.0000
20
55.0000
11
-15.0000
21
15.0000
0
LINE
8
PARAMETRIX
10
-15.0000
20
15.0000
11
-5.0000
21
15.0000
0
LINE
8
PARAMETRIX
10
0.0000
20
400.0000
11
10.0000
21
400.0000
0
LINE
8
PARAMETRIX
10
10.0000
20
400.0000
11
10.0000
21
410.0000
0
LINE
8
PARAMETRIX
10
10.0000
20
410.0000
11
0.0000
21
410.0000
0
LINE
8
PARAMETRIX
10
0.0000
20
410.0000
11
0.0000
21
400.0000
0
ARC
8
PARAMETRIX
10
10.0000
20
395.0000
40
5.0000
50
0.0000
51
90.0000
0
LINE
8
PARAMETRIX
10
15.0000
20
395.0000
11
25.0000
21
395.0000
0
ARC
8
PARAMETRIX
10
10.0000
20
395.0000
40
15.0000
50
0.0000
51
90.0000
0
LINE
8
PARAMETRIX
10
10.0000
20
410.0000
11
10.0000
21
400.0000
0
LINE
8
PARAMETRIX
10
15.0000
20
395.0000
11
15.0000
21
355.0000
0
LINE
8
PARAMETRIX
10
15.0000
20
355.0000
11
25.0000
21
355.0000
0
LINE
8
PARAMETRIX
10
25.0000
20
355.0000
11
25.0000
21
395.0000
0
LINE
8
PARAMETRIX
10
25.0000
20
395.0000
11
15.0000
21
395.0000
0
ENDSEC
0
EOF
