solid OpenSCAD_Model
  facet normal -0.707107 0.707107 0
    outer loop
      vertex 2.3396 76.4279 0
      vertex 3.5721 77.6604 10
      vertex 3.5721 77.6604 0
    endloop
  endfacet
  facet normal -0.707107 0.707107 0
    outer loop
      vertex 3.5721 77.6604 10
      vertex 2.3396 76.4279 0
      vertex 2.3396 76.4279 10
    endloop
  endfacet
  facet normal 0 1 0
    outer loop
      vertex 71.547 80 8.33333
      vertex 63.8302 80 11.7861
      vertex 64.3301 80 12.5
    endloop
  endfacet
  facet normal 0 1 0
    outer loop
      vertex 71.547 80 8.33333
      vertex 63.2139 80 11.1698
      vertex 63.8302 80 11.7861
    endloop
  endfacet
  facet normal 0 1 -0
    outer loop
      vertex 69.1314 80 3.09969
      vertex 63.2139 80 11.1698
      vertex 71.547 80 8.33333
    endloop
  endfacet
  facet normal 0 1 0
    outer loop
      vertex 63.2139 80 11.1698
      vertex 69.1314 80 3.09969
      vertex 62.5 80 10.6699
    endloop
  endfacet
  facet normal 0 1 -0
    outer loop
      vertex 67.5 80 2.0096
      vertex 62.5 80 10.6699
      vertex 69.1314 80 3.09969
    endloop
  endfacet
  facet normal 0 1 -0
    outer loop
      vertex 65.7403 80 1.1418
      vertex 62.5 80 10.6699
      vertex 67.5 80 2.0096
    endloop
  endfacet
  facet normal 0 1 0
    outer loop
      vertex 62.5 80 10.6699
      vertex 65.7403 80 1.1418
      vertex 61.7101 80 10.3015
    endloop
  endfacet
  facet normal 0 1 -0
    outer loop
      vertex 71.9003 80 5.86859
      vertex 71.547 80 8.33333
      vertex 72.9904 80 7.5
    endloop
  endfacet
  facet normal 0 1 0
    outer loop
      vertex 70.6066 80 4.39339
      vertex 71.547 80 8.33333
      vertex 71.9003 80 5.86859
    endloop
  endfacet
  facet normal 0 1 0
    outer loop
      vertex 69.1314 80 3.09969
      vertex 71.547 80 8.33333
      vertex 70.6066 80 4.39339
    endloop
  endfacet
  facet normal 0 1 -0
    outer loop
      vertex 63.8823 80 0.511093
      vertex 61.7101 80 10.3015
      vertex 65.7403 80 1.1418
    endloop
  endfacet
  facet normal 0 1 0
    outer loop
      vertex 61.7101 80 10.3015
      vertex 63.8823 80 0.511093
      vertex 60.8682 80 10.076
    endloop
  endfacet
  facet normal 0 1 -0
    outer loop
      vertex 61.9579 80 0.128296
      vertex 60.8682 80 10.076
      vertex 63.8823 80 0.511093
    endloop
  endfacet
  facet normal 0 1 0
    outer loop
      vertex 60.8682 80 10.076
      vertex 61.9579 80 0.128296
      vertex 60 80 10
    endloop
  endfacet
  facet normal 0 1 0
    outer loop
      vertex 60 80 10
      vertex 61.9579 80 0.128296
      vertex 60 80 0
    endloop
  endfacet
  facet normal 0 1 0
    outer loop
      vertex 60 80 10
      vertex 60 80 0
      vertex 10 80 10
    endloop
  endfacet
  facet normal 0 1 0
    outer loop
      vertex 10 80 10
      vertex 60 80 0
      vertex 10 80 0
    endloop
  endfacet
  facet normal -0.906323 0.422585 0
    outer loop
      vertex 0.603088 73.4202 0
      vertex 1.33969 75 10
      vertex 1.33969 75 0
    endloop
  endfacet
  facet normal -0.906323 0.422585 0
    outer loop
      vertex 1.33969 75 10
      vertex 0.603088 73.4202 0
      vertex 0.603088 73.4202 10
    endloop
  endfacet
  facet normal -0.0871415 0.996196 0
    outer loop
      vertex 10 80 0
      vertex 8.26349 79.8481 10
      vertex 10 80 10
    endloop
  endfacet
  facet normal -0.0871415 0.996196 0
    outer loop
      vertex 8.26349 79.8481 10
      vertex 10 80 0
      vertex 8.26349 79.8481 0
    endloop
  endfacet
  facet normal -1 0 0
    outer loop
      vertex 0 10 0
      vertex 0 70 10
      vertex 0 70 0
    endloop
  endfacet
  facet normal -1 -0 0
    outer loop
      vertex 0 70 10
      vertex 0 10 0
      vertex 0 10 10
    endloop
  endfacet
  facet normal -0.819129 0.573609 0
    outer loop
      vertex 1.33969 75 0
      vertex 2.3396 76.4279 10
      vertex 2.3396 76.4279 0
    endloop
  endfacet
  facet normal -0.819129 0.573609 0
    outer loop
      vertex 2.3396 76.4279 10
      vertex 1.33969 75 0
      vertex 1.33969 75 10
    endloop
  endfacet
  facet normal -0.422586 0.906323 0
    outer loop
      vertex 6.57979 79.3969 0
      vertex 5 78.6603 10
      vertex 6.57979 79.3969 10
    endloop
  endfacet
  facet normal -0.422586 0.906323 0
    outer loop
      vertex 5 78.6603 10
      vertex 6.57979 79.3969 0
      vertex 5 78.6603 0
    endloop
  endfacet
  facet normal -0.573605 0.819132 0
    outer loop
      vertex 5 78.6603 0
      vertex 3.5721 77.6604 10
      vertex 5 78.6603 10
    endloop
  endfacet
  facet normal -0.573605 0.819132 0
    outer loop
      vertex 3.5721 77.6604 10
      vertex 5 78.6603 0
      vertex 3.5721 77.6604 0
    endloop
  endfacet
  facet normal -0.995187 -0.0979894 0
    outer loop
      vertex 0.192093 8.04909 0
      vertex 0 10 10
      vertex 0 10 0
    endloop
  endfacet
  facet normal -0.995187 -0.0979894 0
    outer loop
      vertex 0 10 10
      vertex 0.192093 8.04909 0
      vertex 0.192093 8.04909 10
    endloop
  endfacet
  facet normal -0.258848 0.965918 0
    outer loop
      vertex 8.26349 79.8481 0
      vertex 6.57979 79.3969 10
      vertex 8.26349 79.8481 10
    endloop
  endfacet
  facet normal -0.258848 0.965918 0
    outer loop
      vertex 6.57979 79.3969 10
      vertex 8.26349 79.8481 0
      vertex 6.57979 79.3969 0
    endloop
  endfacet
  facet normal -0.0979894 -0.995187 0
    outer loop
      vertex 8.04909 0.192093 0
      vertex 10 0 10
      vertex 8.04909 0.192093 10
    endloop
  endfacet
  facet normal -0.0979894 -0.995187 -0
    outer loop
      vertex 10 0 10
      vertex 8.04909 0.192093 0
      vertex 10 0 0
    endloop
  endfacet
  facet normal -0.773025 -0.634376 0
    outer loop
      vertex 2.92889 2.92889 0
      vertex 1.68529 4.44429 10
      vertex 1.68529 4.44429 0
    endloop
  endfacet
  facet normal -0.773025 -0.634376 0
    outer loop
      vertex 1.68529 4.44429 10
      vertex 2.92889 2.92889 0
      vertex 2.92889 2.92889 10
    endloop
  endfacet
  facet normal 0 -1 0
    outer loop
      vertex 60 0 0
      vertex 60 0 10
      vertex 10 0 10
    endloop
  endfacet
  facet normal -0 -1 0
    outer loop
      vertex 61.9579 0 0.128296
      vertex 60 0 10
      vertex 60 0 0
    endloop
  endfacet
  facet normal -0 -1 0
    outer loop
      vertex 63.8823 0 0.511093
      vertex 60 0 10
      vertex 61.9579 0 0.128296
    endloop
  endfacet
  facet normal 0 -1 0
    outer loop
      vertex 71.547 0 8.33333
      vertex 71.9003 0 5.86859
      vertex 72.9904 0 7.5
    endloop
  endfacet
  facet normal 0 -1 -0
    outer loop
      vertex 71.547 0 8.33333
      vertex 70.6066 0 4.39339
      vertex 71.9003 0 5.86859
    endloop
  endfacet
  facet normal 0 -1 0
    outer loop
      vertex 71.547 0 8.33333
      vertex 69.1314 0 3.09969
      vertex 70.6066 0 4.39339
    endloop
  endfacet
  facet normal 0 -1 0
    outer loop
      vertex 60 0 10
      vertex 69.1314 0 3.09969
      vertex 71.547 0 8.33333
    endloop
  endfacet
  facet normal -0 -1 0
    outer loop
      vertex 69.1314 0 3.09969
      vertex 60 0 10
      vertex 67.5 0 2.0096
    endloop
  endfacet
  facet normal -0 -1 0
    outer loop
      vertex 67.5 0 2.0096
      vertex 60 0 10
      vertex 65.7403 0 1.1418
    endloop
  endfacet
  facet normal 0 -1 0
    outer loop
      vertex 60 0 0
      vertex 10 0 10
      vertex 10 0 0
    endloop
  endfacet
  facet normal -0 -1 0
    outer loop
      vertex 65.7403 0 1.1418
      vertex 60 0 10
      vertex 63.8823 0 0.511093
    endloop
  endfacet
  facet normal 0 -1 0
    outer loop
      vertex 63.8302 0 11.7861
      vertex 71.547 0 8.33333
      vertex 64.3301 0 12.5
    endloop
  endfacet
  facet normal 0 -1 0
    outer loop
      vertex 63.2139 0 11.1698
      vertex 71.547 0 8.33333
      vertex 63.8302 0 11.7861
    endloop
  endfacet
  facet normal 0 -1 0
    outer loop
      vertex 62.5 0 10.6699
      vertex 71.547 0 8.33333
      vertex 63.2139 0 11.1698
    endloop
  endfacet
  facet normal 0 -1 0
    outer loop
      vertex 61.7101 0 10.3015
      vertex 71.547 0 8.33333
      vertex 62.5 0 10.6699
    endloop
  endfacet
  facet normal 0 -1 0
    outer loop
      vertex 60.8682 0 10.076
      vertex 71.547 0 8.33333
      vertex 61.7101 0 10.3015
    endloop
  endfacet
  facet normal 0 -1 0
    outer loop
      vertex 71.547 0 8.33333
      vertex 60.8682 0 10.076
      vertex 60 0 10
    endloop
  endfacet
  facet normal -0.881927 -0.471386 0
    outer loop
      vertex 1.68529 4.44429 0
      vertex 0.7612 6.17319 10
      vertex 0.7612 6.17319 0
    endloop
  endfacet
  facet normal -0.881927 -0.471386 0
    outer loop
      vertex 0.7612 6.17319 10
      vertex 1.68529 4.44429 0
      vertex 1.68529 4.44429 10
    endloop
  endfacet
  facet normal 0 0 -1
    outer loop
      vertex 0 10 0
      vertex 60 0 0
      vertex 10 0 0
    endloop
  endfacet
  facet normal 0 0 -1
    outer loop
      vertex 60 0 0
      vertex 0 10 0
      vertex 60 80 0
    endloop
  endfacet
  facet normal -0 0 -1
    outer loop
      vertex 60 80 0
      vertex 0 70 0
      vertex 10 80 0
    endloop
  endfacet
  facet normal 0 0 -1
    outer loop
      vertex 0 10 0
      vertex 10 0 0
      vertex 8.04909 0.192093 0
    endloop
  endfacet
  facet normal 0 0 -1
    outer loop
      vertex 10 80 0
      vertex 0 70 0
      vertex 8.26349 79.8481 0
    endloop
  endfacet
  facet normal 0 0 -1
    outer loop
      vertex 0 10 0
      vertex 8.04909 0.192093 0
      vertex 6.17319 0.7612 0
    endloop
  endfacet
  facet normal 0 0 -1
    outer loop
      vertex 60 80 0
      vertex 0 10 0
      vertex 0 70 0
    endloop
  endfacet
  facet normal 0 0 -1
    outer loop
      vertex 0 10 0
      vertex 6.17319 0.7612 0
      vertex 4.44429 1.68529 0
    endloop
  endfacet
  facet normal 0 0 -1
    outer loop
      vertex 8.26349 79.8481 0
      vertex 0 70 0
      vertex 6.57979 79.3969 0
    endloop
  endfacet
  facet normal 0 0 -1
    outer loop
      vertex 0 10 0
      vertex 4.44429 1.68529 0
      vertex 2.92889 2.92889 0
    endloop
  endfacet
  facet normal 0 0 -1
    outer loop
      vertex 6.57979 79.3969 0
      vertex 0 70 0
      vertex 5 78.6603 0
    endloop
  endfacet
  facet normal 0 0 -1
    outer loop
      vertex 0 10 0
      vertex 2.92889 2.92889 0
      vertex 1.68529 4.44429 0
    endloop
  endfacet
  facet normal 0 0 -1
    outer loop
      vertex 5 78.6603 0
      vertex 0 70 0
      vertex 3.5721 77.6604 0
    endloop
  endfacet
  facet normal 0 0 -1
    outer loop
      vertex 0 10 0
      vertex 1.68529 4.44429 0
      vertex 0.7612 6.17319 0
    endloop
  endfacet
  facet normal 0 0 -1
    outer loop
      vertex 3.5721 77.6604 0
      vertex 0 70 0
      vertex 2.3396 76.4279 0
    endloop
  endfacet
  facet normal 0 0 -1
    outer loop
      vertex 0 10 0
      vertex 0.7612 6.17319 0
      vertex 0.192093 8.04909 0
    endloop
  endfacet
  facet normal 0 0 -1
    outer loop
      vertex 2.3396 76.4279 0
      vertex 0 70 0
      vertex 1.33969 75 0
    endloop
  endfacet
  facet normal 0 0 -1
    outer loop
      vertex 1.33969 75 0
      vertex 0 70 0
      vertex 0.603088 73.4202 0
    endloop
  endfacet
  facet normal 0 0 -1
    outer loop
      vertex 0.603088 73.4202 0
      vertex 0 70 0
      vertex 0.151886 71.7365 0
    endloop
  endfacet
  facet normal -0.290312 -0.956932 0
    outer loop
      vertex 6.17319 0.7612 0
      vertex 8.04909 0.192093 10
      vertex 6.17319 0.7612 10
    endloop
  endfacet
  facet normal -0.290312 -0.956932 -0
    outer loop
      vertex 8.04909 0.192093 10
      vertex 6.17319 0.7612 0
      vertex 8.04909 0.192093 0
    endloop
  endfacet
  facet normal -0.634376 -0.773025 0
    outer loop
      vertex 2.92889 2.92889 0
      vertex 4.44429 1.68529 10
      vertex 2.92889 2.92889 10
    endloop
  endfacet
  facet normal -0.634376 -0.773025 -0
    outer loop
      vertex 4.44429 1.68529 10
      vertex 2.92889 2.92889 0
      vertex 4.44429 1.68529 0
    endloop
  endfacet
  facet normal -0.965918 0.258849 0
    outer loop
      vertex 0.151886 71.7365 0
      vertex 0.603088 73.4202 10
      vertex 0.603088 73.4202 0
    endloop
  endfacet
  facet normal -0.965918 0.258849 0
    outer loop
      vertex 0.603088 73.4202 10
      vertex 0.151886 71.7365 0
      vertex 0.151886 71.7365 10
    endloop
  endfacet
  facet normal -0.996197 0.0871341 0
    outer loop
      vertex 0 70 0
      vertex 0.151886 71.7365 10
      vertex 0.151886 71.7365 0
    endloop
  endfacet
  facet normal -0.996197 0.0871341 0
    outer loop
      vertex 0.151886 71.7365 10
      vertex 0 70 0
      vertex 0 70 10
    endloop
  endfacet
  facet normal -0.956932 -0.290312 0
    outer loop
      vertex 0.7612 6.17319 0
      vertex 0.192093 8.04909 10
      vertex 0.192093 8.04909 0
    endloop
  endfacet
  facet normal -0.956932 -0.290312 0
    outer loop
      vertex 0.192093 8.04909 10
      vertex 0.7612 6.17319 0
      vertex 0.7612 6.17319 10
    endloop
  endfacet
  facet normal 0 0 1
    outer loop
      vertex 0 70 10
      vertex 60 80 10
      vertex 10 80 10
    endloop
  endfacet
  facet normal 0 0 1
    outer loop
      vertex 60 80 10
      vertex 0 70 10
      vertex 60 0 10
    endloop
  endfacet
  facet normal 0 0 1
    outer loop
      vertex 0 70 10
      vertex 10 80 10
      vertex 8.26349 79.8481 10
    endloop
  endfacet
  facet normal -0 0 1
    outer loop
      vertex 0 10 10
      vertex 60 0 10
      vertex 0 70 10
    endloop
  endfacet
  facet normal 0 0 1
    outer loop
      vertex 0 70 10
      vertex 8.26349 79.8481 10
      vertex 6.57979 79.3969 10
    endloop
  endfacet
  facet normal 0 0 1
    outer loop
      vertex 60 0 10
      vertex 0 10 10
      vertex 10 0 10
    endloop
  endfacet
  facet normal 0 0 1
    outer loop
      vertex 0 70 10
      vertex 6.57979 79.3969 10
      vertex 5 78.6603 10
    endloop
  endfacet
  facet normal 0 0 1
    outer loop
      vertex 10 0 10
      vertex 0 10 10
      vertex 8.04909 0.192093 10
    endloop
  endfacet
  facet normal 0 0 1
    outer loop
      vertex 0 70 10
      vertex 5 78.6603 10
      vertex 3.5721 77.6604 10
    endloop
  endfacet
  facet normal 0 0 1
    outer loop
      vertex 8.04909 0.192093 10
      vertex 0 10 10
      vertex 6.17319 0.7612 10
    endloop
  endfacet
  facet normal 0 0 1
    outer loop
      vertex 0 70 10
      vertex 3.5721 77.6604 10
      vertex 2.3396 76.4279 10
    endloop
  endfacet
  facet normal 0 0 1
    outer loop
      vertex 6.17319 0.7612 10
      vertex 0 10 10
      vertex 4.44429 1.68529 10
    endloop
  endfacet
  facet normal 0 0 1
    outer loop
      vertex 0 70 10
      vertex 2.3396 76.4279 10
      vertex 1.33969 75 10
    endloop
  endfacet
  facet normal 0 0 1
    outer loop
      vertex 4.44429 1.68529 10
      vertex 0 10 10
      vertex 2.92889 2.92889 10
    endloop
  endfacet
  facet normal 0 0 1
    outer loop
      vertex 0 70 10
      vertex 1.33969 75 10
      vertex 0.603088 73.4202 10
    endloop
  endfacet
  facet normal 0 0 1
    outer loop
      vertex 2.92889 2.92889 10
      vertex 0 10 10
      vertex 1.68529 4.44429 10
    endloop
  endfacet
  facet normal 0 0 1
    outer loop
      vertex 0 70 10
      vertex 0.603088 73.4202 10
      vertex 0.151886 71.7365 10
    endloop
  endfacet
  facet normal 0 0 1
    outer loop
      vertex 1.68529 4.44429 10
      vertex 0 10 10
      vertex 0.7612 6.17319 10
    endloop
  endfacet
  facet normal 0 0 1
    outer loop
      vertex 0.7612 6.17319 10
      vertex 0 10 10
      vertex 0.192093 8.04909 10
    endloop
  endfacet
  facet normal -0.471386 -0.881927 0
    outer loop
      vertex 4.44429 1.68529 0
      vertex 6.17319 0.7612 10
      vertex 4.44429 1.68529 10
    endloop
  endfacet
  facet normal -0.471386 -0.881927 -0
    outer loop
      vertex 6.17319 0.7612 10
      vertex 4.44429 1.68529 0
      vertex 6.17319 0.7612 0
    endloop
  endfacet
  facet normal 0.865969 9.93798e-05 -0.500098
    outer loop
      vertex 87.6094 33.415 32.8209
      vertex 72.9904 3.84163e-06 7.5
      vertex 88.1373 34.8662 33.7353
    endloop
  endfacet
  facet normal 0.866026 0 -0.499999
    outer loop
      vertex 72.9904 3.84163e-06 7.5
      vertex 87.6094 33.415 32.8209
      vertex 72.9904 3.81469e-06 7.5
    endloop
  endfacet
  facet normal -0.866048 1.59463e-05 0.49996
    outer loop
      vertex 79.8668 36.4827 39.4103
      vertex 78.9492 33.415 37.8209
      vertex 79.4771 34.8662 38.7353
    endloop
  endfacet
  facet normal 0.866024 3.55622e-06 -0.500002
    outer loop
      vertex 88.1373 34.8662 33.7353
      vertex 72.9904 4.21016e-06 7.5
      vertex 88.8465 40 34.9637
    endloop
  endfacet
  facet normal 0.866026 0 -0.499999
    outer loop
      vertex 72.9904 4.21016e-06 7.5
      vertex 88.1373 34.8662 33.7353
      vertex 72.9904 3.84163e-06 7.5
    endloop
  endfacet
  facet normal 0.866026 0 -0.499998
    outer loop
      vertex 88.8465 40 34.9637
      vertex 72.9904 4.21016e-06 7.5
      vertex 72.9904 80 7.5
    endloop
  endfacet
  facet normal 0.450383 -0.434314 0.780081
    outer loop
      vertex 79.8668 36.4827 39.4103
      vertex 88.1373 34.8662 33.7353
      vertex 88.527 36.4827 34.4103
    endloop
  endfacet
  facet normal 0.450383 -0.434314 0.780081
    outer loop
      vertex 88.1373 34.8662 33.7353
      vertex 79.8668 36.4827 39.4103
      vertex 79.4771 34.8662 38.7353
    endloop
  endfacet
  facet normal 0.497985 0.0897452 0.862529
    outer loop
      vertex 88.766 41.7874 34.8242
      vertex 80.1863 40 39.9637
      vertex 88.8465 40 34.9637
    endloop
  endfacet
  facet normal 0.497985 0.0897452 0.862529
    outer loop
      vertex 80.1863 40 39.9637
      vertex 88.766 41.7874 34.8242
      vertex 80.1058 41.7874 39.8242
    endloop
  endfacet
  facet normal 0.866024 -3.55622e-06 -0.500002
    outer loop
      vertex 72.9904 80 7.5
      vertex 88.1373 45.1338 33.7353
      vertex 88.8465 40 34.9637
    endloop
  endfacet
  facet normal 0.404314 -0.588327 0.700287
    outer loop
      vertex 79.4771 34.8662 38.7353
      vertex 87.6094 33.415 32.8209
      vertex 88.1373 34.8662 33.7353
    endloop
  endfacet
  facet normal 0.404314 -0.588327 0.700287
    outer loop
      vertex 87.6094 33.415 32.8209
      vertex 79.4771 34.8662 38.7353
      vertex 78.9492 33.415 37.8209
    endloop
  endfacet
  facet normal 0.376288 -0.658504 0.651751
    outer loop
      vertex 71.547 0 8.33333
      vertex 78.9492 33.415 37.8209
      vertex 64.3301 0 12.5
    endloop
  endfacet
  facet normal 0.37629 -0.658504 0.65175
    outer loop
      vertex 78.9492 33.415 37.8209
      vertex 71.547 0 8.33333
      vertex 87.6094 33.415 32.8209
    endloop
  endfacet
  facet normal 0.376284 -0.658504 0.651754
    outer loop
      vertex 87.6094 33.415 32.8209
      vertex 71.547 0 8.33333
      vertex 72.9904 3.81469e-06 7.5
    endloop
  endfacet
  facet normal -0.866022 -4.6063e-06 0.500006
    outer loop
      vertex 80.1058 38.2126 39.8242
      vertex 64.3301 0 12.5
      vertex 78.9492 33.415 37.8209
    endloop
  endfacet
  facet normal 0.865926 3.74349e-05 -0.500172
    outer loop
      vertex 88.766 38.2126 34.8242
      vertex 88.527 36.4827 34.4103
      vertex 88.8465 40 34.9637
    endloop
  endfacet
  facet normal 0.866033 -1.47499e-06 -0.499986
    outer loop
      vertex 88.527 36.4827 34.4103
      vertex 88.1373 34.8662 33.7353
      vertex 88.8465 40 34.9637
    endloop
  endfacet
  facet normal -0.866022 4.6063e-06 0.500006
    outer loop
      vertex 78.9492 46.585 37.8209
      vertex 64.3301 80 12.5
      vertex 80.1058 41.7874 39.8242
    endloop
  endfacet
  facet normal -0.86607 -4.21159e-05 0.499922
    outer loop
      vertex 79.8668 43.5173 39.4103
      vertex 78.9492 46.585 37.8209
      vertex 80.1058 41.7874 39.8242
    endloop
  endfacet
  facet normal -0.499999 0 -0.866026
    outer loop
      vertex 64.3301 0 12.5
      vertex 71.547 80 8.33333
      vertex 71.547 0 8.33333
    endloop
  endfacet
  facet normal -0.499999 0 -0.866026
    outer loop
      vertex 71.547 80 8.33333
      vertex 64.3301 0 12.5
      vertex 64.3301 80 12.5
    endloop
  endfacet
  facet normal 0.450383 0.434314 0.780081
    outer loop
      vertex 88.1373 45.1338 33.7353
      vertex 79.8668 43.5173 39.4103
      vertex 88.527 43.5173 34.4103
    endloop
  endfacet
  facet normal 0.450383 0.434314 0.780081
    outer loop
      vertex 79.8668 43.5173 39.4103
      vertex 88.1373 45.1338 33.7353
      vertex 79.4771 45.1338 38.7353
    endloop
  endfacet
  facet normal -0.866025 0 0.500002
    outer loop
      vertex 64.3301 80 12.5
      vertex 80.1058 38.2126 39.8242
      vertex 80.1058 41.7874 39.8242
    endloop
  endfacet
  facet normal -0.866025 0 0.500002
    outer loop
      vertex 80.1058 38.2126 39.8242
      vertex 64.3301 80 12.5
      vertex 64.3301 0 12.5
    endloop
  endfacet
  facet normal 0.404314 0.588327 0.700287
    outer loop
      vertex 87.6094 46.585 32.8209
      vertex 79.4771 45.1338 38.7353
      vertex 88.1373 45.1338 33.7353
    endloop
  endfacet
  facet normal 0.404314 0.588327 0.700287
    outer loop
      vertex 79.4771 45.1338 38.7353
      vertex 87.6094 46.585 32.8209
      vertex 78.9492 46.585 37.8209
    endloop
  endfacet
  facet normal 0.37629 0.658504 0.65175
    outer loop
      vertex 71.547 80 8.33333
      vertex 78.9492 46.585 37.8209
      vertex 87.6094 46.585 32.8209
    endloop
  endfacet
  facet normal 0.376288 0.658504 0.651751
    outer loop
      vertex 78.9492 46.585 37.8209
      vertex 71.547 80 8.33333
      vertex 64.3301 80 12.5
    endloop
  endfacet
  facet normal 0.376283 0.658504 0.651755
    outer loop
      vertex 71.547 80 8.33333
      vertex 87.6094 46.585 32.8209
      vertex 72.9904 80 7.5
    endloop
  endfacet
  facet normal -0.86607 4.21159e-05 0.499922
    outer loop
      vertex 80.1058 38.2126 39.8242
      vertex 78.9492 33.415 37.8209
      vertex 79.8668 36.4827 39.4103
    endloop
  endfacet
  facet normal 0.481946 -0.266309 0.83475
    outer loop
      vertex 80.1058 38.2126 39.8242
      vertex 88.527 36.4827 34.4103
      vertex 88.766 38.2126 34.8242
    endloop
  endfacet
  facet normal 0.481946 -0.266309 0.83475
    outer loop
      vertex 88.527 36.4827 34.4103
      vertex 80.1058 38.2126 39.8242
      vertex 79.8668 36.4827 39.4103
    endloop
  endfacet
  facet normal -0.866134 0 0.499812
    outer loop
      vertex 80.1058 41.7874 39.8242
      vertex 80.1058 38.2126 39.8242
      vertex 80.1863 40 39.9637
    endloop
  endfacet
  facet normal -0.866048 -1.59463e-05 0.49996
    outer loop
      vertex 79.4771 45.1338 38.7353
      vertex 78.9492 46.585 37.8209
      vertex 79.8668 43.5173 39.4103
    endloop
  endfacet
  facet normal 0.865969 -9.93799e-05 -0.500098
    outer loop
      vertex 72.9904 80 7.5
      vertex 87.6094 46.585 32.8209
      vertex 88.1373 45.1338 33.7353
    endloop
  endfacet
  facet normal 0.497985 -0.0897452 0.862529
    outer loop
      vertex 80.1863 40 39.9637
      vertex 88.766 38.2126 34.8242
      vertex 88.8465 40 34.9637
    endloop
  endfacet
  facet normal 0.497985 -0.0897452 0.862529
    outer loop
      vertex 88.766 38.2126 34.8242
      vertex 80.1863 40 39.9637
      vertex 80.1058 38.2126 39.8242
    endloop
  endfacet
  facet normal 0.865926 -3.74349e-05 -0.500172
    outer loop
      vertex 88.8465 40 34.9637
      vertex 88.527 43.5173 34.4103
      vertex 88.766 41.7874 34.8242
    endloop
  endfacet
  facet normal 0.866033 1.47499e-06 -0.499986
    outer loop
      vertex 88.8465 40 34.9637
      vertex 88.1373 45.1338 33.7353
      vertex 88.527 43.5173 34.4103
    endloop
  endfacet
  facet normal 0.481946 0.266309 0.83475
    outer loop
      vertex 88.527 43.5173 34.4103
      vertex 80.1058 41.7874 39.8242
      vertex 88.766 41.7874 34.8242
    endloop
  endfacet
  facet normal 0.481946 0.266309 0.83475
    outer loop
      vertex 80.1058 41.7874 39.8242
      vertex 88.527 43.5173 34.4103
      vertex 79.8668 43.5173 39.4103
    endloop
  endfacet
  facet normal 0.195095 0 -0.980784
    outer loop
      vertex 61.9579 0 0.128296
      vertex 63.8823 80 0.511093
      vertex 63.8823 0 0.511093
    endloop
  endfacet
  facet normal 0.195095 0 -0.980784
    outer loop
      vertex 63.8823 80 0.511093
      vertex 61.9579 0 0.128296
      vertex 61.9579 80 0.128296
    endloop
  endfacet
  facet normal 0.32144 0 -0.94693
    outer loop
      vertex 63.8823 0 0.511093
      vertex 65.7403 80 1.1418
      vertex 65.7403 0 1.1418
    endloop
  endfacet
  facet normal 0.32144 0 -0.94693
    outer loop
      vertex 65.7403 80 1.1418
      vertex 63.8823 0 0.511093
      vertex 63.8823 80 0.511093
    endloop
  endfacet
  facet normal 0.442294 0 -0.89687
    outer loop
      vertex 65.7403 0 1.1418
      vertex 67.5 80 2.0096
      vertex 67.5 0 2.0096
    endloop
  endfacet
  facet normal 0.442294 0 -0.89687
    outer loop
      vertex 67.5 80 2.0096
      vertex 65.7403 0 1.1418
      vertex 65.7403 80 1.1418
    endloop
  endfacet
  facet normal 0.555578 0 -0.831464
    outer loop
      vertex 67.5 0 2.0096
      vertex 69.1314 80 3.09969
      vertex 69.1314 0 3.09969
    endloop
  endfacet
  facet normal 0.555578 0 -0.831464
    outer loop
      vertex 69.1314 80 3.09969
      vertex 67.5 0 2.0096
      vertex 67.5 80 2.0096
    endloop
  endfacet
  facet normal 0.659341 0 -0.751844
    outer loop
      vertex 69.1314 0 3.09969
      vertex 70.6066 80 4.39339
      vertex 70.6066 0 4.39339
    endloop
  endfacet
  facet normal 0.659341 0 -0.751844
    outer loop
      vertex 70.6066 80 4.39339
      vertex 69.1314 0 3.09969
      vertex 69.1314 80 3.09969
    endloop
  endfacet
  facet normal 0.751844 0 -0.659341
    outer loop
      vertex 71.9003 0 5.86859
      vertex 70.6066 80 4.39339
      vertex 71.9003 80 5.86859
    endloop
  endfacet
  facet normal 0.751844 0 -0.659341
    outer loop
      vertex 70.6066 80 4.39339
      vertex 71.9003 0 5.86859
      vertex 70.6066 0 4.39339
    endloop
  endfacet
  facet normal 0.831463 0 -0.55558
    outer loop
      vertex 72.9904 0 7.5
      vertex 71.9003 80 5.86859
      vertex 72.9904 80 7.5
    endloop
  endfacet
  facet normal 0.831463 0 -0.55558
    outer loop
      vertex 71.9003 80 5.86859
      vertex 72.9904 0 7.5
      vertex 71.9003 0 5.86859
    endloop
  endfacet
  facet normal 0.499999 0 0.866026
    outer loop
      vertex 64.3301 80 12.5
      vertex 71.547 0 8.33333
      vertex 71.547 80 8.33333
    endloop
  endfacet
  facet normal 0.499999 0 0.866026
    outer loop
      vertex 71.547 0 8.33333
      vertex 64.3301 80 12.5
      vertex 64.3301 0 12.5
    endloop
  endfacet
  facet normal -0 0 0
    outer loop
      vertex 72.9904 4.21016e-06 7.5
      vertex 72.9904 0 7.5
      vertex 72.9904 80 7.5
    endloop
  endfacet
  facet normal -0 0 0
    outer loop
      vertex 72.9904 3.84163e-06 7.5
      vertex 72.9904 0 7.5
      vertex 72.9904 4.21016e-06 7.5
    endloop
  endfacet
  facet normal -0 0 0
    outer loop
      vertex 72.9904 3.81469e-06 7.5
      vertex 72.9904 0 7.5
      vertex 72.9904 3.84163e-06 7.5
    endloop
  endfacet
  facet normal 0.499992 -0 0.86603
    outer loop
      vertex 72.9904 0 7.5
      vertex 72.9904 3.81469e-06 7.5
      vertex 71.547 0 8.33333
    endloop
  endfacet
  facet normal -0.81914 0 0.573593
    outer loop
      vertex 63.8302 0 11.7861
      vertex 64.3301 80 12.5
      vertex 63.8302 80 11.7861
    endloop
  endfacet
  facet normal -0.81914 0 0.573593
    outer loop
      vertex 64.3301 80 12.5
      vertex 63.8302 0 11.7861
      vertex 64.3301 0 12.5
    endloop
  endfacet
  facet normal -0.707107 0 0.707107
    outer loop
      vertex 63.2139 0 11.1698
      vertex 63.8302 80 11.7861
      vertex 63.2139 80 11.1698
    endloop
  endfacet
  facet normal -0.707107 0 0.707107
    outer loop
      vertex 63.8302 80 11.7861
      vertex 63.2139 0 11.1698
      vertex 63.8302 0 11.7861
    endloop
  endfacet
  facet normal -0.573593 0 0.81914
    outer loop
      vertex 62.5 80 10.6699
      vertex 63.2139 0 11.1698
      vertex 63.2139 80 11.1698
    endloop
  endfacet
  facet normal -0.573593 0 0.81914
    outer loop
      vertex 63.2139 0 11.1698
      vertex 62.5 80 10.6699
      vertex 62.5 0 10.6699
    endloop
  endfacet
  facet normal -0.422678 0 0.90628
    outer loop
      vertex 61.7101 80 10.3015
      vertex 62.5 0 10.6699
      vertex 62.5 80 10.6699
    endloop
  endfacet
  facet normal -0.422678 0 0.90628
    outer loop
      vertex 62.5 0 10.6699
      vertex 61.7101 80 10.3015
      vertex 61.7101 0 10.3015
    endloop
  endfacet
  facet normal -0.258727 0 0.965951
    outer loop
      vertex 60.8682 80 10.076
      vertex 61.7101 0 10.3015
      vertex 61.7101 80 10.3015
    endloop
  endfacet
  facet normal -0.258727 0 0.965951
    outer loop
      vertex 61.7101 0 10.3015
      vertex 60.8682 80 10.076
      vertex 60.8682 0 10.076
    endloop
  endfacet
  facet normal -0.087204 0 0.99619
    outer loop
      vertex 60 80 10
      vertex 60.8682 0 10.076
      vertex 60.8682 80 10.076
    endloop
  endfacet
  facet normal -0.087204 0 0.99619
    outer loop
      vertex 60.8682 0 10.076
      vertex 60 80 10
      vertex 60 0 10
    endloop
  endfacet
  facet normal 0.0653871 0 -0.99786
    outer loop
      vertex 60 0 0
      vertex 61.9579 80 0.128296
      vertex 61.9579 0 0.128296
    endloop
  endfacet
  facet normal 0.0653871 0 -0.99786
    outer loop
      vertex 61.9579 80 0.128296
      vertex 60 0 0
      vertex 60 80 0
    endloop
  endfacet
endsolid OpenSCAD_Model
