<svg width="122" height="98" viewBox="-6 -5 122 98" xmlns="http://www.w3.org/2000/svg"><path d="M 10.0000 80.0000 L 60.0000 80.0000 L 70.4720 80.0000 L 99.7101 46.5850 A 10.0000 10.0000 0 0 0 99.7101 33.4150 L 70.4720 0.0000 L 60.0000 0.0000 L 10.0000 0.0000 A 10.0000 10.0000 0 0 0 0.0000 10.0000 L 0.0000 70.0000 A 10.0000 10.0000 0 0 0 10.0000 80.0000 Z" stroke="green" stroke-width="1" fill="none" /><path d="M 10.0000 80.0000 L 60.0000 80.0000 L 70.4720 80.0000 L 99.7101 46.5850 A 10.0000 10.0000 0 0 0 99.7101 33.4150 L 70.4720 0.0000 L 60.0000 0.0000 L 10.0000 0.0000 A 10.0000 10.0000 0 0 0 0.0000 10.0000 L 0.0000 70.0000 A 10.0000 10.0000 0 0 0 10.0000 80.0000 Z" stroke="green" stroke-width="1" fill="none" /><path d="M 69.4720 41.0000 A 1.0000 1.0000 0 0 0 69.4720 39.0000 L 61.0000 39.0000 A 1.0000 1.0000 0 0 0 61.0000 41.0000 L 69.4720 41.0000 Z" stroke="green" stroke-width="1" fill="none" /></svg>