<svg width="2969" height="2078" viewBox="-148 -104 2969 2078" xmlns="http://www.w3.org/2000/svg"><path d="M 0.0000 1880.0000 L 350.0000 1880.0000 L 350.0000 1649.2455 A 500.0000 500.0000 0 0 1 398.7180 1433.9676 A 4048.2620 4048.2620 0 0 1 620.1036 1030.6128 A 1627.2465 1627.2465 0 0 1 847.5000 744.4039 A 995.5672 995.5672 0 0 1 1113.5200 553.7888 A 524.9815 524.9815 0 0 1 1345.0000 500.0000 A 524.9815 524.9815 0 0 1 1576.4800 553.7888 A 995.5672 995.5672 0 0 1 1842.5000 744.4039 A 1627.2465 1627.2465 0 0 1 2069.8964 1030.6128 A 4048.2620 4048.2620 0 0 1 2291.2820 1433.9676 A 500.0000 500.0000 0 0 1 2340.0000 1649.2455 L 2340.0000 1880.0000 L 2690.0000 1880.0000 L 2690.0000 1818.7892 A 1350.0000 1350.0000 0 0 0 2564.8133 1251.0460 A 6243.3449 6243.3449 0 0 0 2322.5416 781.5393 A 2365.7308 2365.7308 0 0 0 2017.5000 361.9057 A 1369.5398 1369.5398 0 0 0 1653.7016 77.7894 A 651.4244 651.4244 0 0 0 1345.0000 0.0000 A 651.4244 651.4244 0 0 0 1036.2984 77.7894 A 1369.5398 1369.5398 0 0 0 672.5000 361.9057 A 2365.7308 2365.7308 0 0 0 367.4584 781.5393 A 6243.3449 6243.3449 0 0 0 125.1867 1251.0460 A 1350.0000 1350.0000 0 0 0 0.0000 1818.7892 L 0.0000 1880.0000 Z" stroke="green" stroke-width="1" fill="none" /></svg>