0
SECTION
2
ENTITIES
0
ARC
8
PARAMETRIX
10
0.0000
20
0.0000
40
790.0000
50
360.0000
51
36.0000
0
ARC
8
PARAMETRIX
10
552.6672
20
401.5362
40
106.8657
50
36.0000
51
111.7733
0
LINE
8
PARAMETRIX
10
513.0270
20
500.7781
11
445.5383
21
473.8210
0
ARC
8
PARAMETRIX
10
409.6074
20
563.7762
40
96.8657
50
176.2267
51
291.7733
0
LINE
8
PARAMETRIX
10
312.9516
20
570.1508
11
317.7342
21
642.6666
0
ARC
8
PARAMETRIX
10
211.1001
20
649.6993
40
106.8657
50
356.2267
51
72.0000
0
ARC
8
PARAMETRIX
10
-0.0000
20
-0.0000
40
790.0000
50
72.0000
51
108.0000
0
ARC
8
PARAMETRIX
10
-211.1001
20
649.6993
40
106.8657
50
108.0000
51
183.7733
0
LINE
8
PARAMETRIX
10
-317.7342
20
642.6666
11
-312.9516
21
570.1508
0
ARC
8
PARAMETRIX
10
-409.6074
20
563.7762
40
96.8657
50
248.2267
51
3.7733
0
LINE
8
PARAMETRIX
10
-445.5383
20
473.8210
11
-513.0270
21
500.7781
0
ARC
8
PARAMETRIX
10
-552.6672
20
401.5362
40
106.8657
50
68.2267
51
144.0000
0
ARC
8
PARAMETRIX
10
0.0000
20
-0.0000
40
790.0000
50
144.0000
51
180.0000
0
ARC
8
PARAMETRIX
10
-683.1343
20
0.0000
40
106.8657
50
180.0000
51
255.7733
0
LINE
8
PARAMETRIX
10
-709.3975
20
-103.5883
11
-638.9530
21
-121.4484
0
ARC
8
PARAMETRIX
10
-662.7587
20
-215.3434
40
96.8657
50
320.2267
51
75.7733
0
LINE
8
PARAMETRIX
10
-588.3095
20
-277.3134
11
-634.8023
21
-333.1687
0
ARC
8
PARAMETRIX
10
-552.6672
20
-401.5362
40
106.8657
50
140.2267
51
216.0000
0
ARC
8
PARAMETRIX
10
-0.0000
20
-0.0000
40
790.0000
50
216.0000
51
252.0000
0
ARC
8
PARAMETRIX
10
-211.1001
20
-649.6993
40
106.8657
50
252.0000
51
327.7733
0
LINE
8
PARAMETRIX
10
-120.6976
20
-706.6877
11
-81.9431
21
-645.2101
0
ARC
8
PARAMETRIX
10
-0.0000
20
-696.8657
40
96.8657
50
32.2267
51
147.7733
0
LINE
8
PARAMETRIX
10
81.9431
20
-645.2101
11
120.6976
21
-706.6877
0
ARC
8
PARAMETRIX
10
211.1001
20
-649.6993
40
106.8657
50
212.2267
51
288.0000
0
ARC
8
PARAMETRIX
10
-0.0000
20
0.0000
40
790.0000
50
288.0000
51
324.0000
0
ARC
8
PARAMETRIX
10
552.6672
20
-401.5362
40
106.8657
50
324.0000
51
39.7733
0
LINE
8
PARAMETRIX
10
634.8023
20
-333.1687
11
588.3095
21
-277.3134
0
ARC
8
PARAMETRIX
10
662.7587
20
-215.3434
40
96.8657
50
104.2267
51
219.7733
0
LINE
8
PARAMETRIX
10
638.9530
20
-121.4484
11
709.3975
21
-103.5883
0
ARC
8
PARAMETRIX
10
683.1343
20
-0.0000
40
106.8657
50
284.2267
51
360.0000
0
ARC
8
PARAMETRIX
10
-0.0000
20
-0.0000
40
780.0000
50
0.0000
51
36.0000
0
ARC
8
PARAMETRIX
10
552.6672
20
401.5362
40
96.8657
50
36.0000
51
111.7733
0
LINE
8
PARAMETRIX
10
516.7363
20
491.4915
11
449.2476
21
464.5344
0
ARC
8
PARAMETRIX
10
409.6074
20
563.7762
40
106.8657
50
176.2267
51
291.7733
0
LINE
8
PARAMETRIX
10
302.9733
20
570.8089
11
307.7559
21
643.3247
0
ARC
8
PARAMETRIX
10
211.1001
20
649.6993
40
96.8657
50
356.2267
51
72.0000
0
ARC
8
PARAMETRIX
10
-0.0000
20
-0.0000
40
780.0000
50
72.0000
51
108.0000
0
ARC
8
PARAMETRIX
10
-211.1001
20
649.6993
40
96.8657
50
108.0000
51
183.7733
0
LINE
8
PARAMETRIX
10
-307.7559
20
643.3247
11
-302.9733
21
570.8089
0
ARC
8
PARAMETRIX
10
-409.6074
20
563.7762
40
106.8657
50
248.2267
51
3.7733
0
LINE
8
PARAMETRIX
10
-449.2476
20
464.5344
11
-516.7363
21
491.4915
0
ARC
8
PARAMETRIX
10
-552.6672
20
401.5362
40
96.8657
50
68.2267
51
144.0000
0
ARC
8
PARAMETRIX
10
0.0000
20
-0.0000
40
780.0000
50
144.0000
51
180.0000
0
ARC
8
PARAMETRIX
10
-683.1343
20
0.0000
40
96.8657
50
180.0000
51
255.7733
0
LINE
8
PARAMETRIX
10
-706.9399
20
-93.8950
11
-636.4955
21
-111.7551
0
ARC
8
PARAMETRIX
10
-662.7587
20
-215.3434
40
106.8657
50
320.2267
51
75.7733
0
LINE
8
PARAMETRIX
10
-580.6236
20
-283.7109
11
-627.1165
21
-339.5662
0
ARC
8
PARAMETRIX
10
-552.6672
20
-401.5362
40
96.8657
50
140.2267
51
216.0000
0
ARC
8
PARAMETRIX
10
-0.0000
20
-0.0000
40
780.0000
50
216.0000
51
252.0000
0
ARC
8
PARAMETRIX
10
-211.1001
20
-649.6993
40
96.8657
50
252.0000
51
327.7733
0
LINE
8
PARAMETRIX
10
-129.1570
20
-701.3550
11
-90.4025
21
-639.8774
0
ARC
8
PARAMETRIX
10
-0.0000
20
-696.8657
40
106.8657
50
32.2267
51
147.7733
0
LINE
8
PARAMETRIX
10
90.4025
20
-639.8774
11
129.1570
21
-701.3550
0
ARC
8
PARAMETRIX
10
211.1001
20
-649.6993
40
96.8657
50
212.2267
51
288.0000
0
ARC
8
PARAMETRIX
10
-0.0000
20
0.0000
40
780.0000
50
288.0000
51
324.0000
0
ARC
8
PARAMETRIX
10
552.6672
20
-401.5362
40
96.8657
50
324.0000
51
39.7733
0
LINE
8
PARAMETRIX
10
627.1165
20
-339.5662
11
580.6236
21
-283.7109
0
ARC
8
PARAMETRIX
10
662.7587
20
-215.3434
40
106.8657
50
104.2267
51
219.7733
0
LINE
8
PARAMETRIX
10
636.4955
20
-111.7551
11
706.9399
21
-93.8950
0
ARC
8
PARAMETRIX
10
683.1343
20
-0.0000
40
96.8657
50
284.2267
51
360.0000
0
ENDSEC
0
EOF
