<svg width="1748" height="1705" viewBox="-877 -837 1748 1705" xmlns="http://www.w3.org/2000/svg"><path d="M 790.0000 38.6654 A 790.0000 790.0000 0 0 0 639.1234 -425.6850 A 106.8657 106.8657 0 0 0 513.0270 -462.1127 L 445.5383 -435.1556 A 96.8657 96.8657 0 0 1 312.9516 -531.4855 L 317.7342 -604.0012 A 106.8657 106.8657 0 0 0 244.1234 -712.6693 A 790.0000 790.0000 0 0 0 -244.1234 -712.6693 A 106.8657 106.8657 0 0 0 -317.7342 -604.0012 L -312.9516 -531.4855 A 96.8657 96.8657 0 0 1 -445.5383 -435.1556 L -513.0270 -462.1127 A 106.8657 106.8657 0 0 0 -639.1234 -425.6850 A 790.0000 790.0000 0 0 0 -790.0000 38.6654 A 106.8657 106.8657 0 0 0 -709.3975 142.2536 L -638.9530 160.1138 A 96.8657 96.8657 0 0 1 -588.3095 315.9787 L -634.8023 371.8341 A 106.8657 106.8657 0 0 0 -639.1234 503.0157 A 790.0000 790.0000 0 0 0 -244.1234 790.0000 A 106.8657 106.8657 0 0 0 -120.6976 745.3530 L -81.9431 683.8754 A 96.8657 96.8657 0 0 1 81.9431 683.8754 L 120.6976 745.3530 A 106.8657 106.8657 0 0 0 244.1234 790.0000 A 790.0000 790.0000 0 0 0 639.1234 503.0157 A 106.8657 106.8657 0 0 0 634.8023 371.8341 L 588.3095 315.9787 A 96.8657 96.8657 0 0 1 638.9530 160.1138 L 709.3975 142.2536 A 106.8657 106.8657 0 0 0 790.0000 38.6654 Z" stroke="green" stroke-width="1" fill="none" /><path d="M 780.0000 38.6654 A 780.0000 780.0000 0 0 0 631.0333 -419.8071 A 96.8657 96.8657 0 0 0 516.7363 -452.8261 L 449.2476 -425.8691 A 106.8657 106.8657 0 0 1 302.9733 -532.1436 L 307.7559 -604.6593 A 96.8657 96.8657 0 0 0 241.0333 -703.1587 A 780.0000 780.0000 0 0 0 -241.0333 -703.1587 A 96.8657 96.8657 0 0 0 -307.7559 -604.6593 L -302.9733 -532.1436 A 106.8657 106.8657 0 0 1 -449.2476 -425.8691 L -516.7363 -452.8261 A 96.8657 96.8657 0 0 0 -631.0333 -419.8071 A 780.0000 780.0000 0 0 0 -780.0000 38.6654 A 96.8657 96.8657 0 0 0 -706.9399 132.5603 L -636.4955 150.4204 A 106.8657 106.8657 0 0 1 -580.6236 322.3762 L -627.1165 378.2316 A 96.8657 96.8657 0 0 0 -631.0333 497.1378 A 780.0000 780.0000 0 0 0 -241.0333 780.4894 A 96.8657 96.8657 0 0 0 -129.1570 740.0203 L -90.4025 678.5427 A 106.8657 106.8657 0 0 1 90.4025 678.5427 L 129.1570 740.0203 A 96.8657 96.8657 0 0 0 241.0333 780.4894 A 780.0000 780.0000 0 0 0 631.0333 497.1378 A 96.8657 96.8657 0 0 0 627.1165 378.2316 L 580.6236 322.3762 A 106.8657 106.8657 0 0 1 636.4955 150.4204 L 706.9399 132.5603 A 96.8657 96.8657 0 0 0 780.0000 38.6654 Z" stroke="green" stroke-width="1" fill="none" /></svg>