0
SECTION
2
ENTITIES
0
LINE
8
PARAMETRIX
10
-23.5000
20
0.0000
11
-29.7284
21
-45.9724
0
ARC
8
PARAMETRIX
10
-0.0000
20
-50.0000
40
30.0000
50
172.2845
51
7.7155
0
LINE
8
PARAMETRIX
10
29.7284
20
-45.9724
11
23.5000
21
0.0000
0
LINE
8
PARAMETRIX
10
23.5000
20
0.0000
11
31.3540
21
0.0000
0
LINE
8
PARAMETRIX
10
31.3540
20
0.0000
11
58.3540
21
-0.0000
0
LINE
8
PARAMETRIX
10
58.3540
20
-0.0000
11
66.2080
21
0.0000
0
LINE
8
PARAMETRIX
10
66.2080
20
0.0000
11
59.9796
21
-45.9724
0
ARC
8
PARAMETRIX
10
89.7080
20
-50.0000
40
30.0000
50
172.2845
51
7.7155
0
LINE
8
PARAMETRIX
10
119.4364
20
-45.9724
11
113.2080
21
-0.0000
0
LINE
8
PARAMETRIX
10
113.2080
20
-0.0000
11
121.0619
21
0.0000
0
LINE
8
PARAMETRIX
10
121.0619
20
0.0000
11
148.0619
21
-0.0000
0
LINE
8
PARAMETRIX
10
148.0619
20
-0.0000
11
155.9159
21
-0.0000
0
LINE
8
PARAMETRIX
10
155.9159
20
-0.0000
11
155.9159
21
50.0000
0
LINE
8
PARAMETRIX
10
155.9159
20
50.0000
11
148.0619
21
50.0000
0
LINE
8
PARAMETRIX
10
148.0619
20
50.0000
11
121.0619
21
50.0000
0
LINE
8
PARAMETRIX
10
121.0619
20
50.0000
11
113.2080
21
50.0000
0
LINE
8
PARAMETRIX
10
113.2080
20
50.0000
11
119.4364
21
95.9724
0
ARC
8
PARAMETRIX
10
89.7080
20
100.0000
40
30.0000
50
352.2845
51
187.7155
0
LINE
8
PARAMETRIX
10
59.9796
20
95.9724
11
66.2080
21
50.0000
0
LINE
8
PARAMETRIX
10
66.2080
20
50.0000
11
58.3540
21
50.0000
0
LINE
8
PARAMETRIX
10
58.3540
20
50.0000
11
31.3540
21
50.0000
0
LINE
8
PARAMETRIX
10
31.3540
20
50.0000
11
23.5000
21
50.0000
0
LINE
8
PARAMETRIX
10
23.5000
20
50.0000
11
29.7284
21
95.9724
0
ARC
8
PARAMETRIX
10
-0.0000
20
100.0000
40
30.0000
50
352.2845
51
187.7155
0
LINE
8
PARAMETRIX
10
-29.7284
20
95.9724
11
-23.5000
21
50.0000
0
LINE
8
PARAMETRIX
10
-23.5000
20
50.0000
11
-23.5000
21
0.0000
0
LINE
8
PARAMETRIX
10
-23.5000
20
0.0000
11
-29.7284
21
-45.9724
0
ARC
8
PARAMETRIX
10
-0.0000
20
-50.0000
40
30.0000
50
172.2845
51
7.7155
0
LINE
8
PARAMETRIX
10
29.7284
20
-45.9724
11
23.5000
21
0.0000
0
LINE
8
PARAMETRIX
10
23.5000
20
0.0000
11
31.3540
21
0.0000
0
LINE
8
PARAMETRIX
10
31.3540
20
0.0000
11
58.3540
21
-0.0000
0
LINE
8
PARAMETRIX
10
58.3540
20
-0.0000
11
66.2080
21
0.0000
0
LINE
8
PARAMETRIX
10
66.2080
20
0.0000
11
59.9796
21
-45.9724
0
ARC
8
PARAMETRIX
10
89.7080
20
-50.0000
40
30.0000
50
172.2845
51
7.7155
0
LINE
8
PARAMETRIX
10
119.4364
20
-45.9724
11
113.2080
21
-0.0000
0
LINE
8
PARAMETRIX
10
113.2080
20
-0.0000
11
121.0619
21
0.0000
0
LINE
8
PARAMETRIX
10
121.0619
20
0.0000
11
148.0619
21
-0.0000
0
LINE
8
PARAMETRIX
10
148.0619
20
-0.0000
11
155.9159
21
-0.0000
0
LINE
8
PARAMETRIX
10
155.9159
20
-0.0000
11
155.9159
21
50.0000
0
LINE
8
PARAMETRIX
10
155.9159
20
50.0000
11
148.0619
21
50.0000
0
LINE
8
PARAMETRIX
10
148.0619
20
50.0000
11
121.0619
21
50.0000
0
LINE
8
PARAMETRIX
10
121.0619
20
50.0000
11
113.2080
21
50.0000
0
LINE
8
PARAMETRIX
10
113.2080
20
50.0000
11
119.4364
21
95.9724
0
ARC
8
PARAMETRIX
10
89.7080
20
100.0000
40
30.0000
50
352.2845
51
187.7155
0
LINE
8
PARAMETRIX
10
59.9796
20
95.9724
11
66.2080
21
50.0000
0
LINE
8
PARAMETRIX
10
66.2080
20
50.0000
11
58.3540
21
50.0000
0
LINE
8
PARAMETRIX
10
58.3540
20
50.0000
11
31.3540
21
50.0000
0
LINE
8
PARAMETRIX
10
31.3540
20
50.0000
11
23.5000
21
50.0000
0
LINE
8
PARAMETRIX
10
23.5000
20
50.0000
11
29.7284
21
95.9724
0
ARC
8
PARAMETRIX
10
-0.0000
20
100.0000
40
30.0000
50
352.2845
51
187.7155
0
LINE
8
PARAMETRIX
10
-29.7284
20
95.9724
11
-23.5000
21
50.0000
0
LINE
8
PARAMETRIX
10
-23.5000
20
50.0000
11
-23.5000
21
0.0000
0
CIRCLE
8
PARAMETRIX
10
0.0000
20
25.0000
40
15.0000
0
CIRCLE
8
PARAMETRIX
10
0.0000
20
100.0000
40
20.0000
0
CIRCLE
8
PARAMETRIX
10
0.0000
20
65.0000
40
10.0000
0
CIRCLE
8
PARAMETRIX
10
0.0000
20
-50.0000
40
20.0000
0
CIRCLE
8
PARAMETRIX
10
0.0000
20
-15.0000
40
10.0000
0
CIRCLE
8
PARAMETRIX
10
44.8540
20
25.0000
40
5.0000
0
CIRCLE
8
PARAMETRIX
10
89.7080
20
25.0000
40
15.0000
0
CIRCLE
8
PARAMETRIX
10
89.7080
20
100.0000
40
20.0000
0
CIRCLE
8
PARAMETRIX
10
89.7080
20
65.0000
40
10.0000
0
CIRCLE
8
PARAMETRIX
10
89.7080
20
-50.0000
40
20.0000
0
CIRCLE
8
PARAMETRIX
10
89.7080
20
-15.0000
40
10.0000
0
CIRCLE
8
PARAMETRIX
10
134.5619
20
25.0000
40
5.0000
0
ARC
8
PARAMETRIX
10
30.3540
20
25.0000
40
1.0000
50
270.0000
51
90.0000
0
LINE
8
PARAMETRIX
10
30.3540
20
26.0000
11
24.5000
21
26.0000
0
ARC
8
PARAMETRIX
10
24.5000
20
25.0000
40
1.0000
50
90.0000
51
270.0000
0
LINE
8
PARAMETRIX
10
24.5000
20
24.0000
11
30.3540
21
24.0000
0
ARC
8
PARAMETRIX
10
65.2080
20
25.0000
40
1.0000
50
270.0000
51
90.0000
0
LINE
8
PARAMETRIX
10
65.2080
20
26.0000
11
59.3540
21
26.0000
0
ARC
8
PARAMETRIX
10
59.3540
20
25.0000
40
1.0000
50
90.0000
51
270.0000
0
LINE
8
PARAMETRIX
10
59.3540
20
24.0000
11
65.2080
21
24.0000
0
ARC
8
PARAMETRIX
10
120.0619
20
25.0000
40
1.0000
50
270.0000
51
90.0000
0
LINE
8
PARAMETRIX
10
120.0619
20
26.0000
11
114.2080
21
26.0000
0
ARC
8
PARAMETRIX
10
114.2080
20
25.0000
40
1.0000
50
90.0000
51
270.0000
0
LINE
8
PARAMETRIX
10
114.2080
20
24.0000
11
120.0619
21
24.0000
0
ARC
8
PARAMETRIX
10
154.9159
20
25.0000
40
1.0000
50
270.0000
51
90.0000
0
LINE
8
PARAMETRIX
10
154.9159
20
26.0000
11
149.0619
21
26.0000
0
ARC
8
PARAMETRIX
10
149.0619
20
25.0000
40
1.0000
50
90.0000
51
270.0000
0
LINE
8
PARAMETRIX
10
149.0619
20
24.0000
11
154.9159
21
24.0000
0
ENDSEC
0
EOF
