<svg width="214" height="241" viewBox="-40 -92 214 241" xmlns="http://www.w3.org/2000/svg"><path d="M -23.5000 50.0000 L -29.7284 95.9724 A 30.0000 30.0000 0 1 0 29.7284 95.9724 L 23.5000 50.0000 L 31.3540 50.0000 L 58.3540 50.0000 L 66.2080 50.0000 L 59.9796 95.9724 A 30.0000 30.0000 0 1 0 119.4364 95.9724 L 113.2080 50.0000 L 121.0619 50.0000 L 148.0619 50.0000 L 155.9159 50.0000 L 155.9159 -0.0000 L 148.0619 -0.0000 L 121.0619 -0.0000 L 113.2080 -0.0000 L 119.4364 -45.9724 A 30.0000 30.0000 0 1 0 59.9796 -45.9724 L 66.2080 -0.0000 L 58.3540 -0.0000 L 31.3540 -0.0000 L 23.5000 -0.0000 L 29.7284 -45.9724 A 30.0000 30.0000 0 1 0 -29.7284 -45.9724 L -23.5000 -0.0000 L -23.5000 50.0000 Z" stroke="green" stroke-width="1" fill="none" /><path d="M -23.5000 50.0000 L -29.7284 95.9724 A 30.0000 30.0000 0 1 0 29.7284 95.9724 L 23.5000 50.0000 L 31.3540 50.0000 L 58.3540 50.0000 L 66.2080 50.0000 L 59.9796 95.9724 A 30.0000 30.0000 0 1 0 119.4364 95.9724 L 113.2080 50.0000 L 121.0619 50.0000 L 148.0619 50.0000 L 155.9159 50.0000 L 155.9159 -0.0000 L 148.0619 -0.0000 L 121.0619 -0.0000 L 113.2080 -0.0000 L 119.4364 -45.9724 A 30.0000 30.0000 0 1 0 59.9796 -45.9724 L 66.2080 -0.0000 L 58.3540 -0.0000 L 31.3540 -0.0000 L 23.5000 -0.0000 L 29.7284 -45.9724 A 30.0000 30.0000 0 1 0 -29.7284 -45.9724 L -23.5000 -0.0000 L -23.5000 50.0000 Z" stroke="green" stroke-width="1" fill="none" /><circle cx="0.0000" cy="25.0000" r="15.0000" stroke="green" stroke-width="1" fill="none" /><circle cx="0.0000" cy="-50.0000" r="20.0000" stroke="green" stroke-width="1" fill="none" /><circle cx="0.0000" cy="-15.0000" r="10.0000" stroke="green" stroke-width="1" fill="none" /><circle cx="0.0000" cy="100.0000" r="20.0000" stroke="green" stroke-width="1" fill="none" /><circle cx="0.0000" cy="65.0000" r="10.0000" stroke="green" stroke-width="1" fill="none" /><circle cx="44.8540" cy="25.0000" r="5.0000" stroke="green" stroke-width="1" fill="none" /><circle cx="89.7080" cy="25.0000" r="15.0000" stroke="green" stroke-width="1" fill="none" /><circle cx="89.7080" cy="-50.0000" r="20.0000" stroke="green" stroke-width="1" fill="none" /><circle cx="89.7080" cy="-15.0000" r="10.0000" stroke="green" stroke-width="1" fill="none" /><circle cx="89.7080" cy="100.0000" r="20.0000" stroke="green" stroke-width="1" fill="none" /><circle cx="89.7080" cy="65.0000" r="10.0000" stroke="green" stroke-width="1" fill="none" /><circle cx="134.5619" cy="25.0000" r="5.0000" stroke="green" stroke-width="1" fill="none" /><path d="M 30.3540 26.0000 A 1.0000 1.0000 0 0 0 30.3540 24.0000 L 24.5000 24.0000 A 1.0000 1.0000 0 0 0 24.5000 26.0000 L 30.3540 26.0000 Z" stroke="green" stroke-width="1" fill="none" /><path d="M 65.2080 26.0000 A 1.0000 1.0000 0 0 0 65.2080 24.0000 L 59.3540 24.0000 A 1.0000 1.0000 0 0 0 59.3540 26.0000 L 65.2080 26.0000 Z" stroke="green" stroke-width="1" fill="none" /><path d="M 120.0619 26.0000 A 1.0000 1.0000 0 0 0 120.0619 24.0000 L 114.2080 24.0000 A 1.0000 1.0000 0 0 0 114.2080 26.0000 L 120.0619 26.0000 Z" stroke="green" stroke-width="1" fill="none" /><path d="M 154.9159 26.0000 A 1.0000 1.0000 0 0 0 154.9159 24.0000 L 149.0619 24.0000 A 1.0000 1.0000 0 0 0 149.0619 26.0000 L 154.9159 26.0000 Z" stroke="green" stroke-width="1" fill="none" /></svg>