<svg width="82" height="269" viewBox="-4 -13 82 269" xmlns="http://www.w3.org/2000/svg"><path d="M 0.0000 235.0000 L 50.0000 235.0000 L 50.0000 225.0000 L 0.0000 225.0000 L 0.0000 235.0000 Z" stroke="green" stroke-width="1" fill="none" /><path d="M 50.0000 235.0000 A 15.0000 15.0000 0 0 0 65.0000 220.0000 L 55.0000 220.0000 A 5.0000 5.0000 0 0 1 50.0000 225.0000 L 50.0000 235.0000 Z" stroke="green" stroke-width="1" fill="none" /><path d="M 65.0000 220.0000 L 65.0000 170.0000 L 55.0000 170.0000 L 55.0000 220.0000 L 65.0000 220.0000 Z" stroke="green" stroke-width="1" fill="none" /><path d="M 0.0000 35.0000 L 20.0000 35.0000 L 20.0000 25.0000 L 0.0000 25.0000 L 0.0000 35.0000 Z" stroke="green" stroke-width="1" fill="none" /><path d="M 20.0000 35.0000 A 15.0000 15.0000 0 0 0 35.0000 20.0000 L 25.0000 20.0000 A 5.0000 5.0000 0 0 1 20.0000 25.0000 L 20.0000 35.0000 Z" stroke="green" stroke-width="1" fill="none" /><path d="M 35.0000 20.0000 L 35.0000 0.0000 L 25.0000 0.0000 L 25.0000 20.0000 L 35.0000 20.0000 Z" stroke="green" stroke-width="1" fill="none" /></svg>