0
SECTION
2
ENTITIES
0
ARC
8
PARAMETRIX
10
0.0000
20
-0.0000
40
120.0000
50
12.0247
51
107.9753
0
LINE
8
PARAMETRIX
10
-37.0328
20
114.1428
11
-44.8868
21
127.7463
0
LINE
8
PARAMETRIX
10
-44.8868
20
127.7463
11
-69.8868
21
171.0475
0
LINE
8
PARAMETRIX
10
-69.8868
20
171.0475
11
-56.2833
21
178.9015
0
LINE
8
PARAMETRIX
10
-56.2833
20
178.9015
11
-12.9821
21
203.9015
0
LINE
8
PARAMETRIX
10
-12.9821
20
203.9015
11
0.6214
21
211.7555
0
LINE
8
PARAMETRIX
10
0.6214
20
211.7555
11
43.9227
21
236.7555
0
LINE
8
PARAMETRIX
10
43.9227
20
236.7555
11
18.9227
21
280.0568
0
LINE
8
PARAMETRIX
10
18.9227
20
280.0568
11
-24.3786
21
255.0568
0
LINE
8
PARAMETRIX
10
-24.3786
20
255.0568
11
-37.9821
21
247.2028
0
LINE
8
PARAMETRIX
10
-37.9821
20
247.2028
11
-81.2833
21
222.2028
0
LINE
8
PARAMETRIX
10
-81.2833
20
222.2028
11
-94.8868
21
214.3488
0
LINE
8
PARAMETRIX
10
-94.8868
20
214.3488
11
-138.1881
21
189.3488
0
LINE
8
PARAMETRIX
10
-138.1881
20
189.3488
11
-151.7916
21
181.4948
0
LINE
8
PARAMETRIX
10
-151.7916
20
181.4948
11
-195.0929
21
156.4948
0
LINE
8
PARAMETRIX
10
-195.0929
20
156.4948
11
-208.6964
21
148.6408
0
LINE
8
PARAMETRIX
10
-208.6964
20
148.6408
11
-251.9976
21
123.6408
0
LINE
8
PARAMETRIX
10
-251.9976
20
123.6408
11
-226.9976
21
80.3396
0
LINE
8
PARAMETRIX
10
-226.9976
20
80.3396
11
-183.6964
21
105.3396
0
LINE
8
PARAMETRIX
10
-183.6964
20
105.3396
11
-170.0929
21
113.1935
0
LINE
8
PARAMETRIX
10
-170.0929
20
113.1935
11
-126.7916
21
138.1935
0
LINE
8
PARAMETRIX
10
-126.7916
20
138.1935
11
-113.1881
21
146.0475
0
LINE
8
PARAMETRIX
10
-113.1881
20
146.0475
11
-88.1881
21
102.7463
0
LINE
8
PARAMETRIX
10
-88.1881
20
102.7463
11
-80.3341
21
89.1428
0
ARC
8
PARAMETRIX
10
-0.0000
20
-0.0000
40
120.0000
50
132.0247
51
227.9753
0
LINE
8
PARAMETRIX
10
-80.3341
20
-89.1428
11
-88.1881
21
-102.7463
0
LINE
8
PARAMETRIX
10
-88.1881
20
-102.7463
11
-113.1881
21
-146.0475
0
LINE
8
PARAMETRIX
10
-113.1881
20
-146.0475
11
-126.7916
21
-138.1935
0
LINE
8
PARAMETRIX
10
-126.7916
20
-138.1935
11
-170.0929
21
-113.1935
0
LINE
8
PARAMETRIX
10
-170.0929
20
-113.1935
11
-183.6964
21
-105.3396
0
LINE
8
PARAMETRIX
10
-183.6964
20
-105.3396
11
-226.9976
21
-80.3396
0
LINE
8
PARAMETRIX
10
-226.9976
20
-80.3396
11
-251.9976
21
-123.6408
0
LINE
8
PARAMETRIX
10
-251.9976
20
-123.6408
11
-208.6964
21
-148.6408
0
LINE
8
PARAMETRIX
10
-208.6964
20
-148.6408
11
-195.0929
21
-156.4948
0
LINE
8
PARAMETRIX
10
-195.0929
20
-156.4948
11
-151.7916
21
-181.4948
0
LINE
8
PARAMETRIX
10
-151.7916
20
-181.4948
11
-138.1881
21
-189.3488
0
LINE
8
PARAMETRIX
10
-138.1881
20
-189.3488
11
-94.8868
21
-214.3488
0
LINE
8
PARAMETRIX
10
-94.8868
20
-214.3488
11
-81.2833
21
-222.2028
0
LINE
8
PARAMETRIX
10
-81.2833
20
-222.2028
11
-37.9821
21
-247.2028
0
LINE
8
PARAMETRIX
10
-37.9821
20
-247.2028
11
-24.3786
21
-255.0568
0
LINE
8
PARAMETRIX
10
-24.3786
20
-255.0568
11
18.9227
21
-280.0568
0
LINE
8
PARAMETRIX
10
18.9227
20
-280.0568
11
43.9227
21
-236.7555
0
LINE
8
PARAMETRIX
10
43.9227
20
-236.7555
11
0.6214
21
-211.7555
0
LINE
8
PARAMETRIX
10
0.6214
20
-211.7555
11
-12.9821
21
-203.9015
0
LINE
8
PARAMETRIX
10
-12.9821
20
-203.9015
11
-56.2833
21
-178.9015
0
LINE
8
PARAMETRIX
10
-56.2833
20
-178.9015
11
-69.8868
21
-171.0475
0
LINE
8
PARAMETRIX
10
-69.8868
20
-171.0475
11
-44.8868
21
-127.7463
0
LINE
8
PARAMETRIX
10
-44.8868
20
-127.7463
11
-37.0328
21
-114.1428
0
ARC
8
PARAMETRIX
10
0.0000
20
-0.0000
40
120.0000
50
252.0247
51
347.9753
0
LINE
8
PARAMETRIX
10
117.3669
20
-25.0000
11
133.0749
21
-25.0000
0
LINE
8
PARAMETRIX
10
133.0749
20
-25.0000
11
183.0749
21
-25.0000
0
LINE
8
PARAMETRIX
10
183.0749
20
-25.0000
11
183.0749
21
-40.7080
0
LINE
8
PARAMETRIX
10
183.0749
20
-40.7080
11
183.0749
21
-90.7080
0
LINE
8
PARAMETRIX
10
183.0749
20
-90.7080
11
183.0749
21
-106.4159
0
LINE
8
PARAMETRIX
10
183.0749
20
-106.4159
11
183.0749
21
-156.4159
0
LINE
8
PARAMETRIX
10
183.0749
20
-156.4159
11
233.0749
21
-156.4159
0
LINE
8
PARAMETRIX
10
233.0749
20
-156.4159
11
233.0749
21
-106.4159
0
LINE
8
PARAMETRIX
10
233.0749
20
-106.4159
11
233.0749
21
-90.7080
0
LINE
8
PARAMETRIX
10
233.0749
20
-90.7080
11
233.0749
21
-40.7080
0
LINE
8
PARAMETRIX
10
233.0749
20
-40.7080
11
233.0749
21
-25.0000
0
LINE
8
PARAMETRIX
10
233.0749
20
-25.0000
11
233.0749
21
25.0000
0
LINE
8
PARAMETRIX
10
233.0749
20
25.0000
11
233.0749
21
40.7080
0
LINE
8
PARAMETRIX
10
233.0749
20
40.7080
11
233.0749
21
90.7080
0
LINE
8
PARAMETRIX
10
233.0749
20
90.7080
11
233.0749
21
106.4159
0
LINE
8
PARAMETRIX
10
233.0749
20
106.4159
11
233.0749
21
156.4159
0
LINE
8
PARAMETRIX
10
233.0749
20
156.4159
11
183.0749
21
156.4159
0
LINE
8
PARAMETRIX
10
183.0749
20
156.4159
11
183.0749
21
106.4159
0
LINE
8
PARAMETRIX
10
183.0749
20
106.4159
11
183.0749
21
90.7080
0
LINE
8
PARAMETRIX
10
183.0749
20
90.7080
11
183.0749
21
40.7080
0
LINE
8
PARAMETRIX
10
183.0749
20
40.7080
11
183.0749
21
25.0000
0
LINE
8
PARAMETRIX
10
183.0749
20
25.0000
11
133.0749
21
25.0000
0
LINE
8
PARAMETRIX
10
133.0749
20
25.0000
11
117.3669
21
25.0000
0
ARC
8
PARAMETRIX
10
0.0000
20
-0.0000
40
120.0000
50
12.0247
51
107.9753
0
LINE
8
PARAMETRIX
10
-37.0328
20
114.1428
11
-44.8868
21
127.7463
0
LINE
8
PARAMETRIX
10
-44.8868
20
127.7463
11
-69.8868
21
171.0475
0
LINE
8
PARAMETRIX
10
-69.8868
20
171.0475
11
-56.2833
21
178.9015
0
LINE
8
PARAMETRIX
10
-56.2833
20
178.9015
11
-12.9821
21
203.9015
0
LINE
8
PARAMETRIX
10
-12.9821
20
203.9015
11
0.6214
21
211.7555
0
LINE
8
PARAMETRIX
10
0.6214
20
211.7555
11
43.9227
21
236.7555
0
LINE
8
PARAMETRIX
10
43.9227
20
236.7555
11
18.9227
21
280.0568
0
LINE
8
PARAMETRIX
10
18.9227
20
280.0568
11
-24.3786
21
255.0568
0
LINE
8
PARAMETRIX
10
-24.3786
20
255.0568
11
-37.9821
21
247.2028
0
LINE
8
PARAMETRIX
10
-37.9821
20
247.2028
11
-81.2833
21
222.2028
0
LINE
8
PARAMETRIX
10
-81.2833
20
222.2028
11
-94.8868
21
214.3488
0
LINE
8
PARAMETRIX
10
-94.8868
20
214.3488
11
-138.1881
21
189.3488
0
LINE
8
PARAMETRIX
10
-138.1881
20
189.3488
11
-151.7916
21
181.4948
0
LINE
8
PARAMETRIX
10
-151.7916
20
181.4948
11
-195.0929
21
156.4948
0
LINE
8
PARAMETRIX
10
-195.0929
20
156.4948
11
-208.6964
21
148.6408
0
LINE
8
PARAMETRIX
10
-208.6964
20
148.6408
11
-251.9976
21
123.6408
0
LINE
8
PARAMETRIX
10
-251.9976
20
123.6408
11
-226.9976
21
80.3396
0
LINE
8
PARAMETRIX
10
-226.9976
20
80.3396
11
-183.6964
21
105.3396
0
LINE
8
PARAMETRIX
10
-183.6964
20
105.3396
11
-170.0929
21
113.1935
0
LINE
8
PARAMETRIX
10
-170.0929
20
113.1935
11
-126.7916
21
138.1935
0
LINE
8
PARAMETRIX
10
-126.7916
20
138.1935
11
-113.1881
21
146.0475
0
LINE
8
PARAMETRIX
10
-113.1881
20
146.0475
11
-88.1881
21
102.7463
0
LINE
8
PARAMETRIX
10
-88.1881
20
102.7463
11
-80.3341
21
89.1428
0
ARC
8
PARAMETRIX
10
-0.0000
20
-0.0000
40
120.0000
50
132.0247
51
227.9753
0
LINE
8
PARAMETRIX
10
-80.3341
20
-89.1428
11
-88.1881
21
-102.7463
0
LINE
8
PARAMETRIX
10
-88.1881
20
-102.7463
11
-113.1881
21
-146.0475
0
LINE
8
PARAMETRIX
10
-113.1881
20
-146.0475
11
-126.7916
21
-138.1935
0
LINE
8
PARAMETRIX
10
-126.7916
20
-138.1935
11
-170.0929
21
-113.1935
0
LINE
8
PARAMETRIX
10
-170.0929
20
-113.1935
11
-183.6964
21
-105.3396
0
LINE
8
PARAMETRIX
10
-183.6964
20
-105.3396
11
-226.9976
21
-80.3396
0
LINE
8
PARAMETRIX
10
-226.9976
20
-80.3396
11
-251.9976
21
-123.6408
0
LINE
8
PARAMETRIX
10
-251.9976
20
-123.6408
11
-208.6964
21
-148.6408
0
LINE
8
PARAMETRIX
10
-208.6964
20
-148.6408
11
-195.0929
21
-156.4948
0
LINE
8
PARAMETRIX
10
-195.0929
20
-156.4948
11
-151.7916
21
-181.4948
0
LINE
8
PARAMETRIX
10
-151.7916
20
-181.4948
11
-138.1881
21
-189.3488
0
LINE
8
PARAMETRIX
10
-138.1881
20
-189.3488
11
-94.8868
21
-214.3488
0
LINE
8
PARAMETRIX
10
-94.8868
20
-214.3488
11
-81.2833
21
-222.2028
0
LINE
8
PARAMETRIX
10
-81.2833
20
-222.2028
11
-37.9821
21
-247.2028
0
LINE
8
PARAMETRIX
10
-37.9821
20
-247.2028
11
-24.3786
21
-255.0568
0
LINE
8
PARAMETRIX
10
-24.3786
20
-255.0568
11
18.9227
21
-280.0568
0
LINE
8
PARAMETRIX
10
18.9227
20
-280.0568
11
43.9227
21
-236.7555
0
LINE
8
PARAMETRIX
10
43.9227
20
-236.7555
11
0.6214
21
-211.7555
0
LINE
8
PARAMETRIX
10
0.6214
20
-211.7555
11
-12.9821
21
-203.9015
0
LINE
8
PARAMETRIX
10
-12.9821
20
-203.9015
11
-56.2833
21
-178.9015
0
LINE
8
PARAMETRIX
10
-56.2833
20
-178.9015
11
-69.8868
21
-171.0475
0
LINE
8
PARAMETRIX
10
-69.8868
20
-171.0475
11
-44.8868
21
-127.7463
0
LINE
8
PARAMETRIX
10
-44.8868
20
-127.7463
11
-37.0328
21
-114.1428
0
ARC
8
PARAMETRIX
10
0.0000
20
-0.0000
40
120.0000
50
252.0247
51
347.9753
0
LINE
8
PARAMETRIX
10
117.3669
20
-25.0000
11
133.0749
21
-25.0000
0
LINE
8
PARAMETRIX
10
133.0749
20
-25.0000
11
183.0749
21
-25.0000
0
LINE
8
PARAMETRIX
10
183.0749
20
-25.0000
11
183.0749
21
-40.7080
0
LINE
8
PARAMETRIX
10
183.0749
20
-40.7080
11
183.0749
21
-90.7080
0
LINE
8
PARAMETRIX
10
183.0749
20
-90.7080
11
183.0749
21
-106.4159
0
LINE
8
PARAMETRIX
10
183.0749
20
-106.4159
11
183.0749
21
-156.4159
0
LINE
8
PARAMETRIX
10
183.0749
20
-156.4159
11
233.0749
21
-156.4159
0
LINE
8
PARAMETRIX
10
233.0749
20
-156.4159
11
233.0749
21
-106.4159
0
LINE
8
PARAMETRIX
10
233.0749
20
-106.4159
11
233.0749
21
-90.7080
0
LINE
8
PARAMETRIX
10
233.0749
20
-90.7080
11
233.0749
21
-40.7080
0
LINE
8
PARAMETRIX
10
233.0749
20
-40.7080
11
233.0749
21
-25.0000
0
LINE
8
PARAMETRIX
10
233.0749
20
-25.0000
11
233.0749
21
25.0000
0
LINE
8
PARAMETRIX
10
233.0749
20
25.0000
11
233.0749
21
40.7080
0
LINE
8
PARAMETRIX
10
233.0749
20
40.7080
11
233.0749
21
90.7080
0
LINE
8
PARAMETRIX
10
233.0749
20
90.7080
11
233.0749
21
106.4159
0
LINE
8
PARAMETRIX
10
233.0749
20
106.4159
11
233.0749
21
156.4159
0
LINE
8
PARAMETRIX
10
233.0749
20
156.4159
11
183.0749
21
156.4159
0
LINE
8
PARAMETRIX
10
183.0749
20
156.4159
11
183.0749
21
106.4159
0
LINE
8
PARAMETRIX
10
183.0749
20
106.4159
11
183.0749
21
90.7080
0
LINE
8
PARAMETRIX
10
183.0749
20
90.7080
11
183.0749
21
40.7080
0
LINE
8
PARAMETRIX
10
183.0749
20
40.7080
11
183.0749
21
25.0000
0
LINE
8
PARAMETRIX
10
183.0749
20
25.0000
11
133.0749
21
25.0000
0
LINE
8
PARAMETRIX
10
133.0749
20
25.0000
11
117.3669
21
25.0000
0
LINE
8
PARAMETRIX
10
10.0000
20
-99.4987
11
10.0000
21
-83.7908
0
LINE
8
PARAMETRIX
10
10.0000
20
-83.7908
11
10.0000
21
-68.7908
0
LINE
8
PARAMETRIX
10
10.0000
20
-68.7908
11
10.0000
21
-60.9368
0
LINE
8
PARAMETRIX
10
10.0000
20
-60.9368
11
-20.0000
21
-30.9368
0
LINE
8
PARAMETRIX
10
-20.0000
20
-30.9368
11
-20.0000
21
-23.0828
0
LINE
8
PARAMETRIX
10
-20.0000
20
-23.0828
11
-20.0000
21
56.9172
0
LINE
8
PARAMETRIX
10
-20.0000
20
56.9172
11
-20.0000
21
72.6251
0
LINE
8
PARAMETRIX
10
-20.0000
20
72.6251
11
-20.0000
21
87.6251
0
LINE
8
PARAMETRIX
10
-20.0000
20
87.6251
11
-40.0000
21
87.6251
0
LINE
8
PARAMETRIX
10
-40.0000
20
87.6251
11
-40.0000
21
72.6251
0
LINE
8
PARAMETRIX
10
-40.0000
20
72.6251
11
-40.0000
21
56.9172
0
LINE
8
PARAMETRIX
10
-40.0000
20
56.9172
11
-40.0000
21
26.9172
0
LINE
8
PARAMETRIX
10
-40.0000
20
26.9172
11
-55.7080
21
26.9172
0
LINE
8
PARAMETRIX
10
-55.7080
20
26.9172
11
-70.7080
21
26.9172
0
LINE
8
PARAMETRIX
10
-70.7080
20
26.9172
11
-70.7080
21
6.9172
0
LINE
8
PARAMETRIX
10
-70.7080
20
6.9172
11
-55.7080
21
6.9172
0
LINE
8
PARAMETRIX
10
-55.7080
20
6.9172
11
-40.0000
21
6.9172
0
LINE
8
PARAMETRIX
10
-40.0000
20
6.9172
11
-40.0000
21
-23.0828
0
LINE
8
PARAMETRIX
10
-40.0000
20
-23.0828
11
-40.0000
21
-30.9368
0
LINE
8
PARAMETRIX
10
-40.0000
20
-30.9368
11
-10.0000
21
-60.9368
0
LINE
8
PARAMETRIX
10
-10.0000
20
-60.9368
11
-10.0000
21
-68.7908
0
LINE
8
PARAMETRIX
10
-10.0000
20
-68.7908
11
-10.0000
21
-83.7908
0
LINE
8
PARAMETRIX
10
-10.0000
20
-83.7908
11
-10.0000
21
-99.4987
0
ARC
8
PARAMETRIX
10
0.0000
20
-0.0000
40
100.0000
50
95.7392
51
264.2608
0
LINE
8
PARAMETRIX
10
-10.0000
20
99.4987
11
-10.0000
21
83.7908
0
LINE
8
PARAMETRIX
10
-10.0000
20
83.7908
11
-10.0000
21
68.7908
0
LINE
8
PARAMETRIX
10
-10.0000
20
68.7908
11
-10.0000
21
60.9368
0
LINE
8
PARAMETRIX
10
-10.0000
20
60.9368
11
20.0000
21
30.9368
0
LINE
8
PARAMETRIX
10
20.0000
20
30.9368
11
20.0000
21
23.0828
0
LINE
8
PARAMETRIX
10
20.0000
20
23.0828
11
20.0000
21
-56.9172
0
LINE
8
PARAMETRIX
10
20.0000
20
-56.9172
11
20.0000
21
-72.6251
0
LINE
8
PARAMETRIX
10
20.0000
20
-72.6251
11
20.0000
21
-87.6251
0
LINE
8
PARAMETRIX
10
20.0000
20
-87.6251
11
40.0000
21
-87.6251
0
LINE
8
PARAMETRIX
10
40.0000
20
-87.6251
11
40.0000
21
-72.6251
0
LINE
8
PARAMETRIX
10
40.0000
20
-72.6251
11
40.0000
21
-56.9172
0
LINE
8
PARAMETRIX
10
40.0000
20
-56.9172
11
40.0000
21
-26.9172
0
LINE
8
PARAMETRIX
10
40.0000
20
-26.9172
11
55.7080
21
-26.9172
0
LINE
8
PARAMETRIX
10
55.7080
20
-26.9172
11
70.7080
21
-26.9172
0
LINE
8
PARAMETRIX
10
70.7080
20
-26.9172
11
70.7080
21
-6.9172
0
LINE
8
PARAMETRIX
10
70.7080
20
-6.9172
11
55.7080
21
-6.9172
0
LINE
8
PARAMETRIX
10
55.7080
20
-6.9172
11
40.0000
21
-6.9172
0
LINE
8
PARAMETRIX
10
40.0000
20
-6.9172
11
40.0000
21
23.0828
0
LINE
8
PARAMETRIX
10
40.0000
20
23.0828
11
40.0000
21
30.9368
0
LINE
8
PARAMETRIX
10
40.0000
20
30.9368
11
10.0000
21
60.9368
0
LINE
8
PARAMETRIX
10
10.0000
20
60.9368
11
10.0000
21
68.7908
0
LINE
8
PARAMETRIX
10
10.0000
20
68.7908
11
10.0000
21
83.7908
0
LINE
8
PARAMETRIX
10
10.0000
20
83.7908
11
10.0000
21
99.4987
0
ARC
8
PARAMETRIX
10
0.0000
20
0.0000
40
100.0000
50
275.7392
51
84.2608
0
LINE
8
PARAMETRIX
10
-89.3045
20
121.3467
11
-122.6379
21
179.0817
0
LINE
8
PARAMETRIX
10
-122.6379
20
179.0817
11
-118.3078
21
181.5817
0
LINE
8
PARAMETRIX
10
-118.3078
20
181.5817
11
-102.5998
21
154.3747
0
LINE
8
PARAMETRIX
10
-102.5998
20
154.3747
11
-85.9331
21
125.5072
0
LINE
8
PARAMETRIX
10
-85.9331
20
125.5072
11
-65.7259
21
137.1739
0
LINE
8
PARAMETRIX
10
-65.7259
20
137.1739
11
-82.3925
21
166.0414
0
LINE
8
PARAMETRIX
10
-82.3925
20
166.0414
11
-98.1005
21
193.2484
0
LINE
8
PARAMETRIX
10
-98.1005
20
193.2484
11
-93.7704
21
195.7484
0
LINE
8
PARAMETRIX
10
-93.7704
20
195.7484
11
-60.4370
21
138.0133
0
LINE
8
PARAMETRIX
10
-60.4370
20
138.0133
11
-89.3045
21
121.3467
0
LINE
8
PARAMETRIX
10
-60.4370
20
-138.0133
11
-93.7704
21
-195.7484
0
LINE
8
PARAMETRIX
10
-93.7704
20
-195.7484
11
-98.1005
21
-193.2484
0
LINE
8
PARAMETRIX
10
-98.1005
20
-193.2484
11
-82.3925
21
-166.0414
0
LINE
8
PARAMETRIX
10
-82.3925
20
-166.0414
11
-65.7259
21
-137.1739
0
LINE
8
PARAMETRIX
10
-65.7259
20
-137.1739
11
-85.9331
21
-125.5072
0
LINE
8
PARAMETRIX
10
-85.9331
20
-125.5072
11
-102.5998
21
-154.3747
0
LINE
8
PARAMETRIX
10
-102.5998
20
-154.3747
11
-118.3078
21
-181.5817
0
LINE
8
PARAMETRIX
10
-118.3078
20
-181.5817
11
-122.6379
21
-179.0817
0
LINE
8
PARAMETRIX
10
-122.6379
20
-179.0817
11
-89.3045
21
-121.3467
0
LINE
8
PARAMETRIX
10
-89.3045
20
-121.3467
11
-60.4370
21
-138.0133
0
LINE
8
PARAMETRIX
10
149.7416
20
16.6667
11
216.4082
21
16.6667
0
LINE
8
PARAMETRIX
10
216.4082
20
16.6667
11
216.4082
21
11.6667
0
LINE
8
PARAMETRIX
10
216.4082
20
11.6667
11
184.9923
21
11.6667
0
LINE
8
PARAMETRIX
10
184.9923
20
11.6667
11
151.6590
21
11.6667
0
LINE
8
PARAMETRIX
10
151.6590
20
11.6667
11
151.6590
21
-11.6667
0
LINE
8
PARAMETRIX
10
151.6590
20
-11.6667
11
184.9923
21
-11.6667
0
LINE
8
PARAMETRIX
10
184.9923
20
-11.6667
11
216.4082
21
-11.6667
0
LINE
8
PARAMETRIX
10
216.4082
20
-11.6667
11
216.4082
21
-16.6667
0
LINE
8
PARAMETRIX
10
216.4082
20
-16.6667
11
149.7416
21
-16.6667
0
LINE
8
PARAMETRIX
10
149.7416
20
-16.6667
11
149.7416
21
16.6667
0
LINE
8
PARAMETRIX
10
37.5000
20
18.0828
11
37.5000
21
-51.9172
0
LINE
8
PARAMETRIX
10
37.5000
20
-51.9172
11
35.0000
21
-51.9172
0
LINE
8
PARAMETRIX
10
35.0000
20
-51.9172
11
35.0000
21
-36.2092
0
LINE
8
PARAMETRIX
10
35.0000
20
-36.2092
11
35.0000
21
-16.2092
0
LINE
8
PARAMETRIX
10
35.0000
20
-16.2092
11
25.0000
21
-16.2092
0
LINE
8
PARAMETRIX
10
25.0000
20
-16.2092
11
25.0000
21
-36.2092
0
LINE
8
PARAMETRIX
10
25.0000
20
-36.2092
11
25.0000
21
-51.9172
0
LINE
8
PARAMETRIX
10
25.0000
20
-51.9172
11
22.5000
21
-51.9172
0
LINE
8
PARAMETRIX
10
22.5000
20
-51.9172
11
22.5000
21
18.0828
0
LINE
8
PARAMETRIX
10
22.5000
20
18.0828
11
25.0000
21
18.0828
0
LINE
8
PARAMETRIX
10
25.0000
20
18.0828
11
25.0000
21
2.3749
0
LINE
8
PARAMETRIX
10
25.0000
20
2.3749
11
25.0000
21
-17.6251
0
LINE
8
PARAMETRIX
10
25.0000
20
-17.6251
11
35.0000
21
-17.6251
0
LINE
8
PARAMETRIX
10
35.0000
20
-17.6251
11
35.0000
21
2.3749
0
LINE
8
PARAMETRIX
10
35.0000
20
2.3749
11
35.0000
21
18.0828
0
LINE
8
PARAMETRIX
10
35.0000
20
18.0828
11
37.5000
21
18.0828
0
LINE
8
PARAMETRIX
10
-37.5000
20
-18.0828
11
-37.5000
21
51.9172
0
LINE
8
PARAMETRIX
10
-37.5000
20
51.9172
11
-35.0000
21
51.9172
0
LINE
8
PARAMETRIX
10
-35.0000
20
51.9172
11
-35.0000
21
36.2092
0
LINE
8
PARAMETRIX
10
-35.0000
20
36.2092
11
-35.0000
21
16.2092
0
LINE
8
PARAMETRIX
10
-35.0000
20
16.2092
11
-25.0000
21
16.2092
0
LINE
8
PARAMETRIX
10
-25.0000
20
16.2092
11
-25.0000
21
36.2092
0
LINE
8
PARAMETRIX
10
-25.0000
20
36.2092
11
-25.0000
21
51.9172
0
LINE
8
PARAMETRIX
10
-25.0000
20
51.9172
11
-22.5000
21
51.9172
0
LINE
8
PARAMETRIX
10
-22.5000
20
51.9172
11
-22.5000
21
-18.0828
0
LINE
8
PARAMETRIX
10
-22.5000
20
-18.0828
11
-25.0000
21
-18.0828
0
LINE
8
PARAMETRIX
10
-25.0000
20
-18.0828
11
-25.0000
21
-2.3749
0
LINE
8
PARAMETRIX
10
-25.0000
20
-2.3749
11
-25.0000
21
17.6251
0
LINE
8
PARAMETRIX
10
-25.0000
20
17.6251
11
-35.0000
21
17.6251
0
LINE
8
PARAMETRIX
10
-35.0000
20
17.6251
11
-35.0000
21
-2.3749
0
LINE
8
PARAMETRIX
10
-35.0000
20
-2.3749
11
-35.0000
21
-18.0828
0
LINE
8
PARAMETRIX
10
-35.0000
20
-18.0828
11
-37.5000
21
-18.0828
0
CIRCLE
8
PARAMETRIX
10
-84.1628
20
145.7743
40
7.7778
0
CIRCLE
8
PARAMETRIX
10
9.7721
20
245.9061
40
16.6667
0
CIRCLE
8
PARAMETRIX
10
-217.8470
20
114.4902
40
16.6667
0
CIRCLE
8
PARAMETRIX
10
-84.1628
20
-145.7743
40
7.7778
0
CIRCLE
8
PARAMETRIX
10
-217.8470
20
-114.4902
40
16.6667
0
CIRCLE
8
PARAMETRIX
10
9.7721
20
-245.9061
40
16.6667
0
CIRCLE
8
PARAMETRIX
10
168.3256
20
-0.0000
40
7.7778
0
CIRCLE
8
PARAMETRIX
10
208.0749
20
-131.4159
40
16.6667
0
CIRCLE
8
PARAMETRIX
10
208.0749
20
131.4159
40
16.6667
0
LINE
8
PARAMETRIX
10
36.6667
20
-75.1251
11
23.3333
21
-75.1251
0
LINE
8
PARAMETRIX
10
23.3333
20
-75.1251
11
23.3333
21
-85.1251
0
LINE
8
PARAMETRIX
10
23.3333
20
-85.1251
11
36.6667
21
-85.1251
0
LINE
8
PARAMETRIX
10
36.6667
20
-85.1251
11
36.6667
21
-75.1251
0
CIRCLE
8
PARAMETRIX
10
30.0000
20
-7.6251
40
3.3333
0
CIRCLE
8
PARAMETRIX
10
30.0000
20
-26.2092
40
3.3333
0
LINE
8
PARAMETRIX
10
-36.6667
20
75.1251
11
-23.3333
21
75.1251
0
LINE
8
PARAMETRIX
10
-23.3333
20
75.1251
11
-23.3333
21
85.1251
0
LINE
8
PARAMETRIX
10
-23.3333
20
85.1251
11
-36.6667
21
85.1251
0
LINE
8
PARAMETRIX
10
-36.6667
20
85.1251
11
-36.6667
21
75.1251
0
CIRCLE
8
PARAMETRIX
10
-30.0000
20
7.6251
40
3.3333
0
CIRCLE
8
PARAMETRIX
10
-30.0000
20
26.2092
40
3.3333
0
ARC
8
PARAMETRIX
10
-66.0375
20
114.3802
40
1.0000
50
30.0000
51
210.0000
0
LINE
8
PARAMETRIX
10
-66.9035
20
113.8802
11
-60.0495
21
102.0088
0
ARC
8
PARAMETRIX
10
-59.1835
20
102.5088
40
1.0000
50
210.0000
51
30.0000
0
LINE
8
PARAMETRIX
10
-58.3174
20
103.0088
11
-65.1714
21
114.8802
0
ARC
8
PARAMETRIX
10
-66.0375
20
-114.3802
40
1.0000
50
150.0000
51
330.0000
0
LINE
8
PARAMETRIX
10
-65.1714
20
-114.8802
11
-58.3174
21
-103.0088
0
ARC
8
PARAMETRIX
10
-59.1835
20
-102.5088
40
1.0000
50
330.0000
51
150.0000
0
LINE
8
PARAMETRIX
10
-60.0495
20
-102.0088
11
-66.9035
21
-113.8802
0
ARC
8
PARAMETRIX
10
132.0749
20
-0.0000
40
1.0000
50
270.0000
51
90.0000
0
LINE
8
PARAMETRIX
10
132.0749
20
1.0000
11
118.3669
21
1.0000
0
ARC
8
PARAMETRIX
10
118.3669
20
-0.0000
40
1.0000
50
90.0000
51
270.0000
0
LINE
8
PARAMETRIX
10
118.3669
20
-1.0000
11
132.0749
21
-1.0000
0
ARC
8
PARAMETRIX
10
-0.0000
20
98.4987
40
1.0000
50
0.0000
51
180.0000
0
LINE
8
PARAMETRIX
10
-1.0000
20
98.4987
11
-1.0000
21
84.7908
0
ARC
8
PARAMETRIX
10
0.0000
20
84.7908
40
1.0000
50
180.0000
51
0.0000
0
LINE
8
PARAMETRIX
10
1.0000
20
84.7908
11
1.0000
21
98.4987
0
ARC
8
PARAMETRIX
10
0.0000
20
-98.4987
40
1.0000
50
180.0000
51
0.0000
0
LINE
8
PARAMETRIX
10
1.0000
20
-98.4987
11
1.0000
21
-84.7908
0
ARC
8
PARAMETRIX
10
-0.0000
20
-84.7908
40
1.0000
50
0.0000
51
180.0000
0
LINE
8
PARAMETRIX
10
-1.0000
20
-84.7908
11
-1.0000
21
-98.4987
0
ARC
8
PARAMETRIX
10
-69.6493
20
200.0521
40
1.0000
50
300.0000
51
120.0000
0
LINE
8
PARAMETRIX
10
-70.1493
20
200.9182
11
-82.0208
21
194.0642
0
ARC
8
PARAMETRIX
10
-81.5208
20
193.1982
40
1.0000
50
120.0000
51
300.0000
0
LINE
8
PARAMETRIX
10
-81.0208
20
192.3321
11
-69.1493
21
199.1861
0
ARC
8
PARAMETRIX
10
-138.4256
20
160.3442
40
1.0000
50
120.0000
51
300.0000
0
LINE
8
PARAMETRIX
10
-137.9256
20
159.4782
11
-126.0541
21
166.3321
0
ARC
8
PARAMETRIX
10
-126.5541
20
167.1982
40
1.0000
50
300.0000
51
120.0000
0
LINE
8
PARAMETRIX
10
-127.0541
20
168.0642
11
-138.9256
21
161.2102
0
ARC
8
PARAMETRIX
10
-107.7041
20
186.5490
40
1.0000
50
30.0000
51
210.0000
0
LINE
8
PARAMETRIX
10
-108.5701
20
186.0490
11
-93.8622
21
160.5741
0
ARC
8
PARAMETRIX
10
-92.9962
20
161.0741
40
1.0000
50
210.0000
51
30.0000
0
LINE
8
PARAMETRIX
10
-92.1301
20
161.5741
11
-106.8381
21
187.0490
0
ARC
8
PARAMETRIX
10
-12.7446
20
232.9061
40
1.0000
50
300.0000
51
120.0000
0
LINE
8
PARAMETRIX
10
-13.2446
20
233.7721
11
-25.1160
21
226.9182
0
ARC
8
PARAMETRIX
10
-24.6160
20
226.0521
40
1.0000
50
120.0000
51
300.0000
0
LINE
8
PARAMETRIX
10
-24.1160
20
225.1861
11
-12.2446
21
232.0401
0
ARC
8
PARAMETRIX
10
-195.3303
20
127.4902
40
1.0000
50
120.0000
51
300.0000
0
LINE
8
PARAMETRIX
10
-194.8303
20
126.6242
11
-182.9589
21
133.4782
0
ARC
8
PARAMETRIX
10
-183.4589
20
134.3442
40
1.0000
50
300.0000
51
120.0000
0
LINE
8
PARAMETRIX
10
-183.9589
20
135.2102
11
-195.8303
21
128.3562
0
ARC
8
PARAMETRIX
10
-138.4256
20
-160.3442
40
1.0000
50
60.0000
51
240.0000
0
LINE
8
PARAMETRIX
10
-138.9256
20
-161.2102
11
-127.0541
21
-168.0642
0
ARC
8
PARAMETRIX
10
-126.5541
20
-167.1982
40
1.0000
50
240.0000
51
60.0000
0
LINE
8
PARAMETRIX
10
-126.0541
20
-166.3321
11
-137.9256
21
-159.4782
0
ARC
8
PARAMETRIX
10
-69.6493
20
-200.0521
40
1.0000
50
240.0000
51
60.0000
0
LINE
8
PARAMETRIX
10
-69.1493
20
-199.1861
11
-81.0208
21
-192.3321
0
ARC
8
PARAMETRIX
10
-81.5208
20
-193.1982
40
1.0000
50
60.0000
51
240.0000
0
LINE
8
PARAMETRIX
10
-82.0208
20
-194.0642
11
-70.1493
21
-200.9182
0
ARC
8
PARAMETRIX
10
-107.7041
20
-186.5490
40
1.0000
50
150.0000
51
330.0000
0
LINE
8
PARAMETRIX
10
-106.8381
20
-187.0490
11
-92.1301
21
-161.5741
0
ARC
8
PARAMETRIX
10
-92.9962
20
-161.0741
40
1.0000
50
330.0000
51
150.0000
0
LINE
8
PARAMETRIX
10
-93.8622
20
-160.5741
11
-108.5701
21
-186.0490
0
ARC
8
PARAMETRIX
10
-195.3303
20
-127.4902
40
1.0000
50
60.0000
51
240.0000
0
LINE
8
PARAMETRIX
10
-195.8303
20
-128.3562
11
-183.9589
21
-135.2102
0
ARC
8
PARAMETRIX
10
-183.4589
20
-134.3442
40
1.0000
50
240.0000
51
60.0000
0
LINE
8
PARAMETRIX
10
-182.9589
20
-133.4782
11
-194.8303
21
-126.6242
0
ARC
8
PARAMETRIX
10
-12.7446
20
-232.9061
40
1.0000
50
240.0000
51
60.0000
0
LINE
8
PARAMETRIX
10
-12.2446
20
-232.0401
11
-24.1160
21
-225.1861
0
ARC
8
PARAMETRIX
10
-24.6160
20
-226.0521
40
1.0000
50
60.0000
51
240.0000
0
LINE
8
PARAMETRIX
10
-25.1160
20
-226.9182
11
-13.2446
21
-233.7721
0
ARC
8
PARAMETRIX
10
208.0749
20
-39.7080
40
1.0000
50
180.0000
51
0.0000
0
LINE
8
PARAMETRIX
10
209.0749
20
-39.7080
11
209.0749
21
-26.0000
0
ARC
8
PARAMETRIX
10
208.0749
20
-26.0000
40
1.0000
50
360.0000
51
180.0000
0
LINE
8
PARAMETRIX
10
207.0749
20
-26.0000
11
207.0749
21
-39.7080
0
ARC
8
PARAMETRIX
10
208.0749
20
39.7080
40
1.0000
50
0.0000
51
180.0000
0
LINE
8
PARAMETRIX
10
207.0749
20
39.7080
11
207.0749
21
26.0000
0
ARC
8
PARAMETRIX
10
208.0749
20
26.0000
40
1.0000
50
180.0000
51
0.0000
0
LINE
8
PARAMETRIX
10
209.0749
20
26.0000
11
209.0749
21
39.7080
0
ARC
8
PARAMETRIX
10
215.4082
20
-0.0000
40
1.0000
50
270.0000
51
90.0000
0
LINE
8
PARAMETRIX
10
215.4082
20
1.0000
11
185.9923
21
1.0000
0
ARC
8
PARAMETRIX
10
185.9923
20
-0.0000
40
1.0000
50
90.0000
51
270.0000
0
LINE
8
PARAMETRIX
10
185.9923
20
-1.0000
11
215.4082
21
-1.0000
0
ARC
8
PARAMETRIX
10
208.0749
20
-105.4159
40
1.0000
50
180.0000
51
0.0000
0
LINE
8
PARAMETRIX
10
209.0749
20
-105.4159
11
209.0749
21
-91.7080
0
ARC
8
PARAMETRIX
10
208.0749
20
-91.7080
40
1.0000
50
0.0000
51
180.0000
0
LINE
8
PARAMETRIX
10
207.0749
20
-91.7080
11
207.0749
21
-105.4159
0
ARC
8
PARAMETRIX
10
208.0749
20
105.4159
40
1.0000
50
0.0000
51
180.0000
0
LINE
8
PARAMETRIX
10
207.0749
20
105.4159
11
207.0749
21
91.7080
0
ARC
8
PARAMETRIX
10
208.0749
20
91.7080
40
1.0000
50
180.0000
51
0.0000
0
LINE
8
PARAMETRIX
10
209.0749
20
91.7080
11
209.0749
21
105.4159
0
ARC
8
PARAMETRIX
10
-0.0000
20
61.9368
40
1.0000
50
180.0000
51
0.0000
0
LINE
8
PARAMETRIX
10
1.0000
20
61.9368
11
1.0000
21
67.7908
0
ARC
8
PARAMETRIX
10
-0.0000
20
67.7908
40
1.0000
50
0.0000
51
180.0000
0
LINE
8
PARAMETRIX
10
-1.0000
20
67.7908
11
-1.0000
21
61.9368
0
ARC
8
PARAMETRIX
10
30.0000
20
24.0828
40
1.0000
50
180.0000
51
0.0000
0
LINE
8
PARAMETRIX
10
31.0000
20
24.0828
11
31.0000
21
29.9368
0
ARC
8
PARAMETRIX
10
30.0000
20
29.9368
40
1.0000
50
360.0000
51
180.0000
0
LINE
8
PARAMETRIX
10
29.0000
20
29.9368
11
29.0000
21
24.0828
0
ARC
8
PARAMETRIX
10
30.0000
20
-71.6251
40
1.0000
50
180.0000
51
0.0000
0
LINE
8
PARAMETRIX
10
31.0000
20
-71.6251
11
31.0000
21
-57.9172
0
ARC
8
PARAMETRIX
10
30.0000
20
-57.9172
40
1.0000
50
0.0000
51
180.0000
0
LINE
8
PARAMETRIX
10
29.0000
20
-57.9172
11
29.0000
21
-71.6251
0
ARC
8
PARAMETRIX
10
54.7080
20
-16.9172
40
1.0000
50
270.0000
51
90.0000
0
LINE
8
PARAMETRIX
10
54.7080
20
-15.9172
11
41.0000
21
-15.9172
0
ARC
8
PARAMETRIX
10
41.0000
20
-16.9172
40
1.0000
50
90.0000
51
270.0000
0
LINE
8
PARAMETRIX
10
41.0000
20
-17.9172
11
54.7080
21
-17.9172
0
ARC
8
PARAMETRIX
10
30.0000
20
17.0828
40
1.0000
50
0.0000
51
180.0000
0
LINE
8
PARAMETRIX
10
29.0000
20
17.0828
11
29.0000
21
3.3749
0
ARC
8
PARAMETRIX
10
30.0000
20
3.3749
40
1.0000
50
180.0000
51
0.0000
0
LINE
8
PARAMETRIX
10
31.0000
20
3.3749
11
31.0000
21
17.0828
0
ARC
8
PARAMETRIX
10
30.0000
20
-50.9172
40
1.0000
50
180.0000
51
0.0000
0
LINE
8
PARAMETRIX
10
31.0000
20
-50.9172
11
31.0000
21
-37.2092
0
ARC
8
PARAMETRIX
10
30.0000
20
-37.2092
40
1.0000
50
0.0000
51
180.0000
0
LINE
8
PARAMETRIX
10
29.0000
20
-37.2092
11
29.0000
21
-50.9172
0
ARC
8
PARAMETRIX
10
0.0000
20
-61.9368
40
1.0000
50
0.0000
51
180.0000
0
LINE
8
PARAMETRIX
10
-1.0000
20
-61.9368
11
-1.0000
21
-67.7908
0
ARC
8
PARAMETRIX
10
0.0000
20
-67.7908
40
1.0000
50
180.0000
51
0.0000
0
LINE
8
PARAMETRIX
10
1.0000
20
-67.7908
11
1.0000
21
-61.9368
0
ARC
8
PARAMETRIX
10
-30.0000
20
-24.0828
40
1.0000
50
0.0000
51
180.0000
0
LINE
8
PARAMETRIX
10
-31.0000
20
-24.0828
11
-31.0000
21
-29.9368
0
ARC
8
PARAMETRIX
10
-30.0000
20
-29.9368
40
1.0000
50
180.0000
51
0.0000
0
LINE
8
PARAMETRIX
10
-29.0000
20
-29.9368
11
-29.0000
21
-24.0828
0
ARC
8
PARAMETRIX
10
-30.0000
20
71.6251
40
1.0000
50
0.0000
51
180.0000
0
LINE
8
PARAMETRIX
10
-31.0000
20
71.6251
11
-31.0000
21
57.9172
0
ARC
8
PARAMETRIX
10
-30.0000
20
57.9172
40
1.0000
50
180.0000
51
0.0000
0
LINE
8
PARAMETRIX
10
-29.0000
20
57.9172
11
-29.0000
21
71.6251
0
ARC
8
PARAMETRIX
10
-54.7080
20
16.9172
40
1.0000
50
90.0000
51
270.0000
0
LINE
8
PARAMETRIX
10
-54.7080
20
15.9172
11
-41.0000
21
15.9172
0
ARC
8
PARAMETRIX
10
-41.0000
20
16.9172
40
1.0000
50
270.0000
51
90.0000
0
LINE
8
PARAMETRIX
10
-41.0000
20
17.9172
11
-54.7080
21
17.9172
0
ARC
8
PARAMETRIX
10
-30.0000
20
-17.0828
40
1.0000
50
180.0000
51
0.0000
0
LINE
8
PARAMETRIX
10
-29.0000
20
-17.0828
11
-29.0000
21
-3.3749
0
ARC
8
PARAMETRIX
10
-30.0000
20
-3.3749
40
1.0000
50
0.0000
51
180.0000
0
LINE
8
PARAMETRIX
10
-31.0000
20
-3.3749
11
-31.0000
21
-17.0828
0
ARC
8
PARAMETRIX
10
-30.0000
20
50.9172
40
1.0000
50
0.0000
51
180.0000
0
LINE
8
PARAMETRIX
10
-31.0000
20
50.9172
11
-31.0000
21
37.2092
0
ARC
8
PARAMETRIX
10
-30.0000
20
37.2092
40
1.0000
50
180.0000
51
0.0000
0
LINE
8
PARAMETRIX
10
-29.0000
20
37.2092
11
-29.0000
21
50.9172
0
ENDSEC
0
EOF
