<svg width="331" height="312" viewBox="-153 -204 331 312" xmlns="http://www.w3.org/2000/svg"><path d="M 0.0000 -102.5305 L 20.0000 -102.5305 L 20.0000 -112.5305 L 0.0000 -112.5305 L 0.0000 -102.5305 Z" stroke="green" stroke-width="1" fill="none" /><path d="M 20.0000 -102.5305 A 15.0000 15.0000 0 0 1 30.6066 -98.1371 L 37.6777 -105.2082 A 25.0000 25.0000 0 0 0 20.0000 -112.5305 L 20.0000 -102.5305 Z" stroke="green" stroke-width="1" fill="none" /><path d="M 30.6066 -98.1371 L 101.3173 -27.4264 L 108.3883 -34.4975 L 37.6777 -105.2082 L 30.6066 -98.1371 Z" stroke="green" stroke-width="1" fill="none" /><path d="M 101.3173 -27.4264 A 15.0000 15.0000 0 0 1 105.7107 -16.8198 L 115.7107 -16.8198 A 25.0000 25.0000 0 0 0 108.3883 -34.4975 L 101.3173 -27.4264 Z" stroke="green" stroke-width="1" fill="none" /><path d="M 105.7107 -16.8198 L 105.7107 33.1802 L 115.7107 33.1802 L 115.7107 -16.8198 L 105.7107 -16.8198 Z" stroke="green" stroke-width="1" fill="none" /><path d="M 105.7107 33.1802 A 25.0000 25.0000 0 0 0 113.0330 50.8579 L 120.1041 43.7868 A 15.0000 15.0000 0 0 1 115.7107 33.1802 L 105.7107 33.1802 Z" stroke="green" stroke-width="1" fill="none" /><path d="M 113.0330 50.8579 L 148.3883 86.2132 L 155.4594 79.1421 L 120.1041 43.7868 L 113.0330 50.8579 Z" stroke="green" stroke-width="1" fill="none" /><path d="M 0.0000 -112.5305 A 5.0000 5.0000 0 0 1 -5.0000 -117.5305 L -15.0000 -117.5305 A 15.0000 15.0000 0 0 0 -0.0000 -102.5305 L 0.0000 -112.5305 Z" stroke="green" stroke-width="1" fill="none" /><path d="M -5.0000 -117.5305 L -5.0000 -132.5305 L -15.0000 -132.5305 L -15.0000 -117.5305 L -5.0000 -117.5305 Z" stroke="green" stroke-width="1" fill="none" /><path d="M -5.0000 -132.5305 A 15.0000 15.0000 0 0 0 -9.3934 -143.1371 L -16.4645 -136.0660 A 5.0000 5.0000 0 0 1 -15.0000 -132.5305 L -5.0000 -132.5305 Z" stroke="green" stroke-width="1" fill="none" /><path d="M -9.3934 -143.1371 L -30.6066 -164.3503 L -37.6777 -157.2792 L -16.4645 -136.0660 L -9.3934 -143.1371 Z" stroke="green" stroke-width="1" fill="none" /><path d="M -30.6066 -164.3503 A 15.0000 15.0000 0 0 0 -41.2132 -168.7437 L -41.2132 -158.7437 A 5.0000 5.0000 0 0 1 -37.6777 -157.2792 L -30.6066 -164.3503 Z" stroke="green" stroke-width="1" fill="none" /><path d="M -41.2132 -168.7437 L -121.2132 -168.7437 L -121.2132 -158.7437 L -41.2132 -158.7437 L -41.2132 -168.7437 Z" stroke="green" stroke-width="1" fill="none" /><path d="M -121.2132 -168.7437 A 5.0000 5.0000 0 0 1 -126.2132 -173.7437 L -136.2132 -173.7437 A 15.0000 15.0000 0 0 0 -121.2132 -158.7437 L -121.2132 -168.7437 Z" stroke="green" stroke-width="1" fill="none" /><path d="M -126.2132 -173.7437 L -126.2132 -188.7437 L -136.2132 -188.7437 L -136.2132 -173.7437 L -126.2132 -173.7437 Z" stroke="green" stroke-width="1" fill="none" /></svg>