<svg width="544" height="626" viewBox="-279 -311 544 626" xmlns="http://www.w3.org/2000/svg"><path d="M 117.3669 -25.0000 A 120.0000 120.0000 0 0 0 -37.0328 -114.1428 L -44.8868 -127.7463 L -69.8868 -171.0475 L -56.2833 -178.9015 L -12.9821 -203.9015 L 0.6214 -211.7555 L 43.9227 -236.7555 L 18.9227 -280.0568 L -24.3786 -255.0568 L -37.9821 -247.2028 L -81.2833 -222.2028 L -94.8868 -214.3488 L -138.1881 -189.3488 L -151.7916 -181.4948 L -195.0929 -156.4948 L -208.6964 -148.6408 L -251.9976 -123.6408 L -226.9976 -80.3396 L -183.6964 -105.3396 L -170.0929 -113.1935 L -126.7916 -138.1935 L -113.1881 -146.0475 L -88.1881 -102.7463 L -80.3341 -89.1428 A 120.0000 120.0000 0 0 0 -80.3341 89.1428 L -88.1881 102.7463 L -113.1881 146.0475 L -126.7916 138.1935 L -170.0929 113.1935 L -183.6964 105.3396 L -226.9976 80.3396 L -251.9976 123.6408 L -208.6964 148.6408 L -195.0929 156.4948 L -151.7916 181.4948 L -138.1881 189.3488 L -94.8868 214.3488 L -81.2833 222.2028 L -37.9821 247.2028 L -24.3786 255.0568 L 18.9227 280.0568 L 43.9227 236.7555 L 0.6214 211.7555 L -12.9821 203.9015 L -56.2833 178.9015 L -69.8868 171.0475 L -44.8868 127.7463 L -37.0328 114.1428 A 120.0000 120.0000 0 0 0 117.3669 25.0000 L 133.0749 25.0000 L 183.0749 25.0000 L 183.0749 40.7080 L 183.0749 90.7080 L 183.0749 106.4159 L 183.0749 156.4159 L 233.0749 156.4159 L 233.0749 106.4159 L 233.0749 90.7080 L 233.0749 40.7080 L 233.0749 25.0000 L 233.0749 -25.0000 L 233.0749 -40.7080 L 233.0749 -90.7080 L 233.0749 -106.4159 L 233.0749 -156.4159 L 183.0749 -156.4159 L 183.0749 -106.4159 L 183.0749 -90.7080 L 183.0749 -40.7080 L 183.0749 -25.0000 L 133.0749 -25.0000 L 117.3669 -25.0000 Z" stroke="green" stroke-width="1" fill="none" /><path d="M 117.3669 -25.0000 A 120.0000 120.0000 0 0 0 -37.0328 -114.1428 L -44.8868 -127.7463 L -69.8868 -171.0475 L -56.2833 -178.9015 L -12.9821 -203.9015 L 0.6214 -211.7555 L 43.9227 -236.7555 L 18.9227 -280.0568 L -24.3786 -255.0568 L -37.9821 -247.2028 L -81.2833 -222.2028 L -94.8868 -214.3488 L -138.1881 -189.3488 L -151.7916 -181.4948 L -195.0929 -156.4948 L -208.6964 -148.6408 L -251.9976 -123.6408 L -226.9976 -80.3396 L -183.6964 -105.3396 L -170.0929 -113.1935 L -126.7916 -138.1935 L -113.1881 -146.0475 L -88.1881 -102.7463 L -80.3341 -89.1428 A 120.0000 120.0000 0 0 0 -80.3341 89.1428 L -88.1881 102.7463 L -113.1881 146.0475 L -126.7916 138.1935 L -170.0929 113.1935 L -183.6964 105.3396 L -226.9976 80.3396 L -251.9976 123.6408 L -208.6964 148.6408 L -195.0929 156.4948 L -151.7916 181.4948 L -138.1881 189.3488 L -94.8868 214.3488 L -81.2833 222.2028 L -37.9821 247.2028 L -24.3786 255.0568 L 18.9227 280.0568 L 43.9227 236.7555 L 0.6214 211.7555 L -12.9821 203.9015 L -56.2833 178.9015 L -69.8868 171.0475 L -44.8868 127.7463 L -37.0328 114.1428 A 120.0000 120.0000 0 0 0 117.3669 25.0000 L 133.0749 25.0000 L 183.0749 25.0000 L 183.0749 40.7080 L 183.0749 90.7080 L 183.0749 106.4159 L 183.0749 156.4159 L 233.0749 156.4159 L 233.0749 106.4159 L 233.0749 90.7080 L 233.0749 40.7080 L 233.0749 25.0000 L 233.0749 -25.0000 L 233.0749 -40.7080 L 233.0749 -90.7080 L 233.0749 -106.4159 L 233.0749 -156.4159 L 183.0749 -156.4159 L 183.0749 -106.4159 L 183.0749 -90.7080 L 183.0749 -40.7080 L 183.0749 -25.0000 L 133.0749 -25.0000 L 117.3669 -25.0000 Z" stroke="green" stroke-width="1" fill="none" /><path d="M 10.0000 99.4987 L 10.0000 83.7908 L 10.0000 68.7908 L 10.0000 60.9368 L -20.0000 30.9368 L -20.0000 23.0828 L -20.0000 -56.9172 L -20.0000 -72.6251 L -20.0000 -87.6251 L -40.0000 -87.6251 L -40.0000 -72.6251 L -40.0000 -56.9172 L -40.0000 -26.9172 L -55.7080 -26.9172 L -70.7080 -26.9172 L -70.7080 -6.9172 L -55.7080 -6.9172 L -40.0000 -6.9172 L -40.0000 23.0828 L -40.0000 30.9368 L -10.0000 60.9368 L -10.0000 68.7908 L -10.0000 83.7908 L -10.0000 99.4987 A 100.0000 100.0000 0 0 1 -10.0000 -99.4987 L -10.0000 -83.7908 L -10.0000 -68.7908 L -10.0000 -60.9368 L 20.0000 -30.9368 L 20.0000 -23.0828 L 20.0000 56.9172 L 20.0000 72.6251 L 20.0000 87.6251 L 40.0000 87.6251 L 40.0000 72.6251 L 40.0000 56.9172 L 40.0000 26.9172 L 55.7080 26.9172 L 70.7080 26.9172 L 70.7080 6.9172 L 55.7080 6.9172 L 40.0000 6.9172 L 40.0000 -23.0828 L 40.0000 -30.9368 L 10.0000 -60.9368 L 10.0000 -68.7908 L 10.0000 -83.7908 L 10.0000 -99.4987 A 100.0000 100.0000 0 0 1 10.0000 99.4987 Z" stroke="green" stroke-width="1" fill="none" /><path d="M -89.3045 -121.3467 L -122.6379 -179.0817 L -118.3078 -181.5817 L -102.5998 -154.3747 L -85.9331 -125.5072 L -65.7259 -137.1739 L -82.3925 -166.0414 L -98.1005 -193.2484 L -93.7704 -195.7484 L -60.4370 -138.0133 L -89.3045 -121.3467 Z" stroke="green" stroke-width="1" fill="none" /><path d="M -60.4370 138.0133 L -93.7704 195.7484 L -98.1005 193.2484 L -82.3925 166.0414 L -65.7259 137.1739 L -85.9331 125.5072 L -102.5998 154.3747 L -118.3078 181.5817 L -122.6379 179.0817 L -89.3045 121.3467 L -60.4370 138.0133 Z" stroke="green" stroke-width="1" fill="none" /><path d="M 149.7416 -16.6667 L 216.4082 -16.6667 L 216.4082 -11.6667 L 184.9923 -11.6667 L 151.6590 -11.6667 L 151.6590 11.6667 L 184.9923 11.6667 L 216.4082 11.6667 L 216.4082 16.6667 L 149.7416 16.6667 L 149.7416 -16.6667 Z" stroke="green" stroke-width="1" fill="none" /><path d="M 37.5000 -18.0828 L 37.5000 51.9172 L 35.0000 51.9172 L 35.0000 36.2092 L 35.0000 16.2092 L 25.0000 16.2092 L 25.0000 36.2092 L 25.0000 51.9172 L 22.5000 51.9172 L 22.5000 -18.0828 L 25.0000 -18.0828 L 25.0000 -2.3749 L 25.0000 17.6251 L 35.0000 17.6251 L 35.0000 -2.3749 L 35.0000 -18.0828 L 37.5000 -18.0828 Z" stroke="green" stroke-width="1" fill="none" /><path d="M -37.5000 18.0828 L -37.5000 -51.9172 L -35.0000 -51.9172 L -35.0000 -36.2092 L -35.0000 -16.2092 L -25.0000 -16.2092 L -25.0000 -36.2092 L -25.0000 -51.9172 L -22.5000 -51.9172 L -22.5000 18.0828 L -25.0000 18.0828 L -25.0000 2.3749 L -25.0000 -17.6251 L -35.0000 -17.6251 L -35.0000 2.3749 L -35.0000 18.0828 L -37.5000 18.0828 Z" stroke="green" stroke-width="1" fill="none" /><circle cx="-84.1628" cy="-145.7743" r="7.7778" stroke="green" stroke-width="1" fill="none" /><circle cx="9.7721" cy="-245.9061" r="16.6667" stroke="green" stroke-width="1" fill="none" /><circle cx="-217.8470" cy="-114.4902" r="16.6667" stroke="green" stroke-width="1" fill="none" /><circle cx="-84.1628" cy="145.7743" r="7.7778" stroke="green" stroke-width="1" fill="none" /><circle cx="-217.8470" cy="114.4902" r="16.6667" stroke="green" stroke-width="1" fill="none" /><circle cx="9.7721" cy="245.9061" r="16.6667" stroke="green" stroke-width="1" fill="none" /><circle cx="168.3256" cy="0.0000" r="7.7778" stroke="green" stroke-width="1" fill="none" /><circle cx="208.0749" cy="131.4159" r="16.6667" stroke="green" stroke-width="1" fill="none" /><circle cx="208.0749" cy="-131.4159" r="16.6667" stroke="green" stroke-width="1" fill="none" /><path d="M 36.6667 75.1251 L 23.3333 75.1251 L 23.3333 85.1251 L 36.6667 85.1251 L 36.6667 75.1251 Z" stroke="green" stroke-width="1" fill="none" /><circle cx="30.0000" cy="7.6251" r="3.3333" stroke="green" stroke-width="1" fill="none" /><circle cx="30.0000" cy="26.2092" r="3.3333" stroke="green" stroke-width="1" fill="none" /><path d="M -36.6667 -75.1251 L -23.3333 -75.1251 L -23.3333 -85.1251 L -36.6667 -85.1251 L -36.6667 -75.1251 Z" stroke="green" stroke-width="1" fill="none" /><circle cx="-30.0000" cy="-7.6251" r="3.3333" stroke="green" stroke-width="1" fill="none" /><circle cx="-30.0000" cy="-26.2092" r="3.3333" stroke="green" stroke-width="1" fill="none" /><path d="M -65.1714 -114.8802 A 1.0000 1.0000 0 0 0 -66.9035 -113.8802 L -60.0495 -102.0088 A 1.0000 1.0000 0 1 0 -58.3174 -103.0088 L -65.1714 -114.8802 Z" stroke="green" stroke-width="1" fill="none" /><path d="M -66.9035 113.8802 A 1.0000 1.0000 0 0 0 -65.1714 114.8802 L -58.3174 103.0088 A 1.0000 1.0000 0 0 0 -60.0495 102.0088 L -66.9035 113.8802 Z" stroke="green" stroke-width="1" fill="none" /><path d="M 132.0749 1.0000 A 1.0000 1.0000 0 0 0 132.0749 -1.0000 L 118.3669 -1.0000 A 1.0000 1.0000 0 0 0 118.3669 1.0000 L 132.0749 1.0000 Z" stroke="green" stroke-width="1" fill="none" /><path d="M 1.0000 -98.4987 A 1.0000 1.0000 0 0 0 -1.0000 -98.4987 L -1.0000 -84.7908 A 1.0000 1.0000 0 0 0 1.0000 -84.7908 L 1.0000 -98.4987 Z" stroke="green" stroke-width="1" fill="none" /><path d="M -1.0000 98.4987 A 1.0000 1.0000 0 0 0 1.0000 98.4987 L 1.0000 84.7908 A 1.0000 1.0000 0 0 0 -1.0000 84.7908 L -1.0000 98.4987 Z" stroke="green" stroke-width="1" fill="none" /><path d="M -69.1493 -199.1861 A 1.0000 1.0000 0 0 0 -70.1493 -200.9182 L -82.0208 -194.0642 A 1.0000 1.0000 0 0 0 -81.0208 -192.3321 L -69.1493 -199.1861 Z" stroke="green" stroke-width="1" fill="none" /><path d="M -138.9256 -161.2102 A 1.0000 1.0000 0 0 0 -137.9256 -159.4782 L -126.0541 -166.3321 A 1.0000 1.0000 0 0 0 -127.0541 -168.0642 L -138.9256 -161.2102 Z" stroke="green" stroke-width="1" fill="none" /><path d="M -106.8381 -187.0490 A 1.0000 1.0000 0 0 0 -108.5701 -186.0490 L -93.8622 -160.5741 A 1.0000 1.0000 0 0 0 -92.1301 -161.5741 L -106.8381 -187.0490 Z" stroke="green" stroke-width="1" fill="none" /><path d="M -12.2446 -232.0401 A 1.0000 1.0000 0 0 0 -13.2446 -233.7721 L -25.1160 -226.9182 A 1.0000 1.0000 0 0 0 -24.1160 -225.1861 L -12.2446 -232.0401 Z" stroke="green" stroke-width="1" fill="none" /><path d="M -195.8303 -128.3562 A 1.0000 1.0000 0 1 0 -194.8303 -126.6242 L -182.9589 -133.4782 A 1.0000 1.0000 0 0 0 -183.9589 -135.2102 L -195.8303 -128.3562 Z" stroke="green" stroke-width="1" fill="none" /><path d="M -137.9256 159.4782 A 1.0000 1.0000 0 0 0 -138.9256 161.2102 L -127.0541 168.0642 A 1.0000 1.0000 0 0 0 -126.0541 166.3321 L -137.9256 159.4782 Z" stroke="green" stroke-width="1" fill="none" /><path d="M -70.1493 200.9182 A 1.0000 1.0000 0 0 0 -69.1493 199.1861 L -81.0208 192.3321 A 1.0000 1.0000 0 1 0 -82.0208 194.0642 L -70.1493 200.9182 Z" stroke="green" stroke-width="1" fill="none" /><path d="M -108.5701 186.0490 A 1.0000 1.0000 0 0 0 -106.8381 187.0490 L -92.1301 161.5741 A 1.0000 1.0000 0 1 0 -93.8622 160.5741 L -108.5701 186.0490 Z" stroke="green" stroke-width="1" fill="none" /><path d="M -194.8303 126.6242 A 1.0000 1.0000 0 1 0 -195.8303 128.3562 L -183.9589 135.2102 A 1.0000 1.0000 0 0 0 -182.9589 133.4782 L -194.8303 126.6242 Z" stroke="green" stroke-width="1" fill="none" /><path d="M -13.2446 233.7721 A 1.0000 1.0000 0 0 0 -12.2446 232.0401 L -24.1160 225.1861 A 1.0000 1.0000 0 0 0 -25.1160 226.9182 L -13.2446 233.7721 Z" stroke="green" stroke-width="1" fill="none" /><path d="M 207.0749 39.7080 A 1.0000 1.0000 0 0 0 209.0749 39.7080 L 209.0749 26.0000 A 1.0000 1.0000 0 1 0 207.0749 26.0000 L 207.0749 39.7080 Z" stroke="green" stroke-width="1" fill="none" /><path d="M 209.0749 -39.7080 A 1.0000 1.0000 0 0 0 207.0749 -39.7080 L 207.0749 -26.0000 A 1.0000 1.0000 0 1 0 209.0749 -26.0000 L 209.0749 -39.7080 Z" stroke="green" stroke-width="1" fill="none" /><path d="M 215.4082 1.0000 A 1.0000 1.0000 0 0 0 215.4082 -1.0000 L 185.9923 -1.0000 A 1.0000 1.0000 0 0 0 185.9923 1.0000 L 215.4082 1.0000 Z" stroke="green" stroke-width="1" fill="none" /><path d="M 207.0749 105.4159 A 1.0000 1.0000 0 0 0 209.0749 105.4159 L 209.0749 91.7080 A 1.0000 1.0000 0 0 0 207.0749 91.7080 L 207.0749 105.4159 Z" stroke="green" stroke-width="1" fill="none" /><path d="M 209.0749 -105.4159 A 1.0000 1.0000 0 0 0 207.0749 -105.4159 L 207.0749 -91.7080 A 1.0000 1.0000 0 0 0 209.0749 -91.7080 L 209.0749 -105.4159 Z" stroke="green" stroke-width="1" fill="none" /><path d="M -1.0000 -61.9368 A 1.0000 1.0000 0 0 0 1.0000 -61.9368 L 1.0000 -67.7908 A 1.0000 1.0000 0 0 0 -1.0000 -67.7908 L -1.0000 -61.9368 Z" stroke="green" stroke-width="1" fill="none" /><path d="M 29.0000 -24.0828 A 1.0000 1.0000 0 0 0 31.0000 -24.0828 L 31.0000 -29.9368 A 1.0000 1.0000 0 1 0 29.0000 -29.9368 L 29.0000 -24.0828 Z" stroke="green" stroke-width="1" fill="none" /><path d="M 29.0000 71.6251 A 1.0000 1.0000 0 0 0 31.0000 71.6251 L 31.0000 57.9172 A 1.0000 1.0000 0 0 0 29.0000 57.9172 L 29.0000 71.6251 Z" stroke="green" stroke-width="1" fill="none" /><path d="M 54.7080 17.9172 A 1.0000 1.0000 0 0 0 54.7080 15.9172 L 41.0000 15.9172 A 1.0000 1.0000 0 0 0 41.0000 17.9172 L 54.7080 17.9172 Z" stroke="green" stroke-width="1" fill="none" /><path d="M 31.0000 -17.0828 A 1.0000 1.0000 0 0 0 29.0000 -17.0828 L 29.0000 -3.3749 A 1.0000 1.0000 0 0 0 31.0000 -3.3749 L 31.0000 -17.0828 Z" stroke="green" stroke-width="1" fill="none" /><path d="M 29.0000 50.9172 A 1.0000 1.0000 0 0 0 31.0000 50.9172 L 31.0000 37.2092 A 1.0000 1.0000 0 0 0 29.0000 37.2092 L 29.0000 50.9172 Z" stroke="green" stroke-width="1" fill="none" /><path d="M 1.0000 61.9368 A 1.0000 1.0000 0 0 0 -1.0000 61.9368 L -1.0000 67.7908 A 1.0000 1.0000 0 0 0 1.0000 67.7908 L 1.0000 61.9368 Z" stroke="green" stroke-width="1" fill="none" /><path d="M -29.0000 24.0828 A 1.0000 1.0000 0 0 0 -31.0000 24.0828 L -31.0000 29.9368 A 1.0000 1.0000 0 0 0 -29.0000 29.9368 L -29.0000 24.0828 Z" stroke="green" stroke-width="1" fill="none" /><path d="M -29.0000 -71.6251 A 1.0000 1.0000 0 0 0 -31.0000 -71.6251 L -31.0000 -57.9172 A 1.0000 1.0000 0 0 0 -29.0000 -57.9172 L -29.0000 -71.6251 Z" stroke="green" stroke-width="1" fill="none" /><path d="M -54.7080 -17.9172 A 1.0000 1.0000 0 0 0 -54.7080 -15.9172 L -41.0000 -15.9172 A 1.0000 1.0000 0 0 0 -41.0000 -17.9172 L -54.7080 -17.9172 Z" stroke="green" stroke-width="1" fill="none" /><path d="M -31.0000 17.0828 A 1.0000 1.0000 0 0 0 -29.0000 17.0828 L -29.0000 3.3749 A 1.0000 1.0000 0 0 0 -31.0000 3.3749 L -31.0000 17.0828 Z" stroke="green" stroke-width="1" fill="none" /><path d="M -29.0000 -50.9172 A 1.0000 1.0000 0 0 0 -31.0000 -50.9172 L -31.0000 -37.2092 A 1.0000 1.0000 0 0 0 -29.0000 -37.2092 L -29.0000 -50.9172 Z" stroke="green" stroke-width="1" fill="none" /></svg>