0
SECTION
2
ENTITIES
0
LINE
8
PARAMETRIX
10
0.0000
20
0.0000
11
20.0000
21
0.0000
0
LINE
8
PARAMETRIX
10
20.0000
20
0.0000
11
20.0000
21
10.0000
0
LINE
8
PARAMETRIX
10
20.0000
20
10.0000
11
0.0000
21
10.0000
0
LINE
8
PARAMETRIX
10
0.0000
20
10.0000
11
0.0000
21
0.0000
0
ARC
8
PARAMETRIX
10
20.0000
20
-15.0000
40
15.0000
50
45.0000
51
90.0000
0
LINE
8
PARAMETRIX
10
30.6066
20
-4.3934
11
37.6777
21
2.6777
0
ARC
8
PARAMETRIX
10
20.0000
20
-15.0000
40
25.0000
50
45.0000
51
90.0000
0
LINE
8
PARAMETRIX
10
20.0000
20
10.0000
11
20.0000
21
0.0000
0
LINE
8
PARAMETRIX
10
30.6066
20
-4.3934
11
101.3173
21
-75.1041
0
LINE
8
PARAMETRIX
10
101.3173
20
-75.1041
11
108.3883
21
-68.0330
0
LINE
8
PARAMETRIX
10
108.3883
20
-68.0330
11
37.6777
21
2.6777
0
LINE
8
PARAMETRIX
10
37.6777
20
2.6777
11
30.6066
21
-4.3934
0
ARC
8
PARAMETRIX
10
90.7107
20
-85.7107
40
15.0000
50
360.0000
51
45.0000
0
LINE
8
PARAMETRIX
10
105.7107
20
-85.7107
11
115.7107
21
-85.7107
0
ARC
8
PARAMETRIX
10
90.7107
20
-85.7107
40
25.0000
50
0.0000
51
45.0000
0
LINE
8
PARAMETRIX
10
108.3883
20
-68.0330
11
101.3173
21
-75.1041
0
LINE
8
PARAMETRIX
10
105.7107
20
-85.7107
11
105.7107
21
-135.7107
0
LINE
8
PARAMETRIX
10
105.7107
20
-135.7107
11
115.7107
21
-135.7107
0
LINE
8
PARAMETRIX
10
115.7107
20
-135.7107
11
115.7107
21
-85.7107
0
LINE
8
PARAMETRIX
10
115.7107
20
-85.7107
11
105.7107
21
-85.7107
0
ARC
8
PARAMETRIX
10
130.7107
20
-135.7107
40
25.0000
50
180.0000
51
225.0000
0
LINE
8
PARAMETRIX
10
113.0330
20
-153.3883
11
120.1041
21
-146.3173
0
ARC
8
PARAMETRIX
10
130.7107
20
-135.7107
40
15.0000
50
180.0000
51
225.0000
0
LINE
8
PARAMETRIX
10
115.7107
20
-135.7107
11
105.7107
21
-135.7107
0
LINE
8
PARAMETRIX
10
113.0330
20
-153.3883
11
148.3883
21
-188.7437
0
LINE
8
PARAMETRIX
10
148.3883
20
-188.7437
11
155.4594
21
-181.6726
0
LINE
8
PARAMETRIX
10
155.4594
20
-181.6726
11
120.1041
21
-146.3173
0
LINE
8
PARAMETRIX
10
120.1041
20
-146.3173
11
113.0330
21
-153.3883
0
ARC
8
PARAMETRIX
10
0.0000
20
15.0000
40
5.0000
50
180.0000
51
270.0000
0
LINE
8
PARAMETRIX
10
-5.0000
20
15.0000
11
-15.0000
21
15.0000
0
ARC
8
PARAMETRIX
10
0.0000
20
15.0000
40
15.0000
50
180.0000
51
270.0000
0
LINE
8
PARAMETRIX
10
-0.0000
20
0.0000
11
0.0000
21
10.0000
0
LINE
8
PARAMETRIX
10
-5.0000
20
15.0000
11
-5.0000
21
30.0000
0
LINE
8
PARAMETRIX
10
-5.0000
20
30.0000
11
-15.0000
21
30.0000
0
LINE
8
PARAMETRIX
10
-15.0000
20
30.0000
11
-15.0000
21
15.0000
0
LINE
8
PARAMETRIX
10
-15.0000
20
15.0000
11
-5.0000
21
15.0000
0
ARC
8
PARAMETRIX
10
-20.0000
20
30.0000
40
15.0000
50
360.0000
51
45.0000
0
LINE
8
PARAMETRIX
10
-9.3934
20
40.6066
11
-16.4645
21
33.5355
0
ARC
8
PARAMETRIX
10
-20.0000
20
30.0000
40
5.0000
50
0.0000
51
45.0000
0
LINE
8
PARAMETRIX
10
-15.0000
20
30.0000
11
-5.0000
21
30.0000
0
LINE
8
PARAMETRIX
10
-9.3934
20
40.6066
11
-30.6066
21
61.8198
0
LINE
8
PARAMETRIX
10
-30.6066
20
61.8198
11
-37.6777
21
54.7487
0
LINE
8
PARAMETRIX
10
-37.6777
20
54.7487
11
-16.4645
21
33.5355
0
LINE
8
PARAMETRIX
10
-16.4645
20
33.5355
11
-9.3934
21
40.6066
0
ARC
8
PARAMETRIX
10
-41.2132
20
51.2132
40
15.0000
50
45.0000
51
90.0000
0
LINE
8
PARAMETRIX
10
-41.2132
20
66.2132
11
-41.2132
21
56.2132
0
ARC
8
PARAMETRIX
10
-41.2132
20
51.2132
40
5.0000
50
45.0000
51
90.0000
0
LINE
8
PARAMETRIX
10
-37.6777
20
54.7487
11
-30.6066
21
61.8198
0
LINE
8
PARAMETRIX
10
-41.2132
20
66.2132
11
-121.2132
21
66.2132
0
LINE
8
PARAMETRIX
10
-121.2132
20
66.2132
11
-121.2132
21
56.2132
0
LINE
8
PARAMETRIX
10
-121.2132
20
56.2132
11
-41.2132
21
56.2132
0
LINE
8
PARAMETRIX
10
-41.2132
20
56.2132
11
-41.2132
21
66.2132
0
ARC
8
PARAMETRIX
10
-121.2132
20
71.2132
40
5.0000
50
180.0000
51
270.0000
0
LINE
8
PARAMETRIX
10
-126.2132
20
71.2132
11
-136.2132
21
71.2132
0
ARC
8
PARAMETRIX
10
-121.2132
20
71.2132
40
15.0000
50
180.0000
51
270.0000
0
LINE
8
PARAMETRIX
10
-121.2132
20
56.2132
11
-121.2132
21
66.2132
0
LINE
8
PARAMETRIX
10
-126.2132
20
71.2132
11
-126.2132
21
86.2132
0
LINE
8
PARAMETRIX
10
-126.2132
20
86.2132
11
-136.2132
21
86.2132
0
LINE
8
PARAMETRIX
10
-136.2132
20
86.2132
11
-136.2132
21
71.2132
0
LINE
8
PARAMETRIX
10
-136.2132
20
71.2132
11
-126.2132
21
71.2132
0
ENDSEC
0
EOF
