0
SECTION
2
ENTITIES
0
LINE
8
PARAMETRIX
10
-23.5000
20
0.0000
11
23.5000
21
0.0000
0
LINE
8
PARAMETRIX
10
23.5000
20
0.0000
11
31.3540
21
0.0000
0
LINE
8
PARAMETRIX
10
31.3540
20
0.0000
11
78.3540
21
-0.0000
0
LINE
8
PARAMETRIX
10
78.3540
20
-0.0000
11
86.2080
21
0.0000
0
LINE
8
PARAMETRIX
10
86.2080
20
0.0000
11
133.2080
21
-0.0000
0
LINE
8
PARAMETRIX
10
133.2080
20
-0.0000
11
141.0619
21
0.0000
0
LINE
8
PARAMETRIX
10
141.0619
20
0.0000
11
188.0619
21
-0.0000
0
LINE
8
PARAMETRIX
10
188.0619
20
-0.0000
11
195.9159
21
-0.0000
0
LINE
8
PARAMETRIX
10
195.9159
20
-0.0000
11
195.9159
21
50.0000
0
LINE
8
PARAMETRIX
10
195.9159
20
50.0000
11
188.0619
21
50.0000
0
LINE
8
PARAMETRIX
10
188.0619
20
50.0000
11
141.0619
21
50.0000
0
LINE
8
PARAMETRIX
10
141.0619
20
50.0000
11
133.2080
21
50.0000
0
LINE
8
PARAMETRIX
10
133.2080
20
50.0000
11
139.4364
21
95.9724
0
ARC
8
PARAMETRIX
10
109.7080
20
100.0000
40
30.0000
50
352.2845
51
187.7155
0
LINE
8
PARAMETRIX
10
79.9796
20
95.9724
11
86.2080
21
50.0000
0
LINE
8
PARAMETRIX
10
86.2080
20
50.0000
11
78.3540
21
50.0000
0
LINE
8
PARAMETRIX
10
78.3540
20
50.0000
11
31.3540
21
50.0000
0
LINE
8
PARAMETRIX
10
31.3540
20
50.0000
11
23.5000
21
50.0000
0
LINE
8
PARAMETRIX
10
23.5000
20
50.0000
11
29.7284
21
95.9724
0
ARC
8
PARAMETRIX
10
-0.0000
20
100.0000
40
30.0000
50
352.2845
51
187.7155
0
LINE
8
PARAMETRIX
10
-29.7284
20
95.9724
11
-23.5000
21
50.0000
0
LINE
8
PARAMETRIX
10
-23.5000
20
50.0000
11
-23.5000
21
0.0000
0
LINE
8
PARAMETRIX
10
-23.5000
20
0.0000
11
23.5000
21
0.0000
0
LINE
8
PARAMETRIX
10
23.5000
20
0.0000
11
31.3540
21
0.0000
0
LINE
8
PARAMETRIX
10
31.3540
20
0.0000
11
78.3540
21
-0.0000
0
LINE
8
PARAMETRIX
10
78.3540
20
-0.0000
11
86.2080
21
0.0000
0
LINE
8
PARAMETRIX
10
86.2080
20
0.0000
11
133.2080
21
-0.0000
0
LINE
8
PARAMETRIX
10
133.2080
20
-0.0000
11
141.0619
21
0.0000
0
LINE
8
PARAMETRIX
10
141.0619
20
0.0000
11
188.0619
21
-0.0000
0
LINE
8
PARAMETRIX
10
188.0619
20
-0.0000
11
195.9159
21
-0.0000
0
LINE
8
PARAMETRIX
10
195.9159
20
-0.0000
11
195.9159
21
50.0000
0
LINE
8
PARAMETRIX
10
195.9159
20
50.0000
11
188.0619
21
50.0000
0
LINE
8
PARAMETRIX
10
188.0619
20
50.0000
11
141.0619
21
50.0000
0
LINE
8
PARAMETRIX
10
141.0619
20
50.0000
11
133.2080
21
50.0000
0
LINE
8
PARAMETRIX
10
133.2080
20
50.0000
11
139.4364
21
95.9724
0
ARC
8
PARAMETRIX
10
109.7080
20
100.0000
40
30.0000
50
352.2845
51
187.7155
0
LINE
8
PARAMETRIX
10
79.9796
20
95.9724
11
86.2080
21
50.0000
0
LINE
8
PARAMETRIX
10
86.2080
20
50.0000
11
78.3540
21
50.0000
0
LINE
8
PARAMETRIX
10
78.3540
20
50.0000
11
31.3540
21
50.0000
0
LINE
8
PARAMETRIX
10
31.3540
20
50.0000
11
23.5000
21
50.0000
0
LINE
8
PARAMETRIX
10
23.5000
20
50.0000
11
29.7284
21
95.9724
0
ARC
8
PARAMETRIX
10
-0.0000
20
100.0000
40
30.0000
50
352.2845
51
187.7155
0
LINE
8
PARAMETRIX
10
-29.7284
20
95.9724
11
-23.5000
21
50.0000
0
LINE
8
PARAMETRIX
10
-23.5000
20
50.0000
11
-23.5000
21
0.0000
0
CIRCLE
8
PARAMETRIX
10
0.0000
20
25.0000
40
15.0000
0
CIRCLE
8
PARAMETRIX
10
0.0000
20
100.0000
40
20.0000
0
CIRCLE
8
PARAMETRIX
10
0.0000
20
65.0000
40
10.0000
0
CIRCLE
8
PARAMETRIX
10
54.8540
20
25.0000
40
15.0000
0
CIRCLE
8
PARAMETRIX
10
109.7080
20
25.0000
40
15.0000
0
CIRCLE
8
PARAMETRIX
10
109.7080
20
100.0000
40
20.0000
0
CIRCLE
8
PARAMETRIX
10
109.7080
20
65.0000
40
10.0000
0
CIRCLE
8
PARAMETRIX
10
164.5619
20
25.0000
40
15.0000
0
ARC
8
PARAMETRIX
10
30.3540
20
25.0000
40
1.0000
50
270.0000
51
90.0000
0
LINE
8
PARAMETRIX
10
30.3540
20
26.0000
11
24.5000
21
26.0000
0
ARC
8
PARAMETRIX
10
24.5000
20
25.0000
40
1.0000
50
90.0000
51
270.0000
0
LINE
8
PARAMETRIX
10
24.5000
20
24.0000
11
30.3540
21
24.0000
0
ARC
8
PARAMETRIX
10
85.2080
20
25.0000
40
1.0000
50
270.0000
51
90.0000
0
LINE
8
PARAMETRIX
10
85.2080
20
26.0000
11
79.3540
21
26.0000
0
ARC
8
PARAMETRIX
10
79.3540
20
25.0000
40
1.0000
50
90.0000
51
270.0000
0
LINE
8
PARAMETRIX
10
79.3540
20
24.0000
11
85.2080
21
24.0000
0
ARC
8
PARAMETRIX
10
140.0619
20
25.0000
40
1.0000
50
270.0000
51
90.0000
0
LINE
8
PARAMETRIX
10
140.0619
20
26.0000
11
134.2080
21
26.0000
0
ARC
8
PARAMETRIX
10
134.2080
20
25.0000
40
1.0000
50
90.0000
51
270.0000
0
LINE
8
PARAMETRIX
10
134.2080
20
24.0000
11
140.0619
21
24.0000
0
ARC
8
PARAMETRIX
10
194.9159
20
25.0000
40
1.0000
50
270.0000
51
90.0000
0
LINE
8
PARAMETRIX
10
194.9159
20
26.0000
11
189.0619
21
26.0000
0
ARC
8
PARAMETRIX
10
189.0619
20
25.0000
40
1.0000
50
90.0000
51
270.0000
0
LINE
8
PARAMETRIX
10
189.0619
20
24.0000
11
194.9159
21
24.0000
0
ENDSEC
0
EOF
