<svg width="258" height="153" viewBox="-43 -8 258 153" xmlns="http://www.w3.org/2000/svg"><path d="M -23.5000 130.0000 L 23.5000 130.0000 L 31.3540 130.0000 L 78.3540 130.0000 L 86.2080 130.0000 L 133.2080 130.0000 L 141.0619 130.0000 L 188.0619 130.0000 L 195.9159 130.0000 L 195.9159 80.0000 L 188.0619 80.0000 L 141.0619 80.0000 L 133.2080 80.0000 L 139.4364 34.0276 A 30.0000 30.0000 0 1 0 79.9796 34.0276 L 86.2080 80.0000 L 78.3540 80.0000 L 31.3540 80.0000 L 23.5000 80.0000 L 29.7284 34.0276 A 30.0000 30.0000 0 1 0 -29.7284 34.0276 L -23.5000 80.0000 L -23.5000 130.0000 Z" stroke="green" stroke-width="1" fill="none" /><path d="M -23.5000 130.0000 L 23.5000 130.0000 L 31.3540 130.0000 L 78.3540 130.0000 L 86.2080 130.0000 L 133.2080 130.0000 L 141.0619 130.0000 L 188.0619 130.0000 L 195.9159 130.0000 L 195.9159 80.0000 L 188.0619 80.0000 L 141.0619 80.0000 L 133.2080 80.0000 L 139.4364 34.0276 A 30.0000 30.0000 0 1 0 79.9796 34.0276 L 86.2080 80.0000 L 78.3540 80.0000 L 31.3540 80.0000 L 23.5000 80.0000 L 29.7284 34.0276 A 30.0000 30.0000 0 1 0 -29.7284 34.0276 L -23.5000 80.0000 L -23.5000 130.0000 Z" stroke="green" stroke-width="1" fill="none" /><circle cx="0.0000" cy="105.0000" r="15.0000" stroke="green" stroke-width="1" fill="none" /><circle cx="0.0000" cy="30.0000" r="20.0000" stroke="green" stroke-width="1" fill="none" /><circle cx="0.0000" cy="65.0000" r="10.0000" stroke="green" stroke-width="1" fill="none" /><circle cx="54.8540" cy="105.0000" r="15.0000" stroke="green" stroke-width="1" fill="none" /><circle cx="109.7080" cy="105.0000" r="15.0000" stroke="green" stroke-width="1" fill="none" /><circle cx="109.7080" cy="30.0000" r="20.0000" stroke="green" stroke-width="1" fill="none" /><circle cx="109.7080" cy="65.0000" r="10.0000" stroke="green" stroke-width="1" fill="none" /><circle cx="164.5619" cy="105.0000" r="15.0000" stroke="green" stroke-width="1" fill="none" /><path d="M 30.3540 106.0000 A 1.0000 1.0000 0 0 0 30.3540 104.0000 L 24.5000 104.0000 A 1.0000 1.0000 0 0 0 24.5000 106.0000 L 30.3540 106.0000 Z" stroke="green" stroke-width="1" fill="none" /><path d="M 85.2080 106.0000 A 1.0000 1.0000 0 0 0 85.2080 104.0000 L 79.3540 104.0000 A 1.0000 1.0000 0 0 0 79.3540 106.0000 L 85.2080 106.0000 Z" stroke="green" stroke-width="1" fill="none" /><path d="M 140.0619 106.0000 A 1.0000 1.0000 0 0 0 140.0619 104.0000 L 134.2080 104.0000 A 1.0000 1.0000 0 0 0 134.2080 106.0000 L 140.0619 106.0000 Z" stroke="green" stroke-width="1" fill="none" /><path d="M 194.9159 106.0000 A 1.0000 1.0000 0 0 0 194.9159 104.0000 L 189.0619 104.0000 A 1.0000 1.0000 0 0 0 189.0619 106.0000 L 194.9159 106.0000 Z" stroke="green" stroke-width="1" fill="none" /></svg>