0
SECTION
2
ENTITIES
0
LINE
8
PARAMETRIX
10
0.0000
20
0.0000
11
47.0000
21
0.0000
0
LINE
8
PARAMETRIX
10
47.0000
20
0.0000
11
47.0000
21
3.0000
0
LINE
8
PARAMETRIX
10
47.0000
20
3.0000
11
0.0000
21
3.0000
0
LINE
8
PARAMETRIX
10
0.0000
20
3.0000
11
0.0000
21
0.0000
0
ARC
8
PARAMETRIX
10
47.0000
20
6.5000
40
6.5000
50
270.0000
51
0.0000
0
LINE
8
PARAMETRIX
10
53.5000
20
6.5000
11
50.5000
21
6.5000
0
ARC
8
PARAMETRIX
10
47.0000
20
6.5000
40
3.5000
50
270.0000
51
360.0000
0
LINE
8
PARAMETRIX
10
47.0000
20
3.0000
11
47.0000
21
0.0000
0
LINE
8
PARAMETRIX
10
53.5000
20
6.5000
11
53.5000
21
53.5000
0
LINE
8
PARAMETRIX
10
53.5000
20
53.5000
11
50.5000
21
53.5000
0
LINE
8
PARAMETRIX
10
50.5000
20
53.5000
11
50.5000
21
6.5000
0
LINE
8
PARAMETRIX
10
50.5000
20
6.5000
11
53.5000
21
6.5000
0
ARC
8
PARAMETRIX
10
47.0000
20
53.5000
40
6.5000
50
0.0000
51
90.0000
0
LINE
8
PARAMETRIX
10
47.0000
20
60.0000
11
47.0000
21
57.0000
0
ARC
8
PARAMETRIX
10
47.0000
20
53.5000
40
3.5000
50
0.0000
51
90.0000
0
LINE
8
PARAMETRIX
10
50.5000
20
53.5000
11
53.5000
21
53.5000
0
LINE
8
PARAMETRIX
10
47.0000
20
60.0000
11
0.0000
21
60.0000
0
LINE
8
PARAMETRIX
10
0.0000
20
60.0000
11
0.0000
21
57.0000
0
LINE
8
PARAMETRIX
10
0.0000
20
57.0000
11
47.0000
21
57.0000
0
LINE
8
PARAMETRIX
10
47.0000
20
57.0000
11
47.0000
21
60.0000
0
ARC
8
PARAMETRIX
10
-0.0000
20
53.5000
40
6.5000
50
90.0000
51
180.0000
0
LINE
8
PARAMETRIX
10
-6.5000
20
53.5000
11
-3.5000
21
53.5000
0
ARC
8
PARAMETRIX
10
0.0000
20
53.5000
40
3.5000
50
90.0000
51
180.0000
0
LINE
8
PARAMETRIX
10
-0.0000
20
57.0000
11
0.0000
21
60.0000
0
LINE
8
PARAMETRIX
10
-6.5000
20
53.5000
11
-6.5000
21
6.5000
0
LINE
8
PARAMETRIX
10
-6.5000
20
6.5000
11
-3.5000
21
6.5000
0
LINE
8
PARAMETRIX
10
-3.5000
20
6.5000
11
-3.5000
21
53.5000
0
LINE
8
PARAMETRIX
10
-3.5000
20
53.5000
11
-6.5000
21
53.5000
0
ARC
8
PARAMETRIX
10
-0.0000
20
6.5000
40
6.5000
50
180.0000
51
270.0000
0
LINE
8
PARAMETRIX
10
-0.0000
20
0.0000
11
-0.0000
21
3.0000
0
ARC
8
PARAMETRIX
10
-0.0000
20
6.5000
40
3.5000
50
180.0000
51
270.0000
0
LINE
8
PARAMETRIX
10
-3.5000
20
6.5000
11
-6.5000
21
6.5000
0
ENDSEC
0
EOF
