<svg width="76" height="76" viewBox="-10 -4 76 76" xmlns="http://www.w3.org/2000/svg"><path d="M 0.0000 60.0000 L 47.0000 60.0000 L 47.0000 57.0000 L 0.0000 57.0000 L 0.0000 60.0000 Z" stroke="green" stroke-width="1" fill="none" /><path d="M 47.0000 60.0000 A 6.5000 6.5000 0 0 0 53.5000 53.5000 L 50.5000 53.5000 A 3.5000 3.5000 0 0 1 47.0000 57.0000 L 47.0000 60.0000 Z" stroke="green" stroke-width="1" fill="none" /><path d="M 53.5000 53.5000 L 53.5000 6.5000 L 50.5000 6.5000 L 50.5000 53.5000 L 53.5000 53.5000 Z" stroke="green" stroke-width="1" fill="none" /><path d="M 53.5000 6.5000 A 6.5000 6.5000 0 0 0 47.0000 0.0000 L 47.0000 3.0000 A 3.5000 3.5000 0 0 1 50.5000 6.5000 L 53.5000 6.5000 Z" stroke="green" stroke-width="1" fill="none" /><path d="M 47.0000 0.0000 L 0.0000 0.0000 L 0.0000 3.0000 L 47.0000 3.0000 L 47.0000 0.0000 Z" stroke="green" stroke-width="1" fill="none" /><path d="M 0.0000 0.0000 A 6.5000 6.5000 0 0 0 -6.5000 6.5000 L -3.5000 6.5000 A 3.5000 3.5000 0 0 1 -0.0000 3.0000 L 0.0000 0.0000 Z" stroke="green" stroke-width="1" fill="none" /><path d="M -6.5000 6.5000 L -6.5000 53.5000 L -3.5000 53.5000 L -3.5000 6.5000 L -6.5000 6.5000 Z" stroke="green" stroke-width="1" fill="none" /><path d="M -6.5000 53.5000 A 6.5000 6.5000 0 0 0 -0.0000 60.0000 L -0.0000 57.0000 A 3.5000 3.5000 0 0 1 -3.5000 53.5000 L -6.5000 53.5000 Z" stroke="green" stroke-width="1" fill="none" /></svg>