0
SECTION
2
ENTITIES
0
LINE
8
PARAMETRIX
10
0.0000
20
0.0000
11
0.0000
21
-27.9253
0
LINE
8
PARAMETRIX
10
0.0000
20
-27.9253
11
0.0000
21
-227.9253
0
LINE
8
PARAMETRIX
10
0.0000
20
-227.9253
11
200.0000
21
-227.9253
0
LINE
8
PARAMETRIX
10
200.0000
20
-227.9253
11
200.0000
21
-27.9253
0
LINE
8
PARAMETRIX
10
200.0000
20
-27.9253
11
200.0000
21
0.0000
0
LINE
8
PARAMETRIX
10
200.0000
20
0.0000
11
227.9253
21
-0.0000
0
LINE
8
PARAMETRIX
10
227.9253
20
-0.0000
11
427.9253
21
-0.0000
0
LINE
8
PARAMETRIX
10
427.9253
20
-0.0000
11
490.7571
21
-0.0000
0
LINE
8
PARAMETRIX
10
490.7571
20
-0.0000
11
690.7571
21
-0.0000
0
LINE
8
PARAMETRIX
10
690.7571
20
-0.0000
11
690.7571
21
200.0000
0
LINE
8
PARAMETRIX
10
690.7571
20
200.0000
11
490.7571
21
200.0000
0
LINE
8
PARAMETRIX
10
490.7571
20
200.0000
11
427.9253
21
200.0000
0
LINE
8
PARAMETRIX
10
427.9253
20
200.0000
11
227.9253
21
200.0000
0
LINE
8
PARAMETRIX
10
227.9253
20
200.0000
11
200.0000
21
200.0000
0
LINE
8
PARAMETRIX
10
200.0000
20
200.0000
11
200.0000
21
227.9253
0
LINE
8
PARAMETRIX
10
200.0000
20
227.9253
11
200.0000
21
427.9253
0
LINE
8
PARAMETRIX
10
200.0000
20
427.9253
11
0.0000
21
427.9253
0
LINE
8
PARAMETRIX
10
0.0000
20
427.9253
11
0.0000
21
227.9253
0
LINE
8
PARAMETRIX
10
0.0000
20
227.9253
11
0.0000
21
200.0000
0
LINE
8
PARAMETRIX
10
0.0000
20
200.0000
11
-27.9253
21
200.0000
0
LINE
8
PARAMETRIX
10
-27.9253
20
200.0000
11
-227.9253
21
200.0000
0
LINE
8
PARAMETRIX
10
-227.9253
20
200.0000
11
-227.9253
21
0.0000
0
LINE
8
PARAMETRIX
10
-227.9253
20
0.0000
11
-27.9253
21
0.0000
0
LINE
8
PARAMETRIX
10
-27.9253
20
0.0000
11
0.0000
21
0.0000
0
LINE
8
PARAMETRIX
10
0.0000
20
0.0000
11
0.0000
21
-27.9253
0
LINE
8
PARAMETRIX
10
0.0000
20
-27.9253
11
0.0000
21
-227.9253
0
LINE
8
PARAMETRIX
10
0.0000
20
-227.9253
11
200.0000
21
-227.9253
0
LINE
8
PARAMETRIX
10
200.0000
20
-227.9253
11
200.0000
21
-27.9253
0
LINE
8
PARAMETRIX
10
200.0000
20
-27.9253
11
200.0000
21
0.0000
0
LINE
8
PARAMETRIX
10
200.0000
20
0.0000
11
227.9253
21
-0.0000
0
LINE
8
PARAMETRIX
10
227.9253
20
-0.0000
11
427.9253
21
-0.0000
0
LINE
8
PARAMETRIX
10
427.9253
20
-0.0000
11
490.7571
21
-0.0000
0
LINE
8
PARAMETRIX
10
490.7571
20
-0.0000
11
690.7571
21
-0.0000
0
LINE
8
PARAMETRIX
10
690.7571
20
-0.0000
11
690.7571
21
200.0000
0
LINE
8
PARAMETRIX
10
690.7571
20
200.0000
11
490.7571
21
200.0000
0
LINE
8
PARAMETRIX
10
490.7571
20
200.0000
11
427.9253
21
200.0000
0
LINE
8
PARAMETRIX
10
427.9253
20
200.0000
11
227.9253
21
200.0000
0
LINE
8
PARAMETRIX
10
227.9253
20
200.0000
11
200.0000
21
200.0000
0
LINE
8
PARAMETRIX
10
200.0000
20
200.0000
11
200.0000
21
227.9253
0
LINE
8
PARAMETRIX
10
200.0000
20
227.9253
11
200.0000
21
427.9253
0
LINE
8
PARAMETRIX
10
200.0000
20
427.9253
11
0.0000
21
427.9253
0
LINE
8
PARAMETRIX
10
0.0000
20
427.9253
11
0.0000
21
227.9253
0
LINE
8
PARAMETRIX
10
0.0000
20
227.9253
11
0.0000
21
200.0000
0
LINE
8
PARAMETRIX
10
0.0000
20
200.0000
11
-27.9253
21
200.0000
0
LINE
8
PARAMETRIX
10
-27.9253
20
200.0000
11
-227.9253
21
200.0000
0
LINE
8
PARAMETRIX
10
-227.9253
20
200.0000
11
-227.9253
21
0.0000
0
LINE
8
PARAMETRIX
10
-227.9253
20
0.0000
11
-27.9253
21
0.0000
0
LINE
8
PARAMETRIX
10
-27.9253
20
0.0000
11
0.0000
21
0.0000
0
CIRCLE
8
PARAMETRIX
10
100.0000
20
100.0000
40
25.0000
0
CIRCLE
8
PARAMETRIX
10
294.5919
20
66.6667
40
25.0000
0
CIRCLE
8
PARAMETRIX
10
361.2586
20
133.3333
40
25.0000
0
CIRCLE
8
PARAMETRIX
10
50.0000
20
-177.9253
40
25.0000
0
CIRCLE
8
PARAMETRIX
10
100.0000
20
-127.9253
40
25.0000
0
CIRCLE
8
PARAMETRIX
10
150.0000
20
-77.9253
40
25.0000
0
CIRCLE
8
PARAMETRIX
10
50.0000
20
277.9253
40
25.0000
0
CIRCLE
8
PARAMETRIX
10
50.0000
20
377.9253
40
25.0000
0
CIRCLE
8
PARAMETRIX
10
150.0000
20
277.9253
40
25.0000
0
CIRCLE
8
PARAMETRIX
10
150.0000
20
377.9253
40
25.0000
0
CIRCLE
8
PARAMETRIX
10
-127.9253
20
100.0000
40
25.0000
0
CIRCLE
8
PARAMETRIX
10
-177.9253
20
50.0000
40
25.0000
0
CIRCLE
8
PARAMETRIX
10
-77.9253
20
50.0000
40
25.0000
0
CIRCLE
8
PARAMETRIX
10
-177.9253
20
150.0000
40
25.0000
0
CIRCLE
8
PARAMETRIX
10
-77.9253
20
150.0000
40
25.0000
0
CIRCLE
8
PARAMETRIX
10
640.7571
20
150.0000
40
25.0000
0
CIRCLE
8
PARAMETRIX
10
590.7571
20
150.0000
40
25.0000
0
CIRCLE
8
PARAMETRIX
10
540.7571
20
150.0000
40
25.0000
0
CIRCLE
8
PARAMETRIX
10
640.7571
20
50.0000
40
25.0000
0
CIRCLE
8
PARAMETRIX
10
590.7571
20
50.0000
40
25.0000
0
CIRCLE
8
PARAMETRIX
10
540.7571
20
50.0000
40
25.0000
0
ARC
8
PARAMETRIX
10
100.0000
20
-26.9253
40
1.0000
50
180.0000
51
0.0000
0
LINE
8
PARAMETRIX
10
101.0000
20
-26.9253
11
101.0000
21
-1.0000
0
ARC
8
PARAMETRIX
10
100.0000
20
-1.0000
40
1.0000
50
0.0000
51
180.0000
0
LINE
8
PARAMETRIX
10
99.0000
20
-1.0000
11
99.0000
21
-26.9253
0
ARC
8
PARAMETRIX
10
226.9253
20
100.0000
40
1.0000
50
270.0000
51
90.0000
0
LINE
8
PARAMETRIX
10
226.9253
20
101.0000
11
201.0000
21
101.0000
0
ARC
8
PARAMETRIX
10
201.0000
20
100.0000
40
1.0000
50
90.0000
51
270.0000
0
LINE
8
PARAMETRIX
10
201.0000
20
99.0000
11
226.9253
21
99.0000
0
ARC
8
PARAMETRIX
10
100.0000
20
226.9253
40
1.0000
50
0.0000
51
180.0000
0
LINE
8
PARAMETRIX
10
99.0000
20
226.9253
11
99.0000
21
201.0000
0
ARC
8
PARAMETRIX
10
100.0000
20
201.0000
40
1.0000
50
180.0000
51
0.0000
0
LINE
8
PARAMETRIX
10
101.0000
20
201.0000
11
101.0000
21
226.9253
0
ARC
8
PARAMETRIX
10
-26.9253
20
100.0000
40
1.0000
50
90.0000
51
270.0000
0
LINE
8
PARAMETRIX
10
-26.9253
20
99.0000
11
-1.0000
21
99.0000
0
ARC
8
PARAMETRIX
10
-1.0000
20
100.0000
40
1.0000
50
270.0000
51
90.0000
0
LINE
8
PARAMETRIX
10
-1.0000
20
101.0000
11
-26.9253
21
101.0000
0
ARC
8
PARAMETRIX
10
489.7571
20
100.0000
40
1.0000
50
270.0000
51
90.0000
0
LINE
8
PARAMETRIX
10
489.7571
20
101.0000
11
428.9253
21
101.0000
0
ARC
8
PARAMETRIX
10
428.9253
20
100.0000
40
1.0000
50
90.0000
51
270.0000
0
LINE
8
PARAMETRIX
10
428.9253
20
99.0000
11
489.7571
21
99.0000
0
ENDSEC
0
EOF
