<svg width="1021" height="731" viewBox="-279 -264 1021 731" xmlns="http://www.w3.org/2000/svg"><path d="M 0.0000 200.0000 L 0.0000 227.9253 L 0.0000 427.9253 L 200.0000 427.9253 L 200.0000 227.9253 L 200.0000 200.0000 L 227.9253 200.0000 L 427.9253 200.0000 L 490.7571 200.0000 L 690.7571 200.0000 L 690.7571 -0.0000 L 490.7571 -0.0000 L 427.9253 -0.0000 L 227.9253 -0.0000 L 200.0000 -0.0000 L 200.0000 -27.9253 L 200.0000 -227.9253 L 0.0000 -227.9253 L 0.0000 -27.9253 L 0.0000 -0.0000 L -27.9253 -0.0000 L -227.9253 -0.0000 L -227.9253 200.0000 L -27.9253 200.0000 L 0.0000 200.0000 Z" stroke="green" stroke-width="1" fill="none" /><path d="M 0.0000 200.0000 L 0.0000 227.9253 L 0.0000 427.9253 L 200.0000 427.9253 L 200.0000 227.9253 L 200.0000 200.0000 L 227.9253 200.0000 L 427.9253 200.0000 L 490.7571 200.0000 L 690.7571 200.0000 L 690.7571 -0.0000 L 490.7571 -0.0000 L 427.9253 -0.0000 L 227.9253 -0.0000 L 200.0000 -0.0000 L 200.0000 -27.9253 L 200.0000 -227.9253 L 0.0000 -227.9253 L 0.0000 -27.9253 L 0.0000 -0.0000 L -27.9253 -0.0000 L -227.9253 -0.0000 L -227.9253 200.0000 L -27.9253 200.0000 L 0.0000 200.0000 Z" stroke="green" stroke-width="1" fill="none" /><circle cx="100.0000" cy="100.0000" r="25.0000" stroke="green" stroke-width="1" fill="none" /><circle cx="294.5919" cy="133.3333" r="25.0000" stroke="green" stroke-width="1" fill="none" /><circle cx="361.2586" cy="66.6667" r="25.0000" stroke="green" stroke-width="1" fill="none" /><circle cx="50.0000" cy="377.9253" r="25.0000" stroke="green" stroke-width="1" fill="none" /><circle cx="100.0000" cy="327.9253" r="25.0000" stroke="green" stroke-width="1" fill="none" /><circle cx="150.0000" cy="277.9253" r="25.0000" stroke="green" stroke-width="1" fill="none" /><circle cx="50.0000" cy="-77.9253" r="25.0000" stroke="green" stroke-width="1" fill="none" /><circle cx="50.0000" cy="-177.9253" r="25.0000" stroke="green" stroke-width="1" fill="none" /><circle cx="150.0000" cy="-77.9253" r="25.0000" stroke="green" stroke-width="1" fill="none" /><circle cx="150.0000" cy="-177.9253" r="25.0000" stroke="green" stroke-width="1" fill="none" /><circle cx="-127.9253" cy="100.0000" r="25.0000" stroke="green" stroke-width="1" fill="none" /><circle cx="-177.9253" cy="150.0000" r="25.0000" stroke="green" stroke-width="1" fill="none" /><circle cx="-77.9253" cy="150.0000" r="25.0000" stroke="green" stroke-width="1" fill="none" /><circle cx="-177.9253" cy="50.0000" r="25.0000" stroke="green" stroke-width="1" fill="none" /><circle cx="-77.9253" cy="50.0000" r="25.0000" stroke="green" stroke-width="1" fill="none" /><circle cx="640.7571" cy="50.0000" r="25.0000" stroke="green" stroke-width="1" fill="none" /><circle cx="590.7571" cy="50.0000" r="25.0000" stroke="green" stroke-width="1" fill="none" /><circle cx="540.7571" cy="50.0000" r="25.0000" stroke="green" stroke-width="1" fill="none" /><circle cx="640.7571" cy="150.0000" r="25.0000" stroke="green" stroke-width="1" fill="none" /><circle cx="590.7571" cy="150.0000" r="25.0000" stroke="green" stroke-width="1" fill="none" /><circle cx="540.7571" cy="150.0000" r="25.0000" stroke="green" stroke-width="1" fill="none" /><path d="M 99.0000 226.9253 A 1.0000 1.0000 0 0 0 101.0000 226.9253 L 101.0000 201.0000 A 1.0000 1.0000 0 0 0 99.0000 201.0000 L 99.0000 226.9253 Z" stroke="green" stroke-width="1" fill="none" /><path d="M 226.9253 101.0000 A 1.0000 1.0000 0 0 0 226.9253 99.0000 L 201.0000 99.0000 A 1.0000 1.0000 0 0 0 201.0000 101.0000 L 226.9253 101.0000 Z" stroke="green" stroke-width="1" fill="none" /><path d="M 101.0000 -26.9253 A 1.0000 1.0000 0 0 0 99.0000 -26.9253 L 99.0000 -1.0000 A 1.0000 1.0000 0 0 0 101.0000 -1.0000 L 101.0000 -26.9253 Z" stroke="green" stroke-width="1" fill="none" /><path d="M -26.9253 99.0000 A 1.0000 1.0000 0 0 0 -26.9253 101.0000 L -1.0000 101.0000 A 1.0000 1.0000 0 0 0 -1.0000 99.0000 L -26.9253 99.0000 Z" stroke="green" stroke-width="1" fill="none" /><path d="M 489.7571 101.0000 A 1.0000 1.0000 0 0 0 489.7571 99.0000 L 428.9253 99.0000 A 1.0000 1.0000 0 0 0 428.9253 101.0000 L 489.7571 101.0000 Z" stroke="green" stroke-width="1" fill="none" /></svg>