<svg width="404" height="604" viewBox="-80 -30 404 604" xmlns="http://www.w3.org/2000/svg"><path d="M 0.0000 539.6358 L 200.0000 539.6358 L 200.0000 529.6358 L 0.0000 529.6358 L 0.0000 539.6358 Z" stroke="green" stroke-width="1" fill="none" /><path d="M 200.0000 539.6358 A 25.0000 25.0000 0 0 0 224.6202 518.9770 L 214.7721 517.2405 A 15.0000 15.0000 0 0 1 200.0000 529.6358 L 200.0000 539.6358 Z" stroke="green" stroke-width="1" fill="none" /><path d="M 224.6202 518.9770 L 259.3498 322.0155 L 249.5018 320.2790 L 214.7721 517.2405 L 224.6202 518.9770 Z" stroke="green" stroke-width="1" fill="none" /><path d="M 0.0000 529.6358 A 15.0000 15.0000 0 0 1 -14.7721 517.2405 L -24.6202 518.9770 A 25.0000 25.0000 0 0 0 -0.0000 539.6358 L 0.0000 529.6358 Z" stroke="green" stroke-width="1" fill="none" /><path d="M -14.7721 517.2405 L -49.5018 320.2790 L -59.3498 322.0155 L -24.6202 518.9770 L -14.7721 517.2405 Z" stroke="green" stroke-width="1" fill="none" /><path d="M 0.0000 239.6358 L 200.0000 239.6358 L 200.0000 229.6358 L 0.0000 229.6358 L 0.0000 239.6358 Z" stroke="green" stroke-width="1" fill="none" /><path d="M 200.0000 239.6358 A 25.0000 25.0000 0 0 0 224.6202 218.9770 L 214.7721 217.2405 A 15.0000 15.0000 0 0 1 200.0000 229.6358 L 200.0000 239.6358 Z" stroke="green" stroke-width="1" fill="none" /><path d="M 224.6202 218.9770 L 259.3498 22.0155 L 249.5018 20.2790 L 214.7721 217.2405 L 224.6202 218.9770 Z" stroke="green" stroke-width="1" fill="none" /><path d="M 259.3498 22.0155 A 15.0000 15.0000 0 1 1 288.8941 27.2249 L 298.7421 28.9614 A 25.0000 25.0000 0 1 0 249.5018 20.2790 L 259.3498 22.0155 Z" stroke="green" stroke-width="1" fill="none" /><path d="M 288.8941 27.2249 L 254.1644 224.1865 L 264.0125 225.9229 L 298.7421 28.9614 L 288.8941 27.2249 Z" stroke="green" stroke-width="1" fill="none" /><path d="M 0.0000 229.6358 A 15.0000 15.0000 0 0 1 -14.7721 217.2405 L -24.6202 218.9770 A 25.0000 25.0000 0 0 0 -0.0000 239.6358 L 0.0000 229.6358 Z" stroke="green" stroke-width="1" fill="none" /><path d="M -14.7721 217.2405 L -49.5018 20.2790 L -59.3498 22.0155 L -24.6202 218.9770 L -14.7721 217.2405 Z" stroke="green" stroke-width="1" fill="none" /></svg>