0
SECTION
2
ENTITIES
0
LINE
8
PARAMETRIX
10
0.0000
20
0.0000
11
200.0000
21
0.0000
0
LINE
8
PARAMETRIX
10
200.0000
20
0.0000
11
200.0000
21
10.0000
0
LINE
8
PARAMETRIX
10
200.0000
20
10.0000
11
0.0000
21
10.0000
0
LINE
8
PARAMETRIX
10
0.0000
20
10.0000
11
0.0000
21
0.0000
0
ARC
8
PARAMETRIX
10
200.0000
20
25.0000
40
25.0000
50
270.0000
51
350.0000
0
LINE
8
PARAMETRIX
10
224.6202
20
20.6588
11
214.7721
21
22.3953
0
ARC
8
PARAMETRIX
10
200.0000
20
25.0000
40
15.0000
50
270.0000
51
350.0000
0
LINE
8
PARAMETRIX
10
200.0000
20
10.0000
11
200.0000
21
0.0000
0
LINE
8
PARAMETRIX
10
224.6202
20
20.6588
11
259.3498
21
217.6203
0
LINE
8
PARAMETRIX
10
259.3498
20
217.6203
11
249.5018
21
219.3568
0
LINE
8
PARAMETRIX
10
249.5018
20
219.3568
11
214.7721
21
22.3953
0
LINE
8
PARAMETRIX
10
214.7721
20
22.3953
11
224.6202
21
20.6588
0
ARC
8
PARAMETRIX
10
0.0000
20
25.0000
40
15.0000
50
190.0000
51
270.0000
0
LINE
8
PARAMETRIX
10
-14.7721
20
22.3953
11
-24.6202
21
20.6588
0
ARC
8
PARAMETRIX
10
-0.0000
20
25.0000
40
25.0000
50
190.0000
51
270.0000
0
LINE
8
PARAMETRIX
10
-0.0000
20
0.0000
11
0.0000
21
10.0000
0
LINE
8
PARAMETRIX
10
-14.7721
20
22.3953
11
-49.5018
21
219.3568
0
LINE
8
PARAMETRIX
10
-49.5018
20
219.3568
11
-59.3498
21
217.6203
0
LINE
8
PARAMETRIX
10
-59.3498
20
217.6203
11
-24.6202
21
20.6588
0
LINE
8
PARAMETRIX
10
-24.6202
20
20.6588
11
-14.7721
21
22.3953
0
LINE
8
PARAMETRIX
10
0.0000
20
300.0000
11
200.0000
21
300.0000
0
LINE
8
PARAMETRIX
10
200.0000
20
300.0000
11
200.0000
21
310.0000
0
LINE
8
PARAMETRIX
10
200.0000
20
310.0000
11
0.0000
21
310.0000
0
LINE
8
PARAMETRIX
10
0.0000
20
310.0000
11
0.0000
21
300.0000
0
ARC
8
PARAMETRIX
10
200.0000
20
325.0000
40
25.0000
50
270.0000
51
350.0000
0
LINE
8
PARAMETRIX
10
224.6202
20
320.6588
11
214.7721
21
322.3953
0
ARC
8
PARAMETRIX
10
200.0000
20
325.0000
40
15.0000
50
270.0000
51
350.0000
0
LINE
8
PARAMETRIX
10
200.0000
20
310.0000
11
200.0000
21
300.0000
0
LINE
8
PARAMETRIX
10
224.6202
20
320.6588
11
259.3498
21
517.6203
0
LINE
8
PARAMETRIX
10
259.3498
20
517.6203
11
249.5018
21
519.3568
0
LINE
8
PARAMETRIX
10
249.5018
20
519.3568
11
214.7721
21
322.3953
0
LINE
8
PARAMETRIX
10
214.7721
20
322.3953
11
224.6202
21
320.6588
0
ARC
8
PARAMETRIX
10
274.1219
20
515.0156
40
15.0000
50
350.0000
51
170.0000
0
LINE
8
PARAMETRIX
10
288.8941
20
512.4109
11
298.7421
21
510.6744
0
ARC
8
PARAMETRIX
10
274.1219
20
515.0156
40
25.0000
50
350.0000
51
170.0000
0
LINE
8
PARAMETRIX
10
249.5018
20
519.3568
11
259.3498
21
517.6203
0
LINE
8
PARAMETRIX
10
288.8941
20
512.4109
11
254.1644
21
315.4494
0
LINE
8
PARAMETRIX
10
254.1644
20
315.4494
11
264.0125
21
313.7129
0
LINE
8
PARAMETRIX
10
264.0125
20
313.7129
11
298.7421
21
510.6744
0
LINE
8
PARAMETRIX
10
298.7421
20
510.6744
11
288.8941
21
512.4109
0
ARC
8
PARAMETRIX
10
0.0000
20
325.0000
40
15.0000
50
190.0000
51
270.0000
0
LINE
8
PARAMETRIX
10
-14.7721
20
322.3953
11
-24.6202
21
320.6588
0
ARC
8
PARAMETRIX
10
-0.0000
20
325.0000
40
25.0000
50
190.0000
51
270.0000
0
LINE
8
PARAMETRIX
10
-0.0000
20
300.0000
11
0.0000
21
310.0000
0
LINE
8
PARAMETRIX
10
-14.7721
20
322.3953
11
-49.5018
21
519.3568
0
LINE
8
PARAMETRIX
10
-49.5018
20
519.3568
11
-59.3498
21
517.6203
0
LINE
8
PARAMETRIX
10
-59.3498
20
517.6203
11
-24.6202
21
320.6588
0
LINE
8
PARAMETRIX
10
-24.6202
20
320.6588
11
-14.7721
21
322.3953
0
ENDSEC
0
EOF
