solid OpenSCAD_Model
  facet normal 0 0 -1
    outer loop
      vertex 0 0 0
      vertex 200 100 0
      vertex 200 0 0
    endloop
  endfacet
  facet normal -0 0 -1
    outer loop
      vertex 200 100 0
      vertex 0 0 0
      vertex 0 100 0
    endloop
  endfacet
  facet normal 0 -1 0
    outer loop
      vertex 200 0 0
      vertex 200 0 10
      vertex 0 0 10
    endloop
  endfacet
  facet normal -0 -1 0
    outer loop
      vertex 201.868 0 0.0698853
      vertex 200 0 10
      vertex 200 0 0
    endloop
  endfacet
  facet normal 0 -1 0
    outer loop
      vertex 200 0 10
      vertex 218.326 0 7.9957
      vertex 219.546 0 9.4128
    endloop
  endfacet
  facet normal 0 -1 0
    outer loop
      vertex 200 0 10
      vertex 217.004 0 6.67369
      vertex 218.326 0 7.9957
    endloop
  endfacet
  facet normal 0 -1 0
    outer loop
      vertex 200 0 10
      vertex 215.587 0 5.45419
      vertex 217.004 0 6.67369
    endloop
  endfacet
  facet normal 0 -1 0
    outer loop
      vertex 200 0 10
      vertex 214.083 0 4.34399
      vertex 215.587 0 5.45419
    endloop
  endfacet
  facet normal 0 -1 0
    outer loop
      vertex 200 0 10
      vertex 212.5 0 3.3494
      vertex 214.083 0 4.34399
    endloop
  endfacet
  facet normal 0 -1 0
    outer loop
      vertex 200 0 10
      vertex 210.847 0 2.4758
      vertex 212.5 0 3.3494
    endloop
  endfacet
  facet normal 0 -1 0
    outer loop
      vertex 200 0 10
      vertex 209.133 0 1.7282
      vertex 210.847 0 2.4758
    endloop
  endfacet
  facet normal 0 -1 0
    outer loop
      vertex 200 0 10
      vertex 207.369 0 1.11069
      vertex 209.133 0 1.7282
    endloop
  endfacet
  facet normal 0 -1 0
    outer loop
      vertex 200 0 10
      vertex 205.563 0 0.626785
      vertex 207.369 0 1.11069
    endloop
  endfacet
  facet normal 0 -1 0
    outer loop
      vertex 200 0 10
      vertex 203.726 0 0.27919
      vertex 205.563 0 0.626785
    endloop
  endfacet
  facet normal 0 -1 0
    outer loop
      vertex 200 0 0
      vertex 0 0 10
      vertex 0 0 0
    endloop
  endfacet
  facet normal 0 -1 0
    outer loop
      vertex 200 0 10
      vertex 201.868 0 0.0698853
      vertex 203.726 0 0.27919
    endloop
  endfacet
  facet normal 0 -1 0
    outer loop
      vertex 211.9 0 15.8686
      vertex 214.093 0 16.8636
      vertex 212.99 0 17.5
    endloop
  endfacet
  facet normal 0 -1 0
    outer loop
      vertex 210.607 0 14.3934
      vertex 214.093 0 16.8636
      vertex 211.9 0 15.8686
    endloop
  endfacet
  facet normal 0 -1 0
    outer loop
      vertex 219.546 0 9.4128
      vertex 210.607 0 14.3934
      vertex 209.131 0 13.0997
    endloop
  endfacet
  facet normal 0 -1 0
    outer loop
      vertex 210.607 0 14.3934
      vertex 219.546 0 9.4128
      vertex 214.093 0 16.8636
    endloop
  endfacet
  facet normal 0 -1 0
    outer loop
      vertex 219.546 0 9.4128
      vertex 209.131 0 13.0997
      vertex 207.5 0 12.0096
    endloop
  endfacet
  facet normal 0 -1 0
    outer loop
      vertex 219.546 0 9.4128
      vertex 207.5 0 12.0096
      vertex 205.74 0 11.1418
    endloop
  endfacet
  facet normal 0 -1 0
    outer loop
      vertex 214.093 0 16.8636
      vertex 220.656 0 10.917
      vertex 221.651 0 12.5
    endloop
  endfacet
  facet normal 0 -1 0
    outer loop
      vertex 219.546 0 9.4128
      vertex 205.74 0 11.1418
      vertex 203.882 0 10.5111
    endloop
  endfacet
  facet normal 0 -1 0
    outer loop
      vertex 219.546 0 9.4128
      vertex 203.882 0 10.5111
      vertex 201.958 0 10.1283
    endloop
  endfacet
  facet normal 0 -1 0
    outer loop
      vertex 219.546 0 9.4128
      vertex 201.958 0 10.1283
      vertex 200 0 10
    endloop
  endfacet
  facet normal 0 -1 0
    outer loop
      vertex 214.093 0 16.8636
      vertex 219.546 0 9.4128
      vertex 220.656 0 10.917
    endloop
  endfacet
  facet normal -0 0 1
    outer loop
      vertex 0 100 10
      vertex 200 0 10
      vertex 200 100 10
    endloop
  endfacet
  facet normal 0 0 1
    outer loop
      vertex 200 0 10
      vertex 0 100 10
      vertex 0 0 10
    endloop
  endfacet
  facet normal -1 0 0
    outer loop
      vertex 0 0 0
      vertex 0 100 10
      vertex 0 100 0
    endloop
  endfacet
  facet normal -1 -0 0
    outer loop
      vertex 0 100 10
      vertex 0 0 0
      vertex 0 0 10
    endloop
  endfacet
  facet normal 0 1 0
    outer loop
      vertex 214.365 100 16.7062
      vertex 211.9 100 15.8686
      vertex 212.99 100 17.5
    endloop
  endfacet
  facet normal 0 1 0
    outer loop
      vertex 214.365 100 16.7062
      vertex 210.607 100 14.3934
      vertex 211.9 100 15.8686
    endloop
  endfacet
  facet normal 0 1 0
    outer loop
      vertex 218.326 100 7.9957
      vertex 210.607 100 14.3934
      vertex 214.365 100 16.7062
    endloop
  endfacet
  facet normal 0 1 -0
    outer loop
      vertex 220.656 100 10.917
      vertex 214.365 100 16.7062
      vertex 221.651 100 12.5
    endloop
  endfacet
  facet normal 0 1 -0
    outer loop
      vertex 219.546 100 9.4128
      vertex 214.365 100 16.7062
      vertex 220.656 100 10.917
    endloop
  endfacet
  facet normal 0 1 -0
    outer loop
      vertex 218.326 100 7.9957
      vertex 214.365 100 16.7062
      vertex 219.546 100 9.4128
    endloop
  endfacet
  facet normal 0 1 -0
    outer loop
      vertex 217.004 100 6.67369
      vertex 210.607 100 14.3934
      vertex 218.326 100 7.9957
    endloop
  endfacet
  facet normal 0 1 0
    outer loop
      vertex 210.607 100 14.3934
      vertex 217.004 100 6.67369
      vertex 209.131 100 13.0997
    endloop
  endfacet
  facet normal 0 1 -0
    outer loop
      vertex 215.587 100 5.45419
      vertex 209.131 100 13.0997
      vertex 217.004 100 6.67369
    endloop
  endfacet
  facet normal 0 1 -0
    outer loop
      vertex 214.083 100 4.34399
      vertex 209.131 100 13.0997
      vertex 215.587 100 5.45419
    endloop
  endfacet
  facet normal 0 1 0
    outer loop
      vertex 209.131 100 13.0997
      vertex 214.083 100 4.34399
      vertex 207.5 100 12.0096
    endloop
  endfacet
  facet normal 0 1 -0
    outer loop
      vertex 212.5 100 3.3494
      vertex 207.5 100 12.0096
      vertex 214.083 100 4.34399
    endloop
  endfacet
  facet normal 0 1 -0
    outer loop
      vertex 210.847 100 2.4758
      vertex 207.5 100 12.0096
      vertex 212.5 100 3.3494
    endloop
  endfacet
  facet normal 0 1 0
    outer loop
      vertex 207.5 100 12.0096
      vertex 210.847 100 2.4758
      vertex 205.74 100 11.1418
    endloop
  endfacet
  facet normal 0 1 -0
    outer loop
      vertex 209.133 100 1.7282
      vertex 205.74 100 11.1418
      vertex 210.847 100 2.4758
    endloop
  endfacet
  facet normal 0 1 -0
    outer loop
      vertex 207.369 100 1.11069
      vertex 205.74 100 11.1418
      vertex 209.133 100 1.7282
    endloop
  endfacet
  facet normal 0 1 0
    outer loop
      vertex 205.74 100 11.1418
      vertex 207.369 100 1.11069
      vertex 203.882 100 10.5111
    endloop
  endfacet
  facet normal 0 1 -0
    outer loop
      vertex 205.563 100 0.626785
      vertex 203.882 100 10.5111
      vertex 207.369 100 1.11069
    endloop
  endfacet
  facet normal 0 1 0
    outer loop
      vertex 203.882 100 10.5111
      vertex 205.563 100 0.626785
      vertex 201.958 100 10.1283
    endloop
  endfacet
  facet normal 0 1 -0
    outer loop
      vertex 203.726 100 0.27919
      vertex 201.958 100 10.1283
      vertex 205.563 100 0.626785
    endloop
  endfacet
  facet normal 0 1 0
    outer loop
      vertex 201.868 100 0.0698853
      vertex 201.958 100 10.1283
      vertex 203.726 100 0.27919
    endloop
  endfacet
  facet normal 0 1 0
    outer loop
      vertex 201.958 100 10.1283
      vertex 201.868 100 0.0698853
      vertex 200 100 10
    endloop
  endfacet
  facet normal 0 1 0
    outer loop
      vertex 200 100 10
      vertex 201.868 100 0.0698853
      vertex 200 100 0
    endloop
  endfacet
  facet normal 0 1 0
    outer loop
      vertex 200 100 10
      vertex 200 100 0
      vertex 0 100 10
    endloop
  endfacet
  facet normal 0 1 0
    outer loop
      vertex 0 100 10
      vertex 200 100 0
      vertex 0 100 0
    endloop
  endfacet
  facet normal 0.866027 -3.78885e-07 -0.499997
    outer loop
      vertex 221.651 0 12.5
      vertex 222.405 99.1294 13.8059
      vertex 264.952 50 87.5
    endloop
  endfacet
  facet normal 0.866014 0 -0.500019
    outer loop
      vertex 222.405 99.1294 13.8059
      vertex 221.651 0 12.5
      vertex 221.651 100 12.5
    endloop
  endfacet
  facet normal 0.249875 -0.866026 0.433083
    outer loop
      vertex 214.093 0 16.8636
      vertex 256.292 50 92.5
      vertex 212.99 1.92712e-06 17.5
    endloop
  endfacet
  facet normal 0.250006 -0.866025 0.43301
    outer loop
      vertex 256.292 50 92.5
      vertex 214.093 0 16.8636
      vertex 264.952 50 87.5
    endloop
  endfacet
  facet normal 0.25 -0.866025 0.433014
    outer loop
      vertex 264.952 50 87.5
      vertex 214.093 0 16.8636
      vertex 221.651 0 12.5
    endloop
  endfacet
  facet normal 0.866022 0 -0.500006
    outer loop
      vertex 212.99 1.92712e-06 17.5
      vertex 256.292 50 92.5
      vertex 212.99 0 17.5
    endloop
  endfacet
  facet normal -0.866022 0 0.500006
    outer loop
      vertex 212.99 100 17.5
      vertex 212.99 0 17.5
      vertex 256.292 50 92.5
    endloop
  endfacet
  facet normal -0.499999 0 -0.866026
    outer loop
      vertex 214.093 0 16.8636
      vertex 221.651 100 12.5
      vertex 221.651 0 12.5
    endloop
  endfacet
  facet normal -0.499999 0 -0.866026
    outer loop
      vertex 221.651 100 12.5
      vertex 214.093 0 16.8636
      vertex 214.093 100 16.8636
    endloop
  endfacet
  facet normal -0.249981 -0.866028 -0.433018
    outer loop
      vertex 222.405 99.1294 13.8059
      vertex 213.744 99.1294 18.8059
      vertex 212.99 100 17.5
    endloop
  endfacet
  facet normal 0.250005 0.866026 0.433008
    outer loop
      vertex 212.99 100 17.5
      vertex 256.292 50 92.5
      vertex 264.952 50 87.5
    endloop
  endfacet
  facet normal 0.249983 0.866025 0.433023
    outer loop
      vertex 212.99 100 17.5
      vertex 264.952 50 87.5
      vertex 222.405 99.1294 13.8059
    endloop
  endfacet
  facet normal 0.64952 0.749999 0.125001
    outer loop
      vertex 216.238 118.75 28.125
      vertex 183.762 131.25 121.875
      vertex 259.539 68.75 103.125
    endloop
  endfacet
  facet normal -0.64952 -0.749999 -0.125001
    outer loop
      vertex 253.044 61.25 101.875
      vertex 177.267 123.75 120.625
      vertex 209.743 111.25 26.875
    endloop
  endfacet
  facet normal 0.625002 -0.433063 -0.649484
    outer loop
      vertex 248.322 68.6275 92.4125
      vertex 259.539 68.75 103.125
      vertex 253.878 62.2132 102.036
    endloop
  endfacet
  facet normal 0.625028 -0.432982 -0.649512
    outer loop
      vertex 259.539 68.75 103.125
      vertex 248.322 68.6275 92.4125
      vertex 216.238 118.75 28.125
    endloop
  endfacet
  facet normal 0.0625342 -0.216467 0.974285
    outer loop
      vertex 183.762 131.25 121.875
      vertex 253.878 62.2132 102.036
      vertex 259.539 68.75 103.125
    endloop
  endfacet
  facet normal 0.0622487 -0.216745 0.974242
    outer loop
      vertex 253.878 62.2132 102.036
      vertex 183.762 131.25 121.875
      vertex 253.044 61.25 101.875
    endloop
  endfacet
  facet normal 0.0625009 -0.216506 0.974279
    outer loop
      vertex 183.762 131.25 121.875
      vertex 177.267 123.75 120.625
      vertex 253.044 61.25 101.875
    endloop
  endfacet
  facet normal 0.624964 -0.433047 -0.649531
    outer loop
      vertex 215.203 106.59 35.2363
      vertex 216.238 118.75 28.125
      vertex 248.322 68.6275 92.4125
    endloop
  endfacet
  facet normal 0.625035 -0.433022 -0.649479
    outer loop
      vertex 216.238 118.75 28.125
      vertex 215.203 106.59 35.2363
      vertex 210.422 112.034 27.0056
    endloop
  endfacet
  facet normal -0.687508 0.649509 -0.324761
    outer loop
      vertex 216.238 118.75 28.125
      vertex 177.267 123.75 120.625
      vertex 183.762 131.25 121.875
    endloop
  endfacet
  facet normal -0.68751 0.649508 -0.324762
    outer loop
      vertex 210.422 112.034 27.0056
      vertex 177.267 123.75 120.625
      vertex 216.238 118.75 28.125
    endloop
  endfacet
  facet normal -0.687498 0.649521 -0.324759
    outer loop
      vertex 209.743 111.25 26.875
      vertex 177.267 123.75 120.625
      vertex 210.422 112.034 27.0056
    endloop
  endfacet
  facet normal 0.37889 0.187503 0.906248
    outer loop
      vertex 176.996 117.188 141.406
      vertex 168.877 20.3125 164.844
      vertex 252.773 54.6875 122.656
    endloop
  endfacet
  facet normal -0.37888 -0.187498 -0.906253
    outer loop
      vertex 248.985 52.8125 113.594
      vertex 165.088 18.4375 155.781
      vertex 173.207 115.312 132.344
    endloop
  endfacet
  facet normal 0.390623 -0.920153 0.0270567
    outer loop
      vertex 165.088 18.4375 155.781
      vertex 252.773 54.6875 122.656
      vertex 168.877 20.3125 164.844
    endloop
  endfacet
  facet normal 0.390632 -0.920148 0.0270847
    outer loop
      vertex 165.088 18.4375 155.781
      vertex 249.487 53.0611 114.795
      vertex 252.773 54.6875 122.656
    endloop
  endfacet
  facet normal 0.390666 -0.920131 0.0271693
    outer loop
      vertex 165.088 18.4375 155.781
      vertex 248.985 52.8125 113.594
      vertex 249.487 53.0611 114.795
    endloop
  endfacet
  facet normal 0.531267 0.757776 -0.378856
    outer loop
      vertex 249.487 53.0611 114.795
      vertex 176.996 117.188 141.406
      vertex 252.773 54.6875 122.656
    endloop
  endfacet
  facet normal 0.531243 0.757769 -0.378903
    outer loop
      vertex 176.996 117.188 141.406
      vertex 249.487 53.0611 114.795
      vertex 173.71 115.561 133.545
    endloop
  endfacet
  facet normal -0.0322917 -0.322917 0.945876
    outer loop
      vertex 248.984 52.8126 113.594
      vertex 248.985 52.8125 113.594
      vertex 173.207 115.312 132.344
    endloop
  endfacet
  facet normal -0.404604 0.914271 -0.0200978
    outer loop
      vertex 173.207 115.312 132.344
      vertex 176.996 117.188 141.406
      vertex 173.71 115.561 133.545
    endloop
  endfacet
  facet normal -0.922371 0 0.386305
    outer loop
      vertex 173.207 115.313 132.344
      vertex 173.207 115.312 132.344
      vertex 173.71 115.561 133.545
    endloop
  endfacet
  facet normal 0.921864 -0.162384 -0.351849
    outer loop
      vertex 173.207 115.312 132.344
      vertex 173.552 115.483 133.169
      vertex 165.088 18.4375 155.781
    endloop
  endfacet
  facet normal 0.92187 -0.162381 -0.351834
    outer loop
      vertex 176.996 117.188 141.406
      vertex 165.088 18.4375 155.781
      vertex 173.552 115.483 133.169
    endloop
  endfacet
  facet normal -0.921877 0.16238 0.351818
    outer loop
      vertex 176.996 117.188 141.406
      vertex 165.088 18.4375 155.781
      vertex 168.877 20.3125 164.844
    endloop
  endfacet
  facet normal -0.914843 0.22366 0.336212
    outer loop
      vertex 176.996 117.188 141.406
      vertex 173.552 115.483 133.169
      vertex 173.207 115.312 132.344
    endloop
  endfacet
  facet normal -0.92187 0.162382 0.351836
    outer loop
      vertex 173.207 115.312 132.344
      vertex 165.088 18.4375 155.781
      vertex 176.996 117.188 141.406
    endloop
  endfacet
  facet normal -0.92187 0.162382 0.351836
    outer loop
      vertex 173.207 115.312 132.344
      vertex 165.088 18.4375 155.781
      vertex 176.996 117.188 141.406
    endloop
  endfacet
  facet normal -0.608922 0.23438 0.757813
    outer loop
      vertex 73.3947 110.24 76.8029
      vertex 144.182 21.4844 161.133
      vertex 152.301 118.359 137.695
    endloop
  endfacet
  facet normal -0.608928 0.234373 0.75781
    outer loop
      vertex 144.182 21.4844 161.133
      vertex 73.3947 110.24 76.8029
      vertex 65.2757 13.3654 100.24
    endloop
  endfacet
  facet normal -0.78906 -0.0811888 -0.608928
    outer loop
      vertex 79.4839 107.897 69.2248
      vertex 65.2757 13.3654 100.24
      vertex 73.3947 110.24 76.8029
    endloop
  endfacet
  facet normal -0.789049 -0.0811947 -0.608941
    outer loop
      vertex 65.2757 13.3654 100.24
      vertex 79.4839 107.897 69.2248
      vertex 71.3649 11.0216 92.6623
    endloop
  endfacet
  facet normal -0.0811934 -0.968749 0.234379
    outer loop
      vertex 71.3649 11.0216 92.6623
      vertex 149.623 19.3902 154.362
      vertex 144.182 21.4844 161.133
    endloop
  endfacet
  facet normal -0.0812001 -0.968747 0.234386
    outer loop
      vertex 71.3649 11.0216 92.6623
      vertex 144.182 21.4844 161.133
      vertex 65.2757 13.3654 100.24
    endloop
  endfacet
  facet normal -0.0812181 -0.968739 0.234409
    outer loop
      vertex 149.623 19.3902 154.362
      vertex 71.3649 11.0216 92.6623
      vertex 150.271 19.1406 153.555
    endloop
  endfacet
  facet normal 0.608923 -0.234378 -0.757812
    outer loop
      vertex 150.271 19.1406 153.555
      vertex 79.4839 107.897 69.2248
      vertex 158.39 116.016 130.117
    endloop
  endfacet
  facet normal 0.608927 -0.234374 -0.757811
    outer loop
      vertex 79.4839 107.897 69.2248
      vertex 150.271 19.1406 153.555
      vertex 71.3649 11.0216 92.6623
    endloop
  endfacet
  facet normal 0.789046 0.0811997 0.608945
    outer loop
      vertex 144.182 21.4844 161.133
      vertex 157.742 116.265 130.924
      vertex 152.301 118.359 137.695
    endloop
  endfacet
  facet normal 0.789047 0.0811991 0.608943
    outer loop
      vertex 157.742 116.265 130.924
      vertex 144.182 21.4844 161.133
      vertex 149.623 19.3902 154.362
    endloop
  endfacet
  facet normal 0.70561 0.596467 0.382546
    outer loop
      vertex 157.742 116.265 130.924
      vertex 158.39 116.016 130.117
      vertex 152.301 118.359 137.695
    endloop
  endfacet
  facet normal 0.0811482 0.968766 -0.234324
    outer loop
      vertex 79.4839 107.897 69.2248
      vertex 152.301 118.359 137.695
      vertex 158.39 116.016 130.117
    endloop
  endfacet
  facet normal 0.0811455 0.968767 -0.234321
    outer loop
      vertex 152.301 118.359 137.695
      vertex 79.4839 107.897 69.2248
      vertex 73.3947 110.24 76.8029
    endloop
  endfacet
  facet normal 0.111942 0 -0.993715
    outer loop
      vertex 201.868 0 0.0698853
      vertex 203.726 100 0.27919
      vertex 203.726 0 0.27919
    endloop
  endfacet
  facet normal 0.111942 0 -0.993715
    outer loop
      vertex 203.726 100 0.27919
      vertex 201.868 0 0.0698853
      vertex 201.868 100 0.0698853
    endloop
  endfacet
  facet normal 0.18592 0 -0.982565
    outer loop
      vertex 203.726 0 0.27919
      vertex 205.563 100 0.626785
      vertex 205.563 0 0.626785
    endloop
  endfacet
  facet normal 0.18592 0 -0.982565
    outer loop
      vertex 205.563 100 0.626785
      vertex 203.726 0 0.27919
      vertex 203.726 100 0.27919
    endloop
  endfacet
  facet normal 0.258813 0 -0.965927
    outer loop
      vertex 205.563 0 0.626785
      vertex 207.369 100 1.11069
      vertex 207.369 0 1.11069
    endloop
  endfacet
  facet normal 0.258813 0 -0.965927
    outer loop
      vertex 207.369 100 1.11069
      vertex 205.563 0 0.626785
      vertex 205.563 100 0.626785
    endloop
  endfacet
  facet normal 0.330403 0 -0.94384
    outer loop
      vertex 207.369 0 1.11069
      vertex 209.133 100 1.7282
      vertex 209.133 0 1.7282
    endloop
  endfacet
  facet normal 0.330403 0 -0.94384
    outer loop
      vertex 209.133 100 1.7282
      vertex 207.369 0 1.11069
      vertex 207.369 100 1.11069
    endloop
  endfacet
  facet normal 0.399797 0 -0.916604
    outer loop
      vertex 209.133 0 1.7282
      vertex 210.847 100 2.4758
      vertex 210.847 0 2.4758
    endloop
  endfacet
  facet normal 0.399797 0 -0.916604
    outer loop
      vertex 210.847 100 2.4758
      vertex 209.133 0 1.7282
      vertex 209.133 100 1.7282
    endloop
  endfacet
  facet normal 0.467254 0 -0.884123
    outer loop
      vertex 210.847 0 2.4758
      vertex 212.5 100 3.3494
      vertex 212.5 0 3.3494
    endloop
  endfacet
  facet normal 0.467254 0 -0.884123
    outer loop
      vertex 212.5 100 3.3494
      vertex 210.847 0 2.4758
      vertex 210.847 100 2.4758
    endloop
  endfacet
  facet normal 0.532003 0 -0.846742
    outer loop
      vertex 212.5 0 3.3494
      vertex 214.083 100 4.34399
      vertex 214.083 0 4.34399
    endloop
  endfacet
  facet normal 0.532003 0 -0.846742
    outer loop
      vertex 214.083 100 4.34399
      vertex 212.5 0 3.3494
      vertex 212.5 100 3.3494
    endloop
  endfacet
  facet normal 0.593889 0 -0.804547
    outer loop
      vertex 214.083 0 4.34399
      vertex 215.587 100 5.45419
      vertex 215.587 0 5.45419
    endloop
  endfacet
  facet normal 0.593889 0 -0.804547
    outer loop
      vertex 215.587 100 5.45419
      vertex 214.083 0 4.34399
      vertex 214.083 100 4.34399
    endloop
  endfacet
  facet normal 0.65231 0 -0.757952
    outer loop
      vertex 215.587 0 5.45419
      vertex 217.004 100 6.67369
      vertex 217.004 0 6.67369
    endloop
  endfacet
  facet normal 0.65231 0 -0.757952
    outer loop
      vertex 217.004 100 6.67369
      vertex 215.587 0 5.45419
      vertex 215.587 100 5.45419
    endloop
  endfacet
  facet normal 0.707109 0 -0.707104
    outer loop
      vertex 218.326 0 7.9957
      vertex 217.004 100 6.67369
      vertex 218.326 100 7.9957
    endloop
  endfacet
  facet normal 0.707109 0 -0.707104
    outer loop
      vertex 217.004 100 6.67369
      vertex 218.326 0 7.9957
      vertex 217.004 0 6.67369
    endloop
  endfacet
  facet normal 0.757843 0 -0.652437
    outer loop
      vertex 219.546 0 9.4128
      vertex 218.326 100 7.9957
      vertex 219.546 100 9.4128
    endloop
  endfacet
  facet normal 0.757843 0 -0.652437
    outer loop
      vertex 218.326 100 7.9957
      vertex 219.546 0 9.4128
      vertex 218.326 0 7.9957
    endloop
  endfacet
  facet normal 0.804636 0 -0.593768
    outer loop
      vertex 220.656 0 10.917
      vertex 219.546 100 9.4128
      vertex 220.656 100 10.917
    endloop
  endfacet
  facet normal 0.804636 0 -0.593768
    outer loop
      vertex 219.546 100 9.4128
      vertex 220.656 0 10.917
      vertex 219.546 0 9.4128
    endloop
  endfacet
  facet normal 0.846643 0 -0.532161
    outer loop
      vertex 221.651 0 12.5
      vertex 220.656 100 10.917
      vertex 221.651 100 12.5
    endloop
  endfacet
  facet normal 0.846643 0 -0.532161
    outer loop
      vertex 220.656 100 10.917
      vertex 221.651 0 12.5
      vertex 220.656 0 10.917
    endloop
  endfacet
  facet normal 0.499967 0 0.866045
    outer loop
      vertex 214.365 100 16.7062
      vertex 221.651 0 12.5
      vertex 221.651 100 12.5
    endloop
  endfacet
  facet normal 0.500861 -0 0.865528
    outer loop
      vertex 214.093 0 16.8636
      vertex 214.365 100 16.7062
      vertex 214.093 100 16.8636
    endloop
  endfacet
  facet normal 0.499999 3.12814e-06 0.866026
    outer loop
      vertex 214.365 100 16.7062
      vertex 214.093 0 16.8636
      vertex 221.651 0 12.5
    endloop
  endfacet
  facet normal 0.499754 0 0.866167
    outer loop
      vertex 214.093 0 16.8636
      vertex 212.99 1.92712e-06 17.5
      vertex 212.99 0 17.5
    endloop
  endfacet
  facet normal -0.831485 0 0.555547
    outer loop
      vertex 211.9 0 15.8686
      vertex 212.99 100 17.5
      vertex 211.9 100 15.8686
    endloop
  endfacet
  facet normal -0.831485 0 0.555547
    outer loop
      vertex 212.99 0 17.5
      vertex 212.99 100 17.5
      vertex 211.9 0 15.8686
    endloop
  endfacet
  facet normal -0.752021 0 0.65914
    outer loop
      vertex 210.607 0 14.3934
      vertex 211.9 100 15.8686
      vertex 210.607 100 14.3934
    endloop
  endfacet
  facet normal -0.752021 0 0.65914
    outer loop
      vertex 211.9 100 15.8686
      vertex 210.607 0 14.3934
      vertex 211.9 0 15.8686
    endloop
  endfacet
  facet normal -0.659139 0 0.752021
    outer loop
      vertex 209.131 100 13.0997
      vertex 210.607 0 14.3934
      vertex 210.607 100 14.3934
    endloop
  endfacet
  facet normal -0.659139 0 0.752021
    outer loop
      vertex 210.607 0 14.3934
      vertex 209.131 100 13.0997
      vertex 209.131 0 13.0997
    endloop
  endfacet
  facet normal -0.555676 0 0.831399
    outer loop
      vertex 207.5 100 12.0096
      vertex 209.131 0 13.0997
      vertex 209.131 100 13.0997
    endloop
  endfacet
  facet normal -0.555676 0 0.831399
    outer loop
      vertex 209.131 0 13.0997
      vertex 207.5 100 12.0096
      vertex 207.5 0 12.0096
    endloop
  endfacet
  facet normal -0.442233 0 0.8969
    outer loop
      vertex 205.74 100 11.1418
      vertex 207.5 0 12.0096
      vertex 207.5 100 12.0096
    endloop
  endfacet
  facet normal -0.442233 0 0.8969
    outer loop
      vertex 207.5 0 12.0096
      vertex 205.74 100 11.1418
      vertex 205.74 0 11.1418
    endloop
  endfacet
  facet normal -0.321437 0 0.946931
    outer loop
      vertex 203.882 100 10.5111
      vertex 205.74 0 11.1418
      vertex 205.74 100 11.1418
    endloop
  endfacet
  facet normal -0.321437 0 0.946931
    outer loop
      vertex 205.74 0 11.1418
      vertex 203.882 100 10.5111
      vertex 203.882 0 10.5111
    endloop
  endfacet
  facet normal -0.195136 0 0.980776
    outer loop
      vertex 201.958 100 10.1283
      vertex 203.882 0 10.5111
      vertex 203.882 100 10.5111
    endloop
  endfacet
  facet normal -0.195136 0 0.980776
    outer loop
      vertex 203.882 0 10.5111
      vertex 201.958 100 10.1283
      vertex 201.958 0 10.1283
    endloop
  endfacet
  facet normal -0.0653858 0 0.99786
    outer loop
      vertex 200 100 10
      vertex 201.958 0 10.1283
      vertex 201.958 100 10.1283
    endloop
  endfacet
  facet normal -0.0653858 0 0.99786
    outer loop
      vertex 201.958 0 10.1283
      vertex 200 100 10
      vertex 200 0 10
    endloop
  endfacet
  facet normal 0.0373857 0 -0.999301
    outer loop
      vertex 200 0 0
      vertex 201.868 100 0.0698853
      vertex 201.868 0 0.0698853
    endloop
  endfacet
  facet normal 0.0373857 0 -0.999301
    outer loop
      vertex 201.868 100 0.0698853
      vertex 200 0 0
      vertex 200 100 0
    endloop
  endfacet
  facet normal -0.433052 0.500176 -0.74986
    outer loop
      vertex 221.875 110.825 19.5874
      vertex 222.218 109.394 18.4348
      vertex 213.125 106.495 21.7524
    endloop
  endfacet
  facet normal -0.433031 0.500003 -0.749987
    outer loop
      vertex 221.409 112.196 20.7701
      vertex 213.125 106.495 21.7524
      vertex 212.589 107.908 23.0039
    endloop
  endfacet
  facet normal -0.433036 0.499915 -0.750043
    outer loop
      vertex 222.218 109.394 18.4348
      vertex 213.437 104.971 20.5565
      vertex 213.125 106.495 21.7524
    endloop
  endfacet
  facet normal -0.432973 0.499901 -0.750089
    outer loop
      vertex 221.409 112.196 20.7701
      vertex 221.875 110.825 19.5874
      vertex 213.125 106.495 21.7524
    endloop
  endfacet
  facet normal -0.433043 0.500016 -0.749972
    outer loop
      vertex 220.122 114.726 23.1999
      vertex 220.824 113.499 21.9765
      vertex 212.589 107.908 23.0039
    endloop
  endfacet
  facet normal -0.432909 0.499873 -0.750144
    outer loop
      vertex 220.122 114.726 23.1999
      vertex 212.589 107.908 23.0039
      vertex 211.837 109.186 24.2895
    endloop
  endfacet
  facet normal -0.433018 0.500074 -0.749948
    outer loop
      vertex 219.308 115.871 24.4334
      vertex 220.122 114.726 23.1999
      vertex 211.837 109.186 24.2895
    endloop
  endfacet
  facet normal -0.432955 0.499933 -0.750078
    outer loop
      vertex 218.385 116.927 25.67
      vertex 219.308 115.871 24.4334
      vertex 210.883 110.306 25.5873
    endloop
  endfacet
  facet normal -0.43295 0.499928 -0.750084
    outer loop
      vertex 217.36 117.889 26.9028
      vertex 218.385 116.927 25.67
      vertex 210.883 110.306 25.5873
    endloop
  endfacet
  facet normal -0.433075 0.500013 -0.749955
    outer loop
      vertex 217.36 117.889 26.9028
      vertex 210.883 110.306 25.5873
      vertex 209.743 111.25 26.875
    endloop
  endfacet
  facet normal -0.433044 0.500102 -0.749914
    outer loop
      vertex 219.308 115.871 24.4334
      vertex 211.837 109.186 24.2895
      vertex 210.883 110.306 25.5873
    endloop
  endfacet
  facet normal -0.433122 0.500066 -0.749893
    outer loop
      vertex 216.238 118.75 28.125
      vertex 217.36 117.889 26.9028
      vertex 209.743 111.25 26.875
    endloop
  endfacet
  facet normal -0.433026 0.499986 -0.750002
    outer loop
      vertex 220.824 113.499 21.9765
      vertex 221.409 112.196 20.7701
      vertex 212.589 107.908 23.0039
    endloop
  endfacet
  facet normal -0.433055 0.49994 -0.750015
    outer loop
      vertex 222.437 107.91 17.319
      vertex 222.531 106.382 16.2462
      vertex 213.437 104.971 20.5565
    endloop
  endfacet
  facet normal -0.43303 0.500144 -0.749894
    outer loop
      vertex 222.531 106.382 16.2462
      vertex 213.518 103.362 19.4366
      vertex 213.437 104.971 20.5565
    endloop
  endfacet
  facet normal -0.433059 0.499991 -0.749979
    outer loop
      vertex 222.218 109.394 18.4348
      vertex 222.437 107.91 17.319
      vertex 213.437 104.971 20.5565
    endloop
  endfacet
  facet normal -0.433013 0.499936 -0.750043
    outer loop
      vertex 222.531 106.382 16.2462
      vertex 222.499 104.818 15.2222
      vertex 213.518 103.362 19.4366
    endloop
  endfacet
  facet normal -0.433003 0.500021 -0.749992
    outer loop
      vertex 213.518 103.362 19.4366
      vertex 222.499 104.818 15.2222
      vertex 213.369 101.696 18.4119
    endloop
  endfacet
  facet normal -0.433011 0.500112 -0.749927
    outer loop
      vertex 222.499 104.818 15.2222
      vertex 222.34 103.227 14.253
      vertex 213.369 101.696 18.4119
    endloop
  endfacet
  facet normal -0.43303 0.499938 -0.750031
    outer loop
      vertex 222.34 103.227 14.253
      vertex 222.057 101.618 13.3439
      vertex 213.369 101.696 18.4119
    endloop
  endfacet
  facet normal -0.433007 0.500016 -0.749993
    outer loop
      vertex 213.369 101.696 18.4119
      vertex 222.057 101.618 13.3439
      vertex 212.99 100 17.5
    endloop
  endfacet
  facet normal -0.43302 0.499875 -0.750079
    outer loop
      vertex 214.365 100 16.7062
      vertex 222.057 101.618 13.3439
      vertex 221.651 100 12.5
    endloop
  endfacet
  facet normal -0.433018 0.499901 -0.750063
    outer loop
      vertex 222.057 101.618 13.3439
      vertex 214.365 100 16.7062
      vertex 212.99 100 17.5
    endloop
  endfacet
  facet normal 0.432983 -0.49992 0.75007
    outer loop
      vertex 265.52 59.3939 93.4348
      vertex 265.176 60.8253 94.5874
      vertex 256.426 56.4952 96.7524
    endloop
  endfacet
  facet normal 0.433013 -0.500058 0.749961
    outer loop
      vertex 256.426 56.4952 96.7524
      vertex 264.711 62.1962 95.7701
      vertex 255.89 57.908 98.0039
    endloop
  endfacet
  facet normal 0.432984 -0.499937 0.750058
    outer loop
      vertex 256.738 54.9712 95.5565
      vertex 265.52 59.3939 93.4348
      vertex 256.426 56.4952 96.7524
    endloop
  endfacet
  facet normal 0.433033 -0.500093 0.749926
    outer loop
      vertex 265.176 60.8253 94.5874
      vertex 264.711 62.1962 95.7701
      vertex 256.426 56.4952 96.7524
    endloop
  endfacet
  facet normal 0.433019 -0.499983 0.750007
    outer loop
      vertex 264.125 63.4989 96.9765
      vertex 263.423 64.7261 98.1999
      vertex 255.89 57.908 98.0039
    endloop
  endfacet
  facet normal 0.433081 -0.500049 0.749928
    outer loop
      vertex 255.89 57.908 98.0039
      vertex 263.423 64.7261 98.1999
      vertex 255.139 59.1856 99.2895
    endloop
  endfacet
  facet normal 0.433081 -0.50005 0.749927
    outer loop
      vertex 263.423 64.7261 98.1999
      vertex 262.609 65.871 99.4334
      vertex 255.139 59.1856 99.2895
    endloop
  endfacet
  facet normal 0.433002 -0.500069 0.74996
    outer loop
      vertex 262.609 65.871 99.4334
      vertex 261.687 66.9272 100.67
      vertex 254.184 60.306 100.587
    endloop
  endfacet
  facet normal 0.432914 -0.499972 0.750076
    outer loop
      vertex 261.687 66.9272 100.67
      vertex 260.661 67.8886 101.903
      vertex 254.184 60.306 100.587
    endloop
  endfacet
  facet normal 0.433108 -0.500103 0.749876
    outer loop
      vertex 253.044 61.25 101.875
      vertex 254.184 60.306 100.587
      vertex 260.661 67.8886 101.903
    endloop
  endfacet
  facet normal 0.43287 -0.499819 0.750203
    outer loop
      vertex 255.139 59.1856 99.2895
      vertex 262.609 65.871 99.4334
      vertex 254.184 60.306 100.587
    endloop
  endfacet
  facet normal 0.432998 -0.499992 0.750014
    outer loop
      vertex 253.506 61.7838 101.964
      vertex 260.661 67.8886 101.903
      vertex 259.539 68.75 103.125
    endloop
  endfacet
  facet normal 0.432659 -0.499589 0.750478
    outer loop
      vertex 260.661 67.8886 101.903
      vertex 253.506 61.7838 101.964
      vertex 253.044 61.25 101.875
    endloop
  endfacet
  facet normal 0.432966 -0.499888 0.750101
    outer loop
      vertex 264.711 62.1962 95.7701
      vertex 264.125 63.4989 96.9765
      vertex 255.89 57.908 98.0039
    endloop
  endfacet
  facet normal 0.43301 -0.500125 0.749918
    outer loop
      vertex 265.832 56.3817 91.2462
      vertex 265.739 57.9098 92.319
      vertex 256.738 54.9712 95.5565
    endloop
  endfacet
  facet normal 0.433031 -0.499959 0.750016
    outer loop
      vertex 256.82 53.3622 94.4366
      vertex 265.832 56.3817 91.2462
      vertex 256.738 54.9712 95.5565
    endloop
  endfacet
  facet normal 0.433001 -0.499991 0.750013
    outer loop
      vertex 265.739 57.9098 92.319
      vertex 265.52 59.3939 93.4348
      vertex 256.738 54.9712 95.5565
    endloop
  endfacet
  facet normal 0.433029 -0.499932 0.750036
    outer loop
      vertex 265.8 54.8177 90.2222
      vertex 265.832 56.3817 91.2462
      vertex 256.82 53.3622 94.4366
    endloop
  endfacet
  facet normal 0.433012 -0.500075 0.74995
    outer loop
      vertex 265.8 54.8177 90.2222
      vertex 256.82 53.3622 94.4366
      vertex 256.67 51.6956 93.4119
    endloop
  endfacet
  facet normal 0.433002 -0.499964 0.75003
    outer loop
      vertex 265.642 53.2269 89.253
      vertex 265.8 54.8177 90.2222
      vertex 256.67 51.6956 93.4119
    endloop
  endfacet
  facet normal 0.432981 -0.500162 0.749911
    outer loop
      vertex 265.358 51.618 88.3439
      vertex 265.642 53.2269 89.253
      vertex 256.67 51.6956 93.4119
    endloop
  endfacet
  facet normal 0.433055 -0.499912 0.750034
    outer loop
      vertex 265.358 51.618 88.3439
      vertex 256.67 51.6956 93.4119
      vertex 256.292 50 92.5
    endloop
  endfacet
  facet normal 0.433059 -0.499874 0.750058
    outer loop
      vertex 264.952 50 87.5
      vertex 265.358 51.618 88.3439
      vertex 256.292 50 92.5
    endloop
  endfacet
  facet normal 0.888583 0.0970255 -0.448337
    outer loop
      vertex 222.34 103.227 14.253
      vertex 265.358 51.618 88.3439
      vertex 222.057 101.618 13.3439
    endloop
  endfacet
  facet normal 0.888508 0.0966253 -0.448572
    outer loop
      vertex 265.642 53.2269 89.253
      vertex 265.358 51.618 88.3439
      vertex 222.34 103.227 14.253
    endloop
  endfacet
  facet normal 0.897374 0.160677 -0.410977
    outer loop
      vertex 265.8 54.8177 90.2222
      vertex 222.34 103.227 14.253
      vertex 222.499 104.818 15.2222
    endloop
  endfacet
  facet normal 0.897412 0.161105 -0.410727
    outer loop
      vertex 222.34 103.227 14.253
      vertex 265.8 54.8177 90.2222
      vertex 265.642 53.2269 89.253
    endloop
  endfacet
  facet normal 0.901226 0.224318 -0.370774
    outer loop
      vertex 265.832 56.3817 91.2462
      vertex 222.499 104.818 15.2222
      vertex 222.531 106.382 16.2462
    endloop
  endfacet
  facet normal 0.901226 0.224318 -0.370774
    outer loop
      vertex 222.499 104.818 15.2222
      vertex 265.832 56.3817 91.2462
      vertex 265.8 54.8177 90.2222
    endloop
  endfacet
  facet normal 0.900008 0.28581 -0.329088
    outer loop
      vertex 265.832 56.3817 91.2462
      vertex 222.437 107.91 17.319
      vertex 265.739 57.9098 92.319
    endloop
  endfacet
  facet normal 0.899987 0.286211 -0.328796
    outer loop
      vertex 222.437 107.91 17.319
      vertex 265.832 56.3817 91.2462
      vertex 222.531 106.382 16.2462
    endloop
  endfacet
  facet normal 0.893743 0.346277 -0.285159
    outer loop
      vertex 265.739 57.9098 92.319
      vertex 222.218 109.394 18.4348
      vertex 265.52 59.3939 93.4348
    endloop
  endfacet
  facet normal 0.893741 0.346292 -0.285148
    outer loop
      vertex 222.218 109.394 18.4348
      vertex 265.739 57.9098 92.319
      vertex 222.437 107.91 17.319
    endloop
  endfacet
  facet normal 0.882421 0.404928 -0.239512
    outer loop
      vertex 265.52 59.3939 93.4348
      vertex 221.875 110.825 19.5874
      vertex 265.176 60.8253 94.5874
    endloop
  endfacet
  facet normal 0.882489 0.404637 -0.239755
    outer loop
      vertex 221.875 110.825 19.5874
      vertex 265.52 59.3939 93.4348
      vertex 222.218 109.394 18.4348
    endloop
  endfacet
  facet normal 0.866366 0.460531 -0.193186
    outer loop
      vertex 265.176 60.8253 94.5874
      vertex 221.409 112.196 20.7701
      vertex 264.711 62.1962 95.7701
    endloop
  endfacet
  facet normal 0.866261 0.460848 -0.192902
    outer loop
      vertex 221.409 112.196 20.7701
      vertex 265.176 60.8253 94.5874
      vertex 221.875 110.825 19.5874
    endloop
  endfacet
  facet normal 0.845334 0.514088 -0.145338
    outer loop
      vertex 264.711 62.1962 95.7701
      vertex 221.409 112.196 20.7701
      vertex 220.824 113.499 21.9765
    endloop
  endfacet
  facet normal 0.845171 0.514456 -0.144986
    outer loop
      vertex 264.125 63.4989 96.9765
      vertex 264.711 62.1962 95.7701
      vertex 220.824 113.499 21.9765
    endloop
  endfacet
  facet normal 0.819444 0.564987 -0.0964442
    outer loop
      vertex 264.125 63.4989 96.9765
      vertex 220.824 113.499 21.9765
      vertex 220.122 114.726 23.1999
    endloop
  endfacet
  facet normal 0.819466 0.564948 -0.0964846
    outer loop
      vertex 263.423 64.7261 98.1999
      vertex 264.125 63.4989 96.9765
      vertex 220.122 114.726 23.1999
    endloop
  endfacet
  facet normal 0.789236 0.61225 -0.0474972
    outer loop
      vertex 263.423 64.7261 98.1999
      vertex 220.122 114.726 23.1999
      vertex 219.308 115.871 24.4334
    endloop
  endfacet
  facet normal 0.789222 0.61227 -0.0474751
    outer loop
      vertex 262.609 65.871 99.4334
      vertex 263.423 64.7261 98.1999
      vertex 219.308 115.871 24.4334
    endloop
  endfacet
  facet normal 0.754243 0.656592 0.00226836
    outer loop
      vertex 262.609 65.871 99.4334
      vertex 219.308 115.871 24.4334
      vertex 218.385 116.927 25.67
    endloop
  endfacet
  facet normal 0.754473 0.656329 0.0019484
    outer loop
      vertex 261.687 66.9272 100.67
      vertex 262.609 65.871 99.4334
      vertex 218.385 116.927 25.67
    endloop
  endfacet
  facet normal 0.715558 0.696667 0.0513084
    outer loop
      vertex 261.687 66.9272 100.67
      vertex 218.385 116.927 25.67
      vertex 217.36 117.889 26.9028
    endloop
  endfacet
  facet normal 0.715233 0.69697 0.0517129
    outer loop
      vertex 260.661 67.8886 101.903
      vertex 261.687 66.9272 100.67
      vertex 217.36 117.889 26.9028
    endloop
  endfacet
  facet normal 0.672482 0.733248 0.100577
    outer loop
      vertex 260.661 67.8886 101.903
      vertex 216.238 118.75 28.125
      vertex 259.539 68.75 103.125
    endloop
  endfacet
  facet normal 0.672395 0.733314 0.100674
    outer loop
      vertex 216.238 118.75 28.125
      vertex 260.661 67.8886 101.903
      vertex 217.36 117.889 26.9028
    endloop
  endfacet
  facet normal -0.624975 0.433043 0.649523
    outer loop
      vertex 216.238 118.75 28.125
      vertex 215.203 106.59 35.2363
      vertex 259.539 68.75 103.125
    endloop
  endfacet
  facet normal -0.625035 0.433022 0.649479
    outer loop
      vertex 215.203 106.59 35.2363
      vertex 216.238 118.75 28.125
      vertex 210.422 112.034 27.0056
    endloop
  endfacet
  facet normal 0.606603 -0.610242 0.509546
    outer loop
      vertex 209.743 111.25 26.875
      vertex 210.422 112.034 27.0056
      vertex 216.238 118.75 28.125
    endloop
  endfacet
  facet normal -0.625002 0.433063 0.649484
    outer loop
      vertex 259.539 68.75 103.125
      vertex 248.322 68.6275 92.4125
      vertex 253.878 62.2132 102.036
    endloop
  endfacet
  facet normal -0.625033 0.432966 0.649518
    outer loop
      vertex 248.322 68.6275 92.4125
      vertex 259.539 68.75 103.125
      vertex 215.203 106.59 35.2363
    endloop
  endfacet
  facet normal 0.755835 -0.619022 -0.213368
    outer loop
      vertex 253.878 62.2132 102.036
      vertex 253.506 61.7838 101.964
      vertex 259.539 68.75 103.125
    endloop
  endfacet
  facet normal 0.660831 -0.475068 -0.581044
    outer loop
      vertex 253.044 61.25 101.875
      vertex 253.506 61.7838 101.964
      vertex 253.878 62.2132 102.036
    endloop
  endfacet
  facet normal -0.689072 -0.720018 -0.0821783
    outer loop
      vertex 209.743 111.25 26.875
      vertex 254.184 60.306 100.587
      vertex 253.044 61.25 101.875
    endloop
  endfacet
  facet normal -0.689065 -0.720024 -0.0821867
    outer loop
      vertex 254.184 60.306 100.587
      vertex 209.743 111.25 26.875
      vertex 210.883 110.306 25.5873
    endloop
  endfacet
  facet normal -0.758931 -0.651159 0.00406688
    outer loop
      vertex 255.139 59.1856 99.2895
      vertex 210.883 110.306 25.5873
      vertex 211.837 109.186 24.2895
    endloop
  endfacet
  facet normal -0.75881 -0.651301 0.00389554
    outer loop
      vertex 210.883 110.306 25.5873
      vertex 255.139 59.1856 99.2895
      vertex 254.184 60.306 100.587
    endloop
  endfacet
  facet normal -0.815934 -0.571036 0.0903865
    outer loop
      vertex 255.89 57.908 98.0039
      vertex 211.837 109.186 24.2895
      vertex 212.589 107.908 23.0039
    endloop
  endfacet
  facet normal -0.816046 -0.570844 0.0905871
    outer loop
      vertex 211.837 109.186 24.2895
      vertex 255.89 57.908 98.0039
      vertex 255.139 59.1856 99.2895
    endloop
  endfacet
  facet normal -0.858998 -0.481055 0.175236
    outer loop
      vertex 213.125 106.495 21.7524
      vertex 255.89 57.908 98.0039
      vertex 212.589 107.908 23.0039
    endloop
  endfacet
  facet normal -0.858984 -0.481091 0.175206
    outer loop
      vertex 256.426 56.4952 96.7524
      vertex 255.89 57.908 98.0039
      vertex 213.125 106.495 21.7524
    endloop
  endfacet
  facet normal -0.88726 -0.383167 0.256813
    outer loop
      vertex 213.437 104.971 20.5565
      vertex 256.426 56.4952 96.7524
      vertex 213.125 106.495 21.7524
    endloop
  endfacet
  facet normal -0.88726 -0.383167 0.256813
    outer loop
      vertex 256.738 54.9712 95.5565
      vertex 256.426 56.4952 96.7524
      vertex 213.437 104.971 20.5565
    endloop
  endfacet
  facet normal -0.900435 -0.278122 0.334461
    outer loop
      vertex 256.82 53.3622 94.4366
      vertex 213.437 104.971 20.5565
      vertex 213.518 103.362 19.4366
    endloop
  endfacet
  facet normal -0.90042 -0.278494 0.334193
    outer loop
      vertex 213.437 104.971 20.5565
      vertex 256.82 53.3622 94.4366
      vertex 256.738 54.9712 95.5565
    endloop
  endfacet
  facet normal -0.898179 -0.169234 0.405751
    outer loop
      vertex 256.82 53.3622 94.4366
      vertex 213.518 103.362 19.4366
      vertex 213.369 101.696 18.4119
    endloop
  endfacet
  facet normal -0.898145 -0.168796 0.406009
    outer loop
      vertex 256.67 51.6956 93.4119
      vertex 256.82 53.3622 94.4366
      vertex 213.369 101.696 18.4119
    endloop
  endfacet
  facet normal -0.880461 -0.0563611 0.470757
    outer loop
      vertex 213.369 101.696 18.4119
      vertex 212.99 100 17.5
      vertex 256.67 51.6956 93.4119
    endloop
  endfacet
  facet normal -0.880667 -0.0573396 0.470253
    outer loop
      vertex 213.744 99.1294 18.8059
      vertex 256.67 51.6956 93.4119
      vertex 212.99 100 17.5
    endloop
  endfacet
  facet normal -0.880546 -0.0567632 0.47055
    outer loop
      vertex 256.67 51.6956 93.4119
      vertex 213.744 99.1294 18.8059
      vertex 256.292 50 92.5
    endloop
  endfacet
  facet normal -0.250005 -0.866026 -0.433008
    outer loop
      vertex 213.744 99.1294 18.8059
      vertex 264.952 50 87.5
      vertex 256.292 50 92.5
    endloop
  endfacet
  facet normal 0.249981 0.866028 0.433018
    outer loop
      vertex 213.744 99.1294 18.8059
      vertex 222.405 99.1294 13.8059
      vertex 221.651 100 12.5
    endloop
  endfacet
  facet normal 0.250042 0.865976 0.433086
    outer loop
      vertex 213.744 99.1294 18.8059
      vertex 221.651 100 12.5
      vertex 214.093 100 16.8636
    endloop
  endfacet
  facet normal 0 -1 0
    outer loop
      vertex 214.093 100 16.8636
      vertex 214.365 100 16.7062
      vertex 221.651 100 12.5
    endloop
  endfacet
  facet normal -0.250042 -0.865976 -0.433086
    outer loop
      vertex 213.744 99.1294 18.8059
      vertex 214.093 100 16.8636
      vertex 221.651 100 12.5
    endloop
  endfacet
  facet normal -0.249985 -0.866025 -0.433022
    outer loop
      vertex 213.744 99.1294 18.8059
      vertex 221.651 100 12.5
      vertex 264.952 50 87.5
    endloop
  endfacet
  facet normal 0.87482 0.0325852 -0.483351
    outer loop
      vertex 222.057 101.618 13.3439
      vertex 264.952 50 87.5
      vertex 221.651 100 12.5
    endloop
  endfacet
  facet normal 0.87482 0.0325852 -0.483351
    outer loop
      vertex 265.358 51.618 88.3439
      vertex 264.952 50 87.5
      vertex 222.057 101.618 13.3439
    endloop
  endfacet
  facet normal -0.757775 0.624984 0.187543
    outer loop
      vertex 182.368 126.032 133.635
      vertex 182.832 127.045 132.134
      vertex 176.43 120.619 127.681
    endloop
  endfacet
  facet normal -0.757793 0.624944 0.187603
    outer loop
      vertex 181.821 124.943 135.053
      vertex 176.43 120.619 127.681
      vertex 175.824 119.448 129.134
    endloop
  endfacet
  facet normal -0.757756 0.62504 0.187435
    outer loop
      vertex 182.832 127.045 132.134
      vertex 176.884 121.651 126.075
      vertex 176.43 120.619 127.681
    endloop
  endfacet
  facet normal -0.757799 0.624933 0.187613
    outer loop
      vertex 181.821 124.943 135.053
      vertex 182.368 126.032 133.635
      vertex 176.43 120.619 127.681
    endloop
  endfacet
  facet normal -0.757731 0.625063 0.187456
    outer loop
      vertex 180.49 122.563 137.608
      vertex 181.194 123.785 136.379
      vertex 175.824 119.448 129.134
    endloop
  endfacet
  facet normal -0.757666 0.625163 0.187383
    outer loop
      vertex 180.49 122.563 137.608
      vertex 175.824 119.448 129.134
      vertex 175.076 118.159 130.41
    endloop
  endfacet
  facet normal -0.757817 0.624898 0.187659
    outer loop
      vertex 179.714 121.285 138.73
      vertex 180.49 122.563 137.608
      vertex 175.076 118.159 130.41
    endloop
  endfacet
  facet normal -0.757688 0.625138 0.187383
    outer loop
      vertex 178.87 119.959 139.741
      vertex 179.714 121.285 138.73
      vertex 174.199 116.772 131.486
    endloop
  endfacet
  facet normal -0.757764 0.625018 0.187472
    outer loop
      vertex 177.962 118.59 140.635
      vertex 178.87 119.959 139.741
      vertex 174.199 116.772 131.486
    endloop
  endfacet
  facet normal -0.757586 0.625271 0.187349
    outer loop
      vertex 174.199 116.772 131.486
      vertex 173.207 115.313 132.344
      vertex 177.962 118.59 140.635
    endloop
  endfacet
  facet normal -0.654176 -0 -0.756343
    outer loop
      vertex 173.207 115.313 132.344
      vertex 174.199 116.772 131.486
      vertex 173.207 115.312 132.344
    endloop
  endfacet
  facet normal -0.757865 0.624823 0.187715
    outer loop
      vertex 179.714 121.285 138.73
      vertex 175.076 118.159 130.41
      vertex 174.199 116.772 131.486
    endloop
  endfacet
  facet normal -0.757717 0.625111 0.187355
    outer loop
      vertex 177.962 118.59 140.635
      vertex 173.71 115.561 133.545
      vertex 176.996 117.188 141.406
    endloop
  endfacet
  facet normal -0.759413 0.622389 0.189536
    outer loop
      vertex 173.71 115.561 133.545
      vertex 177.962 118.59 140.635
      vertex 173.207 115.313 132.344
    endloop
  endfacet
  facet normal -0.757763 0.625008 0.187513
    outer loop
      vertex 181.194 123.785 136.379
      vertex 181.821 124.943 135.053
      vertex 175.824 119.448 129.134
    endloop
  endfacet
  facet normal -0.757805 0.62491 0.187669
    outer loop
      vertex 183.21 127.976 130.558
      vertex 183.501 128.822 128.916
      vertex 176.884 121.651 126.075
    endloop
  endfacet
  facet normal -0.757786 0.625057 0.187253
    outer loop
      vertex 183.501 128.822 128.916
      vertex 177.178 122.526 124.344
      vertex 176.884 121.651 126.075
    endloop
  endfacet
  facet normal -0.757768 0.625014 0.187469
    outer loop
      vertex 182.832 127.045 132.134
      vertex 183.21 127.976 130.558
      vertex 176.884 121.651 126.075
    endloop
  endfacet
  facet normal -0.757737 0.625194 0.186997
    outer loop
      vertex 183.501 128.822 128.916
      vertex 183.703 129.575 127.217
      vertex 177.178 122.526 124.344
    endloop
  endfacet
  facet normal -0.757769 0.624966 0.187627
    outer loop
      vertex 183.703 129.575 127.217
      vertex 177.306 123.23 122.516
      vertex 177.178 122.526 124.344
    endloop
  endfacet
  facet normal -0.757764 0.624977 0.187606
    outer loop
      vertex 183.703 129.575 127.217
      vertex 183.814 130.234 125.47
      vertex 177.306 123.23 122.516
    endloop
  endfacet
  facet normal -0.757772 0.624926 0.187745
    outer loop
      vertex 183.814 130.234 125.47
      vertex 183.833 130.793 123.686
      vertex 177.306 123.23 122.516
    endloop
  endfacet
  facet normal -0.75779 0.624981 0.18749
    outer loop
      vertex 177.306 123.23 122.516
      vertex 183.833 130.793 123.686
      vertex 177.267 123.75 120.625
    endloop
  endfacet
  facet normal -0.757786 0.625005 0.187427
    outer loop
      vertex 183.833 130.793 123.686
      vertex 183.762 131.25 121.875
      vertex 177.267 123.75 120.625
    endloop
  endfacet
  facet normal 0.757815 -0.624937 -0.18754
    outer loop
      vertex 258.609 64.5447 113.384
      vertex 258.145 63.5316 114.885
      vertex 252.208 58.119 108.931
    endloop
  endfacet
  facet normal 0.757663 -0.625205 -0.18726
    outer loop
      vertex 252.208 58.119 108.931
      vertex 257.598 62.4429 116.303
      vertex 251.601 56.9482 110.384
    endloop
  endfacet
  facet normal 0.757841 -0.62486 -0.187689
    outer loop
      vertex 252.661 59.1508 107.325
      vertex 258.609 64.5447 113.384
      vertex 252.208 58.119 108.931
    endloop
  endfacet
  facet normal 0.757802 -0.624963 -0.187503
    outer loop
      vertex 258.145 63.5316 114.885
      vertex 257.598 62.4429 116.303
      vertex 252.208 58.119 108.931
    endloop
  endfacet
  facet normal 0.757637 -0.625209 -0.18735
    outer loop
      vertex 256.971 61.2846 117.629
      vertex 256.267 60.0632 118.858
      vertex 251.601 56.9482 110.384
    endloop
  endfacet
  facet normal 0.757756 -0.625024 -0.187484
    outer loop
      vertex 251.601 56.9482 110.384
      vertex 256.267 60.0632 118.858
      vertex 250.853 55.6586 111.66
    endloop
  endfacet
  facet normal 0.757799 -0.624949 -0.187562
    outer loop
      vertex 256.267 60.0632 118.858
      vertex 255.491 58.7855 119.98
      vertex 250.853 55.6586 111.66
    endloop
  endfacet
  facet normal 0.75781 -0.624933 -0.187569
    outer loop
      vertex 255.491 58.7855 119.98
      vertex 254.647 57.4586 120.991
      vertex 249.976 54.2721 112.736
    endloop
  endfacet
  facet normal 0.757674 -0.625146 -0.18741
    outer loop
      vertex 254.647 57.4586 120.991
      vertex 253.739 56.0901 121.885
      vertex 249.976 54.2721 112.736
    endloop
  endfacet
  facet normal 0.757896 -0.624831 -0.187563
    outer loop
      vertex 249.976 54.2721 112.736
      vertex 253.739 56.0901 121.885
      vertex 248.985 52.8125 113.594
    endloop
  endfacet
  facet normal 0.757819 -0.624918 -0.187585
    outer loop
      vertex 250.853 55.6586 111.66
      vertex 255.491 58.7855 119.98
      vertex 249.976 54.2721 112.736
    endloop
  endfacet
  facet normal 0.75781 -0.624966 -0.187461
    outer loop
      vertex 253.739 56.0901 121.885
      vertex 252.773 54.6875 122.656
      vertex 248.985 52.8125 113.594
    endloop
  endfacet
  facet normal 0.757779 -0.62496 -0.187605
    outer loop
      vertex 257.598 62.4429 116.303
      vertex 256.971 61.2846 117.629
      vertex 251.601 56.9482 110.384
    endloop
  endfacet
  facet normal 0.757803 -0.624871 -0.187806
    outer loop
      vertex 259.278 66.3216 110.166
      vertex 258.988 65.4764 111.808
      vertex 252.661 59.1508 107.325
    endloop
  endfacet
  facet normal 0.757782 -0.625033 -0.18735
    outer loop
      vertex 252.955 60.0261 105.594
      vertex 259.278 66.3216 110.166
      vertex 252.661 59.1508 107.325
    endloop
  endfacet
  facet normal 0.757717 -0.625116 -0.187339
    outer loop
      vertex 258.988 65.4764 111.808
      vertex 258.609 64.5447 113.384
      vertex 252.661 59.1508 107.325
    endloop
  endfacet
  facet normal 0.757767 -0.625074 -0.187272
    outer loop
      vertex 259.48 67.0755 108.467
      vertex 259.278 66.3216 110.166
      vertex 252.955 60.0261 105.594
    endloop
  endfacet
  facet normal 0.757782 -0.624971 -0.187559
    outer loop
      vertex 253.083 60.7299 103.766
      vertex 259.48 67.0755 108.467
      vertex 252.955 60.0261 105.594
    endloop
  endfacet
  facet normal 0.757754 -0.625047 -0.187418
    outer loop
      vertex 259.591 67.7339 106.72
      vertex 259.48 67.0755 108.467
      vertex 253.083 60.7299 103.766
    endloop
  endfacet
  facet normal 0.757754 -0.625044 -0.187427
    outer loop
      vertex 259.611 68.2931 104.936
      vertex 259.591 67.7339 106.72
      vertex 253.083 60.7299 103.766
    endloop
  endfacet
  facet normal 0.757747 -0.625021 -0.187533
    outer loop
      vertex 259.611 68.2931 104.936
      vertex 253.083 60.7299 103.766
      vertex 253.044 61.25 101.875
    endloop
  endfacet
  facet normal 0.757763 -0.624924 -0.18779
    outer loop
      vertex 259.539 68.75 103.125
      vertex 259.611 68.2931 104.936
      vertex 253.044 61.25 101.875
    endloop
  endfacet
  facet normal 0.652433 0.721166 0.232919
    outer loop
      vertex 259.611 68.2931 104.936
      vertex 183.833 130.793 123.686
      vertex 183.814 130.234 125.47
    endloop
  endfacet
  facet normal 0.652434 0.721034 0.233324
    outer loop
      vertex 259.591 67.7339 106.72
      vertex 259.611 68.2931 104.936
      vertex 183.814 130.234 125.47
    endloop
  endfacet
  facet normal 0.649806 0.696631 0.304069
    outer loop
      vertex 259.48 67.0755 108.467
      vertex 183.814 130.234 125.47
      vertex 183.703 129.575 127.217
    endloop
  endfacet
  facet normal 0.649823 0.696707 0.303859
    outer loop
      vertex 183.814 130.234 125.47
      vertex 259.48 67.0755 108.467
      vertex 259.591 67.7339 106.72
    endloop
  endfacet
  facet normal 0.643576 0.668464 0.372781
    outer loop
      vertex 259.48 67.0755 108.467
      vertex 183.703 129.575 127.217
      vertex 183.501 128.822 128.916
    endloop
  endfacet
  facet normal 0.643546 0.66833 0.373073
    outer loop
      vertex 259.278 66.3216 110.166
      vertex 259.48 67.0755 108.467
      vertex 183.501 128.822 128.916
    endloop
  endfacet
  facet normal 0.633657 0.636231 0.440101
    outer loop
      vertex 259.278 66.3216 110.166
      vertex 183.501 128.822 128.916
      vertex 183.21 127.976 130.558
    endloop
  endfacet
  facet normal 0.633743 0.636515 0.439566
    outer loop
      vertex 258.988 65.4764 111.808
      vertex 259.278 66.3216 110.166
      vertex 183.21 127.976 130.558
    endloop
  endfacet
  facet normal 0.62039 0.601038 0.503854
    outer loop
      vertex 182.832 127.045 132.134
      vertex 258.988 65.4764 111.808
      vertex 183.21 127.976 130.558
    endloop
  endfacet
  facet normal 0.620285 0.600754 0.504322
    outer loop
      vertex 258.988 65.4764 111.808
      vertex 182.832 127.045 132.134
      vertex 258.609 64.5447 113.384
    endloop
  endfacet
  facet normal 0.603454 0.561914 0.56577
    outer loop
      vertex 182.368 126.032 133.635
      vertex 258.609 64.5447 113.384
      vertex 182.832 127.045 132.134
    endloop
  endfacet
  facet normal 0.603447 0.561897 0.565794
    outer loop
      vertex 258.609 64.5447 113.384
      vertex 182.368 126.032 133.635
      vertex 258.145 63.5316 114.885
    endloop
  endfacet
  facet normal 0.583211 0.51984 0.624204
    outer loop
      vertex 181.821 124.943 135.053
      vertex 258.145 63.5316 114.885
      vertex 182.368 126.032 133.635
    endloop
  endfacet
  facet normal 0.583235 0.519889 0.624142
    outer loop
      vertex 258.145 63.5316 114.885
      vertex 181.821 124.943 135.053
      vertex 257.598 62.4429 116.303
    endloop
  endfacet
  facet normal 0.559655 0.474768 0.67925
    outer loop
      vertex 257.598 62.4429 116.303
      vertex 181.821 124.943 135.053
      vertex 181.194 123.785 136.379
    endloop
  endfacet
  facet normal 0.559631 0.47472 0.679304
    outer loop
      vertex 256.971 61.2846 117.629
      vertex 257.598 62.4429 116.303
      vertex 181.194 123.785 136.379
    endloop
  endfacet
  facet normal 0.533105 0.427283 0.730225
    outer loop
      vertex 256.971 61.2846 117.629
      vertex 181.194 123.785 136.379
      vertex 180.49 122.563 137.608
    endloop
  endfacet
  facet normal 0.533155 0.427374 0.730135
    outer loop
      vertex 256.267 60.0632 118.858
      vertex 256.971 61.2846 117.629
      vertex 180.49 122.563 137.608
    endloop
  endfacet
  facet normal 0.503326 0.376993 0.777521
    outer loop
      vertex 179.714 121.285 138.73
      vertex 256.267 60.0632 118.858
      vertex 180.49 122.563 137.608
    endloop
  endfacet
  facet normal 0.50335 0.377035 0.777485
    outer loop
      vertex 256.267 60.0632 118.858
      vertex 179.714 121.285 138.73
      vertex 255.491 58.7855 119.98
    endloop
  endfacet
  facet normal 0.471136 0.325252 0.819904
    outer loop
      vertex 255.491 58.7855 119.98
      vertex 179.714 121.285 138.73
      vertex 178.87 119.959 139.741
    endloop
  endfacet
  facet normal 0.471068 0.325139 0.819988
    outer loop
      vertex 254.647 57.4586 120.991
      vertex 255.491 58.7855 119.98
      vertex 178.87 119.959 139.741
    endloop
  endfacet
  facet normal 0.436004 0.271191 0.858112
    outer loop
      vertex 177.962 118.59 140.635
      vertex 254.647 57.4586 120.991
      vertex 178.87 119.959 139.741
    endloop
  endfacet
  facet normal 0.436039 0.271244 0.858077
    outer loop
      vertex 254.647 57.4586 120.991
      vertex 177.962 118.59 140.635
      vertex 253.739 56.0901 121.885
    endloop
  endfacet
  facet normal 0.398473 0.215684 0.891459
    outer loop
      vertex 253.739 56.0901 121.885
      vertex 177.962 118.59 140.635
      vertex 176.996 117.188 141.406
    endloop
  endfacet
  facet normal 0.398439 0.215632 0.891487
    outer loop
      vertex 252.773 54.6875 122.656
      vertex 253.739 56.0901 121.885
      vertex 176.996 117.188 141.406
    endloop
  endfacet
  facet normal -0.531243 -0.757769 0.378903
    outer loop
      vertex 249.487 53.0611 114.795
      vertex 176.996 117.188 141.406
      vertex 173.71 115.561 133.545
    endloop
  endfacet
  facet normal -0.531267 -0.757776 0.378856
    outer loop
      vertex 176.996 117.188 141.406
      vertex 249.487 53.0611 114.795
      vertex 252.773 54.6875 122.656
    endloop
  endfacet
  facet normal -0.875049 -0.24623 0.416726
    outer loop
      vertex 252.773 54.6875 122.656
      vertex 249.487 53.0611 114.795
      vertex 248.985 52.8125 113.594
    endloop
  endfacet
  facet normal -0.412716 -0.236506 -0.879619
    outer loop
      vertex 174.199 116.772 131.486
      vertex 248.984 52.8126 113.594
      vertex 173.207 115.312 132.344
    endloop
  endfacet
  facet normal -0.0481668 -0.481668 -0.875029
    outer loop
      vertex 248.984 52.8126 113.594
      vertex 249.976 54.2721 112.736
      vertex 248.985 52.8125 113.594
    endloop
  endfacet
  facet normal -0.412747 -0.23655 -0.879593
    outer loop
      vertex 249.976 54.2721 112.736
      vertex 248.984 52.8126 113.594
      vertex 174.199 116.772 131.486
    endloop
  endfacet
  facet normal -0.475237 -0.331713 -0.814933
    outer loop
      vertex 175.076 118.159 130.41
      vertex 249.976 54.2721 112.736
      vertex 174.199 116.772 131.486
    endloop
  endfacet
  facet normal -0.475276 -0.331772 -0.814887
    outer loop
      vertex 250.853 55.6586 111.66
      vertex 249.976 54.2721 112.736
      vertex 175.076 118.159 130.41
    endloop
  endfacet
  facet normal -0.529627 -0.421266 -0.736227
    outer loop
      vertex 175.076 118.159 130.41
      vertex 251.601 56.9482 110.384
      vertex 250.853 55.6586 111.66
    endloop
  endfacet
  facet normal -0.529674 -0.421352 -0.736144
    outer loop
      vertex 251.601 56.9482 110.384
      vertex 175.076 118.159 130.41
      vertex 175.824 119.448 129.134
    endloop
  endfacet
  facet normal -0.574746 -0.503255 -0.645291
    outer loop
      vertex 176.43 120.619 127.681
      vertex 251.601 56.9482 110.384
      vertex 175.824 119.448 129.134
    endloop
  endfacet
  facet normal -0.574668 -0.503114 -0.645471
    outer loop
      vertex 252.208 58.119 108.931
      vertex 251.601 56.9482 110.384
      vertex 176.43 120.619 127.681
    endloop
  endfacet
  facet normal -0.610142 -0.576823 -0.543142
    outer loop
      vertex 176.884 121.651 126.075
      vertex 252.208 58.119 108.931
      vertex 176.43 120.619 127.681
    endloop
  endfacet
  facet normal -0.610233 -0.577013 -0.542837
    outer loop
      vertex 252.661 59.1508 107.325
      vertex 252.208 58.119 108.931
      vertex 176.884 121.651 126.075
    endloop
  endfacet
  facet normal -0.635121 -0.640541 -0.431658
    outer loop
      vertex 177.178 122.526 124.344
      vertex 252.661 59.1508 107.325
      vertex 176.884 121.651 126.075
    endloop
  endfacet
  facet normal -0.635105 -0.640499 -0.431744
    outer loop
      vertex 252.661 59.1508 107.325
      vertex 177.178 122.526 124.344
      vertex 252.955 60.0261 105.594
    endloop
  endfacet
  facet normal -0.649244 -0.693413 -0.312509
    outer loop
      vertex 177.306 123.23 122.516
      vertex 252.955 60.0261 105.594
      vertex 177.178 122.526 124.344
    endloop
  endfacet
  facet normal -0.649249 -0.693437 -0.312442
    outer loop
      vertex 252.955 60.0261 105.594
      vertex 177.306 123.23 122.516
      vertex 253.083 60.7299 103.766
    endloop
  endfacet
  facet normal -0.652218 -0.734233 -0.188453
    outer loop
      vertex 253.083 60.7299 103.766
      vertex 177.306 123.23 122.516
      vertex 177.267 123.75 120.625
    endloop
  endfacet
  facet normal -0.652218 -0.734223 -0.188489
    outer loop
      vertex 253.044 61.25 101.875
      vertex 253.083 60.7299 103.766
      vertex 177.267 123.75 120.625
    endloop
  endfacet
  facet normal -0.0625009 0.216506 -0.974279
    outer loop
      vertex 183.762 131.25 121.875
      vertex 253.044 61.25 101.875
      vertex 177.267 123.75 120.625
    endloop
  endfacet
  facet normal -0.062502 0.216504 -0.974279
    outer loop
      vertex 253.506 61.7838 101.964
      vertex 183.762 131.25 121.875
      vertex 259.539 68.75 103.125
    endloop
  endfacet
  facet normal -0.11791 0.261761 -0.957903
    outer loop
      vertex 253.506 61.7838 101.964
      vertex 259.539 68.75 103.125
      vertex 253.044 61.25 101.875
    endloop
  endfacet
  facet normal -0.062485 0.216521 -0.974276
    outer loop
      vertex 253.044 61.25 101.875
      vertex 183.762 131.25 121.875
      vertex 253.506 61.7838 101.964
    endloop
  endfacet
  facet normal 0.65141 0.741331 0.161534
    outer loop
      vertex 183.833 130.793 123.686
      vertex 259.539 68.75 103.125
      vertex 183.762 131.25 121.875
    endloop
  endfacet
  facet normal 0.65139 0.74143 0.161159
    outer loop
      vertex 259.611 68.2931 104.936
      vertex 259.539 68.75 103.125
      vertex 183.833 130.793 123.686
    endloop
  endfacet
  facet normal 0.0808875 0.968783 -0.234343
    outer loop
      vertex 166.058 118.485 142.979
      vertex 165.532 116.154 133.161
      vertex 164.204 118.589 142.769
    endloop
  endfacet
  facet normal 0.0809502 0.968755 -0.234435
    outer loop
      vertex 165.532 116.154 133.161
      vertex 163.615 116.214 132.747
      vertex 162.368 118.66 142.424
    endloop
  endfacet
  facet normal 0.0812546 0.968749 -0.234355
    outer loop
      vertex 166.058 118.485 142.979
      vertex 167.483 116.031 133.329
      vertex 165.532 116.154 133.161
    endloop
  endfacet
  facet normal 0.081481 0.968755 -0.234254
    outer loop
      vertex 164.204 118.589 142.769
      vertex 165.532 116.154 133.161
      vertex 162.368 118.66 142.424
    endloop
  endfacet
  facet normal 0.0809186 0.968747 -0.234481
    outer loop
      vertex 160.56 118.696 141.947
      vertex 163.615 116.214 132.747
      vertex 158.792 118.697 141.341
    endloop
  endfacet
  facet normal 0.0811498 0.968758 -0.234354
    outer loop
      vertex 163.615 116.214 132.747
      vertex 161.765 116.211 132.094
      vertex 158.792 118.697 141.341
    endloop
  endfacet
  facet normal 0.0812699 0.968758 -0.234316
    outer loop
      vertex 158.792 118.697 141.341
      vertex 161.765 116.211 132.094
      vertex 157.072 118.664 140.608
    endloop
  endfacet
  facet normal 0.0809824 0.968768 -0.234372
    outer loop
      vertex 157.072 118.664 140.608
      vertex 160.013 116.145 131.212
      vertex 155.411 118.596 139.753
    endloop
  endfacet
  facet normal 0.081548 0.968793 -0.234074
    outer loop
      vertex 155.411 118.596 139.753
      vertex 160.013 116.145 131.212
      vertex 153.818 118.495 138.78
    endloop
  endfacet
  facet normal 0.0811413 0.96875 -0.234394
    outer loop
      vertex 160.013 116.145 131.212
      vertex 158.39 116.016 130.117
      vertex 153.818 118.495 138.78
    endloop
  endfacet
  facet normal 0.081424 0.968765 -0.234233
    outer loop
      vertex 161.765 116.211 132.094
      vertex 160.013 116.145 131.212
      vertex 157.072 118.664 140.608
    endloop
  endfacet
  facet normal 0.0809195 0.968727 -0.234564
    outer loop
      vertex 153.818 118.495 138.78
      vertex 157.742 116.265 130.924
      vertex 152.301 118.359 137.695
    endloop
  endfacet
  facet normal 0.0788072 0.96865 -0.235597
    outer loop
      vertex 157.742 116.265 130.924
      vertex 153.818 118.495 138.78
      vertex 158.39 116.016 130.117
    endloop
  endfacet
  facet normal 0.0811329 0.968746 -0.23441
    outer loop
      vertex 162.368 118.66 142.424
      vertex 163.615 116.214 132.747
      vertex 160.56 118.696 141.947
    endloop
  endfacet
  facet normal 0.0813304 0.968735 -0.23439
    outer loop
      vertex 167.921 118.347 143.053
      vertex 169.782 118.176 142.992
      vertex 167.483 116.031 133.329
    endloop
  endfacet
  facet normal 0.0813484 0.968732 -0.234394
    outer loop
      vertex 169.782 118.176 142.992
      vertex 169.435 115.847 133.246
      vertex 167.483 116.031 133.329
    endloop
  endfacet
  facet normal 0.0810698 0.968758 -0.234384
    outer loop
      vertex 167.921 118.347 143.053
      vertex 167.483 116.031 133.329
      vertex 166.058 118.485 142.979
    endloop
  endfacet
  facet normal 0.0814261 0.968725 -0.234395
    outer loop
      vertex 169.782 118.176 142.992
      vertex 171.63 117.973 142.795
      vertex 169.435 115.847 133.246
    endloop
  endfacet
  facet normal 0.0813545 0.968735 -0.234381
    outer loop
      vertex 171.63 117.973 142.795
      vertex 171.354 115.606 132.916
      vertex 169.435 115.847 133.246
    endloop
  endfacet
  facet normal 0.0811722 0.96875 -0.23438
    outer loop
      vertex 171.63 117.973 142.795
      vertex 173.455 117.74 142.464
      vertex 171.354 115.606 132.916
    endloop
  endfacet
  facet normal 0.0809632 0.968778 -0.23434
    outer loop
      vertex 173.455 117.74 142.464
      vertex 175.247 117.478 142
      vertex 171.354 115.606 132.916
    endloop
  endfacet
  facet normal 0.081317 0.968714 -0.234478
    outer loop
      vertex 175.247 117.478 142
      vertex 173.207 115.312 132.344
      vertex 171.354 115.606 132.916
    endloop
  endfacet
  facet normal 0.0810128 0.968753 -0.234423
    outer loop
      vertex 175.247 117.478 142
      vertex 176.996 117.188 141.406
      vertex 173.207 115.312 132.344
    endloop
  endfacet
  facet normal -0.0812037 -0.968746 0.234385
    outer loop
      vertex 157.413 19.2785 156.599
      vertex 157.939 21.6096 166.416
      vertex 156.085 21.7142 166.206
    endloop
  endfacet
  facet normal -0.0812383 -0.968748 0.234366
    outer loop
      vertex 155.496 19.3391 156.185
      vertex 157.413 19.2785 156.599
      vertex 154.249 21.7848 165.862
    endloop
  endfacet
  facet normal -0.0811371 -0.968753 0.234383
    outer loop
      vertex 159.364 19.1555 156.766
      vertex 157.939 21.6096 166.416
      vertex 157.413 19.2785 156.599
    endloop
  endfacet
  facet normal -0.0811677 -0.968748 0.23439
    outer loop
      vertex 157.413 19.2785 156.599
      vertex 156.085 21.7142 166.206
      vertex 154.249 21.7848 165.862
    endloop
  endfacet
  facet normal -0.0812283 -0.968751 0.234358
    outer loop
      vertex 155.496 19.3391 156.185
      vertex 152.441 21.8209 165.385
      vertex 150.673 21.8223 164.778
    endloop
  endfacet
  facet normal -0.0812259 -0.968751 0.234359
    outer loop
      vertex 153.646 19.336 155.531
      vertex 155.496 19.3391 156.185
      vertex 150.673 21.8223 164.778
    endloop
  endfacet
  facet normal -0.0811821 -0.968751 0.234373
    outer loop
      vertex 153.646 19.336 155.531
      vertex 150.673 21.8223 164.778
      vertex 148.953 21.7891 164.045
    endloop
  endfacet
  facet normal -0.0811698 -0.968747 0.234394
    outer loop
      vertex 151.894 19.2695 154.65
      vertex 148.953 21.7891 164.045
      vertex 147.292 21.7214 163.19
    endloop
  endfacet
  facet normal -0.0812838 -0.968752 0.234334
    outer loop
      vertex 151.894 19.2695 154.65
      vertex 147.292 21.7214 163.19
      vertex 145.699 21.6197 162.217
    endloop
  endfacet
  facet normal -0.0812038 -0.968743 0.234397
    outer loop
      vertex 150.271 19.1406 153.555
      vertex 151.894 19.2695 154.65
      vertex 145.699 21.6197 162.217
    endloop
  endfacet
  facet normal -0.0811058 -0.968747 0.234414
    outer loop
      vertex 151.894 19.2695 154.65
      vertex 153.646 19.336 155.531
      vertex 148.953 21.7891 164.045
    endloop
  endfacet
  facet normal -0.0811218 -0.96874 0.234439
    outer loop
      vertex 150.271 19.1406 153.555
      vertex 145.699 21.6197 162.217
      vertex 144.182 21.4844 161.133
    endloop
  endfacet
  facet normal -0.0811774 -0.968751 0.234375
    outer loop
      vertex 155.496 19.3391 156.185
      vertex 154.249 21.7848 165.862
      vertex 152.441 21.8209 165.385
    endloop
  endfacet
  facet normal -0.0812279 -0.968747 0.234375
    outer loop
      vertex 161.663 21.3008 166.43
      vertex 159.802 21.4716 166.491
      vertex 159.364 19.1555 156.766
    endloop
  endfacet
  facet normal -0.081174 -0.968754 0.234363
    outer loop
      vertex 161.316 18.9721 156.684
      vertex 161.663 21.3008 166.43
      vertex 159.364 19.1555 156.766
    endloop
  endfacet
  facet normal -0.0811946 -0.96875 0.234374
    outer loop
      vertex 159.364 19.1555 156.766
      vertex 159.802 21.4716 166.491
      vertex 157.939 21.6096 166.416
    endloop
  endfacet
  facet normal -0.0811706 -0.968754 0.234363
    outer loop
      vertex 163.511 21.0983 166.233
      vertex 161.663 21.3008 166.43
      vertex 161.316 18.9721 156.684
    endloop
  endfacet
  facet normal -0.0812068 -0.96875 0.234371
    outer loop
      vertex 163.235 18.7314 156.354
      vertex 163.511 21.0983 166.233
      vertex 161.316 18.9721 156.684
    endloop
  endfacet
  facet normal -0.0812265 -0.968748 0.234371
    outer loop
      vertex 165.336 20.8652 165.902
      vertex 163.511 21.0983 166.233
      vertex 163.235 18.7314 156.354
    endloop
  endfacet
  facet normal -0.0811709 -0.968755 0.23436
    outer loop
      vertex 167.128 20.6028 165.438
      vertex 165.336 20.8652 165.902
      vertex 163.235 18.7314 156.354
    endloop
  endfacet
  facet normal -0.0811799 -0.968754 0.234364
    outer loop
      vertex 165.088 18.4375 155.781
      vertex 167.128 20.6028 165.438
      vertex 163.235 18.7314 156.354
    endloop
  endfacet
  facet normal -0.0811976 -0.968751 0.234367
    outer loop
      vertex 168.877 20.3125 164.844
      vertex 167.128 20.6028 165.438
      vertex 165.088 18.4375 155.781
    endloop
  endfacet
  facet normal 0.273279 0.204508 0.939944
    outer loop
      vertex 165.336 20.8652 165.902
      vertex 175.247 117.478 142
      vertex 173.455 117.74 142.464
    endloop
  endfacet
  facet normal 0.27332 0.204501 0.939934
    outer loop
      vertex 175.247 117.478 142
      vertex 165.336 20.8652 165.902
      vertex 167.128 20.6028 165.438
    endloop
  endfacet
  facet normal 0.200747 0.214444 0.955884
    outer loop
      vertex 163.511 21.0983 166.233
      vertex 173.455 117.74 142.464
      vertex 171.63 117.973 142.795
    endloop
  endfacet
  facet normal 0.200758 0.214442 0.955882
    outer loop
      vertex 173.455 117.74 142.464
      vertex 163.511 21.0983 166.233
      vertex 165.336 20.8652 165.902
    endloop
  endfacet
  facet normal 0.127531 0.223125 0.966411
    outer loop
      vertex 161.663 21.3008 166.43
      vertex 171.63 117.973 142.795
      vertex 169.782 118.176 142.992
    endloop
  endfacet
  facet normal 0.127472 0.223133 0.966417
    outer loop
      vertex 171.63 117.973 142.795
      vertex 161.663 21.3008 166.43
      vertex 163.511 21.0983 166.233
    endloop
  endfacet
  facet normal 0.0530381 0.230623 0.971597
    outer loop
      vertex 159.802 21.4716 166.491
      vertex 169.782 118.176 142.992
      vertex 167.921 118.347 143.053
    endloop
  endfacet
  facet normal 0.0530136 0.230625 0.971597
    outer loop
      vertex 169.782 118.176 142.992
      vertex 159.802 21.4716 166.491
      vertex 161.663 21.3008 166.43
    endloop
  endfacet
  facet normal -0.021044 0.236769 0.971338
    outer loop
      vertex 166.058 118.485 142.979
      vertex 159.802 21.4716 166.491
      vertex 167.921 118.347 143.053
    endloop
  endfacet
  facet normal -0.0215625 0.236798 0.97132
    outer loop
      vertex 159.802 21.4716 166.491
      vertex 166.058 118.485 142.979
      vertex 157.939 21.6096 166.416
    endloop
  endfacet
  facet normal -0.0958198 0.241643 0.965623
    outer loop
      vertex 164.204 118.589 142.769
      vertex 157.939 21.6096 166.416
      vertex 166.058 118.485 142.979
    endloop
  endfacet
  facet normal -0.0957427 0.24164 0.965631
    outer loop
      vertex 157.939 21.6096 166.416
      vertex 164.204 118.589 142.769
      vertex 156.085 21.7142 166.206
    endloop
  endfacet
  facet normal -0.169875 0.245156 0.954485
    outer loop
      vertex 164.204 118.589 142.769
      vertex 162.368 118.66 142.424
      vertex 156.085 21.7142 166.206
    endloop
  endfacet
  facet normal -0.169425 0.245147 0.954567
    outer loop
      vertex 156.085 21.7142 166.206
      vertex 162.368 118.66 142.424
      vertex 154.249 21.7848 165.862
    endloop
  endfacet
  facet normal -0.242569 0.24729 0.938087
    outer loop
      vertex 162.368 118.66 142.424
      vertex 160.56 118.696 141.947
      vertex 154.249 21.7848 165.862
    endloop
  endfacet
  facet normal -0.242556 0.24729 0.938091
    outer loop
      vertex 154.249 21.7848 165.862
      vertex 160.56 118.696 141.947
      vertex 152.441 21.8209 165.385
    endloop
  endfacet
  facet normal -0.313984 0.248042 0.916455
    outer loop
      vertex 158.792 118.697 141.341
      vertex 152.441 21.8209 165.385
      vertex 160.56 118.696 141.947
    endloop
  endfacet
  facet normal -0.314398 0.248034 0.916315
    outer loop
      vertex 152.441 21.8209 165.385
      vertex 158.792 118.697 141.341
      vertex 150.673 21.8223 164.778
    endloop
  endfacet
  facet normal -0.383872 0.2474 0.889626
    outer loop
      vertex 158.792 118.697 141.341
      vertex 157.072 118.664 140.608
      vertex 150.673 21.8223 164.778
    endloop
  endfacet
  facet normal -0.383897 0.247399 0.889616
    outer loop
      vertex 150.673 21.8223 164.778
      vertex 157.072 118.664 140.608
      vertex 148.953 21.7891 164.045
    endloop
  endfacet
  facet normal -0.451605 0.24538 0.857812
    outer loop
      vertex 157.072 118.664 140.608
      vertex 155.411 118.596 139.753
      vertex 148.953 21.7891 164.045
    endloop
  endfacet
  facet normal -0.45157 0.245382 0.85783
    outer loop
      vertex 148.953 21.7891 164.045
      vertex 155.411 118.596 139.753
      vertex 147.292 21.7214 163.19
    endloop
  endfacet
  facet normal -0.516891 0.24198 0.821139
    outer loop
      vertex 153.818 118.495 138.78
      vertex 147.292 21.7214 163.19
      vertex 155.411 118.596 139.753
    endloop
  endfacet
  facet normal -0.516969 0.241973 0.821092
    outer loop
      vertex 147.292 21.7214 163.19
      vertex 153.818 118.495 138.78
      vertex 145.699 21.6197 162.217
    endloop
  endfacet
  facet normal -0.579119 0.237231 0.779963
    outer loop
      vertex 152.301 118.359 137.695
      vertex 145.699 21.6197 162.217
      vertex 153.818 118.495 138.78
    endloop
  endfacet
  facet normal -0.578708 0.237277 0.780254
    outer loop
      vertex 145.699 21.6197 162.217
      vertex 152.301 118.359 137.695
      vertex 144.182 21.4844 161.133
    endloop
  endfacet
  facet normal -0.789046 -0.0811997 -0.608945
    outer loop
      vertex 157.742 116.265 130.924
      vertex 144.182 21.4844 161.133
      vertex 152.301 118.359 137.695
    endloop
  endfacet
  facet normal -0.789047 -0.0811991 -0.608943
    outer loop
      vertex 149.623 19.3902 154.362
      vertex 144.182 21.4844 161.133
      vertex 157.742 116.265 130.924
    endloop
  endfacet
  facet normal -0.00645792 0.953853 -0.300206
    outer loop
      vertex 149.623 19.3902 154.362
      vertex 150.271 19.1406 153.555
      vertex 144.182 21.4844 161.133
    endloop
  endfacet
  facet normal 0.556048 -0.239183 -0.795991
    outer loop
      vertex 151.894 19.2695 154.65
      vertex 158.39 116.016 130.117
      vertex 160.013 116.145 131.212
    endloop
  endfacet
  facet normal 0.556038 -0.239184 -0.795998
    outer loop
      vertex 151.894 19.2695 154.65
      vertex 150.271 19.1406 153.555
      vertex 158.39 116.016 130.117
    endloop
  endfacet
  facet normal 0.443243 -0.245708 -0.862069
    outer loop
      vertex 153.646 19.336 155.531
      vertex 160.013 116.145 131.212
      vertex 161.765 116.211 132.094
    endloop
  endfacet
  facet normal 0.442906 -0.245728 -0.862237
    outer loop
      vertex 160.013 116.145 131.212
      vertex 153.646 19.336 155.531
      vertex 151.894 19.2695 154.65
    endloop
  endfacet
  facet normal 0.322803 -0.248039 -0.913386
    outer loop
      vertex 155.496 19.3391 156.185
      vertex 161.765 116.211 132.094
      vertex 163.615 116.214 132.747
    endloop
  endfacet
  facet normal 0.323255 -0.24803 -0.913229
    outer loop
      vertex 161.765 116.211 132.094
      vertex 155.496 19.3391 156.185
      vertex 153.646 19.336 155.531
    endloop
  endfacet
  facet normal 0.197236 -0.246121 -0.948959
    outer loop
      vertex 157.413 19.2785 156.599
      vertex 163.615 116.214 132.747
      vertex 165.532 116.154 133.161
    endloop
  endfacet
  facet normal 0.197162 -0.24612 -0.948974
    outer loop
      vertex 163.615 116.214 132.747
      vertex 157.413 19.2785 156.599
      vertex 155.496 19.3391 156.185
    endloop
  endfacet
  facet normal 0.0682548 -0.240007 -0.968369
    outer loop
      vertex 165.532 116.154 133.161
      vertex 167.483 116.031 133.329
      vertex 157.413 19.2785 156.599
    endloop
  endfacet
  facet normal 0.0677648 -0.239967 -0.968413
    outer loop
      vertex 167.483 116.031 133.329
      vertex 159.364 19.1555 156.766
      vertex 157.413 19.2785 156.599
    endloop
  endfacet
  facet normal -0.0629483 -0.229692 -0.971226
    outer loop
      vertex 167.483 116.031 133.329
      vertex 169.435 115.847 133.246
      vertex 159.364 19.1555 156.766
    endloop
  endfacet
  facet normal -0.062387 -0.229756 -0.971247
    outer loop
      vertex 169.435 115.847 133.246
      vertex 161.316 18.9721 156.684
      vertex 159.364 19.1555 156.766
    endloop
  endfacet
  facet normal -0.191695 -0.215589 -0.957483
    outer loop
      vertex 161.316 18.9721 156.684
      vertex 171.354 115.606 132.916
      vertex 163.235 18.7314 156.354
    endloop
  endfacet
  facet normal -0.191727 -0.215585 -0.957478
    outer loop
      vertex 171.354 115.606 132.916
      vertex 161.316 18.9721 156.684
      vertex 169.435 115.847 133.246
    endloop
  endfacet
  facet normal -0.318077 -0.197668 -0.927229
    outer loop
      vertex 163.235 18.7314 156.354
      vertex 173.207 115.312 132.344
      vertex 165.088 18.4375 155.781
    endloop
  endfacet
  facet normal -0.317641 -0.197746 -0.927362
    outer loop
      vertex 173.207 115.312 132.344
      vertex 163.235 18.7314 156.354
      vertex 171.354 115.606 132.916
    endloop
  endfacet
  facet normal 0.92187 -0.162381 -0.351834
    outer loop
      vertex 165.088 18.4375 155.781
      vertex 173.552 115.483 133.169
      vertex 176.996 117.188 141.406
    endloop
  endfacet
  facet normal 0.921877 -0.16238 -0.351818
    outer loop
      vertex 165.088 18.4375 155.781
      vertex 176.996 117.188 141.406
      vertex 168.877 20.3125 164.844
    endloop
  endfacet
  facet normal 0.921864 -0.162384 -0.351849
    outer loop
      vertex 173.552 115.483 133.169
      vertex 165.088 18.4375 155.781
      vertex 173.207 115.312 132.344
    endloop
  endfacet
  facet normal -0.914843 0.22366 0.336212
    outer loop
      vertex 173.207 115.312 132.344
      vertex 176.996 117.188 141.406
      vertex 173.552 115.483 133.169
    endloop
  endfacet
  facet normal 0.344115 0.193451 0.918783
    outer loop
      vertex 167.128 20.6028 165.438
      vertex 176.996 117.188 141.406
      vertex 175.247 117.478 142
    endloop
  endfacet
  facet normal 0.344144 0.193445 0.918773
    outer loop
      vertex 176.996 117.188 141.406
      vertex 167.128 20.6028 165.438
      vertex 168.877 20.3125 164.844
    endloop
  endfacet
endsolid OpenSCAD_Model
