0
SECTION
2
ENTITIES
0
LINE
8
PARAMETRIX
10
0.0000
20
0.0000
11
200.0000
21
0.0000
0
LINE
8
PARAMETRIX
10
200.0000
20
0.0000
11
220.9440
21
0.0000
0
LINE
8
PARAMETRIX
10
220.9440
20
0.0000
11
307.5465
21
50.0000
0
LINE
8
PARAMETRIX
10
307.5465
20
50.0000
11
318.0185
21
68.1380
0
LINE
8
PARAMETRIX
10
318.0185
20
68.1380
11
338.9624
21
68.1380
0
LINE
8
PARAMETRIX
10
338.9624
20
68.1380
11
425.5650
21
118.1380
0
LINE
8
PARAMETRIX
10
425.5650
20
118.1380
11
436.0369
21
136.2760
0
LINE
8
PARAMETRIX
10
436.0369
20
136.2760
11
486.0369
21
222.8785
0
LINE
8
PARAMETRIX
10
486.0369
20
222.8785
11
399.4344
21
272.8785
0
LINE
8
PARAMETRIX
10
399.4344
20
272.8785
11
349.4344
21
186.2760
0
LINE
8
PARAMETRIX
10
349.4344
20
186.2760
11
338.9624
21
168.1380
0
LINE
8
PARAMETRIX
10
338.9624
20
168.1380
11
318.0185
21
168.1380
0
LINE
8
PARAMETRIX
10
318.0185
20
168.1380
11
231.4159
21
118.1380
0
LINE
8
PARAMETRIX
10
231.4159
20
118.1380
11
220.9440
21
100.0000
0
LINE
8
PARAMETRIX
10
220.9440
20
100.0000
11
200.0000
21
100.0000
0
LINE
8
PARAMETRIX
10
200.0000
20
100.0000
11
0.0000
21
100.0000
0
LINE
8
PARAMETRIX
10
0.0000
20
100.0000
11
0.0000
21
0.0000
0
LINE
8
PARAMETRIX
10
0.0000
20
0.0000
11
200.0000
21
0.0000
0
LINE
8
PARAMETRIX
10
200.0000
20
0.0000
11
220.9440
21
0.0000
0
LINE
8
PARAMETRIX
10
220.9440
20
0.0000
11
307.5465
21
50.0000
0
LINE
8
PARAMETRIX
10
307.5465
20
50.0000
11
318.0185
21
68.1380
0
LINE
8
PARAMETRIX
10
318.0185
20
68.1380
11
338.9624
21
68.1380
0
LINE
8
PARAMETRIX
10
338.9624
20
68.1380
11
425.5650
21
118.1380
0
LINE
8
PARAMETRIX
10
425.5650
20
118.1380
11
436.0369
21
136.2760
0
LINE
8
PARAMETRIX
10
436.0369
20
136.2760
11
486.0369
21
222.8785
0
LINE
8
PARAMETRIX
10
486.0369
20
222.8785
11
399.4344
21
272.8785
0
LINE
8
PARAMETRIX
10
399.4344
20
272.8785
11
349.4344
21
186.2760
0
LINE
8
PARAMETRIX
10
349.4344
20
186.2760
11
338.9624
21
168.1380
0
LINE
8
PARAMETRIX
10
338.9624
20
168.1380
11
318.0185
21
168.1380
0
LINE
8
PARAMETRIX
10
318.0185
20
168.1380
11
231.4159
21
118.1380
0
LINE
8
PARAMETRIX
10
231.4159
20
118.1380
11
220.9440
21
100.0000
0
LINE
8
PARAMETRIX
10
220.9440
20
100.0000
11
200.0000
21
100.0000
0
LINE
8
PARAMETRIX
10
200.0000
20
100.0000
11
0.0000
21
100.0000
0
LINE
8
PARAMETRIX
10
0.0000
20
100.0000
11
0.0000
21
0.0000
0
ARC
8
PARAMETRIX
10
219.9440
20
50.0000
40
1.0000
50
270.0000
51
90.0000
0
LINE
8
PARAMETRIX
10
219.9440
20
51.0000
11
201.0000
21
51.0000
0
ARC
8
PARAMETRIX
10
201.0000
20
50.0000
40
1.0000
50
90.0000
51
270.0000
0
LINE
8
PARAMETRIX
10
201.0000
20
49.0000
11
219.9440
21
49.0000
0
ARC
8
PARAMETRIX
10
264.7452
20
75.8660
40
1.0000
50
150.0000
51
330.0000
0
LINE
8
PARAMETRIX
10
265.6112
20
75.3660
11
275.0832
21
91.7720
0
ARC
8
PARAMETRIX
10
274.2172
20
92.2720
40
1.0000
50
330.0000
51
150.0000
0
LINE
8
PARAMETRIX
10
273.3512
20
92.7720
11
263.8792
21
76.3660
0
ARC
8
PARAMETRIX
10
337.9624
20
118.1380
40
1.0000
50
270.0000
51
90.0000
0
LINE
8
PARAMETRIX
10
337.9624
20
119.1380
11
319.0185
21
119.1380
0
ARC
8
PARAMETRIX
10
319.0185
20
118.1380
40
1.0000
50
90.0000
51
270.0000
0
LINE
8
PARAMETRIX
10
319.0185
20
117.1380
11
337.9624
21
117.1380
0
ARC
8
PARAMETRIX
10
392.2357
20
160.4100
40
1.0000
50
330.0000
51
150.0000
0
LINE
8
PARAMETRIX
10
391.3696
20
160.9100
11
381.8977
21
144.5040
0
ARC
8
PARAMETRIX
10
382.7637
20
144.0040
40
1.0000
50
150.0000
51
330.0000
0
LINE
8
PARAMETRIX
10
383.6297
20
143.5040
11
393.1017
21
159.9100
0
ENDSEC
0
EOF
