0
SECTION
2
ENTITIES
0
LINE
8
PARAMETRIX
10
0.0000
20
0.0000
11
200.0000
21
0.0000
0
LINE
8
PARAMETRIX
10
200.0000
20
0.0000
11
200.0000
21
10.0000
0
LINE
8
PARAMETRIX
10
200.0000
20
10.0000
11
0.0000
21
10.0000
0
LINE
8
PARAMETRIX
10
0.0000
20
10.0000
11
0.0000
21
0.0000
0
ARC
8
PARAMETRIX
10
200.0000
20
25.0000
40
25.0000
50
270.0000
51
330.0000
0
LINE
8
PARAMETRIX
10
221.6506
20
12.5000
11
212.9904
21
17.5000
0
ARC
8
PARAMETRIX
10
200.0000
20
25.0000
40
15.0000
50
270.0000
51
330.0000
0
LINE
8
PARAMETRIX
10
200.0000
20
10.0000
11
200.0000
21
0.0000
0
LINE
8
PARAMETRIX
10
221.6506
20
12.5000
11
271.6506
21
99.1025
0
LINE
8
PARAMETRIX
10
271.6506
20
99.1025
11
262.9904
21
104.1025
0
LINE
8
PARAMETRIX
10
262.9904
20
104.1025
11
212.9904
21
17.5000
0
LINE
8
PARAMETRIX
10
212.9904
20
17.5000
11
221.6506
21
12.5000
0
ARC
8
PARAMETRIX
10
250.0000
20
111.6025
40
25.0000
50
330.0000
51
30.0000
0
LINE
8
PARAMETRIX
10
271.6506
20
124.1025
11
262.9904
21
119.1025
0
ARC
8
PARAMETRIX
10
250.0000
20
111.6025
40
15.0000
50
330.0000
51
30.0000
0
LINE
8
PARAMETRIX
10
262.9904
20
104.1025
11
271.6506
21
99.1025
0
LINE
8
PARAMETRIX
10
271.6506
20
124.1025
11
271.1506
21
124.9686
0
LINE
8
PARAMETRIX
10
271.1506
20
124.9686
11
262.4904
21
119.9686
0
LINE
8
PARAMETRIX
10
262.4904
20
119.9686
11
262.9904
21
119.1025
0
LINE
8
PARAMETRIX
10
262.9904
20
119.1025
11
271.6506
21
124.1025
0
ARC
8
PARAMETRIX
10
249.5000
20
112.4686
40
25.0000
50
30.0000
51
90.0000
0
LINE
8
PARAMETRIX
10
249.5000
20
137.4686
11
249.5000
21
127.4686
0
ARC
8
PARAMETRIX
10
249.5000
20
112.4686
40
15.0000
50
30.0000
51
90.0000
0
LINE
8
PARAMETRIX
10
262.4904
20
119.9686
11
271.1506
21
124.9686
0
LINE
8
PARAMETRIX
10
249.5000
20
137.4686
11
149.5000
21
137.4686
0
LINE
8
PARAMETRIX
10
149.5000
20
137.4686
11
149.5000
21
127.4686
0
LINE
8
PARAMETRIX
10
149.5000
20
127.4686
11
249.5000
21
127.4686
0
LINE
8
PARAMETRIX
10
249.5000
20
127.4686
11
249.5000
21
137.4686
0
ARC
8
PARAMETRIX
10
149.5000
20
112.4686
40
25.0000
50
90.0000
51
150.0000
0
LINE
8
PARAMETRIX
10
127.8494
20
124.9686
11
136.5096
21
119.9686
0
ARC
8
PARAMETRIX
10
149.5000
20
112.4686
40
15.0000
50
90.0000
51
150.0000
0
LINE
8
PARAMETRIX
10
149.5000
20
127.4686
11
149.5000
21
137.4686
0
LINE
8
PARAMETRIX
10
127.8494
20
124.9686
11
77.8494
21
38.3660
0
LINE
8
PARAMETRIX
10
77.8494
20
38.3660
11
86.5096
21
33.3660
0
LINE
8
PARAMETRIX
10
86.5096
20
33.3660
11
136.5096
21
119.9686
0
LINE
8
PARAMETRIX
10
136.5096
20
119.9686
11
127.8494
21
124.9686
0
LINE
8
PARAMETRIX
10
0.0000
20
400.0000
11
200.0000
21
400.0000
0
LINE
8
PARAMETRIX
10
200.0000
20
400.0000
11
200.0000
21
410.0000
0
LINE
8
PARAMETRIX
10
200.0000
20
410.0000
11
0.0000
21
410.0000
0
LINE
8
PARAMETRIX
10
0.0000
20
410.0000
11
0.0000
21
400.0000
0
ARC
8
PARAMETRIX
10
200.0000
20
425.0000
40
25.0000
50
270.0000
51
330.0000
0
LINE
8
PARAMETRIX
10
221.6506
20
412.5000
11
212.9904
21
417.5000
0
ARC
8
PARAMETRIX
10
200.0000
20
425.0000
40
15.0000
50
270.0000
51
330.0000
0
LINE
8
PARAMETRIX
10
200.0000
20
410.0000
11
200.0000
21
400.0000
0
LINE
8
PARAMETRIX
10
221.6506
20
412.5000
11
222.1506
21
413.3660
0
LINE
8
PARAMETRIX
10
222.1506
20
413.3660
11
213.4904
21
418.3660
0
LINE
8
PARAMETRIX
10
213.4904
20
418.3660
11
212.9904
21
417.5000
0
LINE
8
PARAMETRIX
10
212.9904
20
417.5000
11
221.6506
21
412.5000
0
ARC
8
PARAMETRIX
10
200.5000
20
425.8660
40
25.0000
50
330.0000
51
30.0000
0
LINE
8
PARAMETRIX
10
222.1506
20
438.3660
11
213.4904
21
433.3660
0
ARC
8
PARAMETRIX
10
200.5000
20
425.8660
40
15.0000
50
330.0000
51
30.0000
0
LINE
8
PARAMETRIX
10
213.4904
20
418.3660
11
222.1506
21
413.3660
0
LINE
8
PARAMETRIX
10
222.1506
20
438.3660
11
172.1506
21
524.9686
0
LINE
8
PARAMETRIX
10
172.1506
20
524.9686
11
163.4904
21
519.9686
0
LINE
8
PARAMETRIX
10
163.4904
20
519.9686
11
213.4904
21
433.3660
0
LINE
8
PARAMETRIX
10
213.4904
20
433.3660
11
222.1506
21
438.3660
0
ARC
8
PARAMETRIX
10
150.5000
20
512.4686
40
25.0000
50
30.0000
51
90.0000
0
LINE
8
PARAMETRIX
10
150.5000
20
537.4686
11
150.5000
21
527.4686
0
ARC
8
PARAMETRIX
10
150.5000
20
512.4686
40
15.0000
50
30.0000
51
90.0000
0
LINE
8
PARAMETRIX
10
163.4904
20
519.9686
11
172.1506
21
524.9686
0
LINE
8
PARAMETRIX
10
150.5000
20
537.4686
11
149.5000
21
537.4686
0
LINE
8
PARAMETRIX
10
149.5000
20
537.4686
11
149.5000
21
527.4686
0
LINE
8
PARAMETRIX
10
149.5000
20
527.4686
11
150.5000
21
527.4686
0
LINE
8
PARAMETRIX
10
150.5000
20
527.4686
11
150.5000
21
537.4686
0
ARC
8
PARAMETRIX
10
149.5000
20
512.4686
40
25.0000
50
90.0000
51
150.0000
0
LINE
8
PARAMETRIX
10
127.8494
20
524.9686
11
136.5096
21
519.9686
0
ARC
8
PARAMETRIX
10
149.5000
20
512.4686
40
15.0000
50
90.0000
51
150.0000
0
LINE
8
PARAMETRIX
10
149.5000
20
527.4686
11
149.5000
21
537.4686
0
LINE
8
PARAMETRIX
10
127.8494
20
524.9686
11
77.8494
21
438.3660
0
LINE
8
PARAMETRIX
10
77.8494
20
438.3660
11
86.5096
21
433.3660
0
LINE
8
PARAMETRIX
10
86.5096
20
433.3660
11
136.5096
21
519.9686
0
LINE
8
PARAMETRIX
10
136.5096
20
519.9686
11
127.8494
21
524.9686
0
ENDSEC
0
EOF
