<svg width="545" height="310" viewBox="-27 -15 545 310" xmlns="http://www.w3.org/2000/svg"><path d="M 0.0000 272.8785 L 200.0000 272.8785 L 220.9440 272.8785 L 307.5465 222.8785 L 318.0185 204.7405 L 338.9624 204.7405 L 425.5650 154.7405 L 436.0369 136.6025 L 486.0369 50.0000 L 399.4344 0.0000 L 349.4344 86.6025 L 338.9624 104.7405 L 318.0185 104.7405 L 231.4159 154.7405 L 220.9440 172.8785 L 200.0000 172.8785 L 0.0000 172.8785 L 0.0000 272.8785 Z" stroke="green" stroke-width="1" fill="none" /><path d="M 0.0000 272.8785 L 200.0000 272.8785 L 220.9440 272.8785 L 307.5465 222.8785 L 318.0185 204.7405 L 338.9624 204.7405 L 425.5650 154.7405 L 436.0369 136.6025 L 486.0369 50.0000 L 399.4344 0.0000 L 349.4344 86.6025 L 338.9624 104.7405 L 318.0185 104.7405 L 231.4159 154.7405 L 220.9440 172.8785 L 200.0000 172.8785 L 0.0000 172.8785 L 0.0000 272.8785 Z" stroke="green" stroke-width="1" fill="none" /><path d="M 219.9440 223.8785 A 1.0000 1.0000 0 0 0 219.9440 221.8785 L 201.0000 221.8785 A 1.0000 1.0000 0 0 0 201.0000 223.8785 L 219.9440 223.8785 Z" stroke="green" stroke-width="1" fill="none" /><path d="M 263.8792 196.5125 A 1.0000 1.0000 0 0 0 265.6112 197.5125 L 275.0832 181.1066 A 1.0000 1.0000 0 1 0 273.3512 180.1066 L 263.8792 196.5125 Z" stroke="green" stroke-width="1" fill="none" /><path d="M 337.9624 155.7405 A 1.0000 1.0000 0 0 0 337.9624 153.7405 L 319.0185 153.7405 A 1.0000 1.0000 0 0 0 319.0185 155.7405 L 337.9624 155.7405 Z" stroke="green" stroke-width="1" fill="none" /><path d="M 393.1017 112.9686 A 1.0000 1.0000 0 1 0 391.3696 111.9686 L 381.8977 128.3745 A 1.0000 1.0000 0 1 0 383.6297 129.3745 L 393.1017 112.9686 Z" stroke="green" stroke-width="1" fill="none" /></svg>