<svg width="313" height="601" viewBox="-16 -30 313 601" xmlns="http://www.w3.org/2000/svg"><path d="M 0.0000 537.4686 L 200.0000 537.4686 L 200.0000 527.4686 L 0.0000 527.4686 L 0.0000 537.4686 Z" stroke="green" stroke-width="1" fill="none" /><path d="M 200.0000 537.4686 A 25.0000 25.0000 0 0 0 221.6506 524.9686 L 212.9904 519.9686 A 15.0000 15.0000 0 0 1 200.0000 527.4686 L 200.0000 537.4686 Z" stroke="green" stroke-width="1" fill="none" /><path d="M 221.6506 524.9686 L 271.6506 438.3660 L 262.9904 433.3660 L 212.9904 519.9686 L 221.6506 524.9686 Z" stroke="green" stroke-width="1" fill="none" /><path d="M 271.6506 438.3660 A 25.0000 25.0000 0 0 0 271.6506 413.3660 L 262.9904 418.3660 A 15.0000 15.0000 0 0 1 262.9904 433.3660 L 271.6506 438.3660 Z" stroke="green" stroke-width="1" fill="none" /><path d="M 271.6506 413.3660 L 271.1506 412.5000 L 262.4904 417.5000 L 262.9904 418.3660 L 271.6506 413.3660 Z" stroke="green" stroke-width="1" fill="none" /><path d="M 271.1506 412.5000 A 25.0000 25.0000 0 0 0 249.5000 400.0000 L 249.5000 410.0000 A 15.0000 15.0000 0 0 1 262.4904 417.5000 L 271.1506 412.5000 Z" stroke="green" stroke-width="1" fill="none" /><path d="M 249.5000 400.0000 L 149.5000 400.0000 L 149.5000 410.0000 L 249.5000 410.0000 L 249.5000 400.0000 Z" stroke="green" stroke-width="1" fill="none" /><path d="M 149.5000 400.0000 A 25.0000 25.0000 0 0 0 127.8494 412.5000 L 136.5096 417.5000 A 15.0000 15.0000 0 0 1 149.5000 410.0000 L 149.5000 400.0000 Z" stroke="green" stroke-width="1" fill="none" /><path d="M 127.8494 412.5000 L 77.8494 499.1025 L 86.5096 504.1025 L 136.5096 417.5000 L 127.8494 412.5000 Z" stroke="green" stroke-width="1" fill="none" /><path d="M 0.0000 137.4686 L 200.0000 137.4686 L 200.0000 127.4686 L 0.0000 127.4686 L 0.0000 137.4686 Z" stroke="green" stroke-width="1" fill="none" /><path d="M 200.0000 137.4686 A 25.0000 25.0000 0 0 0 221.6506 124.9686 L 212.9904 119.9686 A 15.0000 15.0000 0 0 1 200.0000 127.4686 L 200.0000 137.4686 Z" stroke="green" stroke-width="1" fill="none" /><path d="M 221.6506 124.9686 L 222.1506 124.1025 L 213.4904 119.1025 L 212.9904 119.9686 L 221.6506 124.9686 Z" stroke="green" stroke-width="1" fill="none" /><path d="M 222.1506 124.1025 A 25.0000 25.0000 0 0 0 222.1506 99.1025 L 213.4904 104.1025 A 15.0000 15.0000 0 0 1 213.4904 119.1025 L 222.1506 124.1025 Z" stroke="green" stroke-width="1" fill="none" /><path d="M 222.1506 99.1025 L 172.1506 12.5000 L 163.4904 17.5000 L 213.4904 104.1025 L 222.1506 99.1025 Z" stroke="green" stroke-width="1" fill="none" /><path d="M 172.1506 12.5000 A 25.0000 25.0000 0 0 0 150.5000 0.0000 L 150.5000 10.0000 A 15.0000 15.0000 0 0 1 163.4904 17.5000 L 172.1506 12.5000 Z" stroke="green" stroke-width="1" fill="none" /><path d="M 150.5000 0.0000 L 149.5000 0.0000 L 149.5000 10.0000 L 150.5000 10.0000 L 150.5000 0.0000 Z" stroke="green" stroke-width="1" fill="none" /><path d="M 149.5000 0.0000 A 25.0000 25.0000 0 0 0 127.8494 12.5000 L 136.5096 17.5000 A 15.0000 15.0000 0 0 1 149.5000 10.0000 L 149.5000 0.0000 Z" stroke="green" stroke-width="1" fill="none" /><path d="M 127.8494 12.5000 L 77.8494 99.1025 L 86.5096 104.1025 L 136.5096 17.5000 L 127.8494 12.5000 Z" stroke="green" stroke-width="1" fill="none" /></svg>