<svg width="215" height="228" viewBox="-34 -91 215 228" xmlns="http://www.w3.org/2000/svg"><path d="M -23.5000 38.0000 L 23.5000 38.0000 L 31.3540 38.0000 L 16.7153 77.5975 A 30.0000 30.0000 0 1 0 72.9927 77.5975 L 58.3540 38.0000 L 66.2080 38.0000 L 113.2080 38.0000 L 121.0619 38.0000 L 106.4232 77.5975 A 30.0000 30.0000 0 1 0 162.7007 77.5975 L 148.0619 38.0000 L 155.9159 38.0000 L 155.9159 -12.0000 L 148.0619 -12.0000 L 121.0619 -12.0000 L 113.2080 -12.0000 L 107.6041 -63.9312 A 18.0000 18.0000 0 0 0 71.8119 -63.9312 L 66.2080 -12.0000 L 58.3540 -12.0000 L 31.3540 -12.0000 L 23.5000 -12.0000 L 17.8961 -63.9312 A 18.0000 18.0000 0 0 0 -17.8961 -63.9312 L -23.5000 -12.0000 L -23.5000 38.0000 Z" stroke="green" stroke-width="1" fill="none" /><path d="M -23.5000 38.0000 L 23.5000 38.0000 L 31.3540 38.0000 L 16.7153 77.5975 A 30.0000 30.0000 0 1 0 72.9927 77.5975 L 58.3540 38.0000 L 66.2080 38.0000 L 113.2080 38.0000 L 121.0619 38.0000 L 106.4232 77.5975 A 30.0000 30.0000 0 1 0 162.7007 77.5975 L 148.0619 38.0000 L 155.9159 38.0000 L 155.9159 -12.0000 L 148.0619 -12.0000 L 121.0619 -12.0000 L 113.2080 -12.0000 L 107.6041 -63.9312 A 18.0000 18.0000 0 0 0 71.8119 -63.9312 L 66.2080 -12.0000 L 58.3540 -12.0000 L 31.3540 -12.0000 L 23.5000 -12.0000 L 17.8961 -63.9312 A 18.0000 18.0000 0 0 0 -17.8961 -63.9312 L -23.5000 -12.0000 L -23.5000 38.0000 Z" stroke="green" stroke-width="1" fill="none" /><circle cx="0.0000" cy="13.0000" r="15.5000" stroke="green" stroke-width="1" fill="none" /><circle cx="0.0000" cy="-62.0000" r="8.0000" stroke="green" stroke-width="1" fill="none" /><circle cx="0.0000" cy="-33.0000" r="12.0000" stroke="green" stroke-width="1" fill="none" /><circle cx="44.8540" cy="13.0000" r="5.0000" stroke="green" stroke-width="1" fill="none" /><circle cx="44.8540" cy="88.0000" r="20.0000" stroke="green" stroke-width="1" fill="none" /><circle cx="44.8540" cy="53.0000" r="10.0000" stroke="green" stroke-width="1" fill="none" /><circle cx="89.7080" cy="13.0000" r="15.5000" stroke="green" stroke-width="1" fill="none" /><circle cx="89.7080" cy="-62.0000" r="8.0000" stroke="green" stroke-width="1" fill="none" /><circle cx="89.7080" cy="-33.0000" r="12.0000" stroke="green" stroke-width="1" fill="none" /><circle cx="134.5619" cy="13.0000" r="5.0000" stroke="green" stroke-width="1" fill="none" /><circle cx="134.5619" cy="88.0000" r="20.0000" stroke="green" stroke-width="1" fill="none" /><circle cx="134.5619" cy="53.0000" r="10.0000" stroke="green" stroke-width="1" fill="none" /><path d="M 30.3540 14.0000 A 1.0000 1.0000 0 0 0 30.3540 12.0000 L 24.5000 12.0000 A 1.0000 1.0000 0 0 0 24.5000 14.0000 L 30.3540 14.0000 Z" stroke="green" stroke-width="1" fill="none" /><path d="M 65.2080 14.0000 A 1.0000 1.0000 0 0 0 65.2080 12.0000 L 59.3540 12.0000 A 1.0000 1.0000 0 0 0 59.3540 14.0000 L 65.2080 14.0000 Z" stroke="green" stroke-width="1" fill="none" /><path d="M 120.0619 14.0000 A 1.0000 1.0000 0 0 0 120.0619 12.0000 L 114.2080 12.0000 A 1.0000 1.0000 0 0 0 114.2080 14.0000 L 120.0619 14.0000 Z" stroke="green" stroke-width="1" fill="none" /><path d="M 154.9159 14.0000 A 1.0000 1.0000 0 0 0 154.9159 12.0000 L 149.0619 12.0000 A 1.0000 1.0000 0 0 0 149.0619 14.0000 L 154.9159 14.0000 Z" stroke="green" stroke-width="1" fill="none" /></svg>