0
SECTION
2
ENTITIES
0
LINE
8
PARAMETRIX
10
-23.5000
20
0.0000
11
23.5000
21
0.0000
0
LINE
8
PARAMETRIX
10
23.5000
20
0.0000
11
31.3540
21
0.0000
0
LINE
8
PARAMETRIX
10
31.3540
20
0.0000
11
16.7153
21
-39.5975
0
ARC
8
PARAMETRIX
10
44.8540
20
-50.0000
40
30.0000
50
159.7112
51
20.2888
0
LINE
8
PARAMETRIX
10
72.9927
20
-39.5975
11
58.3540
21
-0.0000
0
LINE
8
PARAMETRIX
10
58.3540
20
-0.0000
11
66.2080
21
0.0000
0
LINE
8
PARAMETRIX
10
66.2080
20
0.0000
11
113.2080
21
-0.0000
0
LINE
8
PARAMETRIX
10
113.2080
20
-0.0000
11
121.0619
21
0.0000
0
LINE
8
PARAMETRIX
10
121.0619
20
0.0000
11
106.4232
21
-39.5975
0
ARC
8
PARAMETRIX
10
134.5619
20
-50.0000
40
30.0000
50
159.7112
51
20.2888
0
LINE
8
PARAMETRIX
10
162.7007
20
-39.5975
11
148.0619
21
-0.0000
0
LINE
8
PARAMETRIX
10
148.0619
20
-0.0000
11
155.9159
21
-0.0000
0
LINE
8
PARAMETRIX
10
155.9159
20
-0.0000
11
155.9159
21
50.0000
0
LINE
8
PARAMETRIX
10
155.9159
20
50.0000
11
148.0619
21
50.0000
0
LINE
8
PARAMETRIX
10
148.0619
20
50.0000
11
121.0619
21
50.0000
0
LINE
8
PARAMETRIX
10
121.0619
20
50.0000
11
113.2080
21
50.0000
0
LINE
8
PARAMETRIX
10
113.2080
20
50.0000
11
107.6041
21
101.9312
0
ARC
8
PARAMETRIX
10
89.7080
20
100.0000
40
18.0000
50
6.1590
51
173.8410
0
LINE
8
PARAMETRIX
10
71.8119
20
101.9312
11
66.2080
21
50.0000
0
LINE
8
PARAMETRIX
10
66.2080
20
50.0000
11
58.3540
21
50.0000
0
LINE
8
PARAMETRIX
10
58.3540
20
50.0000
11
31.3540
21
50.0000
0
LINE
8
PARAMETRIX
10
31.3540
20
50.0000
11
23.5000
21
50.0000
0
LINE
8
PARAMETRIX
10
23.5000
20
50.0000
11
17.8961
21
101.9312
0
ARC
8
PARAMETRIX
10
-0.0000
20
100.0000
40
18.0000
50
6.1590
51
173.8410
0
LINE
8
PARAMETRIX
10
-17.8961
20
101.9312
11
-23.5000
21
50.0000
0
LINE
8
PARAMETRIX
10
-23.5000
20
50.0000
11
-23.5000
21
0.0000
0
LINE
8
PARAMETRIX
10
-23.5000
20
0.0000
11
23.5000
21
0.0000
0
LINE
8
PARAMETRIX
10
23.5000
20
0.0000
11
31.3540
21
0.0000
0
LINE
8
PARAMETRIX
10
31.3540
20
0.0000
11
16.7153
21
-39.5975
0
ARC
8
PARAMETRIX
10
44.8540
20
-50.0000
40
30.0000
50
159.7112
51
20.2888
0
LINE
8
PARAMETRIX
10
72.9927
20
-39.5975
11
58.3540
21
-0.0000
0
LINE
8
PARAMETRIX
10
58.3540
20
-0.0000
11
66.2080
21
0.0000
0
LINE
8
PARAMETRIX
10
66.2080
20
0.0000
11
113.2080
21
-0.0000
0
LINE
8
PARAMETRIX
10
113.2080
20
-0.0000
11
121.0619
21
0.0000
0
LINE
8
PARAMETRIX
10
121.0619
20
0.0000
11
106.4232
21
-39.5975
0
ARC
8
PARAMETRIX
10
134.5619
20
-50.0000
40
30.0000
50
159.7112
51
20.2888
0
LINE
8
PARAMETRIX
10
162.7007
20
-39.5975
11
148.0619
21
-0.0000
0
LINE
8
PARAMETRIX
10
148.0619
20
-0.0000
11
155.9159
21
-0.0000
0
LINE
8
PARAMETRIX
10
155.9159
20
-0.0000
11
155.9159
21
50.0000
0
LINE
8
PARAMETRIX
10
155.9159
20
50.0000
11
148.0619
21
50.0000
0
LINE
8
PARAMETRIX
10
148.0619
20
50.0000
11
121.0619
21
50.0000
0
LINE
8
PARAMETRIX
10
121.0619
20
50.0000
11
113.2080
21
50.0000
0
LINE
8
PARAMETRIX
10
113.2080
20
50.0000
11
107.6041
21
101.9312
0
ARC
8
PARAMETRIX
10
89.7080
20
100.0000
40
18.0000
50
6.1590
51
173.8410
0
LINE
8
PARAMETRIX
10
71.8119
20
101.9312
11
66.2080
21
50.0000
0
LINE
8
PARAMETRIX
10
66.2080
20
50.0000
11
58.3540
21
50.0000
0
LINE
8
PARAMETRIX
10
58.3540
20
50.0000
11
31.3540
21
50.0000
0
LINE
8
PARAMETRIX
10
31.3540
20
50.0000
11
23.5000
21
50.0000
0
LINE
8
PARAMETRIX
10
23.5000
20
50.0000
11
17.8961
21
101.9312
0
ARC
8
PARAMETRIX
10
-0.0000
20
100.0000
40
18.0000
50
6.1590
51
173.8410
0
LINE
8
PARAMETRIX
10
-17.8961
20
101.9312
11
-23.5000
21
50.0000
0
LINE
8
PARAMETRIX
10
-23.5000
20
50.0000
11
-23.5000
21
0.0000
0
CIRCLE
8
PARAMETRIX
10
0.0000
20
25.0000
40
15.5000
0
CIRCLE
8
PARAMETRIX
10
0.0000
20
100.0000
40
8.0000
0
CIRCLE
8
PARAMETRIX
10
0.0000
20
71.0000
40
12.0000
0
CIRCLE
8
PARAMETRIX
10
44.8540
20
25.0000
40
5.0000
0
CIRCLE
8
PARAMETRIX
10
44.8540
20
-50.0000
40
20.0000
0
CIRCLE
8
PARAMETRIX
10
44.8540
20
-15.0000
40
10.0000
0
CIRCLE
8
PARAMETRIX
10
89.7080
20
25.0000
40
15.5000
0
CIRCLE
8
PARAMETRIX
10
89.7080
20
100.0000
40
8.0000
0
CIRCLE
8
PARAMETRIX
10
89.7080
20
71.0000
40
12.0000
0
CIRCLE
8
PARAMETRIX
10
134.5619
20
25.0000
40
5.0000
0
CIRCLE
8
PARAMETRIX
10
134.5619
20
-50.0000
40
20.0000
0
CIRCLE
8
PARAMETRIX
10
134.5619
20
-15.0000
40
10.0000
0
ARC
8
PARAMETRIX
10
30.3540
20
25.0000
40
1.0000
50
270.0000
51
90.0000
0
LINE
8
PARAMETRIX
10
30.3540
20
26.0000
11
24.5000
21
26.0000
0
ARC
8
PARAMETRIX
10
24.5000
20
25.0000
40
1.0000
50
90.0000
51
270.0000
0
LINE
8
PARAMETRIX
10
24.5000
20
24.0000
11
30.3540
21
24.0000
0
ARC
8
PARAMETRIX
10
65.2080
20
25.0000
40
1.0000
50
270.0000
51
90.0000
0
LINE
8
PARAMETRIX
10
65.2080
20
26.0000
11
59.3540
21
26.0000
0
ARC
8
PARAMETRIX
10
59.3540
20
25.0000
40
1.0000
50
90.0000
51
270.0000
0
LINE
8
PARAMETRIX
10
59.3540
20
24.0000
11
65.2080
21
24.0000
0
ARC
8
PARAMETRIX
10
120.0619
20
25.0000
40
1.0000
50
270.0000
51
90.0000
0
LINE
8
PARAMETRIX
10
120.0619
20
26.0000
11
114.2080
21
26.0000
0
ARC
8
PARAMETRIX
10
114.2080
20
25.0000
40
1.0000
50
90.0000
51
270.0000
0
LINE
8
PARAMETRIX
10
114.2080
20
24.0000
11
120.0619
21
24.0000
0
ARC
8
PARAMETRIX
10
154.9159
20
25.0000
40
1.0000
50
270.0000
51
90.0000
0
LINE
8
PARAMETRIX
10
154.9159
20
26.0000
11
149.0619
21
26.0000
0
ARC
8
PARAMETRIX
10
149.0619
20
25.0000
40
1.0000
50
90.0000
51
270.0000
0
LINE
8
PARAMETRIX
10
149.0619
20
24.0000
11
154.9159
21
24.0000
0
ENDSEC
0
EOF
