<svg width="398" height="784" viewBox="-20 -39 398 784" xmlns="http://www.w3.org/2000/svg"><path d="M 0.0000 703.7459 L 200.0000 703.7459 L 200.0000 693.7459 L 0.0000 693.7459 L 0.0000 703.7459 Z" stroke="green" stroke-width="1" fill="none" /><path d="M 200.0000 703.7459 A 25.0000 25.0000 0 0 0 224.3593 673.1221 L 214.6156 675.3716 A 15.0000 15.0000 0 0 1 200.0000 693.7459 L 200.0000 703.7459 Z" stroke="green" stroke-width="1" fill="none" /><path d="M 224.3593 673.1221 L 201.1460 572.5747 L 191.4023 574.8242 L 214.6156 675.3716 L 224.3593 673.1221 Z" stroke="green" stroke-width="1" fill="none" /><path d="M 201.1460 572.5747 A 15.0000 15.0000 0 0 1 202.3965 562.3905 L 193.4864 557.8506 A 25.0000 25.0000 0 0 0 191.4023 574.8242 L 201.1460 572.5747 Z" stroke="green" stroke-width="1" fill="none" /><path d="M 202.3965 562.3905 L 202.8505 561.4995 L 193.9404 556.9596 L 193.4864 557.8506 L 202.3965 562.3905 Z" stroke="green" stroke-width="1" fill="none" /><path d="M 202.8505 561.4995 A 25.0000 25.0000 0 0 0 192.3121 528.0761 L 187.6174 536.9056 A 15.0000 15.0000 0 0 1 193.9404 556.9596 L 202.8505 561.4995 Z" stroke="green" stroke-width="1" fill="none" /><path d="M 192.3121 528.0761 L 150.6730 505.9362 L 145.9783 514.7657 L 187.6174 536.9056 L 192.3121 528.0761 Z" stroke="green" stroke-width="1" fill="none" /><path d="M 150.6730 505.9362 A 15.0000 15.0000 0 0 1 147.8742 481.3713 L 141.3136 473.8242 A 25.0000 25.0000 0 0 0 145.9783 514.7657 L 150.6730 505.9362 Z" stroke="green" stroke-width="1" fill="none" /><path d="M 147.8742 481.3713 L 223.3452 415.7654 L 216.7846 408.2183 L 141.3136 473.8242 L 147.8742 481.3713 Z" stroke="green" stroke-width="1" fill="none" /><path d="M 0.0000 303.7459 L 200.0000 303.7459 L 200.0000 293.7459 L 0.0000 293.7459 L 0.0000 303.7459 Z" stroke="green" stroke-width="1" fill="none" /><path d="M 200.0000 303.7459 A 25.0000 25.0000 0 0 0 224.3593 273.1221 L 214.6156 275.3716 A 15.0000 15.0000 0 0 1 200.0000 293.7459 L 200.0000 303.7459 Z" stroke="green" stroke-width="1" fill="none" /><path d="M 224.3593 273.1221 L 224.1343 272.1478 L 214.3906 274.3973 L 214.6156 275.3716 L 224.3593 273.1221 Z" stroke="green" stroke-width="1" fill="none" /><path d="M 224.1343 272.1478 A 15.0000 15.0000 0 0 1 225.3848 261.9636 L 216.4747 257.4237 A 25.0000 25.0000 0 0 0 214.3906 274.3973 L 224.1343 272.1478 Z" stroke="green" stroke-width="1" fill="none" /><path d="M 225.3848 261.9636 L 291.8029 131.6108 L 282.8928 127.0709 L 216.4747 257.4237 L 225.3848 261.9636 Z" stroke="green" stroke-width="1" fill="none" /><path d="M 291.8029 131.6108 A 25.0000 25.0000 0 0 0 281.2645 98.1873 L 276.5698 107.0168 A 15.0000 15.0000 0 0 1 282.8928 127.0709 L 291.8029 131.6108 Z" stroke="green" stroke-width="1" fill="none" /><path d="M 281.2645 98.1873 L 280.3815 97.7179 L 275.6868 106.5473 L 276.5698 107.0168 L 281.2645 98.1873 Z" stroke="green" stroke-width="1" fill="none" /><path d="M 280.3815 97.7179 A 15.0000 15.0000 0 0 1 277.5827 73.1530 L 271.0221 65.6059 A 25.0000 25.0000 0 0 0 275.6868 106.5473 L 280.3815 97.7179 Z" stroke="green" stroke-width="1" fill="none" /><path d="M 277.5827 73.1530 L 353.0537 7.5471 L 346.4931 0.0000 L 271.0221 65.6059 L 277.5827 73.1530 Z" stroke="green" stroke-width="1" fill="none" /></svg>