0
SECTION
2
ENTITIES
0
LINE
8
PARAMETRIX
10
0.0000
20
0.0000
11
200.0000
21
0.0000
0
LINE
8
PARAMETRIX
10
200.0000
20
0.0000
11
235.9538
21
0.0000
0
LINE
8
PARAMETRIX
10
235.9538
20
0.0000
11
339.0747
21
3.8382
0
LINE
8
PARAMETRIX
10
339.0747
20
3.8382
11
348.5971
21
14.0499
0
LINE
8
PARAMETRIX
10
348.5971
20
14.0499
11
375.5018
21
-1.4836
0
LINE
8
PARAMETRIX
10
375.5018
20
-1.4836
11
422.0126
21
-9.2771
0
LINE
8
PARAMETRIX
10
422.0126
20
-9.2771
11
460.6645
21
-6.5742
0
LINE
8
PARAMETRIX
10
460.6645
20
-6.5742
11
560.4209
21
0.4014
0
LINE
8
PARAMETRIX
10
560.4209
20
0.4014
11
554.9102
21
79.2090
0
LINE
8
PARAMETRIX
10
554.9102
20
79.2090
11
455.1538
21
72.2333
0
LINE
8
PARAMETRIX
10
455.1538
20
72.2333
11
416.5018
21
69.5305
0
LINE
8
PARAMETRIX
10
416.5018
20
69.5305
11
389.5971
21
85.0639
0
LINE
8
PARAMETRIX
10
389.5971
20
85.0639
11
245.4763
21
110.2116
0
LINE
8
PARAMETRIX
10
245.4763
20
110.2116
11
235.9538
21
100.0000
0
LINE
8
PARAMETRIX
10
235.9538
20
100.0000
11
200.0000
21
100.0000
0
LINE
8
PARAMETRIX
10
200.0000
20
100.0000
11
0.0000
21
100.0000
0
LINE
8
PARAMETRIX
10
0.0000
20
100.0000
11
0.0000
21
0.0000
0
LINE
8
PARAMETRIX
10
0.0000
20
0.0000
11
200.0000
21
0.0000
0
LINE
8
PARAMETRIX
10
200.0000
20
0.0000
11
235.9538
21
0.0000
0
LINE
8
PARAMETRIX
10
235.9538
20
0.0000
11
339.0747
21
3.8382
0
LINE
8
PARAMETRIX
10
339.0747
20
3.8382
11
348.5971
21
14.0499
0
LINE
8
PARAMETRIX
10
348.5971
20
14.0499
11
375.5018
21
-1.4836
0
LINE
8
PARAMETRIX
10
375.5018
20
-1.4836
11
422.0126
21
-9.2771
0
LINE
8
PARAMETRIX
10
422.0126
20
-9.2771
11
460.6645
21
-6.5742
0
LINE
8
PARAMETRIX
10
460.6645
20
-6.5742
11
560.4209
21
0.4014
0
LINE
8
PARAMETRIX
10
560.4209
20
0.4014
11
554.9102
21
79.2090
0
LINE
8
PARAMETRIX
10
554.9102
20
79.2090
11
455.1538
21
72.2333
0
LINE
8
PARAMETRIX
10
455.1538
20
72.2333
11
416.5018
21
69.5305
0
LINE
8
PARAMETRIX
10
416.5018
20
69.5305
11
389.5971
21
85.0639
0
LINE
8
PARAMETRIX
10
389.5971
20
85.0639
11
245.4763
21
110.2116
0
LINE
8
PARAMETRIX
10
245.4763
20
110.2116
11
235.9538
21
100.0000
0
LINE
8
PARAMETRIX
10
235.9538
20
100.0000
11
200.0000
21
100.0000
0
LINE
8
PARAMETRIX
10
200.0000
20
100.0000
11
0.0000
21
100.0000
0
LINE
8
PARAMETRIX
10
0.0000
20
100.0000
11
0.0000
21
0.0000
0
ARC
8
PARAMETRIX
10
234.9538
20
50.0000
40
1.0000
50
270.0000
51
90.0000
0
LINE
8
PARAMETRIX
10
234.9538
20
51.0000
11
201.0000
21
51.0000
0
ARC
8
PARAMETRIX
10
201.0000
20
50.0000
40
1.0000
50
90.0000
51
270.0000
0
LINE
8
PARAMETRIX
10
201.0000
20
49.0000
11
234.9538
21
49.0000
0
ARC
8
PARAMETRIX
10
288.1962
20
52.6505
40
1.0000
50
137.0000
51
317.0000
0
LINE
8
PARAMETRIX
10
288.9276
20
51.9685
11
297.0861
21
60.7174
0
ARC
8
PARAMETRIX
10
296.3547
20
61.3994
40
1.0000
50
317.0000
51
137.0000
0
LINE
8
PARAMETRIX
10
295.6234
20
62.0814
11
287.4649
21
53.3325
0
ARC
8
PARAMETRIX
10
395.1358
20
34.5235
40
1.0000
50
240.0000
51
60.0000
0
LINE
8
PARAMETRIX
10
395.6358
20
35.3895
11
370.4632
21
49.9229
0
ARC
8
PARAMETRIX
10
369.9632
20
49.0569
40
1.0000
50
60.0000
51
240.0000
0
LINE
8
PARAMETRIX
10
369.4632
20
48.1909
11
394.6358
21
33.6574
0
ARC
8
PARAMETRIX
10
456.9116
20
32.7598
40
1.0000
50
274.0000
51
94.0000
0
LINE
8
PARAMETRIX
10
456.8418
20
33.7573
11
420.1850
21
31.1940
0
ARC
8
PARAMETRIX
10
420.2548
20
30.1965
40
1.0000
50
94.0000
51
274.0000
0
LINE
8
PARAMETRIX
10
420.3245
20
29.1989
11
456.9813
21
31.7622
0
ENDSEC
0
EOF
