<svg width="626" height="141" viewBox="-31 -16 626 141" xmlns="http://www.w3.org/2000/svg"><path d="M 0.0000 100.9346 L 200.0000 100.9346 L 235.9538 100.9346 L 339.0747 97.0963 L 348.5971 86.8847 L 375.5018 102.4181 L 422.0126 110.2116 L 460.6645 107.5088 L 560.4209 100.5332 L 554.9102 21.7256 L 455.1538 28.7013 L 416.5018 31.4041 L 389.5971 15.8706 L 245.4763 -9.2771 L 235.9538 0.9346 L 200.0000 0.9346 L 0.0000 0.9346 L 0.0000 100.9346 Z" stroke="green" stroke-width="1" fill="none" /><path d="M 0.0000 100.9346 L 200.0000 100.9346 L 235.9538 100.9346 L 339.0747 97.0963 L 348.5971 86.8847 L 375.5018 102.4181 L 422.0126 110.2116 L 460.6645 107.5088 L 560.4209 100.5332 L 554.9102 21.7256 L 455.1538 28.7013 L 416.5018 31.4041 L 389.5971 15.8706 L 245.4763 -9.2771 L 235.9538 0.9346 L 200.0000 0.9346 L 0.0000 0.9346 L 0.0000 100.9346 Z" stroke="green" stroke-width="1" fill="none" /><path d="M 234.9538 51.9346 A 1.0000 1.0000 0 0 0 234.9538 49.9346 L 201.0000 49.9346 A 1.0000 1.0000 0 0 0 201.0000 51.9346 L 234.9538 51.9346 Z" stroke="green" stroke-width="1" fill="none" /><path d="M 287.4649 47.6021 A 1.0000 1.0000 0 0 0 288.9276 48.9661 L 297.0861 40.2172 A 1.0000 1.0000 0 1 0 295.6234 38.8532 L 287.4649 47.6021 Z" stroke="green" stroke-width="1" fill="none" /><path d="M 394.6358 67.2771 A 1.0000 1.0000 0 0 0 395.6358 65.5451 L 370.4632 51.0116 A 1.0000 1.0000 0 0 0 369.4632 52.7437 L 394.6358 67.2771 Z" stroke="green" stroke-width="1" fill="none" /><path d="M 456.9813 69.1724 A 1.0000 1.0000 0 0 0 456.8418 67.1772 L 420.1850 69.7405 A 1.0000 1.0000 0 0 0 420.3245 71.7357 L 456.9813 69.1724 Z" stroke="green" stroke-width="1" fill="none" /></svg>