0
SECTION
2
ENTITIES
0
LINE
8
PARAMETRIX
10
0.0000
20
0.0000
11
200.0000
21
0.0000
0
LINE
8
PARAMETRIX
10
200.0000
20
0.0000
11
200.0000
21
10.0000
0
LINE
8
PARAMETRIX
10
200.0000
20
10.0000
11
0.0000
21
10.0000
0
LINE
8
PARAMETRIX
10
0.0000
20
10.0000
11
0.0000
21
0.0000
0
ARC
8
PARAMETRIX
10
200.0000
20
25.0000
40
25.0000
50
270.0000
51
13.0000
0
LINE
8
PARAMETRIX
10
224.3593
20
30.6238
11
214.6156
21
28.3743
0
ARC
8
PARAMETRIX
10
200.0000
20
25.0000
40
15.0000
50
270.0000
51
13.0000
0
LINE
8
PARAMETRIX
10
200.0000
20
10.0000
11
200.0000
21
0.0000
0
LINE
8
PARAMETRIX
10
224.3593
20
30.6238
11
201.1460
21
131.1712
0
LINE
8
PARAMETRIX
10
201.1460
20
131.1712
11
191.4023
21
128.9217
0
LINE
8
PARAMETRIX
10
191.4023
20
128.9217
11
214.6156
21
28.3743
0
LINE
8
PARAMETRIX
10
214.6156
20
28.3743
11
224.3593
21
30.6238
0
ARC
8
PARAMETRIX
10
215.7616
20
134.5455
40
15.0000
50
153.0000
51
193.0000
0
LINE
8
PARAMETRIX
10
202.3965
20
141.3554
11
193.4864
21
145.8953
0
ARC
8
PARAMETRIX
10
215.7616
20
134.5455
40
25.0000
50
153.0000
51
193.0000
0
LINE
8
PARAMETRIX
10
191.4023
20
128.9217
11
201.1460
21
131.1712
0
LINE
8
PARAMETRIX
10
202.3965
20
141.3554
11
202.8505
21
142.2464
0
LINE
8
PARAMETRIX
10
202.8505
20
142.2464
11
193.9404
21
146.7863
0
LINE
8
PARAMETRIX
10
193.9404
20
146.7863
11
193.4864
21
145.8953
0
LINE
8
PARAMETRIX
10
193.4864
20
145.8953
11
202.3965
21
141.3554
0
ARC
8
PARAMETRIX
10
180.5753
20
153.5961
40
25.0000
50
333.0000
51
62.0000
0
LINE
8
PARAMETRIX
10
192.3121
20
175.6698
11
187.6174
21
166.8403
0
ARC
8
PARAMETRIX
10
180.5753
20
153.5961
40
15.0000
50
333.0000
51
62.0000
0
LINE
8
PARAMETRIX
10
193.9404
20
146.7863
11
202.8505
21
142.2464
0
LINE
8
PARAMETRIX
10
192.3121
20
175.6698
11
150.6730
21
197.8097
0
LINE
8
PARAMETRIX
10
150.6730
20
197.8097
11
145.9783
21
188.9802
0
LINE
8
PARAMETRIX
10
145.9783
20
188.9802
11
187.6174
21
166.8403
0
LINE
8
PARAMETRIX
10
187.6174
20
166.8403
11
192.3121
21
175.6698
0
ARC
8
PARAMETRIX
10
157.7151
20
211.0539
40
15.0000
50
131.0000
51
242.0000
0
LINE
8
PARAMETRIX
10
147.8742
20
222.3746
11
141.3136
21
229.9217
0
ARC
8
PARAMETRIX
10
157.7151
20
211.0539
40
25.0000
50
131.0000
51
242.0000
0
LINE
8
PARAMETRIX
10
145.9783
20
188.9802
11
150.6730
21
197.8097
0
LINE
8
PARAMETRIX
10
147.8742
20
222.3746
11
223.3452
21
287.9805
0
LINE
8
PARAMETRIX
10
223.3452
20
287.9805
11
216.7846
21
295.5276
0
LINE
8
PARAMETRIX
10
216.7846
20
295.5276
11
141.3136
21
229.9217
0
LINE
8
PARAMETRIX
10
141.3136
20
229.9217
11
147.8742
21
222.3746
0
LINE
8
PARAMETRIX
10
0.0000
20
400.0000
11
200.0000
21
400.0000
0
LINE
8
PARAMETRIX
10
200.0000
20
400.0000
11
200.0000
21
410.0000
0
LINE
8
PARAMETRIX
10
200.0000
20
410.0000
11
0.0000
21
410.0000
0
LINE
8
PARAMETRIX
10
0.0000
20
410.0000
11
0.0000
21
400.0000
0
ARC
8
PARAMETRIX
10
200.0000
20
425.0000
40
25.0000
50
270.0000
51
13.0000
0
LINE
8
PARAMETRIX
10
224.3593
20
430.6238
11
214.6156
21
428.3743
0
ARC
8
PARAMETRIX
10
200.0000
20
425.0000
40
15.0000
50
270.0000
51
13.0000
0
LINE
8
PARAMETRIX
10
200.0000
20
410.0000
11
200.0000
21
400.0000
0
LINE
8
PARAMETRIX
10
224.3593
20
430.6238
11
224.1343
21
431.5981
0
LINE
8
PARAMETRIX
10
224.1343
20
431.5981
11
214.3906
21
429.3486
0
LINE
8
PARAMETRIX
10
214.3906
20
429.3486
11
214.6156
21
428.3743
0
LINE
8
PARAMETRIX
10
214.6156
20
428.3743
11
224.3593
21
430.6238
0
ARC
8
PARAMETRIX
10
238.7499
20
434.9724
40
15.0000
50
153.0000
51
193.0000
0
LINE
8
PARAMETRIX
10
225.3848
20
441.7823
11
216.4747
21
446.3222
0
ARC
8
PARAMETRIX
10
238.7499
20
434.9724
40
25.0000
50
153.0000
51
193.0000
0
LINE
8
PARAMETRIX
10
214.3906
20
429.3486
11
224.1343
21
431.5981
0
LINE
8
PARAMETRIX
10
225.3848
20
441.7823
11
291.8029
21
572.1351
0
LINE
8
PARAMETRIX
10
291.8029
20
572.1351
11
282.8928
21
576.6750
0
LINE
8
PARAMETRIX
10
282.8928
20
576.6750
11
216.4747
21
446.3222
0
LINE
8
PARAMETRIX
10
216.4747
20
446.3222
11
225.3848
21
441.7823
0
ARC
8
PARAMETRIX
10
269.5277
20
583.4849
40
25.0000
50
333.0000
51
62.0000
0
LINE
8
PARAMETRIX
10
281.2645
20
605.5586
11
276.5698
21
596.7291
0
ARC
8
PARAMETRIX
10
269.5277
20
583.4849
40
15.0000
50
333.0000
51
62.0000
0
LINE
8
PARAMETRIX
10
282.8928
20
576.6750
11
291.8029
21
572.1351
0
LINE
8
PARAMETRIX
10
281.2645
20
605.5586
11
280.3815
21
606.0281
0
LINE
8
PARAMETRIX
10
280.3815
20
606.0281
11
275.6868
21
597.1986
0
LINE
8
PARAMETRIX
10
275.6868
20
597.1986
11
276.5698
21
596.7291
0
LINE
8
PARAMETRIX
10
276.5698
20
596.7291
11
281.2645
21
605.5586
0
ARC
8
PARAMETRIX
10
287.4236
20
619.2723
40
15.0000
50
131.0000
51
242.0000
0
LINE
8
PARAMETRIX
10
277.5827
20
630.5929
11
271.0221
21
638.1400
0
ARC
8
PARAMETRIX
10
287.4236
20
619.2723
40
25.0000
50
131.0000
51
242.0000
0
LINE
8
PARAMETRIX
10
275.6868
20
597.1986
11
280.3815
21
606.0281
0
LINE
8
PARAMETRIX
10
277.5827
20
630.5929
11
353.0537
21
696.1988
0
LINE
8
PARAMETRIX
10
353.0537
20
696.1988
11
346.4931
21
703.7459
0
LINE
8
PARAMETRIX
10
346.4931
20
703.7459
11
271.0221
21
638.1400
0
LINE
8
PARAMETRIX
10
271.0221
20
638.1400
11
277.5827
21
630.5929
0
ENDSEC
0
EOF
