<svg width="133" height="206" viewBox="-63 -99 133 206" xmlns="http://www.w3.org/2000/svg"><path d="M -49.5000 89.0000 L 49.5000 89.0000 L 49.5000 86.0000 L -49.5000 86.0000 L -49.5000 89.0000 Z" stroke="green" stroke-width="1" fill="none" /><path d="M 49.5000 89.0000 A 6.5000 6.5000 0 0 0 56.0000 82.5000 L 53.0000 82.5000 A 3.5000 3.5000 0 0 1 49.5000 86.0000 L 49.5000 89.0000 Z" stroke="green" stroke-width="1" fill="none" /><path d="M 56.0000 82.5000 L 56.0000 -82.5000 L 53.0000 -82.5000 L 53.0000 82.5000 L 56.0000 82.5000 Z" stroke="green" stroke-width="1" fill="none" /><path d="M 56.0000 -82.5000 A 6.5000 6.5000 0 0 0 49.5000 -89.0000 L 49.5000 -86.0000 A 3.5000 3.5000 0 0 1 53.0000 -82.5000 L 56.0000 -82.5000 Z" stroke="green" stroke-width="1" fill="none" /><path d="M 49.5000 -89.0000 L -49.5000 -89.0000 L -49.5000 -86.0000 L 49.5000 -86.0000 L 49.5000 -89.0000 Z" stroke="green" stroke-width="1" fill="none" /><path d="M -49.5000 -89.0000 A 6.5000 6.5000 0 0 0 -56.0000 -82.5000 L -53.0000 -82.5000 A 3.5000 3.5000 0 0 1 -49.5000 -86.0000 L -49.5000 -89.0000 Z" stroke="green" stroke-width="1" fill="none" /><path d="M -56.0000 -82.5000 L -56.0000 82.5000 L -53.0000 82.5000 L -53.0000 -82.5000 L -56.0000 -82.5000 Z" stroke="green" stroke-width="1" fill="none" /><path d="M -56.0000 82.5000 A 6.5000 6.5000 0 0 0 -49.5000 89.0000 L -49.5000 86.0000 A 3.5000 3.5000 0 0 1 -53.0000 82.5000 L -56.0000 82.5000 Z" stroke="green" stroke-width="1" fill="none" /><path d="M 56.0000 69.5000 L 56.0000 -69.5000 L 53.0000 -69.5000 L 53.0000 69.5000 L 56.0000 69.5000 Z" stroke="green" stroke-width="1" fill="none" /><path d="M 56.0000 -69.5000 A 6.5000 6.5000 0 0 0 49.5000 -76.0000 L 49.5000 -73.0000 A 3.5000 3.5000 0 0 1 53.0000 -69.5000 L 56.0000 -69.5000 Z" stroke="green" stroke-width="1" fill="none" /><path d="M 49.5000 -76.0000 L -49.5000 -76.0000 L -49.5000 -73.0000 L 49.5000 -73.0000 L 49.5000 -76.0000 Z" stroke="green" stroke-width="1" fill="none" /><path d="M -49.5000 -76.0000 A 6.5000 6.5000 0 0 0 -56.0000 -69.5000 L -53.0000 -69.5000 A 3.5000 3.5000 0 0 1 -49.5000 -73.0000 L -49.5000 -76.0000 Z" stroke="green" stroke-width="1" fill="none" /><path d="M -56.0000 -69.5000 L -56.0000 69.5000 L -53.0000 69.5000 L -53.0000 -69.5000 L -56.0000 -69.5000 Z" stroke="green" stroke-width="1" fill="none" /><path d="M -56.0000 69.5000 A 6.5000 6.5000 0 0 0 -49.5000 76.0000 L -49.5000 73.0000 A 3.5000 3.5000 0 0 1 -53.0000 69.5000 L -56.0000 69.5000 Z" stroke="green" stroke-width="1" fill="none" /><path d="M -49.5000 76.0000 L 49.5000 76.0000 L 49.5000 73.0000 L -49.5000 73.0000 L -49.5000 76.0000 Z" stroke="green" stroke-width="1" fill="none" /><path d="M 49.5000 76.0000 A 6.5000 6.5000 0 0 0 56.0000 69.5000 L 53.0000 69.5000 A 3.5000 3.5000 0 0 1 49.5000 73.0000 L 49.5000 76.0000 Z" stroke="green" stroke-width="1" fill="none" /><path d="M -36.5000 76.0000 L 36.5000 76.0000 L 36.5000 73.0000 L -36.5000 73.0000 L -36.5000 76.0000 Z" stroke="green" stroke-width="1" fill="none" /><path d="M 36.5000 76.0000 A 6.5000 6.5000 0 0 0 43.0000 69.5000 L 40.0000 69.5000 A 3.5000 3.5000 0 0 1 36.5000 73.0000 L 36.5000 76.0000 Z" stroke="green" stroke-width="1" fill="none" /><path d="M 43.0000 69.5000 L 43.0000 -69.5000 L 40.0000 -69.5000 L 40.0000 69.5000 L 43.0000 69.5000 Z" stroke="green" stroke-width="1" fill="none" /><path d="M 43.0000 -69.5000 A 6.5000 6.5000 0 0 0 36.5000 -76.0000 L 36.5000 -73.0000 A 3.5000 3.5000 0 0 1 40.0000 -69.5000 L 43.0000 -69.5000 Z" stroke="green" stroke-width="1" fill="none" /><path d="M 36.5000 -76.0000 L -36.5000 -76.0000 L -36.5000 -73.0000 L 36.5000 -73.0000 L 36.5000 -76.0000 Z" stroke="green" stroke-width="1" fill="none" /><path d="M -36.5000 -76.0000 A 6.5000 6.5000 0 0 0 -43.0000 -69.5000 L -40.0000 -69.5000 A 3.5000 3.5000 0 0 1 -36.5000 -73.0000 L -36.5000 -76.0000 Z" stroke="green" stroke-width="1" fill="none" /><path d="M -43.0000 -69.5000 L -43.0000 69.5000 L -40.0000 69.5000 L -40.0000 -69.5000 L -43.0000 -69.5000 Z" stroke="green" stroke-width="1" fill="none" /><path d="M -43.0000 69.5000 A 6.5000 6.5000 0 0 0 -36.5000 76.0000 L -36.5000 73.0000 A 3.5000 3.5000 0 0 1 -40.0000 69.5000 L -43.0000 69.5000 Z" stroke="green" stroke-width="1" fill="none" /><path d="M 43.0000 56.5000 L 43.0000 -56.5000 L 40.0000 -56.5000 L 40.0000 56.5000 L 43.0000 56.5000 Z" stroke="green" stroke-width="1" fill="none" /><path d="M 43.0000 -56.5000 A 6.5000 6.5000 0 0 0 36.5000 -63.0000 L 36.5000 -60.0000 A 3.5000 3.5000 0 0 1 40.0000 -56.5000 L 43.0000 -56.5000 Z" stroke="green" stroke-width="1" fill="none" /><path d="M 36.5000 -63.0000 L -36.5000 -63.0000 L -36.5000 -60.0000 L 36.5000 -60.0000 L 36.5000 -63.0000 Z" stroke="green" stroke-width="1" fill="none" /><path d="M -36.5000 -63.0000 A 6.5000 6.5000 0 0 0 -43.0000 -56.5000 L -40.0000 -56.5000 A 3.5000 3.5000 0 0 1 -36.5000 -60.0000 L -36.5000 -63.0000 Z" stroke="green" stroke-width="1" fill="none" /><path d="M -43.0000 -56.5000 L -43.0000 56.5000 L -40.0000 56.5000 L -40.0000 -56.5000 L -43.0000 -56.5000 Z" stroke="green" stroke-width="1" fill="none" /><path d="M -43.0000 56.5000 A 6.5000 6.5000 0 0 0 -36.5000 63.0000 L -36.5000 60.0000 A 3.5000 3.5000 0 0 1 -40.0000 56.5000 L -43.0000 56.5000 Z" stroke="green" stroke-width="1" fill="none" /><path d="M -36.5000 63.0000 L 36.5000 63.0000 L 36.5000 60.0000 L -36.5000 60.0000 L -36.5000 63.0000 Z" stroke="green" stroke-width="1" fill="none" /><path d="M 36.5000 63.0000 A 6.5000 6.5000 0 0 0 43.0000 56.5000 L 40.0000 56.5000 A 3.5000 3.5000 0 0 1 36.5000 60.0000 L 36.5000 63.0000 Z" stroke="green" stroke-width="1" fill="none" /><path d="M -23.5000 63.0000 L 23.5000 63.0000 L 23.5000 60.0000 L -23.5000 60.0000 L -23.5000 63.0000 Z" stroke="green" stroke-width="1" fill="none" /><path d="M 23.5000 63.0000 A 6.5000 6.5000 0 0 0 30.0000 56.5000 L 27.0000 56.5000 A 3.5000 3.5000 0 0 1 23.5000 60.0000 L 23.5000 63.0000 Z" stroke="green" stroke-width="1" fill="none" /><path d="M 30.0000 56.5000 L 30.0000 -56.5000 L 27.0000 -56.5000 L 27.0000 56.5000 L 30.0000 56.5000 Z" stroke="green" stroke-width="1" fill="none" /><path d="M 30.0000 -56.5000 A 6.5000 6.5000 0 0 0 23.5000 -63.0000 L 23.5000 -60.0000 A 3.5000 3.5000 0 0 1 27.0000 -56.5000 L 30.0000 -56.5000 Z" stroke="green" stroke-width="1" fill="none" /><path d="M 23.5000 -63.0000 L -23.5000 -63.0000 L -23.5000 -60.0000 L 23.5000 -60.0000 L 23.5000 -63.0000 Z" stroke="green" stroke-width="1" fill="none" /><path d="M -23.5000 -63.0000 A 6.5000 6.5000 0 0 0 -30.0000 -56.5000 L -27.0000 -56.5000 A 3.5000 3.5000 0 0 1 -23.5000 -60.0000 L -23.5000 -63.0000 Z" stroke="green" stroke-width="1" fill="none" /><path d="M -30.0000 -56.5000 L -30.0000 56.5000 L -27.0000 56.5000 L -27.0000 -56.5000 L -30.0000 -56.5000 Z" stroke="green" stroke-width="1" fill="none" /><path d="M -30.0000 56.5000 A 6.5000 6.5000 0 0 0 -23.5000 63.0000 L -23.5000 60.0000 A 3.5000 3.5000 0 0 1 -27.0000 56.5000 L -30.0000 56.5000 Z" stroke="green" stroke-width="1" fill="none" /><path d="M -23.5000 50.0000 L 23.5000 50.0000 L 23.5000 47.0000 L -23.5000 47.0000 L -23.5000 50.0000 Z" stroke="green" stroke-width="1" fill="none" /><path d="M 23.5000 50.0000 A 6.5000 6.5000 0 0 0 30.0000 43.5000 L 27.0000 43.5000 A 3.5000 3.5000 0 0 1 23.5000 47.0000 L 23.5000 50.0000 Z" stroke="green" stroke-width="1" fill="none" /><path d="M 30.0000 43.5000 L 30.0000 -43.5000 L 27.0000 -43.5000 L 27.0000 43.5000 L 30.0000 43.5000 Z" stroke="green" stroke-width="1" fill="none" /><path d="M 30.0000 -43.5000 A 6.5000 6.5000 0 0 0 23.5000 -50.0000 L 23.5000 -47.0000 A 3.5000 3.5000 0 0 1 27.0000 -43.5000 L 30.0000 -43.5000 Z" stroke="green" stroke-width="1" fill="none" /><path d="M 23.5000 -50.0000 L -23.5000 -50.0000 L -23.5000 -47.0000 L 23.5000 -47.0000 L 23.5000 -50.0000 Z" stroke="green" stroke-width="1" fill="none" /><path d="M -23.5000 -50.0000 A 6.5000 6.5000 0 0 0 -30.0000 -43.5000 L -27.0000 -43.5000 A 3.5000 3.5000 0 0 1 -23.5000 -47.0000 L -23.5000 -50.0000 Z" stroke="green" stroke-width="1" fill="none" /><path d="M -30.0000 -43.5000 L -30.0000 43.5000 L -27.0000 43.5000 L -27.0000 -43.5000 L -30.0000 -43.5000 Z" stroke="green" stroke-width="1" fill="none" /><path d="M -30.0000 43.5000 A 6.5000 6.5000 0 0 0 -23.5000 50.0000 L -23.5000 47.0000 A 3.5000 3.5000 0 0 1 -27.0000 43.5000 L -30.0000 43.5000 Z" stroke="green" stroke-width="1" fill="none" /></svg>