0
SECTION
2
ENTITIES
0
LINE
8
PARAMETRIX
10
-49.5000
20
0.0000
11
49.5000
21
0.0000
0
LINE
8
PARAMETRIX
10
49.5000
20
0.0000
11
49.5000
21
50.0000
0
LINE
8
PARAMETRIX
10
49.5000
20
50.0000
11
13.0039
21
113.4766
0
ARC
8
PARAMETRIX
10
-0.0000
20
106.0000
40
15.0000
50
29.8969
51
150.1031
0
LINE
8
PARAMETRIX
10
-13.0039
20
113.4766
11
-49.5000
21
50.0000
0
LINE
8
PARAMETRIX
10
-49.5000
20
50.0000
11
-49.5000
21
0.0000
0
CIRCLE
8
PARAMETRIX
10
0.0000
20
25.0000
40
20.0000
0
CIRCLE
8
PARAMETRIX
10
0.0000
20
106.0000
40
5.0000
0
LINE
8
PARAMETRIX
10
-36.8377
20
72.5600
11
6.2643
21
92.3707
0
ARC
8
PARAMETRIX
10
0.0000
20
106.0000
40
15.0000
50
294.6846
51
341.3154
0
LINE
8
PARAMETRIX
10
14.2094
20
101.1946
11
29.4062
21
146.1313
0
LINE
8
PARAMETRIX
10
29.4062
20
146.1313
11
-7.7510
21
179.5879
0
LINE
8
PARAMETRIX
10
-7.7510
20
179.5879
11
-73.9949
21
106.0165
0
LINE
8
PARAMETRIX
10
-73.9949
20
106.0165
11
-36.8377
21
72.5600
0
CIRCLE
8
PARAMETRIX
10
-22.2943
20
126.0739
40
20.0000
0
CIRCLE
8
PARAMETRIX
10
0.0000
20
106.0000
40
5.0000
0
LINE
8
PARAMETRIX
10
-41.1870
20
67.7295
11
-39.1796
21
69.9590
0
LINE
8
PARAMETRIX
10
-39.1796
20
69.9590
11
-143.9631
21
164.3064
0
LINE
8
PARAMETRIX
10
-143.9631
20
164.3064
11
-145.9705
21
162.0770
0
LINE
8
PARAMETRIX
10
-145.9705
20
162.0770
11
-41.1870
21
67.7295
0
LINE
8
PARAMETRIX
10
31.7482
20
148.7323
11
33.7556
21
150.9618
0
LINE
8
PARAMETRIX
10
33.7556
20
150.9618
11
-71.0278
21
245.3092
0
LINE
8
PARAMETRIX
10
-71.0278
20
245.3092
11
-73.0352
21
243.0797
0
LINE
8
PARAMETRIX
10
-73.0352
20
243.0797
11
31.7482
21
148.7323
0
LINE
8
PARAMETRIX
10
-125.4910
20
169.8770
11
-76.6444
21
224.1265
0
LINE
8
PARAMETRIX
10
-76.6444
20
224.1265
11
-113.8017
21
257.5831
0
LINE
8
PARAMETRIX
10
-113.8017
20
257.5831
11
-165.7702
21
273.5680
0
ARC
8
PARAMETRIX
10
-170.1802
20
259.2309
40
15.0000
50
72.9027
51
203.0973
0
LINE
8
PARAMETRIX
10
-183.9778
20
253.3465
11
-162.6482
21
203.3335
0
LINE
8
PARAMETRIX
10
-162.6482
20
203.3335
11
-125.4910
21
169.8770
0
CIRCLE
8
PARAMETRIX
10
-119.6463
20
213.7300
40
20.0000
0
CIRCLE
8
PARAMETRIX
10
-170.1802
20
259.2309
40
5.0000
0
LINE
8
PARAMETRIX
10
-114.9774
20
151.6639
11
-112.9700
21
153.8934
0
LINE
8
PARAMETRIX
10
-112.9700
20
153.8934
11
-164.9902
21
200.7325
0
LINE
8
PARAMETRIX
10
-164.9902
20
200.7325
11
-166.9976
21
198.5031
0
LINE
8
PARAMETRIX
10
-166.9976
20
198.5031
11
-114.9774
21
151.6639
0
LINE
8
PARAMETRIX
10
-59.4396
20
213.3449
11
-57.4322
21
215.5744
0
LINE
8
PARAMETRIX
10
-57.4322
20
215.5744
11
-109.4523
21
262.4135
0
LINE
8
PARAMETRIX
10
-109.4523
20
262.4135
11
-111.4597
21
260.1841
0
LINE
8
PARAMETRIX
10
-111.4597
20
260.1841
11
-59.4396
21
213.3449
0
LINE
8
PARAMETRIX
10
-207.0174
20
259.7454
11
-176.4782
21
245.6172
0
ARC
8
PARAMETRIX
10
-170.1802
20
259.2309
40
15.0000
50
245.1735
51
308.8265
0
LINE
8
PARAMETRIX
10
-160.7757
20
247.5452
11
-134.5616
21
268.6419
0
LINE
8
PARAMETRIX
10
-134.5616
20
268.6419
11
-140.6550
21
318.2692
0
LINE
8
PARAMETRIX
10
-140.6550
20
318.2692
11
-213.1109
21
309.3727
0
LINE
8
PARAMETRIX
10
-213.1109
20
309.3727
11
-207.0174
21
259.7454
0
CIRCLE
8
PARAMETRIX
10
-173.8362
20
289.0073
40
20.0000
0
CIRCLE
8
PARAMETRIX
10
-170.1802
20
259.2309
40
5.0000
0
LINE
8
PARAMETRIX
10
-213.4690
20
258.9533
11
-210.4914
21
259.3189
0
LINE
8
PARAMETRIX
10
-210.4914
20
259.3189
11
-226.0906
21
386.3648
0
LINE
8
PARAMETRIX
10
-226.0906
20
386.3648
11
-229.0683
21
385.9992
0
LINE
8
PARAMETRIX
10
-229.0683
20
385.9992
11
-213.4690
21
258.9533
0
LINE
8
PARAMETRIX
10
-131.0877
20
269.0684
11
-128.1100
21
269.4340
0
LINE
8
PARAMETRIX
10
-128.1100
20
269.4340
11
-143.7093
21
396.4799
0
LINE
8
PARAMETRIX
10
-143.7093
20
396.4799
11
-146.6869
21
396.1143
0
LINE
8
PARAMETRIX
10
-146.6869
20
396.1143
11
-131.0877
21
269.0684
0
LINE
8
PARAMETRIX
10
-208.4949
20
378.4502
11
-161.8453
21
384.1780
0
LINE
8
PARAMETRIX
10
-161.8453
20
384.1780
11
-167.9387
21
433.8053
0
LINE
8
PARAMETRIX
10
-167.9387
20
433.8053
11
-181.0014
21
466.3109
0
ARC
8
PARAMETRIX
10
-194.9196
20
460.7178
40
15.0000
50
21.8932
51
172.1068
0
LINE
8
PARAMETRIX
10
-209.7775
20
462.7777
11
-214.5884
21
428.0775
0
LINE
8
PARAMETRIX
10
-214.5884
20
428.0775
11
-208.4949
21
378.4502
0
CIRCLE
8
PARAMETRIX
10
-188.2168
20
406.1277
40
20.0000
0
CIRCLE
8
PARAMETRIX
10
-194.9196
20
460.7178
40
5.0000
0
LINE
8
PARAMETRIX
10
-212.5091
20
357.8071
11
-209.5315
21
358.1727
0
LINE
8
PARAMETRIX
10
-209.5315
20
358.1727
11
-218.0623
21
427.6509
0
LINE
8
PARAMETRIX
10
-218.0623
20
427.6509
11
-221.0399
21
427.2853
0
LINE
8
PARAMETRIX
10
-221.0399
20
427.2853
11
-212.5091
21
357.8071
0
LINE
8
PARAMETRIX
10
-155.9340
20
364.7536
11
-152.9563
21
365.1192
0
LINE
8
PARAMETRIX
10
-152.9563
20
365.1192
11
-161.4872
21
434.5975
0
LINE
8
PARAMETRIX
10
-161.4872
20
434.5975
11
-164.4648
21
434.2319
0
LINE
8
PARAMETRIX
10
-164.4648
20
434.2319
11
-155.9340
21
364.7536
0
LINE
8
PARAMETRIX
10
-135.1842
20
463.7065
11
-155.7877
21
505.9499
0
LINE
8
PARAMETRIX
10
-155.7877
20
505.9499
11
-200.7274
21
484.0313
0
LINE
8
PARAMETRIX
10
-200.7274
20
484.0313
11
-208.5534
21
466.9725
0
ARC
8
PARAMETRIX
10
-194.9196
20
460.7178
40
15.0000
50
155.3560
51
256.6440
0
LINE
8
PARAMETRIX
10
-198.3847
20
446.1235
11
-180.1239
21
441.7880
0
LINE
8
PARAMETRIX
10
-180.1239
20
441.7880
11
-135.1842
21
463.7065
0
CIRCLE
8
PARAMETRIX
10
-167.9558
20
473.8689
40
20.0000
0
CIRCLE
8
PARAMETRIX
10
-194.9196
20
460.7178
40
5.0000
0
ENDSEC
0
EOF
