<svg width="316" height="567" viewBox="-245 -28 316 567" xmlns="http://www.w3.org/2000/svg"><path d="M -49.5000 505.9499 L 49.5000 505.9499 L 49.5000 455.9499 L 13.0039 392.4732 A 15.0000 15.0000 0 0 0 -13.0039 392.4732 L -49.5000 455.9499 L -49.5000 505.9499 Z" stroke="green" stroke-width="1" fill="none" /><circle cx="0.0000" cy="480.9499" r="20.0000" stroke="green" stroke-width="1" fill="none" /><circle cx="0.0000" cy="399.9499" r="5.0000" stroke="green" stroke-width="1" fill="none" /><path d="M -36.8377 433.3899 L 6.2643 413.5792 A 15.0000 15.0000 0 0 0 14.2094 404.7552 L 29.4062 359.8185 L -7.7510 326.3620 L -73.9949 399.9333 L -36.8377 433.3899 Z" stroke="green" stroke-width="1" fill="none" /><circle cx="-22.2943" cy="379.8759" r="20.0000" stroke="green" stroke-width="1" fill="none" /><circle cx="0.0000" cy="399.9499" r="5.0000" stroke="green" stroke-width="1" fill="none" /><path d="M -41.1870 438.2203 L -39.1796 435.9909 L -143.9631 341.6435 L -145.9705 343.8729 L -41.1870 438.2203 Z" stroke="green" stroke-width="1" fill="none" /><path d="M 31.7482 357.2175 L 33.7556 354.9881 L -71.0278 260.6407 L -73.0352 262.8701 L 31.7482 357.2175 Z" stroke="green" stroke-width="1" fill="none" /><path d="M -125.4910 336.0729 L -76.6444 281.8233 L -113.8017 248.3668 L -165.7702 232.3818 A 15.0000 15.0000 0 0 0 -183.9778 252.6033 L -162.6482 302.6163 L -125.4910 336.0729 Z" stroke="green" stroke-width="1" fill="none" /><circle cx="-119.6463" cy="292.2198" r="20.0000" stroke="green" stroke-width="1" fill="none" /><circle cx="-170.1802" cy="246.7189" r="5.0000" stroke="green" stroke-width="1" fill="none" /><path d="M -114.9774 354.2859 L -112.9700 352.0565 L -164.9902 305.2174 L -166.9976 307.4468 L -114.9774 354.2859 Z" stroke="green" stroke-width="1" fill="none" /><path d="M -59.4396 292.6049 L -57.4322 290.3755 L -109.4523 243.5363 L -111.4597 245.7658 L -59.4396 292.6049 Z" stroke="green" stroke-width="1" fill="none" /><path d="M -207.0174 246.2044 L -176.4782 260.3327 A 15.0000 15.0000 0 0 0 -160.7757 258.4047 L -134.5616 237.3080 L -140.6550 187.6807 L -213.1109 196.5771 L -207.0174 246.2044 Z" stroke="green" stroke-width="1" fill="none" /><circle cx="-173.8362" cy="216.9426" r="20.0000" stroke="green" stroke-width="1" fill="none" /><circle cx="-170.1802" cy="246.7189" r="5.0000" stroke="green" stroke-width="1" fill="none" /><path d="M -213.4690 246.9966 L -210.4914 246.6310 L -226.0906 119.5851 L -229.0683 119.9507 L -213.4690 246.9966 Z" stroke="green" stroke-width="1" fill="none" /><path d="M -131.0877 236.8814 L -128.1100 236.5158 L -143.7093 109.4699 L -146.6869 109.8355 L -131.0877 236.8814 Z" stroke="green" stroke-width="1" fill="none" /><path d="M -208.4949 127.4997 L -161.8453 121.7718 L -167.9387 72.1445 L -181.0014 39.6389 A 15.0000 15.0000 0 0 0 -209.7775 43.1722 L -214.5884 77.8724 L -208.4949 127.4997 Z" stroke="green" stroke-width="1" fill="none" /><circle cx="-188.2168" cy="99.8221" r="20.0000" stroke="green" stroke-width="1" fill="none" /><circle cx="-194.9196" cy="45.2321" r="5.0000" stroke="green" stroke-width="1" fill="none" /><path d="M -212.5091 148.1428 L -209.5315 147.7772 L -218.0623 78.2989 L -221.0399 78.6645 L -212.5091 148.1428 Z" stroke="green" stroke-width="1" fill="none" /><path d="M -155.9340 141.1962 L -152.9563 140.8306 L -161.4872 71.3524 L -164.4648 71.7180 L -155.9340 141.1962 Z" stroke="green" stroke-width="1" fill="none" /><path d="M -135.1842 42.2433 L -155.7877 0.0000 L -200.7274 21.9186 L -208.5534 38.9774 A 15.0000 15.0000 0 0 0 -198.3847 59.8264 L -180.1239 64.1619 L -135.1842 42.2433 Z" stroke="green" stroke-width="1" fill="none" /><circle cx="-167.9558" cy="32.0809" r="20.0000" stroke="green" stroke-width="1" fill="none" /><circle cx="-194.9196" cy="45.2321" r="5.0000" stroke="green" stroke-width="1" fill="none" /></svg>