0
SECTION
2
ENTITIES
0
LINE
8
PARAMETRIX
10
-82.5000
20
0.0000
11
82.5000
21
0.0000
0
LINE
8
PARAMETRIX
10
82.5000
20
0.0000
11
82.5000
21
50.0000
0
LINE
8
PARAMETRIX
10
82.5000
20
50.0000
11
-82.5000
21
50.0000
0
LINE
8
PARAMETRIX
10
-82.5000
20
50.0000
11
-82.5000
21
0.0000
0
CIRCLE
8
PARAMETRIX
10
0.0000
20
25.0000
40
20.0000
0
LINE
8
PARAMETRIX
10
-89.0000
20
0.0000
11
-86.0000
21
0.0000
0
LINE
8
PARAMETRIX
10
-86.0000
20
0.0000
11
-86.0000
21
121.0000
0
LINE
8
PARAMETRIX
10
-86.0000
20
121.0000
11
-89.0000
21
121.0000
0
LINE
8
PARAMETRIX
10
-89.0000
20
121.0000
11
-89.0000
21
0.0000
0
LINE
8
PARAMETRIX
10
86.0000
20
0.0000
11
89.0000
21
0.0000
0
LINE
8
PARAMETRIX
10
89.0000
20
0.0000
11
89.0000
21
121.0000
0
LINE
8
PARAMETRIX
10
89.0000
20
121.0000
11
86.0000
21
121.0000
0
LINE
8
PARAMETRIX
10
86.0000
20
121.0000
11
86.0000
21
0.0000
0
LINE
8
PARAMETRIX
10
-69.5000
20
111.0000
11
69.5000
21
111.0000
0
LINE
8
PARAMETRIX
10
69.5000
20
111.0000
11
69.5000
21
161.0000
0
LINE
8
PARAMETRIX
10
69.5000
20
161.0000
11
12.4257
21
245.4025
0
ARC
8
PARAMETRIX
10
-0.0000
20
237.0000
40
15.0000
50
34.0672
51
145.9328
0
LINE
8
PARAMETRIX
10
-12.4257
20
245.4025
11
-69.5000
21
161.0000
0
LINE
8
PARAMETRIX
10
-69.5000
20
161.0000
11
-69.5000
21
111.0000
0
CIRCLE
8
PARAMETRIX
10
0.0000
20
136.0000
40
20.0000
0
CIRCLE
8
PARAMETRIX
10
0.0000
20
237.0000
40
5.0000
0
LINE
8
PARAMETRIX
10
-76.0000
20
91.0000
11
-73.0000
21
91.0000
0
LINE
8
PARAMETRIX
10
-73.0000
20
91.0000
11
-73.0000
21
161.0000
0
LINE
8
PARAMETRIX
10
-73.0000
20
161.0000
11
-76.0000
21
161.0000
0
LINE
8
PARAMETRIX
10
-76.0000
20
161.0000
11
-76.0000
21
91.0000
0
LINE
8
PARAMETRIX
10
73.0000
20
91.0000
11
76.0000
21
91.0000
0
LINE
8
PARAMETRIX
10
76.0000
20
91.0000
11
76.0000
21
161.0000
0
LINE
8
PARAMETRIX
10
76.0000
20
161.0000
11
73.0000
21
161.0000
0
LINE
8
PARAMETRIX
10
73.0000
20
161.0000
11
73.0000
21
91.0000
0
LINE
8
PARAMETRIX
10
-36.8060
20
296.1656
11
-14.1437
21
232.0043
0
ARC
8
PARAMETRIX
10
-0.0000
20
237.0000
40
15.0000
50
199.4537
51
232.5463
0
LINE
8
PARAMETRIX
10
-9.1218
20
225.0923
11
44.8962
21
183.7122
0
LINE
8
PARAMETRIX
10
44.8962
20
183.7122
11
85.3470
21
213.1015
0
LINE
8
PARAMETRIX
10
85.3470
20
213.1015
11
3.6449
21
325.5549
0
LINE
8
PARAMETRIX
10
3.6449
20
325.5549
11
-36.8060
21
296.1656
0
CIRCLE
8
PARAMETRIX
10
24.2705
20
254.6336
40
20.0000
0
CIRCLE
8
PARAMETRIX
10
0.0000
20
237.0000
40
5.0000
0
LINE
8
PARAMETRIX
10
-40.6266
20
301.4242
11
-38.8632
21
298.9972
0
LINE
8
PARAMETRIX
10
-38.8632
20
298.9972
11
48.5106
21
362.4780
0
LINE
8
PARAMETRIX
10
48.5106
20
362.4780
11
46.7472
21
364.9050
0
LINE
8
PARAMETRIX
10
46.7472
20
364.9050
11
-40.6266
21
301.4242
0
LINE
8
PARAMETRIX
10
46.9534
20
180.8807
11
48.7168
21
178.4536
0
LINE
8
PARAMETRIX
10
48.7168
20
178.4536
11
136.0906
21
241.9344
0
LINE
8
PARAMETRIX
10
136.0906
20
241.9344
11
134.3272
21
244.3615
0
LINE
8
PARAMETRIX
10
134.3272
20
244.3615
11
46.9534
21
180.8807
0
LINE
8
PARAMETRIX
10
50.1189
20
343.2513
11
116.5386
21
251.8324
0
LINE
8
PARAMETRIX
10
116.5386
20
251.8324
11
156.9895
21
281.2217
0
LINE
8
PARAMETRIX
10
156.9895
20
281.2217
11
188.6235
21
358.2641
0
ARC
8
PARAMETRIX
10
174.7477
20
363.9616
40
15.0000
50
337.6767
51
94.3233
0
LINE
8
PARAMETRIX
10
173.6169
20
378.9189
11
90.5697
21
372.6406
0
LINE
8
PARAMETRIX
10
90.5697
20
372.6406
11
50.1189
21
343.2513
0
CIRCLE
8
PARAMETRIX
10
103.5542
20
312.2365
40
20.0000
0
CIRCLE
8
PARAMETRIX
10
174.7477
20
363.9616
40
5.0000
0
LINE
8
PARAMETRIX
10
30.1179
20
336.7542
11
31.8813
21
334.3272
0
LINE
8
PARAMETRIX
10
31.8813
20
334.3272
11
88.5125
21
375.4722
0
LINE
8
PARAMETRIX
10
88.5125
20
375.4722
11
86.7491
21
377.8992
0
LINE
8
PARAMETRIX
10
86.7491
20
377.8992
11
30.1179
21
336.7542
0
LINE
8
PARAMETRIX
10
102.4155
20
237.2452
11
104.1789
21
234.8181
0
LINE
8
PARAMETRIX
10
104.1789
20
234.8181
11
160.8101
21
275.9631
0
LINE
8
PARAMETRIX
10
160.8101
20
275.9631
11
159.0467
21
278.3901
0
LINE
8
PARAMETRIX
10
159.0467
20
278.3901
11
102.4155
21
237.2452
0
LINE
8
PARAMETRIX
10
123.7922
20
388.8773
11
164.8296
21
352.7085
0
ARC
8
PARAMETRIX
10
174.7477
20
363.9616
40
15.0000
50
228.6083
51
269.3917
0
LINE
8
PARAMETRIX
10
174.5884
20
348.9625
11
229.2868
21
348.3817
0
LINE
8
PARAMETRIX
10
229.2868
20
348.3817
11
247.2052
21
395.0607
0
LINE
8
PARAMETRIX
10
247.2052
20
395.0607
11
141.7106
21
435.5563
0
LINE
8
PARAMETRIX
10
141.7106
20
435.5563
11
123.7922
21
388.8773
0
CIRCLE
8
PARAMETRIX
10
185.4987
20
391.9690
40
20.0000
0
CIRCLE
8
PARAMETRIX
10
174.7477
20
363.9616
40
5.0000
0
LINE
8
PARAMETRIX
10
117.7239
20
391.2067
11
120.5247
21
390.1316
0
LINE
8
PARAMETRIX
10
120.5247
20
390.1316
11
154.5696
21
478.8217
0
LINE
8
PARAMETRIX
10
154.5696
20
478.8217
11
151.7689
21
479.8968
0
LINE
8
PARAMETRIX
10
151.7689
20
479.8968
11
117.7239
21
391.2067
0
LINE
8
PARAMETRIX
10
232.5543
20
347.1274
11
235.3551
21
346.0523
0
LINE
8
PARAMETRIX
10
235.3551
20
346.0523
11
269.4000
21
434.7425
0
LINE
8
PARAMETRIX
10
269.4000
20
434.7425
11
266.5993
21
435.8176
0
LINE
8
PARAMETRIX
10
266.5993
20
435.8176
11
232.5543
21
347.1274
0
LINE
8
PARAMETRIX
10
265.5299
20
479.0739
11
184.3084
21
510.2519
0
LINE
8
PARAMETRIX
10
184.3084
20
510.2519
11
166.3900
21
463.5729
0
LINE
8
PARAMETRIX
10
166.3900
20
463.5729
11
247.6115
21
432.3948
0
LINE
8
PARAMETRIX
10
247.6115
20
432.3948
11
265.5299
21
479.0739
0
CIRCLE
8
PARAMETRIX
10
215.9600
20
471.3234
40
20.0000
0
LINE
8
PARAMETRIX
10
271.5982
20
476.7445
11
268.7975
21
477.8196
0
LINE
8
PARAMETRIX
10
268.7975
20
477.8196
11
243.7117
21
412.4690
0
LINE
8
PARAMETRIX
10
243.7117
20
412.4690
11
246.5124
21
411.3938
0
LINE
8
PARAMETRIX
10
246.5124
20
411.3938
11
271.5982
21
476.7445
0
LINE
8
PARAMETRIX
10
181.0409
20
511.5062
11
178.2402
21
512.5813
0
LINE
8
PARAMETRIX
10
178.2402
20
512.5813
11
153.1544
21
447.2306
0
LINE
8
PARAMETRIX
10
153.1544
20
447.2306
11
155.9551
21
446.1555
0
LINE
8
PARAMETRIX
10
155.9551
20
446.1555
11
181.0409
21
511.5062
0
ENDSEC
0
EOF
