<svg width="407" height="574" viewBox="-109 -29 407 574" xmlns="http://www.w3.org/2000/svg"><path d="M -82.5000 512.5813 L 82.5000 512.5813 L 82.5000 462.5813 L -82.5000 462.5813 L -82.5000 512.5813 Z" stroke="green" stroke-width="1" fill="none" /><circle cx="0.0000" cy="487.5813" r="20.0000" stroke="green" stroke-width="1" fill="none" /><path d="M -89.0000 512.5813 L -86.0000 512.5813 L -86.0000 391.5813 L -89.0000 391.5813 L -89.0000 512.5813 Z" stroke="green" stroke-width="1" fill="none" /><path d="M 86.0000 512.5813 L 89.0000 512.5813 L 89.0000 391.5813 L 86.0000 391.5813 L 86.0000 512.5813 Z" stroke="green" stroke-width="1" fill="none" /><path d="M -69.5000 401.5813 L 69.5000 401.5813 L 69.5000 351.5813 L 12.4257 267.1788 A 15.0000 15.0000 0 0 0 -12.4257 267.1788 L -69.5000 351.5813 L -69.5000 401.5813 Z" stroke="green" stroke-width="1" fill="none" /><circle cx="0.0000" cy="376.5813" r="20.0000" stroke="green" stroke-width="1" fill="none" /><circle cx="0.0000" cy="275.5813" r="5.0000" stroke="green" stroke-width="1" fill="none" /><path d="M -76.0000 421.5813 L -73.0000 421.5813 L -73.0000 351.5813 L -76.0000 351.5813 L -76.0000 421.5813 Z" stroke="green" stroke-width="1" fill="none" /><path d="M 73.0000 421.5813 L 76.0000 421.5813 L 76.0000 351.5813 L 73.0000 351.5813 L 73.0000 421.5813 Z" stroke="green" stroke-width="1" fill="none" /><path d="M -36.8060 216.4157 L -14.1437 280.5769 A 15.0000 15.0000 0 0 0 -9.1218 287.4890 L 44.8962 328.8690 L 85.3470 299.4798 L 3.6449 187.0264 L -36.8060 216.4157 Z" stroke="green" stroke-width="1" fill="none" /><circle cx="24.2705" cy="257.9477" r="20.0000" stroke="green" stroke-width="1" fill="none" /><circle cx="0.0000" cy="275.5813" r="5.0000" stroke="green" stroke-width="1" fill="none" /><path d="M -40.6266 211.1571 L -38.8632 213.5841 L 48.5106 150.1033 L 46.7472 147.6762 L -40.6266 211.1571 Z" stroke="green" stroke-width="1" fill="none" /><path d="M 46.9534 331.7006 L 48.7168 334.1276 L 136.0906 270.6468 L 134.3272 268.2198 L 46.9534 331.7006 Z" stroke="green" stroke-width="1" fill="none" /><path d="M 50.1189 169.3299 L 116.5386 260.7489 L 156.9895 231.3596 L 188.6235 154.3171 A 15.0000 15.0000 0 0 0 173.6169 133.6623 L 90.5697 139.9407 L 50.1189 169.3299 Z" stroke="green" stroke-width="1" fill="none" /><circle cx="103.5542" cy="200.3448" r="20.0000" stroke="green" stroke-width="1" fill="none" /><circle cx="174.7477" cy="148.6197" r="5.0000" stroke="green" stroke-width="1" fill="none" /><path d="M 30.1179 175.8270 L 31.8813 178.2541 L 88.5125 137.1091 L 86.7491 134.6821 L 30.1179 175.8270 Z" stroke="green" stroke-width="1" fill="none" /><path d="M 102.4155 275.3361 L 104.1789 277.7632 L 160.8101 236.6182 L 159.0467 234.1911 L 102.4155 275.3361 Z" stroke="green" stroke-width="1" fill="none" /><path d="M 123.7922 123.7040 L 164.8296 159.8728 A 15.0000 15.0000 0 0 0 174.5884 163.6188 L 229.2868 164.1995 L 247.2052 117.5205 L 141.7106 77.0249 L 123.7922 123.7040 Z" stroke="green" stroke-width="1" fill="none" /><circle cx="185.4987" cy="120.6122" r="20.0000" stroke="green" stroke-width="1" fill="none" /><circle cx="174.7477" cy="148.6197" r="5.0000" stroke="green" stroke-width="1" fill="none" /><path d="M 117.7239 121.3746 L 120.5247 122.4497 L 154.5696 33.7595 L 151.7689 32.6844 L 117.7239 121.3746 Z" stroke="green" stroke-width="1" fill="none" /><path d="M 232.5543 165.4538 L 235.3551 166.5289 L 269.4000 77.8388 L 266.5993 76.7637 L 232.5543 165.4538 Z" stroke="green" stroke-width="1" fill="none" /><path d="M 265.5299 33.5074 L 184.3084 2.3294 L 166.3900 49.0084 L 247.6115 80.1864 L 265.5299 33.5074 Z" stroke="green" stroke-width="1" fill="none" /><circle cx="215.9600" cy="41.2579" r="20.0000" stroke="green" stroke-width="1" fill="none" /><path d="M 271.5982 35.8368 L 268.7975 34.7617 L 243.7117 100.1123 L 246.5124 101.1874 L 271.5982 35.8368 Z" stroke="green" stroke-width="1" fill="none" /><path d="M 181.0409 1.0751 L 178.2402 0.0000 L 153.1544 65.3506 L 155.9551 66.4257 L 181.0409 1.0751 Z" stroke="green" stroke-width="1" fill="none" /></svg>