0
SECTION
2
ENTITIES
0
LINE
8
PARAMETRIX
10
-49.5000
20
-89.0000
11
49.5000
21
-89.0000
0
LINE
8
PARAMETRIX
10
49.5000
20
-89.0000
11
49.5000
21
-86.0000
0
LINE
8
PARAMETRIX
10
49.5000
20
-86.0000
11
-49.5000
21
-86.0000
0
LINE
8
PARAMETRIX
10
-49.5000
20
-86.0000
11
-49.5000
21
-89.0000
0
ARC
8
PARAMETRIX
10
49.5000
20
-82.5000
40
6.5000
50
270.0000
51
0.0000
0
LINE
8
PARAMETRIX
10
56.0000
20
-82.5000
11
53.0000
21
-82.5000
0
ARC
8
PARAMETRIX
10
49.5000
20
-82.5000
40
3.5000
50
270.0000
51
0.0000
0
LINE
8
PARAMETRIX
10
49.5000
20
-86.0000
11
49.5000
21
-89.0000
0
LINE
8
PARAMETRIX
10
56.0000
20
-82.5000
11
56.0000
21
82.5000
0
LINE
8
PARAMETRIX
10
56.0000
20
82.5000
11
53.0000
21
82.5000
0
LINE
8
PARAMETRIX
10
53.0000
20
82.5000
11
53.0000
21
-82.5000
0
LINE
8
PARAMETRIX
10
53.0000
20
-82.5000
11
56.0000
21
-82.5000
0
ARC
8
PARAMETRIX
10
49.5000
20
82.5000
40
6.5000
50
0.0000
51
90.0000
0
LINE
8
PARAMETRIX
10
49.5000
20
89.0000
11
49.5000
21
86.0000
0
ARC
8
PARAMETRIX
10
49.5000
20
82.5000
40
3.5000
50
360.0000
51
90.0000
0
LINE
8
PARAMETRIX
10
53.0000
20
82.5000
11
56.0000
21
82.5000
0
LINE
8
PARAMETRIX
10
49.5000
20
89.0000
11
-49.5000
21
89.0000
0
LINE
8
PARAMETRIX
10
-49.5000
20
89.0000
11
-49.5000
21
86.0000
0
LINE
8
PARAMETRIX
10
-49.5000
20
86.0000
11
49.5000
21
86.0000
0
LINE
8
PARAMETRIX
10
49.5000
20
86.0000
11
49.5000
21
89.0000
0
ARC
8
PARAMETRIX
10
-49.5000
20
82.5000
40
6.5000
50
90.0000
51
180.0000
0
LINE
8
PARAMETRIX
10
-56.0000
20
82.5000
11
-53.0000
21
82.5000
0
ARC
8
PARAMETRIX
10
-49.5000
20
82.5000
40
3.5000
50
90.0000
51
180.0000
0
LINE
8
PARAMETRIX
10
-49.5000
20
86.0000
11
-49.5000
21
89.0000
0
LINE
8
PARAMETRIX
10
-56.0000
20
82.5000
11
-56.0000
21
-82.5000
0
LINE
8
PARAMETRIX
10
-56.0000
20
-82.5000
11
-53.0000
21
-82.5000
0
LINE
8
PARAMETRIX
10
-53.0000
20
-82.5000
11
-53.0000
21
82.5000
0
LINE
8
PARAMETRIX
10
-53.0000
20
82.5000
11
-56.0000
21
82.5000
0
ARC
8
PARAMETRIX
10
-49.5000
20
-82.5000
40
6.5000
50
180.0000
51
270.0000
0
LINE
8
PARAMETRIX
10
-49.5000
20
-89.0000
11
-49.5000
21
-86.0000
0
ARC
8
PARAMETRIX
10
-49.5000
20
-82.5000
40
3.5000
50
180.0000
51
270.0000
0
LINE
8
PARAMETRIX
10
-53.0000
20
-82.5000
11
-56.0000
21
-82.5000
0
LINE
8
PARAMETRIX
10
56.0000
20
-69.5000
11
56.0000
21
69.5000
0
LINE
8
PARAMETRIX
10
56.0000
20
69.5000
11
53.0000
21
69.5000
0
LINE
8
PARAMETRIX
10
53.0000
20
69.5000
11
53.0000
21
-69.5000
0
LINE
8
PARAMETRIX
10
53.0000
20
-69.5000
11
56.0000
21
-69.5000
0
ARC
8
PARAMETRIX
10
49.5000
20
69.5000
40
6.5000
50
0.0000
51
90.0000
0
LINE
8
PARAMETRIX
10
49.5000
20
76.0000
11
49.5000
21
73.0000
0
ARC
8
PARAMETRIX
10
49.5000
20
69.5000
40
3.5000
50
0.0000
51
90.0000
0
LINE
8
PARAMETRIX
10
53.0000
20
69.5000
11
56.0000
21
69.5000
0
LINE
8
PARAMETRIX
10
49.5000
20
76.0000
11
-49.5000
21
76.0000
0
LINE
8
PARAMETRIX
10
-49.5000
20
76.0000
11
-49.5000
21
73.0000
0
LINE
8
PARAMETRIX
10
-49.5000
20
73.0000
11
49.5000
21
73.0000
0
LINE
8
PARAMETRIX
10
49.5000
20
73.0000
11
49.5000
21
76.0000
0
ARC
8
PARAMETRIX
10
-49.5000
20
69.5000
40
6.5000
50
90.0000
51
180.0000
0
LINE
8
PARAMETRIX
10
-56.0000
20
69.5000
11
-53.0000
21
69.5000
0
ARC
8
PARAMETRIX
10
-49.5000
20
69.5000
40
3.5000
50
90.0000
51
180.0000
0
LINE
8
PARAMETRIX
10
-49.5000
20
73.0000
11
-49.5000
21
76.0000
0
LINE
8
PARAMETRIX
10
-56.0000
20
69.5000
11
-56.0000
21
-69.5000
0
LINE
8
PARAMETRIX
10
-56.0000
20
-69.5000
11
-53.0000
21
-69.5000
0
LINE
8
PARAMETRIX
10
-53.0000
20
-69.5000
11
-53.0000
21
69.5000
0
LINE
8
PARAMETRIX
10
-53.0000
20
69.5000
11
-56.0000
21
69.5000
0
ARC
8
PARAMETRIX
10
-49.5000
20
-69.5000
40
6.5000
50
180.0000
51
270.0000
0
LINE
8
PARAMETRIX
10
-49.5000
20
-76.0000
11
-49.5000
21
-73.0000
0
ARC
8
PARAMETRIX
10
-49.5000
20
-69.5000
40
3.5000
50
180.0000
51
270.0000
0
LINE
8
PARAMETRIX
10
-53.0000
20
-69.5000
11
-56.0000
21
-69.5000
0
LINE
8
PARAMETRIX
10
-49.5000
20
-76.0000
11
49.5000
21
-76.0000
0
LINE
8
PARAMETRIX
10
49.5000
20
-76.0000
11
49.5000
21
-73.0000
0
LINE
8
PARAMETRIX
10
49.5000
20
-73.0000
11
-49.5000
21
-73.0000
0
LINE
8
PARAMETRIX
10
-49.5000
20
-73.0000
11
-49.5000
21
-76.0000
0
ARC
8
PARAMETRIX
10
49.5000
20
-69.5000
40
6.5000
50
270.0000
51
0.0000
0
LINE
8
PARAMETRIX
10
56.0000
20
-69.5000
11
53.0000
21
-69.5000
0
ARC
8
PARAMETRIX
10
49.5000
20
-69.5000
40
3.5000
50
270.0000
51
0.0000
0
LINE
8
PARAMETRIX
10
49.5000
20
-73.0000
11
49.5000
21
-76.0000
0
LINE
8
PARAMETRIX
10
-36.5000
20
-76.0000
11
36.5000
21
-76.0000
0
LINE
8
PARAMETRIX
10
36.5000
20
-76.0000
11
36.5000
21
-73.0000
0
LINE
8
PARAMETRIX
10
36.5000
20
-73.0000
11
-36.5000
21
-73.0000
0
LINE
8
PARAMETRIX
10
-36.5000
20
-73.0000
11
-36.5000
21
-76.0000
0
ARC
8
PARAMETRIX
10
36.5000
20
-69.5000
40
6.5000
50
270.0000
51
0.0000
0
LINE
8
PARAMETRIX
10
43.0000
20
-69.5000
11
40.0000
21
-69.5000
0
ARC
8
PARAMETRIX
10
36.5000
20
-69.5000
40
3.5000
50
270.0000
51
0.0000
0
LINE
8
PARAMETRIX
10
36.5000
20
-73.0000
11
36.5000
21
-76.0000
0
LINE
8
PARAMETRIX
10
43.0000
20
-69.5000
11
43.0000
21
69.5000
0
LINE
8
PARAMETRIX
10
43.0000
20
69.5000
11
40.0000
21
69.5000
0
LINE
8
PARAMETRIX
10
40.0000
20
69.5000
11
40.0000
21
-69.5000
0
LINE
8
PARAMETRIX
10
40.0000
20
-69.5000
11
43.0000
21
-69.5000
0
ARC
8
PARAMETRIX
10
36.5000
20
69.5000
40
6.5000
50
0.0000
51
90.0000
0
LINE
8
PARAMETRIX
10
36.5000
20
76.0000
11
36.5000
21
73.0000
0
ARC
8
PARAMETRIX
10
36.5000
20
69.5000
40
3.5000
50
0.0000
51
90.0000
0
LINE
8
PARAMETRIX
10
40.0000
20
69.5000
11
43.0000
21
69.5000
0
LINE
8
PARAMETRIX
10
36.5000
20
76.0000
11
-36.5000
21
76.0000
0
LINE
8
PARAMETRIX
10
-36.5000
20
76.0000
11
-36.5000
21
73.0000
0
LINE
8
PARAMETRIX
10
-36.5000
20
73.0000
11
36.5000
21
73.0000
0
LINE
8
PARAMETRIX
10
36.5000
20
73.0000
11
36.5000
21
76.0000
0
ARC
8
PARAMETRIX
10
-36.5000
20
69.5000
40
6.5000
50
90.0000
51
180.0000
0
LINE
8
PARAMETRIX
10
-43.0000
20
69.5000
11
-40.0000
21
69.5000
0
ARC
8
PARAMETRIX
10
-36.5000
20
69.5000
40
3.5000
50
90.0000
51
180.0000
0
LINE
8
PARAMETRIX
10
-36.5000
20
73.0000
11
-36.5000
21
76.0000
0
LINE
8
PARAMETRIX
10
-43.0000
20
69.5000
11
-43.0000
21
-69.5000
0
LINE
8
PARAMETRIX
10
-43.0000
20
-69.5000
11
-40.0000
21
-69.5000
0
LINE
8
PARAMETRIX
10
-40.0000
20
-69.5000
11
-40.0000
21
69.5000
0
LINE
8
PARAMETRIX
10
-40.0000
20
69.5000
11
-43.0000
21
69.5000
0
ARC
8
PARAMETRIX
10
-36.5000
20
-69.5000
40
6.5000
50
180.0000
51
270.0000
0
LINE
8
PARAMETRIX
10
-36.5000
20
-76.0000
11
-36.5000
21
-73.0000
0
ARC
8
PARAMETRIX
10
-36.5000
20
-69.5000
40
3.5000
50
180.0000
51
270.0000
0
LINE
8
PARAMETRIX
10
-40.0000
20
-69.5000
11
-43.0000
21
-69.5000
0
LINE
8
PARAMETRIX
10
43.0000
20
-56.5000
11
43.0000
21
56.5000
0
LINE
8
PARAMETRIX
10
43.0000
20
56.5000
11
40.0000
21
56.5000
0
LINE
8
PARAMETRIX
10
40.0000
20
56.5000
11
40.0000
21
-56.5000
0
LINE
8
PARAMETRIX
10
40.0000
20
-56.5000
11
43.0000
21
-56.5000
0
ARC
8
PARAMETRIX
10
36.5000
20
56.5000
40
6.5000
50
0.0000
51
90.0000
0
LINE
8
PARAMETRIX
10
36.5000
20
63.0000
11
36.5000
21
60.0000
0
ARC
8
PARAMETRIX
10
36.5000
20
56.5000
40
3.5000
50
0.0000
51
90.0000
0
LINE
8
PARAMETRIX
10
40.0000
20
56.5000
11
43.0000
21
56.5000
0
LINE
8
PARAMETRIX
10
36.5000
20
63.0000
11
-36.5000
21
63.0000
0
LINE
8
PARAMETRIX
10
-36.5000
20
63.0000
11
-36.5000
21
60.0000
0
LINE
8
PARAMETRIX
10
-36.5000
20
60.0000
11
36.5000
21
60.0000
0
LINE
8
PARAMETRIX
10
36.5000
20
60.0000
11
36.5000
21
63.0000
0
ARC
8
PARAMETRIX
10
-36.5000
20
56.5000
40
6.5000
50
90.0000
51
180.0000
0
LINE
8
PARAMETRIX
10
-43.0000
20
56.5000
11
-40.0000
21
56.5000
0
ARC
8
PARAMETRIX
10
-36.5000
20
56.5000
40
3.5000
50
90.0000
51
180.0000
0
LINE
8
PARAMETRIX
10
-36.5000
20
60.0000
11
-36.5000
21
63.0000
0
LINE
8
PARAMETRIX
10
-43.0000
20
56.5000
11
-43.0000
21
-56.5000
0
LINE
8
PARAMETRIX
10
-43.0000
20
-56.5000
11
-40.0000
21
-56.5000
0
LINE
8
PARAMETRIX
10
-40.0000
20
-56.5000
11
-40.0000
21
56.5000
0
LINE
8
PARAMETRIX
10
-40.0000
20
56.5000
11
-43.0000
21
56.5000
0
ARC
8
PARAMETRIX
10
-36.5000
20
-56.5000
40
6.5000
50
180.0000
51
270.0000
0
LINE
8
PARAMETRIX
10
-36.5000
20
-63.0000
11
-36.5000
21
-60.0000
0
ARC
8
PARAMETRIX
10
-36.5000
20
-56.5000
40
3.5000
50
180.0000
51
270.0000
0
LINE
8
PARAMETRIX
10
-40.0000
20
-56.5000
11
-43.0000
21
-56.5000
0
LINE
8
PARAMETRIX
10
-36.5000
20
-63.0000
11
36.5000
21
-63.0000
0
LINE
8
PARAMETRIX
10
36.5000
20
-63.0000
11
36.5000
21
-60.0000
0
LINE
8
PARAMETRIX
10
36.5000
20
-60.0000
11
-36.5000
21
-60.0000
0
LINE
8
PARAMETRIX
10
-36.5000
20
-60.0000
11
-36.5000
21
-63.0000
0
ARC
8
PARAMETRIX
10
36.5000
20
-56.5000
40
6.5000
50
270.0000
51
0.0000
0
LINE
8
PARAMETRIX
10
43.0000
20
-56.5000
11
40.0000
21
-56.5000
0
ARC
8
PARAMETRIX
10
36.5000
20
-56.5000
40
3.5000
50
270.0000
51
0.0000
0
LINE
8
PARAMETRIX
10
36.5000
20
-60.0000
11
36.5000
21
-63.0000
0
LINE
8
PARAMETRIX
10
-23.5000
20
-63.0000
11
23.5000
21
-63.0000
0
LINE
8
PARAMETRIX
10
23.5000
20
-63.0000
11
23.5000
21
-60.0000
0
LINE
8
PARAMETRIX
10
23.5000
20
-60.0000
11
-23.5000
21
-60.0000
0
LINE
8
PARAMETRIX
10
-23.5000
20
-60.0000
11
-23.5000
21
-63.0000
0
ARC
8
PARAMETRIX
10
23.5000
20
-56.5000
40
6.5000
50
270.0000
51
0.0000
0
LINE
8
PARAMETRIX
10
30.0000
20
-56.5000
11
27.0000
21
-56.5000
0
ARC
8
PARAMETRIX
10
23.5000
20
-56.5000
40
3.5000
50
270.0000
51
0.0000
0
LINE
8
PARAMETRIX
10
23.5000
20
-60.0000
11
23.5000
21
-63.0000
0
LINE
8
PARAMETRIX
10
30.0000
20
-56.5000
11
30.0000
21
56.5000
0
LINE
8
PARAMETRIX
10
30.0000
20
56.5000
11
27.0000
21
56.5000
0
LINE
8
PARAMETRIX
10
27.0000
20
56.5000
11
27.0000
21
-56.5000
0
LINE
8
PARAMETRIX
10
27.0000
20
-56.5000
11
30.0000
21
-56.5000
0
ARC
8
PARAMETRIX
10
23.5000
20
56.5000
40
6.5000
50
360.0000
51
90.0000
0
LINE
8
PARAMETRIX
10
23.5000
20
63.0000
11
23.5000
21
60.0000
0
ARC
8
PARAMETRIX
10
23.5000
20
56.5000
40
3.5000
50
0.0000
51
90.0000
0
LINE
8
PARAMETRIX
10
27.0000
20
56.5000
11
30.0000
21
56.5000
0
LINE
8
PARAMETRIX
10
23.5000
20
63.0000
11
-23.5000
21
63.0000
0
LINE
8
PARAMETRIX
10
-23.5000
20
63.0000
11
-23.5000
21
60.0000
0
LINE
8
PARAMETRIX
10
-23.5000
20
60.0000
11
23.5000
21
60.0000
0
LINE
8
PARAMETRIX
10
23.5000
20
60.0000
11
23.5000
21
63.0000
0
ARC
8
PARAMETRIX
10
-23.5000
20
56.5000
40
6.5000
50
90.0000
51
180.0000
0
LINE
8
PARAMETRIX
10
-30.0000
20
56.5000
11
-27.0000
21
56.5000
0
ARC
8
PARAMETRIX
10
-23.5000
20
56.5000
40
3.5000
50
90.0000
51
180.0000
0
LINE
8
PARAMETRIX
10
-23.5000
20
60.0000
11
-23.5000
21
63.0000
0
LINE
8
PARAMETRIX
10
-30.0000
20
56.5000
11
-30.0000
21
-56.5000
0
LINE
8
PARAMETRIX
10
-30.0000
20
-56.5000
11
-27.0000
21
-56.5000
0
LINE
8
PARAMETRIX
10
-27.0000
20
-56.5000
11
-27.0000
21
56.5000
0
LINE
8
PARAMETRIX
10
-27.0000
20
56.5000
11
-30.0000
21
56.5000
0
ARC
8
PARAMETRIX
10
-23.5000
20
-56.5000
40
6.5000
50
180.0000
51
270.0000
0
LINE
8
PARAMETRIX
10
-23.5000
20
-63.0000
11
-23.5000
21
-60.0000
0
ARC
8
PARAMETRIX
10
-23.5000
20
-56.5000
40
3.5000
50
180.0000
51
270.0000
0
LINE
8
PARAMETRIX
10
-27.0000
20
-56.5000
11
-30.0000
21
-56.5000
0
LINE
8
PARAMETRIX
10
-23.5000
20
-50.0000
11
23.5000
21
-50.0000
0
LINE
8
PARAMETRIX
10
23.5000
20
-50.0000
11
23.5000
21
-47.0000
0
LINE
8
PARAMETRIX
10
23.5000
20
-47.0000
11
-23.5000
21
-47.0000
0
LINE
8
PARAMETRIX
10
-23.5000
20
-47.0000
11
-23.5000
21
-50.0000
0
ARC
8
PARAMETRIX
10
23.5000
20
-43.5000
40
6.5000
50
270.0000
51
0.0000
0
LINE
8
PARAMETRIX
10
30.0000
20
-43.5000
11
27.0000
21
-43.5000
0
ARC
8
PARAMETRIX
10
23.5000
20
-43.5000
40
3.5000
50
270.0000
51
0.0000
0
LINE
8
PARAMETRIX
10
23.5000
20
-47.0000
11
23.5000
21
-50.0000
0
LINE
8
PARAMETRIX
10
30.0000
20
-43.5000
11
30.0000
21
43.5000
0
LINE
8
PARAMETRIX
10
30.0000
20
43.5000
11
27.0000
21
43.5000
0
LINE
8
PARAMETRIX
10
27.0000
20
43.5000
11
27.0000
21
-43.5000
0
LINE
8
PARAMETRIX
10
27.0000
20
-43.5000
11
30.0000
21
-43.5000
0
ARC
8
PARAMETRIX
10
23.5000
20
43.5000
40
6.5000
50
360.0000
51
90.0000
0
LINE
8
PARAMETRIX
10
23.5000
20
50.0000
11
23.5000
21
47.0000
0
ARC
8
PARAMETRIX
10
23.5000
20
43.5000
40
3.5000
50
0.0000
51
90.0000
0
LINE
8
PARAMETRIX
10
27.0000
20
43.5000
11
30.0000
21
43.5000
0
LINE
8
PARAMETRIX
10
23.5000
20
50.0000
11
-23.5000
21
50.0000
0
LINE
8
PARAMETRIX
10
-23.5000
20
50.0000
11
-23.5000
21
47.0000
0
LINE
8
PARAMETRIX
10
-23.5000
20
47.0000
11
23.5000
21
47.0000
0
LINE
8
PARAMETRIX
10
23.5000
20
47.0000
11
23.5000
21
50.0000
0
ARC
8
PARAMETRIX
10
-23.5000
20
43.5000
40
6.5000
50
90.0000
51
180.0000
0
LINE
8
PARAMETRIX
10
-30.0000
20
43.5000
11
-27.0000
21
43.5000
0
ARC
8
PARAMETRIX
10
-23.5000
20
43.5000
40
3.5000
50
90.0000
51
180.0000
0
LINE
8
PARAMETRIX
10
-23.5000
20
47.0000
11
-23.5000
21
50.0000
0
LINE
8
PARAMETRIX
10
-30.0000
20
43.5000
11
-30.0000
21
-43.5000
0
LINE
8
PARAMETRIX
10
-30.0000
20
-43.5000
11
-27.0000
21
-43.5000
0
LINE
8
PARAMETRIX
10
-27.0000
20
-43.5000
11
-27.0000
21
43.5000
0
LINE
8
PARAMETRIX
10
-27.0000
20
43.5000
11
-30.0000
21
43.5000
0
ARC
8
PARAMETRIX
10
-23.5000
20
-43.5000
40
6.5000
50
180.0000
51
270.0000
0
LINE
8
PARAMETRIX
10
-23.5000
20
-50.0000
11
-23.5000
21
-47.0000
0
ARC
8
PARAMETRIX
10
-23.5000
20
-43.5000
40
3.5000
50
180.0000
51
270.0000
0
LINE
8
PARAMETRIX
10
-27.0000
20
-43.5000
11
-30.0000
21
-43.5000
0
ENDSEC
0
EOF
