0
SECTION
2
ENTITIES
0
ARC
8
PARAMETRIX
10
-0.0000
20
-0.0000
40
31.3810
50
0.0000
51
1.4737
0
LINE
8
PARAMETRIX
10
31.3706
20
0.8071
11
30.9769
21
0.8240
0
ARC
8
PARAMETRIX
10
31.0006
20
1.3735
40
0.5500
50
97.5369
51
267.5369
0
LINE
8
PARAMETRIX
10
30.9284
20
1.9187
11
31.3191
21
1.9704
0
ARC
8
PARAMETRIX
10
-0.0000
20
-0.0000
40
31.3810
50
3.6000
51
5.0737
0
LINE
8
PARAMETRIX
10
31.2580
20
2.7753
11
30.8641
21
2.7674
0
ARC
8
PARAMETRIX
10
30.8532
20
3.3173
40
0.5500
50
101.1369
51
271.1369
0
LINE
8
PARAMETRIX
10
30.7469
20
3.8570
11
31.1335
21
3.9331
0
ARC
8
PARAMETRIX
10
0.0000
20
-0.0000
40
31.3810
50
7.2000
51
8.6737
0
LINE
8
PARAMETRIX
10
31.0221
20
4.7325
11
30.6294
21
4.6999
0
ARC
8
PARAMETRIX
10
30.5840
20
5.2481
40
0.5500
50
104.7369
51
274.7369
0
LINE
8
PARAMETRIX
10
30.4441
20
5.7800
11
30.8251
21
5.8802
0
ARC
8
PARAMETRIX
10
-0.0000
20
-0.0000
40
31.3810
50
10.8000
51
12.2737
0
LINE
8
PARAMETRIX
10
30.6637
20
6.6710
11
30.2738
21
6.6139
0
ARC
8
PARAMETRIX
10
30.1941
20
7.1581
40
0.5500
50
108.3369
51
278.3369
0
LINE
8
PARAMETRIX
10
30.0211
20
7.6802
11
30.3951
21
7.8041
0
ARC
8
PARAMETRIX
10
-0.0000
20
-0.0000
40
31.3810
50
14.4000
51
15.8737
0
LINE
8
PARAMETRIX
10
30.1843
20
8.5833
11
29.7988
21
8.5018
0
ARC
8
PARAMETRIX
10
29.6851
20
9.0399
40
0.5500
50
111.9369
51
281.9369
0
LINE
8
PARAMETRIX
10
29.4796
20
9.5501
11
29.8451
21
9.6973
0
ARC
8
PARAMETRIX
10
0.0000
20
0.0000
40
31.3810
50
18.0000
51
19.4737
0
LINE
8
PARAMETRIX
10
29.5858
20
10.4616
11
29.2062
21
10.3561
0
ARC
8
PARAMETRIX
10
29.0589
20
10.8860
40
0.5500
50
115.5369
51
285.5369
0
LINE
8
PARAMETRIX
10
28.8218
20
11.3822
11
29.1773
21
11.5521
0
ARC
8
PARAMETRIX
10
-0.0000
20
-0.0000
40
31.3810
50
21.6000
51
23.0737
0
LINE
8
PARAMETRIX
10
28.8706
20
12.2987
11
28.4983
21
12.1695
0
ARC
8
PARAMETRIX
10
28.3180
20
12.6891
40
0.5500
50
119.1369
51
289.1369
0
LINE
8
PARAMETRIX
10
28.0502
20
13.1695
11
28.3944
21
13.3614
0
ARC
8
PARAMETRIX
10
0.0000
20
0.0000
40
31.3810
50
25.2000
51
26.6737
0
LINE
8
PARAMETRIX
10
28.0413
20
14.0872
11
27.6779
21
13.9349
0
ARC
8
PARAMETRIX
10
27.4654
20
14.4422
40
0.5500
50
122.7369
51
292.7369
0
LINE
8
PARAMETRIX
10
27.1679
20
14.9048
11
27.4994
21
15.1179
0
ARC
8
PARAMETRIX
10
0.0000
20
0.0000
40
31.3810
50
28.8000
51
30.2737
0
LINE
8
PARAMETRIX
10
27.1015
20
15.8201
11
26.7483
21
15.6453
0
ARC
8
PARAMETRIX
10
26.5043
20
16.1382
40
0.5500
50
126.3369
51
296.3369
0
LINE
8
PARAMETRIX
10
26.1784
20
16.5813
11
26.4958
21
16.8148
0
ARC
8
PARAMETRIX
10
0.0000
20
0.0000
40
31.3810
50
32.4000
51
33.8737
0
LINE
8
PARAMETRIX
10
26.0546
20
17.4906
11
25.7132
21
17.2940
0
ARC
8
PARAMETRIX
10
25.4387
20
17.7706
40
0.5500
50
129.9369
51
299.9369
0
LINE
8
PARAMETRIX
10
25.0856
20
18.1923
11
25.3878
21
18.4453
0
ARC
8
PARAMETRIX
10
-0.0000
20
-0.0000
40
31.3810
50
36.0000
51
37.4737
0
LINE
8
PARAMETRIX
10
24.9050
20
19.0921
11
24.5765
21
18.8744
0
ARC
8
PARAMETRIX
10
24.2727
20
19.3329
40
0.5500
50
133.5369
51
303.5369
0
LINE
8
PARAMETRIX
10
23.8938
20
19.7316
11
24.1795
21
20.0030
0
ARC
8
PARAMETRIX
10
0.0000
20
0.0000
40
31.3810
50
39.6000
51
41.0737
0
LINE
8
PARAMETRIX
10
23.6570
20
20.6182
11
23.3429
21
20.3804
0
ARC
8
PARAMETRIX
10
23.0109
20
20.8188
40
0.5500
50
137.1369
51
307.1369
0
LINE
8
PARAMETRIX
10
22.6077
20
21.1929
11
22.8758
21
21.4818
0
ARC
8
PARAMETRIX
10
-0.0000
20
-0.0000
40
31.3810
50
43.2000
51
44.6737
0
LINE
8
PARAMETRIX
10
22.3157
20
22.0630
11
22.0171
21
21.8058
0
ARC
8
PARAMETRIX
10
21.6582
20
22.2226
40
0.5500
50
140.7369
51
310.7369
0
LINE
8
PARAMETRIX
10
21.2324
20
22.5707
11
21.4818
21
22.8758
0
ARC
8
PARAMETRIX
10
-0.0000
20
-0.0000
40
31.3810
50
46.8000
51
48.2737
0
LINE
8
PARAMETRIX
10
20.8863
20
23.4207
11
20.6045
21
23.1453
0
ARC
8
PARAMETRIX
10
20.2201
20
23.5387
40
0.5500
50
144.3369
51
314.3369
0
LINE
8
PARAMETRIX
10
19.7733
20
23.8593
11
20.0030
21
24.1795
0
ARC
8
PARAMETRIX
10
0.0000
20
0.0000
40
31.3810
50
50.4000
51
51.8737
0
LINE
8
PARAMETRIX
10
19.3745
20
24.6859
11
19.1105
21
24.3934
0
ARC
8
PARAMETRIX
10
18.7022
20
24.7619
40
0.5500
50
147.9369
51
317.9369
0
LINE
8
PARAMETRIX
10
18.2361
20
25.0538
11
18.4453
21
25.3878
0
ARC
8
PARAMETRIX
10
-0.0000
20
-0.0000
40
31.3810
50
54.0000
51
55.4737
0
LINE
8
PARAMETRIX
10
17.7862
20
25.8537
11
17.5412
21
25.5452
0
ARC
8
PARAMETRIX
10
17.1105
20
25.8873
40
0.5500
50
151.5369
51
321.5369
0
LINE
8
PARAMETRIX
10
16.6270
20
26.1494
11
16.8148
21
26.4958
0
ARC
8
PARAMETRIX
10
0.0000
20
0.0000
40
31.3810
50
57.6000
51
59.0737
0
LINE
8
PARAMETRIX
10
16.1278
20
26.9195
11
15.9025
21
26.5962
0
ARC
8
PARAMETRIX
10
15.4513
20
26.9106
40
0.5500
50
155.1369
51
325.1369
0
LINE
8
PARAMETRIX
10
14.9522
20
27.1419
11
15.1179
21
27.4994
0
ARC
8
PARAMETRIX
10
-0.0000
20
-0.0000
40
31.3810
50
61.2000
51
62.6737
0
LINE
8
PARAMETRIX
10
14.4057
20
27.8791
11
14.2012
21
27.5423
0
ARC
8
PARAMETRIX
10
13.7310
20
27.8277
40
0.5500
50
158.7369
51
328.7369
0
LINE
8
PARAMETRIX
10
13.2185
20
28.0272
11
13.3614
21
28.3944
0
ARC
8
PARAMETRIX
10
0.0000
20
0.0000
40
31.3810
50
64.8000
51
66.2737
0
LINE
8
PARAMETRIX
10
12.6267
20
28.7286
11
12.4438
21
28.3796
0
ARC
8
PARAMETRIX
10
11.9566
20
28.6350
40
0.5500
50
162.3369
51
332.3369
0
LINE
8
PARAMETRIX
10
11.4326
20
28.8018
11
11.5521
21
29.1773
0
ARC
8
PARAMETRIX
10
0.0000
20
0.0000
40
31.3810
50
68.4000
51
69.8737
0
LINE
8
PARAMETRIX
10
10.7979
20
29.4648
11
10.6372
21
29.1050
0
ARC
8
PARAMETRIX
10
10.1350
20
29.3292
40
0.5500
50
165.9369
51
335.9369
0
LINE
8
PARAMETRIX
10
9.6015
20
29.4629
11
9.6973
21
29.8451
0
ARC
8
PARAMETRIX
10
-0.0000
20
-0.0000
40
31.3810
50
72.0000
51
73.4737
0
LINE
8
PARAMETRIX
10
8.9265
20
30.0846
11
8.7887
21
29.7155
0
ARC
8
PARAMETRIX
10
8.2734
20
29.9077
40
0.5500
50
169.5369
51
339.5369
0
LINE
8
PARAMETRIX
10
7.7326
20
30.0076
11
7.8041
21
30.3951
0
ARC
8
PARAMETRIX
10
0.0000
20
0.0000
40
31.3810
50
75.6000
51
77.0737
0
LINE
8
PARAMETRIX
10
7.0198
20
30.5858
11
6.9055
21
30.2087
0
ARC
8
PARAMETRIX
10
6.3792
20
30.3682
40
0.5500
50
173.1369
51
343.1369
0
LINE
8
PARAMETRIX
10
5.8331
20
30.4339
11
5.8802
21
30.8251
0
ARC
8
PARAMETRIX
10
-0.0000
20
-0.0000
40
31.3810
50
79.2000
51
80.6737
0
LINE
8
PARAMETRIX
10
5.0855
20
30.9662
11
4.9951
21
30.5827
0
ARC
8
PARAMETRIX
10
4.4598
20
30.7088
40
0.5500
50
176.7369
51
346.7369
0
LINE
8
PARAMETRIX
10
3.9107
20
30.7401
11
3.9331
21
31.1335
0
ARC
8
PARAMETRIX
10
0.0000
20
0.0000
40
31.3810
50
82.8000
51
84.2737
0
LINE
8
PARAMETRIX
10
3.1311
20
31.2244
11
3.0649
21
30.8360
0
ARC
8
PARAMETRIX
10
2.5227
20
30.9283
40
0.5500
50
180.3369
51
350.3369
0
LINE
8
PARAMETRIX
10
1.9727
20
30.9250
11
1.9704
21
31.3191
0
ARC
8
PARAMETRIX
10
-0.0000
20
-0.0000
40
31.3810
50
86.4000
51
87.8737
0
LINE
8
PARAMETRIX
10
1.1643
20
31.3594
11
1.1227
21
30.9676
0
ARC
8
PARAMETRIX
10
0.5758
20
31.0256
40
0.5500
50
183.9369
51
353.9369
0
LINE
8
PARAMETRIX
10
0.0271
20
30.9879
11
-0.0000
21
31.3810
0
ARC
8
PARAMETRIX
10
0.0000
20
-0.0000
40
31.3810
50
90.0000
51
91.4737
0
LINE
8
PARAMETRIX
10
-0.8071
20
31.3706
11
-0.8240
21
30.9769
0
ARC
8
PARAMETRIX
10
-1.3735
20
31.0006
40
0.5500
50
187.5369
51
357.5369
0
LINE
8
PARAMETRIX
10
-1.9187
20
30.9284
11
-1.9704
21
31.3191
0
ARC
8
PARAMETRIX
10
0.0000
20
-0.0000
40
31.3810
50
93.6000
51
95.0737
0
LINE
8
PARAMETRIX
10
-2.7753
20
31.2580
11
-2.7674
21
30.8641
0
ARC
8
PARAMETRIX
10
-3.3173
20
30.8532
40
0.5500
50
191.1369
51
1.1369
0
LINE
8
PARAMETRIX
10
-3.8570
20
30.7469
11
-3.9331
21
31.1335
0
ARC
8
PARAMETRIX
10
-0.0000
20
0.0000
40
31.3810
50
97.2000
51
98.6737
0
LINE
8
PARAMETRIX
10
-4.7325
20
31.0221
11
-4.6999
21
30.6294
0
ARC
8
PARAMETRIX
10
-5.2481
20
30.5840
40
0.5500
50
194.7369
51
4.7369
0
LINE
8
PARAMETRIX
10
-5.7800
20
30.4441
11
-5.8802
21
30.8251
0
ARC
8
PARAMETRIX
10
-0.0000
20
0.0000
40
31.3810
50
100.8000
51
102.2737
0
LINE
8
PARAMETRIX
10
-6.6710
20
30.6637
11
-6.6139
21
30.2738
0
ARC
8
PARAMETRIX
10
-7.1581
20
30.1941
40
0.5500
50
198.3369
51
8.3369
0
LINE
8
PARAMETRIX
10
-7.6802
20
30.0211
11
-7.8041
21
30.3951
0
ARC
8
PARAMETRIX
10
0.0000
20
-0.0000
40
31.3810
50
104.4000
51
105.8737
0
LINE
8
PARAMETRIX
10
-8.5833
20
30.1843
11
-8.5018
21
29.7988
0
ARC
8
PARAMETRIX
10
-9.0399
20
29.6851
40
0.5500
50
201.9369
51
11.9369
0
LINE
8
PARAMETRIX
10
-9.5501
20
29.4796
11
-9.6973
21
29.8451
0
ARC
8
PARAMETRIX
10
-0.0000
20
0.0000
40
31.3810
50
108.0000
51
109.4737
0
LINE
8
PARAMETRIX
10
-10.4616
20
29.5858
11
-10.3561
21
29.2062
0
ARC
8
PARAMETRIX
10
-10.8860
20
29.0589
40
0.5500
50
205.5369
51
15.5369
0
LINE
8
PARAMETRIX
10
-11.3822
20
28.8218
11
-11.5521
21
29.1773
0
ARC
8
PARAMETRIX
10
0.0000
20
-0.0000
40
31.3810
50
111.6000
51
113.0737
0
LINE
8
PARAMETRIX
10
-12.2987
20
28.8706
11
-12.1695
21
28.4983
0
ARC
8
PARAMETRIX
10
-12.6891
20
28.3180
40
0.5500
50
209.1369
51
19.1369
0
LINE
8
PARAMETRIX
10
-13.1695
20
28.0502
11
-13.3614
21
28.3944
0
ARC
8
PARAMETRIX
10
-0.0000
20
0.0000
40
31.3810
50
115.2000
51
116.6737
0
LINE
8
PARAMETRIX
10
-14.0872
20
28.0413
11
-13.9349
21
27.6779
0
ARC
8
PARAMETRIX
10
-14.4422
20
27.4654
40
0.5500
50
212.7369
51
22.7369
0
LINE
8
PARAMETRIX
10
-14.9048
20
27.1679
11
-15.1179
21
27.4994
0
ARC
8
PARAMETRIX
10
-0.0000
20
0.0000
40
31.3810
50
118.8000
51
120.2737
0
LINE
8
PARAMETRIX
10
-15.8201
20
27.1015
11
-15.6453
21
26.7483
0
ARC
8
PARAMETRIX
10
-16.1382
20
26.5043
40
0.5500
50
216.3369
51
26.3369
0
LINE
8
PARAMETRIX
10
-16.5813
20
26.1784
11
-16.8148
21
26.4958
0
ARC
8
PARAMETRIX
10
-0.0000
20
0.0000
40
31.3810
50
122.4000
51
123.8737
0
LINE
8
PARAMETRIX
10
-17.4906
20
26.0546
11
-17.2940
21
25.7132
0
ARC
8
PARAMETRIX
10
-17.7706
20
25.4387
40
0.5500
50
219.9369
51
29.9369
0
LINE
8
PARAMETRIX
10
-18.1923
20
25.0856
11
-18.4453
21
25.3878
0
ARC
8
PARAMETRIX
10
-0.0000
20
0.0000
40
31.3810
50
126.0000
51
127.4737
0
LINE
8
PARAMETRIX
10
-19.0921
20
24.9050
11
-18.8744
21
24.5765
0
ARC
8
PARAMETRIX
10
-19.3329
20
24.2727
40
0.5500
50
223.5369
51
33.5369
0
LINE
8
PARAMETRIX
10
-19.7316
20
23.8938
11
-20.0030
21
24.1795
0
ARC
8
PARAMETRIX
10
0.0000
20
-0.0000
40
31.3810
50
129.6000
51
131.0737
0
LINE
8
PARAMETRIX
10
-20.6182
20
23.6570
11
-20.3804
21
23.3429
0
ARC
8
PARAMETRIX
10
-20.8188
20
23.0109
40
0.5500
50
227.1369
51
37.1369
0
LINE
8
PARAMETRIX
10
-21.1929
20
22.6077
11
-21.4818
21
22.8758
0
ARC
8
PARAMETRIX
10
0.0000
20
-0.0000
40
31.3810
50
133.2000
51
134.6737
0
LINE
8
PARAMETRIX
10
-22.0630
20
22.3157
11
-21.8058
21
22.0171
0
ARC
8
PARAMETRIX
10
-22.2226
20
21.6582
40
0.5500
50
230.7369
51
40.7369
0
LINE
8
PARAMETRIX
10
-22.5707
20
21.2324
11
-22.8758
21
21.4818
0
ARC
8
PARAMETRIX
10
0.0000
20
-0.0000
40
31.3810
50
136.8000
51
138.2737
0
LINE
8
PARAMETRIX
10
-23.4207
20
20.8863
11
-23.1453
21
20.6045
0
ARC
8
PARAMETRIX
10
-23.5387
20
20.2201
40
0.5500
50
234.3369
51
44.3369
0
LINE
8
PARAMETRIX
10
-23.8593
20
19.7733
11
-24.1795
21
20.0030
0
ARC
8
PARAMETRIX
10
-0.0000
20
0.0000
40
31.3810
50
140.4000
51
141.8737
0
LINE
8
PARAMETRIX
10
-24.6859
20
19.3745
11
-24.3934
21
19.1105
0
ARC
8
PARAMETRIX
10
-24.7619
20
18.7022
40
0.5500
50
237.9369
51
47.9369
0
LINE
8
PARAMETRIX
10
-25.0538
20
18.2361
11
-25.3878
21
18.4453
0
ARC
8
PARAMETRIX
10
0.0000
20
-0.0000
40
31.3810
50
144.0000
51
145.4737
0
LINE
8
PARAMETRIX
10
-25.8537
20
17.7862
11
-25.5452
21
17.5412
0
ARC
8
PARAMETRIX
10
-25.8873
20
17.1105
40
0.5500
50
241.5369
51
51.5369
0
LINE
8
PARAMETRIX
10
-26.1494
20
16.6270
11
-26.4958
21
16.8148
0
ARC
8
PARAMETRIX
10
0.0000
20
-0.0000
40
31.3810
50
147.6000
51
149.0737
0
LINE
8
PARAMETRIX
10
-26.9195
20
16.1278
11
-26.5962
21
15.9025
0
ARC
8
PARAMETRIX
10
-26.9106
20
15.4513
40
0.5500
50
245.1369
51
55.1369
0
LINE
8
PARAMETRIX
10
-27.1419
20
14.9522
11
-27.4994
21
15.1179
0
ARC
8
PARAMETRIX
10
-0.0000
20
0.0000
40
31.3810
50
151.2000
51
152.6737
0
LINE
8
PARAMETRIX
10
-27.8791
20
14.4057
11
-27.5423
21
14.2012
0
ARC
8
PARAMETRIX
10
-27.8277
20
13.7310
40
0.5500
50
248.7369
51
58.7369
0
LINE
8
PARAMETRIX
10
-28.0272
20
13.2185
11
-28.3944
21
13.3614
0
ARC
8
PARAMETRIX
10
-0.0000
20
0.0000
40
31.3810
50
154.8000
51
156.2737
0
LINE
8
PARAMETRIX
10
-28.7286
20
12.6267
11
-28.3796
21
12.4438
0
ARC
8
PARAMETRIX
10
-28.6350
20
11.9566
40
0.5500
50
252.3369
51
62.3369
0
LINE
8
PARAMETRIX
10
-28.8018
20
11.4326
11
-29.1773
21
11.5521
0
ARC
8
PARAMETRIX
10
0.0000
20
-0.0000
40
31.3810
50
158.4000
51
159.8737
0
LINE
8
PARAMETRIX
10
-29.4648
20
10.7979
11
-29.1050
21
10.6372
0
ARC
8
PARAMETRIX
10
-29.3292
20
10.1350
40
0.5500
50
255.9369
51
65.9369
0
LINE
8
PARAMETRIX
10
-29.4629
20
9.6015
11
-29.8451
21
9.6973
0
ARC
8
PARAMETRIX
10
0.0000
20
-0.0000
40
31.3810
50
162.0000
51
163.4737
0
LINE
8
PARAMETRIX
10
-30.0846
20
8.9265
11
-29.7155
21
8.7887
0
ARC
8
PARAMETRIX
10
-29.9077
20
8.2734
40
0.5500
50
259.5369
51
69.5369
0
LINE
8
PARAMETRIX
10
-30.0076
20
7.7326
11
-30.3951
21
7.8041
0
ARC
8
PARAMETRIX
10
-0.0000
20
0.0000
40
31.3810
50
165.6000
51
167.0737
0
LINE
8
PARAMETRIX
10
-30.5858
20
7.0198
11
-30.2087
21
6.9055
0
ARC
8
PARAMETRIX
10
-30.3682
20
6.3792
40
0.5500
50
263.1369
51
73.1369
0
LINE
8
PARAMETRIX
10
-30.4339
20
5.8331
11
-30.8251
21
5.8802
0
ARC
8
PARAMETRIX
10
0.0000
20
-0.0000
40
31.3810
50
169.2000
51
170.6737
0
LINE
8
PARAMETRIX
10
-30.9662
20
5.0855
11
-30.5827
21
4.9951
0
ARC
8
PARAMETRIX
10
-30.7088
20
4.4598
40
0.5500
50
266.7369
51
76.7369
0
LINE
8
PARAMETRIX
10
-30.7401
20
3.9107
11
-31.1335
21
3.9331
0
ARC
8
PARAMETRIX
10
0.0000
20
-0.0000
40
31.3810
50
172.8000
51
174.2737
0
LINE
8
PARAMETRIX
10
-31.2244
20
3.1311
11
-30.8360
21
3.0649
0
ARC
8
PARAMETRIX
10
-30.9283
20
2.5227
40
0.5500
50
270.3369
51
80.3369
0
LINE
8
PARAMETRIX
10
-30.9250
20
1.9727
11
-31.3191
21
1.9704
0
ARC
8
PARAMETRIX
10
0.0000
20
-0.0000
40
31.3810
50
176.4000
51
177.8737
0
LINE
8
PARAMETRIX
10
-31.3594
20
1.1643
11
-30.9676
21
1.1227
0
ARC
8
PARAMETRIX
10
-31.0256
20
0.5758
40
0.5500
50
273.9369
51
83.9369
0
LINE
8
PARAMETRIX
10
-30.9879
20
0.0271
11
-31.3810
21
-0.0000
0
ARC
8
PARAMETRIX
10
0.0000
20
0.0000
40
31.3810
50
180.0000
51
181.4737
0
LINE
8
PARAMETRIX
10
-31.3706
20
-0.8071
11
-30.9769
21
-0.8240
0
ARC
8
PARAMETRIX
10
-31.0006
20
-1.3735
40
0.5500
50
277.5369
51
87.5369
0
LINE
8
PARAMETRIX
10
-30.9284
20
-1.9187
11
-31.3191
21
-1.9704
0
ARC
8
PARAMETRIX
10
-0.0000
20
-0.0000
40
31.3810
50
183.6000
51
185.0737
0
LINE
8
PARAMETRIX
10
-31.2580
20
-2.7753
11
-30.8641
21
-2.7674
0
ARC
8
PARAMETRIX
10
-30.8532
20
-3.3173
40
0.5500
50
281.1369
51
91.1369
0
LINE
8
PARAMETRIX
10
-30.7469
20
-3.8570
11
-31.1335
21
-3.9331
0
ARC
8
PARAMETRIX
10
0.0000
20
0.0000
40
31.3810
50
187.2000
51
188.6737
0
LINE
8
PARAMETRIX
10
-31.0221
20
-4.7325
11
-30.6294
21
-4.6999
0
ARC
8
PARAMETRIX
10
-30.5840
20
-5.2481
40
0.5500
50
284.7369
51
94.7369
0
LINE
8
PARAMETRIX
10
-30.4441
20
-5.7800
11
-30.8251
21
-5.8802
0
ARC
8
PARAMETRIX
10
0.0000
20
0.0000
40
31.3810
50
190.8000
51
192.2737
0
LINE
8
PARAMETRIX
10
-30.6637
20
-6.6710
11
-30.2738
21
-6.6139
0
ARC
8
PARAMETRIX
10
-30.1941
20
-7.1581
40
0.5500
50
288.3369
51
98.3369
0
LINE
8
PARAMETRIX
10
-30.0211
20
-7.6802
11
-30.3951
21
-7.8041
0
ARC
8
PARAMETRIX
10
-0.0000
20
-0.0000
40
31.3810
50
194.4000
51
195.8737
0
LINE
8
PARAMETRIX
10
-30.1843
20
-8.5833
11
-29.7988
21
-8.5018
0
ARC
8
PARAMETRIX
10
-29.6851
20
-9.0399
40
0.5500
50
291.9369
51
101.9369
0
LINE
8
PARAMETRIX
10
-29.4796
20
-9.5501
11
-29.8451
21
-9.6973
0
ARC
8
PARAMETRIX
10
0.0000
20
0.0000
40
31.3810
50
198.0000
51
199.4737
0
LINE
8
PARAMETRIX
10
-29.5858
20
-10.4616
11
-29.2062
21
-10.3561
0
ARC
8
PARAMETRIX
10
-29.0589
20
-10.8860
40
0.5500
50
295.5369
51
105.5369
0
LINE
8
PARAMETRIX
10
-28.8218
20
-11.3822
11
-29.1773
21
-11.5521
0
ARC
8
PARAMETRIX
10
-0.0000
20
-0.0000
40
31.3810
50
201.6000
51
203.0737
0
LINE
8
PARAMETRIX
10
-28.8706
20
-12.2987
11
-28.4983
21
-12.1695
0
ARC
8
PARAMETRIX
10
-28.3180
20
-12.6891
40
0.5500
50
299.1369
51
109.1369
0
LINE
8
PARAMETRIX
10
-28.0502
20
-13.1695
11
-28.3944
21
-13.3614
0
ARC
8
PARAMETRIX
10
-0.0000
20
-0.0000
40
31.3810
50
205.2000
51
206.6737
0
LINE
8
PARAMETRIX
10
-28.0413
20
-14.0872
11
-27.6779
21
-13.9349
0
ARC
8
PARAMETRIX
10
-27.4654
20
-14.4422
40
0.5500
50
302.7369
51
112.7369
0
LINE
8
PARAMETRIX
10
-27.1679
20
-14.9048
11
-27.4994
21
-15.1179
0
ARC
8
PARAMETRIX
10
0.0000
20
0.0000
40
31.3810
50
208.8000
51
210.2737
0
LINE
8
PARAMETRIX
10
-27.1015
20
-15.8201
11
-26.7483
21
-15.6453
0
ARC
8
PARAMETRIX
10
-26.5043
20
-16.1382
40
0.5500
50
306.3369
51
116.3369
0
LINE
8
PARAMETRIX
10
-26.1784
20
-16.5813
11
-26.4958
21
-16.8148
0
ARC
8
PARAMETRIX
10
0.0000
20
0.0000
40
31.3810
50
212.4000
51
213.8737
0
LINE
8
PARAMETRIX
10
-26.0546
20
-17.4906
11
-25.7132
21
-17.2940
0
ARC
8
PARAMETRIX
10
-25.4387
20
-17.7706
40
0.5500
50
309.9369
51
119.9369
0
LINE
8
PARAMETRIX
10
-25.0856
20
-18.1923
11
-25.3878
21
-18.4453
0
ARC
8
PARAMETRIX
10
0.0000
20
0.0000
40
31.3810
50
216.0000
51
217.4737
0
LINE
8
PARAMETRIX
10
-24.9050
20
-19.0921
11
-24.5765
21
-18.8744
0
ARC
8
PARAMETRIX
10
-24.2727
20
-19.3329
40
0.5500
50
313.5369
51
123.5369
0
LINE
8
PARAMETRIX
10
-23.8938
20
-19.7316
11
-24.1795
21
-20.0030
0
ARC
8
PARAMETRIX
10
-0.0000
20
-0.0000
40
31.3810
50
219.6000
51
221.0737
0
LINE
8
PARAMETRIX
10
-23.6570
20
-20.6182
11
-23.3429
21
-20.3804
0
ARC
8
PARAMETRIX
10
-23.0109
20
-20.8188
40
0.5500
50
317.1369
51
127.1369
0
LINE
8
PARAMETRIX
10
-22.6077
20
-21.1929
11
-22.8758
21
-21.4818
0
ARC
8
PARAMETRIX
10
0.0000
20
0.0000
40
31.3810
50
223.2000
51
224.6737
0
LINE
8
PARAMETRIX
10
-22.3157
20
-22.0630
11
-22.0171
21
-21.8058
0
ARC
8
PARAMETRIX
10
-21.6582
20
-22.2226
40
0.5500
50
320.7369
51
130.7369
0
LINE
8
PARAMETRIX
10
-21.2324
20
-22.5707
11
-21.4818
21
-22.8758
0
ARC
8
PARAMETRIX
10
-0.0000
20
-0.0000
40
31.3810
50
226.8000
51
228.2737
0
LINE
8
PARAMETRIX
10
-20.8863
20
-23.4207
11
-20.6045
21
-23.1453
0
ARC
8
PARAMETRIX
10
-20.2201
20
-23.5387
40
0.5500
50
324.3369
51
134.3369
0
LINE
8
PARAMETRIX
10
-19.7733
20
-23.8593
11
-20.0030
21
-24.1795
0
ARC
8
PARAMETRIX
10
-0.0000
20
-0.0000
40
31.3810
50
230.4000
51
231.8737
0
LINE
8
PARAMETRIX
10
-19.3745
20
-24.6859
11
-19.1105
21
-24.3934
0
ARC
8
PARAMETRIX
10
-18.7022
20
-24.7619
40
0.5500
50
327.9369
51
137.9369
0
LINE
8
PARAMETRIX
10
-18.2361
20
-25.0538
11
-18.4453
21
-25.3878
0
ARC
8
PARAMETRIX
10
0.0000
20
0.0000
40
31.3810
50
234.0000
51
235.4737
0
LINE
8
PARAMETRIX
10
-17.7862
20
-25.8537
11
-17.5412
21
-25.5452
0
ARC
8
PARAMETRIX
10
-17.1105
20
-25.8873
40
0.5500
50
331.5369
51
141.5369
0
LINE
8
PARAMETRIX
10
-16.6270
20
-26.1494
11
-16.8148
21
-26.4958
0
ARC
8
PARAMETRIX
10
0.0000
20
0.0000
40
31.3810
50
237.6000
51
239.0737
0
LINE
8
PARAMETRIX
10
-16.1278
20
-26.9195
11
-15.9025
21
-26.5962
0
ARC
8
PARAMETRIX
10
-15.4513
20
-26.9106
40
0.5500
50
335.1369
51
145.1369
0
LINE
8
PARAMETRIX
10
-14.9522
20
-27.1419
11
-15.1179
21
-27.4994
0
ARC
8
PARAMETRIX
10
-0.0000
20
-0.0000
40
31.3810
50
241.2000
51
242.6737
0
LINE
8
PARAMETRIX
10
-14.4057
20
-27.8791
11
-14.2012
21
-27.5423
0
ARC
8
PARAMETRIX
10
-13.7310
20
-27.8277
40
0.5500
50
338.7369
51
148.7369
0
LINE
8
PARAMETRIX
10
-13.2185
20
-28.0272
11
-13.3614
21
-28.3944
0
ARC
8
PARAMETRIX
10
-0.0000
20
-0.0000
40
31.3810
50
244.8000
51
246.2737
0
LINE
8
PARAMETRIX
10
-12.6267
20
-28.7286
11
-12.4438
21
-28.3796
0
ARC
8
PARAMETRIX
10
-11.9566
20
-28.6350
40
0.5500
50
342.3369
51
152.3369
0
LINE
8
PARAMETRIX
10
-11.4326
20
-28.8018
11
-11.5521
21
-29.1773
0
ARC
8
PARAMETRIX
10
-0.0000
20
-0.0000
40
31.3810
50
248.4000
51
249.8737
0
LINE
8
PARAMETRIX
10
-10.7979
20
-29.4648
11
-10.6372
21
-29.1050
0
ARC
8
PARAMETRIX
10
-10.1350
20
-29.3292
40
0.5500
50
345.9369
51
155.9369
0
LINE
8
PARAMETRIX
10
-9.6015
20
-29.4629
11
-9.6973
21
-29.8451
0
ARC
8
PARAMETRIX
10
0.0000
20
0.0000
40
31.3810
50
252.0000
51
253.4737
0
LINE
8
PARAMETRIX
10
-8.9265
20
-30.0846
11
-8.7887
21
-29.7155
0
ARC
8
PARAMETRIX
10
-8.2734
20
-29.9077
40
0.5500
50
349.5369
51
159.5369
0
LINE
8
PARAMETRIX
10
-7.7326
20
-30.0076
11
-7.8041
21
-30.3951
0
ARC
8
PARAMETRIX
10
-0.0000
20
-0.0000
40
31.3810
50
255.6000
51
257.0737
0
LINE
8
PARAMETRIX
10
-7.0198
20
-30.5858
11
-6.9055
21
-30.2087
0
ARC
8
PARAMETRIX
10
-6.3792
20
-30.3682
40
0.5500
50
353.1369
51
163.1369
0
LINE
8
PARAMETRIX
10
-5.8331
20
-30.4339
11
-5.8802
21
-30.8251
0
ARC
8
PARAMETRIX
10
-0.0000
20
-0.0000
40
31.3810
50
259.2000
51
260.6737
0
LINE
8
PARAMETRIX
10
-5.0855
20
-30.9662
11
-4.9951
21
-30.5827
0
ARC
8
PARAMETRIX
10
-4.4598
20
-30.7088
40
0.5500
50
356.7369
51
166.7369
0
LINE
8
PARAMETRIX
10
-3.9107
20
-30.7401
11
-3.9331
21
-31.1335
0
ARC
8
PARAMETRIX
10
-0.0000
20
-0.0000
40
31.3810
50
262.8000
51
264.2737
0
LINE
8
PARAMETRIX
10
-3.1311
20
-31.2244
11
-3.0649
21
-30.8360
0
ARC
8
PARAMETRIX
10
-2.5227
20
-30.9283
40
0.5500
50
0.3369
51
170.3369
0
LINE
8
PARAMETRIX
10
-1.9727
20
-30.9250
11
-1.9704
21
-31.3191
0
ARC
8
PARAMETRIX
10
0.0000
20
0.0000
40
31.3810
50
266.4000
51
267.8737
0
LINE
8
PARAMETRIX
10
-1.1643
20
-31.3594
11
-1.1227
21
-30.9676
0
ARC
8
PARAMETRIX
10
-0.5758
20
-31.0256
40
0.5500
50
3.9369
51
173.9369
0
LINE
8
PARAMETRIX
10
-0.0271
20
-30.9879
11
-0.0000
21
-31.3810
0
ARC
8
PARAMETRIX
10
-0.0000
20
0.0000
40
31.3810
50
270.0000
51
271.4737
0
LINE
8
PARAMETRIX
10
0.8071
20
-31.3706
11
0.8240
21
-30.9769
0
ARC
8
PARAMETRIX
10
1.3735
20
-31.0006
40
0.5500
50
7.5369
51
177.5369
0
LINE
8
PARAMETRIX
10
1.9187
20
-30.9284
11
1.9704
21
-31.3191
0
ARC
8
PARAMETRIX
10
0.0000
20
-0.0000
40
31.3810
50
273.6000
51
275.0737
0
LINE
8
PARAMETRIX
10
2.7753
20
-31.2580
11
2.7674
21
-30.8641
0
ARC
8
PARAMETRIX
10
3.3173
20
-30.8532
40
0.5500
50
11.1369
51
181.1369
0
LINE
8
PARAMETRIX
10
3.8570
20
-30.7469
11
3.9331
21
-31.1335
0
ARC
8
PARAMETRIX
10
0.0000
20
-0.0000
40
31.3810
50
277.2000
51
278.6737
0
LINE
8
PARAMETRIX
10
4.7325
20
-31.0221
11
4.6999
21
-30.6294
0
ARC
8
PARAMETRIX
10
5.2481
20
-30.5840
40
0.5500
50
14.7369
51
184.7369
0
LINE
8
PARAMETRIX
10
5.7800
20
-30.4441
11
5.8802
21
-30.8251
0
ARC
8
PARAMETRIX
10
0.0000
20
-0.0000
40
31.3810
50
280.8000
51
282.2737
0
LINE
8
PARAMETRIX
10
6.6710
20
-30.6637
11
6.6139
21
-30.2738
0
ARC
8
PARAMETRIX
10
7.1581
20
-30.1941
40
0.5500
50
18.3369
51
188.3369
0
LINE
8
PARAMETRIX
10
7.6802
20
-30.0211
11
7.8041
21
-30.3951
0
ARC
8
PARAMETRIX
10
-0.0000
20
0.0000
40
31.3810
50
284.4000
51
285.8737
0
LINE
8
PARAMETRIX
10
8.5833
20
-30.1843
11
8.5018
21
-29.7988
0
ARC
8
PARAMETRIX
10
9.0399
20
-29.6851
40
0.5500
50
21.9369
51
191.9369
0
LINE
8
PARAMETRIX
10
9.5501
20
-29.4796
11
9.6973
21
-29.8451
0
ARC
8
PARAMETRIX
10
-0.0000
20
0.0000
40
31.3810
50
288.0000
51
289.4737
0
LINE
8
PARAMETRIX
10
10.4616
20
-29.5858
11
10.3561
21
-29.2062
0
ARC
8
PARAMETRIX
10
10.8860
20
-29.0589
40
0.5500
50
25.5369
51
195.5369
0
LINE
8
PARAMETRIX
10
11.3822
20
-28.8218
11
11.5521
21
-29.1773
0
ARC
8
PARAMETRIX
10
0.0000
20
-0.0000
40
31.3810
50
291.6000
51
293.0737
0
LINE
8
PARAMETRIX
10
12.2987
20
-28.8706
11
12.1695
21
-28.4983
0
ARC
8
PARAMETRIX
10
12.6891
20
-28.3180
40
0.5500
50
29.1369
51
199.1369
0
LINE
8
PARAMETRIX
10
13.1695
20
-28.0502
11
13.3614
21
-28.3944
0
ARC
8
PARAMETRIX
10
-0.0000
20
0.0000
40
31.3810
50
295.2000
51
296.6737
0
LINE
8
PARAMETRIX
10
14.0872
20
-28.0413
11
13.9349
21
-27.6779
0
ARC
8
PARAMETRIX
10
14.4422
20
-27.4654
40
0.5500
50
32.7369
51
202.7369
0
LINE
8
PARAMETRIX
10
14.9048
20
-27.1679
11
15.1179
21
-27.4994
0
ARC
8
PARAMETRIX
10
0.0000
20
-0.0000
40
31.3810
50
298.8000
51
300.2737
0
LINE
8
PARAMETRIX
10
15.8201
20
-27.1015
11
15.6453
21
-26.7483
0
ARC
8
PARAMETRIX
10
16.1382
20
-26.5043
40
0.5500
50
36.3369
51
206.3369
0
LINE
8
PARAMETRIX
10
16.5813
20
-26.1784
11
16.8148
21
-26.4958
0
ARC
8
PARAMETRIX
10
0.0000
20
-0.0000
40
31.3810
50
302.4000
51
303.8737
0
LINE
8
PARAMETRIX
10
17.4906
20
-26.0546
11
17.2940
21
-25.7132
0
ARC
8
PARAMETRIX
10
17.7706
20
-25.4387
40
0.5500
50
39.9369
51
209.9369
0
LINE
8
PARAMETRIX
10
18.1923
20
-25.0856
11
18.4453
21
-25.3878
0
ARC
8
PARAMETRIX
10
-0.0000
20
0.0000
40
31.3810
50
306.0000
51
307.4737
0
LINE
8
PARAMETRIX
10
19.0921
20
-24.9050
11
18.8744
21
-24.5765
0
ARC
8
PARAMETRIX
10
19.3329
20
-24.2727
40
0.5500
50
43.5369
51
213.5369
0
LINE
8
PARAMETRIX
10
19.7316
20
-23.8938
11
20.0030
21
-24.1795
0
ARC
8
PARAMETRIX
10
-0.0000
20
0.0000
40
31.3810
50
309.6000
51
311.0737
0
LINE
8
PARAMETRIX
10
20.6182
20
-23.6570
11
20.3804
21
-23.3429
0
ARC
8
PARAMETRIX
10
20.8188
20
-23.0109
40
0.5500
50
47.1369
51
217.1369
0
LINE
8
PARAMETRIX
10
21.1929
20
-22.6077
11
21.4818
21
-22.8758
0
ARC
8
PARAMETRIX
10
-0.0000
20
0.0000
40
31.3810
50
313.2000
51
314.6737
0
LINE
8
PARAMETRIX
10
22.0630
20
-22.3157
11
21.8058
21
-22.0171
0
ARC
8
PARAMETRIX
10
22.2226
20
-21.6582
40
0.5500
50
50.7369
51
220.7369
0
LINE
8
PARAMETRIX
10
22.5707
20
-21.2324
11
22.8758
21
-21.4818
0
ARC
8
PARAMETRIX
10
-0.0000
20
0.0000
40
31.3810
50
316.8000
51
318.2737
0
LINE
8
PARAMETRIX
10
23.4207
20
-20.8863
11
23.1453
21
-20.6045
0
ARC
8
PARAMETRIX
10
23.5387
20
-20.2201
40
0.5500
50
54.3369
51
224.3369
0
LINE
8
PARAMETRIX
10
23.8593
20
-19.7733
11
24.1795
21
-20.0030
0
ARC
8
PARAMETRIX
10
0.0000
20
-0.0000
40
31.3810
50
320.4000
51
321.8737
0
LINE
8
PARAMETRIX
10
24.6859
20
-19.3745
11
24.3934
21
-19.1105
0
ARC
8
PARAMETRIX
10
24.7619
20
-18.7022
40
0.5500
50
57.9369
51
227.9369
0
LINE
8
PARAMETRIX
10
25.0538
20
-18.2361
11
25.3878
21
-18.4453
0
ARC
8
PARAMETRIX
10
-0.0000
20
0.0000
40
31.3810
50
324.0000
51
325.4737
0
LINE
8
PARAMETRIX
10
25.8537
20
-17.7862
11
25.5452
21
-17.5412
0
ARC
8
PARAMETRIX
10
25.8873
20
-17.1105
40
0.5500
50
61.5369
51
231.5369
0
LINE
8
PARAMETRIX
10
26.1494
20
-16.6270
11
26.4958
21
-16.8148
0
ARC
8
PARAMETRIX
10
-0.0000
20
0.0000
40
31.3810
50
327.6000
51
329.0737
0
LINE
8
PARAMETRIX
10
26.9195
20
-16.1278
11
26.5962
21
-15.9025
0
ARC
8
PARAMETRIX
10
26.9106
20
-15.4513
40
0.5500
50
65.1369
51
235.1369
0
LINE
8
PARAMETRIX
10
27.1419
20
-14.9522
11
27.4994
21
-15.1179
0
ARC
8
PARAMETRIX
10
0.0000
20
-0.0000
40
31.3810
50
331.2000
51
332.6737
0
LINE
8
PARAMETRIX
10
27.8791
20
-14.4057
11
27.5423
21
-14.2012
0
ARC
8
PARAMETRIX
10
27.8277
20
-13.7310
40
0.5500
50
68.7369
51
238.7369
0
LINE
8
PARAMETRIX
10
28.0272
20
-13.2185
11
28.3944
21
-13.3614
0
ARC
8
PARAMETRIX
10
0.0000
20
-0.0000
40
31.3810
50
334.8000
51
336.2737
0
LINE
8
PARAMETRIX
10
28.7286
20
-12.6267
11
28.3796
21
-12.4438
0
ARC
8
PARAMETRIX
10
28.6350
20
-11.9566
40
0.5500
50
72.3369
51
242.3369
0
LINE
8
PARAMETRIX
10
28.8018
20
-11.4326
11
29.1773
21
-11.5521
0
ARC
8
PARAMETRIX
10
-0.0000
20
0.0000
40
31.3810
50
338.4000
51
339.8737
0
LINE
8
PARAMETRIX
10
29.4648
20
-10.7979
11
29.1050
21
-10.6372
0
ARC
8
PARAMETRIX
10
29.3292
20
-10.1350
40
0.5500
50
75.9369
51
245.9369
0
LINE
8
PARAMETRIX
10
29.4629
20
-9.6015
11
29.8451
21
-9.6973
0
ARC
8
PARAMETRIX
10
-0.0000
20
0.0000
40
31.3810
50
342.0000
51
343.4737
0
LINE
8
PARAMETRIX
10
30.0846
20
-8.9265
11
29.7155
21
-8.7887
0
ARC
8
PARAMETRIX
10
29.9077
20
-8.2734
40
0.5500
50
79.5369
51
249.5369
0
LINE
8
PARAMETRIX
10
30.0076
20
-7.7326
11
30.3951
21
-7.8041
0
ARC
8
PARAMETRIX
10
0.0000
20
-0.0000
40
31.3810
50
345.6000
51
347.0737
0
LINE
8
PARAMETRIX
10
30.5858
20
-7.0198
11
30.2087
21
-6.9055
0
ARC
8
PARAMETRIX
10
30.3682
20
-6.3792
40
0.5500
50
83.1369
51
253.1369
0
LINE
8
PARAMETRIX
10
30.4339
20
-5.8331
11
30.8251
21
-5.8802
0
ARC
8
PARAMETRIX
10
-0.0000
20
0.0000
40
31.3810
50
349.2000
51
350.6737
0
LINE
8
PARAMETRIX
10
30.9662
20
-5.0855
11
30.5827
21
-4.9951
0
ARC
8
PARAMETRIX
10
30.7088
20
-4.4598
40
0.5500
50
86.7369
51
256.7369
0
LINE
8
PARAMETRIX
10
30.7401
20
-3.9107
11
31.1335
21
-3.9331
0
ARC
8
PARAMETRIX
10
0.0000
20
-0.0000
40
31.3810
50
352.8000
51
354.2737
0
LINE
8
PARAMETRIX
10
31.2244
20
-3.1311
11
30.8360
21
-3.0649
0
ARC
8
PARAMETRIX
10
30.9283
20
-2.5227
40
0.5500
50
90.3369
51
260.3369
0
LINE
8
PARAMETRIX
10
30.9250
20
-1.9727
11
31.3191
21
-1.9704
0
ARC
8
PARAMETRIX
10
-0.0000
20
0.0000
40
31.3810
50
356.4000
51
357.8737
0
LINE
8
PARAMETRIX
10
31.3594
20
-1.1643
11
30.9676
21
-1.1227
0
ARC
8
PARAMETRIX
10
31.0256
20
-0.5758
40
0.5500
50
93.9369
51
263.9369
0
LINE
8
PARAMETRIX
10
30.9879
20
-0.0271
11
31.3810
21
-0.0000
0
CIRCLE
8
PARAMETRIX
10
0.0000
20
0.0000
40
29.3810
0
ENDSEC
0
EOF
