<svg width="79" height="79" viewBox="-35 -35 79 79" xmlns="http://www.w3.org/2000/svg"><path d="M 31.3810 0.0000 A 31.3810 31.3810 0 0 0 31.3706 -0.8071 L 30.9769 -0.8240 A 0.5500 0.5500 0 0 1 30.9284 -1.9187 L 31.3191 -1.9704 A 31.3810 31.3810 0 0 0 31.2580 -2.7753 L 30.8641 -2.7674 A 0.5500 0.5500 0 0 1 30.7469 -3.8570 L 31.1335 -3.9331 A 31.3810 31.3810 0 0 0 31.0221 -4.7325 L 30.6294 -4.6999 A 0.5500 0.5500 0 0 1 30.4441 -5.7800 L 30.8251 -5.8802 A 31.3810 31.3810 0 0 0 30.6637 -6.6710 L 30.2738 -6.6139 A 0.5500 0.5500 0 0 1 30.0211 -7.6802 L 30.3951 -7.8041 A 31.3810 31.3810 0 0 0 30.1843 -8.5833 L 29.7988 -8.5018 A 0.5500 0.5500 0 0 1 29.4796 -9.5501 L 29.8451 -9.6973 A 31.3810 31.3810 0 0 0 29.5858 -10.4616 L 29.2062 -10.3561 A 0.5500 0.5500 0 0 1 28.8218 -11.3822 L 29.1773 -11.5521 A 31.3810 31.3810 0 0 0 28.8706 -12.2987 L 28.4983 -12.1695 A 0.5500 0.5500 0 0 1 28.0502 -13.1695 L 28.3944 -13.3614 A 31.3810 31.3810 0 0 0 28.0413 -14.0872 L 27.6779 -13.9349 A 0.5500 0.5500 0 0 1 27.1679 -14.9048 L 27.4994 -15.1179 A 31.3810 31.3810 0 0 0 27.1015 -15.8201 L 26.7483 -15.6453 A 0.5500 0.5500 0 0 1 26.1784 -16.5813 L 26.4958 -16.8148 A 31.3810 31.3810 0 0 0 26.0546 -17.4906 L 25.7132 -17.2940 A 0.5500 0.5500 0 0 1 25.0856 -18.1923 L 25.3878 -18.4453 A 31.3810 31.3810 0 0 0 24.9050 -19.0921 L 24.5765 -18.8744 A 0.5500 0.5500 0 0 1 23.8938 -19.7316 L 24.1795 -20.0030 A 31.3810 31.3810 0 0 0 23.6570 -20.6182 L 23.3429 -20.3804 A 0.5500 0.5500 0 0 1 22.6077 -21.1929 L 22.8758 -21.4818 A 31.3810 31.3810 0 0 0 22.3157 -22.0630 L 22.0171 -21.8058 A 0.5500 0.5500 0 0 1 21.2324 -22.5707 L 21.4818 -22.8758 A 31.3810 31.3810 0 0 0 20.8863 -23.4207 L 20.6045 -23.1453 A 0.5500 0.5500 0 0 1 19.7733 -23.8593 L 20.0030 -24.1795 A 31.3810 31.3810 0 0 0 19.3745 -24.6859 L 19.1105 -24.3934 A 0.5500 0.5500 0 0 1 18.2361 -25.0538 L 18.4453 -25.3878 A 31.3810 31.3810 0 0 0 17.7862 -25.8537 L 17.5412 -25.5452 A 0.5500 0.5500 0 0 1 16.6270 -26.1494 L 16.8148 -26.4958 A 31.3810 31.3810 0 0 0 16.1278 -26.9195 L 15.9025 -26.5962 A 0.5500 0.5500 0 0 1 14.9522 -27.1419 L 15.1179 -27.4994 A 31.3810 31.3810 0 0 0 14.4057 -27.8791 L 14.2012 -27.5423 A 0.5500 0.5500 0 0 1 13.2185 -28.0272 L 13.3614 -28.3944 A 31.3810 31.3810 0 0 0 12.6267 -28.7286 L 12.4438 -28.3796 A 0.5500 0.5500 0 0 1 11.4326 -28.8018 L 11.5521 -29.1773 A 31.3810 31.3810 0 0 0 10.7979 -29.4648 L 10.6372 -29.1050 A 0.5500 0.5500 0 0 1 9.6015 -29.4629 L 9.6973 -29.8451 A 31.3810 31.3810 0 0 0 8.9265 -30.0846 L 8.7887 -29.7155 A 0.5500 0.5500 0 0 1 7.7326 -30.0076 L 7.8041 -30.3951 A 31.3810 31.3810 0 0 0 7.0198 -30.5858 L 6.9055 -30.2087 A 0.5500 0.5500 0 0 1 5.8331 -30.4339 L 5.8802 -30.8251 A 31.3810 31.3810 0 0 0 5.0855 -30.9662 L 4.9951 -30.5827 A 0.5500 0.5500 0 0 1 3.9107 -30.7401 L 3.9331 -31.1335 A 31.3810 31.3810 0 0 0 3.1311 -31.2244 L 3.0649 -30.8360 A 0.5500 0.5500 0 0 1 1.9727 -30.9250 L 1.9704 -31.3191 A 31.3810 31.3810 0 0 0 1.1643 -31.3594 L 1.1227 -30.9676 A 0.5500 0.5500 0 0 1 0.0271 -30.9879 L -0.0000 -31.3810 A 31.3810 31.3810 0 0 0 -0.8071 -31.3706 L -0.8240 -30.9769 A 0.5500 0.5500 0 0 1 -1.9187 -30.9284 L -1.9704 -31.3191 A 31.3810 31.3810 0 0 0 -2.7753 -31.2580 L -2.7674 -30.8641 A 0.5500 0.5500 0 0 1 -3.8570 -30.7469 L -3.9331 -31.1335 A 31.3810 31.3810 0 0 0 -4.7325 -31.0221 L -4.6999 -30.6294 A 0.5500 0.5500 0 0 1 -5.7800 -30.4441 L -5.8802 -30.8251 A 31.3810 31.3810 0 0 0 -6.6710 -30.6637 L -6.6139 -30.2738 A 0.5500 0.5500 0 0 1 -7.6802 -30.0211 L -7.8041 -30.3951 A 31.3810 31.3810 0 0 0 -8.5833 -30.1843 L -8.5018 -29.7988 A 0.5500 0.5500 0 0 1 -9.5501 -29.4796 L -9.6973 -29.8451 A 31.3810 31.3810 0 0 0 -10.4616 -29.5858 L -10.3561 -29.2062 A 0.5500 0.5500 0 0 1 -11.3822 -28.8218 L -11.5521 -29.1773 A 31.3810 31.3810 0 0 0 -12.2987 -28.8706 L -12.1695 -28.4983 A 0.5500 0.5500 0 0 1 -13.1695 -28.0502 L -13.3614 -28.3944 A 31.3810 31.3810 0 0 0 -14.0872 -28.0413 L -13.9349 -27.6779 A 0.5500 0.5500 0 0 1 -14.9048 -27.1679 L -15.1179 -27.4994 A 31.3810 31.3810 0 0 0 -15.8201 -27.1015 L -15.6453 -26.7483 A 0.5500 0.5500 0 0 1 -16.5813 -26.1784 L -16.8148 -26.4958 A 31.3810 31.3810 0 0 0 -17.4906 -26.0546 L -17.2940 -25.7132 A 0.5500 0.5500 0 0 1 -18.1923 -25.0856 L -18.4453 -25.3878 A 31.3810 31.3810 0 0 0 -19.0921 -24.9050 L -18.8744 -24.5765 A 0.5500 0.5500 0 0 1 -19.7316 -23.8938 L -20.0030 -24.1795 A 31.3810 31.3810 0 0 0 -20.6182 -23.6570 L -20.3804 -23.3429 A 0.5500 0.5500 0 0 1 -21.1929 -22.6077 L -21.4818 -22.8758 A 31.3810 31.3810 0 0 0 -22.0630 -22.3157 L -21.8058 -22.0171 A 0.5500 0.5500 0 0 1 -22.5707 -21.2324 L -22.8758 -21.4818 A 31.3810 31.3810 0 0 0 -23.4207 -20.8863 L -23.1453 -20.6045 A 0.5500 0.5500 0 0 1 -23.8593 -19.7733 L -24.1795 -20.0030 A 31.3810 31.3810 0 0 0 -24.6859 -19.3745 L -24.3934 -19.1105 A 0.5500 0.5500 0 0 1 -25.0538 -18.2361 L -25.3878 -18.4453 A 31.3810 31.3810 0 0 0 -25.8537 -17.7862 L -25.5452 -17.5412 A 0.5500 0.5500 0 0 1 -26.1494 -16.6270 L -26.4958 -16.8148 A 31.3810 31.3810 0 0 0 -26.9195 -16.1278 L -26.5962 -15.9025 A 0.5500 0.5500 0 0 1 -27.1419 -14.9522 L -27.4994 -15.1179 A 31.3810 31.3810 0 0 0 -27.8791 -14.4057 L -27.5423 -14.2012 A 0.5500 0.5500 0 0 1 -28.0272 -13.2185 L -28.3944 -13.3614 A 31.3810 31.3810 0 0 0 -28.7286 -12.6267 L -28.3796 -12.4438 A 0.5500 0.5500 0 0 1 -28.8018 -11.4326 L -29.1773 -11.5521 A 31.3810 31.3810 0 0 0 -29.4648 -10.7979 L -29.1050 -10.6372 A 0.5500 0.5500 0 0 1 -29.4629 -9.6015 L -29.8451 -9.6973 A 31.3810 31.3810 0 0 0 -30.0846 -8.9265 L -29.7155 -8.7887 A 0.5500 0.5500 0 0 1 -30.0076 -7.7326 L -30.3951 -7.8041 A 31.3810 31.3810 0 0 0 -30.5858 -7.0198 L -30.2087 -6.9055 A 0.5500 0.5500 0 0 1 -30.4339 -5.8331 L -30.8251 -5.8802 A 31.3810 31.3810 0 0 0 -30.9662 -5.0855 L -30.5827 -4.9951 A 0.5500 0.5500 0 0 1 -30.7401 -3.9107 L -31.1335 -3.9331 A 31.3810 31.3810 0 0 0 -31.2244 -3.1311 L -30.8360 -3.0649 A 0.5500 0.5500 0 0 1 -30.9250 -1.9727 L -31.3191 -1.9704 A 31.3810 31.3810 0 0 0 -31.3594 -1.1643 L -30.9676 -1.1227 A 0.5500 0.5500 0 0 1 -30.9879 -0.0271 L -31.3810 0.0000 A 31.3810 31.3810 0 0 0 -31.3706 0.8071 L -30.9769 0.8240 A 0.5500 0.5500 0 0 1 -30.9284 1.9187 L -31.3191 1.9704 A 31.3810 31.3810 0 0 0 -31.2580 2.7753 L -30.8641 2.7674 A 0.5500 0.5500 0 0 1 -30.7469 3.8570 L -31.1335 3.9331 A 31.3810 31.3810 0 0 0 -31.0221 4.7325 L -30.6294 4.6999 A 0.5500 0.5500 0 0 1 -30.4441 5.7800 L -30.8251 5.8802 A 31.3810 31.3810 0 0 0 -30.6637 6.6710 L -30.2738 6.6139 A 0.5500 0.5500 0 0 1 -30.0211 7.6802 L -30.3951 7.8041 A 31.3810 31.3810 0 0 0 -30.1843 8.5833 L -29.7988 8.5018 A 0.5500 0.5500 0 0 1 -29.4796 9.5501 L -29.8451 9.6973 A 31.3810 31.3810 0 0 0 -29.5858 10.4616 L -29.2062 10.3561 A 0.5500 0.5500 0 0 1 -28.8218 11.3822 L -29.1773 11.5521 A 31.3810 31.3810 0 0 0 -28.8706 12.2987 L -28.4983 12.1695 A 0.5500 0.5500 0 0 1 -28.0502 13.1695 L -28.3944 13.3614 A 31.3810 31.3810 0 0 0 -28.0413 14.0872 L -27.6779 13.9349 A 0.5500 0.5500 0 0 1 -27.1679 14.9048 L -27.4994 15.1179 A 31.3810 31.3810 0 0 0 -27.1015 15.8201 L -26.7483 15.6453 A 0.5500 0.5500 0 0 1 -26.1784 16.5813 L -26.4958 16.8148 A 31.3810 31.3810 0 0 0 -26.0546 17.4906 L -25.7132 17.2940 A 0.5500 0.5500 0 0 1 -25.0856 18.1923 L -25.3878 18.4453 A 31.3810 31.3810 0 0 0 -24.9050 19.0921 L -24.5765 18.8744 A 0.5500 0.5500 0 0 1 -23.8938 19.7316 L -24.1795 20.0030 A 31.3810 31.3810 0 0 0 -23.6570 20.6182 L -23.3429 20.3804 A 0.5500 0.5500 0 0 1 -22.6077 21.1929 L -22.8758 21.4818 A 31.3810 31.3810 0 0 0 -22.3157 22.0630 L -22.0171 21.8058 A 0.5500 0.5500 0 0 1 -21.2324 22.5707 L -21.4818 22.8758 A 31.3810 31.3810 0 0 0 -20.8863 23.4207 L -20.6045 23.1453 A 0.5500 0.5500 0 0 1 -19.7733 23.8593 L -20.0030 24.1795 A 31.3810 31.3810 0 0 0 -19.3745 24.6859 L -19.1105 24.3934 A 0.5500 0.5500 0 0 1 -18.2361 25.0538 L -18.4453 25.3878 A 31.3810 31.3810 0 0 0 -17.7862 25.8537 L -17.5412 25.5452 A 0.5500 0.5500 0 0 1 -16.6270 26.1494 L -16.8148 26.4958 A 31.3810 31.3810 0 0 0 -16.1278 26.9195 L -15.9025 26.5962 A 0.5500 0.5500 0 0 1 -14.9522 27.1419 L -15.1179 27.4994 A 31.3810 31.3810 0 0 0 -14.4057 27.8791 L -14.2012 27.5423 A 0.5500 0.5500 0 0 1 -13.2185 28.0272 L -13.3614 28.3944 A 31.3810 31.3810 0 0 0 -12.6267 28.7286 L -12.4438 28.3796 A 0.5500 0.5500 0 0 1 -11.4326 28.8018 L -11.5521 29.1773 A 31.3810 31.3810 0 0 0 -10.7979 29.4648 L -10.6372 29.1050 A 0.5500 0.5500 0 0 1 -9.6015 29.4629 L -9.6973 29.8451 A 31.3810 31.3810 0 0 0 -8.9265 30.0846 L -8.7887 29.7155 A 0.5500 0.5500 0 0 1 -7.7326 30.0076 L -7.8041 30.3951 A 31.3810 31.3810 0 0 0 -7.0198 30.5858 L -6.9055 30.2087 A 0.5500 0.5500 0 0 1 -5.8331 30.4339 L -5.8802 30.8251 A 31.3810 31.3810 0 0 0 -5.0855 30.9662 L -4.9951 30.5827 A 0.5500 0.5500 0 0 1 -3.9107 30.7401 L -3.9331 31.1335 A 31.3810 31.3810 0 0 0 -3.1311 31.2244 L -3.0649 30.8360 A 0.5500 0.5500 0 0 1 -1.9727 30.9250 L -1.9704 31.3191 A 31.3810 31.3810 0 0 0 -1.1643 31.3594 L -1.1227 30.9676 A 0.5500 0.5500 0 0 1 -0.0271 30.9879 L -0.0000 31.3810 A 31.3810 31.3810 0 0 0 0.8071 31.3706 L 0.8240 30.9769 A 0.5500 0.5500 0 0 1 1.9187 30.9284 L 1.9704 31.3191 A 31.3810 31.3810 0 0 0 2.7753 31.2580 L 2.7674 30.8641 A 0.5500 0.5500 0 0 1 3.8570 30.7469 L 3.9331 31.1335 A 31.3810 31.3810 0 0 0 4.7325 31.0221 L 4.6999 30.6294 A 0.5500 0.5500 0 0 1 5.7800 30.4441 L 5.8802 30.8251 A 31.3810 31.3810 0 0 0 6.6710 30.6637 L 6.6139 30.2738 A 0.5500 0.5500 0 0 1 7.6802 30.0211 L 7.8041 30.3951 A 31.3810 31.3810 0 0 0 8.5833 30.1843 L 8.5018 29.7988 A 0.5500 0.5500 0 0 1 9.5501 29.4796 L 9.6973 29.8451 A 31.3810 31.3810 0 0 0 10.4616 29.5858 L 10.3561 29.2062 A 0.5500 0.5500 0 0 1 11.3822 28.8218 L 11.5521 29.1773 A 31.3810 31.3810 0 0 0 12.2987 28.8706 L 12.1695 28.4983 A 0.5500 0.5500 0 0 1 13.1695 28.0502 L 13.3614 28.3944 A 31.3810 31.3810 0 0 0 14.0872 28.0413 L 13.9349 27.6779 A 0.5500 0.5500 0 0 1 14.9048 27.1679 L 15.1179 27.4994 A 31.3810 31.3810 0 0 0 15.8201 27.1015 L 15.6453 26.7483 A 0.5500 0.5500 0 0 1 16.5813 26.1784 L 16.8148 26.4958 A 31.3810 31.3810 0 0 0 17.4906 26.0546 L 17.2940 25.7132 A 0.5500 0.5500 0 0 1 18.1923 25.0856 L 18.4453 25.3878 A 31.3810 31.3810 0 0 0 19.0921 24.9050 L 18.8744 24.5765 A 0.5500 0.5500 0 0 1 19.7316 23.8938 L 20.0030 24.1795 A 31.3810 31.3810 0 0 0 20.6182 23.6570 L 20.3804 23.3429 A 0.5500 0.5500 0 0 1 21.1929 22.6077 L 21.4818 22.8758 A 31.3810 31.3810 0 0 0 22.0630 22.3157 L 21.8058 22.0171 A 0.5500 0.5500 0 0 1 22.5707 21.2324 L 22.8758 21.4818 A 31.3810 31.3810 0 0 0 23.4207 20.8863 L 23.1453 20.6045 A 0.5500 0.5500 0 0 1 23.8593 19.7733 L 24.1795 20.0030 A 31.3810 31.3810 0 0 0 24.6859 19.3745 L 24.3934 19.1105 A 0.5500 0.5500 0 0 1 25.0538 18.2361 L 25.3878 18.4453 A 31.3810 31.3810 0 0 0 25.8537 17.7862 L 25.5452 17.5412 A 0.5500 0.5500 0 0 1 26.1494 16.6270 L 26.4958 16.8148 A 31.3810 31.3810 0 0 0 26.9195 16.1278 L 26.5962 15.9025 A 0.5500 0.5500 0 0 1 27.1419 14.9522 L 27.4994 15.1179 A 31.3810 31.3810 0 0 0 27.8791 14.4057 L 27.5423 14.2012 A 0.5500 0.5500 0 0 1 28.0272 13.2185 L 28.3944 13.3614 A 31.3810 31.3810 0 0 0 28.7286 12.6267 L 28.3796 12.4438 A 0.5500 0.5500 0 0 1 28.8018 11.4326 L 29.1773 11.5521 A 31.3810 31.3810 0 0 0 29.4648 10.7979 L 29.1050 10.6372 A 0.5500 0.5500 0 0 1 29.4629 9.6015 L 29.8451 9.6973 A 31.3810 31.3810 0 0 0 30.0846 8.9265 L 29.7155 8.7887 A 0.5500 0.5500 0 0 1 30.0076 7.7326 L 30.3951 7.8041 A 31.3810 31.3810 0 0 0 30.5858 7.0198 L 30.2087 6.9055 A 0.5500 0.5500 0 0 1 30.4339 5.8331 L 30.8251 5.8802 A 31.3810 31.3810 0 0 0 30.9662 5.0855 L 30.5827 4.9951 A 0.5500 0.5500 0 0 1 30.7401 3.9107 L 31.1335 3.9331 A 31.3810 31.3810 0 0 0 31.2244 3.1311 L 30.8360 3.0649 A 0.5500 0.5500 0 0 1 30.9250 1.9727 L 31.3191 1.9704 A 31.3810 31.3810 0 0 0 31.3594 1.1643 L 30.9676 1.1227 A 0.5500 0.5500 0 0 1 30.9879 0.0271 L 31.3810 0.0000 Z" stroke="green" stroke-width="1" fill="none" /><circle cx="0.0000" cy="0.0000" r="29.3810" stroke="green" stroke-width="1" fill="none" /></svg>