<svg width="1748" height="1748" viewBox="-877 -877 1748 1748" xmlns="http://www.w3.org/2000/svg"><path d="M 790.0000 0.0000 A 790.0000 790.0000 0 0 0 785.8448 -80.9190 A 25.0000 25.0000 0 0 0 762.4800 -103.3130 L 603.7283 -112.8786 A 15.0000 15.0000 0 0 1 597.7444 -141.1774 L 739.0350 -214.1880 A 25.0000 25.0000 0 0 0 751.3346 -244.1234 A 790.0000 790.0000 0 0 0 722.3775 -319.7980 A 25.0000 25.0000 0 0 0 693.2361 -333.8758 L 539.2983 -293.9162 A 15.0000 15.0000 0 0 1 524.8625 -318.9809 L 636.6763 -432.0793 A 25.0000 25.0000 0 0 0 639.1234 -464.3503 A 790.0000 790.0000 0 0 0 588.1988 -527.3729 A 25.0000 25.0000 0 0 0 556.1334 -531.7565 L 422.0781 -446.1833 A 15.0000 15.0000 0 0 1 400.6034 -465.5603 L 471.9953 -607.6756 A 25.0000 25.0000 0 0 0 464.3503 -639.1234 A 790.0000 790.0000 0 0 0 396.4431 -683.3248 A 25.0000 25.0000 0 0 0 364.5925 -677.5851 L 263.5419 -554.7748 A 15.0000 15.0000 0 0 1 237.1304 -566.5674 L 261.1121 -723.7885 A 25.0000 25.0000 0 0 0 244.1234 -751.3346 A 790.0000 790.0000 0 0 0 165.8808 -772.3882 A 25.0000 25.0000 0 0 0 137.3627 -757.0870 L 79.2084 -609.0611 A 15.0000 15.0000 0 0 1 50.4455 -612.1149 L 24.6695 -769.0518 A 25.0000 25.0000 0 0 0 0.0000 -790.0000 A 790.0000 790.0000 0 0 0 -80.9190 -785.8448 A 25.0000 25.0000 0 0 0 -103.3130 -762.4800 L -112.8786 -603.7283 A 15.0000 15.0000 0 0 1 -141.1774 -597.7444 L -214.1880 -739.0350 A 25.0000 25.0000 0 0 0 -244.1234 -751.3346 A 790.0000 790.0000 0 0 0 -319.7980 -722.3775 A 25.0000 25.0000 0 0 0 -333.8758 -693.2361 L -293.9162 -539.2983 A 15.0000 15.0000 0 0 1 -318.9809 -524.8625 L -432.0793 -636.6763 A 25.0000 25.0000 0 0 0 -464.3503 -639.1234 A 790.0000 790.0000 0 0 0 -527.3729 -588.1988 A 25.0000 25.0000 0 0 0 -531.7565 -556.1334 L -446.1833 -422.0781 A 15.0000 15.0000 0 0 1 -465.5603 -400.6034 L -607.6756 -471.9953 A 25.0000 25.0000 0 0 0 -639.1234 -464.3503 A 790.0000 790.0000 0 0 0 -683.3248 -396.4431 A 25.0000 25.0000 0 0 0 -677.5851 -364.5925 L -554.7748 -263.5419 A 15.0000 15.0000 0 0 1 -566.5674 -237.1304 L -723.7885 -261.1121 A 25.0000 25.0000 0 0 0 -751.3346 -244.1234 A 790.0000 790.0000 0 0 0 -772.3882 -165.8808 A 25.0000 25.0000 0 0 0 -757.0870 -137.3627 L -609.0611 -79.2084 A 15.0000 15.0000 0 0 1 -612.1149 -50.4455 L -769.0518 -24.6695 A 25.0000 25.0000 0 0 0 -790.0000 -0.0000 A 790.0000 790.0000 0 0 0 -785.8448 80.9190 A 25.0000 25.0000 0 0 0 -762.4800 103.3130 L -603.7283 112.8786 A 15.0000 15.0000 0 0 1 -597.7444 141.1774 L -739.0350 214.1880 A 25.0000 25.0000 0 0 0 -751.3346 244.1234 A 790.0000 790.0000 0 0 0 -722.3775 319.7980 A 25.0000 25.0000 0 0 0 -693.2361 333.8758 L -539.2983 293.9162 A 15.0000 15.0000 0 0 1 -524.8625 318.9809 L -636.6763 432.0793 A 25.0000 25.0000 0 0 0 -639.1234 464.3503 A 790.0000 790.0000 0 0 0 -588.1988 527.3729 A 25.0000 25.0000 0 0 0 -556.1334 531.7565 L -422.0781 446.1833 A 15.0000 15.0000 0 0 1 -400.6034 465.5603 L -471.9953 607.6756 A 25.0000 25.0000 0 0 0 -464.3503 639.1234 A 790.0000 790.0000 0 0 0 -396.4431 683.3248 A 25.0000 25.0000 0 0 0 -364.5925 677.5851 L -263.5419 554.7748 A 15.0000 15.0000 0 0 1 -237.1304 566.5674 L -261.1121 723.7885 A 25.0000 25.0000 0 0 0 -244.1234 751.3346 A 790.0000 790.0000 0 0 0 -165.8808 772.3882 A 25.0000 25.0000 0 0 0 -137.3627 757.0870 L -79.2084 609.0611 A 15.0000 15.0000 0 0 1 -50.4455 612.1149 L -24.6695 769.0518 A 25.0000 25.0000 0 0 0 -0.0000 790.0000 A 790.0000 790.0000 0 0 0 80.9190 785.8448 A 25.0000 25.0000 0 0 0 103.3130 762.4800 L 112.8786 603.7283 A 15.0000 15.0000 0 0 1 141.1774 597.7444 L 214.1880 739.0350 A 25.0000 25.0000 0 0 0 244.1234 751.3346 A 790.0000 790.0000 0 0 0 319.7980 722.3775 A 25.0000 25.0000 0 0 0 333.8758 693.2361 L 293.9162 539.2983 A 15.0000 15.0000 0 0 1 318.9809 524.8625 L 432.0793 636.6763 A 25.0000 25.0000 0 0 0 464.3503 639.1234 A 790.0000 790.0000 0 0 0 527.3729 588.1988 A 25.0000 25.0000 0 0 0 531.7565 556.1334 L 446.1833 422.0781 A 15.0000 15.0000 0 0 1 465.5603 400.6034 L 607.6756 471.9953 A 25.0000 25.0000 0 0 0 639.1234 464.3503 A 790.0000 790.0000 0 0 0 683.3248 396.4431 A 25.0000 25.0000 0 0 0 677.5851 364.5925 L 554.7748 263.5419 A 15.0000 15.0000 0 0 1 566.5674 237.1304 L 723.7885 261.1121 A 25.0000 25.0000 0 0 0 751.3346 244.1234 A 790.0000 790.0000 0 0 0 772.3882 165.8808 A 25.0000 25.0000 0 0 0 757.0870 137.3627 L 609.0611 79.2084 A 15.0000 15.0000 0 0 1 612.1149 50.4455 L 769.0518 24.6695 A 25.0000 25.0000 0 0 0 790.0000 0.0000 Z" stroke="green" stroke-width="1" fill="none" /><path d="M 780.0000 0.0000 A 780.0000 780.0000 0 0 0 775.8974 -79.8947 A 15.0000 15.0000 0 0 0 761.8785 -93.3311 L 603.1268 -102.8967 A 25.0000 25.0000 0 0 1 593.1537 -150.0614 L 734.4443 -223.0720 A 15.0000 15.0000 0 0 0 741.8241 -241.0333 A 780.0000 780.0000 0 0 0 713.2335 -315.7499 A 15.0000 15.0000 0 0 0 695.7486 -324.1966 L 541.8109 -284.2370 A 25.0000 25.0000 0 0 1 517.7512 -326.0114 L 629.5650 -439.1099 A 15.0000 15.0000 0 0 0 631.0333 -458.4725 A 780.0000 780.0000 0 0 0 580.7533 -520.6973 A 15.0000 15.0000 0 0 0 561.5140 -523.3274 L 427.4587 -437.7542 A 25.0000 25.0000 0 0 1 391.6675 -470.0492 L 463.0595 -612.1646 A 15.0000 15.0000 0 0 0 458.4725 -631.0333 A 780.0000 780.0000 0 0 0 391.4249 -674.6752 A 15.0000 15.0000 0 0 0 372.3145 -671.2313 L 271.2639 -548.4210 A 25.0000 25.0000 0 0 1 227.2448 -568.0753 L 251.2265 -725.2964 A 15.0000 15.0000 0 0 0 241.0333 -741.8241 A 780.0000 780.0000 0 0 0 163.7811 -762.6111 A 15.0000 15.0000 0 0 0 146.6702 -753.4304 L 88.5159 -605.4045 A 25.0000 25.0000 0 0 1 40.5777 -610.4942 L 14.8017 -767.4311 A 15.0000 15.0000 0 0 0 0.0000 -780.0000 A 780.0000 780.0000 0 0 0 -79.8947 -775.8974 A 15.0000 15.0000 0 0 0 -93.3311 -761.8785 L -102.8967 -603.1268 A 25.0000 25.0000 0 0 1 -150.0614 -593.1537 L -223.0720 -734.4443 A 15.0000 15.0000 0 0 0 -241.0333 -741.8241 A 780.0000 780.0000 0 0 0 -315.7499 -713.2335 A 15.0000 15.0000 0 0 0 -324.1966 -695.7486 L -284.2370 -541.8109 A 25.0000 25.0000 0 0 1 -326.0114 -517.7512 L -439.1099 -629.5650 A 15.0000 15.0000 0 0 0 -458.4725 -631.0333 A 780.0000 780.0000 0 0 0 -520.6973 -580.7533 A 15.0000 15.0000 0 0 0 -523.3274 -561.5140 L -437.7542 -427.4587 A 25.0000 25.0000 0 0 1 -470.0492 -391.6675 L -612.1646 -463.0595 A 15.0000 15.0000 0 0 0 -631.0333 -458.4725 A 780.0000 780.0000 0 0 0 -674.6752 -391.4249 A 15.0000 15.0000 0 0 0 -671.2313 -372.3145 L -548.4210 -271.2639 A 25.0000 25.0000 0 0 1 -568.0753 -227.2448 L -725.2964 -251.2265 A 15.0000 15.0000 0 0 0 -741.8241 -241.0333 A 780.0000 780.0000 0 0 0 -762.6111 -163.7811 A 15.0000 15.0000 0 0 0 -753.4304 -146.6702 L -605.4045 -88.5159 A 25.0000 25.0000 0 0 1 -610.4942 -40.5777 L -767.4311 -14.8017 A 15.0000 15.0000 0 0 0 -780.0000 -0.0000 A 780.0000 780.0000 0 0 0 -775.8974 79.8947 A 15.0000 15.0000 0 0 0 -761.8785 93.3311 L -603.1268 102.8967 A 25.0000 25.0000 0 0 1 -593.1537 150.0614 L -734.4443 223.0720 A 15.0000 15.0000 0 0 0 -741.8241 241.0333 A 780.0000 780.0000 0 0 0 -713.2335 315.7499 A 15.0000 15.0000 0 0 0 -695.7486 324.1966 L -541.8109 284.2370 A 25.0000 25.0000 0 0 1 -517.7512 326.0114 L -629.5650 439.1099 A 15.0000 15.0000 0 0 0 -631.0333 458.4725 A 780.0000 780.0000 0 0 0 -580.7533 520.6973 A 15.0000 15.0000 0 0 0 -561.5140 523.3274 L -427.4587 437.7542 A 25.0000 25.0000 0 0 1 -391.6675 470.0492 L -463.0595 612.1646 A 15.0000 15.0000 0 0 0 -458.4725 631.0333 A 780.0000 780.0000 0 0 0 -391.4249 674.6752 A 15.0000 15.0000 0 0 0 -372.3145 671.2313 L -271.2639 548.4210 A 25.0000 25.0000 0 0 1 -227.2448 568.0753 L -251.2265 725.2964 A 15.0000 15.0000 0 0 0 -241.0333 741.8241 A 780.0000 780.0000 0 0 0 -163.7811 762.6111 A 15.0000 15.0000 0 0 0 -146.6702 753.4304 L -88.5159 605.4045 A 25.0000 25.0000 0 0 1 -40.5777 610.4942 L -14.8017 767.4311 A 15.0000 15.0000 0 0 0 -0.0000 780.0000 A 780.0000 780.0000 0 0 0 79.8947 775.8974 A 15.0000 15.0000 0 0 0 93.3311 761.8785 L 102.8967 603.1268 A 25.0000 25.0000 0 0 1 150.0614 593.1537 L 223.0720 734.4443 A 15.0000 15.0000 0 0 0 241.0333 741.8241 A 780.0000 780.0000 0 0 0 315.7499 713.2335 A 15.0000 15.0000 0 0 0 324.1966 695.7486 L 284.2370 541.8109 A 25.0000 25.0000 0 0 1 326.0114 517.7512 L 439.1099 629.5650 A 15.0000 15.0000 0 0 0 458.4725 631.0333 A 780.0000 780.0000 0 0 0 520.6973 580.7533 A 15.0000 15.0000 0 0 0 523.3274 561.5140 L 437.7542 427.4587 A 25.0000 25.0000 0 0 1 470.0492 391.6675 L 612.1646 463.0595 A 15.0000 15.0000 0 0 0 631.0333 458.4725 A 780.0000 780.0000 0 0 0 674.6752 391.4249 A 15.0000 15.0000 0 0 0 671.2313 372.3145 L 548.4210 271.2639 A 25.0000 25.0000 0 0 1 568.0753 227.2448 L 725.2964 251.2265 A 15.0000 15.0000 0 0 0 741.8241 241.0333 A 780.0000 780.0000 0 0 0 762.6111 163.7811 A 15.0000 15.0000 0 0 0 753.4304 146.6702 L 605.4045 88.5159 A 25.0000 25.0000 0 0 1 610.4942 40.5777 L 767.4311 14.8017 A 15.0000 15.0000 0 0 0 780.0000 0.0000 Z" stroke="green" stroke-width="1" fill="none" /></svg>