<svg width="1308" height="1308" viewBox="-655 -655 1308 1308" xmlns="http://www.w3.org/2000/svg"><path d="M 590.0000 0.0000 A 590.0000 590.0000 0 0 0 584.3876 -81.1855 A 25.0000 25.0000 0 0 0 555.6126 -102.4213 L 406.8452 -78.2285 A 15.0000 15.0000 0 0 1 400.1340 -107.4035 L 544.5194 -150.6456 A 25.0000 25.0000 0 0 0 561.1233 -182.3200 A 590.0000 590.0000 0 0 0 530.6980 -257.7978 A 25.0000 25.0000 0 0 0 496.7691 -269.1022 L 362.7588 -200.1218 A 15.0000 15.0000 0 0 1 347.3605 -225.7950 L 471.3167 -311.5382 A 25.0000 25.0000 0 0 0 477.3200 -346.7933 A 590.0000 590.0000 0 0 0 425.0599 -409.1749 A 25.0000 25.0000 0 0 0 389.2983 -409.4415 L 283.1631 -302.4258 A 15.0000 15.0000 0 0 1 260.5850 -322.0841 L 351.9782 -441.9353 A 25.0000 25.0000 0 0 0 346.7933 -477.3200 A 590.0000 590.0000 0 0 0 277.8139 -520.4992 A 25.0000 25.0000 0 0 0 243.7203 -509.7018 L 175.8494 -375.1262 A 15.0000 15.0000 0 0 1 148.3016 -386.8453 L 198.1857 -529.0727 A 25.0000 25.0000 0 0 0 182.3200 -561.1233 A 590.0000 590.0000 0 0 0 103.3737 -580.8734 A 25.0000 25.0000 0 0 0 74.2853 -560.0689 L 51.3223 -411.1067 A 15.0000 15.0000 0 0 1 21.5014 -413.7395 L 24.9933 -564.4208 A 25.0000 25.0000 0 0 0 0.0000 -590.0000 A 590.0000 590.0000 0 0 0 -81.1855 -584.3876 A 25.0000 25.0000 0 0 0 -102.4213 -555.6126 L -78.2285 -406.8452 A 15.0000 15.0000 0 0 1 -107.4035 -400.1340 L -150.6456 -544.5194 A 25.0000 25.0000 0 0 0 -182.3200 -561.1233 A 590.0000 590.0000 0 0 0 -257.7978 -530.6980 A 25.0000 25.0000 0 0 0 -269.1022 -496.7691 L -200.1218 -362.7588 A 15.0000 15.0000 0 0 1 -225.7950 -347.3605 L -311.5382 -471.3167 A 25.0000 25.0000 0 0 0 -346.7933 -477.3200 A 590.0000 590.0000 0 0 0 -409.1749 -425.0599 A 25.0000 25.0000 0 0 0 -409.4415 -389.2983 L -302.4258 -283.1631 A 15.0000 15.0000 0 0 1 -322.0841 -260.5850 L -441.9353 -351.9782 A 25.0000 25.0000 0 0 0 -477.3200 -346.7933 A 590.0000 590.0000 0 0 0 -520.4992 -277.8139 A 25.0000 25.0000 0 0 0 -509.7018 -243.7203 L -375.1262 -175.8494 A 15.0000 15.0000 0 0 1 -386.8453 -148.3016 L -529.0727 -198.1857 A 25.0000 25.0000 0 0 0 -561.1233 -182.3200 A 590.0000 590.0000 0 0 0 -580.8734 -103.3737 A 25.0000 25.0000 0 0 0 -560.0689 -74.2853 L -411.1067 -51.3223 A 15.0000 15.0000 0 0 1 -413.7395 -21.5014 L -564.4208 -24.9933 A 25.0000 25.0000 0 0 0 -590.0000 -0.0000 A 590.0000 590.0000 0 0 0 -584.3876 81.1855 A 25.0000 25.0000 0 0 0 -555.6126 102.4213 L -406.8452 78.2285 A 15.0000 15.0000 0 0 1 -400.1340 107.4035 L -544.5194 150.6456 A 25.0000 25.0000 0 0 0 -561.1233 182.3200 A 590.0000 590.0000 0 0 0 -530.6980 257.7978 A 25.0000 25.0000 0 0 0 -496.7691 269.1022 L -362.7588 200.1218 A 15.0000 15.0000 0 0 1 -347.3605 225.7950 L -471.3167 311.5382 A 25.0000 25.0000 0 0 0 -477.3200 346.7933 A 590.0000 590.0000 0 0 0 -425.0599 409.1749 A 25.0000 25.0000 0 0 0 -389.2983 409.4415 L -283.1631 302.4258 A 15.0000 15.0000 0 0 1 -260.5850 322.0841 L -351.9782 441.9353 A 25.0000 25.0000 0 0 0 -346.7933 477.3200 A 590.0000 590.0000 0 0 0 -277.8139 520.4992 A 25.0000 25.0000 0 0 0 -243.7203 509.7018 L -175.8494 375.1262 A 15.0000 15.0000 0 0 1 -148.3016 386.8453 L -198.1857 529.0727 A 25.0000 25.0000 0 0 0 -182.3200 561.1233 A 590.0000 590.0000 0 0 0 -103.3737 580.8734 A 25.0000 25.0000 0 0 0 -74.2853 560.0689 L -51.3223 411.1067 A 15.0000 15.0000 0 0 1 -21.5014 413.7395 L -24.9933 564.4208 A 25.0000 25.0000 0 0 0 -0.0000 590.0000 A 590.0000 590.0000 0 0 0 81.1855 584.3876 A 25.0000 25.0000 0 0 0 102.4213 555.6126 L 78.2285 406.8452 A 15.0000 15.0000 0 0 1 107.4035 400.1340 L 150.6456 544.5194 A 25.0000 25.0000 0 0 0 182.3200 561.1233 A 590.0000 590.0000 0 0 0 257.7978 530.6980 A 25.0000 25.0000 0 0 0 269.1022 496.7691 L 200.1218 362.7588 A 15.0000 15.0000 0 0 1 225.7950 347.3605 L 311.5382 471.3167 A 25.0000 25.0000 0 0 0 346.7933 477.3200 A 590.0000 590.0000 0 0 0 409.1749 425.0599 A 25.0000 25.0000 0 0 0 409.4415 389.2983 L 302.4258 283.1631 A 15.0000 15.0000 0 0 1 322.0841 260.5850 L 441.9353 351.9782 A 25.0000 25.0000 0 0 0 477.3200 346.7933 A 590.0000 590.0000 0 0 0 520.4992 277.8139 A 25.0000 25.0000 0 0 0 509.7018 243.7203 L 375.1262 175.8494 A 15.0000 15.0000 0 0 1 386.8453 148.3016 L 529.0727 198.1857 A 25.0000 25.0000 0 0 0 561.1233 182.3200 A 590.0000 590.0000 0 0 0 580.8734 103.3737 A 25.0000 25.0000 0 0 0 560.0689 74.2853 L 411.1067 51.3223 A 15.0000 15.0000 0 0 1 413.7395 21.5014 L 564.4208 24.9933 A 25.0000 25.0000 0 0 0 590.0000 0.0000 Z" stroke="green" stroke-width="1" fill="none" /><path d="M 580.0000 0.0000 A 580.0000 580.0000 0 0 0 574.4828 -79.8095 A 15.0000 15.0000 0 0 0 557.2178 -92.5510 L 408.4503 -68.3582 A 25.0000 25.0000 0 0 1 397.2650 -116.9831 L 541.6504 -160.2252 A 15.0000 15.0000 0 0 0 551.6128 -179.2299 A 580.0000 580.0000 0 0 0 521.7031 -253.4283 A 15.0000 15.0000 0 0 0 501.3457 -260.2110 L 367.3355 -191.2306 A 25.0000 25.0000 0 0 1 341.6717 -234.0191 L 465.6279 -319.7624 A 15.0000 15.0000 0 0 0 469.2299 -340.9154 A 580.0000 580.0000 0 0 0 417.8555 -402.2398 A 15.0000 15.0000 0 0 0 396.3985 -402.3997 L 290.2633 -295.3840 A 25.0000 25.0000 0 0 1 252.6332 -328.1478 L 344.0264 -447.9990 A 15.0000 15.0000 0 0 0 340.9154 -469.2299 A 580.0000 580.0000 0 0 0 273.1052 -511.6772 A 15.0000 15.0000 0 0 0 252.6491 -505.1987 L 184.7781 -370.6232 A 25.0000 25.0000 0 0 1 138.8652 -390.1550 L 188.7492 -532.3824 A 15.0000 15.0000 0 0 0 179.2299 -551.6128 A 580.0000 580.0000 0 0 0 101.6216 -571.0281 A 15.0000 15.0000 0 0 0 84.1685 -558.5454 L 61.2056 -409.5832 A 25.0000 25.0000 0 0 1 11.5041 -413.9712 L 14.9960 -564.6525 A 15.0000 15.0000 0 0 0 0.0000 -580.0000 A 580.0000 580.0000 0 0 0 -79.8095 -574.4828 A 15.0000 15.0000 0 0 0 -92.5510 -557.2178 L -68.3582 -408.4503 A 25.0000 25.0000 0 0 1 -116.9831 -397.2650 L -160.2252 -541.6504 A 15.0000 15.0000 0 0 0 -179.2299 -551.6128 A 580.0000 580.0000 0 0 0 -253.4283 -521.7031 A 15.0000 15.0000 0 0 0 -260.2110 -501.3457 L -191.2306 -367.3355 A 25.0000 25.0000 0 0 1 -234.0191 -341.6717 L -319.7624 -465.6279 A 15.0000 15.0000 0 0 0 -340.9154 -469.2299 A 580.0000 580.0000 0 0 0 -402.2398 -417.8555 A 15.0000 15.0000 0 0 0 -402.3997 -396.3985 L -295.3840 -290.2633 A 25.0000 25.0000 0 0 1 -328.1478 -252.6332 L -447.9990 -344.0264 A 15.0000 15.0000 0 0 0 -469.2299 -340.9154 A 580.0000 580.0000 0 0 0 -511.6772 -273.1052 A 15.0000 15.0000 0 0 0 -505.1987 -252.6491 L -370.6232 -184.7781 A 25.0000 25.0000 0 0 1 -390.1550 -138.8652 L -532.3824 -188.7492 A 15.0000 15.0000 0 0 0 -551.6128 -179.2299 A 580.0000 580.0000 0 0 0 -571.0281 -101.6216 A 15.0000 15.0000 0 0 0 -558.5454 -84.1685 L -409.5832 -61.2056 A 25.0000 25.0000 0 0 1 -413.9712 -11.5041 L -564.6525 -14.9960 A 15.0000 15.0000 0 0 0 -580.0000 -0.0000 A 580.0000 580.0000 0 0 0 -574.4828 79.8095 A 15.0000 15.0000 0 0 0 -557.2178 92.5510 L -408.4503 68.3582 A 25.0000 25.0000 0 0 1 -397.2650 116.9831 L -541.6504 160.2252 A 15.0000 15.0000 0 0 0 -551.6128 179.2299 A 580.0000 580.0000 0 0 0 -521.7031 253.4283 A 15.0000 15.0000 0 0 0 -501.3457 260.2110 L -367.3355 191.2306 A 25.0000 25.0000 0 0 1 -341.6717 234.0191 L -465.6279 319.7624 A 15.0000 15.0000 0 0 0 -469.2299 340.9154 A 580.0000 580.0000 0 0 0 -417.8555 402.2398 A 15.0000 15.0000 0 0 0 -396.3985 402.3997 L -290.2633 295.3840 A 25.0000 25.0000 0 0 1 -252.6332 328.1478 L -344.0264 447.9990 A 15.0000 15.0000 0 0 0 -340.9154 469.2299 A 580.0000 580.0000 0 0 0 -273.1052 511.6772 A 15.0000 15.0000 0 0 0 -252.6491 505.1987 L -184.7781 370.6232 A 25.0000 25.0000 0 0 1 -138.8652 390.1550 L -188.7492 532.3824 A 15.0000 15.0000 0 0 0 -179.2299 551.6128 A 580.0000 580.0000 0 0 0 -101.6216 571.0281 A 15.0000 15.0000 0 0 0 -84.1685 558.5454 L -61.2056 409.5832 A 25.0000 25.0000 0 0 1 -11.5041 413.9712 L -14.9960 564.6525 A 15.0000 15.0000 0 0 0 -0.0000 580.0000 A 580.0000 580.0000 0 0 0 79.8095 574.4828 A 15.0000 15.0000 0 0 0 92.5510 557.2178 L 68.3582 408.4503 A 25.0000 25.0000 0 0 1 116.9831 397.2650 L 160.2252 541.6504 A 15.0000 15.0000 0 0 0 179.2299 551.6128 A 580.0000 580.0000 0 0 0 253.4283 521.7031 A 15.0000 15.0000 0 0 0 260.2110 501.3457 L 191.2306 367.3355 A 25.0000 25.0000 0 0 1 234.0191 341.6717 L 319.7624 465.6279 A 15.0000 15.0000 0 0 0 340.9154 469.2299 A 580.0000 580.0000 0 0 0 402.2398 417.8555 A 15.0000 15.0000 0 0 0 402.3997 396.3985 L 295.3840 290.2633 A 25.0000 25.0000 0 0 1 328.1478 252.6332 L 447.9990 344.0264 A 15.0000 15.0000 0 0 0 469.2299 340.9154 A 580.0000 580.0000 0 0 0 511.6772 273.1052 A 15.0000 15.0000 0 0 0 505.1987 252.6491 L 370.6232 184.7781 A 25.0000 25.0000 0 0 1 390.1550 138.8652 L 532.3824 188.7492 A 15.0000 15.0000 0 0 0 551.6128 179.2299 A 580.0000 580.0000 0 0 0 571.0281 101.6216 A 15.0000 15.0000 0 0 0 558.5454 84.1685 L 409.5832 61.2056 A 25.0000 25.0000 0 0 1 413.9712 11.5041 L 564.6525 14.9960 A 15.0000 15.0000 0 0 0 580.0000 0.0000 Z" stroke="green" stroke-width="1" fill="none" /></svg>