0
SECTION
2
ENTITIES
0
ARC
8
PARAMETRIX
10
-0.0000
20
0.0000
40
790.0000
50
360.0000
51
5.8791
0
ARC
8
PARAMETRIX
10
760.9763
20
78.3583
40
25.0000
50
5.8791
51
86.5518
0
LINE
8
PARAMETRIX
10
762.4800
20
103.3130
11
603.7283
21
112.8786
0
ARC
8
PARAMETRIX
10
604.6305
20
127.8514
40
15.0000
50
117.3272
51
266.5518
0
LINE
8
PARAMETRIX
10
597.7444
20
141.1774
11
739.0350
21
214.1880
0
ARC
8
PARAMETRIX
10
727.5582
20
236.3980
40
25.0000
50
297.3272
51
18.0000
0
ARC
8
PARAMETRIX
10
-0.0000
20
-0.0000
40
790.0000
50
18.0000
51
23.8791
0
ARC
8
PARAMETRIX
10
699.5175
20
309.6778
40
25.0000
50
23.8791
51
104.5518
0
LINE
8
PARAMETRIX
10
693.2361
20
333.8758
11
539.2983
21
293.9162
0
ARC
8
PARAMETRIX
10
535.5295
20
308.4350
40
15.0000
50
135.3272
51
284.5518
0
LINE
8
PARAMETRIX
10
524.8625
20
318.9809
11
636.6763
21
432.0793
0
ARC
8
PARAMETRIX
10
618.8980
20
449.6557
40
25.0000
50
315.3272
51
36.0000
0
ARC
8
PARAMETRIX
10
-0.0000
20
-0.0000
40
790.0000
50
36.0000
51
41.8791
0
ARC
8
PARAMETRIX
10
569.5849
20
510.6839
40
25.0000
50
41.8791
51
122.5518
0
LINE
8
PARAMETRIX
10
556.1334
20
531.7565
11
422.0781
21
446.1833
0
ARC
8
PARAMETRIX
10
414.0072
20
458.8268
40
15.0000
50
153.3272
51
302.5518
0
LINE
8
PARAMETRIX
10
400.6034
20
465.5603
11
471.9953
21
607.6756
0
ARC
8
PARAMETRIX
10
449.6557
20
618.8980
40
25.0000
50
333.3272
51
54.0000
0
ARC
8
PARAMETRIX
10
0.0000
20
0.0000
40
790.0000
50
54.0000
51
59.8791
0
ARC
8
PARAMETRIX
10
383.8975
20
661.7006
40
25.0000
50
59.8791
51
140.5518
0
LINE
8
PARAMETRIX
10
364.5925
20
677.5851
11
263.5419
21
554.7748
0
ARC
8
PARAMETRIX
10
251.9589
20
564.3055
40
15.0000
50
171.3272
51
320.5518
0
LINE
8
PARAMETRIX
10
237.1304
20
566.5674
11
261.1121
21
723.7885
0
ARC
8
PARAMETRIX
10
236.3980
20
727.5582
40
25.0000
50
351.3272
51
72.0000
0
ARC
8
PARAMETRIX
10
-0.0000
20
-0.0000
40
790.0000
50
72.0000
51
77.8791
0
ARC
8
PARAMETRIX
10
160.6314
20
747.9455
40
25.0000
50
77.8791
51
158.5518
0
LINE
8
PARAMETRIX
10
137.3627
20
757.0870
11
79.2084
21
609.0611
0
ARC
8
PARAMETRIX
10
65.2472
20
614.5460
40
15.0000
50
189.3272
51
338.5518
0
LINE
8
PARAMETRIX
10
50.4455
20
612.1149
11
24.6695
21
769.0518
0
ARC
8
PARAMETRIX
10
0.0000
20
765.0000
40
25.0000
50
9.3272
51
90.0000
0
ARC
8
PARAMETRIX
10
0.0000
20
-0.0000
40
790.0000
50
90.0000
51
95.8791
0
ARC
8
PARAMETRIX
10
-78.3583
20
760.9763
40
25.0000
50
95.8791
51
176.5518
0
LINE
8
PARAMETRIX
10
-103.3130
20
762.4800
11
-112.8786
21
603.7283
0
ARC
8
PARAMETRIX
10
-127.8514
20
604.6305
40
15.0000
50
207.3272
51
356.5518
0
LINE
8
PARAMETRIX
10
-141.1774
20
597.7444
11
-214.1880
21
739.0350
0
ARC
8
PARAMETRIX
10
-236.3980
20
727.5582
40
25.0000
50
27.3272
51
108.0000
0
ARC
8
PARAMETRIX
10
0.0000
20
0.0000
40
790.0000
50
108.0000
51
113.8791
0
ARC
8
PARAMETRIX
10
-309.6778
20
699.5175
40
25.0000
50
113.8791
51
194.5518
0
LINE
8
PARAMETRIX
10
-333.8758
20
693.2361
11
-293.9162
21
539.2983
0
ARC
8
PARAMETRIX
10
-308.4350
20
535.5295
40
15.0000
50
225.3272
51
14.5518
0
LINE
8
PARAMETRIX
10
-318.9809
20
524.8625
11
-432.0793
21
636.6763
0
ARC
8
PARAMETRIX
10
-449.6557
20
618.8980
40
25.0000
50
45.3272
51
126.0000
0
ARC
8
PARAMETRIX
10
-0.0000
20
0.0000
40
790.0000
50
126.0000
51
131.8791
0
ARC
8
PARAMETRIX
10
-510.6839
20
569.5849
40
25.0000
50
131.8791
51
212.5518
0
LINE
8
PARAMETRIX
10
-531.7565
20
556.1334
11
-446.1833
21
422.0781
0
ARC
8
PARAMETRIX
10
-458.8268
20
414.0072
40
15.0000
50
243.3272
51
32.5518
0
LINE
8
PARAMETRIX
10
-465.5603
20
400.6034
11
-607.6756
21
471.9953
0
ARC
8
PARAMETRIX
10
-618.8980
20
449.6557
40
25.0000
50
63.3272
51
144.0000
0
ARC
8
PARAMETRIX
10
-0.0000
20
0.0000
40
790.0000
50
144.0000
51
149.8791
0
ARC
8
PARAMETRIX
10
-661.7006
20
383.8975
40
25.0000
50
149.8791
51
230.5518
0
LINE
8
PARAMETRIX
10
-677.5851
20
364.5925
11
-554.7748
21
263.5419
0
ARC
8
PARAMETRIX
10
-564.3055
20
251.9589
40
15.0000
50
261.3272
51
50.5518
0
LINE
8
PARAMETRIX
10
-566.5674
20
237.1304
11
-723.7885
21
261.1121
0
ARC
8
PARAMETRIX
10
-727.5582
20
236.3980
40
25.0000
50
81.3272
51
162.0000
0
ARC
8
PARAMETRIX
10
0.0000
20
-0.0000
40
790.0000
50
162.0000
51
167.8791
0
ARC
8
PARAMETRIX
10
-747.9455
20
160.6314
40
25.0000
50
167.8791
51
248.5518
0
LINE
8
PARAMETRIX
10
-757.0870
20
137.3627
11
-609.0611
21
79.2084
0
ARC
8
PARAMETRIX
10
-614.5460
20
65.2472
40
15.0000
50
279.3272
51
68.5518
0
LINE
8
PARAMETRIX
10
-612.1149
20
50.4455
11
-769.0518
21
24.6695
0
ARC
8
PARAMETRIX
10
-765.0000
20
0.0000
40
25.0000
50
99.3272
51
180.0000
0
ARC
8
PARAMETRIX
10
0.0000
20
-0.0000
40
790.0000
50
180.0000
51
185.8791
0
ARC
8
PARAMETRIX
10
-760.9763
20
-78.3583
40
25.0000
50
185.8791
51
266.5518
0
LINE
8
PARAMETRIX
10
-762.4800
20
-103.3130
11
-603.7283
21
-112.8786
0
ARC
8
PARAMETRIX
10
-604.6305
20
-127.8514
40
15.0000
50
297.3272
51
86.5518
0
LINE
8
PARAMETRIX
10
-597.7444
20
-141.1774
11
-739.0350
21
-214.1880
0
ARC
8
PARAMETRIX
10
-727.5582
20
-236.3980
40
25.0000
50
117.3272
51
198.0000
0
ARC
8
PARAMETRIX
10
0.0000
20
0.0000
40
790.0000
50
198.0000
51
203.8791
0
ARC
8
PARAMETRIX
10
-699.5175
20
-309.6778
40
25.0000
50
203.8791
51
284.5518
0
LINE
8
PARAMETRIX
10
-693.2361
20
-333.8758
11
-539.2983
21
-293.9162
0
ARC
8
PARAMETRIX
10
-535.5295
20
-308.4350
40
15.0000
50
315.3272
51
104.5518
0
LINE
8
PARAMETRIX
10
-524.8625
20
-318.9809
11
-636.6763
21
-432.0793
0
ARC
8
PARAMETRIX
10
-618.8980
20
-449.6557
40
25.0000
50
135.3272
51
216.0000
0
ARC
8
PARAMETRIX
10
0.0000
20
-0.0000
40
790.0000
50
216.0000
51
221.8791
0
ARC
8
PARAMETRIX
10
-569.5849
20
-510.6839
40
25.0000
50
221.8791
51
302.5518
0
LINE
8
PARAMETRIX
10
-556.1334
20
-531.7565
11
-422.0781
21
-446.1833
0
ARC
8
PARAMETRIX
10
-414.0072
20
-458.8268
40
15.0000
50
333.3272
51
122.5518
0
LINE
8
PARAMETRIX
10
-400.6034
20
-465.5603
11
-471.9953
21
-607.6756
0
ARC
8
PARAMETRIX
10
-449.6557
20
-618.8980
40
25.0000
50
153.3272
51
234.0000
0
ARC
8
PARAMETRIX
10
-0.0000
20
-0.0000
40
790.0000
50
234.0000
51
239.8791
0
ARC
8
PARAMETRIX
10
-383.8975
20
-661.7006
40
25.0000
50
239.8791
51
320.5518
0
LINE
8
PARAMETRIX
10
-364.5925
20
-677.5851
11
-263.5419
21
-554.7748
0
ARC
8
PARAMETRIX
10
-251.9589
20
-564.3055
40
15.0000
50
351.3272
51
140.5518
0
LINE
8
PARAMETRIX
10
-237.1304
20
-566.5674
11
-261.1121
21
-723.7885
0
ARC
8
PARAMETRIX
10
-236.3980
20
-727.5582
40
25.0000
50
171.3272
51
252.0000
0
ARC
8
PARAMETRIX
10
0.0000
20
0.0000
40
790.0000
50
252.0000
51
257.8791
0
ARC
8
PARAMETRIX
10
-160.6314
20
-747.9455
40
25.0000
50
257.8791
51
338.5518
0
LINE
8
PARAMETRIX
10
-137.3627
20
-757.0870
11
-79.2084
21
-609.0611
0
ARC
8
PARAMETRIX
10
-65.2472
20
-614.5460
40
15.0000
50
9.3272
51
158.5518
0
LINE
8
PARAMETRIX
10
-50.4455
20
-612.1149
11
-24.6695
21
-769.0518
0
ARC
8
PARAMETRIX
10
-0.0000
20
-765.0000
40
25.0000
50
189.3272
51
270.0000
0
ARC
8
PARAMETRIX
10
0.0000
20
0.0000
40
790.0000
50
270.0000
51
275.8791
0
ARC
8
PARAMETRIX
10
78.3583
20
-760.9763
40
25.0000
50
275.8791
51
356.5518
0
LINE
8
PARAMETRIX
10
103.3130
20
-762.4800
11
112.8786
21
-603.7283
0
ARC
8
PARAMETRIX
10
127.8514
20
-604.6305
40
15.0000
50
27.3272
51
176.5518
0
LINE
8
PARAMETRIX
10
141.1774
20
-597.7444
11
214.1880
21
-739.0350
0
ARC
8
PARAMETRIX
10
236.3980
20
-727.5582
40
25.0000
50
207.3272
51
288.0000
0
ARC
8
PARAMETRIX
10
-0.0000
20
0.0000
40
790.0000
50
288.0000
51
293.8791
0
ARC
8
PARAMETRIX
10
309.6778
20
-699.5175
40
25.0000
50
293.8791
51
14.5518
0
LINE
8
PARAMETRIX
10
333.8758
20
-693.2361
11
293.9162
21
-539.2983
0
ARC
8
PARAMETRIX
10
308.4350
20
-535.5295
40
15.0000
50
45.3272
51
194.5518
0
LINE
8
PARAMETRIX
10
318.9809
20
-524.8625
11
432.0793
21
-636.6763
0
ARC
8
PARAMETRIX
10
449.6557
20
-618.8980
40
25.0000
50
225.3272
51
306.0000
0
ARC
8
PARAMETRIX
10
-0.0000
20
0.0000
40
790.0000
50
306.0000
51
311.8791
0
ARC
8
PARAMETRIX
10
510.6839
20
-569.5849
40
25.0000
50
311.8791
51
32.5518
0
LINE
8
PARAMETRIX
10
531.7565
20
-556.1334
11
446.1833
21
-422.0781
0
ARC
8
PARAMETRIX
10
458.8268
20
-414.0072
40
15.0000
50
63.3272
51
212.5518
0
LINE
8
PARAMETRIX
10
465.5603
20
-400.6034
11
607.6756
21
-471.9953
0
ARC
8
PARAMETRIX
10
618.8980
20
-449.6557
40
25.0000
50
243.3272
51
324.0000
0
ARC
8
PARAMETRIX
10
-0.0000
20
-0.0000
40
790.0000
50
324.0000
51
329.8791
0
ARC
8
PARAMETRIX
10
661.7006
20
-383.8975
40
25.0000
50
329.8791
51
50.5518
0
LINE
8
PARAMETRIX
10
677.5851
20
-364.5925
11
554.7748
21
-263.5419
0
ARC
8
PARAMETRIX
10
564.3055
20
-251.9589
40
15.0000
50
81.3272
51
230.5518
0
LINE
8
PARAMETRIX
10
566.5674
20
-237.1304
11
723.7885
21
-261.1121
0
ARC
8
PARAMETRIX
10
727.5582
20
-236.3980
40
25.0000
50
261.3272
51
342.0000
0
ARC
8
PARAMETRIX
10
-0.0000
20
0.0000
40
790.0000
50
342.0000
51
347.8791
0
ARC
8
PARAMETRIX
10
747.9455
20
-160.6314
40
25.0000
50
347.8791
51
68.5518
0
LINE
8
PARAMETRIX
10
757.0870
20
-137.3627
11
609.0611
21
-79.2084
0
ARC
8
PARAMETRIX
10
614.5460
20
-65.2472
40
15.0000
50
99.3272
51
248.5518
0
LINE
8
PARAMETRIX
10
612.1149
20
-50.4455
11
769.0518
21
-24.6695
0
ARC
8
PARAMETRIX
10
765.0000
20
-0.0000
40
25.0000
50
279.3272
51
360.0000
0
ARC
8
PARAMETRIX
10
0.0000
20
0.0000
40
780.0000
50
360.0000
51
5.8791
0
ARC
8
PARAMETRIX
10
760.9763
20
78.3583
40
15.0000
50
5.8791
51
86.5518
0
LINE
8
PARAMETRIX
10
761.8785
20
93.3311
11
603.1268
21
102.8967
0
ARC
8
PARAMETRIX
10
604.6305
20
127.8514
40
25.0000
50
117.3272
51
266.5518
0
LINE
8
PARAMETRIX
10
593.1537
20
150.0614
11
734.4443
21
223.0720
0
ARC
8
PARAMETRIX
10
727.5582
20
236.3980
40
15.0000
50
297.3272
51
18.0000
0
ARC
8
PARAMETRIX
10
0.0000
20
0.0000
40
780.0000
50
18.0000
51
23.8791
0
ARC
8
PARAMETRIX
10
699.5175
20
309.6778
40
15.0000
50
23.8791
51
104.5518
0
LINE
8
PARAMETRIX
10
695.7486
20
324.1966
11
541.8109
21
284.2370
0
ARC
8
PARAMETRIX
10
535.5295
20
308.4350
40
25.0000
50
135.3272
51
284.5518
0
LINE
8
PARAMETRIX
10
517.7512
20
326.0114
11
629.5650
21
439.1099
0
ARC
8
PARAMETRIX
10
618.8980
20
449.6557
40
15.0000
50
315.3272
51
36.0000
0
ARC
8
PARAMETRIX
10
0.0000
20
0.0000
40
780.0000
50
36.0000
51
41.8791
0
ARC
8
PARAMETRIX
10
569.5849
20
510.6839
40
15.0000
50
41.8791
51
122.5518
0
LINE
8
PARAMETRIX
10
561.5140
20
523.3274
11
427.4587
21
437.7542
0
ARC
8
PARAMETRIX
10
414.0072
20
458.8268
40
25.0000
50
153.3272
51
302.5518
0
LINE
8
PARAMETRIX
10
391.6675
20
470.0492
11
463.0595
21
612.1646
0
ARC
8
PARAMETRIX
10
449.6557
20
618.8980
40
15.0000
50
333.3272
51
54.0000
0
ARC
8
PARAMETRIX
10
-0.0000
20
-0.0000
40
780.0000
50
54.0000
51
59.8791
0
ARC
8
PARAMETRIX
10
383.8975
20
661.7006
40
15.0000
50
59.8791
51
140.5518
0
LINE
8
PARAMETRIX
10
372.3145
20
671.2313
11
271.2639
21
548.4210
0
ARC
8
PARAMETRIX
10
251.9589
20
564.3055
40
25.0000
50
171.3272
51
320.5518
0
LINE
8
PARAMETRIX
10
227.2448
20
568.0753
11
251.2265
21
725.2964
0
ARC
8
PARAMETRIX
10
236.3980
20
727.5582
40
15.0000
50
351.3272
51
72.0000
0
ARC
8
PARAMETRIX
10
0.0000
20
0.0000
40
780.0000
50
72.0000
51
77.8791
0
ARC
8
PARAMETRIX
10
160.6314
20
747.9455
40
15.0000
50
77.8791
51
158.5518
0
LINE
8
PARAMETRIX
10
146.6702
20
753.4304
11
88.5159
21
605.4045
0
ARC
8
PARAMETRIX
10
65.2472
20
614.5460
40
25.0000
50
189.3272
51
338.5518
0
LINE
8
PARAMETRIX
10
40.5777
20
610.4942
11
14.8017
21
767.4311
0
ARC
8
PARAMETRIX
10
0.0000
20
765.0000
40
15.0000
50
9.3272
51
90.0000
0
ARC
8
PARAMETRIX
10
-0.0000
20
0.0000
40
780.0000
50
90.0000
51
95.8791
0
ARC
8
PARAMETRIX
10
-78.3583
20
760.9763
40
15.0000
50
95.8791
51
176.5518
0
LINE
8
PARAMETRIX
10
-93.3311
20
761.8785
11
-102.8967
21
603.1268
0
ARC
8
PARAMETRIX
10
-127.8514
20
604.6305
40
25.0000
50
207.3272
51
356.5518
0
LINE
8
PARAMETRIX
10
-150.0614
20
593.1537
11
-223.0720
21
734.4443
0
ARC
8
PARAMETRIX
10
-236.3980
20
727.5582
40
15.0000
50
27.3272
51
108.0000
0
ARC
8
PARAMETRIX
10
-0.0000
20
0.0000
40
780.0000
50
108.0000
51
113.8791
0
ARC
8
PARAMETRIX
10
-309.6778
20
699.5175
40
15.0000
50
113.8791
51
194.5518
0
LINE
8
PARAMETRIX
10
-324.1966
20
695.7486
11
-284.2370
21
541.8109
0
ARC
8
PARAMETRIX
10
-308.4350
20
535.5295
40
25.0000
50
225.3272
51
14.5518
0
LINE
8
PARAMETRIX
10
-326.0114
20
517.7512
11
-439.1099
21
629.5650
0
ARC
8
PARAMETRIX
10
-449.6557
20
618.8980
40
15.0000
50
45.3272
51
126.0000
0
ARC
8
PARAMETRIX
10
-0.0000
20
0.0000
40
780.0000
50
126.0000
51
131.8791
0
ARC
8
PARAMETRIX
10
-510.6839
20
569.5849
40
15.0000
50
131.8791
51
212.5518
0
LINE
8
PARAMETRIX
10
-523.3274
20
561.5140
11
-437.7542
21
427.4587
0
ARC
8
PARAMETRIX
10
-458.8268
20
414.0072
40
25.0000
50
243.3272
51
32.5518
0
LINE
8
PARAMETRIX
10
-470.0492
20
391.6675
11
-612.1646
21
463.0595
0
ARC
8
PARAMETRIX
10
-618.8980
20
449.6557
40
15.0000
50
63.3272
51
144.0000
0
ARC
8
PARAMETRIX
10
-0.0000
20
0.0000
40
780.0000
50
144.0000
51
149.8791
0
ARC
8
PARAMETRIX
10
-661.7006
20
383.8975
40
15.0000
50
149.8791
51
230.5518
0
LINE
8
PARAMETRIX
10
-671.2313
20
372.3145
11
-548.4210
21
271.2639
0
ARC
8
PARAMETRIX
10
-564.3055
20
251.9589
40
25.0000
50
261.3272
51
50.5518
0
LINE
8
PARAMETRIX
10
-568.0753
20
227.2448
11
-725.2964
21
251.2265
0
ARC
8
PARAMETRIX
10
-727.5582
20
236.3980
40
15.0000
50
81.3272
51
162.0000
0
ARC
8
PARAMETRIX
10
0.0000
20
-0.0000
40
780.0000
50
162.0000
51
167.8791
0
ARC
8
PARAMETRIX
10
-747.9455
20
160.6314
40
15.0000
50
167.8791
51
248.5518
0
LINE
8
PARAMETRIX
10
-753.4304
20
146.6702
11
-605.4045
21
88.5159
0
ARC
8
PARAMETRIX
10
-614.5460
20
65.2472
40
25.0000
50
279.3272
51
68.5518
0
LINE
8
PARAMETRIX
10
-610.4942
20
40.5777
11
-767.4311
21
14.8017
0
ARC
8
PARAMETRIX
10
-765.0000
20
0.0000
40
15.0000
50
99.3272
51
180.0000
0
ARC
8
PARAMETRIX
10
-0.0000
20
-0.0000
40
780.0000
50
180.0000
51
185.8791
0
ARC
8
PARAMETRIX
10
-760.9763
20
-78.3583
40
15.0000
50
185.8791
51
266.5518
0
LINE
8
PARAMETRIX
10
-761.8785
20
-93.3311
11
-603.1268
21
-102.8967
0
ARC
8
PARAMETRIX
10
-604.6305
20
-127.8514
40
25.0000
50
297.3272
51
86.5518
0
LINE
8
PARAMETRIX
10
-593.1537
20
-150.0614
11
-734.4443
21
-223.0720
0
ARC
8
PARAMETRIX
10
-727.5582
20
-236.3980
40
15.0000
50
117.3272
51
198.0000
0
ARC
8
PARAMETRIX
10
0.0000
20
0.0000
40
780.0000
50
198.0000
51
203.8791
0
ARC
8
PARAMETRIX
10
-699.5175
20
-309.6778
40
15.0000
50
203.8791
51
284.5518
0
LINE
8
PARAMETRIX
10
-695.7486
20
-324.1966
11
-541.8109
21
-284.2370
0
ARC
8
PARAMETRIX
10
-535.5295
20
-308.4350
40
25.0000
50
315.3272
51
104.5518
0
LINE
8
PARAMETRIX
10
-517.7512
20
-326.0114
11
-629.5650
21
-439.1099
0
ARC
8
PARAMETRIX
10
-618.8980
20
-449.6557
40
15.0000
50
135.3272
51
216.0000
0
ARC
8
PARAMETRIX
10
-0.0000
20
-0.0000
40
780.0000
50
216.0000
51
221.8791
0
ARC
8
PARAMETRIX
10
-569.5849
20
-510.6839
40
15.0000
50
221.8791
51
302.5518
0
LINE
8
PARAMETRIX
10
-561.5140
20
-523.3274
11
-427.4587
21
-437.7542
0
ARC
8
PARAMETRIX
10
-414.0072
20
-458.8268
40
25.0000
50
333.3272
51
122.5518
0
LINE
8
PARAMETRIX
10
-391.6675
20
-470.0492
11
-463.0595
21
-612.1646
0
ARC
8
PARAMETRIX
10
-449.6557
20
-618.8980
40
15.0000
50
153.3272
51
234.0000
0
ARC
8
PARAMETRIX
10
-0.0000
20
-0.0000
40
780.0000
50
234.0000
51
239.8791
0
ARC
8
PARAMETRIX
10
-383.8975
20
-661.7006
40
15.0000
50
239.8791
51
320.5518
0
LINE
8
PARAMETRIX
10
-372.3145
20
-671.2313
11
-271.2639
21
-548.4210
0
ARC
8
PARAMETRIX
10
-251.9589
20
-564.3055
40
25.0000
50
351.3272
51
140.5518
0
LINE
8
PARAMETRIX
10
-227.2448
20
-568.0753
11
-251.2265
21
-725.2964
0
ARC
8
PARAMETRIX
10
-236.3980
20
-727.5582
40
15.0000
50
171.3272
51
252.0000
0
ARC
8
PARAMETRIX
10
-0.0000
20
-0.0000
40
780.0000
50
252.0000
51
257.8791
0
ARC
8
PARAMETRIX
10
-160.6314
20
-747.9455
40
15.0000
50
257.8791
51
338.5518
0
LINE
8
PARAMETRIX
10
-146.6702
20
-753.4304
11
-88.5159
21
-605.4045
0
ARC
8
PARAMETRIX
10
-65.2472
20
-614.5460
40
25.0000
50
9.3272
51
158.5518
0
LINE
8
PARAMETRIX
10
-40.5777
20
-610.4942
11
-14.8017
21
-767.4311
0
ARC
8
PARAMETRIX
10
-0.0000
20
-765.0000
40
15.0000
50
189.3272
51
270.0000
0
ARC
8
PARAMETRIX
10
0.0000
20
-0.0000
40
780.0000
50
270.0000
51
275.8791
0
ARC
8
PARAMETRIX
10
78.3583
20
-760.9763
40
15.0000
50
275.8791
51
356.5518
0
LINE
8
PARAMETRIX
10
93.3311
20
-761.8785
11
102.8967
21
-603.1268
0
ARC
8
PARAMETRIX
10
127.8514
20
-604.6305
40
25.0000
50
27.3272
51
176.5518
0
LINE
8
PARAMETRIX
10
150.0614
20
-593.1537
11
223.0720
21
-734.4443
0
ARC
8
PARAMETRIX
10
236.3980
20
-727.5582
40
15.0000
50
207.3272
51
288.0000
0
ARC
8
PARAMETRIX
10
-0.0000
20
0.0000
40
780.0000
50
288.0000
51
293.8791
0
ARC
8
PARAMETRIX
10
309.6778
20
-699.5175
40
15.0000
50
293.8791
51
14.5518
0
LINE
8
PARAMETRIX
10
324.1966
20
-695.7486
11
284.2370
21
-541.8109
0
ARC
8
PARAMETRIX
10
308.4350
20
-535.5295
40
25.0000
50
45.3272
51
194.5518
0
LINE
8
PARAMETRIX
10
326.0114
20
-517.7512
11
439.1099
21
-629.5650
0
ARC
8
PARAMETRIX
10
449.6557
20
-618.8980
40
15.0000
50
225.3272
51
306.0000
0
ARC
8
PARAMETRIX
10
0.0000
20
-0.0000
40
780.0000
50
306.0000
51
311.8791
0
ARC
8
PARAMETRIX
10
510.6839
20
-569.5849
40
15.0000
50
311.8791
51
32.5518
0
LINE
8
PARAMETRIX
10
523.3274
20
-561.5140
11
437.7542
21
-427.4587
0
ARC
8
PARAMETRIX
10
458.8268
20
-414.0072
40
25.0000
50
63.3272
51
212.5518
0
LINE
8
PARAMETRIX
10
470.0492
20
-391.6675
11
612.1646
21
-463.0595
0
ARC
8
PARAMETRIX
10
618.8980
20
-449.6557
40
15.0000
50
243.3272
51
324.0000
0
ARC
8
PARAMETRIX
10
-0.0000
20
0.0000
40
780.0000
50
324.0000
51
329.8791
0
ARC
8
PARAMETRIX
10
661.7006
20
-383.8975
40
15.0000
50
329.8791
51
50.5518
0
LINE
8
PARAMETRIX
10
671.2313
20
-372.3145
11
548.4210
21
-271.2639
0
ARC
8
PARAMETRIX
10
564.3055
20
-251.9589
40
25.0000
50
81.3272
51
230.5518
0
LINE
8
PARAMETRIX
10
568.0753
20
-227.2448
11
725.2964
21
-251.2265
0
ARC
8
PARAMETRIX
10
727.5582
20
-236.3980
40
15.0000
50
261.3272
51
342.0000
0
ARC
8
PARAMETRIX
10
0.0000
20
-0.0000
40
780.0000
50
342.0000
51
347.8791
0
ARC
8
PARAMETRIX
10
747.9455
20
-160.6314
40
15.0000
50
347.8791
51
68.5518
0
LINE
8
PARAMETRIX
10
753.4304
20
-146.6702
11
605.4045
21
-88.5159
0
ARC
8
PARAMETRIX
10
614.5460
20
-65.2472
40
25.0000
50
99.3272
51
248.5518
0
LINE
8
PARAMETRIX
10
610.4942
20
-40.5777
11
767.4311
21
-14.8017
0
ARC
8
PARAMETRIX
10
765.0000
20
-0.0000
40
15.0000
50
279.3272
51
360.0000
0
ENDSEC
0
EOF
