0
SECTION
2
ENTITIES
0
ARC
8
PARAMETRIX
10
-0.0000
20
-0.0000
40
590.0000
50
0.0000
51
7.9091
0
ARC
8
PARAMETRIX
10
559.6254
20
77.7455
40
25.0000
50
7.9091
51
99.2367
0
LINE
8
PARAMETRIX
10
555.6126
20
102.4213
11
406.8452
21
78.2285
0
ARC
8
PARAMETRIX
10
404.4375
20
93.0341
40
15.0000
50
106.6725
51
279.2367
0
LINE
8
PARAMETRIX
10
400.1340
20
107.4035
11
544.5194
21
150.6456
0
ARC
8
PARAMETRIX
10
537.3469
20
174.5946
40
25.0000
50
286.6725
51
18.0000
0
ARC
8
PARAMETRIX
10
0.0000
20
0.0000
40
590.0000
50
18.0000
51
25.9091
0
ARC
8
PARAMETRIX
10
508.2108
20
246.8741
40
25.0000
50
25.9091
51
117.2367
0
LINE
8
PARAMETRIX
10
496.7691
20
269.1022
11
362.7588
21
200.1218
0
ARC
8
PARAMETRIX
10
355.8938
20
213.4587
40
15.0000
50
124.6725
51
297.2367
0
LINE
8
PARAMETRIX
10
347.3605
20
225.7950
11
471.3167
21
311.5382
0
ARC
8
PARAMETRIX
10
457.0946
20
332.0987
40
25.0000
50
304.6725
51
36.0000
0
ARC
8
PARAMETRIX
10
-0.0000
20
-0.0000
40
590.0000
50
36.0000
51
43.9091
0
ARC
8
PARAMETRIX
10
407.0488
20
391.8370
40
25.0000
50
43.9091
51
135.2367
0
LINE
8
PARAMETRIX
10
389.2983
20
409.4415
11
283.1631
21
302.4258
0
ARC
8
PARAMETRIX
10
272.5127
20
312.9885
40
15.0000
50
142.6725
51
315.2367
0
LINE
8
PARAMETRIX
10
260.5850
20
322.0841
11
351.9782
21
441.9353
0
ARC
8
PARAMETRIX
10
332.0987
20
457.0946
40
25.0000
50
322.6725
51
54.0000
0
ARC
8
PARAMETRIX
10
0.0000
20
0.0000
40
590.0000
50
54.0000
51
61.9091
0
ARC
8
PARAMETRIX
10
266.0422
20
498.4441
40
25.0000
50
61.9091
51
153.2367
0
LINE
8
PARAMETRIX
10
243.7203
20
509.7018
11
175.8494
21
375.1262
0
ARC
8
PARAMETRIX
10
162.4562
20
381.8808
40
15.0000
50
160.6725
51
333.2367
0
LINE
8
PARAMETRIX
10
148.3016
20
386.8453
11
198.1857
21
529.0727
0
ARC
8
PARAMETRIX
10
174.5946
20
537.3469
40
25.0000
50
340.6725
51
72.0000
0
ARC
8
PARAMETRIX
10
-0.0000
20
-0.0000
40
590.0000
50
72.0000
51
79.9091
0
ARC
8
PARAMETRIX
10
98.9934
20
556.2601
40
25.0000
50
79.9091
51
171.2367
0
LINE
8
PARAMETRIX
10
74.2853
20
560.0689
11
51.3223
21
411.1067
0
ARC
8
PARAMETRIX
10
36.4974
20
413.3920
40
15.0000
50
178.6725
51
351.2367
0
LINE
8
PARAMETRIX
10
21.5014
20
413.7395
11
24.9933
21
564.4208
0
ARC
8
PARAMETRIX
10
0.0000
20
565.0000
40
25.0000
50
358.6725
51
90.0000
0
ARC
8
PARAMETRIX
10
0.0000
20
-0.0000
40
590.0000
50
90.0000
51
97.9091
0
ARC
8
PARAMETRIX
10
-77.7455
20
559.6254
40
25.0000
50
97.9091
51
189.2367
0
LINE
8
PARAMETRIX
10
-102.4213
20
555.6126
11
-78.2285
21
406.8452
0
ARC
8
PARAMETRIX
10
-93.0341
20
404.4375
40
15.0000
50
196.6725
51
9.2367
0
LINE
8
PARAMETRIX
10
-107.4035
20
400.1340
11
-150.6456
21
544.5194
0
ARC
8
PARAMETRIX
10
-174.5946
20
537.3469
40
25.0000
50
16.6725
51
108.0000
0
ARC
8
PARAMETRIX
10
0.0000
20
-0.0000
40
590.0000
50
108.0000
51
115.9091
0
ARC
8
PARAMETRIX
10
-246.8741
20
508.2108
40
25.0000
50
115.9091
51
207.2367
0
LINE
8
PARAMETRIX
10
-269.1022
20
496.7691
11
-200.1218
21
362.7588
0
ARC
8
PARAMETRIX
10
-213.4587
20
355.8938
40
15.0000
50
214.6725
51
27.2367
0
LINE
8
PARAMETRIX
10
-225.7950
20
347.3605
11
-311.5382
21
471.3167
0
ARC
8
PARAMETRIX
10
-332.0987
20
457.0946
40
25.0000
50
34.6725
51
126.0000
0
ARC
8
PARAMETRIX
10
0.0000
20
-0.0000
40
590.0000
50
126.0000
51
133.9091
0
ARC
8
PARAMETRIX
10
-391.8370
20
407.0488
40
25.0000
50
133.9091
51
225.2367
0
LINE
8
PARAMETRIX
10
-409.4415
20
389.2983
11
-302.4258
21
283.1631
0
ARC
8
PARAMETRIX
10
-312.9885
20
272.5127
40
15.0000
50
232.6725
51
45.2367
0
LINE
8
PARAMETRIX
10
-322.0841
20
260.5850
11
-441.9353
21
351.9782
0
ARC
8
PARAMETRIX
10
-457.0946
20
332.0987
40
25.0000
50
52.6725
51
144.0000
0
ARC
8
PARAMETRIX
10
-0.0000
20
0.0000
40
590.0000
50
144.0000
51
151.9091
0
ARC
8
PARAMETRIX
10
-498.4441
20
266.0422
40
25.0000
50
151.9091
51
243.2367
0
LINE
8
PARAMETRIX
10
-509.7018
20
243.7203
11
-375.1262
21
175.8494
0
ARC
8
PARAMETRIX
10
-381.8808
20
162.4562
40
15.0000
50
250.6725
51
63.2367
0
LINE
8
PARAMETRIX
10
-386.8453
20
148.3016
11
-529.0727
21
198.1857
0
ARC
8
PARAMETRIX
10
-537.3469
20
174.5946
40
25.0000
50
70.6725
51
162.0000
0
ARC
8
PARAMETRIX
10
-0.0000
20
0.0000
40
590.0000
50
162.0000
51
169.9091
0
ARC
8
PARAMETRIX
10
-556.2601
20
98.9934
40
25.0000
50
169.9091
51
261.2367
0
LINE
8
PARAMETRIX
10
-560.0689
20
74.2853
11
-411.1067
21
51.3223
0
ARC
8
PARAMETRIX
10
-413.3920
20
36.4974
40
15.0000
50
268.6725
51
81.2367
0
LINE
8
PARAMETRIX
10
-413.7395
20
21.5014
11
-564.4208
21
24.9933
0
ARC
8
PARAMETRIX
10
-565.0000
20
0.0000
40
25.0000
50
88.6725
51
180.0000
0
ARC
8
PARAMETRIX
10
0.0000
20
0.0000
40
590.0000
50
180.0000
51
187.9091
0
ARC
8
PARAMETRIX
10
-559.6254
20
-77.7455
40
25.0000
50
187.9091
51
279.2367
0
LINE
8
PARAMETRIX
10
-555.6126
20
-102.4213
11
-406.8452
21
-78.2285
0
ARC
8
PARAMETRIX
10
-404.4375
20
-93.0341
40
15.0000
50
286.6725
51
99.2367
0
LINE
8
PARAMETRIX
10
-400.1340
20
-107.4035
11
-544.5194
21
-150.6456
0
ARC
8
PARAMETRIX
10
-537.3469
20
-174.5946
40
25.0000
50
106.6725
51
198.0000
0
ARC
8
PARAMETRIX
10
-0.0000
20
-0.0000
40
590.0000
50
198.0000
51
205.9091
0
ARC
8
PARAMETRIX
10
-508.2108
20
-246.8741
40
25.0000
50
205.9091
51
297.2367
0
LINE
8
PARAMETRIX
10
-496.7691
20
-269.1022
11
-362.7588
21
-200.1218
0
ARC
8
PARAMETRIX
10
-355.8938
20
-213.4587
40
15.0000
50
304.6725
51
117.2367
0
LINE
8
PARAMETRIX
10
-347.3605
20
-225.7950
11
-471.3167
21
-311.5382
0
ARC
8
PARAMETRIX
10
-457.0946
20
-332.0987
40
25.0000
50
124.6725
51
216.0000
0
ARC
8
PARAMETRIX
10
0.0000
20
0.0000
40
590.0000
50
216.0000
51
223.9091
0
ARC
8
PARAMETRIX
10
-407.0488
20
-391.8370
40
25.0000
50
223.9091
51
315.2367
0
LINE
8
PARAMETRIX
10
-389.2983
20
-409.4415
11
-283.1631
21
-302.4258
0
ARC
8
PARAMETRIX
10
-272.5127
20
-312.9885
40
15.0000
50
322.6725
51
135.2367
0
LINE
8
PARAMETRIX
10
-260.5850
20
-322.0841
11
-351.9782
21
-441.9353
0
ARC
8
PARAMETRIX
10
-332.0987
20
-457.0946
40
25.0000
50
142.6725
51
234.0000
0
ARC
8
PARAMETRIX
10
-0.0000
20
-0.0000
40
590.0000
50
234.0000
51
241.9091
0
ARC
8
PARAMETRIX
10
-266.0422
20
-498.4441
40
25.0000
50
241.9091
51
333.2367
0
LINE
8
PARAMETRIX
10
-243.7203
20
-509.7018
11
-175.8494
21
-375.1262
0
ARC
8
PARAMETRIX
10
-162.4562
20
-381.8808
40
15.0000
50
340.6725
51
153.2367
0
LINE
8
PARAMETRIX
10
-148.3016
20
-386.8453
11
-198.1857
21
-529.0727
0
ARC
8
PARAMETRIX
10
-174.5946
20
-537.3469
40
25.0000
50
160.6725
51
252.0000
0
ARC
8
PARAMETRIX
10
-0.0000
20
-0.0000
40
590.0000
50
252.0000
51
259.9091
0
ARC
8
PARAMETRIX
10
-98.9934
20
-556.2601
40
25.0000
50
259.9091
51
351.2367
0
LINE
8
PARAMETRIX
10
-74.2853
20
-560.0689
11
-51.3223
21
-411.1067
0
ARC
8
PARAMETRIX
10
-36.4974
20
-413.3920
40
15.0000
50
358.6725
51
171.2367
0
LINE
8
PARAMETRIX
10
-21.5014
20
-413.7395
11
-24.9933
21
-564.4208
0
ARC
8
PARAMETRIX
10
-0.0000
20
-565.0000
40
25.0000
50
178.6725
51
270.0000
0
ARC
8
PARAMETRIX
10
-0.0000
20
0.0000
40
590.0000
50
270.0000
51
277.9091
0
ARC
8
PARAMETRIX
10
77.7455
20
-559.6254
40
25.0000
50
277.9091
51
9.2367
0
LINE
8
PARAMETRIX
10
102.4213
20
-555.6126
11
78.2285
21
-406.8452
0
ARC
8
PARAMETRIX
10
93.0341
20
-404.4375
40
15.0000
50
16.6725
51
189.2367
0
LINE
8
PARAMETRIX
10
107.4035
20
-400.1340
11
150.6456
21
-544.5194
0
ARC
8
PARAMETRIX
10
174.5946
20
-537.3469
40
25.0000
50
196.6725
51
288.0000
0
ARC
8
PARAMETRIX
10
0.0000
20
-0.0000
40
590.0000
50
288.0000
51
295.9091
0
ARC
8
PARAMETRIX
10
246.8741
20
-508.2108
40
25.0000
50
295.9091
51
27.2367
0
LINE
8
PARAMETRIX
10
269.1022
20
-496.7691
11
200.1218
21
-362.7588
0
ARC
8
PARAMETRIX
10
213.4587
20
-355.8938
40
15.0000
50
34.6725
51
207.2367
0
LINE
8
PARAMETRIX
10
225.7950
20
-347.3605
11
311.5382
21
-471.3167
0
ARC
8
PARAMETRIX
10
332.0987
20
-457.0946
40
25.0000
50
214.6725
51
306.0000
0
ARC
8
PARAMETRIX
10
-0.0000
20
0.0000
40
590.0000
50
306.0000
51
313.9091
0
ARC
8
PARAMETRIX
10
391.8370
20
-407.0488
40
25.0000
50
313.9091
51
45.2367
0
LINE
8
PARAMETRIX
10
409.4415
20
-389.2983
11
302.4258
21
-283.1631
0
ARC
8
PARAMETRIX
10
312.9885
20
-272.5127
40
15.0000
50
52.6725
51
225.2367
0
LINE
8
PARAMETRIX
10
322.0841
20
-260.5850
11
441.9353
21
-351.9782
0
ARC
8
PARAMETRIX
10
457.0946
20
-332.0987
40
25.0000
50
232.6725
51
324.0000
0
ARC
8
PARAMETRIX
10
0.0000
20
-0.0000
40
590.0000
50
324.0000
51
331.9091
0
ARC
8
PARAMETRIX
10
498.4441
20
-266.0422
40
25.0000
50
331.9091
51
63.2367
0
LINE
8
PARAMETRIX
10
509.7018
20
-243.7203
11
375.1262
21
-175.8494
0
ARC
8
PARAMETRIX
10
381.8808
20
-162.4562
40
15.0000
50
70.6725
51
243.2367
0
LINE
8
PARAMETRIX
10
386.8453
20
-148.3016
11
529.0727
21
-198.1857
0
ARC
8
PARAMETRIX
10
537.3469
20
-174.5946
40
25.0000
50
250.6725
51
342.0000
0
ARC
8
PARAMETRIX
10
0.0000
20
-0.0000
40
590.0000
50
342.0000
51
349.9091
0
ARC
8
PARAMETRIX
10
556.2601
20
-98.9934
40
25.0000
50
349.9091
51
81.2367
0
LINE
8
PARAMETRIX
10
560.0689
20
-74.2853
11
411.1067
21
-51.3223
0
ARC
8
PARAMETRIX
10
413.3920
20
-36.4974
40
15.0000
50
88.6725
51
261.2367
0
LINE
8
PARAMETRIX
10
413.7395
20
-21.5014
11
564.4208
21
-24.9933
0
ARC
8
PARAMETRIX
10
565.0000
20
-0.0000
40
25.0000
50
268.6725
51
360.0000
0
ARC
8
PARAMETRIX
10
-0.0000
20
0.0000
40
580.0000
50
360.0000
51
7.9091
0
ARC
8
PARAMETRIX
10
559.6254
20
77.7455
40
15.0000
50
7.9091
51
99.2367
0
LINE
8
PARAMETRIX
10
557.2178
20
92.5510
11
408.4503
21
68.3582
0
ARC
8
PARAMETRIX
10
404.4375
20
93.0341
40
25.0000
50
106.6725
51
279.2367
0
LINE
8
PARAMETRIX
10
397.2650
20
116.9831
11
541.6504
21
160.2252
0
ARC
8
PARAMETRIX
10
537.3469
20
174.5946
40
15.0000
50
286.6725
51
18.0000
0
ARC
8
PARAMETRIX
10
0.0000
20
0.0000
40
580.0000
50
18.0000
51
25.9091
0
ARC
8
PARAMETRIX
10
508.2108
20
246.8741
40
15.0000
50
25.9091
51
117.2367
0
LINE
8
PARAMETRIX
10
501.3457
20
260.2110
11
367.3355
21
191.2306
0
ARC
8
PARAMETRIX
10
355.8938
20
213.4587
40
25.0000
50
124.6725
51
297.2367
0
LINE
8
PARAMETRIX
10
341.6717
20
234.0191
11
465.6279
21
319.7624
0
ARC
8
PARAMETRIX
10
457.0946
20
332.0987
40
15.0000
50
304.6725
51
36.0000
0
ARC
8
PARAMETRIX
10
0.0000
20
0.0000
40
580.0000
50
36.0000
51
43.9091
0
ARC
8
PARAMETRIX
10
407.0488
20
391.8370
40
15.0000
50
43.9091
51
135.2367
0
LINE
8
PARAMETRIX
10
396.3985
20
402.3997
11
290.2633
21
295.3840
0
ARC
8
PARAMETRIX
10
272.5127
20
312.9885
40
25.0000
50
142.6725
51
315.2367
0
LINE
8
PARAMETRIX
10
252.6332
20
328.1478
11
344.0264
21
447.9990
0
ARC
8
PARAMETRIX
10
332.0987
20
457.0946
40
15.0000
50
322.6725
51
54.0000
0
ARC
8
PARAMETRIX
10
0.0000
20
0.0000
40
580.0000
50
54.0000
51
61.9091
0
ARC
8
PARAMETRIX
10
266.0422
20
498.4441
40
15.0000
50
61.9091
51
153.2367
0
LINE
8
PARAMETRIX
10
252.6491
20
505.1987
11
184.7781
21
370.6232
0
ARC
8
PARAMETRIX
10
162.4562
20
381.8808
40
25.0000
50
160.6725
51
333.2367
0
LINE
8
PARAMETRIX
10
138.8652
20
390.1550
11
188.7492
21
532.3824
0
ARC
8
PARAMETRIX
10
174.5946
20
537.3469
40
15.0000
50
340.6725
51
72.0000
0
ARC
8
PARAMETRIX
10
0.0000
20
0.0000
40
580.0000
50
72.0000
51
79.9091
0
ARC
8
PARAMETRIX
10
98.9934
20
556.2601
40
15.0000
50
79.9091
51
171.2367
0
LINE
8
PARAMETRIX
10
84.1685
20
558.5454
11
61.2056
21
409.5832
0
ARC
8
PARAMETRIX
10
36.4974
20
413.3920
40
25.0000
50
178.6725
51
351.2367
0
LINE
8
PARAMETRIX
10
11.5041
20
413.9712
11
14.9960
21
564.6525
0
ARC
8
PARAMETRIX
10
0.0000
20
565.0000
40
15.0000
50
358.6725
51
90.0000
0
ARC
8
PARAMETRIX
10
0.0000
20
0.0000
40
580.0000
50
90.0000
51
97.9091
0
ARC
8
PARAMETRIX
10
-77.7455
20
559.6254
40
15.0000
50
97.9091
51
189.2367
0
LINE
8
PARAMETRIX
10
-92.5510
20
557.2178
11
-68.3582
21
408.4503
0
ARC
8
PARAMETRIX
10
-93.0341
20
404.4375
40
25.0000
50
196.6725
51
9.2367
0
LINE
8
PARAMETRIX
10
-116.9831
20
397.2650
11
-160.2252
21
541.6504
0
ARC
8
PARAMETRIX
10
-174.5946
20
537.3469
40
15.0000
50
16.6725
51
108.0000
0
ARC
8
PARAMETRIX
10
-0.0000
20
0.0000
40
580.0000
50
108.0000
51
115.9091
0
ARC
8
PARAMETRIX
10
-246.8741
20
508.2108
40
15.0000
50
115.9091
51
207.2367
0
LINE
8
PARAMETRIX
10
-260.2110
20
501.3457
11
-191.2306
21
367.3355
0
ARC
8
PARAMETRIX
10
-213.4587
20
355.8938
40
25.0000
50
214.6725
51
27.2367
0
LINE
8
PARAMETRIX
10
-234.0191
20
341.6717
11
-319.7624
21
465.6279
0
ARC
8
PARAMETRIX
10
-332.0987
20
457.0946
40
15.0000
50
34.6725
51
126.0000
0
ARC
8
PARAMETRIX
10
-0.0000
20
0.0000
40
580.0000
50
126.0000
51
133.9091
0
ARC
8
PARAMETRIX
10
-391.8370
20
407.0488
40
15.0000
50
133.9091
51
225.2367
0
LINE
8
PARAMETRIX
10
-402.3997
20
396.3985
11
-295.3840
21
290.2633
0
ARC
8
PARAMETRIX
10
-312.9885
20
272.5127
40
25.0000
50
232.6725
51
45.2367
0
LINE
8
PARAMETRIX
10
-328.1478
20
252.6332
11
-447.9990
21
344.0264
0
ARC
8
PARAMETRIX
10
-457.0946
20
332.0987
40
15.0000
50
52.6725
51
144.0000
0
ARC
8
PARAMETRIX
10
0.0000
20
-0.0000
40
580.0000
50
144.0000
51
151.9091
0
ARC
8
PARAMETRIX
10
-498.4441
20
266.0422
40
15.0000
50
151.9091
51
243.2367
0
LINE
8
PARAMETRIX
10
-505.1987
20
252.6491
11
-370.6232
21
184.7781
0
ARC
8
PARAMETRIX
10
-381.8808
20
162.4562
40
25.0000
50
250.6725
51
63.2367
0
LINE
8
PARAMETRIX
10
-390.1550
20
138.8652
11
-532.3824
21
188.7492
0
ARC
8
PARAMETRIX
10
-537.3469
20
174.5946
40
15.0000
50
70.6725
51
162.0000
0
ARC
8
PARAMETRIX
10
-0.0000
20
0.0000
40
580.0000
50
162.0000
51
169.9091
0
ARC
8
PARAMETRIX
10
-556.2601
20
98.9934
40
15.0000
50
169.9091
51
261.2367
0
LINE
8
PARAMETRIX
10
-558.5454
20
84.1685
11
-409.5832
21
61.2056
0
ARC
8
PARAMETRIX
10
-413.3920
20
36.4974
40
25.0000
50
268.6725
51
81.2367
0
LINE
8
PARAMETRIX
10
-413.9712
20
11.5041
11
-564.6525
21
14.9960
0
ARC
8
PARAMETRIX
10
-565.0000
20
0.0000
40
15.0000
50
88.6725
51
180.0000
0
ARC
8
PARAMETRIX
10
-0.0000
20
0.0000
40
580.0000
50
180.0000
51
187.9091
0
ARC
8
PARAMETRIX
10
-559.6254
20
-77.7455
40
15.0000
50
187.9091
51
279.2367
0
LINE
8
PARAMETRIX
10
-557.2178
20
-92.5510
11
-408.4503
21
-68.3582
0
ARC
8
PARAMETRIX
10
-404.4375
20
-93.0341
40
25.0000
50
286.6725
51
99.2367
0
LINE
8
PARAMETRIX
10
-397.2650
20
-116.9831
11
-541.6504
21
-160.2252
0
ARC
8
PARAMETRIX
10
-537.3469
20
-174.5946
40
15.0000
50
106.6725
51
198.0000
0
ARC
8
PARAMETRIX
10
0.0000
20
0.0000
40
580.0000
50
198.0000
51
205.9091
0
ARC
8
PARAMETRIX
10
-508.2108
20
-246.8741
40
15.0000
50
205.9091
51
297.2367
0
LINE
8
PARAMETRIX
10
-501.3457
20
-260.2110
11
-367.3355
21
-191.2306
0
ARC
8
PARAMETRIX
10
-355.8938
20
-213.4587
40
25.0000
50
304.6725
51
117.2367
0
LINE
8
PARAMETRIX
10
-341.6717
20
-234.0191
11
-465.6279
21
-319.7624
0
ARC
8
PARAMETRIX
10
-457.0946
20
-332.0987
40
15.0000
50
124.6725
51
216.0000
0
ARC
8
PARAMETRIX
10
-0.0000
20
-0.0000
40
580.0000
50
216.0000
51
223.9091
0
ARC
8
PARAMETRIX
10
-407.0488
20
-391.8370
40
15.0000
50
223.9091
51
315.2367
0
LINE
8
PARAMETRIX
10
-396.3985
20
-402.3997
11
-290.2633
21
-295.3840
0
ARC
8
PARAMETRIX
10
-272.5127
20
-312.9885
40
25.0000
50
322.6725
51
135.2367
0
LINE
8
PARAMETRIX
10
-252.6332
20
-328.1478
11
-344.0264
21
-447.9990
0
ARC
8
PARAMETRIX
10
-332.0987
20
-457.0946
40
15.0000
50
142.6725
51
234.0000
0
ARC
8
PARAMETRIX
10
0.0000
20
0.0000
40
580.0000
50
234.0000
51
241.9091
0
ARC
8
PARAMETRIX
10
-266.0422
20
-498.4441
40
15.0000
50
241.9091
51
333.2367
0
LINE
8
PARAMETRIX
10
-252.6491
20
-505.1987
11
-184.7781
21
-370.6232
0
ARC
8
PARAMETRIX
10
-162.4562
20
-381.8808
40
25.0000
50
340.6725
51
153.2367
0
LINE
8
PARAMETRIX
10
-138.8652
20
-390.1550
11
-188.7492
21
-532.3824
0
ARC
8
PARAMETRIX
10
-174.5946
20
-537.3469
40
15.0000
50
160.6725
51
252.0000
0
ARC
8
PARAMETRIX
10
-0.0000
20
-0.0000
40
580.0000
50
252.0000
51
259.9091
0
ARC
8
PARAMETRIX
10
-98.9934
20
-556.2601
40
15.0000
50
259.9091
51
351.2367
0
LINE
8
PARAMETRIX
10
-84.1685
20
-558.5454
11
-61.2056
21
-409.5832
0
ARC
8
PARAMETRIX
10
-36.4974
20
-413.3920
40
25.0000
50
358.6725
51
171.2367
0
LINE
8
PARAMETRIX
10
-11.5041
20
-413.9712
11
-14.9960
21
-564.6525
0
ARC
8
PARAMETRIX
10
-0.0000
20
-565.0000
40
15.0000
50
178.6725
51
270.0000
0
ARC
8
PARAMETRIX
10
-0.0000
20
-0.0000
40
580.0000
50
270.0000
51
277.9091
0
ARC
8
PARAMETRIX
10
77.7455
20
-559.6254
40
15.0000
50
277.9091
51
9.2367
0
LINE
8
PARAMETRIX
10
92.5510
20
-557.2178
11
68.3582
21
-408.4503
0
ARC
8
PARAMETRIX
10
93.0341
20
-404.4375
40
25.0000
50
16.6725
51
189.2367
0
LINE
8
PARAMETRIX
10
116.9831
20
-397.2650
11
160.2252
21
-541.6504
0
ARC
8
PARAMETRIX
10
174.5946
20
-537.3469
40
15.0000
50
196.6725
51
288.0000
0
ARC
8
PARAMETRIX
10
-0.0000
20
0.0000
40
580.0000
50
288.0000
51
295.9091
0
ARC
8
PARAMETRIX
10
246.8741
20
-508.2108
40
15.0000
50
295.9091
51
27.2367
0
LINE
8
PARAMETRIX
10
260.2110
20
-501.3457
11
191.2306
21
-367.3355
0
ARC
8
PARAMETRIX
10
213.4587
20
-355.8938
40
25.0000
50
34.6725
51
207.2367
0
LINE
8
PARAMETRIX
10
234.0191
20
-341.6717
11
319.7624
21
-465.6279
0
ARC
8
PARAMETRIX
10
332.0987
20
-457.0946
40
15.0000
50
214.6725
51
306.0000
0
ARC
8
PARAMETRIX
10
0.0000
20
-0.0000
40
580.0000
50
306.0000
51
313.9091
0
ARC
8
PARAMETRIX
10
391.8370
20
-407.0488
40
15.0000
50
313.9091
51
45.2367
0
LINE
8
PARAMETRIX
10
402.3997
20
-396.3985
11
295.3840
21
-290.2633
0
ARC
8
PARAMETRIX
10
312.9885
20
-272.5127
40
25.0000
50
52.6725
51
225.2367
0
LINE
8
PARAMETRIX
10
328.1478
20
-252.6332
11
447.9990
21
-344.0264
0
ARC
8
PARAMETRIX
10
457.0946
20
-332.0987
40
15.0000
50
232.6725
51
324.0000
0
ARC
8
PARAMETRIX
10
0.0000
20
-0.0000
40
580.0000
50
324.0000
51
331.9091
0
ARC
8
PARAMETRIX
10
498.4441
20
-266.0422
40
15.0000
50
331.9091
51
63.2367
0
LINE
8
PARAMETRIX
10
505.1987
20
-252.6491
11
370.6232
21
-184.7781
0
ARC
8
PARAMETRIX
10
381.8808
20
-162.4562
40
25.0000
50
70.6725
51
243.2367
0
LINE
8
PARAMETRIX
10
390.1550
20
-138.8652
11
532.3824
21
-188.7492
0
ARC
8
PARAMETRIX
10
537.3469
20
-174.5946
40
15.0000
50
250.6725
51
342.0000
0
ARC
8
PARAMETRIX
10
0.0000
20
-0.0000
40
580.0000
50
342.0000
51
349.9091
0
ARC
8
PARAMETRIX
10
556.2601
20
-98.9934
40
15.0000
50
349.9091
51
81.2367
0
LINE
8
PARAMETRIX
10
558.5454
20
-84.1685
11
409.5832
21
-61.2056
0
ARC
8
PARAMETRIX
10
413.3920
20
-36.4974
40
25.0000
50
88.6725
51
261.2367
0
LINE
8
PARAMETRIX
10
413.9712
20
-11.5041
11
564.6525
21
-14.9960
0
ARC
8
PARAMETRIX
10
565.0000
20
-0.0000
40
15.0000
50
268.6725
51
360.0000
0
ENDSEC
0
EOF
