solid OpenSCAD_Model
  facet normal -0.993295 0.104396 0.0496647
    outer loop
      vertex -600 0 4000
      vertex -586.889 124.747 4000
      vertex -800 0 0
    endloop
  endfacet
  facet normal -0.993295 0.1044 0.0496646
    outer loop
      vertex -586.889 124.747 4000
      vertex -782.518 166.329 0
      vertex -800 0 0
    endloop
  endfacet
  facet normal 0.0500018 -0.00525575 0.998735
    outer loop
      vertex -590.013 0 3999.5
      vertex -577.119 122.67 3999.5
      vertex -600 0 4000
    endloop
  endfacet
  facet normal 0.0499953 -0.00525454 0.998736
    outer loop
      vertex -577.119 122.67 3999.5
      vertex -586.889 124.747 4000
      vertex -600 0 4000
    endloop
  endfacet
  facet normal 0.993294 -0.104401 -0.0496647
    outer loop
      vertex -772.749 164.253 -0.49939
      vertex -590.013 0 3999.5
      vertex -790.013 0 -0.49939
    endloop
  endfacet
  facet normal 0.993294 -0.104406 -0.0496649
    outer loop
      vertex -577.119 122.67 3999.5
      vertex -590.013 0 3999.5
      vertex -772.749 164.253 -0.49939
    endloop
  endfacet
  facet normal -0.0499409 0.00524904 -0.998738
    outer loop
      vertex -782.518 166.329 0
      vertex -790.013 0 -0.49939
      vertex -800 0 0
    endloop
  endfacet
  facet normal -0.0499399 0.00524899 -0.998738
    outer loop
      vertex -782.518 166.329 0
      vertex -772.749 164.253 -0.49939
      vertex -790.013 0 -0.49939
    endloop
  endfacet
  facet normal -0.949881 0.308641 0.0496646
    outer loop
      vertex -586.889 124.747 4000
      vertex -548.127 244.042 4000
      vertex -782.518 166.329 0
    endloop
  endfacet
  facet normal -0.949882 0.308637 0.0496647
    outer loop
      vertex -548.127 244.042 4000
      vertex -730.836 325.389 0
      vertex -782.518 166.329 0
    endloop
  endfacet
  facet normal 0.0478099 -0.0155343 0.998736
    outer loop
      vertex -577.119 122.67 3999.5
      vertex -539.003 239.98 3999.5
      vertex -586.889 124.747 4000
    endloop
  endfacet
  facet normal 0.0478145 -0.0155362 0.998735
    outer loop
      vertex -539.003 239.98 3999.5
      vertex -548.127 244.042 4000
      vertex -586.889 124.747 4000
    endloop
  endfacet
  facet normal 0.949882 -0.308639 -0.0496649
    outer loop
      vertex -721.712 321.327 -0.49939
      vertex -577.119 122.67 3999.5
      vertex -772.749 164.253 -0.49939
    endloop
  endfacet
  facet normal 0.949884 -0.308633 -0.0496647
    outer loop
      vertex -539.003 239.98 3999.5
      vertex -577.119 122.67 3999.5
      vertex -721.712 321.327 -0.49939
    endloop
  endfacet
  facet normal -0.0477578 0.0155175 -0.998738
    outer loop
      vertex -730.836 325.389 0
      vertex -772.749 164.253 -0.49939
      vertex -782.518 166.329 0
    endloop
  endfacet
  facet normal -0.0477564 0.0155172 -0.998738
    outer loop
      vertex -730.836 325.389 0
      vertex -721.712 321.327 -0.49939
      vertex -772.749 164.253 -0.49939
    endloop
  endfacet
  facet normal -0.864957 0.499383 0.0496647
    outer loop
      vertex -548.127 244.042 4000
      vertex -485.41 352.671 4000
      vertex -730.836 325.389 0
    endloop
  endfacet
  facet normal -0.864959 0.499379 0.0496648
    outer loop
      vertex -485.41 352.671 4000
      vertex -647.214 470.228 0
      vertex -730.836 325.389 0
    endloop
  endfacet
  facet normal 0.0435399 -0.0251377 0.998735
    outer loop
      vertex -539.003 239.98 3999.5
      vertex -477.33 346.801 3999.5
      vertex -548.127 244.042 4000
    endloop
  endfacet
  facet normal 0.0435405 -0.0251381 0.998735
    outer loop
      vertex -477.33 346.801 3999.5
      vertex -485.41 352.671 4000
      vertex -548.127 244.042 4000
    endloop
  endfacet
  facet normal 0.864959 -0.499378 -0.0496647
    outer loop
      vertex -639.134 464.358 -0.49939
      vertex -539.003 239.98 3999.5
      vertex -721.712 321.327 -0.49939
    endloop
  endfacet
  facet normal 0.864957 -0.499382 -0.0496649
    outer loop
      vertex -477.33 346.801 3999.5
      vertex -539.003 239.98 3999.5
      vertex -639.134 464.358 -0.49939
    endloop
  endfacet
  facet normal -0.043487 0.025107 -0.998738
    outer loop
      vertex -647.214 470.228 0
      vertex -721.712 321.327 -0.49939
      vertex -730.836 325.389 0
    endloop
  endfacet
  facet normal -0.0434876 0.0251073 -0.998738
    outer loop
      vertex -647.214 470.228 0
      vertex -639.134 464.358 -0.49939
      vertex -721.712 321.327 -0.49939
    endloop
  endfacet
  facet normal -0.742229 0.668303 0.0496649
    outer loop
      vertex -647.214 470.228 0
      vertex -401.478 445.887 4000
      vertex -535.305 594.516 0
    endloop
  endfacet
  facet normal -0.742228 0.668305 0.0496648
    outer loop
      vertex -401.478 445.887 4000
      vertex -647.214 470.228 0
      vertex -485.41 352.671 4000
    endloop
  endfacet
  facet normal 0.0373627 -0.0336417 0.998735
    outer loop
      vertex -477.33 346.801 3999.5
      vertex -394.795 438.465 3999.5
      vertex -485.41 352.671 4000
    endloop
  endfacet
  facet normal 0.0373616 -0.0336405 0.998735
    outer loop
      vertex -394.795 438.465 3999.5
      vertex -401.478 445.887 4000
      vertex -485.41 352.671 4000
    endloop
  endfacet
  facet normal 0.742228 -0.668305 -0.0496648
    outer loop
      vertex -528.622 587.094 -0.49939
      vertex -477.33 346.801 3999.5
      vertex -639.134 464.358 -0.49939
    endloop
  endfacet
  facet normal 0.742226 -0.668306 -0.0496649
    outer loop
      vertex -394.795 438.465 3999.5
      vertex -477.33 346.801 3999.5
      vertex -528.622 587.094 -0.49939
    endloop
  endfacet
  facet normal -0.0373174 0.0336006 -0.998738
    outer loop
      vertex -535.305 594.516 0
      vertex -639.134 464.358 -0.49939
      vertex -647.214 470.228 0
    endloop
  endfacet
  facet normal -0.0373161 0.0335996 -0.998738
    outer loop
      vertex -535.305 594.516 0
      vertex -528.622 587.094 -0.49939
      vertex -639.134 464.358 -0.49939
    endloop
  endfacet
  facet normal -0.587059 0.808019 0.0496649
    outer loop
      vertex -401.478 445.887 4000
      vertex -300 519.615 4000
      vertex -535.305 594.516 0
    endloop
  endfacet
  facet normal -0.587057 0.808021 0.0496647
    outer loop
      vertex -300 519.615 4000
      vertex -400 692.82 0
      vertex -535.305 594.516 0
    endloop
  endfacet
  facet normal 0.029551 -0.0406734 0.998735
    outer loop
      vertex -394.795 438.465 3999.5
      vertex -295.006 510.966 3999.5
      vertex -401.478 445.887 4000
    endloop
  endfacet
  facet normal 0.0295513 -0.0406739 0.998735
    outer loop
      vertex -295.006 510.966 3999.5
      vertex -300 519.615 4000
      vertex -401.478 445.887 4000
    endloop
  endfacet
  facet normal 0.587057 -0.808021 -0.0496649
    outer loop
      vertex -395.006 684.171 -0.49939
      vertex -394.795 438.465 3999.5
      vertex -528.622 587.094 -0.49939
    endloop
  endfacet
  facet normal 0.58706 -0.808018 -0.0496647
    outer loop
      vertex -295.006 510.966 3999.5
      vertex -394.795 438.465 3999.5
      vertex -395.006 684.171 -0.49939
    endloop
  endfacet
  facet normal -0.0295149 0.0406241 -0.998738
    outer loop
      vertex -400 692.82 0
      vertex -528.622 587.094 -0.49939
      vertex -535.305 594.516 0
    endloop
  endfacet
  facet normal -0.0295152 0.0406245 -0.998738
    outer loop
      vertex -400 692.82 0
      vertex -395.006 684.171 -0.49939
      vertex -528.622 587.094 -0.49939
    endloop
  endfacet
  facet normal -0.406236 0.912417 0.0496647
    outer loop
      vertex -300 519.615 4000
      vertex -185.41 570.634 4000
      vertex -400 692.82 0
    endloop
  endfacet
  facet normal -0.406236 0.912417 0.0496647
    outer loop
      vertex -185.41 570.634 4000
      vertex -247.214 760.845 0
      vertex -400 692.82 0
    endloop
  endfacet
  facet normal 0.0204491 -0.0459296 0.998735
    outer loop
      vertex -295.006 510.966 3999.5
      vertex -182.324 561.135 3999.5
      vertex -300 519.615 4000
    endloop
  endfacet
  facet normal 0.0204483 -0.0459274 0.998735
    outer loop
      vertex -182.324 561.135 3999.5
      vertex -185.41 570.634 4000
      vertex -300 519.615 4000
    endloop
  endfacet
  facet normal 0.406236 -0.912417 -0.0496647
    outer loop
      vertex -244.127 751.347 -0.49939
      vertex -295.006 510.966 3999.5
      vertex -395.006 684.171 -0.49939
    endloop
  endfacet
  facet normal 0.406233 -0.912419 -0.0496649
    outer loop
      vertex -244.127 751.347 -0.49939
      vertex -182.324 561.135 3999.5
      vertex -295.006 510.966 3999.5
    endloop
  endfacet
  facet normal -0.0204243 0.0458736 -0.998738
    outer loop
      vertex -247.214 760.845 0
      vertex -395.006 684.171 -0.49939
      vertex -400 692.82 0
    endloop
  endfacet
  facet normal -0.0204245 0.0458738 -0.998738
    outer loop
      vertex -247.214 760.845 0
      vertex -244.127 751.347 -0.49939
      vertex -395.006 684.171 -0.49939
    endloop
  endfacet
  facet normal -0.207654 0.976941 0.0496647
    outer loop
      vertex -185.41 570.634 4000
      vertex -62.7171 596.713 4000
      vertex -247.214 760.845 0
    endloop
  endfacet
  facet normal -0.207653 0.976941 0.0496646
    outer loop
      vertex -62.7171 596.713 4000
      vertex -83.6228 795.617 0
      vertex -247.214 760.845 0
    endloop
  endfacet
  facet normal 0.0104524 -0.0491748 0.998735
    outer loop
      vertex -182.324 561.135 3999.5
      vertex -61.6731 586.78 3999.5
      vertex -185.41 570.634 4000
    endloop
  endfacet
  facet normal 0.0104524 -0.049175 0.998735
    outer loop
      vertex -61.6731 586.78 3999.5
      vertex -62.7171 596.713 4000
      vertex -185.41 570.634 4000
    endloop
  endfacet
  facet normal 0.207654 -0.976941 -0.0496649
    outer loop
      vertex -82.5788 785.685 -0.49939
      vertex -182.324 561.135 3999.5
      vertex -244.127 751.347 -0.49939
    endloop
  endfacet
  facet normal 0.207654 -0.976941 -0.0496649
    outer loop
      vertex -82.5788 785.685 -0.49939
      vertex -61.6731 586.78 3999.5
      vertex -182.324 561.135 3999.5
    endloop
  endfacet
  facet normal -0.0104404 0.0491188 -0.998738
    outer loop
      vertex -83.6228 795.617 0
      vertex -244.127 751.347 -0.49939
      vertex -247.214 760.845 0
    endloop
  endfacet
  facet normal -0.0104407 0.04912 -0.998738
    outer loop
      vertex -83.6228 795.617 0
      vertex -82.5788 785.685 -0.49939
      vertex -244.127 751.347 -0.49939
    endloop
  endfacet
  facet normal 0 0.998766 0.0496646
    outer loop
      vertex 83.6228 795.617 0
      vertex -62.7171 596.713 4000
      vertex 62.7171 596.713 4000
    endloop
  endfacet
  facet normal 0 0.998766 0.0496646
    outer loop
      vertex -62.7171 596.713 4000
      vertex 83.6228 795.617 0
      vertex -83.6228 795.617 0
    endloop
  endfacet
  facet normal 0 -0.0502736 0.998735
    outer loop
      vertex 62.7171 596.713 4000
      vertex -61.6731 586.78 3999.5
      vertex 61.6731 586.78 3999.5
    endloop
  endfacet
  facet normal 0 -0.0502736 0.998735
    outer loop
      vertex -61.6731 586.78 3999.5
      vertex 62.7171 596.713 4000
      vertex -62.7171 596.713 4000
    endloop
  endfacet
  facet normal 0 -0.998766 -0.0496649
    outer loop
      vertex -82.5788 785.685 -0.49939
      vertex 61.6731 586.78 3999.5
      vertex -61.6731 586.78 3999.5
    endloop
  endfacet
  facet normal 0 -0.998766 -0.0496649
    outer loop
      vertex 61.6731 586.78 3999.5
      vertex -82.5788 785.685 -0.49939
      vertex 82.5788 785.685 -0.49939
    endloop
  endfacet
  facet normal 0 0.0502175 -0.998738
    outer loop
      vertex -82.5788 785.685 -0.49939
      vertex 83.6228 795.617 0
      vertex 82.5788 785.685 -0.49939
    endloop
  endfacet
  facet normal 0 0.0502175 -0.998738
    outer loop
      vertex 83.6228 795.617 0
      vertex -82.5788 785.685 -0.49939
      vertex -83.6228 795.617 0
    endloop
  endfacet
  facet normal 0.207654 0.976941 0.0496646
    outer loop
      vertex 185.41 570.634 4000
      vertex 83.6228 795.617 0
      vertex 62.7171 596.713 4000
    endloop
  endfacet
  facet normal 0.207653 0.976941 0.0496647
    outer loop
      vertex 185.41 570.634 4000
      vertex 247.214 760.845 0
      vertex 83.6228 795.617 0
    endloop
  endfacet
  facet normal -0.0104524 -0.049175 0.998735
    outer loop
      vertex 182.324 561.135 3999.5
      vertex 62.7171 596.713 4000
      vertex 61.6731 586.78 3999.5
    endloop
  endfacet
  facet normal -0.0104524 -0.0491748 0.998735
    outer loop
      vertex 182.324 561.135 3999.5
      vertex 185.41 570.634 4000
      vertex 62.7171 596.713 4000
    endloop
  endfacet
  facet normal -0.207654 -0.976941 -0.0496649
    outer loop
      vertex 82.5788 785.685 -0.49939
      vertex 244.127 751.347 -0.49939
      vertex 61.6731 586.78 3999.5
    endloop
  endfacet
  facet normal -0.207654 -0.976941 -0.0496649
    outer loop
      vertex 244.127 751.347 -0.49939
      vertex 182.324 561.135 3999.5
      vertex 61.6731 586.78 3999.5
    endloop
  endfacet
  facet normal 0.0104407 0.04912 -0.998738
    outer loop
      vertex 83.6228 795.617 0
      vertex 247.214 760.845 0
      vertex 82.5788 785.685 -0.49939
    endloop
  endfacet
  facet normal 0.0104405 0.0491188 -0.998738
    outer loop
      vertex 247.214 760.845 0
      vertex 244.127 751.347 -0.49939
      vertex 82.5788 785.685 -0.49939
    endloop
  endfacet
  facet normal 0.406236 0.912417 0.0496647
    outer loop
      vertex 300 519.615 4000
      vertex 247.214 760.845 0
      vertex 185.41 570.634 4000
    endloop
  endfacet
  facet normal 0.406236 0.912417 0.0496647
    outer loop
      vertex 300 519.615 4000
      vertex 400 692.82 0
      vertex 247.214 760.845 0
    endloop
  endfacet
  facet normal -0.0204481 -0.0459275 0.998735
    outer loop
      vertex 295.006 510.966 3999.5
      vertex 185.41 570.634 4000
      vertex 182.324 561.135 3999.5
    endloop
  endfacet
  facet normal -0.0204492 -0.0459295 0.998735
    outer loop
      vertex 295.006 510.966 3999.5
      vertex 300 519.615 4000
      vertex 185.41 570.634 4000
    endloop
  endfacet
  facet normal -0.406236 -0.912417 -0.0496648
    outer loop
      vertex 244.127 751.347 -0.49939
      vertex 395.006 684.171 -0.49939
      vertex 182.324 561.135 3999.5
    endloop
  endfacet
  facet normal -0.406233 -0.912419 -0.0496647
    outer loop
      vertex 395.006 684.171 -0.49939
      vertex 295.006 510.966 3999.5
      vertex 182.324 561.135 3999.5
    endloop
  endfacet
  facet normal 0.0204244 0.0458738 -0.998738
    outer loop
      vertex 247.214 760.845 0
      vertex 400 692.82 0
      vertex 244.127 751.347 -0.49939
    endloop
  endfacet
  facet normal 0.0204243 0.0458736 -0.998738
    outer loop
      vertex 400 692.82 0
      vertex 395.006 684.171 -0.49939
      vertex 244.127 751.347 -0.49939
    endloop
  endfacet
  facet normal 0.587059 0.808019 0.0496647
    outer loop
      vertex 401.478 445.887 4000
      vertex 400 692.82 0
      vertex 300 519.615 4000
    endloop
  endfacet
  facet normal 0.587057 0.808021 0.0496648
    outer loop
      vertex 401.478 445.887 4000
      vertex 535.305 594.516 0
      vertex 400 692.82 0
    endloop
  endfacet
  facet normal -0.0295513 -0.0406739 0.998735
    outer loop
      vertex 394.795 438.465 3999.5
      vertex 300 519.615 4000
      vertex 295.006 510.966 3999.5
    endloop
  endfacet
  facet normal -0.029551 -0.0406735 0.998735
    outer loop
      vertex 394.795 438.465 3999.5
      vertex 401.478 445.887 4000
      vertex 300 519.615 4000
    endloop
  endfacet
  facet normal -0.587057 -0.808021 -0.0496647
    outer loop
      vertex 395.006 684.171 -0.49939
      vertex 528.622 587.094 -0.49939
      vertex 295.006 510.966 3999.5
    endloop
  endfacet
  facet normal -0.58706 -0.808018 -0.0496649
    outer loop
      vertex 528.622 587.094 -0.49939
      vertex 394.795 438.465 3999.5
      vertex 295.006 510.966 3999.5
    endloop
  endfacet
  facet normal 0.0295152 0.0406245 -0.998738
    outer loop
      vertex 400 692.82 0
      vertex 535.305 594.516 0
      vertex 395.006 684.171 -0.49939
    endloop
  endfacet
  facet normal 0.0295149 0.0406241 -0.998738
    outer loop
      vertex 535.305 594.516 0
      vertex 528.622 587.094 -0.49939
      vertex 395.006 684.171 -0.49939
    endloop
  endfacet
  facet normal 0.742229 0.668303 0.0496649
    outer loop
      vertex 401.478 445.887 4000
      vertex 647.214 470.228 0
      vertex 535.305 594.516 0
    endloop
  endfacet
  facet normal 0.742228 0.668305 0.0496648
    outer loop
      vertex 647.214 470.228 0
      vertex 401.478 445.887 4000
      vertex 485.41 352.671 4000
    endloop
  endfacet
  facet normal -0.0373615 -0.0336406 0.998735
    outer loop
      vertex 477.33 346.801 3999.5
      vertex 401.478 445.887 4000
      vertex 394.795 438.465 3999.5
    endloop
  endfacet
  facet normal -0.0373628 -0.0336416 0.998735
    outer loop
      vertex 477.33 346.801 3999.5
      vertex 485.41 352.671 4000
      vertex 401.478 445.887 4000
    endloop
  endfacet
  facet normal -0.742228 -0.668305 -0.0496649
    outer loop
      vertex 528.622 587.094 -0.49939
      vertex 639.134 464.358 -0.49939
      vertex 394.795 438.465 3999.5
    endloop
  endfacet
  facet normal -0.742226 -0.668306 -0.0496648
    outer loop
      vertex 639.134 464.358 -0.49939
      vertex 477.33 346.801 3999.5
      vertex 394.795 438.465 3999.5
    endloop
  endfacet
  facet normal 0.0373162 0.0335995 -0.998738
    outer loop
      vertex 535.305 594.516 0
      vertex 647.214 470.228 0
      vertex 528.622 587.094 -0.49939
    endloop
  endfacet
  facet normal 0.0373173 0.0336007 -0.998738
    outer loop
      vertex 647.214 470.228 0
      vertex 639.134 464.358 -0.49939
      vertex 528.622 587.094 -0.49939
    endloop
  endfacet
  facet normal 0.864957 0.499383 0.0496649
    outer loop
      vertex 548.127 244.042 4000
      vertex 647.214 470.228 0
      vertex 485.41 352.671 4000
    endloop
  endfacet
  facet normal 0.864959 0.499379 0.0496647
    outer loop
      vertex 730.836 325.389 0
      vertex 647.214 470.228 0
      vertex 548.127 244.042 4000
    endloop
  endfacet
  facet normal -0.0435405 -0.0251381 0.998735
    outer loop
      vertex 539.003 239.98 3999.5
      vertex 485.41 352.671 4000
      vertex 477.33 346.801 3999.5
    endloop
  endfacet
  facet normal -0.0435399 -0.0251378 0.998735
    outer loop
      vertex 539.003 239.98 3999.5
      vertex 548.127 244.042 4000
      vertex 485.41 352.671 4000
    endloop
  endfacet
  facet normal -0.864959 -0.499378 -0.0496648
    outer loop
      vertex 639.134 464.358 -0.49939
      vertex 721.712 321.327 -0.49939
      vertex 477.33 346.801 3999.5
    endloop
  endfacet
  facet normal -0.864957 -0.499382 -0.0496647
    outer loop
      vertex 721.712 321.327 -0.49939
      vertex 539.003 239.98 3999.5
      vertex 477.33 346.801 3999.5
    endloop
  endfacet
  facet normal 0.0434876 0.0251073 -0.998738
    outer loop
      vertex 647.214 470.228 0
      vertex 730.836 325.389 0
      vertex 639.134 464.358 -0.49939
    endloop
  endfacet
  facet normal 0.043487 0.0251069 -0.998738
    outer loop
      vertex 730.836 325.389 0
      vertex 721.712 321.327 -0.49939
      vertex 639.134 464.358 -0.49939
    endloop
  endfacet
  facet normal 0.949881 0.308641 0.0496647
    outer loop
      vertex 586.889 124.747 4000
      vertex 730.836 325.389 0
      vertex 548.127 244.042 4000
    endloop
  endfacet
  facet normal 0.949882 0.308637 0.0496646
    outer loop
      vertex 782.518 166.329 0
      vertex 730.836 325.389 0
      vertex 586.889 124.747 4000
    endloop
  endfacet
  facet normal -0.0478147 -0.0155358 0.998735
    outer loop
      vertex 577.119 122.67 3999.5
      vertex 548.127 244.042 4000
      vertex 539.003 239.98 3999.5
    endloop
  endfacet
  facet normal -0.0478099 -0.0155346 0.998736
    outer loop
      vertex 577.119 122.67 3999.5
      vertex 586.889 124.747 4000
      vertex 548.127 244.042 4000
    endloop
  endfacet
  facet normal -0.949882 -0.308639 -0.0496647
    outer loop
      vertex 721.712 321.327 -0.49939
      vertex 772.749 164.253 -0.49939
      vertex 539.003 239.98 3999.5
    endloop
  endfacet
  facet normal -0.949884 -0.308633 -0.0496649
    outer loop
      vertex 772.749 164.253 -0.49939
      vertex 577.119 122.67 3999.5
      vertex 539.003 239.98 3999.5
    endloop
  endfacet
  facet normal 0.0477564 0.0155171 -0.998738
    outer loop
      vertex 730.836 325.389 0
      vertex 782.518 166.329 0
      vertex 721.712 321.327 -0.49939
    endloop
  endfacet
  facet normal 0.0477577 0.0155176 -0.998738
    outer loop
      vertex 782.518 166.329 0
      vertex 772.749 164.253 -0.49939
      vertex 721.712 321.327 -0.49939
    endloop
  endfacet
  facet normal 0.993295 0.104396 0.0496646
    outer loop
      vertex 600 0 4000
      vertex 782.518 166.329 0
      vertex 586.889 124.747 4000
    endloop
  endfacet
  facet normal 0.993295 0.1044 0.0496647
    outer loop
      vertex 800 0 0
      vertex 782.518 166.329 0
      vertex 600 0 4000
    endloop
  endfacet
  facet normal -0.0499952 -0.00525506 0.998736
    outer loop
      vertex 590.013 0 3999.5
      vertex 586.889 124.747 4000
      vertex 577.119 122.67 3999.5
    endloop
  endfacet
  facet normal -0.0500018 -0.00525522 0.998735
    outer loop
      vertex 590.013 0 3999.5
      vertex 600 0 4000
      vertex 586.889 124.747 4000
    endloop
  endfacet
  facet normal -0.993294 -0.104401 -0.0496649
    outer loop
      vertex 772.749 164.253 -0.49939
      vertex 790.013 0 -0.49939
      vertex 577.119 122.67 3999.5
    endloop
  endfacet
  facet normal -0.993294 -0.104406 -0.0496647
    outer loop
      vertex 790.013 0 -0.49939
      vertex 590.013 0 3999.5
      vertex 577.119 122.67 3999.5
    endloop
  endfacet
  facet normal 0.0499399 0.00524893 -0.998738
    outer loop
      vertex 782.518 166.329 0
      vertex 800 0 0
      vertex 772.749 164.253 -0.49939
    endloop
  endfacet
  facet normal 0.0499409 0.0052491 -0.998738
    outer loop
      vertex 800 0 0
      vertex 790.013 0 -0.49939
      vertex 772.749 164.253 -0.49939
    endloop
  endfacet
  facet normal 0.993295 -0.104396 0.0496647
    outer loop
      vertex 800 0 0
      vertex 600 0 4000
      vertex 586.889 -124.747 4000
    endloop
  endfacet
  facet normal 0.993295 -0.1044 0.0496646
    outer loop
      vertex 782.518 -166.329 0
      vertex 800 0 0
      vertex 586.889 -124.747 4000
    endloop
  endfacet
  facet normal -0.0500018 0.00525575 0.998735
    outer loop
      vertex 600 0 4000
      vertex 590.013 0 3999.5
      vertex 577.119 -122.67 3999.5
    endloop
  endfacet
  facet normal -0.0499953 0.00525454 0.998736
    outer loop
      vertex 586.889 -124.747 4000
      vertex 600 0 4000
      vertex 577.119 -122.67 3999.5
    endloop
  endfacet
  facet normal -0.993294 0.104401 -0.0496647
    outer loop
      vertex 790.013 0 -0.49939
      vertex 772.749 -164.253 -0.49939
      vertex 590.013 0 3999.5
    endloop
  endfacet
  facet normal -0.993294 0.104406 -0.0496649
    outer loop
      vertex 590.013 0 3999.5
      vertex 772.749 -164.253 -0.49939
      vertex 577.119 -122.67 3999.5
    endloop
  endfacet
  facet normal 0.0499409 -0.00524904 -0.998738
    outer loop
      vertex 790.013 0 -0.49939
      vertex 800 0 0
      vertex 782.518 -166.329 0
    endloop
  endfacet
  facet normal 0.0499399 -0.00524899 -0.998738
    outer loop
      vertex 790.013 0 -0.49939
      vertex 782.518 -166.329 0
      vertex 772.749 -164.253 -0.49939
    endloop
  endfacet
  facet normal 0.949881 -0.308641 0.0496646
    outer loop
      vertex 782.518 -166.329 0
      vertex 586.889 -124.747 4000
      vertex 548.127 -244.042 4000
    endloop
  endfacet
  facet normal 0.949882 -0.308637 0.0496647
    outer loop
      vertex 730.836 -325.389 0
      vertex 782.518 -166.329 0
      vertex 548.127 -244.042 4000
    endloop
  endfacet
  facet normal -0.0478099 0.0155343 0.998736
    outer loop
      vertex 586.889 -124.747 4000
      vertex 577.119 -122.67 3999.5
      vertex 539.003 -239.98 3999.5
    endloop
  endfacet
  facet normal -0.0478145 0.0155362 0.998735
    outer loop
      vertex 548.127 -244.042 4000
      vertex 586.889 -124.747 4000
      vertex 539.003 -239.98 3999.5
    endloop
  endfacet
  facet normal -0.949882 0.308639 -0.0496649
    outer loop
      vertex 772.749 -164.253 -0.49939
      vertex 721.712 -321.327 -0.49939
      vertex 577.119 -122.67 3999.5
    endloop
  endfacet
  facet normal -0.949884 0.308633 -0.0496647
    outer loop
      vertex 577.119 -122.67 3999.5
      vertex 721.712 -321.327 -0.49939
      vertex 539.003 -239.98 3999.5
    endloop
  endfacet
  facet normal 0.0477578 -0.0155175 -0.998738
    outer loop
      vertex 772.749 -164.253 -0.49939
      vertex 782.518 -166.329 0
      vertex 730.836 -325.389 0
    endloop
  endfacet
  facet normal 0.0477564 -0.0155172 -0.998738
    outer loop
      vertex 772.749 -164.253 -0.49939
      vertex 730.836 -325.389 0
      vertex 721.712 -321.327 -0.49939
    endloop
  endfacet
  facet normal 0.864957 -0.499383 0.0496647
    outer loop
      vertex 730.836 -325.389 0
      vertex 548.127 -244.042 4000
      vertex 485.41 -352.671 4000
    endloop
  endfacet
  facet normal 0.864959 -0.499379 0.0496648
    outer loop
      vertex 647.214 -470.228 0
      vertex 730.836 -325.389 0
      vertex 485.41 -352.671 4000
    endloop
  endfacet
  facet normal -0.0435399 0.0251377 0.998735
    outer loop
      vertex 548.127 -244.042 4000
      vertex 539.003 -239.98 3999.5
      vertex 477.33 -346.801 3999.5
    endloop
  endfacet
  facet normal -0.0435405 0.0251381 0.998735
    outer loop
      vertex 485.41 -352.671 4000
      vertex 548.127 -244.042 4000
      vertex 477.33 -346.801 3999.5
    endloop
  endfacet
  facet normal -0.864959 0.499378 -0.0496647
    outer loop
      vertex 721.712 -321.327 -0.49939
      vertex 639.134 -464.358 -0.49939
      vertex 539.003 -239.98 3999.5
    endloop
  endfacet
  facet normal -0.864957 0.499382 -0.0496649
    outer loop
      vertex 539.003 -239.98 3999.5
      vertex 639.134 -464.358 -0.49939
      vertex 477.33 -346.801 3999.5
    endloop
  endfacet
  facet normal 0.043487 -0.025107 -0.998738
    outer loop
      vertex 721.712 -321.327 -0.49939
      vertex 730.836 -325.389 0
      vertex 647.214 -470.228 0
    endloop
  endfacet
  facet normal 0.0434876 -0.0251073 -0.998738
    outer loop
      vertex 721.712 -321.327 -0.49939
      vertex 647.214 -470.228 0
      vertex 639.134 -464.358 -0.49939
    endloop
  endfacet
  facet normal 0.742228 -0.668305 0.0496648
    outer loop
      vertex 401.478 -445.887 4000
      vertex 647.214 -470.228 0
      vertex 485.41 -352.671 4000
    endloop
  endfacet
  facet normal 0.742229 -0.668303 0.0496649
    outer loop
      vertex 647.214 -470.228 0
      vertex 401.478 -445.887 4000
      vertex 535.305 -594.516 0
    endloop
  endfacet
  facet normal -0.0373627 0.0336417 0.998735
    outer loop
      vertex 485.41 -352.671 4000
      vertex 477.33 -346.801 3999.5
      vertex 394.795 -438.465 3999.5
    endloop
  endfacet
  facet normal -0.0373616 0.0336405 0.998735
    outer loop
      vertex 401.478 -445.887 4000
      vertex 485.41 -352.671 4000
      vertex 394.795 -438.465 3999.5
    endloop
  endfacet
  facet normal -0.742228 0.668305 -0.0496648
    outer loop
      vertex 639.134 -464.358 -0.49939
      vertex 528.622 -587.094 -0.49939
      vertex 477.33 -346.801 3999.5
    endloop
  endfacet
  facet normal -0.742226 0.668306 -0.0496649
    outer loop
      vertex 477.33 -346.801 3999.5
      vertex 528.622 -587.094 -0.49939
      vertex 394.795 -438.465 3999.5
    endloop
  endfacet
  facet normal 0.0373174 -0.0336006 -0.998738
    outer loop
      vertex 639.134 -464.358 -0.49939
      vertex 647.214 -470.228 0
      vertex 535.305 -594.516 0
    endloop
  endfacet
  facet normal 0.0373161 -0.0335996 -0.998738
    outer loop
      vertex 639.134 -464.358 -0.49939
      vertex 535.305 -594.516 0
      vertex 528.622 -587.094 -0.49939
    endloop
  endfacet
  facet normal 0.587059 -0.808019 0.0496649
    outer loop
      vertex 535.305 -594.516 0
      vertex 401.478 -445.887 4000
      vertex 300 -519.615 4000
    endloop
  endfacet
  facet normal 0.587057 -0.808021 0.0496647
    outer loop
      vertex 400 -692.82 0
      vertex 535.305 -594.516 0
      vertex 300 -519.615 4000
    endloop
  endfacet
  facet normal -0.029551 0.0406734 0.998735
    outer loop
      vertex 401.478 -445.887 4000
      vertex 394.795 -438.465 3999.5
      vertex 295.006 -510.966 3999.5
    endloop
  endfacet
  facet normal -0.0295513 0.0406739 0.998735
    outer loop
      vertex 300 -519.615 4000
      vertex 401.478 -445.887 4000
      vertex 295.006 -510.966 3999.5
    endloop
  endfacet
  facet normal -0.587057 0.808021 -0.0496649
    outer loop
      vertex 528.622 -587.094 -0.49939
      vertex 395.006 -684.171 -0.49939
      vertex 394.795 -438.465 3999.5
    endloop
  endfacet
  facet normal -0.58706 0.808018 -0.0496647
    outer loop
      vertex 394.795 -438.465 3999.5
      vertex 395.006 -684.171 -0.49939
      vertex 295.006 -510.966 3999.5
    endloop
  endfacet
  facet normal 0.0295149 -0.0406241 -0.998738
    outer loop
      vertex 528.622 -587.094 -0.49939
      vertex 535.305 -594.516 0
      vertex 400 -692.82 0
    endloop
  endfacet
  facet normal 0.0295152 -0.0406245 -0.998738
    outer loop
      vertex 528.622 -587.094 -0.49939
      vertex 400 -692.82 0
      vertex 395.006 -684.171 -0.49939
    endloop
  endfacet
  facet normal 0.406236 -0.912417 0.0496647
    outer loop
      vertex 400 -692.82 0
      vertex 300 -519.615 4000
      vertex 185.41 -570.634 4000
    endloop
  endfacet
  facet normal 0.406236 -0.912417 0.0496647
    outer loop
      vertex 247.214 -760.845 0
      vertex 400 -692.82 0
      vertex 185.41 -570.634 4000
    endloop
  endfacet
  facet normal -0.0204491 0.0459296 0.998735
    outer loop
      vertex 300 -519.615 4000
      vertex 295.006 -510.966 3999.5
      vertex 182.324 -561.135 3999.5
    endloop
  endfacet
  facet normal -0.0204483 0.0459274 0.998735
    outer loop
      vertex 185.41 -570.634 4000
      vertex 300 -519.615 4000
      vertex 182.324 -561.135 3999.5
    endloop
  endfacet
  facet normal -0.406236 0.912417 -0.0496647
    outer loop
      vertex 295.006 -510.966 3999.5
      vertex 395.006 -684.171 -0.49939
      vertex 244.127 -751.347 -0.49939
    endloop
  endfacet
  facet normal -0.406233 0.912419 -0.0496649
    outer loop
      vertex 295.006 -510.966 3999.5
      vertex 244.127 -751.347 -0.49939
      vertex 182.324 -561.135 3999.5
    endloop
  endfacet
  facet normal 0.0204243 -0.0458736 -0.998738
    outer loop
      vertex 395.006 -684.171 -0.49939
      vertex 400 -692.82 0
      vertex 247.214 -760.845 0
    endloop
  endfacet
  facet normal 0.0204245 -0.0458738 -0.998738
    outer loop
      vertex 395.006 -684.171 -0.49939
      vertex 247.214 -760.845 0
      vertex 244.127 -751.347 -0.49939
    endloop
  endfacet
  facet normal 0.207654 -0.976941 0.0496647
    outer loop
      vertex 247.214 -760.845 0
      vertex 185.41 -570.634 4000
      vertex 62.7171 -596.713 4000
    endloop
  endfacet
  facet normal 0.207653 -0.976941 0.0496646
    outer loop
      vertex 83.6228 -795.617 0
      vertex 247.214 -760.845 0
      vertex 62.7171 -596.713 4000
    endloop
  endfacet
  facet normal -0.0104524 0.0491748 0.998735
    outer loop
      vertex 185.41 -570.634 4000
      vertex 182.324 -561.135 3999.5
      vertex 61.6731 -586.78 3999.5
    endloop
  endfacet
  facet normal -0.0104524 0.049175 0.998735
    outer loop
      vertex 62.7171 -596.713 4000
      vertex 185.41 -570.634 4000
      vertex 61.6731 -586.78 3999.5
    endloop
  endfacet
  facet normal -0.207654 0.976941 -0.0496649
    outer loop
      vertex 182.324 -561.135 3999.5
      vertex 244.127 -751.347 -0.49939
      vertex 82.5788 -785.685 -0.49939
    endloop
  endfacet
  facet normal -0.207654 0.976941 -0.0496649
    outer loop
      vertex 182.324 -561.135 3999.5
      vertex 82.5788 -785.685 -0.49939
      vertex 61.6731 -586.78 3999.5
    endloop
  endfacet
  facet normal 0.0104404 -0.0491188 -0.998738
    outer loop
      vertex 244.127 -751.347 -0.49939
      vertex 247.214 -760.845 0
      vertex 83.6228 -795.617 0
    endloop
  endfacet
  facet normal 0.0104407 -0.04912 -0.998738
    outer loop
      vertex 244.127 -751.347 -0.49939
      vertex 83.6228 -795.617 0
      vertex 82.5788 -785.685 -0.49939
    endloop
  endfacet
  facet normal 0 -0.998766 0.0496646
    outer loop
      vertex -83.6228 -795.617 0
      vertex 62.7171 -596.713 4000
      vertex -62.7171 -596.713 4000
    endloop
  endfacet
  facet normal 0 -0.998766 0.0496646
    outer loop
      vertex 62.7171 -596.713 4000
      vertex -83.6228 -795.617 0
      vertex 83.6228 -795.617 0
    endloop
  endfacet
  facet normal -0 0.0502736 0.998735
    outer loop
      vertex -61.6731 -586.78 3999.5
      vertex 62.7171 -596.713 4000
      vertex 61.6731 -586.78 3999.5
    endloop
  endfacet
  facet normal 0 0.0502736 0.998735
    outer loop
      vertex 62.7171 -596.713 4000
      vertex -61.6731 -586.78 3999.5
      vertex -62.7171 -596.713 4000
    endloop
  endfacet
  facet normal 0 0.998766 -0.0496649
    outer loop
      vertex 82.5788 -785.685 -0.49939
      vertex -61.6731 -586.78 3999.5
      vertex 61.6731 -586.78 3999.5
    endloop
  endfacet
  facet normal 0 0.998766 -0.0496649
    outer loop
      vertex -61.6731 -586.78 3999.5
      vertex 82.5788 -785.685 -0.49939
      vertex -82.5788 -785.685 -0.49939
    endloop
  endfacet
  facet normal 0 -0.0502175 -0.998738
    outer loop
      vertex 83.6228 -795.617 0
      vertex -82.5788 -785.685 -0.49939
      vertex 82.5788 -785.685 -0.49939
    endloop
  endfacet
  facet normal 0 -0.0502175 -0.998738
    outer loop
      vertex -82.5788 -785.685 -0.49939
      vertex 83.6228 -795.617 0
      vertex -83.6228 -795.617 0
    endloop
  endfacet
  facet normal -0.207654 -0.976941 0.0496646
    outer loop
      vertex -83.6228 -795.617 0
      vertex -62.7171 -596.713 4000
      vertex -185.41 -570.634 4000
    endloop
  endfacet
  facet normal -0.207653 -0.976941 0.0496647
    outer loop
      vertex -83.6228 -795.617 0
      vertex -185.41 -570.634 4000
      vertex -247.214 -760.845 0
    endloop
  endfacet
  facet normal 0.0104524 0.049175 0.998735
    outer loop
      vertex -62.7171 -596.713 4000
      vertex -61.6731 -586.78 3999.5
      vertex -182.324 -561.135 3999.5
    endloop
  endfacet
  facet normal 0.0104524 0.0491748 0.998735
    outer loop
      vertex -62.7171 -596.713 4000
      vertex -182.324 -561.135 3999.5
      vertex -185.41 -570.634 4000
    endloop
  endfacet
  facet normal 0.207654 0.976941 -0.0496649
    outer loop
      vertex -61.6731 -586.78 3999.5
      vertex -82.5788 -785.685 -0.49939
      vertex -244.127 -751.347 -0.49939
    endloop
  endfacet
  facet normal 0.207654 0.976941 -0.0496649
    outer loop
      vertex -182.324 -561.135 3999.5
      vertex -61.6731 -586.78 3999.5
      vertex -244.127 -751.347 -0.49939
    endloop
  endfacet
  facet normal -0.0104407 -0.04912 -0.998738
    outer loop
      vertex -82.5788 -785.685 -0.49939
      vertex -83.6228 -795.617 0
      vertex -247.214 -760.845 0
    endloop
  endfacet
  facet normal -0.0104405 -0.0491188 -0.998738
    outer loop
      vertex -244.127 -751.347 -0.49939
      vertex -82.5788 -785.685 -0.49939
      vertex -247.214 -760.845 0
    endloop
  endfacet
  facet normal -0.406236 -0.912417 0.0496647
    outer loop
      vertex -247.214 -760.845 0
      vertex -185.41 -570.634 4000
      vertex -300 -519.615 4000
    endloop
  endfacet
  facet normal -0.406236 -0.912417 0.0496647
    outer loop
      vertex -247.214 -760.845 0
      vertex -300 -519.615 4000
      vertex -400 -692.82 0
    endloop
  endfacet
  facet normal 0.0204481 0.0459275 0.998735
    outer loop
      vertex -185.41 -570.634 4000
      vertex -182.324 -561.135 3999.5
      vertex -295.006 -510.966 3999.5
    endloop
  endfacet
  facet normal 0.0204492 0.0459295 0.998735
    outer loop
      vertex -185.41 -570.634 4000
      vertex -295.006 -510.966 3999.5
      vertex -300 -519.615 4000
    endloop
  endfacet
  facet normal 0.406236 0.912417 -0.0496648
    outer loop
      vertex -182.324 -561.135 3999.5
      vertex -244.127 -751.347 -0.49939
      vertex -395.006 -684.171 -0.49939
    endloop
  endfacet
  facet normal 0.406233 0.912419 -0.0496647
    outer loop
      vertex -295.006 -510.966 3999.5
      vertex -182.324 -561.135 3999.5
      vertex -395.006 -684.171 -0.49939
    endloop
  endfacet
  facet normal -0.0204244 -0.0458738 -0.998738
    outer loop
      vertex -244.127 -751.347 -0.49939
      vertex -247.214 -760.845 0
      vertex -400 -692.82 0
    endloop
  endfacet
  facet normal -0.0204243 -0.0458736 -0.998738
    outer loop
      vertex -395.006 -684.171 -0.49939
      vertex -244.127 -751.347 -0.49939
      vertex -400 -692.82 0
    endloop
  endfacet
  facet normal -0.587059 -0.808019 0.0496647
    outer loop
      vertex -400 -692.82 0
      vertex -300 -519.615 4000
      vertex -401.478 -445.887 4000
    endloop
  endfacet
  facet normal -0.587057 -0.808021 0.0496648
    outer loop
      vertex -400 -692.82 0
      vertex -401.478 -445.887 4000
      vertex -535.305 -594.516 0
    endloop
  endfacet
  facet normal 0.0295513 0.0406739 0.998735
    outer loop
      vertex -300 -519.615 4000
      vertex -295.006 -510.966 3999.5
      vertex -394.795 -438.465 3999.5
    endloop
  endfacet
  facet normal 0.029551 0.0406735 0.998735
    outer loop
      vertex -300 -519.615 4000
      vertex -394.795 -438.465 3999.5
      vertex -401.478 -445.887 4000
    endloop
  endfacet
  facet normal 0.587057 0.808021 -0.0496647
    outer loop
      vertex -295.006 -510.966 3999.5
      vertex -395.006 -684.171 -0.49939
      vertex -528.622 -587.094 -0.49939
    endloop
  endfacet
  facet normal 0.58706 0.808018 -0.0496649
    outer loop
      vertex -394.795 -438.465 3999.5
      vertex -295.006 -510.966 3999.5
      vertex -528.622 -587.094 -0.49939
    endloop
  endfacet
  facet normal -0.0295152 -0.0406245 -0.998738
    outer loop
      vertex -395.006 -684.171 -0.49939
      vertex -400 -692.82 0
      vertex -535.305 -594.516 0
    endloop
  endfacet
  facet normal -0.0295149 -0.0406241 -0.998738
    outer loop
      vertex -528.622 -587.094 -0.49939
      vertex -395.006 -684.171 -0.49939
      vertex -535.305 -594.516 0
    endloop
  endfacet
  facet normal -0.742228 -0.668305 0.0496648
    outer loop
      vertex -647.214 -470.228 0
      vertex -401.478 -445.887 4000
      vertex -485.41 -352.671 4000
    endloop
  endfacet
  facet normal -0.742229 -0.668303 0.0496649
    outer loop
      vertex -401.478 -445.887 4000
      vertex -647.214 -470.228 0
      vertex -535.305 -594.516 0
    endloop
  endfacet
  facet normal 0.0373615 0.0336406 0.998735
    outer loop
      vertex -401.478 -445.887 4000
      vertex -394.795 -438.465 3999.5
      vertex -477.33 -346.801 3999.5
    endloop
  endfacet
  facet normal 0.0373628 0.0336416 0.998735
    outer loop
      vertex -401.478 -445.887 4000
      vertex -477.33 -346.801 3999.5
      vertex -485.41 -352.671 4000
    endloop
  endfacet
  facet normal 0.742228 0.668305 -0.0496649
    outer loop
      vertex -394.795 -438.465 3999.5
      vertex -528.622 -587.094 -0.49939
      vertex -639.134 -464.358 -0.49939
    endloop
  endfacet
  facet normal 0.742226 0.668306 -0.0496648
    outer loop
      vertex -477.33 -346.801 3999.5
      vertex -394.795 -438.465 3999.5
      vertex -639.134 -464.358 -0.49939
    endloop
  endfacet
  facet normal -0.0373162 -0.0335995 -0.998738
    outer loop
      vertex -528.622 -587.094 -0.49939
      vertex -535.305 -594.516 0
      vertex -647.214 -470.228 0
    endloop
  endfacet
  facet normal -0.0373173 -0.0336007 -0.998738
    outer loop
      vertex -639.134 -464.358 -0.49939
      vertex -528.622 -587.094 -0.49939
      vertex -647.214 -470.228 0
    endloop
  endfacet
  facet normal -0.864957 -0.499383 0.0496649
    outer loop
      vertex -485.41 -352.671 4000
      vertex -548.127 -244.042 4000
      vertex -647.214 -470.228 0
    endloop
  endfacet
  facet normal -0.864959 -0.499379 0.0496647
    outer loop
      vertex -647.214 -470.228 0
      vertex -548.127 -244.042 4000
      vertex -730.836 -325.389 0
    endloop
  endfacet
  facet normal 0.0435405 0.0251381 0.998735
    outer loop
      vertex -485.41 -352.671 4000
      vertex -477.33 -346.801 3999.5
      vertex -539.003 -239.98 3999.5
    endloop
  endfacet
  facet normal 0.0435399 0.0251378 0.998735
    outer loop
      vertex -485.41 -352.671 4000
      vertex -539.003 -239.98 3999.5
      vertex -548.127 -244.042 4000
    endloop
  endfacet
  facet normal 0.864959 0.499378 -0.0496648
    outer loop
      vertex -477.33 -346.801 3999.5
      vertex -639.134 -464.358 -0.49939
      vertex -721.712 -321.327 -0.49939
    endloop
  endfacet
  facet normal 0.864957 0.499382 -0.0496647
    outer loop
      vertex -539.003 -239.98 3999.5
      vertex -477.33 -346.801 3999.5
      vertex -721.712 -321.327 -0.49939
    endloop
  endfacet
  facet normal -0.0434876 -0.0251073 -0.998738
    outer loop
      vertex -639.134 -464.358 -0.49939
      vertex -647.214 -470.228 0
      vertex -730.836 -325.389 0
    endloop
  endfacet
  facet normal -0.043487 -0.0251069 -0.998738
    outer loop
      vertex -721.712 -321.327 -0.49939
      vertex -639.134 -464.358 -0.49939
      vertex -730.836 -325.389 0
    endloop
  endfacet
  facet normal -0.949881 -0.308641 0.0496647
    outer loop
      vertex -548.127 -244.042 4000
      vertex -586.889 -124.747 4000
      vertex -730.836 -325.389 0
    endloop
  endfacet
  facet normal -0.949882 -0.308637 0.0496646
    outer loop
      vertex -730.836 -325.389 0
      vertex -586.889 -124.747 4000
      vertex -782.518 -166.329 0
    endloop
  endfacet
  facet normal 0.0478147 0.0155358 0.998735
    outer loop
      vertex -548.127 -244.042 4000
      vertex -539.003 -239.98 3999.5
      vertex -577.119 -122.67 3999.5
    endloop
  endfacet
  facet normal 0.0478099 0.0155346 0.998736
    outer loop
      vertex -548.127 -244.042 4000
      vertex -577.119 -122.67 3999.5
      vertex -586.889 -124.747 4000
    endloop
  endfacet
  facet normal 0.949882 0.308639 -0.0496647
    outer loop
      vertex -539.003 -239.98 3999.5
      vertex -721.712 -321.327 -0.49939
      vertex -772.749 -164.253 -0.49939
    endloop
  endfacet
  facet normal 0.949884 0.308633 -0.0496649
    outer loop
      vertex -577.119 -122.67 3999.5
      vertex -539.003 -239.98 3999.5
      vertex -772.749 -164.253 -0.49939
    endloop
  endfacet
  facet normal -0.0477564 -0.0155171 -0.998738
    outer loop
      vertex -721.712 -321.327 -0.49939
      vertex -730.836 -325.389 0
      vertex -782.518 -166.329 0
    endloop
  endfacet
  facet normal -0.0477577 -0.0155176 -0.998738
    outer loop
      vertex -772.749 -164.253 -0.49939
      vertex -721.712 -321.327 -0.49939
      vertex -782.518 -166.329 0
    endloop
  endfacet
  facet normal -0.993295 -0.104396 0.0496646
    outer loop
      vertex -586.889 -124.747 4000
      vertex -600 0 4000
      vertex -782.518 -166.329 0
    endloop
  endfacet
  facet normal -0.993295 -0.1044 0.0496647
    outer loop
      vertex -782.518 -166.329 0
      vertex -600 0 4000
      vertex -800 0 0
    endloop
  endfacet
  facet normal 0.0499952 0.00525506 0.998736
    outer loop
      vertex -586.889 -124.747 4000
      vertex -577.119 -122.67 3999.5
      vertex -590.013 0 3999.5
    endloop
  endfacet
  facet normal 0.0500018 0.00525522 0.998735
    outer loop
      vertex -586.889 -124.747 4000
      vertex -590.013 0 3999.5
      vertex -600 0 4000
    endloop
  endfacet
  facet normal 0.993294 0.104401 -0.0496649
    outer loop
      vertex -577.119 -122.67 3999.5
      vertex -772.749 -164.253 -0.49939
      vertex -790.013 0 -0.49939
    endloop
  endfacet
  facet normal 0.993294 0.104406 -0.0496647
    outer loop
      vertex -590.013 0 3999.5
      vertex -577.119 -122.67 3999.5
      vertex -790.013 0 -0.49939
    endloop
  endfacet
  facet normal -0.0499399 -0.00524893 -0.998738
    outer loop
      vertex -772.749 -164.253 -0.49939
      vertex -782.518 -166.329 0
      vertex -800 0 0
    endloop
  endfacet
  facet normal -0.0499409 -0.0052491 -0.998738
    outer loop
      vertex -790.013 0 -0.49939
      vertex -772.749 -164.253 -0.49939
      vertex -800 0 0
    endloop
  endfacet
  facet normal -0.993258 0.104394 0.0504078
    outer loop
      vertex -389.987 0 4000
      vertex -381.465 81.083 4000
      vertex -592.987 0 0
    endloop
  endfacet
  facet normal -0.993258 0.104394 0.0504078
    outer loop
      vertex -381.465 81.083 4000
      vertex -580.029 123.289 0
      vertex -592.987 0 0
    endloop
  endfacet
  facet normal 0.0509992 -0.00536028 0.998684
    outer loop
      vertex -380 0 3999.49
      vertex -371.696 79.0065 3999.49
      vertex -389.987 0 4000
    endloop
  endfacet
  facet normal 0.050998 -0.00536 0.998684
    outer loop
      vertex -371.696 79.0065 3999.49
      vertex -381.465 81.083 4000
      vertex -389.987 0 4000
    endloop
  endfacet
  facet normal 0.993258 -0.104396 -0.0504079
    outer loop
      vertex -570.26 121.213 -0.50679
      vertex -380 0 3999.49
      vertex -583 0 -0.50679
    endloop
  endfacet
  facet normal 0.993257 -0.104397 -0.0504079
    outer loop
      vertex -371.696 79.0065 3999.49
      vertex -380 0 3999.49
      vertex -570.26 121.213 -0.50679
    endloop
  endfacet
  facet normal -0.050679 0.0053265 -0.998701
    outer loop
      vertex -580.029 123.289 0
      vertex -583 0 -0.50679
      vertex -592.987 0 0
    endloop
  endfacet
  facet normal -0.050678 0.00532648 -0.998701
    outer loop
      vertex -580.029 123.289 0
      vertex -570.26 121.213 -0.50679
      vertex -583 0 -0.50679
    endloop
  endfacet
  facet normal -0.949847 0.308625 0.0504078
    outer loop
      vertex -381.465 81.083 4000
      vertex -356.271 158.622 4000
      vertex -580.029 123.289 0
    endloop
  endfacet
  facet normal -0.949848 0.308622 0.0504079
    outer loop
      vertex -356.271 158.622 4000
      vertex -541.721 241.19 0
      vertex -580.029 123.289 0
    endloop
  endfacet
  facet normal 0.0487691 -0.0158455 0.998684
    outer loop
      vertex -371.696 79.0065 3999.49
      vertex -347.148 154.56 3999.49
      vertex -381.465 81.083 4000
    endloop
  endfacet
  facet normal 0.0487731 -0.0158474 0.998684
    outer loop
      vertex -347.148 154.56 3999.49
      vertex -356.271 158.622 4000
      vertex -381.465 81.083 4000
    endloop
  endfacet
  facet normal 0.949848 -0.308624 -0.0504079
    outer loop
      vertex -532.597 237.128 -0.50679
      vertex -371.696 79.0065 3999.49
      vertex -570.26 121.213 -0.50679
    endloop
  endfacet
  facet normal 0.94985 -0.308615 -0.0504077
    outer loop
      vertex -347.148 154.56 3999.49
      vertex -371.696 79.0065 3999.49
      vertex -532.597 237.128 -0.50679
    endloop
  endfacet
  facet normal -0.0484637 0.0157467 -0.998701
    outer loop
      vertex -541.721 241.19 0
      vertex -570.26 121.213 -0.50679
      vertex -580.029 123.289 0
    endloop
  endfacet
  facet normal -0.0484623 0.0157463 -0.998701
    outer loop
      vertex -541.721 241.19 0
      vertex -532.597 237.128 -0.50679
      vertex -570.26 121.213 -0.50679
    endloop
  endfacet
  facet normal -0.86493 0.499355 0.050408
    outer loop
      vertex -356.271 158.622 4000
      vertex -315.507 229.229 4000
      vertex -541.721 241.19 0
    endloop
  endfacet
  facet normal -0.864924 0.499366 0.0504077
    outer loop
      vertex -315.507 229.229 4000
      vertex -479.737 348.549 0
      vertex -541.721 241.19 0
    endloop
  endfacet
  facet normal 0.0444123 -0.0256414 0.998684
    outer loop
      vertex -347.148 154.56 3999.49
      vertex -307.427 223.359 3999.49
      vertex -356.271 158.622 4000
    endloop
  endfacet
  facet normal 0.0444093 -0.0256391 0.998684
    outer loop
      vertex -307.427 223.359 3999.49
      vertex -315.507 229.229 4000
      vertex -356.271 158.622 4000
    endloop
  endfacet
  facet normal 0.864924 -0.499365 -0.0504078
    outer loop
      vertex -471.657 342.679 -0.50679
      vertex -347.148 154.56 3999.49
      vertex -532.597 237.128 -0.50679
    endloop
  endfacet
  facet normal 0.864925 -0.499363 -0.0504077
    outer loop
      vertex -307.427 223.359 3999.49
      vertex -347.148 154.56 3999.49
      vertex -471.657 342.679 -0.50679
    endloop
  endfacet
  facet normal -0.0441296 0.0254783 -0.998701
    outer loop
      vertex -479.737 348.549 0
      vertex -532.597 237.128 -0.50679
      vertex -541.721 241.19 0
    endloop
  endfacet
  facet normal -0.0441302 0.0254786 -0.998701
    outer loop
      vertex -479.737 348.549 0
      vertex -471.657 342.679 -0.50679
      vertex -532.597 237.128 -0.50679
    endloop
  endfacet
  facet normal -0.742198 0.668282 0.0504077
    outer loop
      vertex -315.507 229.229 4000
      vertex -260.953 289.817 4000
      vertex -479.737 348.549 0
    endloop
  endfacet
  facet normal -0.742202 0.668278 0.0504078
    outer loop
      vertex -260.953 289.817 4000
      vertex -396.786 440.676 0
      vertex -479.737 348.549 0
    endloop
  endfacet
  facet normal 0.0381079 -0.034313 0.998684
    outer loop
      vertex -307.427 223.359 3999.49
      vertex -254.27 282.395 3999.49
      vertex -315.507 229.229 4000
    endloop
  endfacet
  facet normal 0.0381068 -0.0343117 0.998684
    outer loop
      vertex -254.27 282.395 3999.49
      vertex -260.953 289.817 4000
      vertex -315.507 229.229 4000
    endloop
  endfacet
  facet normal 0.7422 -0.66828 -0.0504077
    outer loop
      vertex -390.103 433.254 -0.50679
      vertex -307.427 223.359 3999.49
      vertex -471.657 342.679 -0.50679
    endloop
  endfacet
  facet normal 0.742195 -0.668285 -0.0504079
    outer loop
      vertex -254.27 282.395 3999.49
      vertex -307.427 223.359 3999.49
      vertex -390.103 433.254 -0.50679
    endloop
  endfacet
  facet normal -0.037869 0.0340972 -0.998701
    outer loop
      vertex -396.786 440.676 0
      vertex -471.657 342.679 -0.50679
      vertex -479.737 348.549 0
    endloop
  endfacet
  facet normal -0.0378677 0.0340962 -0.998701
    outer loop
      vertex -396.786 440.676 0
      vertex -390.103 433.254 -0.50679
      vertex -471.657 342.679 -0.50679
    endloop
  endfacet
  facet normal -0.587038 0.807989 0.0504079
    outer loop
      vertex -260.953 289.817 4000
      vertex -194.994 337.739 4000
      vertex -396.786 440.676 0
    endloop
  endfacet
  facet normal -0.587036 0.80799 0.0504078
    outer loop
      vertex -194.994 337.739 4000
      vertex -296.494 513.542 0
      vertex -396.786 440.676 0
    endloop
  endfacet
  facet normal 0.0301405 -0.0414848 0.998684
    outer loop
      vertex -254.27 282.395 3999.49
      vertex -190 329.09 3999.49
      vertex -260.953 289.817 4000
    endloop
  endfacet
  facet normal 0.0301408 -0.0414853 0.998684
    outer loop
      vertex -190 329.09 3999.49
      vertex -194.994 337.739 4000
      vertex -260.953 289.817 4000
    endloop
  endfacet
  facet normal 0.587037 -0.80799 -0.0504079
    outer loop
      vertex -291.5 504.893 -0.50679
      vertex -254.27 282.395 3999.49
      vertex -390.103 433.254 -0.50679
    endloop
  endfacet
  facet normal 0.587039 -0.807988 -0.0504078
    outer loop
      vertex -190 329.09 3999.49
      vertex -254.27 282.395 3999.49
      vertex -291.5 504.893 -0.50679
    endloop
  endfacet
  facet normal -0.0299512 0.0412245 -0.998701
    outer loop
      vertex -296.494 513.542 0
      vertex -390.103 433.254 -0.50679
      vertex -396.786 440.676 0
    endloop
  endfacet
  facet normal -0.0299515 0.0412249 -0.998701
    outer loop
      vertex -296.494 513.542 0
      vertex -291.5 504.893 -0.50679
      vertex -390.103 433.254 -0.50679
    endloop
  endfacet
  facet normal -0.406219 0.912384 0.0504078
    outer loop
      vertex -194.994 337.739 4000
      vertex -120.513 370.9 4000
      vertex -296.494 513.542 0
    endloop
  endfacet
  facet normal -0.406222 0.912383 0.0504079
    outer loop
      vertex -120.513 370.9 4000
      vertex -183.243 563.965 0
      vertex -296.494 513.542 0
    endloop
  endfacet
  facet normal 0.0208573 -0.0468456 0.998684
    outer loop
      vertex -190 329.09 3999.49
      vertex -117.427 361.402 3999.49
      vertex -194.994 337.739 4000
    endloop
  endfacet
  facet normal 0.020858 -0.0468479 0.998684
    outer loop
      vertex -117.427 361.402 3999.49
      vertex -120.513 370.9 4000
      vertex -194.994 337.739 4000
    endloop
  endfacet
  facet normal 0.406219 -0.912384 -0.0504078
    outer loop
      vertex -180.157 554.466 -0.50679
      vertex -190 329.09 3999.49
      vertex -291.5 504.893 -0.50679
    endloop
  endfacet
  facet normal 0.406224 -0.912382 -0.0504077
    outer loop
      vertex -180.157 554.466 -0.50679
      vertex -117.427 361.402 3999.49
      vertex -190 329.09 3999.49
    endloop
  endfacet
  facet normal -0.0207263 0.0465516 -0.998701
    outer loop
      vertex -183.243 563.965 0
      vertex -291.5 504.893 -0.50679
      vertex -296.494 513.542 0
    endloop
  endfacet
  facet normal -0.0207251 0.0465495 -0.998701
    outer loop
      vertex -183.243 563.965 0
      vertex -180.157 554.466 -0.50679
      vertex -291.5 504.893 -0.50679
    endloop
  endfacet
  facet normal -0.207647 0.976904 0.0504079
    outer loop
      vertex -120.513 370.9 4000
      vertex -40.7648 387.851 4000
      vertex -183.243 563.965 0
    endloop
  endfacet
  facet normal -0.207644 0.976905 0.0504079
    outer loop
      vertex -40.7648 387.851 4000
      vertex -61.9841 589.739 0
      vertex -183.243 563.965 0
    endloop
  endfacet
  facet normal 0.010662 -0.0501607 0.998684
    outer loop
      vertex -117.427 361.402 3999.49
      vertex -39.7209 377.919 3999.49
      vertex -120.513 370.9 4000
    endloop
  endfacet
  facet normal 0.010662 -0.050161 0.998684
    outer loop
      vertex -39.7209 377.919 3999.49
      vertex -40.7648 387.851 4000
      vertex -120.513 370.9 4000
    endloop
  endfacet
  facet normal 0.207653 -0.976903 -0.0504078
    outer loop
      vertex -60.9401 579.807 -0.50679
      vertex -117.427 361.402 3999.49
      vertex -180.157 554.466 -0.50679
    endloop
  endfacet
  facet normal 0.207648 -0.976904 -0.0504079
    outer loop
      vertex -60.9401 579.807 -0.50679
      vertex -39.7209 377.919 3999.49
      vertex -117.427 361.402 3999.49
    endloop
  endfacet
  facet normal -0.0105939 0.0498409 -0.998701
    outer loop
      vertex -61.9841 589.739 0
      vertex -180.157 554.466 -0.50679
      vertex -183.243 563.965 0
    endloop
  endfacet
  facet normal -0.0105954 0.049846 -0.998701
    outer loop
      vertex -61.9841 589.739 0
      vertex -60.9401 579.807 -0.50679
      vertex -180.157 554.466 -0.50679
    endloop
  endfacet
  facet normal 0 0.998729 0.0504078
    outer loop
      vertex 61.9841 589.739 0
      vertex -40.7648 387.851 4000
      vertex 40.7648 387.851 4000
    endloop
  endfacet
  facet normal 0 0.998729 0.0504078
    outer loop
      vertex -40.7648 387.851 4000
      vertex 61.9841 589.739 0
      vertex -61.9841 589.739 0
    endloop
  endfacet
  facet normal 0 -0.0512816 0.998684
    outer loop
      vertex 40.7648 387.851 4000
      vertex -39.7209 377.919 3999.49
      vertex 39.7209 377.919 3999.49
    endloop
  endfacet
  facet normal 0 -0.0512816 0.998684
    outer loop
      vertex -39.7209 377.919 3999.49
      vertex 40.7648 387.851 4000
      vertex -40.7648 387.851 4000
    endloop
  endfacet
  facet normal 0 -0.998729 -0.0504079
    outer loop
      vertex -60.9401 579.807 -0.50679
      vertex 39.7209 377.919 3999.49
      vertex -39.7209 377.919 3999.49
    endloop
  endfacet
  facet normal 0 -0.998729 -0.0504079
    outer loop
      vertex 39.7209 377.919 3999.49
      vertex -60.9401 579.807 -0.50679
      vertex 60.9401 579.807 -0.50679
    endloop
  endfacet
  facet normal 0 0.0509597 -0.998701
    outer loop
      vertex -60.9401 579.807 -0.50679
      vertex 61.9841 589.739 0
      vertex 60.9401 579.807 -0.50679
    endloop
  endfacet
  facet normal 0 0.0509597 -0.998701
    outer loop
      vertex 61.9841 589.739 0
      vertex -60.9401 579.807 -0.50679
      vertex -61.9841 589.739 0
    endloop
  endfacet
  facet normal 0.207647 0.976904 0.0504078
    outer loop
      vertex 120.513 370.9 4000
      vertex 61.9841 589.739 0
      vertex 40.7648 387.851 4000
    endloop
  endfacet
  facet normal 0.207644 0.976905 0.0504079
    outer loop
      vertex 120.513 370.9 4000
      vertex 183.243 563.965 0
      vertex 61.9841 589.739 0
    endloop
  endfacet
  facet normal -0.0106621 -0.050161 0.998684
    outer loop
      vertex 117.427 361.402 3999.49
      vertex 40.7648 387.851 4000
      vertex 39.7209 377.919 3999.49
    endloop
  endfacet
  facet normal -0.010662 -0.0501607 0.998684
    outer loop
      vertex 117.427 361.402 3999.49
      vertex 120.513 370.9 4000
      vertex 40.7648 387.851 4000
    endloop
  endfacet
  facet normal -0.207653 -0.976903 -0.0504078
    outer loop
      vertex 60.9401 579.807 -0.50679
      vertex 180.157 554.466 -0.50679
      vertex 39.7209 377.919 3999.49
    endloop
  endfacet
  facet normal -0.207648 -0.976904 -0.0504077
    outer loop
      vertex 180.157 554.466 -0.50679
      vertex 117.427 361.402 3999.49
      vertex 39.7209 377.919 3999.49
    endloop
  endfacet
  facet normal 0.0105949 0.049846 -0.998701
    outer loop
      vertex 61.9841 589.739 0
      vertex 183.243 563.965 0
      vertex 60.9401 579.807 -0.50679
    endloop
  endfacet
  facet normal 0.0105943 0.0498408 -0.998701
    outer loop
      vertex 183.243 563.965 0
      vertex 180.157 554.466 -0.50679
      vertex 60.9401 579.807 -0.50679
    endloop
  endfacet
  facet normal 0.406219 0.912384 0.0504079
    outer loop
      vertex 194.994 337.739 4000
      vertex 183.243 563.965 0
      vertex 120.513 370.9 4000
    endloop
  endfacet
  facet normal 0.406222 0.912383 0.0504078
    outer loop
      vertex 194.994 337.739 4000
      vertex 296.494 513.542 0
      vertex 183.243 563.965 0
    endloop
  endfacet
  facet normal -0.0208583 -0.0468478 0.998684
    outer loop
      vertex 190 329.09 3999.49
      vertex 120.513 370.9 4000
      vertex 117.427 361.402 3999.49
    endloop
  endfacet
  facet normal -0.020857 -0.0468458 0.998684
    outer loop
      vertex 190 329.09 3999.49
      vertex 194.994 337.739 4000
      vertex 120.513 370.9 4000
    endloop
  endfacet
  facet normal -0.406219 -0.912384 -0.0504077
    outer loop
      vertex 180.157 554.466 -0.50679
      vertex 291.5 504.893 -0.50679
      vertex 117.427 361.402 3999.49
    endloop
  endfacet
  facet normal -0.406224 -0.912382 -0.0504079
    outer loop
      vertex 291.5 504.893 -0.50679
      vertex 190 329.09 3999.49
      vertex 117.427 361.402 3999.49
    endloop
  endfacet
  facet normal 0.0207253 0.0465495 -0.998701
    outer loop
      vertex 183.243 563.965 0
      vertex 296.494 513.542 0
      vertex 180.157 554.466 -0.50679
    endloop
  endfacet
  facet normal 0.0207261 0.0465517 -0.998701
    outer loop
      vertex 296.494 513.542 0
      vertex 291.5 504.893 -0.50679
      vertex 180.157 554.466 -0.50679
    endloop
  endfacet
  facet normal 0.587038 0.807989 0.0504078
    outer loop
      vertex 260.953 289.817 4000
      vertex 296.494 513.542 0
      vertex 194.994 337.739 4000
    endloop
  endfacet
  facet normal 0.587036 0.80799 0.0504079
    outer loop
      vertex 396.786 440.676 0
      vertex 296.494 513.542 0
      vertex 260.953 289.817 4000
    endloop
  endfacet
  facet normal -0.0301408 -0.0414852 0.998684
    outer loop
      vertex 254.27 282.395 3999.49
      vertex 194.994 337.739 4000
      vertex 190 329.09 3999.49
    endloop
  endfacet
  facet normal -0.0301405 -0.0414848 0.998684
    outer loop
      vertex 254.27 282.395 3999.49
      vertex 260.953 289.817 4000
      vertex 194.994 337.739 4000
    endloop
  endfacet
  facet normal -0.587037 -0.80799 -0.0504078
    outer loop
      vertex 291.5 504.893 -0.50679
      vertex 390.103 433.254 -0.50679
      vertex 190 329.09 3999.49
    endloop
  endfacet
  facet normal -0.587039 -0.807988 -0.0504079
    outer loop
      vertex 390.103 433.254 -0.50679
      vertex 254.27 282.395 3999.49
      vertex 190 329.09 3999.49
    endloop
  endfacet
  facet normal 0.0299515 0.0412249 -0.998701
    outer loop
      vertex 296.494 513.542 0
      vertex 396.786 440.676 0
      vertex 291.5 504.893 -0.50679
    endloop
  endfacet
  facet normal 0.0299512 0.0412244 -0.998701
    outer loop
      vertex 396.786 440.676 0
      vertex 390.103 433.254 -0.50679
      vertex 291.5 504.893 -0.50679
    endloop
  endfacet
  facet normal 0.742198 0.668282 0.0504078
    outer loop
      vertex 315.507 229.229 4000
      vertex 396.786 440.676 0
      vertex 260.953 289.817 4000
    endloop
  endfacet
  facet normal 0.742202 0.668278 0.0504077
    outer loop
      vertex 479.737 348.549 0
      vertex 396.786 440.676 0
      vertex 315.507 229.229 4000
    endloop
  endfacet
  facet normal -0.0381066 -0.0343118 0.998684
    outer loop
      vertex 307.427 223.359 3999.49
      vertex 260.953 289.817 4000
      vertex 254.27 282.395 3999.49
    endloop
  endfacet
  facet normal -0.038108 -0.0343128 0.998684
    outer loop
      vertex 307.427 223.359 3999.49
      vertex 315.507 229.229 4000
      vertex 260.953 289.817 4000
    endloop
  endfacet
  facet normal -0.7422 -0.66828 -0.0504079
    outer loop
      vertex 390.103 433.254 -0.50679
      vertex 471.657 342.679 -0.50679
      vertex 254.27 282.395 3999.49
    endloop
  endfacet
  facet normal -0.742195 -0.668285 -0.0504077
    outer loop
      vertex 471.657 342.679 -0.50679
      vertex 307.427 223.359 3999.49
      vertex 254.27 282.395 3999.49
    endloop
  endfacet
  facet normal 0.0378678 0.0340961 -0.998701
    outer loop
      vertex 396.786 440.676 0
      vertex 479.737 348.549 0
      vertex 390.103 433.254 -0.50679
    endloop
  endfacet
  facet normal 0.0378689 0.0340973 -0.998701
    outer loop
      vertex 479.737 348.549 0
      vertex 471.657 342.679 -0.50679
      vertex 390.103 433.254 -0.50679
    endloop
  endfacet
  facet normal 0.86493 0.499355 0.0504076
    outer loop
      vertex 356.271 158.622 4000
      vertex 479.737 348.549 0
      vertex 315.507 229.229 4000
    endloop
  endfacet
  facet normal 0.864924 0.499366 0.0504079
    outer loop
      vertex 541.721 241.19 0
      vertex 479.737 348.549 0
      vertex 356.271 158.622 4000
    endloop
  endfacet
  facet normal -0.0444091 -0.0256395 0.998684
    outer loop
      vertex 347.148 154.56 3999.49
      vertex 315.507 229.229 4000
      vertex 307.427 223.359 3999.49
    endloop
  endfacet
  facet normal -0.0444125 -0.025641 0.998684
    outer loop
      vertex 347.148 154.56 3999.49
      vertex 356.271 158.622 4000
      vertex 315.507 229.229 4000
    endloop
  endfacet
  facet normal -0.864924 -0.499365 -0.0504077
    outer loop
      vertex 471.657 342.679 -0.50679
      vertex 532.597 237.128 -0.50679
      vertex 307.427 223.359 3999.49
    endloop
  endfacet
  facet normal -0.864925 -0.499363 -0.0504078
    outer loop
      vertex 532.597 237.128 -0.50679
      vertex 347.148 154.56 3999.49
      vertex 307.427 223.359 3999.49
    endloop
  endfacet
  facet normal 0.0441302 0.0254787 -0.998701
    outer loop
      vertex 479.737 348.549 0
      vertex 541.721 241.19 0
      vertex 471.657 342.679 -0.50679
    endloop
  endfacet
  facet normal 0.0441296 0.0254783 -0.998701
    outer loop
      vertex 541.721 241.19 0
      vertex 532.597 237.128 -0.50679
      vertex 471.657 342.679 -0.50679
    endloop
  endfacet
  facet normal 0.949847 0.308625 0.0504079
    outer loop
      vertex 381.465 81.083 4000
      vertex 541.721 241.19 0
      vertex 356.271 158.622 4000
    endloop
  endfacet
  facet normal 0.949848 0.308622 0.0504078
    outer loop
      vertex 580.029 123.289 0
      vertex 541.721 241.19 0
      vertex 381.465 81.083 4000
    endloop
  endfacet
  facet normal -0.0487733 -0.0158469 0.998684
    outer loop
      vertex 371.696 79.0065 3999.49
      vertex 356.271 158.622 4000
      vertex 347.148 154.56 3999.49
    endloop
  endfacet
  facet normal -0.048769 -0.0158461 0.998684
    outer loop
      vertex 371.696 79.0065 3999.49
      vertex 381.465 81.083 4000
      vertex 356.271 158.622 4000
    endloop
  endfacet
  facet normal -0.949848 -0.308624 -0.0504077
    outer loop
      vertex 532.597 237.128 -0.50679
      vertex 570.26 121.213 -0.50679
      vertex 347.148 154.56 3999.49
    endloop
  endfacet
  facet normal -0.94985 -0.308615 -0.050408
    outer loop
      vertex 570.26 121.213 -0.50679
      vertex 371.696 79.0065 3999.49
      vertex 347.148 154.56 3999.49
    endloop
  endfacet
  facet normal 0.0484623 0.0157462 -0.998701
    outer loop
      vertex 541.721 241.19 0
      vertex 580.029 123.289 0
      vertex 532.597 237.128 -0.50679
    endloop
  endfacet
  facet normal 0.0484636 0.0157468 -0.998701
    outer loop
      vertex 580.029 123.289 0
      vertex 570.26 121.213 -0.50679
      vertex 532.597 237.128 -0.50679
    endloop
  endfacet
  facet normal 0.993258 0.104394 0.0504078
    outer loop
      vertex 389.987 0 4000
      vertex 580.029 123.289 0
      vertex 381.465 81.083 4000
    endloop
  endfacet
  facet normal 0.993258 0.104394 0.0504078
    outer loop
      vertex 592.987 0 0
      vertex 580.029 123.289 0
      vertex 389.987 0 4000
    endloop
  endfacet
  facet normal -0.0509979 -0.00536015 0.998684
    outer loop
      vertex 380 0 3999.49
      vertex 381.465 81.083 4000
      vertex 371.696 79.0065 3999.49
    endloop
  endfacet
  facet normal -0.0509992 -0.00536013 0.998684
    outer loop
      vertex 389.987 0 4000
      vertex 381.465 81.083 4000
      vertex 380 0 3999.49
    endloop
  endfacet
  facet normal -0.993258 -0.104396 -0.0504079
    outer loop
      vertex 570.26 121.213 -0.50679
      vertex 583 0 -0.50679
      vertex 371.696 79.0065 3999.49
    endloop
  endfacet
  facet normal -0.993257 -0.104397 -0.0504079
    outer loop
      vertex 583 0 -0.50679
      vertex 380 0 3999.49
      vertex 371.696 79.0065 3999.49
    endloop
  endfacet
  facet normal 0.0506781 0.0053264 -0.998701
    outer loop
      vertex 580.029 123.289 0
      vertex 592.987 0 0
      vertex 570.26 121.213 -0.50679
    endloop
  endfacet
  facet normal 0.050679 0.00532658 -0.998701
    outer loop
      vertex 592.987 0 0
      vertex 583 0 -0.50679
      vertex 570.26 121.213 -0.50679
    endloop
  endfacet
  facet normal 0.993258 -0.104394 0.0504078
    outer loop
      vertex 592.987 0 0
      vertex 389.987 0 4000
      vertex 381.465 -81.083 4000
    endloop
  endfacet
  facet normal 0.993258 -0.104394 0.0504078
    outer loop
      vertex 580.029 -123.289 0
      vertex 592.987 0 0
      vertex 381.465 -81.083 4000
    endloop
  endfacet
  facet normal -0.0509992 0.00536028 0.998684
    outer loop
      vertex 389.987 0 4000
      vertex 380 0 3999.49
      vertex 371.696 -79.0065 3999.49
    endloop
  endfacet
  facet normal -0.050998 0.00536 0.998684
    outer loop
      vertex 381.465 -81.083 4000
      vertex 389.987 0 4000
      vertex 371.696 -79.0065 3999.49
    endloop
  endfacet
  facet normal -0.993258 0.104396 -0.0504079
    outer loop
      vertex 583 0 -0.50679
      vertex 570.26 -121.213 -0.50679
      vertex 380 0 3999.49
    endloop
  endfacet
  facet normal -0.993257 0.104397 -0.0504079
    outer loop
      vertex 380 0 3999.49
      vertex 570.26 -121.213 -0.50679
      vertex 371.696 -79.0065 3999.49
    endloop
  endfacet
  facet normal 0.050679 -0.0053265 -0.998701
    outer loop
      vertex 583 0 -0.50679
      vertex 592.987 0 0
      vertex 580.029 -123.289 0
    endloop
  endfacet
  facet normal 0.050678 -0.00532648 -0.998701
    outer loop
      vertex 583 0 -0.50679
      vertex 580.029 -123.289 0
      vertex 570.26 -121.213 -0.50679
    endloop
  endfacet
  facet normal 0.949847 -0.308625 0.0504078
    outer loop
      vertex 580.029 -123.289 0
      vertex 381.465 -81.083 4000
      vertex 356.271 -158.622 4000
    endloop
  endfacet
  facet normal 0.949848 -0.308622 0.0504079
    outer loop
      vertex 541.721 -241.19 0
      vertex 580.029 -123.289 0
      vertex 356.271 -158.622 4000
    endloop
  endfacet
  facet normal -0.0487691 0.0158455 0.998684
    outer loop
      vertex 381.465 -81.083 4000
      vertex 371.696 -79.0065 3999.49
      vertex 347.148 -154.56 3999.49
    endloop
  endfacet
  facet normal -0.0487731 0.0158474 0.998684
    outer loop
      vertex 356.271 -158.622 4000
      vertex 381.465 -81.083 4000
      vertex 347.148 -154.56 3999.49
    endloop
  endfacet
  facet normal -0.949848 0.308624 -0.0504079
    outer loop
      vertex 570.26 -121.213 -0.50679
      vertex 532.597 -237.128 -0.50679
      vertex 371.696 -79.0065 3999.49
    endloop
  endfacet
  facet normal -0.94985 0.308615 -0.0504077
    outer loop
      vertex 371.696 -79.0065 3999.49
      vertex 532.597 -237.128 -0.50679
      vertex 347.148 -154.56 3999.49
    endloop
  endfacet
  facet normal 0.0484637 -0.0157467 -0.998701
    outer loop
      vertex 570.26 -121.213 -0.50679
      vertex 580.029 -123.289 0
      vertex 541.721 -241.19 0
    endloop
  endfacet
  facet normal 0.0484623 -0.0157463 -0.998701
    outer loop
      vertex 570.26 -121.213 -0.50679
      vertex 541.721 -241.19 0
      vertex 532.597 -237.128 -0.50679
    endloop
  endfacet
  facet normal 0.86493 -0.499355 0.050408
    outer loop
      vertex 541.721 -241.19 0
      vertex 356.271 -158.622 4000
      vertex 315.507 -229.229 4000
    endloop
  endfacet
  facet normal 0.864924 -0.499366 0.0504077
    outer loop
      vertex 479.737 -348.549 0
      vertex 541.721 -241.19 0
      vertex 315.507 -229.229 4000
    endloop
  endfacet
  facet normal -0.0444123 0.0256414 0.998684
    outer loop
      vertex 356.271 -158.622 4000
      vertex 347.148 -154.56 3999.49
      vertex 307.427 -223.359 3999.49
    endloop
  endfacet
  facet normal -0.0444093 0.0256391 0.998684
    outer loop
      vertex 315.507 -229.229 4000
      vertex 356.271 -158.622 4000
      vertex 307.427 -223.359 3999.49
    endloop
  endfacet
  facet normal -0.864924 0.499365 -0.0504078
    outer loop
      vertex 532.597 -237.128 -0.50679
      vertex 471.657 -342.679 -0.50679
      vertex 347.148 -154.56 3999.49
    endloop
  endfacet
  facet normal -0.864925 0.499363 -0.0504077
    outer loop
      vertex 347.148 -154.56 3999.49
      vertex 471.657 -342.679 -0.50679
      vertex 307.427 -223.359 3999.49
    endloop
  endfacet
  facet normal 0.0441296 -0.0254783 -0.998701
    outer loop
      vertex 532.597 -237.128 -0.50679
      vertex 541.721 -241.19 0
      vertex 479.737 -348.549 0
    endloop
  endfacet
  facet normal 0.0441302 -0.0254786 -0.998701
    outer loop
      vertex 532.597 -237.128 -0.50679
      vertex 479.737 -348.549 0
      vertex 471.657 -342.679 -0.50679
    endloop
  endfacet
  facet normal 0.742198 -0.668282 0.0504077
    outer loop
      vertex 479.737 -348.549 0
      vertex 315.507 -229.229 4000
      vertex 260.953 -289.817 4000
    endloop
  endfacet
  facet normal 0.742202 -0.668278 0.0504078
    outer loop
      vertex 396.786 -440.676 0
      vertex 479.737 -348.549 0
      vertex 260.953 -289.817 4000
    endloop
  endfacet
  facet normal -0.0381079 0.034313 0.998684
    outer loop
      vertex 315.507 -229.229 4000
      vertex 307.427 -223.359 3999.49
      vertex 254.27 -282.395 3999.49
    endloop
  endfacet
  facet normal -0.0381068 0.0343117 0.998684
    outer loop
      vertex 260.953 -289.817 4000
      vertex 315.507 -229.229 4000
      vertex 254.27 -282.395 3999.49
    endloop
  endfacet
  facet normal -0.7422 0.66828 -0.0504077
    outer loop
      vertex 471.657 -342.679 -0.50679
      vertex 390.103 -433.254 -0.50679
      vertex 307.427 -223.359 3999.49
    endloop
  endfacet
  facet normal -0.742195 0.668285 -0.0504079
    outer loop
      vertex 307.427 -223.359 3999.49
      vertex 390.103 -433.254 -0.50679
      vertex 254.27 -282.395 3999.49
    endloop
  endfacet
  facet normal 0.037869 -0.0340972 -0.998701
    outer loop
      vertex 471.657 -342.679 -0.50679
      vertex 479.737 -348.549 0
      vertex 396.786 -440.676 0
    endloop
  endfacet
  facet normal 0.0378677 -0.0340962 -0.998701
    outer loop
      vertex 471.657 -342.679 -0.50679
      vertex 396.786 -440.676 0
      vertex 390.103 -433.254 -0.50679
    endloop
  endfacet
  facet normal 0.587038 -0.807989 0.0504079
    outer loop
      vertex 396.786 -440.676 0
      vertex 260.953 -289.817 4000
      vertex 194.994 -337.739 4000
    endloop
  endfacet
  facet normal 0.587036 -0.80799 0.0504078
    outer loop
      vertex 296.494 -513.542 0
      vertex 396.786 -440.676 0
      vertex 194.994 -337.739 4000
    endloop
  endfacet
  facet normal -0.0301405 0.0414848 0.998684
    outer loop
      vertex 260.953 -289.817 4000
      vertex 254.27 -282.395 3999.49
      vertex 190 -329.09 3999.49
    endloop
  endfacet
  facet normal -0.0301408 0.0414853 0.998684
    outer loop
      vertex 194.994 -337.739 4000
      vertex 260.953 -289.817 4000
      vertex 190 -329.09 3999.49
    endloop
  endfacet
  facet normal -0.587037 0.80799 -0.0504079
    outer loop
      vertex 390.103 -433.254 -0.50679
      vertex 291.5 -504.893 -0.50679
      vertex 254.27 -282.395 3999.49
    endloop
  endfacet
  facet normal -0.587039 0.807988 -0.0504078
    outer loop
      vertex 254.27 -282.395 3999.49
      vertex 291.5 -504.893 -0.50679
      vertex 190 -329.09 3999.49
    endloop
  endfacet
  facet normal 0.0299512 -0.0412245 -0.998701
    outer loop
      vertex 390.103 -433.254 -0.50679
      vertex 396.786 -440.676 0
      vertex 296.494 -513.542 0
    endloop
  endfacet
  facet normal 0.0299515 -0.0412249 -0.998701
    outer loop
      vertex 390.103 -433.254 -0.50679
      vertex 296.494 -513.542 0
      vertex 291.5 -504.893 -0.50679
    endloop
  endfacet
  facet normal 0.406219 -0.912384 0.0504078
    outer loop
      vertex 296.494 -513.542 0
      vertex 194.994 -337.739 4000
      vertex 120.513 -370.9 4000
    endloop
  endfacet
  facet normal 0.406222 -0.912383 0.0504079
    outer loop
      vertex 183.243 -563.965 0
      vertex 296.494 -513.542 0
      vertex 120.513 -370.9 4000
    endloop
  endfacet
  facet normal -0.0208573 0.0468456 0.998684
    outer loop
      vertex 194.994 -337.739 4000
      vertex 190 -329.09 3999.49
      vertex 117.427 -361.402 3999.49
    endloop
  endfacet
  facet normal -0.020858 0.0468479 0.998684
    outer loop
      vertex 120.513 -370.9 4000
      vertex 194.994 -337.739 4000
      vertex 117.427 -361.402 3999.49
    endloop
  endfacet
  facet normal -0.406219 0.912384 -0.0504078
    outer loop
      vertex 190 -329.09 3999.49
      vertex 291.5 -504.893 -0.50679
      vertex 180.157 -554.466 -0.50679
    endloop
  endfacet
  facet normal -0.406224 0.912382 -0.0504077
    outer loop
      vertex 190 -329.09 3999.49
      vertex 180.157 -554.466 -0.50679
      vertex 117.427 -361.402 3999.49
    endloop
  endfacet
  facet normal 0.0207263 -0.0465516 -0.998701
    outer loop
      vertex 291.5 -504.893 -0.50679
      vertex 296.494 -513.542 0
      vertex 183.243 -563.965 0
    endloop
  endfacet
  facet normal 0.0207251 -0.0465495 -0.998701
    outer loop
      vertex 291.5 -504.893 -0.50679
      vertex 183.243 -563.965 0
      vertex 180.157 -554.466 -0.50679
    endloop
  endfacet
  facet normal 0.207647 -0.976904 0.0504079
    outer loop
      vertex 183.243 -563.965 0
      vertex 120.513 -370.9 4000
      vertex 40.7648 -387.851 4000
    endloop
  endfacet
  facet normal 0.207644 -0.976905 0.0504079
    outer loop
      vertex 61.9841 -589.739 0
      vertex 183.243 -563.965 0
      vertex 40.7648 -387.851 4000
    endloop
  endfacet
  facet normal -0.010662 0.0501607 0.998684
    outer loop
      vertex 120.513 -370.9 4000
      vertex 117.427 -361.402 3999.49
      vertex 39.7209 -377.919 3999.49
    endloop
  endfacet
  facet normal -0.010662 0.050161 0.998684
    outer loop
      vertex 40.7648 -387.851 4000
      vertex 120.513 -370.9 4000
      vertex 39.7209 -377.919 3999.49
    endloop
  endfacet
  facet normal -0.207653 0.976903 -0.0504078
    outer loop
      vertex 117.427 -361.402 3999.49
      vertex 180.157 -554.466 -0.50679
      vertex 60.9401 -579.807 -0.50679
    endloop
  endfacet
  facet normal -0.207648 0.976904 -0.0504079
    outer loop
      vertex 117.427 -361.402 3999.49
      vertex 60.9401 -579.807 -0.50679
      vertex 39.7209 -377.919 3999.49
    endloop
  endfacet
  facet normal 0.0105939 -0.0498409 -0.998701
    outer loop
      vertex 180.157 -554.466 -0.50679
      vertex 183.243 -563.965 0
      vertex 61.9841 -589.739 0
    endloop
  endfacet
  facet normal 0.0105954 -0.049846 -0.998701
    outer loop
      vertex 180.157 -554.466 -0.50679
      vertex 61.9841 -589.739 0
      vertex 60.9401 -579.807 -0.50679
    endloop
  endfacet
  facet normal 0 -0.998729 0.0504078
    outer loop
      vertex -61.9841 -589.739 0
      vertex 40.7648 -387.851 4000
      vertex -40.7648 -387.851 4000
    endloop
  endfacet
  facet normal 0 -0.998729 0.0504078
    outer loop
      vertex 40.7648 -387.851 4000
      vertex -61.9841 -589.739 0
      vertex 61.9841 -589.739 0
    endloop
  endfacet
  facet normal -0 0.0512816 0.998684
    outer loop
      vertex -39.7209 -377.919 3999.49
      vertex 40.7648 -387.851 4000
      vertex 39.7209 -377.919 3999.49
    endloop
  endfacet
  facet normal 0 0.0512816 0.998684
    outer loop
      vertex 40.7648 -387.851 4000
      vertex -39.7209 -377.919 3999.49
      vertex -40.7648 -387.851 4000
    endloop
  endfacet
  facet normal 0 0.998729 -0.0504079
    outer loop
      vertex 60.9401 -579.807 -0.50679
      vertex -39.7209 -377.919 3999.49
      vertex 39.7209 -377.919 3999.49
    endloop
  endfacet
  facet normal 0 0.998729 -0.0504079
    outer loop
      vertex -39.7209 -377.919 3999.49
      vertex 60.9401 -579.807 -0.50679
      vertex -60.9401 -579.807 -0.50679
    endloop
  endfacet
  facet normal 0 -0.0509597 -0.998701
    outer loop
      vertex 61.9841 -589.739 0
      vertex -60.9401 -579.807 -0.50679
      vertex 60.9401 -579.807 -0.50679
    endloop
  endfacet
  facet normal 0 -0.0509597 -0.998701
    outer loop
      vertex -60.9401 -579.807 -0.50679
      vertex 61.9841 -589.739 0
      vertex -61.9841 -589.739 0
    endloop
  endfacet
  facet normal -0.207647 -0.976904 0.0504078
    outer loop
      vertex -61.9841 -589.739 0
      vertex -40.7648 -387.851 4000
      vertex -120.513 -370.9 4000
    endloop
  endfacet
  facet normal -0.207644 -0.976905 0.0504079
    outer loop
      vertex -61.9841 -589.739 0
      vertex -120.513 -370.9 4000
      vertex -183.243 -563.965 0
    endloop
  endfacet
  facet normal 0.0106621 0.050161 0.998684
    outer loop
      vertex -40.7648 -387.851 4000
      vertex -39.7209 -377.919 3999.49
      vertex -117.427 -361.402 3999.49
    endloop
  endfacet
  facet normal 0.010662 0.0501607 0.998684
    outer loop
      vertex -40.7648 -387.851 4000
      vertex -117.427 -361.402 3999.49
      vertex -120.513 -370.9 4000
    endloop
  endfacet
  facet normal 0.207653 0.976903 -0.0504078
    outer loop
      vertex -39.7209 -377.919 3999.49
      vertex -60.9401 -579.807 -0.50679
      vertex -180.157 -554.466 -0.50679
    endloop
  endfacet
  facet normal 0.207648 0.976904 -0.0504077
    outer loop
      vertex -117.427 -361.402 3999.49
      vertex -39.7209 -377.919 3999.49
      vertex -180.157 -554.466 -0.50679
    endloop
  endfacet
  facet normal -0.0105949 -0.049846 -0.998701
    outer loop
      vertex -60.9401 -579.807 -0.50679
      vertex -61.9841 -589.739 0
      vertex -183.243 -563.965 0
    endloop
  endfacet
  facet normal -0.0105943 -0.0498408 -0.998701
    outer loop
      vertex -180.157 -554.466 -0.50679
      vertex -60.9401 -579.807 -0.50679
      vertex -183.243 -563.965 0
    endloop
  endfacet
  facet normal -0.406219 -0.912384 0.0504079
    outer loop
      vertex -183.243 -563.965 0
      vertex -120.513 -370.9 4000
      vertex -194.994 -337.739 4000
    endloop
  endfacet
  facet normal -0.406222 -0.912383 0.0504078
    outer loop
      vertex -183.243 -563.965 0
      vertex -194.994 -337.739 4000
      vertex -296.494 -513.542 0
    endloop
  endfacet
  facet normal 0.0208583 0.0468478 0.998684
    outer loop
      vertex -120.513 -370.9 4000
      vertex -117.427 -361.402 3999.49
      vertex -190 -329.09 3999.49
    endloop
  endfacet
  facet normal 0.020857 0.0468458 0.998684
    outer loop
      vertex -120.513 -370.9 4000
      vertex -190 -329.09 3999.49
      vertex -194.994 -337.739 4000
    endloop
  endfacet
  facet normal 0.406219 0.912384 -0.0504077
    outer loop
      vertex -117.427 -361.402 3999.49
      vertex -180.157 -554.466 -0.50679
      vertex -291.5 -504.893 -0.50679
    endloop
  endfacet
  facet normal 0.406224 0.912382 -0.0504079
    outer loop
      vertex -190 -329.09 3999.49
      vertex -117.427 -361.402 3999.49
      vertex -291.5 -504.893 -0.50679
    endloop
  endfacet
  facet normal -0.0207253 -0.0465495 -0.998701
    outer loop
      vertex -180.157 -554.466 -0.50679
      vertex -183.243 -563.965 0
      vertex -296.494 -513.542 0
    endloop
  endfacet
  facet normal -0.0207261 -0.0465517 -0.998701
    outer loop
      vertex -291.5 -504.893 -0.50679
      vertex -180.157 -554.466 -0.50679
      vertex -296.494 -513.542 0
    endloop
  endfacet
  facet normal -0.587038 -0.807989 0.0504078
    outer loop
      vertex -194.994 -337.739 4000
      vertex -260.953 -289.817 4000
      vertex -296.494 -513.542 0
    endloop
  endfacet
  facet normal -0.587036 -0.80799 0.0504079
    outer loop
      vertex -296.494 -513.542 0
      vertex -260.953 -289.817 4000
      vertex -396.786 -440.676 0
    endloop
  endfacet
  facet normal 0.0301408 0.0414852 0.998684
    outer loop
      vertex -194.994 -337.739 4000
      vertex -190 -329.09 3999.49
      vertex -254.27 -282.395 3999.49
    endloop
  endfacet
  facet normal 0.0301405 0.0414848 0.998684
    outer loop
      vertex -194.994 -337.739 4000
      vertex -254.27 -282.395 3999.49
      vertex -260.953 -289.817 4000
    endloop
  endfacet
  facet normal 0.587037 0.80799 -0.0504078
    outer loop
      vertex -190 -329.09 3999.49
      vertex -291.5 -504.893 -0.50679
      vertex -390.103 -433.254 -0.50679
    endloop
  endfacet
  facet normal 0.587039 0.807988 -0.0504079
    outer loop
      vertex -254.27 -282.395 3999.49
      vertex -190 -329.09 3999.49
      vertex -390.103 -433.254 -0.50679
    endloop
  endfacet
  facet normal -0.0299515 -0.0412249 -0.998701
    outer loop
      vertex -291.5 -504.893 -0.50679
      vertex -296.494 -513.542 0
      vertex -396.786 -440.676 0
    endloop
  endfacet
  facet normal -0.0299512 -0.0412244 -0.998701
    outer loop
      vertex -390.103 -433.254 -0.50679
      vertex -291.5 -504.893 -0.50679
      vertex -396.786 -440.676 0
    endloop
  endfacet
  facet normal -0.742198 -0.668282 0.0504078
    outer loop
      vertex -260.953 -289.817 4000
      vertex -315.507 -229.229 4000
      vertex -396.786 -440.676 0
    endloop
  endfacet
  facet normal -0.742202 -0.668278 0.0504077
    outer loop
      vertex -396.786 -440.676 0
      vertex -315.507 -229.229 4000
      vertex -479.737 -348.549 0
    endloop
  endfacet
  facet normal 0.0381066 0.0343118 0.998684
    outer loop
      vertex -260.953 -289.817 4000
      vertex -254.27 -282.395 3999.49
      vertex -307.427 -223.359 3999.49
    endloop
  endfacet
  facet normal 0.038108 0.0343128 0.998684
    outer loop
      vertex -260.953 -289.817 4000
      vertex -307.427 -223.359 3999.49
      vertex -315.507 -229.229 4000
    endloop
  endfacet
  facet normal 0.7422 0.66828 -0.0504079
    outer loop
      vertex -254.27 -282.395 3999.49
      vertex -390.103 -433.254 -0.50679
      vertex -471.657 -342.679 -0.50679
    endloop
  endfacet
  facet normal 0.742195 0.668285 -0.0504077
    outer loop
      vertex -307.427 -223.359 3999.49
      vertex -254.27 -282.395 3999.49
      vertex -471.657 -342.679 -0.50679
    endloop
  endfacet
  facet normal -0.0378678 -0.0340961 -0.998701
    outer loop
      vertex -390.103 -433.254 -0.50679
      vertex -396.786 -440.676 0
      vertex -479.737 -348.549 0
    endloop
  endfacet
  facet normal -0.0378689 -0.0340973 -0.998701
    outer loop
      vertex -471.657 -342.679 -0.50679
      vertex -390.103 -433.254 -0.50679
      vertex -479.737 -348.549 0
    endloop
  endfacet
  facet normal -0.86493 -0.499355 0.0504076
    outer loop
      vertex -315.507 -229.229 4000
      vertex -356.271 -158.622 4000
      vertex -479.737 -348.549 0
    endloop
  endfacet
  facet normal -0.864924 -0.499366 0.0504079
    outer loop
      vertex -479.737 -348.549 0
      vertex -356.271 -158.622 4000
      vertex -541.721 -241.19 0
    endloop
  endfacet
  facet normal 0.0444091 0.0256395 0.998684
    outer loop
      vertex -315.507 -229.229 4000
      vertex -307.427 -223.359 3999.49
      vertex -347.148 -154.56 3999.49
    endloop
  endfacet
  facet normal 0.0444125 0.025641 0.998684
    outer loop
      vertex -315.507 -229.229 4000
      vertex -347.148 -154.56 3999.49
      vertex -356.271 -158.622 4000
    endloop
  endfacet
  facet normal 0.864924 0.499365 -0.0504077
    outer loop
      vertex -307.427 -223.359 3999.49
      vertex -471.657 -342.679 -0.50679
      vertex -532.597 -237.128 -0.50679
    endloop
  endfacet
  facet normal 0.864925 0.499363 -0.0504078
    outer loop
      vertex -347.148 -154.56 3999.49
      vertex -307.427 -223.359 3999.49
      vertex -532.597 -237.128 -0.50679
    endloop
  endfacet
  facet normal -0.0441302 -0.0254787 -0.998701
    outer loop
      vertex -471.657 -342.679 -0.50679
      vertex -479.737 -348.549 0
      vertex -541.721 -241.19 0
    endloop
  endfacet
  facet normal -0.0441296 -0.0254783 -0.998701
    outer loop
      vertex -532.597 -237.128 -0.50679
      vertex -471.657 -342.679 -0.50679
      vertex -541.721 -241.19 0
    endloop
  endfacet
  facet normal -0.949847 -0.308625 0.0504079
    outer loop
      vertex -356.271 -158.622 4000
      vertex -381.465 -81.083 4000
      vertex -541.721 -241.19 0
    endloop
  endfacet
  facet normal -0.949848 -0.308622 0.0504078
    outer loop
      vertex -541.721 -241.19 0
      vertex -381.465 -81.083 4000
      vertex -580.029 -123.289 0
    endloop
  endfacet
  facet normal 0.0487733 0.0158469 0.998684
    outer loop
      vertex -356.271 -158.622 4000
      vertex -347.148 -154.56 3999.49
      vertex -371.696 -79.0065 3999.49
    endloop
  endfacet
  facet normal 0.048769 0.0158461 0.998684
    outer loop
      vertex -356.271 -158.622 4000
      vertex -371.696 -79.0065 3999.49
      vertex -381.465 -81.083 4000
    endloop
  endfacet
  facet normal 0.949848 0.308624 -0.0504077
    outer loop
      vertex -347.148 -154.56 3999.49
      vertex -532.597 -237.128 -0.50679
      vertex -570.26 -121.213 -0.50679
    endloop
  endfacet
  facet normal 0.94985 0.308615 -0.050408
    outer loop
      vertex -371.696 -79.0065 3999.49
      vertex -347.148 -154.56 3999.49
      vertex -570.26 -121.213 -0.50679
    endloop
  endfacet
  facet normal -0.0484623 -0.0157462 -0.998701
    outer loop
      vertex -532.597 -237.128 -0.50679
      vertex -541.721 -241.19 0
      vertex -580.029 -123.289 0
    endloop
  endfacet
  facet normal -0.0484636 -0.0157468 -0.998701
    outer loop
      vertex -570.26 -121.213 -0.50679
      vertex -532.597 -237.128 -0.50679
      vertex -580.029 -123.289 0
    endloop
  endfacet
  facet normal -0.993258 -0.104394 0.0504078
    outer loop
      vertex -381.465 -81.083 4000
      vertex -389.987 0 4000
      vertex -580.029 -123.289 0
    endloop
  endfacet
  facet normal -0.993258 -0.104394 0.0504078
    outer loop
      vertex -580.029 -123.289 0
      vertex -389.987 0 4000
      vertex -592.987 0 0
    endloop
  endfacet
  facet normal 0.0509979 0.00536015 0.998684
    outer loop
      vertex -371.696 -79.0065 3999.49
      vertex -380 0 3999.49
      vertex -381.465 -81.083 4000
    endloop
  endfacet
  facet normal 0.0509992 0.00536013 0.998684
    outer loop
      vertex -381.465 -81.083 4000
      vertex -380 0 3999.49
      vertex -389.987 0 4000
    endloop
  endfacet
  facet normal 0.993258 0.104396 -0.0504079
    outer loop
      vertex -371.696 -79.0065 3999.49
      vertex -570.26 -121.213 -0.50679
      vertex -583 0 -0.50679
    endloop
  endfacet
  facet normal 0.993257 0.104397 -0.0504079
    outer loop
      vertex -380 0 3999.49
      vertex -371.696 -79.0065 3999.49
      vertex -583 0 -0.50679
    endloop
  endfacet
  facet normal -0.0506781 -0.0053264 -0.998701
    outer loop
      vertex -570.26 -121.213 -0.50679
      vertex -580.029 -123.289 0
      vertex -592.987 0 0
    endloop
  endfacet
  facet normal -0.050679 -0.00532658 -0.998701
    outer loop
      vertex -583 0 -0.50679
      vertex -570.26 -121.213 -0.50679
      vertex -592.987 0 0
    endloop
  endfacet
endsolid OpenSCAD_Model
