solid OpenSCAD_Model
  facet normal 0 0 -1
    outer loop
      vertex 200 1201.2 820
      vertex 200.2 1401.2 820
      vertex 200.2 1201.2 820
    endloop
  endfacet
  facet normal -0 0 -1
    outer loop
      vertex 200.2 1401.2 820
      vertex 200 1201.2 820
      vertex 200 1401.2 820
    endloop
  endfacet
  facet normal 0 0 -1
    outer loop
      vertex 200 0 820
      vertex 200.2 200 820
      vertex 200.2 0 820
    endloop
  endfacet
  facet normal -0 0 -1
    outer loop
      vertex 200.2 200 820
      vertex 200 0 820
      vertex 200 200 820
    endloop
  endfacet
  facet normal 0 0 -1
    outer loop
      vertex 400.2 1201.2 820
      vertex 400.4 1401.2 820
      vertex 400.4 1201.2 820
    endloop
  endfacet
  facet normal -0 0 -1
    outer loop
      vertex 400.4 1401.2 820
      vertex 400.2 1201.2 820
      vertex 400.2 1401.2 820
    endloop
  endfacet
  facet normal 0 0 -1
    outer loop
      vertex 400.2 0 820
      vertex 400.4 200 820
      vertex 400.4 0 820
    endloop
  endfacet
  facet normal -0 0 -1
    outer loop
      vertex 400.4 200 820
      vertex 400.2 0 820
      vertex 400.2 200 820
    endloop
  endfacet
  facet normal 0 0 -1
    outer loop
      vertex 600.4 1201.2 820
      vertex 600.6 1401.2 820
      vertex 600.6 1201.2 820
    endloop
  endfacet
  facet normal -0 0 -1
    outer loop
      vertex 600.6 1401.2 820
      vertex 600.4 1201.2 820
      vertex 600.4 1401.2 820
    endloop
  endfacet
  facet normal 0 0 -1
    outer loop
      vertex 600.4 0 820
      vertex 600.6 200 820
      vertex 600.6 0 820
    endloop
  endfacet
  facet normal -0 0 -1
    outer loop
      vertex 600.6 200 820
      vertex 600.4 0 820
      vertex 600.4 200 820
    endloop
  endfacet
  facet normal -0 0 1
    outer loop
      vertex 600.6 1201.2 820
      vertex 800.6 1201 820
      vertex 800.6 1201.2 820
    endloop
  endfacet
  facet normal 0 0 1
    outer loop
      vertex 800.6 1201 820
      vertex 600.6 1201.2 820
      vertex 600.6 1201 820
    endloop
  endfacet
  facet normal -0 0 1
    outer loop
      vertex 0 1201.2 820
      vertex 200 1201 820
      vertex 200 1201.2 820
    endloop
  endfacet
  facet normal 0 0 1
    outer loop
      vertex 200 1201 820
      vertex 0 1201.2 820
      vertex 0 1201 820
    endloop
  endfacet
  facet normal -0 0 1
    outer loop
      vertex 600.6 1001 820
      vertex 800.6 1000.8 820
      vertex 800.6 1001 820
    endloop
  endfacet
  facet normal 0 0 1
    outer loop
      vertex 800.6 1000.8 820
      vertex 600.6 1001 820
      vertex 600.6 1000.8 820
    endloop
  endfacet
  facet normal -0 0 1
    outer loop
      vertex 0 1001 820
      vertex 200 1000.8 820
      vertex 200 1001 820
    endloop
  endfacet
  facet normal 0 0 1
    outer loop
      vertex 200 1000.8 820
      vertex 0 1001 820
      vertex 0 1000.8 820
    endloop
  endfacet
  facet normal -0 0 1
    outer loop
      vertex 600.6 800.8 820
      vertex 800.6 800.6 820
      vertex 800.6 800.8 820
    endloop
  endfacet
  facet normal 0 0 1
    outer loop
      vertex 800.6 800.6 820
      vertex 600.6 800.8 820
      vertex 600.6 800.6 820
    endloop
  endfacet
  facet normal -0 0 1
    outer loop
      vertex 0 800.8 820
      vertex 200 800.6 820
      vertex 200 800.8 820
    endloop
  endfacet
  facet normal 0 0 1
    outer loop
      vertex 200 800.6 820
      vertex 0 800.8 820
      vertex 0 800.6 820
    endloop
  endfacet
  facet normal -0 0 1
    outer loop
      vertex 600.6 600.6 820
      vertex 800.6 600.4 820
      vertex 800.6 600.6 820
    endloop
  endfacet
  facet normal 0 0 1
    outer loop
      vertex 800.6 600.4 820
      vertex 600.6 600.6 820
      vertex 600.6 600.4 820
    endloop
  endfacet
  facet normal -0 0 1
    outer loop
      vertex 0 600.6 820
      vertex 200 600.4 820
      vertex 200 600.6 820
    endloop
  endfacet
  facet normal 0 0 1
    outer loop
      vertex 200 600.4 820
      vertex 0 600.6 820
      vertex 0 600.4 820
    endloop
  endfacet
  facet normal -0 0 1
    outer loop
      vertex 600.6 400.4 820
      vertex 800.6 400.2 820
      vertex 800.6 400.4 820
    endloop
  endfacet
  facet normal 0 0 1
    outer loop
      vertex 800.6 400.2 820
      vertex 600.6 400.4 820
      vertex 600.6 400.2 820
    endloop
  endfacet
  facet normal -0 0 1
    outer loop
      vertex 0 400.4 820
      vertex 200 400.2 820
      vertex 200 400.4 820
    endloop
  endfacet
  facet normal 0 0 1
    outer loop
      vertex 200 400.2 820
      vertex 0 400.4 820
      vertex 0 400.2 820
    endloop
  endfacet
  facet normal -0 0 1
    outer loop
      vertex 600.6 200.2 820
      vertex 800.6 200 820
      vertex 800.6 200.2 820
    endloop
  endfacet
  facet normal 0 0 1
    outer loop
      vertex 800.6 200 820
      vertex 600.6 200.2 820
      vertex 600.6 200 820
    endloop
  endfacet
  facet normal -0 0 1
    outer loop
      vertex 0 200.2 820
      vertex 200 200 820
      vertex 200 200.2 820
    endloop
  endfacet
  facet normal 0 0 1
    outer loop
      vertex 200 200 820
      vertex 0 200.2 820
      vertex 0 200 820
    endloop
  endfacet
  facet normal -0 0 1
    outer loop
      vertex 200.2 1201.2 820
      vertex 400.2 1201 820
      vertex 400.2 1201.2 820
    endloop
  endfacet
  facet normal 0 0 1
    outer loop
      vertex 400.2 1201 820
      vertex 200.2 1201.2 820
      vertex 200.2 1201 820
    endloop
  endfacet
  facet normal -0 0 1
    outer loop
      vertex 400.4 1201.2 820
      vertex 600.4 1201 820
      vertex 600.4 1201.2 820
    endloop
  endfacet
  facet normal 0 0 1
    outer loop
      vertex 600.4 1201 820
      vertex 400.4 1201.2 820
      vertex 400.4 1201 820
    endloop
  endfacet
  facet normal 0 0 -1
    outer loop
      vertex 200 1001 820
      vertex 200.2 1201 820
      vertex 200.2 1001 820
    endloop
  endfacet
  facet normal -0 0 -1
    outer loop
      vertex 200.2 1201 820
      vertex 200 1001 820
      vertex 200 1201 820
    endloop
  endfacet
  facet normal -0 0 1
    outer loop
      vertex 200.2 1001 820
      vertex 400.2 1000.8 820
      vertex 400.2 1001 820
    endloop
  endfacet
  facet normal 0 0 1
    outer loop
      vertex 400.2 1000.8 820
      vertex 200.2 1001 820
      vertex 200.2 1000.8 820
    endloop
  endfacet
  facet normal 0 0 -1
    outer loop
      vertex 400.2 1001 820
      vertex 400.4 1201 820
      vertex 400.4 1001 820
    endloop
  endfacet
  facet normal -0 0 -1
    outer loop
      vertex 400.4 1201 820
      vertex 400.2 1001 820
      vertex 400.2 1201 820
    endloop
  endfacet
  facet normal -0 0 1
    outer loop
      vertex 400.4 1001 820
      vertex 600.4 1000.8 820
      vertex 600.4 1001 820
    endloop
  endfacet
  facet normal 0 0 1
    outer loop
      vertex 600.4 1000.8 820
      vertex 400.4 1001 820
      vertex 400.4 1000.8 820
    endloop
  endfacet
  facet normal 0 0 -1
    outer loop
      vertex 600.4 1001 820
      vertex 600.6 1201 820
      vertex 600.6 1001 820
    endloop
  endfacet
  facet normal -0 0 -1
    outer loop
      vertex 600.6 1201 820
      vertex 600.4 1001 820
      vertex 600.4 1201 820
    endloop
  endfacet
  facet normal 0 0 -1
    outer loop
      vertex 200 800.8 820
      vertex 200.2 1000.8 820
      vertex 200.2 800.8 820
    endloop
  endfacet
  facet normal -0 0 -1
    outer loop
      vertex 200.2 1000.8 820
      vertex 200 800.8 820
      vertex 200 1000.8 820
    endloop
  endfacet
  facet normal 0 0 -1
    outer loop
      vertex 400.2 800.8 820
      vertex 400.4 1000.8 820
      vertex 400.4 800.8 820
    endloop
  endfacet
  facet normal -0 0 -1
    outer loop
      vertex 400.4 1000.8 820
      vertex 400.2 800.8 820
      vertex 400.2 1000.8 820
    endloop
  endfacet
  facet normal 0 0 -1
    outer loop
      vertex 600.4 800.8 820
      vertex 600.6 1000.8 820
      vertex 600.6 800.8 820
    endloop
  endfacet
  facet normal -0 0 -1
    outer loop
      vertex 600.6 1000.8 820
      vertex 600.4 800.8 820
      vertex 600.4 1000.8 820
    endloop
  endfacet
  facet normal -0 0 1
    outer loop
      vertex 200.2 800.8 820
      vertex 400.2 800.6 820
      vertex 400.2 800.8 820
    endloop
  endfacet
  facet normal 0 0 1
    outer loop
      vertex 400.2 800.6 820
      vertex 200.2 800.8 820
      vertex 200.2 800.6 820
    endloop
  endfacet
  facet normal -0 0 1
    outer loop
      vertex 400.4 800.8 820
      vertex 600.4 800.6 820
      vertex 600.4 800.8 820
    endloop
  endfacet
  facet normal 0 0 1
    outer loop
      vertex 600.4 800.6 820
      vertex 400.4 800.8 820
      vertex 400.4 800.6 820
    endloop
  endfacet
  facet normal 0 0 -1
    outer loop
      vertex 200 600.6 820
      vertex 200.2 800.6 820
      vertex 200.2 600.6 820
    endloop
  endfacet
  facet normal -0 0 -1
    outer loop
      vertex 200.2 800.6 820
      vertex 200 600.6 820
      vertex 200 800.6 820
    endloop
  endfacet
  facet normal -0 0 1
    outer loop
      vertex 200.2 600.6 820
      vertex 400.2 600.4 820
      vertex 400.2 600.6 820
    endloop
  endfacet
  facet normal 0 0 1
    outer loop
      vertex 400.2 600.4 820
      vertex 200.2 600.6 820
      vertex 200.2 600.4 820
    endloop
  endfacet
  facet normal 0 0 -1
    outer loop
      vertex 400.2 600.6 820
      vertex 400.4 800.6 820
      vertex 400.4 600.6 820
    endloop
  endfacet
  facet normal -0 0 -1
    outer loop
      vertex 400.4 800.6 820
      vertex 400.2 600.6 820
      vertex 400.2 800.6 820
    endloop
  endfacet
  facet normal -0 0 1
    outer loop
      vertex 400.4 600.6 820
      vertex 600.4 600.4 820
      vertex 600.4 600.6 820
    endloop
  endfacet
  facet normal 0 0 1
    outer loop
      vertex 600.4 600.4 820
      vertex 400.4 600.6 820
      vertex 400.4 600.4 820
    endloop
  endfacet
  facet normal 0 0 -1
    outer loop
      vertex 600.4 600.6 820
      vertex 600.6 800.6 820
      vertex 600.6 600.6 820
    endloop
  endfacet
  facet normal -0 0 -1
    outer loop
      vertex 600.6 800.6 820
      vertex 600.4 600.6 820
      vertex 600.4 800.6 820
    endloop
  endfacet
  facet normal 0 0 -1
    outer loop
      vertex 200 400.4 820
      vertex 200.2 600.4 820
      vertex 200.2 400.4 820
    endloop
  endfacet
  facet normal -0 0 -1
    outer loop
      vertex 200.2 600.4 820
      vertex 200 400.4 820
      vertex 200 600.4 820
    endloop
  endfacet
  facet normal 0 0 -1
    outer loop
      vertex 400.2 400.4 820
      vertex 400.4 600.4 820
      vertex 400.4 400.4 820
    endloop
  endfacet
  facet normal -0 0 -1
    outer loop
      vertex 400.4 600.4 820
      vertex 400.2 400.4 820
      vertex 400.2 600.4 820
    endloop
  endfacet
  facet normal 0 0 -1
    outer loop
      vertex 600.4 400.4 820
      vertex 600.6 600.4 820
      vertex 600.6 400.4 820
    endloop
  endfacet
  facet normal -0 0 -1
    outer loop
      vertex 600.6 600.4 820
      vertex 600.4 400.4 820
      vertex 600.4 600.4 820
    endloop
  endfacet
  facet normal -0 0 1
    outer loop
      vertex 200.2 400.4 820
      vertex 400.2 400.2 820
      vertex 400.2 400.4 820
    endloop
  endfacet
  facet normal 0 0 1
    outer loop
      vertex 400.2 400.2 820
      vertex 200.2 400.4 820
      vertex 200.2 400.2 820
    endloop
  endfacet
  facet normal -0 0 1
    outer loop
      vertex 400.4 400.4 820
      vertex 600.4 400.2 820
      vertex 600.4 400.4 820
    endloop
  endfacet
  facet normal 0 0 1
    outer loop
      vertex 600.4 400.2 820
      vertex 400.4 400.4 820
      vertex 400.4 400.2 820
    endloop
  endfacet
  facet normal 0 0 -1
    outer loop
      vertex 200 200.2 820
      vertex 200.2 400.2 820
      vertex 200.2 200.2 820
    endloop
  endfacet
  facet normal -0 0 -1
    outer loop
      vertex 200.2 400.2 820
      vertex 200 200.2 820
      vertex 200 400.2 820
    endloop
  endfacet
  facet normal -0 0 1
    outer loop
      vertex 200.2 200.2 820
      vertex 400.2 200 820
      vertex 400.2 200.2 820
    endloop
  endfacet
  facet normal 0 0 1
    outer loop
      vertex 400.2 200 820
      vertex 200.2 200.2 820
      vertex 200.2 200 820
    endloop
  endfacet
  facet normal 0 0 -1
    outer loop
      vertex 400.2 200.2 820
      vertex 400.4 400.2 820
      vertex 400.4 200.2 820
    endloop
  endfacet
  facet normal -0 0 -1
    outer loop
      vertex 400.4 400.2 820
      vertex 400.2 200.2 820
      vertex 400.2 400.2 820
    endloop
  endfacet
  facet normal -0 0 1
    outer loop
      vertex 400.4 200.2 820
      vertex 600.4 200 820
      vertex 600.4 200.2 820
    endloop
  endfacet
  facet normal 0 0 1
    outer loop
      vertex 600.4 200 820
      vertex 400.4 200.2 820
      vertex 400.4 200 820
    endloop
  endfacet
  facet normal 0 0 -1
    outer loop
      vertex 600.4 200.2 820
      vertex 600.6 400.2 820
      vertex 600.6 200.2 820
    endloop
  endfacet
  facet normal -0 0 -1
    outer loop
      vertex 600.6 400.2 820
      vertex 600.4 200.2 820
      vertex 600.4 400.2 820
    endloop
  endfacet
  facet normal -0 0 1
    outer loop
      vertex 0 1401.2 840
      vertex 800.6 1201.2 840
      vertex 800.6 1401.2 840
    endloop
  endfacet
  facet normal 0 0 1
    outer loop
      vertex 800.6 1201.2 840
      vertex 0 1401.2 840
      vertex 0 1201.2 840
    endloop
  endfacet
  facet normal -0 0 1
    outer loop
      vertex 0 1201 840
      vertex 800.6 1001 840
      vertex 800.6 1201 840
    endloop
  endfacet
  facet normal 0 0 1
    outer loop
      vertex 800.6 1001 840
      vertex 0 1201 840
      vertex 0 1001 840
    endloop
  endfacet
  facet normal -0 0 1
    outer loop
      vertex 0 1000.8 840
      vertex 800.6 800.8 840
      vertex 800.6 1000.8 840
    endloop
  endfacet
  facet normal 0 0 1
    outer loop
      vertex 800.6 800.8 840
      vertex 0 1000.8 840
      vertex 0 800.8 840
    endloop
  endfacet
  facet normal -0 0 1
    outer loop
      vertex 0 800.6 840
      vertex 800.6 600.6 840
      vertex 800.6 800.6 840
    endloop
  endfacet
  facet normal 0 0 1
    outer loop
      vertex 800.6 600.6 840
      vertex 0 800.6 840
      vertex 0 600.6 840
    endloop
  endfacet
  facet normal -0 0 1
    outer loop
      vertex 0 600.4 840
      vertex 800.6 400.4 840
      vertex 800.6 600.4 840
    endloop
  endfacet
  facet normal 0 0 1
    outer loop
      vertex 800.6 400.4 840
      vertex 0 600.4 840
      vertex 0 400.4 840
    endloop
  endfacet
  facet normal -0 0 1
    outer loop
      vertex 0 400.2 840
      vertex 800.6 200.2 840
      vertex 800.6 400.2 840
    endloop
  endfacet
  facet normal 0 0 1
    outer loop
      vertex 800.6 200.2 840
      vertex 0 400.2 840
      vertex 0 200.2 840
    endloop
  endfacet
  facet normal -0 0 1
    outer loop
      vertex 0 200 840
      vertex 800.6 0 840
      vertex 800.6 200 840
    endloop
  endfacet
  facet normal 0 0 1
    outer loop
      vertex 800.6 0 840
      vertex 0 200 840
      vertex 0 0 840
    endloop
  endfacet
  facet normal 0 1 -0
    outer loop
      vertex 400.2 1401.2 800
      vertex 200.2 1401.2 820
      vertex 400.2 1401.2 820
    endloop
  endfacet
  facet normal 0 1 0
    outer loop
      vertex 200.2 1401.2 820
      vertex 400.2 1401.2 800
      vertex 200.2 1401.2 800
    endloop
  endfacet
  facet normal 0 1 -0
    outer loop
      vertex 600.4 1401.2 800
      vertex 400.4 1401.2 820
      vertex 600.4 1401.2 820
    endloop
  endfacet
  facet normal 0 1 0
    outer loop
      vertex 400.4 1401.2 820
      vertex 600.4 1401.2 800
      vertex 400.4 1401.2 800
    endloop
  endfacet
  facet normal 0 1 0
    outer loop
      vertex 600.4 1401.2 820
      vertex 800.6 1401.2 840
      vertex 600.6 1401.2 820
    endloop
  endfacet
  facet normal 0 1 -0
    outer loop
      vertex 800.6 1401.2 800
      vertex 600.6 1401.2 820
      vertex 800.6 1401.2 840
    endloop
  endfacet
  facet normal 0 1 0
    outer loop
      vertex 600.6 1401.2 820
      vertex 800.6 1401.2 800
      vertex 600.6 1401.2 800
    endloop
  endfacet
  facet normal 0 1 0
    outer loop
      vertex 400.4 1401.2 820
      vertex 800.6 1401.2 840
      vertex 600.4 1401.2 820
    endloop
  endfacet
  facet normal 0 1 0
    outer loop
      vertex 800.6 1401.2 840
      vertex 400.4 1401.2 820
      vertex 0 1401.2 840
    endloop
  endfacet
  facet normal 0 1 -0
    outer loop
      vertex 400.2 1401.2 820
      vertex 0 1401.2 840
      vertex 400.4 1401.2 820
    endloop
  endfacet
  facet normal 0 1 -0
    outer loop
      vertex 200.2 1401.2 820
      vertex 0 1401.2 840
      vertex 400.2 1401.2 820
    endloop
  endfacet
  facet normal 0 1 -0
    outer loop
      vertex 200 1401.2 820
      vertex 0 1401.2 840
      vertex 200.2 1401.2 820
    endloop
  endfacet
  facet normal 0 1 0
    outer loop
      vertex 0 1401.2 800
      vertex 200 1401.2 820
      vertex 200 1401.2 800
    endloop
  endfacet
  facet normal 0 1 0
    outer loop
      vertex 200 1401.2 820
      vertex 0 1401.2 800
      vertex 0 1401.2 840
    endloop
  endfacet
  facet normal -1 0 0
    outer loop
      vertex 0 200 650
      vertex 0 350 675.981
      vertex 0 335 650
    endloop
  endfacet
  facet normal -1 0 0
    outer loop
      vertex 0 1051.2 800
      vertex 0 1000.8 820
      vertex 0 1001 820
    endloop
  endfacet
  facet normal -1 0 0
    outer loop
      vertex 0 1000.8 820
      vertex 0 800.8 820
      vertex 0 1000.8 840
    endloop
  endfacet
  facet normal -1 0 0
    outer loop
      vertex 0 1051.2 800
      vertex 0 800.8 820
      vertex 0 1000.8 820
    endloop
  endfacet
  facet normal -1 0 0
    outer loop
      vertex 0 1051.2 800
      vertex 0 800.6 820
      vertex 0 800.8 820
    endloop
  endfacet
  facet normal -1 0 0
    outer loop
      vertex 0 800.6 820
      vertex 0 600.6 820
      vertex 0 800.6 840
    endloop
  endfacet
  facet normal -1 0 0
    outer loop
      vertex 0 1051.2 800
      vertex 0 600.6 820
      vertex 0 800.6 820
    endloop
  endfacet
  facet normal -1 0 0
    outer loop
      vertex 0 350 800
      vertex 0 600.6 820
      vertex 0 1051.2 800
    endloop
  endfacet
  facet normal -1 0 0
    outer loop
      vertex 0 600.4 820
      vertex 0 400.4 820
      vertex 0 600.4 840
    endloop
  endfacet
  facet normal -1 -0 0
    outer loop
      vertex 0 600.6 820
      vertex 0 350 800
      vertex 0 600.4 820
    endloop
  endfacet
  facet normal -1 -0 0
    outer loop
      vertex 0 600.4 820
      vertex 0 350 800
      vertex 0 400.4 820
    endloop
  endfacet
  facet normal -1 -0 0
    outer loop
      vertex 0 400.4 820
      vertex 0 350 800
      vertex 0 400.2 820
    endloop
  endfacet
  facet normal -1 0 0
    outer loop
      vertex 0 350 800
      vertex 0 400.2 840
      vertex 0 400.2 820
    endloop
  endfacet
  facet normal -1 0 0
    outer loop
      vertex 0 350 675.981
      vertex 0 200 800
      vertex 0 350 800
    endloop
  endfacet
  facet normal -1 0 0
    outer loop
      vertex 0 200.2 840
      vertex 0 350 800
      vertex 0 200.2 820
    endloop
  endfacet
  facet normal -1 0 0
    outer loop
      vertex 0 350 800
      vertex 0 200.2 840
      vertex 0 400.2 840
    endloop
  endfacet
  facet normal -1 0 0
    outer loop
      vertex 0 1201.2 820
      vertex 0 1401.2 800
      vertex 0 1201.2 800
    endloop
  endfacet
  facet normal -1 0 0
    outer loop
      vertex 0 1401.2 800
      vertex 0 1201.2 820
      vertex 0 1401.2 840
    endloop
  endfacet
  facet normal -1 -0 0
    outer loop
      vertex 0 1401.2 840
      vertex 0 1201.2 820
      vertex 0 1201.2 840
    endloop
  endfacet
  facet normal -1 0 0
    outer loop
      vertex 0 1051.2 675.981
      vertex 0 1201.2 800
      vertex 0 1201.2 650
    endloop
  endfacet
  facet normal -1 0 0
    outer loop
      vertex 0 1201.2 800
      vertex 0 1201 820
      vertex 0 1201.2 820
    endloop
  endfacet
  facet normal -1 0 0
    outer loop
      vertex 0 1051.2 675.981
      vertex 0 1201.2 650
      vertex 0 1066.2 650
    endloop
  endfacet
  facet normal -1 0 0
    outer loop
      vertex 0 1051.2 800
      vertex 0 1201.2 800
      vertex 0 1051.2 675.981
    endloop
  endfacet
  facet normal -1 0 0
    outer loop
      vertex 0 1201.2 800
      vertex 0 1051.2 800
      vertex 0 1201 820
    endloop
  endfacet
  facet normal -1 -0 0
    outer loop
      vertex 0 1201 820
      vertex 0 1051.2 800
      vertex 0 1201 840
    endloop
  endfacet
  facet normal -1 0 0
    outer loop
      vertex 0 1001 840
      vertex 0 1051.2 800
      vertex 0 1001 820
    endloop
  endfacet
  facet normal -1 0 0
    outer loop
      vertex 0 1051.2 800
      vertex 0 1001 840
      vertex 0 1201 840
    endloop
  endfacet
  facet normal -1 -0 0
    outer loop
      vertex 0 1000.8 840
      vertex 0 800.8 820
      vertex 0 800.8 840
    endloop
  endfacet
  facet normal -1 -0 0
    outer loop
      vertex 0 800.6 840
      vertex 0 600.6 820
      vertex 0 600.6 840
    endloop
  endfacet
  facet normal -1 -0 0
    outer loop
      vertex 0 600.4 840
      vertex 0 400.4 820
      vertex 0 400.4 840
    endloop
  endfacet
  facet normal -1 -0 0
    outer loop
      vertex 0 350 675.981
      vertex 0 200 650
      vertex 0 200 800
    endloop
  endfacet
  facet normal -1 0 0
    outer loop
      vertex 0 350 800
      vertex 0 200 800
      vertex 0 200.2 820
    endloop
  endfacet
  facet normal -1 0 0
    outer loop
      vertex 0 200 800
      vertex 0 200 820
      vertex 0 200.2 820
    endloop
  endfacet
  facet normal -1 0 0
    outer loop
      vertex 0 0 800
      vertex 0 200 820
      vertex 0 200 800
    endloop
  endfacet
  facet normal -1 0 0
    outer loop
      vertex 0 0 840
      vertex 0 200 820
      vertex 0 0 800
    endloop
  endfacet
  facet normal -1 0 0
    outer loop
      vertex 0 200 820
      vertex 0 0 840
      vertex 0 200 840
    endloop
  endfacet
  facet normal 0 -1 0
    outer loop
      vertex 200 1201.2 820
      vertex 0 1201.2 840
      vertex 0 1201.2 820
    endloop
  endfacet
  facet normal 0 -1 0
    outer loop
      vertex 200.2 1201.2 820
      vertex 0 1201.2 840
      vertex 200 1201.2 820
    endloop
  endfacet
  facet normal 0 -1 0
    outer loop
      vertex 400.2 1201.2 820
      vertex 0 1201.2 840
      vertex 200.2 1201.2 820
    endloop
  endfacet
  facet normal 0 -1 0
    outer loop
      vertex 0 1201.2 840
      vertex 400.2 1201.2 820
      vertex 800.6 1201.2 840
    endloop
  endfacet
  facet normal 0 -1 0
    outer loop
      vertex 400.4 1201.2 820
      vertex 800.6 1201.2 840
      vertex 400.2 1201.2 820
    endloop
  endfacet
  facet normal 0 -1 0
    outer loop
      vertex 600.4 1201.2 820
      vertex 800.6 1201.2 840
      vertex 400.4 1201.2 820
    endloop
  endfacet
  facet normal 0 -1 0
    outer loop
      vertex 600.6 1201.2 820
      vertex 800.6 1201.2 840
      vertex 600.4 1201.2 820
    endloop
  endfacet
  facet normal 0 -1 -0
    outer loop
      vertex 800.6 1201.2 840
      vertex 600.6 1201.2 820
      vertex 800.6 1201.2 820
    endloop
  endfacet
  facet normal 1 0 0
    outer loop
      vertex 800.6 600.4 840
      vertex 800.6 400.4 840
      vertex 800.6 600.4 820
    endloop
  endfacet
  facet normal 1 0 0
    outer loop
      vertex 800.6 800.6 840
      vertex 800.6 600.6 840
      vertex 800.6 800.6 820
    endloop
  endfacet
  facet normal 1 0 0
    outer loop
      vertex 800.6 1000.8 840
      vertex 800.6 800.8 840
      vertex 800.6 1000.8 820
    endloop
  endfacet
  facet normal 1 0 0
    outer loop
      vertex 800.6 1201 840
      vertex 800.6 1051.2 800
      vertex 800.6 1201 820
    endloop
  endfacet
  facet normal 1 -0 0
    outer loop
      vertex 800.6 1001 840
      vertex 800.6 1051.2 800
      vertex 800.6 1201 840
    endloop
  endfacet
  facet normal 1 -0 0
    outer loop
      vertex 800.6 1001 820
      vertex 800.6 1051.2 800
      vertex 800.6 1001 840
    endloop
  endfacet
  facet normal 1 -0 0
    outer loop
      vertex 800.6 1000.8 820
      vertex 800.6 1051.2 800
      vertex 800.6 1001 820
    endloop
  endfacet
  facet normal 1 0 0
    outer loop
      vertex 800.6 800.8 820
      vertex 800.6 1000.8 820
      vertex 800.6 800.8 840
    endloop
  endfacet
  facet normal 1 0 0
    outer loop
      vertex 800.6 1000.8 820
      vertex 800.6 800.8 820
      vertex 800.6 1051.2 800
    endloop
  endfacet
  facet normal 1 -0 0
    outer loop
      vertex 800.6 800.6 820
      vertex 800.6 1051.2 800
      vertex 800.6 800.8 820
    endloop
  endfacet
  facet normal 1 0 0
    outer loop
      vertex 800.6 600.6 820
      vertex 800.6 800.6 820
      vertex 800.6 600.6 840
    endloop
  endfacet
  facet normal 1 -0 0
    outer loop
      vertex 800.6 600.6 820
      vertex 800.6 1051.2 800
      vertex 800.6 800.6 820
    endloop
  endfacet
  facet normal 1 0 0
    outer loop
      vertex 800.6 350 800
      vertex 800.6 600.6 820
      vertex 800.6 600.4 820
    endloop
  endfacet
  facet normal 1 0 0
    outer loop
      vertex 800.6 400.4 820
      vertex 800.6 600.4 820
      vertex 800.6 400.4 840
    endloop
  endfacet
  facet normal 1 0 0
    outer loop
      vertex 800.6 350 800
      vertex 800.6 600.4 820
      vertex 800.6 400.4 820
    endloop
  endfacet
  facet normal 1 0 0
    outer loop
      vertex 800.6 350 800
      vertex 800.6 400.4 820
      vertex 800.6 400.2 820
    endloop
  endfacet
  facet normal 1 0 0
    outer loop
      vertex 800.6 600.6 820
      vertex 800.6 350 800
      vertex 800.6 1051.2 800
    endloop
  endfacet
  facet normal 1 0 0
    outer loop
      vertex 800.6 1201.2 820
      vertex 800.6 1401.2 840
      vertex 800.6 1201.2 840
    endloop
  endfacet
  facet normal 1 0 0
    outer loop
      vertex 800.6 1401.2 840
      vertex 800.6 1201.2 820
      vertex 800.6 1401.2 800
    endloop
  endfacet
  facet normal 1 0 0
    outer loop
      vertex 800.6 1201.2 820
      vertex 800.6 1201.2 800
      vertex 800.6 1401.2 800
    endloop
  endfacet
  facet normal 1 -0 0
    outer loop
      vertex 800.6 1201 820
      vertex 800.6 1201.2 800
      vertex 800.6 1201.2 820
    endloop
  endfacet
  facet normal 1 0 0
    outer loop
      vertex 800.6 1201.2 800
      vertex 800.6 1201 820
      vertex 800.6 1051.2 800
    endloop
  endfacet
  facet normal 1 -0 0
    outer loop
      vertex 800.6 0 840
      vertex 800.6 200 820
      vertex 800.6 200 840
    endloop
  endfacet
  facet normal 1 0 0
    outer loop
      vertex 800.6 0 800
      vertex 800.6 200 820
      vertex 800.6 0 840
    endloop
  endfacet
  facet normal 1 0 0
    outer loop
      vertex 800.6 200 820
      vertex 800.6 0 800
      vertex 800.6 200 800
    endloop
  endfacet
  facet normal 1 0 0
    outer loop
      vertex 800.6 400.2 840
      vertex 800.6 350 800
      vertex 800.6 400.2 820
    endloop
  endfacet
  facet normal 1 -0 0
    outer loop
      vertex 800.6 200.2 840
      vertex 800.6 350 800
      vertex 800.6 400.2 840
    endloop
  endfacet
  facet normal 1 -0 0
    outer loop
      vertex 800.6 200.2 820
      vertex 800.6 350 800
      vertex 800.6 200.2 840
    endloop
  endfacet
  facet normal 1 0 0
    outer loop
      vertex 800.6 200 800
      vertex 800.6 200.2 820
      vertex 800.6 200 820
    endloop
  endfacet
  facet normal 1 0 0
    outer loop
      vertex 800.6 200.2 820
      vertex 800.6 200 800
      vertex 800.6 350 800
    endloop
  endfacet
  facet normal 0 1 0
    outer loop
      vertex 600.6 1201 820
      vertex 800.6 1201 840
      vertex 800.6 1201 820
    endloop
  endfacet
  facet normal 0 1 0
    outer loop
      vertex 600.4 1201 820
      vertex 800.6 1201 840
      vertex 600.6 1201 820
    endloop
  endfacet
  facet normal 0 1 0
    outer loop
      vertex 400.4 1201 820
      vertex 800.6 1201 840
      vertex 600.4 1201 820
    endloop
  endfacet
  facet normal 0 1 0
    outer loop
      vertex 800.6 1201 840
      vertex 400.4 1201 820
      vertex 0 1201 840
    endloop
  endfacet
  facet normal 0 1 -0
    outer loop
      vertex 400.2 1201 820
      vertex 0 1201 840
      vertex 400.4 1201 820
    endloop
  endfacet
  facet normal 0 1 -0
    outer loop
      vertex 200.2 1201 820
      vertex 0 1201 840
      vertex 400.2 1201 820
    endloop
  endfacet
  facet normal 0 1 -0
    outer loop
      vertex 200 1201 820
      vertex 0 1201 840
      vertex 200.2 1201 820
    endloop
  endfacet
  facet normal 0 1 0
    outer loop
      vertex 0 1201 840
      vertex 200 1201 820
      vertex 0 1201 820
    endloop
  endfacet
  facet normal 0 -1 0
    outer loop
      vertex 200 1001 820
      vertex 0 1001 840
      vertex 0 1001 820
    endloop
  endfacet
  facet normal 0 -1 0
    outer loop
      vertex 200.2 1001 820
      vertex 0 1001 840
      vertex 200 1001 820
    endloop
  endfacet
  facet normal 0 -1 0
    outer loop
      vertex 400.2 1001 820
      vertex 0 1001 840
      vertex 200.2 1001 820
    endloop
  endfacet
  facet normal 0 -1 0
    outer loop
      vertex 0 1001 840
      vertex 400.2 1001 820
      vertex 800.6 1001 840
    endloop
  endfacet
  facet normal 0 -1 0
    outer loop
      vertex 400.4 1001 820
      vertex 800.6 1001 840
      vertex 400.2 1001 820
    endloop
  endfacet
  facet normal 0 -1 0
    outer loop
      vertex 600.4 1001 820
      vertex 800.6 1001 840
      vertex 400.4 1001 820
    endloop
  endfacet
  facet normal 0 -1 0
    outer loop
      vertex 600.6 1001 820
      vertex 800.6 1001 840
      vertex 600.4 1001 820
    endloop
  endfacet
  facet normal 0 -1 -0
    outer loop
      vertex 800.6 1001 840
      vertex 600.6 1001 820
      vertex 800.6 1001 820
    endloop
  endfacet
  facet normal 0 1 0
    outer loop
      vertex 600.6 1000.8 820
      vertex 800.6 1000.8 840
      vertex 800.6 1000.8 820
    endloop
  endfacet
  facet normal 0 1 0
    outer loop
      vertex 600.4 1000.8 820
      vertex 800.6 1000.8 840
      vertex 600.6 1000.8 820
    endloop
  endfacet
  facet normal 0 1 0
    outer loop
      vertex 400.4 1000.8 820
      vertex 800.6 1000.8 840
      vertex 600.4 1000.8 820
    endloop
  endfacet
  facet normal 0 1 0
    outer loop
      vertex 800.6 1000.8 840
      vertex 400.4 1000.8 820
      vertex 0 1000.8 840
    endloop
  endfacet
  facet normal 0 1 -0
    outer loop
      vertex 400.2 1000.8 820
      vertex 0 1000.8 840
      vertex 400.4 1000.8 820
    endloop
  endfacet
  facet normal 0 1 -0
    outer loop
      vertex 200.2 1000.8 820
      vertex 0 1000.8 840
      vertex 400.2 1000.8 820
    endloop
  endfacet
  facet normal 0 1 -0
    outer loop
      vertex 200 1000.8 820
      vertex 0 1000.8 840
      vertex 200.2 1000.8 820
    endloop
  endfacet
  facet normal 0 1 0
    outer loop
      vertex 0 1000.8 840
      vertex 200 1000.8 820
      vertex 0 1000.8 820
    endloop
  endfacet
  facet normal 0 -1 0
    outer loop
      vertex 200 800.8 820
      vertex 0 800.8 840
      vertex 0 800.8 820
    endloop
  endfacet
  facet normal 0 -1 0
    outer loop
      vertex 200.2 800.8 820
      vertex 0 800.8 840
      vertex 200 800.8 820
    endloop
  endfacet
  facet normal 0 -1 0
    outer loop
      vertex 400.2 800.8 820
      vertex 0 800.8 840
      vertex 200.2 800.8 820
    endloop
  endfacet
  facet normal 0 -1 0
    outer loop
      vertex 0 800.8 840
      vertex 400.2 800.8 820
      vertex 800.6 800.8 840
    endloop
  endfacet
  facet normal 0 -1 0
    outer loop
      vertex 400.4 800.8 820
      vertex 800.6 800.8 840
      vertex 400.2 800.8 820
    endloop
  endfacet
  facet normal 0 -1 0
    outer loop
      vertex 600.4 800.8 820
      vertex 800.6 800.8 840
      vertex 400.4 800.8 820
    endloop
  endfacet
  facet normal 0 -1 0
    outer loop
      vertex 600.6 800.8 820
      vertex 800.6 800.8 840
      vertex 600.4 800.8 820
    endloop
  endfacet
  facet normal 0 -1 -0
    outer loop
      vertex 800.6 800.8 840
      vertex 600.6 800.8 820
      vertex 800.6 800.8 820
    endloop
  endfacet
  facet normal 0 1 0
    outer loop
      vertex 600.6 800.6 820
      vertex 800.6 800.6 840
      vertex 800.6 800.6 820
    endloop
  endfacet
  facet normal 0 1 0
    outer loop
      vertex 600.4 800.6 820
      vertex 800.6 800.6 840
      vertex 600.6 800.6 820
    endloop
  endfacet
  facet normal 0 1 0
    outer loop
      vertex 400.4 800.6 820
      vertex 800.6 800.6 840
      vertex 600.4 800.6 820
    endloop
  endfacet
  facet normal 0 1 0
    outer loop
      vertex 800.6 800.6 840
      vertex 400.4 800.6 820
      vertex 0 800.6 840
    endloop
  endfacet
  facet normal 0 1 -0
    outer loop
      vertex 400.2 800.6 820
      vertex 0 800.6 840
      vertex 400.4 800.6 820
    endloop
  endfacet
  facet normal 0 1 -0
    outer loop
      vertex 200.2 800.6 820
      vertex 0 800.6 840
      vertex 400.2 800.6 820
    endloop
  endfacet
  facet normal 0 1 -0
    outer loop
      vertex 200 800.6 820
      vertex 0 800.6 840
      vertex 200.2 800.6 820
    endloop
  endfacet
  facet normal 0 1 0
    outer loop
      vertex 0 800.6 840
      vertex 200 800.6 820
      vertex 0 800.6 820
    endloop
  endfacet
  facet normal 0 -1 0
    outer loop
      vertex 200 600.6 820
      vertex 0 600.6 840
      vertex 0 600.6 820
    endloop
  endfacet
  facet normal 0 -1 0
    outer loop
      vertex 200.2 600.6 820
      vertex 0 600.6 840
      vertex 200 600.6 820
    endloop
  endfacet
  facet normal 0 -1 0
    outer loop
      vertex 400.2 600.6 820
      vertex 0 600.6 840
      vertex 200.2 600.6 820
    endloop
  endfacet
  facet normal 0 -1 0
    outer loop
      vertex 0 600.6 840
      vertex 400.2 600.6 820
      vertex 800.6 600.6 840
    endloop
  endfacet
  facet normal 0 -1 0
    outer loop
      vertex 400.4 600.6 820
      vertex 800.6 600.6 840
      vertex 400.2 600.6 820
    endloop
  endfacet
  facet normal 0 -1 0
    outer loop
      vertex 600.4 600.6 820
      vertex 800.6 600.6 840
      vertex 400.4 600.6 820
    endloop
  endfacet
  facet normal 0 -1 0
    outer loop
      vertex 600.6 600.6 820
      vertex 800.6 600.6 840
      vertex 600.4 600.6 820
    endloop
  endfacet
  facet normal 0 -1 -0
    outer loop
      vertex 800.6 600.6 840
      vertex 600.6 600.6 820
      vertex 800.6 600.6 820
    endloop
  endfacet
  facet normal 0 1 0
    outer loop
      vertex 600.6 600.4 820
      vertex 800.6 600.4 840
      vertex 800.6 600.4 820
    endloop
  endfacet
  facet normal 0 1 0
    outer loop
      vertex 600.4 600.4 820
      vertex 800.6 600.4 840
      vertex 600.6 600.4 820
    endloop
  endfacet
  facet normal 0 1 0
    outer loop
      vertex 400.4 600.4 820
      vertex 800.6 600.4 840
      vertex 600.4 600.4 820
    endloop
  endfacet
  facet normal 0 1 0
    outer loop
      vertex 800.6 600.4 840
      vertex 400.4 600.4 820
      vertex 0 600.4 840
    endloop
  endfacet
  facet normal 0 1 -0
    outer loop
      vertex 400.2 600.4 820
      vertex 0 600.4 840
      vertex 400.4 600.4 820
    endloop
  endfacet
  facet normal 0 1 -0
    outer loop
      vertex 200.2 600.4 820
      vertex 0 600.4 840
      vertex 400.2 600.4 820
    endloop
  endfacet
  facet normal 0 1 -0
    outer loop
      vertex 200 600.4 820
      vertex 0 600.4 840
      vertex 200.2 600.4 820
    endloop
  endfacet
  facet normal 0 1 0
    outer loop
      vertex 0 600.4 840
      vertex 200 600.4 820
      vertex 0 600.4 820
    endloop
  endfacet
  facet normal 0 -1 0
    outer loop
      vertex 200 400.4 820
      vertex 0 400.4 840
      vertex 0 400.4 820
    endloop
  endfacet
  facet normal 0 -1 0
    outer loop
      vertex 200.2 400.4 820
      vertex 0 400.4 840
      vertex 200 400.4 820
    endloop
  endfacet
  facet normal 0 -1 0
    outer loop
      vertex 400.2 400.4 820
      vertex 0 400.4 840
      vertex 200.2 400.4 820
    endloop
  endfacet
  facet normal 0 -1 0
    outer loop
      vertex 0 400.4 840
      vertex 400.2 400.4 820
      vertex 800.6 400.4 840
    endloop
  endfacet
  facet normal 0 -1 0
    outer loop
      vertex 400.4 400.4 820
      vertex 800.6 400.4 840
      vertex 400.2 400.4 820
    endloop
  endfacet
  facet normal 0 -1 0
    outer loop
      vertex 600.4 400.4 820
      vertex 800.6 400.4 840
      vertex 400.4 400.4 820
    endloop
  endfacet
  facet normal 0 -1 0
    outer loop
      vertex 600.6 400.4 820
      vertex 800.6 400.4 840
      vertex 600.4 400.4 820
    endloop
  endfacet
  facet normal 0 -1 -0
    outer loop
      vertex 800.6 400.4 840
      vertex 600.6 400.4 820
      vertex 800.6 400.4 820
    endloop
  endfacet
  facet normal 0 1 0
    outer loop
      vertex 600.6 400.2 820
      vertex 800.6 400.2 840
      vertex 800.6 400.2 820
    endloop
  endfacet
  facet normal 0 1 0
    outer loop
      vertex 600.4 400.2 820
      vertex 800.6 400.2 840
      vertex 600.6 400.2 820
    endloop
  endfacet
  facet normal 0 1 0
    outer loop
      vertex 400.4 400.2 820
      vertex 800.6 400.2 840
      vertex 600.4 400.2 820
    endloop
  endfacet
  facet normal 0 1 0
    outer loop
      vertex 800.6 400.2 840
      vertex 400.4 400.2 820
      vertex 0 400.2 840
    endloop
  endfacet
  facet normal 0 1 -0
    outer loop
      vertex 400.2 400.2 820
      vertex 0 400.2 840
      vertex 400.4 400.2 820
    endloop
  endfacet
  facet normal 0 1 -0
    outer loop
      vertex 200.2 400.2 820
      vertex 0 400.2 840
      vertex 400.2 400.2 820
    endloop
  endfacet
  facet normal 0 1 -0
    outer loop
      vertex 200 400.2 820
      vertex 0 400.2 840
      vertex 200.2 400.2 820
    endloop
  endfacet
  facet normal 0 1 0
    outer loop
      vertex 0 400.2 840
      vertex 200 400.2 820
      vertex 0 400.2 820
    endloop
  endfacet
  facet normal 0 -1 0
    outer loop
      vertex 200 200.2 820
      vertex 0 200.2 840
      vertex 0 200.2 820
    endloop
  endfacet
  facet normal 0 -1 0
    outer loop
      vertex 200.2 200.2 820
      vertex 0 200.2 840
      vertex 200 200.2 820
    endloop
  endfacet
  facet normal 0 -1 0
    outer loop
      vertex 400.2 200.2 820
      vertex 0 200.2 840
      vertex 200.2 200.2 820
    endloop
  endfacet
  facet normal 0 -1 0
    outer loop
      vertex 0 200.2 840
      vertex 400.2 200.2 820
      vertex 800.6 200.2 840
    endloop
  endfacet
  facet normal 0 -1 0
    outer loop
      vertex 400.4 200.2 820
      vertex 800.6 200.2 840
      vertex 400.2 200.2 820
    endloop
  endfacet
  facet normal 0 -1 0
    outer loop
      vertex 600.4 200.2 820
      vertex 800.6 200.2 840
      vertex 400.4 200.2 820
    endloop
  endfacet
  facet normal 0 -1 0
    outer loop
      vertex 600.6 200.2 820
      vertex 800.6 200.2 840
      vertex 600.4 200.2 820
    endloop
  endfacet
  facet normal 0 -1 -0
    outer loop
      vertex 800.6 200.2 840
      vertex 600.6 200.2 820
      vertex 800.6 200.2 820
    endloop
  endfacet
  facet normal 0 1 0
    outer loop
      vertex 600.6 200 820
      vertex 800.6 200 840
      vertex 800.6 200 820
    endloop
  endfacet
  facet normal 0 1 0
    outer loop
      vertex 600.4 200 820
      vertex 800.6 200 840
      vertex 600.6 200 820
    endloop
  endfacet
  facet normal 0 1 0
    outer loop
      vertex 400.4 200 820
      vertex 800.6 200 840
      vertex 600.4 200 820
    endloop
  endfacet
  facet normal 0 1 0
    outer loop
      vertex 800.6 200 840
      vertex 400.4 200 820
      vertex 0 200 840
    endloop
  endfacet
  facet normal 0 1 -0
    outer loop
      vertex 400.2 200 820
      vertex 0 200 840
      vertex 400.4 200 820
    endloop
  endfacet
  facet normal 0 1 -0
    outer loop
      vertex 200.2 200 820
      vertex 0 200 840
      vertex 400.2 200 820
    endloop
  endfacet
  facet normal 0 1 -0
    outer loop
      vertex 200 200 820
      vertex 0 200 840
      vertex 200.2 200 820
    endloop
  endfacet
  facet normal 0 1 0
    outer loop
      vertex 0 200 840
      vertex 200 200 820
      vertex 0 200 820
    endloop
  endfacet
  facet normal 0 -1 0
    outer loop
      vertex 400.4 0 800
      vertex 600.4 0 820
      vertex 400.4 0 820
    endloop
  endfacet
  facet normal 0 -1 -0
    outer loop
      vertex 600.4 0 820
      vertex 400.4 0 800
      vertex 600.4 0 800
    endloop
  endfacet
  facet normal 0 -1 0
    outer loop
      vertex 200.2 0 800
      vertex 400.2 0 820
      vertex 200.2 0 820
    endloop
  endfacet
  facet normal 0 -1 -0
    outer loop
      vertex 400.2 0 820
      vertex 200.2 0 800
      vertex 400.2 0 800
    endloop
  endfacet
  facet normal 0 -1 0
    outer loop
      vertex 200.2 0 820
      vertex 0 0 840
      vertex 200 0 820
    endloop
  endfacet
  facet normal 0 -1 0
    outer loop
      vertex 0 0 800
      vertex 200 0 820
      vertex 0 0 840
    endloop
  endfacet
  facet normal 0 -1 -0
    outer loop
      vertex 200 0 820
      vertex 0 0 800
      vertex 200 0 800
    endloop
  endfacet
  facet normal 0 -1 0
    outer loop
      vertex 400.2 0 820
      vertex 0 0 840
      vertex 200.2 0 820
    endloop
  endfacet
  facet normal 0 -1 0
    outer loop
      vertex 0 0 840
      vertex 400.2 0 820
      vertex 800.6 0 840
    endloop
  endfacet
  facet normal 0 -1 0
    outer loop
      vertex 400.4 0 820
      vertex 800.6 0 840
      vertex 400.2 0 820
    endloop
  endfacet
  facet normal 0 -1 0
    outer loop
      vertex 600.4 0 820
      vertex 800.6 0 840
      vertex 400.4 0 820
    endloop
  endfacet
  facet normal 0 -1 0
    outer loop
      vertex 600.6 0 820
      vertex 800.6 0 840
      vertex 600.4 0 820
    endloop
  endfacet
  facet normal 0 -1 0
    outer loop
      vertex 800.6 0 800
      vertex 600.6 0 820
      vertex 600.6 0 800
    endloop
  endfacet
  facet normal 0 -1 0
    outer loop
      vertex 600.6 0 820
      vertex 800.6 0 800
      vertex 800.6 0 840
    endloop
  endfacet
  facet normal 0 0 -1
    outer loop
      vertex 300 594.808 800
      vertex 400.2 350 800
      vertex 300 421.603 800
    endloop
  endfacet
  facet normal 0 0 -1
    outer loop
      vertex 200.2 350 800
      vertex 300 421.603 800
      vertex 400.2 350 800
    endloop
  endfacet
  facet normal -0 0 -1
    outer loop
      vertex 300 421.603 800
      vertex 200.2 350 800
      vertex 200.2 421.603 800
    endloop
  endfacet
  facet normal 0 0 -1
    outer loop
      vertex 400.2 350 800
      vertex 300 594.808 800
      vertex 400.2 1051.2 800
    endloop
  endfacet
  facet normal 0 0 -1
    outer loop
      vertex 300 806.392 800
      vertex 400.2 1051.2 800
      vertex 300 594.808 800
    endloop
  endfacet
  facet normal 0 0 -1
    outer loop
      vertex 300 979.598 800
      vertex 400.2 1051.2 800
      vertex 300 806.392 800
    endloop
  endfacet
  facet normal 0 0 -1
    outer loop
      vertex 200.2 1051.2 800
      vertex 300 979.598 800
      vertex 200.2 979.598 800
    endloop
  endfacet
  facet normal 0 0 -1
    outer loop
      vertex 300 979.598 800
      vertex 200.2 1051.2 800
      vertex 400.2 1051.2 800
    endloop
  endfacet
  facet normal 0 0 -1
    outer loop
      vertex 0 350 800
      vertex 200 421.603 800
      vertex 200 350 800
    endloop
  endfacet
  facet normal -0 0 -1
    outer loop
      vertex 200 421.603 800
      vertex 0 350 800
      vertex 200 594.808 800
    endloop
  endfacet
  facet normal -0 0 -1
    outer loop
      vertex 200 594.808 800
      vertex 0 350 800
      vertex 200 806.392 800
    endloop
  endfacet
  facet normal 0 0 -1
    outer loop
      vertex 0 1051.2 800
      vertex 200 806.392 800
      vertex 0 350 800
    endloop
  endfacet
  facet normal 0 0 -1
    outer loop
      vertex 200 806.392 800
      vertex 0 1051.2 800
      vertex 200 979.598 800
    endloop
  endfacet
  facet normal 0 0 -1
    outer loop
      vertex 200 979.598 800
      vertex 0 1051.2 800
      vertex 200 1051.2 800
    endloop
  endfacet
  facet normal -0 0 1
    outer loop
      vertex 200 806.392 800
      vertex 200.2 594.808 800
      vertex 200.2 806.392 800
    endloop
  endfacet
  facet normal 0 0 1
    outer loop
      vertex 200.2 594.808 800
      vertex 200 806.392 800
      vertex 200 594.808 800
    endloop
  endfacet
  facet normal -0 0 1
    outer loop
      vertex 200 979.598 800
      vertex 200.2 806.392 800
      vertex 200.2 979.598 800
    endloop
  endfacet
  facet normal 0 0 1
    outer loop
      vertex 200.2 806.392 800
      vertex 200 979.598 800
      vertex 200 806.392 800
    endloop
  endfacet
  facet normal -0 0 1
    outer loop
      vertex 200 594.808 800
      vertex 200.2 421.603 800
      vertex 200.2 594.808 800
    endloop
  endfacet
  facet normal 0 0 1
    outer loop
      vertex 200.2 421.603 800
      vertex 200 594.808 800
      vertex 200 421.603 800
    endloop
  endfacet
  facet normal 0 0 -1
    outer loop
      vertex 600.6 421.603 800
      vertex 800.6 350 800
      vertex 600.6 350 800
    endloop
  endfacet
  facet normal 0 0 -1
    outer loop
      vertex 600.6 594.808 800
      vertex 800.6 350 800
      vertex 600.6 421.603 800
    endloop
  endfacet
  facet normal 0 0 -1
    outer loop
      vertex 800.6 350 800
      vertex 600.6 594.808 800
      vertex 800.6 1051.2 800
    endloop
  endfacet
  facet normal 0 0 -1
    outer loop
      vertex 600.6 806.392 800
      vertex 800.6 1051.2 800
      vertex 600.6 594.808 800
    endloop
  endfacet
  facet normal 0 0 -1
    outer loop
      vertex 600.6 979.598 800
      vertex 800.6 1051.2 800
      vertex 600.6 806.392 800
    endloop
  endfacet
  facet normal -0 0 -1
    outer loop
      vertex 800.6 1051.2 800
      vertex 600.6 979.598 800
      vertex 600.6 1051.2 800
    endloop
  endfacet
  facet normal 0 0 -1
    outer loop
      vertex 600.4 350 800
      vertex 500.6 421.603 800
      vertex 600.4 421.603 800
    endloop
  endfacet
  facet normal 0 0 -1
    outer loop
      vertex 400.4 350 800
      vertex 500.6 594.808 800
      vertex 500.6 421.603 800
    endloop
  endfacet
  facet normal -0 0 -1
    outer loop
      vertex 500.6 594.808 800
      vertex 400.4 350 800
      vertex 500.6 806.392 800
    endloop
  endfacet
  facet normal 0 0 -1
    outer loop
      vertex 400.4 1051.2 800
      vertex 500.6 806.392 800
      vertex 400.4 350 800
    endloop
  endfacet
  facet normal 0 0 -1
    outer loop
      vertex 400.4 350 800
      vertex 500.6 421.603 800
      vertex 600.4 350 800
    endloop
  endfacet
  facet normal 0 0 -1
    outer loop
      vertex 500.6 979.598 800
      vertex 600.4 1051.2 800
      vertex 600.4 979.598 800
    endloop
  endfacet
  facet normal 0 0 -1
    outer loop
      vertex 500.6 979.598 800
      vertex 400.4 1051.2 800
      vertex 600.4 1051.2 800
    endloop
  endfacet
  facet normal 0 0 -1
    outer loop
      vertex 500.6 806.392 800
      vertex 400.4 1051.2 800
      vertex 500.6 979.598 800
    endloop
  endfacet
  facet normal 0 0 -1
    outer loop
      vertex 0 0 800
      vertex 200 200 800
      vertex 200 0 800
    endloop
  endfacet
  facet normal -0 0 -1
    outer loop
      vertex 200 200 800
      vertex 0 0 800
      vertex 0 200 800
    endloop
  endfacet
  facet normal 0 0 -1
    outer loop
      vertex 0 1201.2 800
      vertex 200 1401.2 800
      vertex 200 1201.2 800
    endloop
  endfacet
  facet normal -0 0 -1
    outer loop
      vertex 200 1401.2 800
      vertex 0 1201.2 800
      vertex 0 1401.2 800
    endloop
  endfacet
  facet normal 0 0 -1
    outer loop
      vertex 200.2 1201.2 800
      vertex 400.2 1401.2 800
      vertex 400.2 1201.2 800
    endloop
  endfacet
  facet normal -0 0 -1
    outer loop
      vertex 400.2 1401.2 800
      vertex 200.2 1201.2 800
      vertex 200.2 1401.2 800
    endloop
  endfacet
  facet normal 0 0 -1
    outer loop
      vertex 200.2 0 800
      vertex 400.2 200 800
      vertex 400.2 0 800
    endloop
  endfacet
  facet normal -0 0 -1
    outer loop
      vertex 400.2 200 800
      vertex 200.2 0 800
      vertex 200.2 200 800
    endloop
  endfacet
  facet normal 0 0 -1
    outer loop
      vertex 400.4 1201.2 800
      vertex 600.4 1401.2 800
      vertex 600.4 1201.2 800
    endloop
  endfacet
  facet normal -0 0 -1
    outer loop
      vertex 600.4 1401.2 800
      vertex 400.4 1201.2 800
      vertex 400.4 1401.2 800
    endloop
  endfacet
  facet normal 0 0 -1
    outer loop
      vertex 400.4 0 800
      vertex 600.4 200 800
      vertex 600.4 0 800
    endloop
  endfacet
  facet normal -0 0 -1
    outer loop
      vertex 600.4 200 800
      vertex 400.4 0 800
      vertex 400.4 200 800
    endloop
  endfacet
  facet normal 0 0 -1
    outer loop
      vertex 600.6 1201.2 800
      vertex 800.6 1401.2 800
      vertex 800.6 1201.2 800
    endloop
  endfacet
  facet normal -0 0 -1
    outer loop
      vertex 800.6 1401.2 800
      vertex 600.6 1201.2 800
      vertex 600.6 1401.2 800
    endloop
  endfacet
  facet normal 0 0 -1
    outer loop
      vertex 600.6 0 800
      vertex 800.6 200 800
      vertex 800.6 0 800
    endloop
  endfacet
  facet normal -0 0 -1
    outer loop
      vertex 800.6 200 800
      vertex 600.6 0 800
      vertex 600.6 200 800
    endloop
  endfacet
  facet normal -0 0 1
    outer loop
      vertex 600.4 806.392 800
      vertex 600.6 594.808 800
      vertex 600.6 806.392 800
    endloop
  endfacet
  facet normal 0 0 1
    outer loop
      vertex 600.6 594.808 800
      vertex 600.4 806.392 800
      vertex 600.4 594.808 800
    endloop
  endfacet
  facet normal -0 0 1
    outer loop
      vertex 600.4 979.598 800
      vertex 600.6 806.392 800
      vertex 600.6 979.598 800
    endloop
  endfacet
  facet normal 0 0 1
    outer loop
      vertex 600.6 806.392 800
      vertex 600.4 979.598 800
      vertex 600.4 806.392 800
    endloop
  endfacet
  facet normal -0 0 1
    outer loop
      vertex 600.4 594.808 800
      vertex 600.6 421.603 800
      vertex 600.6 594.808 800
    endloop
  endfacet
  facet normal 0 0 1
    outer loop
      vertex 600.6 421.603 800
      vertex 600.4 594.808 800
      vertex 600.4 421.603 800
    endloop
  endfacet
  facet normal -0 0 1
    outer loop
      vertex 200 1201.2 800
      vertex 200.2 1051.2 800
      vertex 200.2 1201.2 800
    endloop
  endfacet
  facet normal 0 0 1
    outer loop
      vertex 200.2 1051.2 800
      vertex 200 1201.2 800
      vertex 200 1051.2 800
    endloop
  endfacet
  facet normal -0 0 1
    outer loop
      vertex 400.2 1201.2 800
      vertex 400.4 1051.2 800
      vertex 400.4 1201.2 800
    endloop
  endfacet
  facet normal 0 0 1
    outer loop
      vertex 400.4 1051.2 800
      vertex 400.2 1201.2 800
      vertex 400.2 1051.2 800
    endloop
  endfacet
  facet normal -0 0 1
    outer loop
      vertex 600.4 1201.2 800
      vertex 600.6 1051.2 800
      vertex 600.6 1201.2 800
    endloop
  endfacet
  facet normal 0 0 1
    outer loop
      vertex 600.6 1051.2 800
      vertex 600.4 1201.2 800
      vertex 600.4 1051.2 800
    endloop
  endfacet
  facet normal -0 0 1
    outer loop
      vertex 200 350 800
      vertex 200.2 200 800
      vertex 200.2 350 800
    endloop
  endfacet
  facet normal 0 0 1
    outer loop
      vertex 200.2 200 800
      vertex 200 350 800
      vertex 200 200 800
    endloop
  endfacet
  facet normal -0 0 1
    outer loop
      vertex 400.2 350 800
      vertex 400.4 200 800
      vertex 400.4 350 800
    endloop
  endfacet
  facet normal 0 0 1
    outer loop
      vertex 400.4 200 800
      vertex 400.2 350 800
      vertex 400.2 200 800
    endloop
  endfacet
  facet normal -0 0 1
    outer loop
      vertex 600.4 350 800
      vertex 600.6 200 800
      vertex 600.6 350 800
    endloop
  endfacet
  facet normal 0 0 1
    outer loop
      vertex 600.6 200 800
      vertex 600.4 350 800
      vertex 600.4 200 800
    endloop
  endfacet
  facet normal 1 -0 0
    outer loop
      vertex 200 1201.2 820
      vertex 200 1401.2 800
      vertex 200 1401.2 820
    endloop
  endfacet
  facet normal 1 0 0
    outer loop
      vertex 200 1201.2 820
      vertex 200 1201.2 800
      vertex 200 1401.2 800
    endloop
  endfacet
  facet normal 1 -0 0
    outer loop
      vertex 200 1201 820
      vertex 200 1201.2 800
      vertex 200 1201.2 820
    endloop
  endfacet
  facet normal 1 0 0
    outer loop
      vertex 200 1201 820
      vertex 200 1051.2 800
      vertex 200 1201.2 800
    endloop
  endfacet
  facet normal 1 -0 0
    outer loop
      vertex 200 1001 820
      vertex 200 1051.2 800
      vertex 200 1201 820
    endloop
  endfacet
  facet normal 1 0 0
    outer loop
      vertex 200 979.598 800
      vertex 200 1001 820
      vertex 200 1000.8 820
    endloop
  endfacet
  facet normal 1 0 0
    outer loop
      vertex 200 1001 820
      vertex 200 979.598 800
      vertex 200 1051.2 800
    endloop
  endfacet
  facet normal 1 -0 0
    outer loop
      vertex 200 800.8 820
      vertex 200 979.598 800
      vertex 200 1000.8 820
    endloop
  endfacet
  facet normal 1 0 0
    outer loop
      vertex 200 979.598 800
      vertex 200 800.8 820
      vertex 200 806.392 800
    endloop
  endfacet
  facet normal 1 -0 0
    outer loop
      vertex 200 800.6 820
      vertex 200 806.392 800
      vertex 200 800.8 820
    endloop
  endfacet
  facet normal 1 -0 0
    outer loop
      vertex 200 600.6 820
      vertex 200 806.392 800
      vertex 200 800.6 820
    endloop
  endfacet
  facet normal 1 0 0
    outer loop
      vertex 200 594.808 800
      vertex 200 600.6 820
      vertex 200 600.4 820
    endloop
  endfacet
  facet normal 1 0 0
    outer loop
      vertex 200 600.6 820
      vertex 200 594.808 800
      vertex 200 806.392 800
    endloop
  endfacet
  facet normal 1 0 0
    outer loop
      vertex 200 600.4 820
      vertex 200 421.603 800
      vertex 200 594.808 800
    endloop
  endfacet
  facet normal 1 -0 0
    outer loop
      vertex 200 400.4 820
      vertex 200 421.603 800
      vertex 200 600.4 820
    endloop
  endfacet
  facet normal 1 -0 0
    outer loop
      vertex 200 400.2 820
      vertex 200 421.603 800
      vertex 200 400.4 820
    endloop
  endfacet
  facet normal 1 0 0
    outer loop
      vertex 200 400.2 820
      vertex 200 350 800
      vertex 200 421.603 800
    endloop
  endfacet
  facet normal 1 -0 0
    outer loop
      vertex 200 200.2 820
      vertex 200 350 800
      vertex 200 400.2 820
    endloop
  endfacet
  facet normal 1 0 0
    outer loop
      vertex 200 200 800
      vertex 200 200.2 820
      vertex 200 200 820
    endloop
  endfacet
  facet normal 1 0 0
    outer loop
      vertex 200 200.2 820
      vertex 200 200 800
      vertex 200 350 800
    endloop
  endfacet
  facet normal 1 -0 0
    outer loop
      vertex 200 0 820
      vertex 200 200 800
      vertex 200 200 820
    endloop
  endfacet
  facet normal 1 0 0
    outer loop
      vertex 200 200 800
      vertex 200 0 820
      vertex 200 0 800
    endloop
  endfacet
  facet normal -1 0 0
    outer loop
      vertex 200.2 1201.2 800
      vertex 200.2 1401.2 820
      vertex 200.2 1401.2 800
    endloop
  endfacet
  facet normal -1 0 0
    outer loop
      vertex 200.2 1201.2 800
      vertex 200.2 1201.2 820
      vertex 200.2 1401.2 820
    endloop
  endfacet
  facet normal -1 0 0
    outer loop
      vertex 200.2 1201.2 800
      vertex 200.2 1201 820
      vertex 200.2 1201.2 820
    endloop
  endfacet
  facet normal -1 0 0
    outer loop
      vertex 200.2 1051.2 800
      vertex 200.2 1201 820
      vertex 200.2 1201.2 800
    endloop
  endfacet
  facet normal -1 0 0
    outer loop
      vertex 200.2 1051.2 800
      vertex 200.2 1001 820
      vertex 200.2 1201 820
    endloop
  endfacet
  facet normal -1 0 0
    outer loop
      vertex 200.2 979.598 800
      vertex 200.2 1001 820
      vertex 200.2 1051.2 800
    endloop
  endfacet
  facet normal -1 -0 0
    outer loop
      vertex 200.2 1001 820
      vertex 200.2 979.598 800
      vertex 200.2 1000.8 820
    endloop
  endfacet
  facet normal -1 0 0
    outer loop
      vertex 200.2 800.8 820
      vertex 200.2 979.598 800
      vertex 200.2 806.392 800
    endloop
  endfacet
  facet normal -1 0 0
    outer loop
      vertex 200.2 979.598 800
      vertex 200.2 800.8 820
      vertex 200.2 1000.8 820
    endloop
  endfacet
  facet normal -1 0 0
    outer loop
      vertex 200.2 806.392 800
      vertex 200.2 800.6 820
      vertex 200.2 800.8 820
    endloop
  endfacet
  facet normal -1 0 0
    outer loop
      vertex 200.2 806.392 800
      vertex 200.2 600.6 820
      vertex 200.2 800.6 820
    endloop
  endfacet
  facet normal -1 0 0
    outer loop
      vertex 200.2 594.808 800
      vertex 200.2 600.6 820
      vertex 200.2 806.392 800
    endloop
  endfacet
  facet normal -1 -0 0
    outer loop
      vertex 200.2 600.6 820
      vertex 200.2 594.808 800
      vertex 200.2 600.4 820
    endloop
  endfacet
  facet normal -1 0 0
    outer loop
      vertex 200.2 421.603 800
      vertex 200.2 600.4 820
      vertex 200.2 594.808 800
    endloop
  endfacet
  facet normal -1 0 0
    outer loop
      vertex 200.2 421.603 800
      vertex 200.2 400.4 820
      vertex 200.2 600.4 820
    endloop
  endfacet
  facet normal -1 0 0
    outer loop
      vertex 200.2 421.603 800
      vertex 200.2 400.2 820
      vertex 200.2 400.4 820
    endloop
  endfacet
  facet normal -1 0 0
    outer loop
      vertex 200.2 350 800
      vertex 200.2 400.2 820
      vertex 200.2 421.603 800
    endloop
  endfacet
  facet normal -1 0 0
    outer loop
      vertex 200.2 350 800
      vertex 200.2 200.2 820
      vertex 200.2 400.2 820
    endloop
  endfacet
  facet normal -1 0 0
    outer loop
      vertex 200.2 200 800
      vertex 200.2 200.2 820
      vertex 200.2 350 800
    endloop
  endfacet
  facet normal -1 0 0
    outer loop
      vertex 200.2 200 800
      vertex 200.2 200 820
      vertex 200.2 200.2 820
    endloop
  endfacet
  facet normal -1 0 0
    outer loop
      vertex 200.2 0 800
      vertex 200.2 200 820
      vertex 200.2 200 800
    endloop
  endfacet
  facet normal -1 -0 0
    outer loop
      vertex 200.2 200 820
      vertex 200.2 0 800
      vertex 200.2 0 820
    endloop
  endfacet
  facet normal 1 -0 0
    outer loop
      vertex 400.2 1201.2 820
      vertex 400.2 1401.2 800
      vertex 400.2 1401.2 820
    endloop
  endfacet
  facet normal 1 0 0
    outer loop
      vertex 400.2 1201.2 820
      vertex 400.2 1201.2 800
      vertex 400.2 1401.2 800
    endloop
  endfacet
  facet normal 1 -0 0
    outer loop
      vertex 400.2 1201 820
      vertex 400.2 1201.2 800
      vertex 400.2 1201.2 820
    endloop
  endfacet
  facet normal 1 0 0
    outer loop
      vertex 400.2 1201 820
      vertex 400.2 1051.2 800
      vertex 400.2 1201.2 800
    endloop
  endfacet
  facet normal 1 -0 0
    outer loop
      vertex 400.2 1001 820
      vertex 400.2 1051.2 800
      vertex 400.2 1201 820
    endloop
  endfacet
  facet normal 1 -0 0
    outer loop
      vertex 400.2 1000.8 820
      vertex 400.2 1051.2 800
      vertex 400.2 1001 820
    endloop
  endfacet
  facet normal 1 -0 0
    outer loop
      vertex 400.2 800.8 820
      vertex 400.2 1051.2 800
      vertex 400.2 1000.8 820
    endloop
  endfacet
  facet normal 1 -0 0
    outer loop
      vertex 400.2 800.6 820
      vertex 400.2 1051.2 800
      vertex 400.2 800.8 820
    endloop
  endfacet
  facet normal 1 -0 0
    outer loop
      vertex 400.2 600.6 820
      vertex 400.2 1051.2 800
      vertex 400.2 800.6 820
    endloop
  endfacet
  facet normal 1 0 0
    outer loop
      vertex 400.2 350 800
      vertex 400.2 600.6 820
      vertex 400.2 600.4 820
    endloop
  endfacet
  facet normal 1 0 0
    outer loop
      vertex 400.2 350 800
      vertex 400.2 600.4 820
      vertex 400.2 400.4 820
    endloop
  endfacet
  facet normal 1 0 0
    outer loop
      vertex 400.2 350 800
      vertex 400.2 400.4 820
      vertex 400.2 400.2 820
    endloop
  endfacet
  facet normal 1 0 0
    outer loop
      vertex 400.2 600.6 820
      vertex 400.2 350 800
      vertex 400.2 1051.2 800
    endloop
  endfacet
  facet normal 1 -0 0
    outer loop
      vertex 400.2 200.2 820
      vertex 400.2 350 800
      vertex 400.2 400.2 820
    endloop
  endfacet
  facet normal 1 0 0
    outer loop
      vertex 400.2 200 800
      vertex 400.2 200.2 820
      vertex 400.2 200 820
    endloop
  endfacet
  facet normal 1 0 0
    outer loop
      vertex 400.2 200.2 820
      vertex 400.2 200 800
      vertex 400.2 350 800
    endloop
  endfacet
  facet normal 1 -0 0
    outer loop
      vertex 400.2 0 820
      vertex 400.2 200 800
      vertex 400.2 200 820
    endloop
  endfacet
  facet normal 1 0 0
    outer loop
      vertex 400.2 200 800
      vertex 400.2 0 820
      vertex 400.2 0 800
    endloop
  endfacet
  facet normal -1 0 0
    outer loop
      vertex 400.4 1201.2 800
      vertex 400.4 1401.2 820
      vertex 400.4 1401.2 800
    endloop
  endfacet
  facet normal -1 0 0
    outer loop
      vertex 400.4 1201.2 800
      vertex 400.4 1201.2 820
      vertex 400.4 1401.2 820
    endloop
  endfacet
  facet normal -1 0 0
    outer loop
      vertex 400.4 1201.2 800
      vertex 400.4 1201 820
      vertex 400.4 1201.2 820
    endloop
  endfacet
  facet normal -1 0 0
    outer loop
      vertex 400.4 1051.2 800
      vertex 400.4 1201 820
      vertex 400.4 1201.2 800
    endloop
  endfacet
  facet normal -1 0 0
    outer loop
      vertex 400.4 1051.2 800
      vertex 400.4 1001 820
      vertex 400.4 1201 820
    endloop
  endfacet
  facet normal -1 0 0
    outer loop
      vertex 400.4 1051.2 800
      vertex 400.4 1000.8 820
      vertex 400.4 1001 820
    endloop
  endfacet
  facet normal -1 0 0
    outer loop
      vertex 400.4 1051.2 800
      vertex 400.4 800.8 820
      vertex 400.4 1000.8 820
    endloop
  endfacet
  facet normal -1 0 0
    outer loop
      vertex 400.4 1051.2 800
      vertex 400.4 800.6 820
      vertex 400.4 800.8 820
    endloop
  endfacet
  facet normal -1 0 0
    outer loop
      vertex 400.4 1051.2 800
      vertex 400.4 600.6 820
      vertex 400.4 800.6 820
    endloop
  endfacet
  facet normal -1 0 0
    outer loop
      vertex 400.4 350 800
      vertex 400.4 600.6 820
      vertex 400.4 1051.2 800
    endloop
  endfacet
  facet normal -1 -0 0
    outer loop
      vertex 400.4 600.6 820
      vertex 400.4 350 800
      vertex 400.4 600.4 820
    endloop
  endfacet
  facet normal -1 -0 0
    outer loop
      vertex 400.4 600.4 820
      vertex 400.4 350 800
      vertex 400.4 400.4 820
    endloop
  endfacet
  facet normal -1 -0 0
    outer loop
      vertex 400.4 400.4 820
      vertex 400.4 350 800
      vertex 400.4 400.2 820
    endloop
  endfacet
  facet normal -1 0 0
    outer loop
      vertex 400.4 350 800
      vertex 400.4 200.2 820
      vertex 400.4 400.2 820
    endloop
  endfacet
  facet normal -1 0 0
    outer loop
      vertex 400.4 200 800
      vertex 400.4 200.2 820
      vertex 400.4 350 800
    endloop
  endfacet
  facet normal -1 0 0
    outer loop
      vertex 400.4 200 800
      vertex 400.4 200 820
      vertex 400.4 200.2 820
    endloop
  endfacet
  facet normal -1 0 0
    outer loop
      vertex 400.4 0 800
      vertex 400.4 200 820
      vertex 400.4 200 800
    endloop
  endfacet
  facet normal -1 -0 0
    outer loop
      vertex 400.4 200 820
      vertex 400.4 0 800
      vertex 400.4 0 820
    endloop
  endfacet
  facet normal 1 -0 0
    outer loop
      vertex 600.4 1201.2 820
      vertex 600.4 1401.2 800
      vertex 600.4 1401.2 820
    endloop
  endfacet
  facet normal 1 0 0
    outer loop
      vertex 600.4 1201.2 820
      vertex 600.4 1201.2 800
      vertex 600.4 1401.2 800
    endloop
  endfacet
  facet normal 1 -0 0
    outer loop
      vertex 600.4 1201 820
      vertex 600.4 1201.2 800
      vertex 600.4 1201.2 820
    endloop
  endfacet
  facet normal 1 0 0
    outer loop
      vertex 600.4 1201 820
      vertex 600.4 1051.2 800
      vertex 600.4 1201.2 800
    endloop
  endfacet
  facet normal 1 -0 0
    outer loop
      vertex 600.4 1001 820
      vertex 600.4 1051.2 800
      vertex 600.4 1201 820
    endloop
  endfacet
  facet normal 1 0 0
    outer loop
      vertex 600.4 979.598 800
      vertex 600.4 1001 820
      vertex 600.4 1000.8 820
    endloop
  endfacet
  facet normal 1 0 0
    outer loop
      vertex 600.4 1001 820
      vertex 600.4 979.598 800
      vertex 600.4 1051.2 800
    endloop
  endfacet
  facet normal 1 -0 0
    outer loop
      vertex 600.4 800.8 820
      vertex 600.4 979.598 800
      vertex 600.4 1000.8 820
    endloop
  endfacet
  facet normal 1 0 0
    outer loop
      vertex 600.4 979.598 800
      vertex 600.4 800.8 820
      vertex 600.4 806.392 800
    endloop
  endfacet
  facet normal 1 -0 0
    outer loop
      vertex 600.4 800.6 820
      vertex 600.4 806.392 800
      vertex 600.4 800.8 820
    endloop
  endfacet
  facet normal 1 -0 0
    outer loop
      vertex 600.4 600.6 820
      vertex 600.4 806.392 800
      vertex 600.4 800.6 820
    endloop
  endfacet
  facet normal 1 0 0
    outer loop
      vertex 600.4 594.808 800
      vertex 600.4 600.6 820
      vertex 600.4 600.4 820
    endloop
  endfacet
  facet normal 1 0 0
    outer loop
      vertex 600.4 600.6 820
      vertex 600.4 594.808 800
      vertex 600.4 806.392 800
    endloop
  endfacet
  facet normal 1 0 0
    outer loop
      vertex 600.4 600.4 820
      vertex 600.4 421.603 800
      vertex 600.4 594.808 800
    endloop
  endfacet
  facet normal 1 -0 0
    outer loop
      vertex 600.4 400.4 820
      vertex 600.4 421.603 800
      vertex 600.4 600.4 820
    endloop
  endfacet
  facet normal 1 -0 0
    outer loop
      vertex 600.4 400.2 820
      vertex 600.4 421.603 800
      vertex 600.4 400.4 820
    endloop
  endfacet
  facet normal 1 0 0
    outer loop
      vertex 600.4 400.2 820
      vertex 600.4 350 800
      vertex 600.4 421.603 800
    endloop
  endfacet
  facet normal 1 -0 0
    outer loop
      vertex 600.4 200.2 820
      vertex 600.4 350 800
      vertex 600.4 400.2 820
    endloop
  endfacet
  facet normal 1 0 0
    outer loop
      vertex 600.4 200 800
      vertex 600.4 200.2 820
      vertex 600.4 200 820
    endloop
  endfacet
  facet normal 1 0 0
    outer loop
      vertex 600.4 200.2 820
      vertex 600.4 200 800
      vertex 600.4 350 800
    endloop
  endfacet
  facet normal 1 -0 0
    outer loop
      vertex 600.4 0 820
      vertex 600.4 200 800
      vertex 600.4 200 820
    endloop
  endfacet
  facet normal 1 0 0
    outer loop
      vertex 600.4 200 800
      vertex 600.4 0 820
      vertex 600.4 0 800
    endloop
  endfacet
  facet normal -1 0 0
    outer loop
      vertex 600.6 1201.2 800
      vertex 600.6 1401.2 820
      vertex 600.6 1401.2 800
    endloop
  endfacet
  facet normal -1 0 0
    outer loop
      vertex 600.6 1201.2 800
      vertex 600.6 1201.2 820
      vertex 600.6 1401.2 820
    endloop
  endfacet
  facet normal -1 0 0
    outer loop
      vertex 600.6 1201.2 800
      vertex 600.6 1201 820
      vertex 600.6 1201.2 820
    endloop
  endfacet
  facet normal -1 0 0
    outer loop
      vertex 600.6 1051.2 800
      vertex 600.6 1201 820
      vertex 600.6 1201.2 800
    endloop
  endfacet
  facet normal -1 0 0
    outer loop
      vertex 600.6 1051.2 800
      vertex 600.6 1001 820
      vertex 600.6 1201 820
    endloop
  endfacet
  facet normal -1 0 0
    outer loop
      vertex 600.6 979.598 800
      vertex 600.6 1001 820
      vertex 600.6 1051.2 800
    endloop
  endfacet
  facet normal -1 -0 0
    outer loop
      vertex 600.6 1001 820
      vertex 600.6 979.598 800
      vertex 600.6 1000.8 820
    endloop
  endfacet
  facet normal -1 0 0
    outer loop
      vertex 600.6 800.8 820
      vertex 600.6 979.598 800
      vertex 600.6 806.392 800
    endloop
  endfacet
  facet normal -1 0 0
    outer loop
      vertex 600.6 979.598 800
      vertex 600.6 800.8 820
      vertex 600.6 1000.8 820
    endloop
  endfacet
  facet normal -1 0 0
    outer loop
      vertex 600.6 806.392 800
      vertex 600.6 800.6 820
      vertex 600.6 800.8 820
    endloop
  endfacet
  facet normal -1 0 0
    outer loop
      vertex 600.6 806.392 800
      vertex 600.6 600.6 820
      vertex 600.6 800.6 820
    endloop
  endfacet
  facet normal -1 0 0
    outer loop
      vertex 600.6 594.808 800
      vertex 600.6 600.6 820
      vertex 600.6 806.392 800
    endloop
  endfacet
  facet normal -1 -0 0
    outer loop
      vertex 600.6 600.6 820
      vertex 600.6 594.808 800
      vertex 600.6 600.4 820
    endloop
  endfacet
  facet normal -1 0 0
    outer loop
      vertex 600.6 421.603 800
      vertex 600.6 600.4 820
      vertex 600.6 594.808 800
    endloop
  endfacet
  facet normal -1 0 0
    outer loop
      vertex 600.6 421.603 800
      vertex 600.6 400.4 820
      vertex 600.6 600.4 820
    endloop
  endfacet
  facet normal -1 0 0
    outer loop
      vertex 600.6 421.603 800
      vertex 600.6 400.2 820
      vertex 600.6 400.4 820
    endloop
  endfacet
  facet normal -1 0 0
    outer loop
      vertex 600.6 350 800
      vertex 600.6 400.2 820
      vertex 600.6 421.603 800
    endloop
  endfacet
  facet normal -1 0 0
    outer loop
      vertex 600.6 350 800
      vertex 600.6 200.2 820
      vertex 600.6 400.2 820
    endloop
  endfacet
  facet normal -1 0 0
    outer loop
      vertex 600.6 200 800
      vertex 600.6 200.2 820
      vertex 600.6 350 800
    endloop
  endfacet
  facet normal -1 0 0
    outer loop
      vertex 600.6 200 800
      vertex 600.6 200 820
      vertex 600.6 200.2 820
    endloop
  endfacet
  facet normal -1 0 0
    outer loop
      vertex 600.6 0 800
      vertex 600.6 200 820
      vertex 600.6 200 800
    endloop
  endfacet
  facet normal -1 -0 0
    outer loop
      vertex 600.6 200 820
      vertex 600.6 0 800
      vertex 600.6 0 820
    endloop
  endfacet
  facet normal 1 -0 0
    outer loop
      vertex 800.6 1051.2 675.981
      vertex 800.6 1201.2 650
      vertex 800.6 1201.2 800
    endloop
  endfacet
  facet normal 1 0 0
    outer loop
      vertex 800.6 1051.2 675.981
      vertex 800.6 1201.2 800
      vertex 800.6 1051.2 800
    endloop
  endfacet
  facet normal 1 0 0
    outer loop
      vertex 800.6 1201.2 650
      vertex 800.6 1051.2 675.981
      vertex 800.6 1066.2 650
    endloop
  endfacet
  facet normal 1 -0 0
    outer loop
      vertex 800.6 200 800
      vertex 800.6 350 675.981
      vertex 800.6 350 800
    endloop
  endfacet
  facet normal 1 0 0
    outer loop
      vertex 800.6 200 650
      vertex 800.6 350 675.981
      vertex 800.6 200 800
    endloop
  endfacet
  facet normal 1 0 0
    outer loop
      vertex 800.6 350 675.981
      vertex 800.6 200 650
      vertex 800.6 335 650
    endloop
  endfacet
  facet normal 0 -1 0
    outer loop
      vertex 200 1051.2 675.981
      vertex 200 1051.2 800
      vertex 0 1051.2 800
    endloop
  endfacet
  facet normal 0 -1 0
    outer loop
      vertex 200 1051.2 800
      vertex 200 1051.2 675.981
      vertex 200.2 1051.2 800
    endloop
  endfacet
  facet normal 0 -1 0
    outer loop
      vertex 300 1051.2 675.981
      vertex 200.2 1051.2 800
      vertex 200 1051.2 675.981
    endloop
  endfacet
  facet normal 0 -1 0
    outer loop
      vertex 200.2 1051.2 800
      vertex 300 1051.2 675.981
      vertex 400.2 1051.2 800
    endloop
  endfacet
  facet normal 0 -1 0
    outer loop
      vertex 500.6 1051.2 675.981
      vertex 400.4 1051.2 800
      vertex 300 1051.2 675.981
    endloop
  endfacet
  facet normal 0 -1 0
    outer loop
      vertex 400.4 1051.2 800
      vertex 500.6 1051.2 675.981
      vertex 600.4 1051.2 800
    endloop
  endfacet
  facet normal 0 -1 -0
    outer loop
      vertex 400.2 1051.2 800
      vertex 300 1051.2 675.981
      vertex 400.4 1051.2 800
    endloop
  endfacet
  facet normal 0 -1 0
    outer loop
      vertex 0 1051.2 675.981
      vertex 200 1051.2 675.981
      vertex 0 1051.2 800
    endloop
  endfacet
  facet normal 0 -1 0
    outer loop
      vertex 600.6 1051.2 675.981
      vertex 600.4 1051.2 800
      vertex 500.6 1051.2 675.981
    endloop
  endfacet
  facet normal 0 -1 0
    outer loop
      vertex 600.4 1051.2 800
      vertex 600.6 1051.2 675.981
      vertex 600.6 1051.2 800
    endloop
  endfacet
  facet normal 0 -1 0
    outer loop
      vertex 600.6 1051.2 800
      vertex 600.6 1051.2 675.981
      vertex 800.6 1051.2 800
    endloop
  endfacet
  facet normal 0 -1 0
    outer loop
      vertex 600.6 1051.2 675.981
      vertex 800.6 1051.2 675.981
      vertex 800.6 1051.2 800
    endloop
  endfacet
  facet normal 0 1 -0
    outer loop
      vertex 800.6 1201.2 650
      vertex 600.6 1201.2 800
      vertex 800.6 1201.2 800
    endloop
  endfacet
  facet normal 0 1 0
    outer loop
      vertex 600.6 1201.2 800
      vertex 800.6 1201.2 650
      vertex 600.4 1201.2 800
    endloop
  endfacet
  facet normal 0 1 0
    outer loop
      vertex 600.4 1201.2 800
      vertex 800.6 1201.2 650
      vertex 400.4 1201.2 800
    endloop
  endfacet
  facet normal 0 1 0
    outer loop
      vertex 400.4 1201.2 800
      vertex 800.6 1201.2 650
      vertex 400.2 1201.2 800
    endloop
  endfacet
  facet normal 0 1 0
    outer loop
      vertex 0 1201.2 650
      vertex 400.2 1201.2 800
      vertex 800.6 1201.2 650
    endloop
  endfacet
  facet normal 0 1 0
    outer loop
      vertex 400.2 1201.2 800
      vertex 0 1201.2 650
      vertex 200.2 1201.2 800
    endloop
  endfacet
  facet normal 0 1 0
    outer loop
      vertex 200.2 1201.2 800
      vertex 0 1201.2 650
      vertex 200 1201.2 800
    endloop
  endfacet
  facet normal 0 1 0
    outer loop
      vertex 200 1201.2 800
      vertex 0 1201.2 650
      vertex 0 1201.2 800
    endloop
  endfacet
  facet normal 0 0 -1
    outer loop
      vertex 800.6 1066.2 650
      vertex 600.6 1066.2 650
      vertex 800.6 1201.2 650
    endloop
  endfacet
  facet normal 0 0 -1
    outer loop
      vertex 500.6 1066.2 650
      vertex 800.6 1201.2 650
      vertex 600.6 1066.2 650
    endloop
  endfacet
  facet normal 0 0 -1
    outer loop
      vertex 500.6 1066.2 650
      vertex 300 1066.2 650
      vertex 800.6 1201.2 650
    endloop
  endfacet
  facet normal 0 0 -1
    outer loop
      vertex 0 1201.2 650
      vertex 300 1066.2 650
      vertex 200 1066.2 650
    endloop
  endfacet
  facet normal 0 0 -1
    outer loop
      vertex 0 1201.2 650
      vertex 200 1066.2 650
      vertex 0 1066.2 650
    endloop
  endfacet
  facet normal 0 0 -1
    outer loop
      vertex 300 1066.2 650
      vertex 0 1201.2 650
      vertex 800.6 1201.2 650
    endloop
  endfacet
  facet normal 0 -0.866027 -0.499997
    outer loop
      vertex 600.6 1066.2 650
      vertex 800.6 1051.2 675.981
      vertex 600.6 1051.2 675.981
    endloop
  endfacet
  facet normal 0 -0.866027 -0.499997
    outer loop
      vertex 800.6 1051.2 675.981
      vertex 600.6 1066.2 650
      vertex 800.6 1066.2 650
    endloop
  endfacet
  facet normal 0 -0.866027 -0.499997
    outer loop
      vertex 0 1066.2 650
      vertex 200 1051.2 675.981
      vertex 0 1051.2 675.981
    endloop
  endfacet
  facet normal 0 -0.866027 -0.499997
    outer loop
      vertex 200 1051.2 675.981
      vertex 0 1066.2 650
      vertex 200 1066.2 650
    endloop
  endfacet
  facet normal 0 -0.866027 -0.499997
    outer loop
      vertex 300 1066.2 650
      vertex 500.6 1051.2 675.981
      vertex 300 1051.2 675.981
    endloop
  endfacet
  facet normal 0 -0.866027 -0.499997
    outer loop
      vertex 500.6 1051.2 675.981
      vertex 300 1066.2 650
      vertex 500.6 1066.2 650
    endloop
  endfacet
  facet normal 0 1 0
    outer loop
      vertex 600.6 350 675.981
      vertex 600.6 350 800
      vertex 800.6 350 800
    endloop
  endfacet
  facet normal 0 1 0
    outer loop
      vertex 600.6 350 800
      vertex 600.6 350 675.981
      vertex 600.4 350 800
    endloop
  endfacet
  facet normal 0 1 0
    outer loop
      vertex 500.6 350 675.981
      vertex 600.4 350 800
      vertex 600.6 350 675.981
    endloop
  endfacet
  facet normal 0 1 0
    outer loop
      vertex 600.4 350 800
      vertex 500.6 350 675.981
      vertex 400.4 350 800
    endloop
  endfacet
  facet normal 0 1 0
    outer loop
      vertex 300 350 675.981
      vertex 400.2 350 800
      vertex 500.6 350 675.981
    endloop
  endfacet
  facet normal 0 1 0
    outer loop
      vertex 400.2 350 800
      vertex 300 350 675.981
      vertex 200.2 350 800
    endloop
  endfacet
  facet normal 0 1 0
    outer loop
      vertex 400.4 350 800
      vertex 500.6 350 675.981
      vertex 400.2 350 800
    endloop
  endfacet
  facet normal 0 1 -0
    outer loop
      vertex 800.6 350 675.981
      vertex 600.6 350 675.981
      vertex 800.6 350 800
    endloop
  endfacet
  facet normal 0 1 0
    outer loop
      vertex 200 350 675.981
      vertex 200.2 350 800
      vertex 300 350 675.981
    endloop
  endfacet
  facet normal 0 1 0
    outer loop
      vertex 200.2 350 800
      vertex 200 350 675.981
      vertex 200 350 800
    endloop
  endfacet
  facet normal 0 1 0
    outer loop
      vertex 200 350 800
      vertex 200 350 675.981
      vertex 0 350 800
    endloop
  endfacet
  facet normal 0 1 0
    outer loop
      vertex 200 350 675.981
      vertex 0 350 675.981
      vertex 0 350 800
    endloop
  endfacet
  facet normal 0 0.866027 -0.499997
    outer loop
      vertex 800.6 335 650
      vertex 600.6 350 675.981
      vertex 800.6 350 675.981
    endloop
  endfacet
  facet normal 0 0.866027 -0.499997
    outer loop
      vertex 600.6 350 675.981
      vertex 800.6 335 650
      vertex 600.6 335 650
    endloop
  endfacet
  facet normal 0 0.866027 -0.499997
    outer loop
      vertex 200 335 650
      vertex 0 350 675.981
      vertex 200 350 675.981
    endloop
  endfacet
  facet normal 0 0.866027 -0.499997
    outer loop
      vertex 0 350 675.981
      vertex 200 335 650
      vertex 0 335 650
    endloop
  endfacet
  facet normal 0 0.866027 -0.499997
    outer loop
      vertex 500.6 335 650
      vertex 300 350 675.981
      vertex 500.6 350 675.981
    endloop
  endfacet
  facet normal 0 0.866027 -0.499997
    outer loop
      vertex 300 350 675.981
      vertex 500.6 335 650
      vertex 300 335 650
    endloop
  endfacet
  facet normal 0 0 -1
    outer loop
      vertex 800.6 200 650
      vertex 600.6 335 650
      vertex 800.6 335 650
    endloop
  endfacet
  facet normal 0 0 -1
    outer loop
      vertex 800.6 200 650
      vertex 500.6 335 650
      vertex 600.6 335 650
    endloop
  endfacet
  facet normal 0 0 -1
    outer loop
      vertex 800.6 200 650
      vertex 300 335 650
      vertex 500.6 335 650
    endloop
  endfacet
  facet normal 0 0 -1
    outer loop
      vertex 0 200 650
      vertex 300 335 650
      vertex 800.6 200 650
    endloop
  endfacet
  facet normal -0 0 -1
    outer loop
      vertex 300 335 650
      vertex 0 200 650
      vertex 200 335 650
    endloop
  endfacet
  facet normal 0 0 -1
    outer loop
      vertex 0 335 650
      vertex 200 335 650
      vertex 0 200 650
    endloop
  endfacet
  facet normal 0 -1 0
    outer loop
      vertex 0 200 650
      vertex 200 200 800
      vertex 0 200 800
    endloop
  endfacet
  facet normal 0 -1 -0
    outer loop
      vertex 200 200 800
      vertex 0 200 650
      vertex 200.2 200 800
    endloop
  endfacet
  facet normal 0 -1 -0
    outer loop
      vertex 200.2 200 800
      vertex 0 200 650
      vertex 400.2 200 800
    endloop
  endfacet
  facet normal 0 -1 -0
    outer loop
      vertex 400.2 200 800
      vertex 0 200 650
      vertex 400.4 200 800
    endloop
  endfacet
  facet normal 0 -1 0
    outer loop
      vertex 800.6 200 650
      vertex 400.4 200 800
      vertex 0 200 650
    endloop
  endfacet
  facet normal 0 -1 0
    outer loop
      vertex 400.4 200 800
      vertex 800.6 200 650
      vertex 600.4 200 800
    endloop
  endfacet
  facet normal 0 -1 0
    outer loop
      vertex 600.4 200 800
      vertex 800.6 200 650
      vertex 600.6 200 800
    endloop
  endfacet
  facet normal 0 -1 0
    outer loop
      vertex 600.6 200 800
      vertex 800.6 200 650
      vertex 800.6 200 800
    endloop
  endfacet
  facet normal 1 0 0
    outer loop
      vertex 300 1066.2 650
      vertex 300 1268.27 0
      vertex 300 1441.48 0
    endloop
  endfacet
  facet normal 1 0 0
    outer loop
      vertex 300 806.392 800
      vertex 300 1066.2 650
      vertex 300 1051.2 675.981
    endloop
  endfacet
  facet normal 1 -0 0
    outer loop
      vertex 300 806.392 800
      vertex 300 1051.2 675.981
      vertex 300 979.598 800
    endloop
  endfacet
  facet normal 1 0 0
    outer loop
      vertex 300 1066.2 650
      vertex 300 806.392 800
      vertex 300 1268.27 0
    endloop
  endfacet
  facet normal 1 -0 0
    outer loop
      vertex 300 421.603 800
      vertex 300 350 675.981
      vertex 300 594.808 800
    endloop
  endfacet
  facet normal 1 0 0
    outer loop
      vertex 300 335 650
      vertex 300 594.808 800
      vertex 300 350 675.981
    endloop
  endfacet
  facet normal 1 -0 0
    outer loop
      vertex 300 335 650
      vertex 300 132.927 0
      vertex 300 594.808 800
    endloop
  endfacet
  facet normal 1 0 -0
    outer loop
      vertex 300 132.927 0
      vertex 300 335 650
      vertex 300 -40.2777 0
    endloop
  endfacet
  facet normal -1 0 0
    outer loop
      vertex 200 1268.27 0
      vertex 200 1066.2 650
      vertex 200 1441.48 0
    endloop
  endfacet
  facet normal -1 0 0
    outer loop
      vertex 200 806.392 800
      vertex 200 1066.2 650
      vertex 200 1268.27 0
    endloop
  endfacet
  facet normal -1 0 0
    outer loop
      vertex 200 1066.2 650
      vertex 200 806.392 800
      vertex 200 1051.2 675.981
    endloop
  endfacet
  facet normal -1 0 0
    outer loop
      vertex 200 1051.2 675.981
      vertex 200 806.392 800
      vertex 200 979.598 800
    endloop
  endfacet
  facet normal -1 -0 0
    outer loop
      vertex 200 594.808 800
      vertex 200 350 675.981
      vertex 200 421.603 800
    endloop
  endfacet
  facet normal -1 0 0
    outer loop
      vertex 200 594.808 800
      vertex 200 335 650
      vertex 200 350 675.981
    endloop
  endfacet
  facet normal -1 0 0
    outer loop
      vertex 200 132.927 0
      vertex 200 335 650
      vertex 200 594.808 800
    endloop
  endfacet
  facet normal -1 0 0
    outer loop
      vertex 200 335 650
      vertex 200 132.927 0
      vertex 200 -40.2777 0
    endloop
  endfacet
  facet normal 0 0.866027 0.499998
    outer loop
      vertex 300 1051.2 675.981
      vertex 200.2 979.598 800
      vertex 300 979.598 800
    endloop
  endfacet
  facet normal -0 0.866027 0.499998
    outer loop
      vertex 200 1051.2 675.981
      vertex 200.2 979.598 800
      vertex 300 1051.2 675.981
    endloop
  endfacet
  facet normal 0 0.866027 0.499998
    outer loop
      vertex 200.2 979.598 800
      vertex 200 1051.2 675.981
      vertex 200 979.598 800
    endloop
  endfacet
  facet normal 0 0.866024 0.500002
    outer loop
      vertex 300 1441.48 0
      vertex 200 1066.2 650
      vertex 300 1066.2 650
    endloop
  endfacet
  facet normal 0 0.866024 0.500002
    outer loop
      vertex 200 1066.2 650
      vertex 300 1441.48 0
      vertex 200 1441.48 0
    endloop
  endfacet
  facet normal 0 0 -1
    outer loop
      vertex 200 1268.27 0
      vertex 300 1441.48 0
      vertex 300 1268.27 0
    endloop
  endfacet
  facet normal -0 0 -1
    outer loop
      vertex 300 1441.48 0
      vertex 200 1268.27 0
      vertex 200 1441.48 0
    endloop
  endfacet
  facet normal 0 -0.866026 -0.499998
    outer loop
      vertex 200 1268.27 0
      vertex 200.2 806.392 800
      vertex 200 806.392 800
    endloop
  endfacet
  facet normal 0 -0.866026 -0.499998
    outer loop
      vertex 200.2 806.392 800
      vertex 200 1268.27 0
      vertex 300 806.392 800
    endloop
  endfacet
  facet normal 0 -0.866026 -0.499998
    outer loop
      vertex 300 806.392 800
      vertex 200 1268.27 0
      vertex 300 1268.27 0
    endloop
  endfacet
  facet normal 0 0.866025 -0.500001
    outer loop
      vertex 300 132.927 0
      vertex 200.2 594.808 800
      vertex 300 594.808 800
    endloop
  endfacet
  facet normal 0 0.866025 -0.500001
    outer loop
      vertex 200 132.927 0
      vertex 200.2 594.808 800
      vertex 300 132.927 0
    endloop
  endfacet
  facet normal 0 0.866025 -0.500001
    outer loop
      vertex 200.2 594.808 800
      vertex 200 132.927 0
      vertex 200 594.808 800
    endloop
  endfacet
  facet normal 0 0 -1
    outer loop
      vertex 200 -40.2777 0
      vertex 300 132.927 0
      vertex 300 -40.2777 0
    endloop
  endfacet
  facet normal -0 0 -1
    outer loop
      vertex 300 132.927 0
      vertex 200 -40.2777 0
      vertex 200 132.927 0
    endloop
  endfacet
  facet normal 0 -0.866024 0.500003
    outer loop
      vertex 200 350 675.981
      vertex 200.2 421.603 800
      vertex 200 421.603 800
    endloop
  endfacet
  facet normal 0 -0.866024 0.500003
    outer loop
      vertex 200.2 421.603 800
      vertex 200 350 675.981
      vertex 300 421.603 800
    endloop
  endfacet
  facet normal 0 -0.866024 0.500003
    outer loop
      vertex 300 421.603 800
      vertex 200 350 675.981
      vertex 300 350 675.981
    endloop
  endfacet
  facet normal 0 -0.866025 0.5
    outer loop
      vertex 200 -40.2777 0
      vertex 300 335 650
      vertex 200 335 650
    endloop
  endfacet
  facet normal 0 -0.866025 0.5
    outer loop
      vertex 300 335 650
      vertex 200 -40.2777 0
      vertex 300 -40.2777 0
    endloop
  endfacet
  facet normal 1 0 0
    outer loop
      vertex 600.6 1066.2 650
      vertex 600.6 1268.27 0
      vertex 600.6 1441.48 0
    endloop
  endfacet
  facet normal 1 0 0
    outer loop
      vertex 600.6 806.392 800
      vertex 600.6 1066.2 650
      vertex 600.6 1051.2 675.981
    endloop
  endfacet
  facet normal 1 -0 0
    outer loop
      vertex 600.6 806.392 800
      vertex 600.6 1051.2 675.981
      vertex 600.6 979.598 800
    endloop
  endfacet
  facet normal 1 0 0
    outer loop
      vertex 600.6 1066.2 650
      vertex 600.6 806.392 800
      vertex 600.6 1268.27 0
    endloop
  endfacet
  facet normal 1 -0 0
    outer loop
      vertex 600.6 421.603 800
      vertex 600.6 350 675.981
      vertex 600.6 594.808 800
    endloop
  endfacet
  facet normal 1 0 0
    outer loop
      vertex 600.6 335 650
      vertex 600.6 594.808 800
      vertex 600.6 350 675.981
    endloop
  endfacet
  facet normal 1 -0 0
    outer loop
      vertex 600.6 335 650
      vertex 600.6 132.927 0
      vertex 600.6 594.808 800
    endloop
  endfacet
  facet normal 1 0 -0
    outer loop
      vertex 600.6 132.927 0
      vertex 600.6 335 650
      vertex 600.6 -40.2777 0
    endloop
  endfacet
  facet normal -1 0 0
    outer loop
      vertex 500.6 1268.27 0
      vertex 500.6 1066.2 650
      vertex 500.6 1441.48 0
    endloop
  endfacet
  facet normal -1 0 0
    outer loop
      vertex 500.6 806.392 800
      vertex 500.6 1066.2 650
      vertex 500.6 1268.27 0
    endloop
  endfacet
  facet normal -1 0 0
    outer loop
      vertex 500.6 1066.2 650
      vertex 500.6 806.392 800
      vertex 500.6 1051.2 675.981
    endloop
  endfacet
  facet normal -1 0 0
    outer loop
      vertex 500.6 1051.2 675.981
      vertex 500.6 806.392 800
      vertex 500.6 979.598 800
    endloop
  endfacet
  facet normal -1 -0 0
    outer loop
      vertex 500.6 594.808 800
      vertex 500.6 350 675.981
      vertex 500.6 421.603 800
    endloop
  endfacet
  facet normal -1 0 0
    outer loop
      vertex 500.6 594.808 800
      vertex 500.6 335 650
      vertex 500.6 350 675.981
    endloop
  endfacet
  facet normal -1 0 0
    outer loop
      vertex 500.6 132.927 0
      vertex 500.6 335 650
      vertex 500.6 594.808 800
    endloop
  endfacet
  facet normal -1 0 0
    outer loop
      vertex 500.6 335 650
      vertex 500.6 132.927 0
      vertex 500.6 -40.2777 0
    endloop
  endfacet
  facet normal 0 0.866027 0.499998
    outer loop
      vertex 600.6 1051.2 675.981
      vertex 600.4 979.598 800
      vertex 600.6 979.598 800
    endloop
  endfacet
  facet normal 0 0.866027 0.499998
    outer loop
      vertex 600.4 979.598 800
      vertex 600.6 1051.2 675.981
      vertex 500.6 979.598 800
    endloop
  endfacet
  facet normal 0 0.866027 0.499998
    outer loop
      vertex 500.6 979.598 800
      vertex 600.6 1051.2 675.981
      vertex 500.6 1051.2 675.981
    endloop
  endfacet
  facet normal 0 0.866024 0.500002
    outer loop
      vertex 600.6 1441.48 0
      vertex 500.6 1066.2 650
      vertex 600.6 1066.2 650
    endloop
  endfacet
  facet normal 0 0.866024 0.500002
    outer loop
      vertex 500.6 1066.2 650
      vertex 600.6 1441.48 0
      vertex 500.6 1441.48 0
    endloop
  endfacet
  facet normal 0 0 -1
    outer loop
      vertex 500.6 1268.27 0
      vertex 600.6 1441.48 0
      vertex 600.6 1268.27 0
    endloop
  endfacet
  facet normal -0 0 -1
    outer loop
      vertex 600.6 1441.48 0
      vertex 500.6 1268.27 0
      vertex 500.6 1441.48 0
    endloop
  endfacet
  facet normal 0 -0.866026 -0.499998
    outer loop
      vertex 500.6 1268.27 0
      vertex 600.4 806.392 800
      vertex 500.6 806.392 800
    endloop
  endfacet
  facet normal -0 -0.866026 -0.499998
    outer loop
      vertex 600.6 1268.27 0
      vertex 600.4 806.392 800
      vertex 500.6 1268.27 0
    endloop
  endfacet
  facet normal 0 -0.866026 -0.499998
    outer loop
      vertex 600.4 806.392 800
      vertex 600.6 1268.27 0
      vertex 600.6 806.392 800
    endloop
  endfacet
  facet normal 0 0.866025 -0.500001
    outer loop
      vertex 600.6 132.927 0
      vertex 600.4 594.808 800
      vertex 600.6 594.808 800
    endloop
  endfacet
  facet normal 0 0.866025 -0.500001
    outer loop
      vertex 600.4 594.808 800
      vertex 600.6 132.927 0
      vertex 500.6 594.808 800
    endloop
  endfacet
  facet normal 0 0.866025 -0.500001
    outer loop
      vertex 500.6 594.808 800
      vertex 600.6 132.927 0
      vertex 500.6 132.927 0
    endloop
  endfacet
  facet normal 0 0 -1
    outer loop
      vertex 500.6 -40.2777 0
      vertex 600.6 132.927 0
      vertex 600.6 -40.2777 0
    endloop
  endfacet
  facet normal -0 0 -1
    outer loop
      vertex 600.6 132.927 0
      vertex 500.6 -40.2777 0
      vertex 500.6 132.927 0
    endloop
  endfacet
  facet normal 0 -0.866024 0.500003
    outer loop
      vertex 500.6 350 675.981
      vertex 600.4 421.603 800
      vertex 500.6 421.603 800
    endloop
  endfacet
  facet normal 0 -0.866024 0.500003
    outer loop
      vertex 600.6 350 675.981
      vertex 600.4 421.603 800
      vertex 500.6 350 675.981
    endloop
  endfacet
  facet normal 0 -0.866024 0.500003
    outer loop
      vertex 600.4 421.603 800
      vertex 600.6 350 675.981
      vertex 600.6 421.603 800
    endloop
  endfacet
  facet normal 0 -0.866025 0.5
    outer loop
      vertex 500.6 -40.2777 0
      vertex 600.6 335 650
      vertex 500.6 335 650
    endloop
  endfacet
  facet normal 0 -0.866025 0.5
    outer loop
      vertex 600.6 335 650
      vertex 500.6 -40.2777 0
      vertex 600.6 -40.2777 0
    endloop
  endfacet
  facet normal 1 -0 0
    outer loop
      vertex 300 594.808 800
      vertex 300 892.995 650
      vertex 300 806.392 800
    endloop
  endfacet
  facet normal 1 0 0
    outer loop
      vertex 300 892.995 650
      vertex 300 594.808 800
      vertex 300 508.205 650
    endloop
  endfacet
  facet normal -1 0 0
    outer loop
      vertex 200 892.995 650
      vertex 200 594.808 800
      vertex 200 806.392 800
    endloop
  endfacet
  facet normal -1 0 -0
    outer loop
      vertex 200 594.808 800
      vertex 200 892.995 650
      vertex 200 508.205 650
    endloop
  endfacet
  facet normal 0 0.866024 0.500002
    outer loop
      vertex 300 892.995 650
      vertex 200.2 806.392 800
      vertex 300 806.392 800
    endloop
  endfacet
  facet normal -0 0.866024 0.500002
    outer loop
      vertex 200 892.995 650
      vertex 200.2 806.392 800
      vertex 300 892.995 650
    endloop
  endfacet
  facet normal 0 0.866024 0.500002
    outer loop
      vertex 200.2 806.392 800
      vertex 200 892.995 650
      vertex 200 806.392 800
    endloop
  endfacet
  facet normal 0 0 -1
    outer loop
      vertex 200 508.205 650
      vertex 300 892.995 650
      vertex 300 508.205 650
    endloop
  endfacet
  facet normal -0 0 -1
    outer loop
      vertex 300 892.995 650
      vertex 200 508.205 650
      vertex 200 892.995 650
    endloop
  endfacet
  facet normal 0 -0.866024 0.500002
    outer loop
      vertex 200 508.205 650
      vertex 200.2 594.808 800
      vertex 200 594.808 800
    endloop
  endfacet
  facet normal 0 -0.866024 0.500002
    outer loop
      vertex 200.2 594.808 800
      vertex 200 508.205 650
      vertex 300 594.808 800
    endloop
  endfacet
  facet normal 0 -0.866024 0.500002
    outer loop
      vertex 300 594.808 800
      vertex 200 508.205 650
      vertex 300 508.205 650
    endloop
  endfacet
  facet normal 0 -0.866024 0.500002
    outer loop
      vertex 500.6 508.205 650
      vertex 600.4 594.808 800
      vertex 500.6 594.808 800
    endloop
  endfacet
  facet normal 0 -0.866024 0.500002
    outer loop
      vertex 600.6 508.205 650
      vertex 600.4 594.808 800
      vertex 500.6 508.205 650
    endloop
  endfacet
  facet normal 0 -0.866024 0.500002
    outer loop
      vertex 600.4 594.808 800
      vertex 600.6 508.205 650
      vertex 600.6 594.808 800
    endloop
  endfacet
  facet normal 1 -0 0
    outer loop
      vertex 600.6 594.808 800
      vertex 600.6 892.995 650
      vertex 600.6 806.392 800
    endloop
  endfacet
  facet normal 1 0 0
    outer loop
      vertex 600.6 892.995 650
      vertex 600.6 594.808 800
      vertex 600.6 508.205 650
    endloop
  endfacet
  facet normal -1 0 0
    outer loop
      vertex 500.6 892.995 650
      vertex 500.6 594.808 800
      vertex 500.6 806.392 800
    endloop
  endfacet
  facet normal -1 0 -0
    outer loop
      vertex 500.6 594.808 800
      vertex 500.6 892.995 650
      vertex 500.6 508.205 650
    endloop
  endfacet
  facet normal 0 0.866024 0.500002
    outer loop
      vertex 600.6 892.995 650
      vertex 600.4 806.392 800
      vertex 600.6 806.392 800
    endloop
  endfacet
  facet normal 0 0.866024 0.500002
    outer loop
      vertex 600.4 806.392 800
      vertex 600.6 892.995 650
      vertex 500.6 806.392 800
    endloop
  endfacet
  facet normal 0 0.866024 0.500002
    outer loop
      vertex 500.6 806.392 800
      vertex 600.6 892.995 650
      vertex 500.6 892.995 650
    endloop
  endfacet
  facet normal 0 0 -1
    outer loop
      vertex 500.6 508.205 650
      vertex 600.6 892.995 650
      vertex 600.6 508.205 650
    endloop
  endfacet
  facet normal -0 0 -1
    outer loop
      vertex 600.6 892.995 650
      vertex 500.6 508.205 650
      vertex 500.6 892.995 650
    endloop
  endfacet
endsolid OpenSCAD_Model
