<svg width="891" height="1551" viewBox="-45 -78 891 1551" xmlns="http://www.w3.org/2000/svg"><path d="M 0.0000 1401.2000 L 800.6000 1401.2000 L 800.6000 1201.2000 L 0.0000 1201.2000 L 0.0000 1401.2000 Z" stroke="green" stroke-width="1" fill="none" /><path d="M 0.0000 1201.0000 L 800.6000 1201.0000 L 800.6000 1001.0000 L 0.0000 1001.0000 L 0.0000 1201.0000 Z" stroke="green" stroke-width="1" fill="none" /><path d="M 0.0000 1000.8000 L 800.6000 1000.8000 L 800.6000 800.8000 L 0.0000 800.8000 L 0.0000 1000.8000 Z" stroke="green" stroke-width="1" fill="none" /><path d="M 0.0000 800.6000 L 800.6000 800.6000 L 800.6000 600.6000 L 0.0000 600.6000 L 0.0000 800.6000 Z" stroke="green" stroke-width="1" fill="none" /><path d="M 0.0000 600.4000 L 800.6000 600.4000 L 800.6000 400.4000 L 0.0000 400.4000 L 0.0000 600.4000 Z" stroke="green" stroke-width="1" fill="none" /><path d="M 0.0000 400.2000 L 800.6000 400.2000 L 800.6000 200.2000 L 0.0000 200.2000 L 0.0000 400.2000 Z" stroke="green" stroke-width="1" fill="none" /><path d="M 0.0000 200.0000 L 800.6000 200.0000 L 800.6000 0.0000 L 0.0000 0.0000 L 0.0000 200.0000 Z" stroke="green" stroke-width="1" fill="none" /></svg>