<svg width="285" height="615" viewBox="-39 -31 285 615" xmlns="http://www.w3.org/2000/svg"><path d="M 0.0000 550.0000 L 200.0000 550.0000 L 200.0000 540.0000 L 0.0000 540.0000 L 0.0000 550.0000 Z" stroke="green" stroke-width="1" fill="none" /><path d="M 200.0000 550.0000 A 25.0000 25.0000 0 0 0 225.0000 525.0000 L 215.0000 525.0000 A 15.0000 15.0000 0 0 1 200.0000 540.0000 L 200.0000 550.0000 Z" stroke="green" stroke-width="1" fill="none" /><path d="M 225.0000 525.0000 L 225.0000 325.0000 L 215.0000 325.0000 L 215.0000 525.0000 L 225.0000 525.0000 Z" stroke="green" stroke-width="1" fill="none" /><path d="M 0.0000 540.0000 A 15.0000 15.0000 0 0 1 -15.0000 525.0000 L -25.0000 525.0000 A 25.0000 25.0000 0 0 0 -0.0000 550.0000 L 0.0000 540.0000 Z" stroke="green" stroke-width="1" fill="none" /><path d="M -15.0000 525.0000 L -15.0000 325.0000 L -25.0000 325.0000 L -25.0000 525.0000 L -15.0000 525.0000 Z" stroke="green" stroke-width="1" fill="none" /><path d="M 0.0000 250.0000 L 200.0000 250.0000 L 200.0000 240.0000 L 0.0000 240.0000 L 0.0000 250.0000 Z" stroke="green" stroke-width="1" fill="none" /><path d="M 200.0000 250.0000 A 25.0000 25.0000 0 0 0 225.0000 225.0000 L 215.0000 225.0000 A 15.0000 15.0000 0 0 1 200.0000 240.0000 L 200.0000 250.0000 Z" stroke="green" stroke-width="1" fill="none" /><path d="M 225.0000 225.0000 L 225.0000 25.0000 L 215.0000 25.0000 L 215.0000 225.0000 L 225.0000 225.0000 Z" stroke="green" stroke-width="1" fill="none" /><path d="M 225.0000 25.0000 A 25.0000 25.0000 0 0 0 200.0000 0.0000 L 200.0000 10.0000 A 15.0000 15.0000 0 0 1 215.0000 25.0000 L 225.0000 25.0000 Z" stroke="green" stroke-width="1" fill="none" /><path d="M 200.0000 0.0000 L 0.0000 0.0000 L 0.0000 10.0000 L 200.0000 10.0000 L 200.0000 0.0000 Z" stroke="green" stroke-width="1" fill="none" /><path d="M 0.0000 240.0000 A 15.0000 15.0000 0 0 1 -15.0000 225.0000 L -25.0000 225.0000 A 25.0000 25.0000 0 0 0 -0.0000 250.0000 L 0.0000 240.0000 Z" stroke="green" stroke-width="1" fill="none" /><path d="M -15.0000 225.0000 L -15.0000 25.0000 L -25.0000 25.0000 L -25.0000 225.0000 L -15.0000 225.0000 Z" stroke="green" stroke-width="1" fill="none" /></svg>