0
SECTION
2
ENTITIES
0
LINE
8
PARAMETRIX
10
0.0000
20
0.0000
11
200.0000
21
0.0000
0
LINE
8
PARAMETRIX
10
200.0000
20
0.0000
11
200.0000
21
10.0000
0
LINE
8
PARAMETRIX
10
200.0000
20
10.0000
11
0.0000
21
10.0000
0
LINE
8
PARAMETRIX
10
0.0000
20
10.0000
11
0.0000
21
0.0000
0
ARC
8
PARAMETRIX
10
200.0000
20
25.0000
40
25.0000
50
270.0000
51
360.0000
0
LINE
8
PARAMETRIX
10
225.0000
20
25.0000
11
215.0000
21
25.0000
0
ARC
8
PARAMETRIX
10
200.0000
20
25.0000
40
15.0000
50
270.0000
51
360.0000
0
LINE
8
PARAMETRIX
10
200.0000
20
10.0000
11
200.0000
21
0.0000
0
LINE
8
PARAMETRIX
10
225.0000
20
25.0000
11
225.0000
21
225.0000
0
LINE
8
PARAMETRIX
10
225.0000
20
225.0000
11
215.0000
21
225.0000
0
LINE
8
PARAMETRIX
10
215.0000
20
225.0000
11
215.0000
21
25.0000
0
LINE
8
PARAMETRIX
10
215.0000
20
25.0000
11
225.0000
21
25.0000
0
ARC
8
PARAMETRIX
10
0.0000
20
25.0000
40
15.0000
50
180.0000
51
270.0000
0
LINE
8
PARAMETRIX
10
-15.0000
20
25.0000
11
-25.0000
21
25.0000
0
ARC
8
PARAMETRIX
10
0.0000
20
25.0000
40
25.0000
50
180.0000
51
270.0000
0
LINE
8
PARAMETRIX
10
-0.0000
20
0.0000
11
0.0000
21
10.0000
0
LINE
8
PARAMETRIX
10
-15.0000
20
25.0000
11
-15.0000
21
225.0000
0
LINE
8
PARAMETRIX
10
-15.0000
20
225.0000
11
-25.0000
21
225.0000
0
LINE
8
PARAMETRIX
10
-25.0000
20
225.0000
11
-25.0000
21
25.0000
0
LINE
8
PARAMETRIX
10
-25.0000
20
25.0000
11
-15.0000
21
25.0000
0
LINE
8
PARAMETRIX
10
0.0000
20
300.0000
11
200.0000
21
300.0000
0
LINE
8
PARAMETRIX
10
200.0000
20
300.0000
11
200.0000
21
310.0000
0
LINE
8
PARAMETRIX
10
200.0000
20
310.0000
11
0.0000
21
310.0000
0
LINE
8
PARAMETRIX
10
0.0000
20
310.0000
11
0.0000
21
300.0000
0
ARC
8
PARAMETRIX
10
200.0000
20
325.0000
40
25.0000
50
270.0000
51
0.0000
0
LINE
8
PARAMETRIX
10
225.0000
20
325.0000
11
215.0000
21
325.0000
0
ARC
8
PARAMETRIX
10
200.0000
20
325.0000
40
15.0000
50
270.0000
51
0.0000
0
LINE
8
PARAMETRIX
10
200.0000
20
310.0000
11
200.0000
21
300.0000
0
LINE
8
PARAMETRIX
10
225.0000
20
325.0000
11
225.0000
21
525.0000
0
LINE
8
PARAMETRIX
10
225.0000
20
525.0000
11
215.0000
21
525.0000
0
LINE
8
PARAMETRIX
10
215.0000
20
525.0000
11
215.0000
21
325.0000
0
LINE
8
PARAMETRIX
10
215.0000
20
325.0000
11
225.0000
21
325.0000
0
ARC
8
PARAMETRIX
10
200.0000
20
525.0000
40
25.0000
50
0.0000
51
90.0000
0
LINE
8
PARAMETRIX
10
200.0000
20
550.0000
11
200.0000
21
540.0000
0
ARC
8
PARAMETRIX
10
200.0000
20
525.0000
40
15.0000
50
0.0000
51
90.0000
0
LINE
8
PARAMETRIX
10
215.0000
20
525.0000
11
225.0000
21
525.0000
0
LINE
8
PARAMETRIX
10
200.0000
20
550.0000
11
0.0000
21
550.0000
0
LINE
8
PARAMETRIX
10
0.0000
20
550.0000
11
0.0000
21
540.0000
0
LINE
8
PARAMETRIX
10
0.0000
20
540.0000
11
200.0000
21
540.0000
0
LINE
8
PARAMETRIX
10
200.0000
20
540.0000
11
200.0000
21
550.0000
0
ARC
8
PARAMETRIX
10
0.0000
20
325.0000
40
15.0000
50
180.0000
51
270.0000
0
LINE
8
PARAMETRIX
10
-15.0000
20
325.0000
11
-25.0000
21
325.0000
0
ARC
8
PARAMETRIX
10
0.0000
20
325.0000
40
25.0000
50
180.0000
51
270.0000
0
LINE
8
PARAMETRIX
10
-0.0000
20
300.0000
11
0.0000
21
310.0000
0
LINE
8
PARAMETRIX
10
-15.0000
20
325.0000
11
-15.0000
21
525.0000
0
LINE
8
PARAMETRIX
10
-15.0000
20
525.0000
11
-25.0000
21
525.0000
0
LINE
8
PARAMETRIX
10
-25.0000
20
525.0000
11
-25.0000
21
325.0000
0
LINE
8
PARAMETRIX
10
-25.0000
20
325.0000
11
-15.0000
21
325.0000
0
ENDSEC
0
EOF
