<svg width="129" height="659" viewBox="-60 -33 129 659" xmlns="http://www.w3.org/2000/svg"><path d="M -47.5000 590.0000 L 47.5000 590.0000 L 47.5000 540.0000 L -47.5000 540.0000 L -47.5000 590.0000 Z" stroke="green" stroke-width="1" fill="none" /><circle cx="0.0000" cy="565.0000" r="20.0000" stroke="green" stroke-width="1" fill="none" /><path d="M -54.0000 590.0000 L -51.0000 590.0000 L -51.0000 480.0000 L -54.0000 480.0000 L -54.0000 590.0000 Z" stroke="green" stroke-width="1" fill="none" /><path d="M 51.0000 590.0000 L 54.0000 590.0000 L 54.0000 480.0000 L 51.0000 480.0000 L 51.0000 590.0000 Z" stroke="green" stroke-width="1" fill="none" /><path d="M -43.5000 495.0000 L 43.5000 495.0000 L 43.5000 445.0000 L -43.5000 445.0000 L -43.5000 495.0000 Z" stroke="green" stroke-width="1" fill="none" /><circle cx="0.0000" cy="470.0000" r="20.0000" stroke="green" stroke-width="1" fill="none" /><path d="M -50.0000 530.0000 L -47.0000 530.0000 L -47.0000 388.0000 L -50.0000 388.0000 L -50.0000 530.0000 Z" stroke="green" stroke-width="1" fill="none" /><path d="M 47.0000 530.0000 L 50.0000 530.0000 L 50.0000 388.0000 L 47.0000 388.0000 L 47.0000 530.0000 Z" stroke="green" stroke-width="1" fill="none" /><path d="M -39.5000 402.0000 L 39.5000 402.0000 L 39.5000 352.0000 L -39.5000 352.0000 L -39.5000 402.0000 Z" stroke="green" stroke-width="1" fill="none" /><circle cx="0.0000" cy="377.0000" r="19.5000" stroke="green" stroke-width="1" fill="none" /><path d="M -46.0000 434.0000 L -43.0000 434.0000 L -43.0000 298.0000 L -46.0000 298.0000 L -46.0000 434.0000 Z" stroke="green" stroke-width="1" fill="none" /><path d="M 43.0000 434.0000 L 46.0000 434.0000 L 46.0000 298.0000 L 43.0000 298.0000 L 43.0000 434.0000 Z" stroke="green" stroke-width="1" fill="none" /><path d="M -35.5000 311.0000 L 35.5000 311.0000 L 35.5000 261.0000 L -35.5000 261.0000 L -35.5000 311.0000 Z" stroke="green" stroke-width="1" fill="none" /><circle cx="0.0000" cy="286.0000" r="19.0000" stroke="green" stroke-width="1" fill="none" /><path d="M -42.0000 340.0000 L -39.0000 340.0000 L -39.0000 210.0000 L -42.0000 210.0000 L -42.0000 340.0000 Z" stroke="green" stroke-width="1" fill="none" /><path d="M 39.0000 340.0000 L 42.0000 340.0000 L 42.0000 210.0000 L 39.0000 210.0000 L 39.0000 340.0000 Z" stroke="green" stroke-width="1" fill="none" /><path d="M -31.5000 222.0000 L 31.5000 222.0000 L 31.5000 172.0000 L -31.5000 172.0000 L -31.5000 222.0000 Z" stroke="green" stroke-width="1" fill="none" /><circle cx="0.0000" cy="197.0000" r="18.5000" stroke="green" stroke-width="1" fill="none" /><path d="M -38.0000 248.0000 L -35.0000 248.0000 L -35.0000 124.0000 L -38.0000 124.0000 L -38.0000 248.0000 Z" stroke="green" stroke-width="1" fill="none" /><path d="M 35.0000 248.0000 L 38.0000 248.0000 L 38.0000 124.0000 L 35.0000 124.0000 L 35.0000 248.0000 Z" stroke="green" stroke-width="1" fill="none" /><path d="M -27.5000 135.0000 L 27.5000 135.0000 L 27.5000 85.0000 L -27.5000 85.0000 L -27.5000 135.0000 Z" stroke="green" stroke-width="1" fill="none" /><circle cx="0.0000" cy="110.0000" r="18.0000" stroke="green" stroke-width="1" fill="none" /><path d="M -34.0000 158.0000 L -31.0000 158.0000 L -31.0000 40.0000 L -34.0000 40.0000 L -34.0000 158.0000 Z" stroke="green" stroke-width="1" fill="none" /><path d="M 31.0000 158.0000 L 34.0000 158.0000 L 34.0000 40.0000 L 31.0000 40.0000 L 31.0000 158.0000 Z" stroke="green" stroke-width="1" fill="none" /><path d="M 23.5000 0.0000 L -23.5000 0.0000 L -23.5000 50.0000 L 23.5000 50.0000 L 23.5000 0.0000 Z" stroke="green" stroke-width="1" fill="none" /><circle cx="-0.0000" cy="25.0000" r="17.5000" stroke="green" stroke-width="1" fill="none" /><path d="M 30.0000 0.0000 L 27.0000 0.0000 L 27.0000 70.0000 L 30.0000 70.0000 L 30.0000 0.0000 Z" stroke="green" stroke-width="1" fill="none" /><path d="M -27.0000 0.0000 L -30.0000 0.0000 L -30.0000 70.0000 L -27.0000 70.0000 L -27.0000 0.0000 Z" stroke="green" stroke-width="1" fill="none" /></svg>