<svg width="89" height="129" viewBox="-40 -60 89 129" xmlns="http://www.w3.org/2000/svg"><path d="M -29.5000 54.0000 L 29.5000 54.0000 L 29.5000 51.0000 L -29.5000 51.0000 L -29.5000 54.0000 Z" stroke="green" stroke-width="1" fill="none" /><path d="M 29.5000 54.0000 A 6.5000 6.5000 0 0 0 36.0000 47.5000 L 33.0000 47.5000 A 3.5000 3.5000 0 0 1 29.5000 51.0000 L 29.5000 54.0000 Z" stroke="green" stroke-width="1" fill="none" /><path d="M 36.0000 47.5000 L 36.0000 -47.5000 L 33.0000 -47.5000 L 33.0000 47.5000 L 36.0000 47.5000 Z" stroke="green" stroke-width="1" fill="none" /><path d="M 36.0000 -47.5000 A 6.5000 6.5000 0 0 0 29.5000 -54.0000 L 29.5000 -51.0000 A 3.5000 3.5000 0 0 1 33.0000 -47.5000 L 36.0000 -47.5000 Z" stroke="green" stroke-width="1" fill="none" /><path d="M 29.5000 -54.0000 L -29.5000 -54.0000 L -29.5000 -51.0000 L 29.5000 -51.0000 L 29.5000 -54.0000 Z" stroke="green" stroke-width="1" fill="none" /><path d="M -29.5000 -54.0000 A 6.5000 6.5000 0 0 0 -36.0000 -47.5000 L -33.0000 -47.5000 A 3.5000 3.5000 0 0 1 -29.5000 -51.0000 L -29.5000 -54.0000 Z" stroke="green" stroke-width="1" fill="none" /><path d="M -36.0000 -47.5000 L -36.0000 47.5000 L -33.0000 47.5000 L -33.0000 -47.5000 L -36.0000 -47.5000 Z" stroke="green" stroke-width="1" fill="none" /><path d="M -36.0000 47.5000 A 6.5000 6.5000 0 0 0 -29.5000 54.0000 L -29.5000 51.0000 A 3.5000 3.5000 0 0 1 -33.0000 47.5000 L -36.0000 47.5000 Z" stroke="green" stroke-width="1" fill="none" /><path d="M -28.5000 50.0000 L 28.5000 50.0000 L 28.5000 47.0000 L -28.5000 47.0000 L -28.5000 50.0000 Z" stroke="green" stroke-width="1" fill="none" /><path d="M 28.5000 50.0000 A 6.5000 6.5000 0 0 0 35.0000 43.5000 L 32.0000 43.5000 A 3.5000 3.5000 0 0 1 28.5000 47.0000 L 28.5000 50.0000 Z" stroke="green" stroke-width="1" fill="none" /><path d="M 35.0000 43.5000 L 35.0000 -43.5000 L 32.0000 -43.5000 L 32.0000 43.5000 L 35.0000 43.5000 Z" stroke="green" stroke-width="1" fill="none" /><path d="M 35.0000 -43.5000 A 6.5000 6.5000 0 0 0 28.5000 -50.0000 L 28.5000 -47.0000 A 3.5000 3.5000 0 0 1 32.0000 -43.5000 L 35.0000 -43.5000 Z" stroke="green" stroke-width="1" fill="none" /><path d="M 28.5000 -50.0000 L -28.5000 -50.0000 L -28.5000 -47.0000 L 28.5000 -47.0000 L 28.5000 -50.0000 Z" stroke="green" stroke-width="1" fill="none" /><path d="M -28.5000 -50.0000 A 6.5000 6.5000 0 0 0 -35.0000 -43.5000 L -32.0000 -43.5000 A 3.5000 3.5000 0 0 1 -28.5000 -47.0000 L -28.5000 -50.0000 Z" stroke="green" stroke-width="1" fill="none" /><path d="M -35.0000 -43.5000 L -35.0000 43.5000 L -32.0000 43.5000 L -32.0000 -43.5000 L -35.0000 -43.5000 Z" stroke="green" stroke-width="1" fill="none" /><path d="M -35.0000 43.5000 A 6.5000 6.5000 0 0 0 -28.5000 50.0000 L -28.5000 47.0000 A 3.5000 3.5000 0 0 1 -32.0000 43.5000 L -35.0000 43.5000 Z" stroke="green" stroke-width="1" fill="none" /><path d="M -27.5000 46.0000 L 27.5000 46.0000 L 27.5000 43.0000 L -27.5000 43.0000 L -27.5000 46.0000 Z" stroke="green" stroke-width="1" fill="none" /><path d="M 27.5000 46.0000 A 6.5000 6.5000 0 0 0 34.0000 39.5000 L 31.0000 39.5000 A 3.5000 3.5000 0 0 1 27.5000 43.0000 L 27.5000 46.0000 Z" stroke="green" stroke-width="1" fill="none" /><path d="M 34.0000 39.5000 L 34.0000 -39.5000 L 31.0000 -39.5000 L 31.0000 39.5000 L 34.0000 39.5000 Z" stroke="green" stroke-width="1" fill="none" /><path d="M 34.0000 -39.5000 A 6.5000 6.5000 0 0 0 27.5000 -46.0000 L 27.5000 -43.0000 A 3.5000 3.5000 0 0 1 31.0000 -39.5000 L 34.0000 -39.5000 Z" stroke="green" stroke-width="1" fill="none" /><path d="M 27.5000 -46.0000 L -27.5000 -46.0000 L -27.5000 -43.0000 L 27.5000 -43.0000 L 27.5000 -46.0000 Z" stroke="green" stroke-width="1" fill="none" /><path d="M -27.5000 -46.0000 A 6.5000 6.5000 0 0 0 -34.0000 -39.5000 L -31.0000 -39.5000 A 3.5000 3.5000 0 0 1 -27.5000 -43.0000 L -27.5000 -46.0000 Z" stroke="green" stroke-width="1" fill="none" /><path d="M -34.0000 -39.5000 L -34.0000 39.5000 L -31.0000 39.5000 L -31.0000 -39.5000 L -34.0000 -39.5000 Z" stroke="green" stroke-width="1" fill="none" /><path d="M -34.0000 39.5000 A 6.5000 6.5000 0 0 0 -27.5000 46.0000 L -27.5000 43.0000 A 3.5000 3.5000 0 0 1 -31.0000 39.5000 L -34.0000 39.5000 Z" stroke="green" stroke-width="1" fill="none" /><path d="M -26.5000 42.0000 L 26.5000 42.0000 L 26.5000 39.0000 L -26.5000 39.0000 L -26.5000 42.0000 Z" stroke="green" stroke-width="1" fill="none" /><path d="M 26.5000 42.0000 A 6.5000 6.5000 0 0 0 33.0000 35.5000 L 30.0000 35.5000 A 3.5000 3.5000 0 0 1 26.5000 39.0000 L 26.5000 42.0000 Z" stroke="green" stroke-width="1" fill="none" /><path d="M 33.0000 35.5000 L 33.0000 -35.5000 L 30.0000 -35.5000 L 30.0000 35.5000 L 33.0000 35.5000 Z" stroke="green" stroke-width="1" fill="none" /><path d="M 33.0000 -35.5000 A 6.5000 6.5000 0 0 0 26.5000 -42.0000 L 26.5000 -39.0000 A 3.5000 3.5000 0 0 1 30.0000 -35.5000 L 33.0000 -35.5000 Z" stroke="green" stroke-width="1" fill="none" /><path d="M 26.5000 -42.0000 L -26.5000 -42.0000 L -26.5000 -39.0000 L 26.5000 -39.0000 L 26.5000 -42.0000 Z" stroke="green" stroke-width="1" fill="none" /><path d="M -26.5000 -42.0000 A 6.5000 6.5000 0 0 0 -33.0000 -35.5000 L -30.0000 -35.5000 A 3.5000 3.5000 0 0 1 -26.5000 -39.0000 L -26.5000 -42.0000 Z" stroke="green" stroke-width="1" fill="none" /><path d="M -33.0000 -35.5000 L -33.0000 35.5000 L -30.0000 35.5000 L -30.0000 -35.5000 L -33.0000 -35.5000 Z" stroke="green" stroke-width="1" fill="none" /><path d="M -33.0000 35.5000 A 6.5000 6.5000 0 0 0 -26.5000 42.0000 L -26.5000 39.0000 A 3.5000 3.5000 0 0 1 -30.0000 35.5000 L -33.0000 35.5000 Z" stroke="green" stroke-width="1" fill="none" /><path d="M -25.5000 38.0000 L 25.5000 38.0000 L 25.5000 35.0000 L -25.5000 35.0000 L -25.5000 38.0000 Z" stroke="green" stroke-width="1" fill="none" /><path d="M 25.5000 38.0000 A 6.5000 6.5000 0 0 0 32.0000 31.5000 L 29.0000 31.5000 A 3.5000 3.5000 0 0 1 25.5000 35.0000 L 25.5000 38.0000 Z" stroke="green" stroke-width="1" fill="none" /><path d="M 32.0000 31.5000 L 32.0000 -31.5000 L 29.0000 -31.5000 L 29.0000 31.5000 L 32.0000 31.5000 Z" stroke="green" stroke-width="1" fill="none" /><path d="M 32.0000 -31.5000 A 6.5000 6.5000 0 0 0 25.5000 -38.0000 L 25.5000 -35.0000 A 3.5000 3.5000 0 0 1 29.0000 -31.5000 L 32.0000 -31.5000 Z" stroke="green" stroke-width="1" fill="none" /><path d="M 25.5000 -38.0000 L -25.5000 -38.0000 L -25.5000 -35.0000 L 25.5000 -35.0000 L 25.5000 -38.0000 Z" stroke="green" stroke-width="1" fill="none" /><path d="M -25.5000 -38.0000 A 6.5000 6.5000 0 0 0 -32.0000 -31.5000 L -29.0000 -31.5000 A 3.5000 3.5000 0 0 1 -25.5000 -35.0000 L -25.5000 -38.0000 Z" stroke="green" stroke-width="1" fill="none" /><path d="M -32.0000 -31.5000 L -32.0000 31.5000 L -29.0000 31.5000 L -29.0000 -31.5000 L -32.0000 -31.5000 Z" stroke="green" stroke-width="1" fill="none" /><path d="M -32.0000 31.5000 A 6.5000 6.5000 0 0 0 -25.5000 38.0000 L -25.5000 35.0000 A 3.5000 3.5000 0 0 1 -29.0000 31.5000 L -32.0000 31.5000 Z" stroke="green" stroke-width="1" fill="none" /><path d="M -24.5000 34.0000 L 24.5000 34.0000 L 24.5000 31.0000 L -24.5000 31.0000 L -24.5000 34.0000 Z" stroke="green" stroke-width="1" fill="none" /><path d="M 24.5000 34.0000 A 6.5000 6.5000 0 0 0 31.0000 27.5000 L 28.0000 27.5000 A 3.5000 3.5000 0 0 1 24.5000 31.0000 L 24.5000 34.0000 Z" stroke="green" stroke-width="1" fill="none" /><path d="M 31.0000 27.5000 L 31.0000 -27.5000 L 28.0000 -27.5000 L 28.0000 27.5000 L 31.0000 27.5000 Z" stroke="green" stroke-width="1" fill="none" /><path d="M 31.0000 -27.5000 A 6.5000 6.5000 0 0 0 24.5000 -34.0000 L 24.5000 -31.0000 A 3.5000 3.5000 0 0 1 28.0000 -27.5000 L 31.0000 -27.5000 Z" stroke="green" stroke-width="1" fill="none" /><path d="M 24.5000 -34.0000 L -24.5000 -34.0000 L -24.5000 -31.0000 L 24.5000 -31.0000 L 24.5000 -34.0000 Z" stroke="green" stroke-width="1" fill="none" /><path d="M -24.5000 -34.0000 A 6.5000 6.5000 0 0 0 -31.0000 -27.5000 L -28.0000 -27.5000 A 3.5000 3.5000 0 0 1 -24.5000 -31.0000 L -24.5000 -34.0000 Z" stroke="green" stroke-width="1" fill="none" /><path d="M -31.0000 -27.5000 L -31.0000 27.5000 L -28.0000 27.5000 L -28.0000 -27.5000 L -31.0000 -27.5000 Z" stroke="green" stroke-width="1" fill="none" /><path d="M -31.0000 27.5000 A 6.5000 6.5000 0 0 0 -24.5000 34.0000 L -24.5000 31.0000 A 3.5000 3.5000 0 0 1 -28.0000 27.5000 L -31.0000 27.5000 Z" stroke="green" stroke-width="1" fill="none" /><path d="M -23.5000 30.0000 L 23.5000 30.0000 L 23.5000 27.0000 L -23.5000 27.0000 L -23.5000 30.0000 Z" stroke="green" stroke-width="1" fill="none" /><path d="M 23.5000 30.0000 A 6.5000 6.5000 0 0 0 30.0000 23.5000 L 27.0000 23.5000 A 3.5000 3.5000 0 0 1 23.5000 27.0000 L 23.5000 30.0000 Z" stroke="green" stroke-width="1" fill="none" /><path d="M 30.0000 23.5000 L 30.0000 -23.5000 L 27.0000 -23.5000 L 27.0000 23.5000 L 30.0000 23.5000 Z" stroke="green" stroke-width="1" fill="none" /><path d="M 30.0000 -23.5000 A 6.5000 6.5000 0 0 0 23.5000 -30.0000 L 23.5000 -27.0000 A 3.5000 3.5000 0 0 1 27.0000 -23.5000 L 30.0000 -23.5000 Z" stroke="green" stroke-width="1" fill="none" /><path d="M 23.5000 -30.0000 L -23.5000 -30.0000 L -23.5000 -27.0000 L 23.5000 -27.0000 L 23.5000 -30.0000 Z" stroke="green" stroke-width="1" fill="none" /><path d="M -23.5000 -30.0000 A 6.5000 6.5000 0 0 0 -30.0000 -23.5000 L -27.0000 -23.5000 A 3.5000 3.5000 0 0 1 -23.5000 -27.0000 L -23.5000 -30.0000 Z" stroke="green" stroke-width="1" fill="none" /><path d="M -30.0000 -23.5000 L -30.0000 23.5000 L -27.0000 23.5000 L -27.0000 -23.5000 L -30.0000 -23.5000 Z" stroke="green" stroke-width="1" fill="none" /><path d="M -30.0000 23.5000 A 6.5000 6.5000 0 0 0 -23.5000 30.0000 L -23.5000 27.0000 A 3.5000 3.5000 0 0 1 -27.0000 23.5000 L -30.0000 23.5000 Z" stroke="green" stroke-width="1" fill="none" /></svg>