0
SECTION
2
ENTITIES
0
LINE
8
PARAMETRIX
10
-29.5000
20
-54.0000
11
29.5000
21
-54.0000
0
LINE
8
PARAMETRIX
10
29.5000
20
-54.0000
11
29.5000
21
-51.0000
0
LINE
8
PARAMETRIX
10
29.5000
20
-51.0000
11
-29.5000
21
-51.0000
0
LINE
8
PARAMETRIX
10
-29.5000
20
-51.0000
11
-29.5000
21
-54.0000
0
ARC
8
PARAMETRIX
10
29.5000
20
-47.5000
40
6.5000
50
270.0000
51
0.0000
0
LINE
8
PARAMETRIX
10
36.0000
20
-47.5000
11
33.0000
21
-47.5000
0
ARC
8
PARAMETRIX
10
29.5000
20
-47.5000
40
3.5000
50
270.0000
51
0.0000
0
LINE
8
PARAMETRIX
10
29.5000
20
-51.0000
11
29.5000
21
-54.0000
0
LINE
8
PARAMETRIX
10
36.0000
20
-47.5000
11
36.0000
21
47.5000
0
LINE
8
PARAMETRIX
10
36.0000
20
47.5000
11
33.0000
21
47.5000
0
LINE
8
PARAMETRIX
10
33.0000
20
47.5000
11
33.0000
21
-47.5000
0
LINE
8
PARAMETRIX
10
33.0000
20
-47.5000
11
36.0000
21
-47.5000
0
ARC
8
PARAMETRIX
10
29.5000
20
47.5000
40
6.5000
50
360.0000
51
90.0000
0
LINE
8
PARAMETRIX
10
29.5000
20
54.0000
11
29.5000
21
51.0000
0
ARC
8
PARAMETRIX
10
29.5000
20
47.5000
40
3.5000
50
0.0000
51
90.0000
0
LINE
8
PARAMETRIX
10
33.0000
20
47.5000
11
36.0000
21
47.5000
0
LINE
8
PARAMETRIX
10
29.5000
20
54.0000
11
-29.5000
21
54.0000
0
LINE
8
PARAMETRIX
10
-29.5000
20
54.0000
11
-29.5000
21
51.0000
0
LINE
8
PARAMETRIX
10
-29.5000
20
51.0000
11
29.5000
21
51.0000
0
LINE
8
PARAMETRIX
10
29.5000
20
51.0000
11
29.5000
21
54.0000
0
ARC
8
PARAMETRIX
10
-29.5000
20
47.5000
40
6.5000
50
90.0000
51
180.0000
0
LINE
8
PARAMETRIX
10
-36.0000
20
47.5000
11
-33.0000
21
47.5000
0
ARC
8
PARAMETRIX
10
-29.5000
20
47.5000
40
3.5000
50
90.0000
51
180.0000
0
LINE
8
PARAMETRIX
10
-29.5000
20
51.0000
11
-29.5000
21
54.0000
0
LINE
8
PARAMETRIX
10
-36.0000
20
47.5000
11
-36.0000
21
-47.5000
0
LINE
8
PARAMETRIX
10
-36.0000
20
-47.5000
11
-33.0000
21
-47.5000
0
LINE
8
PARAMETRIX
10
-33.0000
20
-47.5000
11
-33.0000
21
47.5000
0
LINE
8
PARAMETRIX
10
-33.0000
20
47.5000
11
-36.0000
21
47.5000
0
ARC
8
PARAMETRIX
10
-29.5000
20
-47.5000
40
6.5000
50
180.0000
51
270.0000
0
LINE
8
PARAMETRIX
10
-29.5000
20
-54.0000
11
-29.5000
21
-51.0000
0
ARC
8
PARAMETRIX
10
-29.5000
20
-47.5000
40
3.5000
50
180.0000
51
270.0000
0
LINE
8
PARAMETRIX
10
-33.0000
20
-47.5000
11
-36.0000
21
-47.5000
0
LINE
8
PARAMETRIX
10
-28.5000
20
-50.0000
11
28.5000
21
-50.0000
0
LINE
8
PARAMETRIX
10
28.5000
20
-50.0000
11
28.5000
21
-47.0000
0
LINE
8
PARAMETRIX
10
28.5000
20
-47.0000
11
-28.5000
21
-47.0000
0
LINE
8
PARAMETRIX
10
-28.5000
20
-47.0000
11
-28.5000
21
-50.0000
0
ARC
8
PARAMETRIX
10
28.5000
20
-43.5000
40
6.5000
50
270.0000
51
0.0000
0
LINE
8
PARAMETRIX
10
35.0000
20
-43.5000
11
32.0000
21
-43.5000
0
ARC
8
PARAMETRIX
10
28.5000
20
-43.5000
40
3.5000
50
270.0000
51
0.0000
0
LINE
8
PARAMETRIX
10
28.5000
20
-47.0000
11
28.5000
21
-50.0000
0
LINE
8
PARAMETRIX
10
35.0000
20
-43.5000
11
35.0000
21
43.5000
0
LINE
8
PARAMETRIX
10
35.0000
20
43.5000
11
32.0000
21
43.5000
0
LINE
8
PARAMETRIX
10
32.0000
20
43.5000
11
32.0000
21
-43.5000
0
LINE
8
PARAMETRIX
10
32.0000
20
-43.5000
11
35.0000
21
-43.5000
0
ARC
8
PARAMETRIX
10
28.5000
20
43.5000
40
6.5000
50
0.0000
51
90.0000
0
LINE
8
PARAMETRIX
10
28.5000
20
50.0000
11
28.5000
21
47.0000
0
ARC
8
PARAMETRIX
10
28.5000
20
43.5000
40
3.5000
50
360.0000
51
90.0000
0
LINE
8
PARAMETRIX
10
32.0000
20
43.5000
11
35.0000
21
43.5000
0
LINE
8
PARAMETRIX
10
28.5000
20
50.0000
11
-28.5000
21
50.0000
0
LINE
8
PARAMETRIX
10
-28.5000
20
50.0000
11
-28.5000
21
47.0000
0
LINE
8
PARAMETRIX
10
-28.5000
20
47.0000
11
28.5000
21
47.0000
0
LINE
8
PARAMETRIX
10
28.5000
20
47.0000
11
28.5000
21
50.0000
0
ARC
8
PARAMETRIX
10
-28.5000
20
43.5000
40
6.5000
50
90.0000
51
180.0000
0
LINE
8
PARAMETRIX
10
-35.0000
20
43.5000
11
-32.0000
21
43.5000
0
ARC
8
PARAMETRIX
10
-28.5000
20
43.5000
40
3.5000
50
90.0000
51
180.0000
0
LINE
8
PARAMETRIX
10
-28.5000
20
47.0000
11
-28.5000
21
50.0000
0
LINE
8
PARAMETRIX
10
-35.0000
20
43.5000
11
-35.0000
21
-43.5000
0
LINE
8
PARAMETRIX
10
-35.0000
20
-43.5000
11
-32.0000
21
-43.5000
0
LINE
8
PARAMETRIX
10
-32.0000
20
-43.5000
11
-32.0000
21
43.5000
0
LINE
8
PARAMETRIX
10
-32.0000
20
43.5000
11
-35.0000
21
43.5000
0
ARC
8
PARAMETRIX
10
-28.5000
20
-43.5000
40
6.5000
50
180.0000
51
270.0000
0
LINE
8
PARAMETRIX
10
-28.5000
20
-50.0000
11
-28.5000
21
-47.0000
0
ARC
8
PARAMETRIX
10
-28.5000
20
-43.5000
40
3.5000
50
180.0000
51
270.0000
0
LINE
8
PARAMETRIX
10
-32.0000
20
-43.5000
11
-35.0000
21
-43.5000
0
LINE
8
PARAMETRIX
10
-27.5000
20
-46.0000
11
27.5000
21
-46.0000
0
LINE
8
PARAMETRIX
10
27.5000
20
-46.0000
11
27.5000
21
-43.0000
0
LINE
8
PARAMETRIX
10
27.5000
20
-43.0000
11
-27.5000
21
-43.0000
0
LINE
8
PARAMETRIX
10
-27.5000
20
-43.0000
11
-27.5000
21
-46.0000
0
ARC
8
PARAMETRIX
10
27.5000
20
-39.5000
40
6.5000
50
270.0000
51
0.0000
0
LINE
8
PARAMETRIX
10
34.0000
20
-39.5000
11
31.0000
21
-39.5000
0
ARC
8
PARAMETRIX
10
27.5000
20
-39.5000
40
3.5000
50
270.0000
51
0.0000
0
LINE
8
PARAMETRIX
10
27.5000
20
-43.0000
11
27.5000
21
-46.0000
0
LINE
8
PARAMETRIX
10
34.0000
20
-39.5000
11
34.0000
21
39.5000
0
LINE
8
PARAMETRIX
10
34.0000
20
39.5000
11
31.0000
21
39.5000
0
LINE
8
PARAMETRIX
10
31.0000
20
39.5000
11
31.0000
21
-39.5000
0
LINE
8
PARAMETRIX
10
31.0000
20
-39.5000
11
34.0000
21
-39.5000
0
ARC
8
PARAMETRIX
10
27.5000
20
39.5000
40
6.5000
50
360.0000
51
90.0000
0
LINE
8
PARAMETRIX
10
27.5000
20
46.0000
11
27.5000
21
43.0000
0
ARC
8
PARAMETRIX
10
27.5000
20
39.5000
40
3.5000
50
0.0000
51
90.0000
0
LINE
8
PARAMETRIX
10
31.0000
20
39.5000
11
34.0000
21
39.5000
0
LINE
8
PARAMETRIX
10
27.5000
20
46.0000
11
-27.5000
21
46.0000
0
LINE
8
PARAMETRIX
10
-27.5000
20
46.0000
11
-27.5000
21
43.0000
0
LINE
8
PARAMETRIX
10
-27.5000
20
43.0000
11
27.5000
21
43.0000
0
LINE
8
PARAMETRIX
10
27.5000
20
43.0000
11
27.5000
21
46.0000
0
ARC
8
PARAMETRIX
10
-27.5000
20
39.5000
40
6.5000
50
90.0000
51
180.0000
0
LINE
8
PARAMETRIX
10
-34.0000
20
39.5000
11
-31.0000
21
39.5000
0
ARC
8
PARAMETRIX
10
-27.5000
20
39.5000
40
3.5000
50
90.0000
51
180.0000
0
LINE
8
PARAMETRIX
10
-27.5000
20
43.0000
11
-27.5000
21
46.0000
0
LINE
8
PARAMETRIX
10
-34.0000
20
39.5000
11
-34.0000
21
-39.5000
0
LINE
8
PARAMETRIX
10
-34.0000
20
-39.5000
11
-31.0000
21
-39.5000
0
LINE
8
PARAMETRIX
10
-31.0000
20
-39.5000
11
-31.0000
21
39.5000
0
LINE
8
PARAMETRIX
10
-31.0000
20
39.5000
11
-34.0000
21
39.5000
0
ARC
8
PARAMETRIX
10
-27.5000
20
-39.5000
40
6.5000
50
180.0000
51
270.0000
0
LINE
8
PARAMETRIX
10
-27.5000
20
-46.0000
11
-27.5000
21
-43.0000
0
ARC
8
PARAMETRIX
10
-27.5000
20
-39.5000
40
3.5000
50
180.0000
51
270.0000
0
LINE
8
PARAMETRIX
10
-31.0000
20
-39.5000
11
-34.0000
21
-39.5000
0
LINE
8
PARAMETRIX
10
-26.5000
20
-42.0000
11
26.5000
21
-42.0000
0
LINE
8
PARAMETRIX
10
26.5000
20
-42.0000
11
26.5000
21
-39.0000
0
LINE
8
PARAMETRIX
10
26.5000
20
-39.0000
11
-26.5000
21
-39.0000
0
LINE
8
PARAMETRIX
10
-26.5000
20
-39.0000
11
-26.5000
21
-42.0000
0
ARC
8
PARAMETRIX
10
26.5000
20
-35.5000
40
6.5000
50
270.0000
51
0.0000
0
LINE
8
PARAMETRIX
10
33.0000
20
-35.5000
11
30.0000
21
-35.5000
0
ARC
8
PARAMETRIX
10
26.5000
20
-35.5000
40
3.5000
50
270.0000
51
0.0000
0
LINE
8
PARAMETRIX
10
26.5000
20
-39.0000
11
26.5000
21
-42.0000
0
LINE
8
PARAMETRIX
10
33.0000
20
-35.5000
11
33.0000
21
35.5000
0
LINE
8
PARAMETRIX
10
33.0000
20
35.5000
11
30.0000
21
35.5000
0
LINE
8
PARAMETRIX
10
30.0000
20
35.5000
11
30.0000
21
-35.5000
0
LINE
8
PARAMETRIX
10
30.0000
20
-35.5000
11
33.0000
21
-35.5000
0
ARC
8
PARAMETRIX
10
26.5000
20
35.5000
40
6.5000
50
0.0000
51
90.0000
0
LINE
8
PARAMETRIX
10
26.5000
20
42.0000
11
26.5000
21
39.0000
0
ARC
8
PARAMETRIX
10
26.5000
20
35.5000
40
3.5000
50
0.0000
51
90.0000
0
LINE
8
PARAMETRIX
10
30.0000
20
35.5000
11
33.0000
21
35.5000
0
LINE
8
PARAMETRIX
10
26.5000
20
42.0000
11
-26.5000
21
42.0000
0
LINE
8
PARAMETRIX
10
-26.5000
20
42.0000
11
-26.5000
21
39.0000
0
LINE
8
PARAMETRIX
10
-26.5000
20
39.0000
11
26.5000
21
39.0000
0
LINE
8
PARAMETRIX
10
26.5000
20
39.0000
11
26.5000
21
42.0000
0
ARC
8
PARAMETRIX
10
-26.5000
20
35.5000
40
6.5000
50
90.0000
51
180.0000
0
LINE
8
PARAMETRIX
10
-33.0000
20
35.5000
11
-30.0000
21
35.5000
0
ARC
8
PARAMETRIX
10
-26.5000
20
35.5000
40
3.5000
50
90.0000
51
180.0000
0
LINE
8
PARAMETRIX
10
-26.5000
20
39.0000
11
-26.5000
21
42.0000
0
LINE
8
PARAMETRIX
10
-33.0000
20
35.5000
11
-33.0000
21
-35.5000
0
LINE
8
PARAMETRIX
10
-33.0000
20
-35.5000
11
-30.0000
21
-35.5000
0
LINE
8
PARAMETRIX
10
-30.0000
20
-35.5000
11
-30.0000
21
35.5000
0
LINE
8
PARAMETRIX
10
-30.0000
20
35.5000
11
-33.0000
21
35.5000
0
ARC
8
PARAMETRIX
10
-26.5000
20
-35.5000
40
6.5000
50
180.0000
51
270.0000
0
LINE
8
PARAMETRIX
10
-26.5000
20
-42.0000
11
-26.5000
21
-39.0000
0
ARC
8
PARAMETRIX
10
-26.5000
20
-35.5000
40
3.5000
50
180.0000
51
270.0000
0
LINE
8
PARAMETRIX
10
-30.0000
20
-35.5000
11
-33.0000
21
-35.5000
0
LINE
8
PARAMETRIX
10
-25.5000
20
-38.0000
11
25.5000
21
-38.0000
0
LINE
8
PARAMETRIX
10
25.5000
20
-38.0000
11
25.5000
21
-35.0000
0
LINE
8
PARAMETRIX
10
25.5000
20
-35.0000
11
-25.5000
21
-35.0000
0
LINE
8
PARAMETRIX
10
-25.5000
20
-35.0000
11
-25.5000
21
-38.0000
0
ARC
8
PARAMETRIX
10
25.5000
20
-31.5000
40
6.5000
50
270.0000
51
0.0000
0
LINE
8
PARAMETRIX
10
32.0000
20
-31.5000
11
29.0000
21
-31.5000
0
ARC
8
PARAMETRIX
10
25.5000
20
-31.5000
40
3.5000
50
270.0000
51
0.0000
0
LINE
8
PARAMETRIX
10
25.5000
20
-35.0000
11
25.5000
21
-38.0000
0
LINE
8
PARAMETRIX
10
32.0000
20
-31.5000
11
32.0000
21
31.5000
0
LINE
8
PARAMETRIX
10
32.0000
20
31.5000
11
29.0000
21
31.5000
0
LINE
8
PARAMETRIX
10
29.0000
20
31.5000
11
29.0000
21
-31.5000
0
LINE
8
PARAMETRIX
10
29.0000
20
-31.5000
11
32.0000
21
-31.5000
0
ARC
8
PARAMETRIX
10
25.5000
20
31.5000
40
6.5000
50
360.0000
51
90.0000
0
LINE
8
PARAMETRIX
10
25.5000
20
38.0000
11
25.5000
21
35.0000
0
ARC
8
PARAMETRIX
10
25.5000
20
31.5000
40
3.5000
50
0.0000
51
90.0000
0
LINE
8
PARAMETRIX
10
29.0000
20
31.5000
11
32.0000
21
31.5000
0
LINE
8
PARAMETRIX
10
25.5000
20
38.0000
11
-25.5000
21
38.0000
0
LINE
8
PARAMETRIX
10
-25.5000
20
38.0000
11
-25.5000
21
35.0000
0
LINE
8
PARAMETRIX
10
-25.5000
20
35.0000
11
25.5000
21
35.0000
0
LINE
8
PARAMETRIX
10
25.5000
20
35.0000
11
25.5000
21
38.0000
0
ARC
8
PARAMETRIX
10
-25.5000
20
31.5000
40
6.5000
50
90.0000
51
180.0000
0
LINE
8
PARAMETRIX
10
-32.0000
20
31.5000
11
-29.0000
21
31.5000
0
ARC
8
PARAMETRIX
10
-25.5000
20
31.5000
40
3.5000
50
90.0000
51
180.0000
0
LINE
8
PARAMETRIX
10
-25.5000
20
35.0000
11
-25.5000
21
38.0000
0
LINE
8
PARAMETRIX
10
-32.0000
20
31.5000
11
-32.0000
21
-31.5000
0
LINE
8
PARAMETRIX
10
-32.0000
20
-31.5000
11
-29.0000
21
-31.5000
0
LINE
8
PARAMETRIX
10
-29.0000
20
-31.5000
11
-29.0000
21
31.5000
0
LINE
8
PARAMETRIX
10
-29.0000
20
31.5000
11
-32.0000
21
31.5000
0
ARC
8
PARAMETRIX
10
-25.5000
20
-31.5000
40
6.5000
50
180.0000
51
270.0000
0
LINE
8
PARAMETRIX
10
-25.5000
20
-38.0000
11
-25.5000
21
-35.0000
0
ARC
8
PARAMETRIX
10
-25.5000
20
-31.5000
40
3.5000
50
180.0000
51
270.0000
0
LINE
8
PARAMETRIX
10
-29.0000
20
-31.5000
11
-32.0000
21
-31.5000
0
LINE
8
PARAMETRIX
10
-24.5000
20
-34.0000
11
24.5000
21
-34.0000
0
LINE
8
PARAMETRIX
10
24.5000
20
-34.0000
11
24.5000
21
-31.0000
0
LINE
8
PARAMETRIX
10
24.5000
20
-31.0000
11
-24.5000
21
-31.0000
0
LINE
8
PARAMETRIX
10
-24.5000
20
-31.0000
11
-24.5000
21
-34.0000
0
ARC
8
PARAMETRIX
10
24.5000
20
-27.5000
40
6.5000
50
270.0000
51
0.0000
0
LINE
8
PARAMETRIX
10
31.0000
20
-27.5000
11
28.0000
21
-27.5000
0
ARC
8
PARAMETRIX
10
24.5000
20
-27.5000
40
3.5000
50
270.0000
51
0.0000
0
LINE
8
PARAMETRIX
10
24.5000
20
-31.0000
11
24.5000
21
-34.0000
0
LINE
8
PARAMETRIX
10
31.0000
20
-27.5000
11
31.0000
21
27.5000
0
LINE
8
PARAMETRIX
10
31.0000
20
27.5000
11
28.0000
21
27.5000
0
LINE
8
PARAMETRIX
10
28.0000
20
27.5000
11
28.0000
21
-27.5000
0
LINE
8
PARAMETRIX
10
28.0000
20
-27.5000
11
31.0000
21
-27.5000
0
ARC
8
PARAMETRIX
10
24.5000
20
27.5000
40
6.5000
50
360.0000
51
90.0000
0
LINE
8
PARAMETRIX
10
24.5000
20
34.0000
11
24.5000
21
31.0000
0
ARC
8
PARAMETRIX
10
24.5000
20
27.5000
40
3.5000
50
0.0000
51
90.0000
0
LINE
8
PARAMETRIX
10
28.0000
20
27.5000
11
31.0000
21
27.5000
0
LINE
8
PARAMETRIX
10
24.5000
20
34.0000
11
-24.5000
21
34.0000
0
LINE
8
PARAMETRIX
10
-24.5000
20
34.0000
11
-24.5000
21
31.0000
0
LINE
8
PARAMETRIX
10
-24.5000
20
31.0000
11
24.5000
21
31.0000
0
LINE
8
PARAMETRIX
10
24.5000
20
31.0000
11
24.5000
21
34.0000
0
ARC
8
PARAMETRIX
10
-24.5000
20
27.5000
40
6.5000
50
90.0000
51
180.0000
0
LINE
8
PARAMETRIX
10
-31.0000
20
27.5000
11
-28.0000
21
27.5000
0
ARC
8
PARAMETRIX
10
-24.5000
20
27.5000
40
3.5000
50
90.0000
51
180.0000
0
LINE
8
PARAMETRIX
10
-24.5000
20
31.0000
11
-24.5000
21
34.0000
0
LINE
8
PARAMETRIX
10
-31.0000
20
27.5000
11
-31.0000
21
-27.5000
0
LINE
8
PARAMETRIX
10
-31.0000
20
-27.5000
11
-28.0000
21
-27.5000
0
LINE
8
PARAMETRIX
10
-28.0000
20
-27.5000
11
-28.0000
21
27.5000
0
LINE
8
PARAMETRIX
10
-28.0000
20
27.5000
11
-31.0000
21
27.5000
0
ARC
8
PARAMETRIX
10
-24.5000
20
-27.5000
40
6.5000
50
180.0000
51
270.0000
0
LINE
8
PARAMETRIX
10
-24.5000
20
-34.0000
11
-24.5000
21
-31.0000
0
ARC
8
PARAMETRIX
10
-24.5000
20
-27.5000
40
3.5000
50
180.0000
51
270.0000
0
LINE
8
PARAMETRIX
10
-28.0000
20
-27.5000
11
-31.0000
21
-27.5000
0
LINE
8
PARAMETRIX
10
-23.5000
20
-30.0000
11
23.5000
21
-30.0000
0
LINE
8
PARAMETRIX
10
23.5000
20
-30.0000
11
23.5000
21
-27.0000
0
LINE
8
PARAMETRIX
10
23.5000
20
-27.0000
11
-23.5000
21
-27.0000
0
LINE
8
PARAMETRIX
10
-23.5000
20
-27.0000
11
-23.5000
21
-30.0000
0
ARC
8
PARAMETRIX
10
23.5000
20
-23.5000
40
6.5000
50
270.0000
51
0.0000
0
LINE
8
PARAMETRIX
10
30.0000
20
-23.5000
11
27.0000
21
-23.5000
0
ARC
8
PARAMETRIX
10
23.5000
20
-23.5000
40
3.5000
50
270.0000
51
0.0000
0
LINE
8
PARAMETRIX
10
23.5000
20
-27.0000
11
23.5000
21
-30.0000
0
LINE
8
PARAMETRIX
10
30.0000
20
-23.5000
11
30.0000
21
23.5000
0
LINE
8
PARAMETRIX
10
30.0000
20
23.5000
11
27.0000
21
23.5000
0
LINE
8
PARAMETRIX
10
27.0000
20
23.5000
11
27.0000
21
-23.5000
0
LINE
8
PARAMETRIX
10
27.0000
20
-23.5000
11
30.0000
21
-23.5000
0
ARC
8
PARAMETRIX
10
23.5000
20
23.5000
40
6.5000
50
360.0000
51
90.0000
0
LINE
8
PARAMETRIX
10
23.5000
20
30.0000
11
23.5000
21
27.0000
0
ARC
8
PARAMETRIX
10
23.5000
20
23.5000
40
3.5000
50
360.0000
51
90.0000
0
LINE
8
PARAMETRIX
10
27.0000
20
23.5000
11
30.0000
21
23.5000
0
LINE
8
PARAMETRIX
10
23.5000
20
30.0000
11
-23.5000
21
30.0000
0
LINE
8
PARAMETRIX
10
-23.5000
20
30.0000
11
-23.5000
21
27.0000
0
LINE
8
PARAMETRIX
10
-23.5000
20
27.0000
11
23.5000
21
27.0000
0
LINE
8
PARAMETRIX
10
23.5000
20
27.0000
11
23.5000
21
30.0000
0
ARC
8
PARAMETRIX
10
-23.5000
20
23.5000
40
6.5000
50
90.0000
51
180.0000
0
LINE
8
PARAMETRIX
10
-30.0000
20
23.5000
11
-27.0000
21
23.5000
0
ARC
8
PARAMETRIX
10
-23.5000
20
23.5000
40
3.5000
50
90.0000
51
180.0000
0
LINE
8
PARAMETRIX
10
-23.5000
20
27.0000
11
-23.5000
21
30.0000
0
LINE
8
PARAMETRIX
10
-30.0000
20
23.5000
11
-30.0000
21
-23.5000
0
LINE
8
PARAMETRIX
10
-30.0000
20
-23.5000
11
-27.0000
21
-23.5000
0
LINE
8
PARAMETRIX
10
-27.0000
20
-23.5000
11
-27.0000
21
23.5000
0
LINE
8
PARAMETRIX
10
-27.0000
20
23.5000
11
-30.0000
21
23.5000
0
ARC
8
PARAMETRIX
10
-23.5000
20
-23.5000
40
6.5000
50
180.0000
51
270.0000
0
LINE
8
PARAMETRIX
10
-23.5000
20
-30.0000
11
-23.5000
21
-27.0000
0
ARC
8
PARAMETRIX
10
-23.5000
20
-23.5000
40
3.5000
50
180.0000
51
270.0000
0
LINE
8
PARAMETRIX
10
-27.0000
20
-23.5000
11
-30.0000
21
-23.5000
0
ENDSEC
0
EOF
