0
SECTION
2
ENTITIES
0
LINE
8
PARAMETRIX
10
-29.5000
20
0.0000
11
29.5000
21
0.0000
0
LINE
8
PARAMETRIX
10
29.5000
20
0.0000
11
29.5000
21
50.0000
0
LINE
8
PARAMETRIX
10
29.5000
20
50.0000
11
24.8125
21
88.0562
0
ARC
8
PARAMETRIX
10
-0.0000
20
85.0000
40
25.0000
50
7.0219
51
172.9781
0
LINE
8
PARAMETRIX
10
-24.8125
20
88.0562
11
-29.5000
21
50.0000
0
LINE
8
PARAMETRIX
10
-29.5000
20
50.0000
11
-29.5000
21
0.0000
0
CIRCLE
8
PARAMETRIX
10
0.0000
20
25.0000
40
20.0000
0
CIRCLE
8
PARAMETRIX
10
0.0000
20
85.0000
40
10.0000
0
LINE
8
PARAMETRIX
10
-26.5017
20
70.5117
11
-11.4274
21
62.7646
0
ARC
8
PARAMETRIX
10
-0.0000
20
85.0000
40
25.0000
50
242.8000
51
33.2000
0
LINE
8
PARAMETRIX
10
20.9191
20
98.6891
11
11.6388
21
112.8709
0
LINE
8
PARAMETRIX
10
11.6388
20
112.8709
11
-25.5185
21
146.3275
0
LINE
8
PARAMETRIX
10
-25.5185
20
146.3275
11
-57.2429
21
167.1316
0
ARC
8
PARAMETRIX
10
-69.8556
20
147.8983
40
23.0000
50
56.7441
51
219.2559
0
LINE
8
PARAMETRIX
10
-87.6652
20
133.3442
11
-63.6589
21
103.9682
0
LINE
8
PARAMETRIX
10
-63.6589
20
103.9682
11
-26.5017
21
70.5117
0
CIRCLE
8
PARAMETRIX
10
-26.0101
20
108.4196
40
20.0000
0
CIRCLE
8
PARAMETRIX
10
-69.8556
20
147.8983
40
9.0000
0
CIRCLE
8
PARAMETRIX
10
0.0000
20
85.0000
40
10.0000
0
LINE
8
PARAMETRIX
10
-96.2642
20
159.7235
11
-92.2448
21
142.6327
0
ARC
8
PARAMETRIX
10
-69.8556
20
147.8983
40
23.0000
50
193.2344
51
334.7656
0
LINE
8
PARAMETRIX
10
-49.0505
20
138.0928
11
-41.5655
21
153.9744
0
LINE
8
PARAMETRIX
10
-41.5655
20
153.9744
11
-36.3391
21
203.7005
0
LINE
8
PARAMETRIX
10
-36.3391
20
203.7005
11
-39.3049
21
241.0563
0
ARC
8
PARAMETRIX
10
-60.2390
20
239.3943
40
21.0000
50
4.5394
51
163.4606
0
LINE
8
PARAMETRIX
10
-80.3701
20
245.3724
11
-91.0378
21
209.4496
0
LINE
8
PARAMETRIX
10
-91.0378
20
209.4496
11
-96.2642
21
159.7235
0
CIRCLE
8
PARAMETRIX
10
-66.3016
20
181.7120
40
19.5000
0
CIRCLE
8
PARAMETRIX
10
-60.2390
20
239.3943
40
8.0000
0
CIRCLE
8
PARAMETRIX
10
-69.8556
20
147.8983
40
9.0000
0
LINE
8
PARAMETRIX
10
-72.4611
20
264.2312
11
-79.5491
21
247.6477
0
ARC
8
PARAMETRIX
10
-60.2390
20
239.3943
40
21.0000
50
156.8574
51
289.1426
0
LINE
8
PARAMETRIX
10
-53.3527
20
219.5555
11
-36.3152
21
225.4694
0
LINE
8
PARAMETRIX
10
-36.3152
20
225.4694
11
0.2525
21
259.5693
0
LINE
8
PARAMETRIX
10
0.2525
20
259.5693
11
21.2254
21
289.9895
0
ARC
8
PARAMETRIX
10
5.5828
20
300.7741
40
19.0000
50
325.4159
51
120.5841
0
LINE
8
PARAMETRIX
10
-4.0844
20
317.1309
11
-35.8934
21
298.3311
0
LINE
8
PARAMETRIX
10
-35.8934
20
298.3311
11
-72.4611
21
264.2312
0
CIRCLE
8
PARAMETRIX
10
-36.1043
20
261.9002
40
19.0000
0
CIRCLE
8
PARAMETRIX
10
5.5828
20
300.7741
40
7.0000
0
CIRCLE
8
PARAMETRIX
10
-60.2390
20
239.3943
40
8.0000
0
LINE
8
PARAMETRIX
10
-17.4662
20
313.7352
11
-12.7938
21
295.9471
0
ARC
8
PARAMETRIX
10
5.5828
20
300.7741
40
19.0000
50
194.7176
51
317.2824
0
LINE
8
PARAMETRIX
10
19.5422
20
287.8848
11
32.0188
21
301.3972
0
LINE
8
PARAMETRIX
10
32.0188
20
301.3972
11
44.1149
21
349.9120
0
LINE
8
PARAMETRIX
10
44.1149
20
349.9120
11
43.8716
21
386.2739
0
ARC
8
PARAMETRIX
10
26.8720
20
386.1602
40
17.0000
50
0.3834
51
151.6166
0
LINE
8
PARAMETRIX
10
11.9156
20
394.2415
11
-5.3702
21
362.2500
0
LINE
8
PARAMETRIX
10
-5.3702
20
362.2500
11
-17.4662
21
313.7352
0
CIRCLE
8
PARAMETRIX
10
13.3243
20
331.8236
40
18.5000
0
CIRCLE
8
PARAMETRIX
10
26.8720
20
386.1602
40
6.0000
0
CIRCLE
8
PARAMETRIX
10
5.5828
20
300.7741
40
7.0000
0
LINE
8
PARAMETRIX
10
30.7138
20
411.0899
11
16.2045
21
399.3967
0
ARC
8
PARAMETRIX
10
26.8720
20
386.1602
40
17.0000
50
128.8657
51
241.1343
0
LINE
8
PARAMETRIX
10
18.6651
20
371.2724
11
34.9844
21
362.2763
0
LINE
8
PARAMETRIX
10
34.9844
20
362.2763
11
84.7942
21
366.6341
0
LINE
8
PARAMETRIX
10
84.7942
20
366.6341
11
118.0307
21
379.6948
0
ARC
8
PARAMETRIX
10
112.5447
20
393.6556
40
15.0000
50
291.4529
51
78.5471
0
LINE
8
PARAMETRIX
10
115.5231
20
408.3569
11
80.5236
21
415.4477
0
LINE
8
PARAMETRIX
10
80.5236
20
415.4477
11
30.7138
21
411.0899
0
CIRCLE
8
PARAMETRIX
10
57.7540
20
388.8620
40
18.0000
0
CIRCLE
8
PARAMETRIX
10
112.5447
20
393.6556
40
5.0000
0
CIRCLE
8
PARAMETRIX
10
26.8720
20
386.1602
40
6.0000
0
LINE
8
PARAMETRIX
10
163.8848
20
424.3385
11
125.8610
21
451.9644
0
LINE
8
PARAMETRIX
10
125.8610
20
451.9644
11
96.4717
21
411.5136
0
LINE
8
PARAMETRIX
10
96.4717
20
411.5136
11
97.5704
21
392.7775
0
ARC
8
PARAMETRIX
10
112.5447
20
393.6556
40
15.0000
50
183.3560
51
284.6440
0
LINE
8
PARAMETRIX
10
116.3369
20
379.1428
11
134.4955
21
383.8877
0
LINE
8
PARAMETRIX
10
134.4955
20
383.8877
11
163.8848
21
424.3385
0
CIRCLE
8
PARAMETRIX
10
130.1783
20
417.9261
40
17.5000
0
CIRCLE
8
PARAMETRIX
10
112.5447
20
393.6556
40
5.0000
0
ENDSEC
0
EOF
