0
SECTION
2
ENTITIES
0
LINE
8
PARAMETRIX
10
-47.5000
20
0.0000
11
47.5000
21
0.0000
0
LINE
8
PARAMETRIX
10
47.5000
20
0.0000
11
47.5000
21
50.0000
0
LINE
8
PARAMETRIX
10
47.5000
20
50.0000
11
-47.5000
21
50.0000
0
LINE
8
PARAMETRIX
10
-47.5000
20
50.0000
11
-47.5000
21
0.0000
0
CIRCLE
8
PARAMETRIX
10
0.0000
20
25.0000
40
20.0000
0
LINE
8
PARAMETRIX
10
-54.0000
20
0.0000
11
-51.0000
21
0.0000
0
LINE
8
PARAMETRIX
10
-51.0000
20
0.0000
11
-51.0000
21
110.0000
0
LINE
8
PARAMETRIX
10
-51.0000
20
110.0000
11
-54.0000
21
110.0000
0
LINE
8
PARAMETRIX
10
-54.0000
20
110.0000
11
-54.0000
21
0.0000
0
LINE
8
PARAMETRIX
10
51.0000
20
0.0000
11
54.0000
21
0.0000
0
LINE
8
PARAMETRIX
10
54.0000
20
0.0000
11
54.0000
21
110.0000
0
LINE
8
PARAMETRIX
10
54.0000
20
110.0000
11
51.0000
21
110.0000
0
LINE
8
PARAMETRIX
10
51.0000
20
110.0000
11
51.0000
21
0.0000
0
LINE
8
PARAMETRIX
10
-43.5000
20
95.0000
11
43.5000
21
95.0000
0
LINE
8
PARAMETRIX
10
43.5000
20
95.0000
11
43.5000
21
145.0000
0
LINE
8
PARAMETRIX
10
43.5000
20
145.0000
11
-43.5000
21
145.0000
0
LINE
8
PARAMETRIX
10
-43.5000
20
145.0000
11
-43.5000
21
95.0000
0
CIRCLE
8
PARAMETRIX
10
0.0000
20
120.0000
40
20.0000
0
LINE
8
PARAMETRIX
10
-50.0000
20
60.0000
11
-47.0000
21
60.0000
0
LINE
8
PARAMETRIX
10
-47.0000
20
60.0000
11
-47.0000
21
202.0000
0
LINE
8
PARAMETRIX
10
-47.0000
20
202.0000
11
-50.0000
21
202.0000
0
LINE
8
PARAMETRIX
10
-50.0000
20
202.0000
11
-50.0000
21
60.0000
0
LINE
8
PARAMETRIX
10
47.0000
20
60.0000
11
50.0000
21
60.0000
0
LINE
8
PARAMETRIX
10
50.0000
20
60.0000
11
50.0000
21
202.0000
0
LINE
8
PARAMETRIX
10
50.0000
20
202.0000
11
47.0000
21
202.0000
0
LINE
8
PARAMETRIX
10
47.0000
20
202.0000
11
47.0000
21
60.0000
0
LINE
8
PARAMETRIX
10
-39.5000
20
188.0000
11
39.5000
21
188.0000
0
LINE
8
PARAMETRIX
10
39.5000
20
188.0000
11
39.5000
21
238.0000
0
LINE
8
PARAMETRIX
10
39.5000
20
238.0000
11
-39.5000
21
238.0000
0
LINE
8
PARAMETRIX
10
-39.5000
20
238.0000
11
-39.5000
21
188.0000
0
CIRCLE
8
PARAMETRIX
10
0.0000
20
213.0000
40
19.5000
0
LINE
8
PARAMETRIX
10
-46.0000
20
156.0000
11
-43.0000
21
156.0000
0
LINE
8
PARAMETRIX
10
-43.0000
20
156.0000
11
-43.0000
21
292.0000
0
LINE
8
PARAMETRIX
10
-43.0000
20
292.0000
11
-46.0000
21
292.0000
0
LINE
8
PARAMETRIX
10
-46.0000
20
292.0000
11
-46.0000
21
156.0000
0
LINE
8
PARAMETRIX
10
43.0000
20
156.0000
11
46.0000
21
156.0000
0
LINE
8
PARAMETRIX
10
46.0000
20
156.0000
11
46.0000
21
292.0000
0
LINE
8
PARAMETRIX
10
46.0000
20
292.0000
11
43.0000
21
292.0000
0
LINE
8
PARAMETRIX
10
43.0000
20
292.0000
11
43.0000
21
156.0000
0
LINE
8
PARAMETRIX
10
-35.5000
20
279.0000
11
35.5000
21
279.0000
0
LINE
8
PARAMETRIX
10
35.5000
20
279.0000
11
35.5000
21
329.0000
0
LINE
8
PARAMETRIX
10
35.5000
20
329.0000
11
-35.5000
21
329.0000
0
LINE
8
PARAMETRIX
10
-35.5000
20
329.0000
11
-35.5000
21
279.0000
0
CIRCLE
8
PARAMETRIX
10
0.0000
20
304.0000
40
19.0000
0
LINE
8
PARAMETRIX
10
-42.0000
20
250.0000
11
-39.0000
21
250.0000
0
LINE
8
PARAMETRIX
10
-39.0000
20
250.0000
11
-39.0000
21
380.0000
0
LINE
8
PARAMETRIX
10
-39.0000
20
380.0000
11
-42.0000
21
380.0000
0
LINE
8
PARAMETRIX
10
-42.0000
20
380.0000
11
-42.0000
21
250.0000
0
LINE
8
PARAMETRIX
10
39.0000
20
250.0000
11
42.0000
21
250.0000
0
LINE
8
PARAMETRIX
10
42.0000
20
250.0000
11
42.0000
21
380.0000
0
LINE
8
PARAMETRIX
10
42.0000
20
380.0000
11
39.0000
21
380.0000
0
LINE
8
PARAMETRIX
10
39.0000
20
380.0000
11
39.0000
21
250.0000
0
LINE
8
PARAMETRIX
10
-31.5000
20
368.0000
11
31.5000
21
368.0000
0
LINE
8
PARAMETRIX
10
31.5000
20
368.0000
11
31.5000
21
418.0000
0
LINE
8
PARAMETRIX
10
31.5000
20
418.0000
11
-31.5000
21
418.0000
0
LINE
8
PARAMETRIX
10
-31.5000
20
418.0000
11
-31.5000
21
368.0000
0
CIRCLE
8
PARAMETRIX
10
0.0000
20
393.0000
40
18.5000
0
LINE
8
PARAMETRIX
10
-38.0000
20
342.0000
11
-35.0000
21
342.0000
0
LINE
8
PARAMETRIX
10
-35.0000
20
342.0000
11
-35.0000
21
466.0000
0
LINE
8
PARAMETRIX
10
-35.0000
20
466.0000
11
-38.0000
21
466.0000
0
LINE
8
PARAMETRIX
10
-38.0000
20
466.0000
11
-38.0000
21
342.0000
0
LINE
8
PARAMETRIX
10
35.0000
20
342.0000
11
38.0000
21
342.0000
0
LINE
8
PARAMETRIX
10
38.0000
20
342.0000
11
38.0000
21
466.0000
0
LINE
8
PARAMETRIX
10
38.0000
20
466.0000
11
35.0000
21
466.0000
0
LINE
8
PARAMETRIX
10
35.0000
20
466.0000
11
35.0000
21
342.0000
0
LINE
8
PARAMETRIX
10
-27.5000
20
455.0000
11
27.5000
21
455.0000
0
LINE
8
PARAMETRIX
10
27.5000
20
455.0000
11
27.5000
21
505.0000
0
LINE
8
PARAMETRIX
10
27.5000
20
505.0000
11
-27.5000
21
505.0000
0
LINE
8
PARAMETRIX
10
-27.5000
20
505.0000
11
-27.5000
21
455.0000
0
CIRCLE
8
PARAMETRIX
10
0.0000
20
480.0000
40
18.0000
0
LINE
8
PARAMETRIX
10
-34.0000
20
432.0000
11
-31.0000
21
432.0000
0
LINE
8
PARAMETRIX
10
-31.0000
20
432.0000
11
-31.0000
21
550.0000
0
LINE
8
PARAMETRIX
10
-31.0000
20
550.0000
11
-34.0000
21
550.0000
0
LINE
8
PARAMETRIX
10
-34.0000
20
550.0000
11
-34.0000
21
432.0000
0
LINE
8
PARAMETRIX
10
31.0000
20
432.0000
11
34.0000
21
432.0000
0
LINE
8
PARAMETRIX
10
34.0000
20
432.0000
11
34.0000
21
550.0000
0
LINE
8
PARAMETRIX
10
34.0000
20
550.0000
11
31.0000
21
550.0000
0
LINE
8
PARAMETRIX
10
31.0000
20
550.0000
11
31.0000
21
432.0000
0
LINE
8
PARAMETRIX
10
23.5000
20
590.0000
11
-23.5000
21
590.0000
0
LINE
8
PARAMETRIX
10
-23.5000
20
590.0000
11
-23.5000
21
540.0000
0
LINE
8
PARAMETRIX
10
-23.5000
20
540.0000
11
23.5000
21
540.0000
0
LINE
8
PARAMETRIX
10
23.5000
20
540.0000
11
23.5000
21
590.0000
0
CIRCLE
8
PARAMETRIX
10
-0.0000
20
565.0000
40
17.5000
0
LINE
8
PARAMETRIX
10
30.0000
20
590.0000
11
27.0000
21
590.0000
0
LINE
8
PARAMETRIX
10
27.0000
20
590.0000
11
27.0000
21
520.0000
0
LINE
8
PARAMETRIX
10
27.0000
20
520.0000
11
30.0000
21
520.0000
0
LINE
8
PARAMETRIX
10
30.0000
20
520.0000
11
30.0000
21
590.0000
0
LINE
8
PARAMETRIX
10
-27.0000
20
590.0000
11
-30.0000
21
590.0000
0
LINE
8
PARAMETRIX
10
-30.0000
20
590.0000
11
-30.0000
21
520.0000
0
LINE
8
PARAMETRIX
10
-30.0000
20
520.0000
11
-27.0000
21
520.0000
0
LINE
8
PARAMETRIX
10
-27.0000
20
520.0000
11
-27.0000
21
590.0000
0
ENDSEC
0
EOF
