<svg width="296" height="507" viewBox="-111 -25 296 507" xmlns="http://www.w3.org/2000/svg"><path d="M -29.5000 451.9644 L 29.5000 451.9644 L 29.5000 401.9644 L 24.8125 363.9082 A 25.0000 25.0000 0 0 0 -24.8125 363.9082 L -29.5000 401.9644 L -29.5000 451.9644 Z" stroke="green" stroke-width="1" fill="none" /><circle cx="0.0000" cy="426.9644" r="20.0000" stroke="green" stroke-width="1" fill="none" /><circle cx="0.0000" cy="366.9644" r="10.0000" stroke="green" stroke-width="1" fill="none" /><path d="M -26.5017 381.4528 L -11.4274 389.1999 A 25.0000 25.0000 0 0 0 20.9191 353.2754 L 11.6388 339.0935 L -25.5185 305.6370 L -57.2429 284.8329 A 23.0000 23.0000 0 0 0 -87.6652 318.6202 L -63.6589 347.9962 L -26.5017 381.4528 Z" stroke="green" stroke-width="1" fill="none" /><circle cx="-26.0101" cy="343.5449" r="20.0000" stroke="green" stroke-width="1" fill="none" /><circle cx="-69.8556" cy="304.0662" r="9.0000" stroke="green" stroke-width="1" fill="none" /><circle cx="0.0000" cy="366.9644" r="10.0000" stroke="green" stroke-width="1" fill="none" /><path d="M -96.2642 292.2409 L -92.2448 309.3317 A 23.0000 23.0000 0 0 0 -49.0505 313.8716 L -41.5655 297.9900 L -36.3391 248.2639 L -39.3049 210.9081 A 21.0000 21.0000 0 0 0 -80.3701 206.5920 L -91.0378 242.5148 L -96.2642 292.2409 Z" stroke="green" stroke-width="1" fill="none" /><circle cx="-66.3016" cy="270.2524" r="19.5000" stroke="green" stroke-width="1" fill="none" /><circle cx="-60.2390" cy="212.5702" r="8.0000" stroke="green" stroke-width="1" fill="none" /><circle cx="-69.8556" cy="304.0662" r="9.0000" stroke="green" stroke-width="1" fill="none" /><path d="M -72.4611 187.7333 L -79.5491 204.3167 A 21.0000 21.0000 0 0 0 -53.3527 232.4090 L -36.3152 226.4950 L 0.2525 192.3951 L 21.2254 161.9750 A 19.0000 19.0000 0 0 0 -4.0844 134.8335 L -35.8934 153.6334 L -72.4611 187.7333 Z" stroke="green" stroke-width="1" fill="none" /><circle cx="-36.1043" cy="190.0642" r="19.0000" stroke="green" stroke-width="1" fill="none" /><circle cx="5.5828" cy="151.1903" r="7.0000" stroke="green" stroke-width="1" fill="none" /><circle cx="-60.2390" cy="212.5702" r="8.0000" stroke="green" stroke-width="1" fill="none" /><path d="M -17.4662 138.2292 L -12.7938 156.0174 A 19.0000 19.0000 0 0 0 19.5422 164.0796 L 32.0188 150.5672 L 44.1149 102.0525 L 43.8716 65.6905 A 17.0000 17.0000 0 0 0 11.9156 57.7230 L -5.3702 89.7144 L -17.4662 138.2292 Z" stroke="green" stroke-width="1" fill="none" /><circle cx="13.3243" cy="120.1408" r="18.5000" stroke="green" stroke-width="1" fill="none" /><circle cx="26.8720" cy="65.8043" r="6.0000" stroke="green" stroke-width="1" fill="none" /><circle cx="5.5828" cy="151.1903" r="7.0000" stroke="green" stroke-width="1" fill="none" /><path d="M 30.7138 40.8746 L 16.2045 52.5678 A 17.0000 17.0000 0 0 0 18.6651 80.6921 L 34.9844 89.6881 L 84.7942 85.3303 L 118.0307 72.2697 A 15.0000 15.0000 0 0 0 115.5231 43.6076 L 80.5236 36.5168 L 30.7138 40.8746 Z" stroke="green" stroke-width="1" fill="none" /><circle cx="57.7540" cy="63.1025" r="18.0000" stroke="green" stroke-width="1" fill="none" /><circle cx="112.5447" cy="58.3089" r="5.0000" stroke="green" stroke-width="1" fill="none" /><circle cx="26.8720" cy="65.8043" r="6.0000" stroke="green" stroke-width="1" fill="none" /><path d="M 163.8848 27.6259 L 125.8610 0.0000 L 96.4717 40.4508 L 97.5704 59.1870 A 15.0000 15.0000 0 0 0 116.3369 72.8216 L 134.4955 68.0768 L 163.8848 27.6259 Z" stroke="green" stroke-width="1" fill="none" /><circle cx="130.1783" cy="34.0384" r="17.5000" stroke="green" stroke-width="1" fill="none" /><circle cx="112.5447" cy="58.3089" r="5.0000" stroke="green" stroke-width="1" fill="none" /></svg>