<svg width="63" height="54" viewBox="-7 -23 63 54" xmlns="http://www.w3.org/2000/svg"><path d="M 4.0000 0.0000 A 50.0000 50.0000 0 0 0 1.6970 -15.0000 L 1.6970 -20.0000 L -0.6228 -20.0000 L -0.6228 -15.0000 A 35.0000 35.0000 0 0 0 -4.0000 0.0000 A 35.0000 35.0000 0 0 0 -0.6228 15.0000 L -0.6228 20.0000 L 1.6970 20.0000 L 1.6970 15.0000 A 50.0000 50.0000 0 0 0 4.0000 0.0000 Z" stroke="green" stroke-width="1" fill="none" /><path d="M 24.0000 0.0000 A 50.0000 50.0000 0 0 0 21.6970 -15.0000 L 21.6970 -20.0000 L 16.0000 -20.0000 L 16.0000 0.0000 L 16.0000 20.0000 L 21.6970 20.0000 L 21.6970 15.0000 A 50.0000 50.0000 0 0 0 24.0000 0.0000 Z" stroke="green" stroke-width="1" fill="none" /><path d="M 44.0000 0.0000 A 50.0000 50.0000 0 0 0 41.6970 -15.0000 L 41.6970 -20.0000 L 32.6228 -20.0000 L 32.6228 -15.0000 A 35.0000 35.0000 0 0 1 36.0000 0.0000 A 35.0000 35.0000 0 0 1 32.6228 15.0000 L 32.6228 20.0000 L 41.6970 20.0000 L 41.6970 15.0000 A 50.0000 50.0000 0 0 0 44.0000 0.0000 Z" stroke="green" stroke-width="1" fill="none" /></svg>