<svg width="230" height="193" viewBox="-111 -10 230 193" xmlns="http://www.w3.org/2000/svg"><path d="M 100.0000 163.0000 L 100.0000 162.7008 A 3.0000 3.0000 0 0 0 97.3141 159.7173 L 7.6859 150.2827 A 3.0000 3.0000 0 0 1 5.0000 147.2992 L 5.0000 52.4065 A 3.0000 3.0000 0 0 1 7.3492 49.4780 L 47.6508 40.5220 A 3.0000 3.0000 0 0 0 50.0000 37.5935 L 50.0000 12.0170 A 3.0000 3.0000 0 0 0 48.1102 9.2299 A 130.0000 130.0000 0 0 0 -48.1102 9.2299 A 3.0000 3.0000 0 0 0 -50.0000 12.0170 L -50.0000 37.5935 A 3.0000 3.0000 0 0 0 -47.6508 40.5220 L -7.3492 49.4780 A 3.0000 3.0000 0 0 1 -5.0000 52.4065 L -5.0000 147.2992 A 3.0000 3.0000 0 0 1 -7.6859 150.2827 L -97.3141 159.7173 A 3.0000 3.0000 0 0 0 -100.0000 162.7008 L -100.0000 163.0000 A 3.0000 3.0000 0 0 0 -97.0000 166.0000 L 97.0000 166.0000 A 3.0000 3.0000 0 0 0 100.0000 163.0000 Z" stroke="green" stroke-width="1" fill="none" /></svg>