0
SECTION
2
ENTITIES
0
LINE
8
PARAMETRIX
10
-125.0000
20
0.0000
11
125.0000
21
0.0000
0
LINE
8
PARAMETRIX
10
125.0000
20
0.0000
11
145.8808
21
0.7814
0
LINE
8
PARAMETRIX
10
145.8808
20
0.7814
11
395.1816
21
19.4658
0
LINE
8
PARAMETRIX
10
395.1816
20
19.4658
11
415.9456
21
21.8056
0
LINE
8
PARAMETRIX
10
415.9456
20
21.8056
11
663.1527
21
59.0699
0
LINE
8
PARAMETRIX
10
663.1527
20
59.0699
11
683.6838
21
62.9550
0
LINE
8
PARAMETRIX
10
683.6838
20
62.9550
11
927.4145
21
118.5907
0
LINE
8
PARAMETRIX
10
927.4145
20
118.5907
11
947.5978
21
123.9994
0
LINE
8
PARAMETRIX
10
947.5978
20
123.9994
11
1186.4887
21
197.6954
0
LINE
8
PARAMETRIX
10
1186.4887
20
197.6954
11
1206.2113
21
204.5974
0
LINE
8
PARAMETRIX
10
1206.2113
20
204.5974
11
1438.9263
21
295.9415
0
LINE
8
PARAMETRIX
10
1438.9263
20
295.9415
11
1458.0779
21
304.2982
0
LINE
8
PARAMETRIX
10
1458.0779
20
304.2982
11
655.9711
21
2142.5377
0
LINE
8
PARAMETRIX
10
655.9711
20
2142.5377
11
636.8196
21
2134.1810
0
LINE
8
PARAMETRIX
10
636.8196
20
2134.1810
11
543.7336
21
2097.6434
0
LINE
8
PARAMETRIX
10
543.7336
20
2097.6434
11
524.0110
21
2090.7414
0
LINE
8
PARAMETRIX
10
524.0110
20
2090.7414
11
428.4546
21
2061.2630
0
LINE
8
PARAMETRIX
10
428.4546
20
2061.2630
11
408.2713
21
2055.8544
0
LINE
8
PARAMETRIX
10
408.2713
20
2055.8544
11
310.7790
21
2033.6000
0
LINE
8
PARAMETRIX
10
310.7790
20
2033.6000
11
290.2480
21
2029.7150
0
LINE
8
PARAMETRIX
10
290.2480
20
2029.7150
11
191.3651
21
2014.8092
0
LINE
8
PARAMETRIX
10
191.3651
20
2014.8092
11
170.6011
21
2012.4695
0
LINE
8
PARAMETRIX
10
170.6011
20
2012.4695
11
70.8808
21
2004.9957
0
LINE
8
PARAMETRIX
10
70.8808
20
2004.9957
11
50.0000
21
2004.2143
0
LINE
8
PARAMETRIX
10
50.0000
20
2004.2143
11
-50.0000
21
2004.2143
0
LINE
8
PARAMETRIX
10
-50.0000
20
2004.2143
11
-125.0000
21
0.0000
0
LINE
8
PARAMETRIX
10
-125.0000
20
0.0000
11
125.0000
21
0.0000
0
LINE
8
PARAMETRIX
10
125.0000
20
0.0000
11
145.8808
21
0.7814
0
LINE
8
PARAMETRIX
10
145.8808
20
0.7814
11
395.1816
21
19.4658
0
LINE
8
PARAMETRIX
10
395.1816
20
19.4658
11
415.9456
21
21.8056
0
LINE
8
PARAMETRIX
10
415.9456
20
21.8056
11
663.1527
21
59.0699
0
LINE
8
PARAMETRIX
10
663.1527
20
59.0699
11
683.6838
21
62.9550
0
LINE
8
PARAMETRIX
10
683.6838
20
62.9550
11
927.4145
21
118.5907
0
LINE
8
PARAMETRIX
10
927.4145
20
118.5907
11
947.5978
21
123.9994
0
LINE
8
PARAMETRIX
10
947.5978
20
123.9994
11
1186.4887
21
197.6954
0
LINE
8
PARAMETRIX
10
1186.4887
20
197.6954
11
1206.2113
21
204.5974
0
LINE
8
PARAMETRIX
10
1206.2113
20
204.5974
11
1438.9263
21
295.9415
0
LINE
8
PARAMETRIX
10
1438.9263
20
295.9415
11
1458.0779
21
304.2982
0
LINE
8
PARAMETRIX
10
1458.0779
20
304.2982
11
655.9711
21
2142.5377
0
LINE
8
PARAMETRIX
10
655.9711
20
2142.5377
11
636.8196
21
2134.1810
0
LINE
8
PARAMETRIX
10
636.8196
20
2134.1810
11
543.7336
21
2097.6434
0
LINE
8
PARAMETRIX
10
543.7336
20
2097.6434
11
524.0110
21
2090.7414
0
LINE
8
PARAMETRIX
10
524.0110
20
2090.7414
11
428.4546
21
2061.2630
0
LINE
8
PARAMETRIX
10
428.4546
20
2061.2630
11
408.2713
21
2055.8544
0
LINE
8
PARAMETRIX
10
408.2713
20
2055.8544
11
310.7790
21
2033.6000
0
LINE
8
PARAMETRIX
10
310.7790
20
2033.6000
11
290.2480
21
2029.7150
0
LINE
8
PARAMETRIX
10
290.2480
20
2029.7150
11
191.3651
21
2014.8092
0
LINE
8
PARAMETRIX
10
191.3651
20
2014.8092
11
170.6011
21
2012.4695
0
LINE
8
PARAMETRIX
10
170.6011
20
2012.4695
11
70.8808
21
2004.9957
0
LINE
8
PARAMETRIX
10
70.8808
20
2004.9957
11
50.0000
21
2004.2143
0
LINE
8
PARAMETRIX
10
50.0000
20
2004.2143
11
-50.0000
21
2004.2143
0
LINE
8
PARAMETRIX
10
-50.0000
20
2004.2143
11
-125.0000
21
0.0000
0
ARC
8
PARAMETRIX
10
107.3815
20
1002.8511
40
1.0000
50
272.1431
51
92.1431
0
LINE
8
PARAMETRIX
10
107.3441
20
1003.8504
11
88.4619
21
1003.1439
0
ARC
8
PARAMETRIX
10
88.4993
20
1002.1445
40
1.0000
50
92.1431
51
272.1431
0
LINE
8
PARAMETRIX
10
88.5367
20
1001.1452
11
107.4189
21
1001.8518
0
ARC
8
PARAMETRIX
10
302.6616
20
1018.1954
40
1.0000
50
276.4292
51
96.4292
0
LINE
8
PARAMETRIX
10
302.5497
20
1019.1891
11
283.7731
21
1017.0733
0
ARC
8
PARAMETRIX
10
283.8851
20
1016.0796
40
1.0000
50
96.4292
51
276.4292
0
LINE
8
PARAMETRIX
10
283.9970
20
1015.0859
11
302.7736
21
1017.2017
0
ARC
8
PARAMETRIX
10
496.2488
20
1048.0916
40
1.0000
50
280.7154
51
100.7154
0
LINE
8
PARAMETRIX
10
496.0629
20
1049.0741
11
477.4970
21
1045.5609
0
ARC
8
PARAMETRIX
10
477.6829
20
1044.5783
40
1.0000
50
100.7154
51
280.7154
0
LINE
8
PARAMETRIX
10
477.8688
20
1043.5958
11
496.4348
21
1047.1090
0
ARC
8
PARAMETRIX
10
687.0603
20
1092.3724
40
1.0000
50
285.0015
51
105.0015
0
LINE
8
PARAMETRIX
10
686.8014
20
1093.3383
11
668.5500
21
1088.4473
0
ARC
8
PARAMETRIX
10
668.8088
20
1087.4814
40
1.0000
50
105.0015
51
285.0015
0
LINE
8
PARAMETRIX
10
669.0677
20
1086.5155
11
687.3191
21
1091.4064
0
ARC
8
PARAMETRIX
10
874.0286
20
1150.7901
40
1.0000
50
289.2877
51
109.2877
0
LINE
8
PARAMETRIX
10
873.6983
20
1151.7340
11
855.8634
21
1145.4926
0
ARC
8
PARAMETRIX
10
856.1937
20
1144.5487
40
1.0000
50
109.2877
51
289.2877
0
LINE
8
PARAMETRIX
10
856.5240
20
1143.6049
11
874.3589
21
1149.8462
0
ARC
8
PARAMETRIX
10
1056.1080
20
1223.0180
40
1.0000
50
293.5738
51
113.5738
0
LINE
8
PARAMETRIX
10
1055.7081
20
1223.9346
11
1038.3896
21
1216.3777
0
ARC
8
PARAMETRIX
10
1038.7895
20
1215.4612
40
1.0000
50
113.5738
51
293.5738
0
LINE
8
PARAMETRIX
10
1039.1894
20
1214.5446
11
1056.5079
21
1222.1015
0
ENDSEC
0
EOF
