<svg width="463" height="1205" viewBox="-139 -60 463 1205" xmlns="http://www.w3.org/2000/svg"><path d="M 0.0000 1086.0206 L 30.4748 1086.0206 L 30.4748 1076.0206 L 0.0000 1076.0206 L 0.0000 1086.0206 Z" stroke="green" stroke-width="1" fill="none" /><path d="M 30.4748 1086.0206 A 25.0000 25.0000 0 0 0 52.0950 1073.5732 L 43.4469 1068.5522 A 15.0000 15.0000 0 0 1 30.4748 1076.0206 L 30.4748 1086.0206 Z" stroke="green" stroke-width="1" fill="none" /><path d="M 52.0950 1073.5732 L 67.3964 1047.2183 L 58.7483 1042.1973 L 43.4469 1068.5522 L 52.0950 1073.5732 Z" stroke="green" stroke-width="1" fill="none" /><path d="M 67.3964 1047.2183 A 25.0000 25.0000 0 0 0 67.4872 1022.2710 L 58.8028 1027.2289 A 15.0000 15.0000 0 0 1 58.7483 1042.1973 L 67.3964 1047.2183 Z" stroke="green" stroke-width="1" fill="none" /><path d="M 67.4872 1022.2710 L 52.3781 995.8055 L 43.6937 1000.7634 L 58.8028 1027.2289 L 67.4872 1022.2710 Z" stroke="green" stroke-width="1" fill="none" /><path d="M 52.3781 995.8055 A 25.0000 25.0000 0 0 0 30.8491 983.2009 L 30.7763 993.2006 A 15.0000 15.0000 0 0 1 43.6937 1000.7634 L 52.3781 995.8055 Z" stroke="green" stroke-width="1" fill="none" /><path d="M 30.8491 983.2009 L 0.3752 982.9790 L 0.3023 992.9787 L 30.7763 993.2006 L 30.8491 983.2009 Z" stroke="green" stroke-width="1" fill="none" /><path d="M 0.3752 982.9790 A 25.0000 25.0000 0 0 0 -21.3351 995.2687 L -12.7238 1000.3526 A 15.0000 15.0000 0 0 1 0.3023 992.9787 L 0.3752 982.9790 Z" stroke="green" stroke-width="1" fill="none" /><path d="M -21.3351 995.2687 L -36.8280 1021.5115 L -28.2167 1026.5953 L -12.7238 1000.3526 L -21.3351 995.2687 Z" stroke="green" stroke-width="1" fill="none" /><path d="M -36.8280 1021.5115 A 25.0000 25.0000 0 0 0 -37.1005 1046.4574 L -28.3802 1041.5629 A 15.0000 15.0000 0 0 1 -28.2167 1026.5953 L -36.8280 1021.5115 Z" stroke="green" stroke-width="1" fill="none" /><path d="M -37.1005 1046.4574 L -22.1845 1073.0323 L -13.4642 1068.1377 L -28.3802 1041.5629 L -37.1005 1046.4574 Z" stroke="green" stroke-width="1" fill="none" /><path d="M 0.0000 364.1216 L 180.4748 364.1216 L 180.4748 354.1216 L 0.0000 354.1216 L 0.0000 364.1216 Z" stroke="green" stroke-width="1" fill="none" /><path d="M 180.4748 364.1216 A 25.0000 25.0000 0 0 0 202.0950 351.6741 L 193.4469 346.6531 A 15.0000 15.0000 0 0 1 180.4748 354.1216 L 180.4748 364.1216 Z" stroke="green" stroke-width="1" fill="none" /><path d="M 202.0950 351.6741 L 292.7115 195.5979 L 284.0634 190.5769 L 193.4469 346.6531 L 202.0950 351.6741 Z" stroke="green" stroke-width="1" fill="none" /><path d="M 292.7115 195.5979 A 25.0000 25.0000 0 0 0 292.8023 170.6506 L 284.1179 175.6085 A 15.0000 15.0000 0 0 1 284.0634 190.5769 L 292.7115 195.5979 Z" stroke="green" stroke-width="1" fill="none" /><path d="M 292.8023 170.6506 L 203.3247 13.9187 L 194.6403 18.8766 L 284.1179 175.6085 L 292.8023 170.6506 Z" stroke="green" stroke-width="1" fill="none" /><path d="M 203.3247 13.9187 A 25.0000 25.0000 0 0 0 181.7957 1.3141 L 181.7228 11.3139 A 15.0000 15.0000 0 0 1 194.6403 18.8766 L 203.3247 13.9187 Z" stroke="green" stroke-width="1" fill="none" /><path d="M 181.7957 1.3141 L 1.3257 0.0000 L 1.2529 9.9997 L 181.7228 11.3139 L 181.7957 1.3141 Z" stroke="green" stroke-width="1" fill="none" /><path d="M 1.3257 0.0000 A 25.0000 25.0000 0 0 0 -20.3846 12.2897 L -11.7733 17.3736 A 15.0000 15.0000 0 0 1 1.2529 9.9997 L 1.3257 0.0000 Z" stroke="green" stroke-width="1" fill="none" /><path d="M -20.3846 12.2897 L -112.1351 167.7020 L -103.5238 172.7859 L -11.7733 17.3736 L -20.3846 12.2897 Z" stroke="green" stroke-width="1" fill="none" /><path d="M -112.1351 167.7020 A 25.0000 25.0000 0 0 0 -112.4076 192.6480 L -103.6873 187.7534 A 15.0000 15.0000 0 0 1 -103.5238 172.7859 L -112.1351 167.7020 Z" stroke="green" stroke-width="1" fill="none" /><path d="M -112.4076 192.6480 L -24.0736 350.0273 L -15.3533 345.1327 L -103.6873 187.7534 L -112.4076 192.6480 Z" stroke="green" stroke-width="1" fill="none" /></svg>