<svg width="1751" height="2367" viewBox="-213 -118 1751 2367" xmlns="http://www.w3.org/2000/svg"><path d="M -125.0000 2142.5377 L 125.0000 2142.5377 L 145.8808 2141.7564 L 395.1816 2123.0719 L 415.9456 2120.7322 L 663.1527 2083.4679 L 683.6838 2079.5828 L 927.4145 2023.9470 L 947.5978 2018.5383 L 1186.4887 1944.8423 L 1206.2113 1937.9403 L 1438.9263 1846.5963 L 1458.0779 1838.2396 L 655.9711 0.0000 L 636.8196 8.3567 L 543.7336 44.8943 L 524.0110 51.7963 L 428.4546 81.2747 L 408.2713 86.6834 L 310.7790 108.9377 L 290.2480 112.8228 L 191.3651 127.7285 L 170.6011 130.0683 L 70.8808 137.5420 L 50.0000 138.3234 L -50.0000 138.3234 L -125.0000 2142.5377 Z" stroke="green" stroke-width="1" fill="none" /><path d="M -125.0000 2142.5377 L 125.0000 2142.5377 L 145.8808 2141.7564 L 395.1816 2123.0719 L 415.9456 2120.7322 L 663.1527 2083.4679 L 683.6838 2079.5828 L 927.4145 2023.9470 L 947.5978 2018.5383 L 1186.4887 1944.8423 L 1206.2113 1937.9403 L 1438.9263 1846.5963 L 1458.0779 1838.2396 L 655.9711 0.0000 L 636.8196 8.3567 L 543.7336 44.8943 L 524.0110 51.7963 L 428.4546 81.2747 L 408.2713 86.6834 L 310.7790 108.9377 L 290.2480 112.8228 L 191.3651 127.7285 L 170.6011 130.0683 L 70.8808 137.5420 L 50.0000 138.3234 L -50.0000 138.3234 L -125.0000 2142.5377 Z" stroke="green" stroke-width="1" fill="none" /><path d="M 107.4189 1140.6859 A 1.0000 1.0000 0 1 0 107.3441 1138.6873 L 88.4619 1139.3939 A 1.0000 1.0000 0 1 0 88.5367 1141.3925 L 107.4189 1140.6859 Z" stroke="green" stroke-width="1" fill="none" /><path d="M 302.7736 1125.3360 A 1.0000 1.0000 0 1 0 302.5497 1123.3486 L 283.7731 1125.4644 A 1.0000 1.0000 0 1 0 283.9970 1127.4518 L 302.7736 1125.3360 Z" stroke="green" stroke-width="1" fill="none" /><path d="M 496.4348 1095.4287 A 1.0000 1.0000 0 1 0 496.0629 1093.4636 L 477.4970 1096.9768 A 1.0000 1.0000 0 0 0 477.8688 1098.9420 L 496.4348 1095.4287 Z" stroke="green" stroke-width="1" fill="none" /><path d="M 687.3191 1051.1313 A 1.0000 1.0000 0 1 0 686.8014 1049.1995 L 668.5500 1054.0904 A 1.0000 1.0000 0 1 0 669.0677 1056.0223 L 687.3191 1051.1313 Z" stroke="green" stroke-width="1" fill="none" /><path d="M 874.3589 992.6915 A 1.0000 1.0000 0 1 0 873.6983 990.8038 L 855.8634 997.0451 A 1.0000 1.0000 0 0 0 856.5240 998.9329 L 874.3589 992.6915 Z" stroke="green" stroke-width="1" fill="none" /><path d="M 1056.5079 920.4363 A 1.0000 1.0000 0 0 0 1055.7081 918.6032 L 1038.3896 926.1600 A 1.0000 1.0000 0 1 0 1039.1894 927.9931 L 1056.5079 920.4363 Z" stroke="green" stroke-width="1" fill="none" /></svg>