0
SECTION
2
ENTITIES
0
LINE
8
PARAMETRIX
10
0.0000
20
0.0000
11
30.4748
21
0.0000
0
LINE
8
PARAMETRIX
10
30.4748
20
0.0000
11
30.4748
21
10.0000
0
LINE
8
PARAMETRIX
10
30.4748
20
10.0000
11
0.0000
21
10.0000
0
LINE
8
PARAMETRIX
10
0.0000
20
10.0000
11
0.0000
21
0.0000
0
ARC
8
PARAMETRIX
10
30.4748
20
25.0000
40
25.0000
50
270.0000
51
329.8609
0
LINE
8
PARAMETRIX
10
52.0950
20
12.4475
11
43.4469
21
17.4685
0
ARC
8
PARAMETRIX
10
30.4748
20
25.0000
40
15.0000
50
270.0000
51
329.8609
0
LINE
8
PARAMETRIX
10
30.4748
20
10.0000
11
30.4748
21
0.0000
0
LINE
8
PARAMETRIX
10
52.0950
20
12.4475
11
67.3964
21
38.8023
0
LINE
8
PARAMETRIX
10
67.3964
20
38.8023
11
58.7483
21
43.8233
0
LINE
8
PARAMETRIX
10
58.7483
20
43.8233
11
43.4469
21
17.4685
0
LINE
8
PARAMETRIX
10
43.4469
20
17.4685
11
52.0950
21
12.4475
0
ARC
8
PARAMETRIX
10
45.7761
20
51.3549
40
25.0000
50
329.8609
51
29.7219
0
LINE
8
PARAMETRIX
10
67.4872
20
63.7496
11
58.8028
21
58.7917
0
ARC
8
PARAMETRIX
10
45.7761
20
51.3549
40
15.0000
50
329.8609
51
29.7219
0
LINE
8
PARAMETRIX
10
58.7483
20
43.8233
11
67.3964
21
38.8023
0
LINE
8
PARAMETRIX
10
67.4872
20
63.7496
11
52.3781
21
90.2152
0
LINE
8
PARAMETRIX
10
52.3781
20
90.2152
11
43.6937
21
85.2573
0
LINE
8
PARAMETRIX
10
43.6937
20
85.2573
11
58.8028
21
58.7917
0
LINE
8
PARAMETRIX
10
58.8028
20
58.7917
11
67.4872
21
63.7496
0
ARC
8
PARAMETRIX
10
30.6671
20
77.8204
40
25.0000
50
29.7219
51
89.5828
0
LINE
8
PARAMETRIX
10
30.8491
20
102.8198
11
30.7763
21
92.8200
0
ARC
8
PARAMETRIX
10
30.6671
20
77.8204
40
15.0000
50
29.7219
51
89.5828
0
LINE
8
PARAMETRIX
10
43.6937
20
85.2573
11
52.3781
21
90.2152
0
LINE
8
PARAMETRIX
10
30.8491
20
102.8198
11
0.3752
21
103.0417
0
LINE
8
PARAMETRIX
10
0.3752
20
103.0417
11
0.3023
21
93.0419
0
LINE
8
PARAMETRIX
10
0.3023
20
93.0419
11
30.7763
21
92.8200
0
LINE
8
PARAMETRIX
10
30.7763
20
92.8200
11
30.8491
21
102.8198
0
ARC
8
PARAMETRIX
10
0.1931
20
78.0423
40
25.0000
50
89.5828
51
149.4437
0
LINE
8
PARAMETRIX
10
-21.3351
20
90.7519
11
-12.7238
21
85.6681
0
ARC
8
PARAMETRIX
10
0.1931
20
78.0423
40
15.0000
50
89.5828
51
149.4437
0
LINE
8
PARAMETRIX
10
0.3023
20
93.0419
11
0.3752
21
103.0417
0
LINE
8
PARAMETRIX
10
-21.3351
20
90.7519
11
-36.8280
21
64.5092
0
LINE
8
PARAMETRIX
10
-36.8280
20
64.5092
11
-28.2167
21
59.4253
0
LINE
8
PARAMETRIX
10
-28.2167
20
59.4253
11
-12.7238
21
85.6681
0
LINE
8
PARAMETRIX
10
-12.7238
20
85.6681
11
-21.3351
21
90.7519
0
ARC
8
PARAMETRIX
10
-15.2998
20
51.7996
40
25.0000
50
149.4437
51
209.3047
0
LINE
8
PARAMETRIX
10
-37.1005
20
39.5632
11
-28.3802
21
44.4578
0
ARC
8
PARAMETRIX
10
-15.2998
20
51.7996
40
15.0000
50
149.4437
51
209.3047
0
LINE
8
PARAMETRIX
10
-28.2167
20
59.4253
11
-36.8280
21
64.5092
0
LINE
8
PARAMETRIX
10
-37.1005
20
39.5632
11
-22.1845
21
12.9884
0
LINE
8
PARAMETRIX
10
-22.1845
20
12.9884
11
-13.4642
21
17.8829
0
LINE
8
PARAMETRIX
10
-13.4642
20
17.8829
11
-28.3802
21
44.4578
0
LINE
8
PARAMETRIX
10
-28.3802
20
44.4578
11
-37.1005
21
39.5632
0
LINE
8
PARAMETRIX
10
0.0000
20
721.8990
11
180.4748
21
721.8990
0
LINE
8
PARAMETRIX
10
180.4748
20
721.8990
11
180.4748
21
731.8990
0
LINE
8
PARAMETRIX
10
180.4748
20
731.8990
11
0.0000
21
731.8990
0
LINE
8
PARAMETRIX
10
0.0000
20
731.8990
11
0.0000
21
721.8990
0
ARC
8
PARAMETRIX
10
180.4748
20
746.8990
40
25.0000
50
270.0000
51
329.8609
0
LINE
8
PARAMETRIX
10
202.0950
20
734.3465
11
193.4469
21
739.3675
0
ARC
8
PARAMETRIX
10
180.4748
20
746.8990
40
15.0000
50
270.0000
51
329.8609
0
LINE
8
PARAMETRIX
10
180.4748
20
731.8990
11
180.4748
21
721.8990
0
LINE
8
PARAMETRIX
10
202.0950
20
734.3465
11
292.7115
21
890.4228
0
LINE
8
PARAMETRIX
10
292.7115
20
890.4228
11
284.0634
21
895.4438
0
LINE
8
PARAMETRIX
10
284.0634
20
895.4438
11
193.4469
21
739.3675
0
LINE
8
PARAMETRIX
10
193.4469
20
739.3675
11
202.0950
21
734.3465
0
ARC
8
PARAMETRIX
10
271.0912
20
902.9753
40
25.0000
50
329.8609
51
29.7219
0
LINE
8
PARAMETRIX
10
292.8023
20
915.3700
11
284.1179
21
910.4121
0
ARC
8
PARAMETRIX
10
271.0912
20
902.9753
40
15.0000
50
329.8609
51
29.7219
0
LINE
8
PARAMETRIX
10
284.0634
20
895.4438
11
292.7115
21
890.4228
0
LINE
8
PARAMETRIX
10
292.8023
20
915.3700
11
203.3247
21
1072.1019
0
LINE
8
PARAMETRIX
10
203.3247
20
1072.1019
11
194.6403
21
1067.1440
0
LINE
8
PARAMETRIX
10
194.6403
20
1067.1440
11
284.1179
21
910.4121
0
LINE
8
PARAMETRIX
10
284.1179
20
910.4121
11
292.8023
21
915.3700
0
ARC
8
PARAMETRIX
10
181.6136
20
1059.7072
40
25.0000
50
29.7219
51
89.5828
0
LINE
8
PARAMETRIX
10
181.7957
20
1084.7065
11
181.7228
21
1074.7068
0
ARC
8
PARAMETRIX
10
181.6136
20
1059.7072
40
15.0000
50
29.7219
51
89.5828
0
LINE
8
PARAMETRIX
10
194.6403
20
1067.1440
11
203.3247
21
1072.1019
0
LINE
8
PARAMETRIX
10
181.7957
20
1084.7065
11
1.3257
21
1086.0206
0
LINE
8
PARAMETRIX
10
1.3257
20
1086.0206
11
1.2529
21
1076.0209
0
LINE
8
PARAMETRIX
10
1.2529
20
1076.0209
11
181.7228
21
1074.7068
0
LINE
8
PARAMETRIX
10
181.7228
20
1074.7068
11
181.7957
21
1084.7065
0
ARC
8
PARAMETRIX
10
1.1436
20
1061.0213
40
25.0000
50
89.5828
51
149.4437
0
LINE
8
PARAMETRIX
10
-20.3846
20
1073.7309
11
-11.7733
21
1068.6471
0
ARC
8
PARAMETRIX
10
1.1436
20
1061.0213
40
15.0000
50
89.5828
51
149.4437
0
LINE
8
PARAMETRIX
10
1.2529
20
1076.0209
11
1.3257
21
1086.0206
0
LINE
8
PARAMETRIX
10
-20.3846
20
1073.7309
11
-112.1351
21
918.3186
0
LINE
8
PARAMETRIX
10
-112.1351
20
918.3186
11
-103.5238
21
913.2348
0
LINE
8
PARAMETRIX
10
-103.5238
20
913.2348
11
-11.7733
21
1068.6471
0
LINE
8
PARAMETRIX
10
-11.7733
20
1068.6471
11
-20.3846
21
1073.7309
0
ARC
8
PARAMETRIX
10
-90.6069
20
905.6090
40
25.0000
50
149.4437
51
209.3047
0
LINE
8
PARAMETRIX
10
-112.4076
20
893.3727
11
-103.6873
21
898.2672
0
ARC
8
PARAMETRIX
10
-90.6069
20
905.6090
40
15.0000
50
149.4437
51
209.3047
0
LINE
8
PARAMETRIX
10
-103.5238
20
913.2348
11
-112.1351
21
918.3186
0
LINE
8
PARAMETRIX
10
-112.4076
20
893.3727
11
-24.0736
21
735.9934
0
LINE
8
PARAMETRIX
10
-24.0736
20
735.9934
11
-15.3533
21
740.8879
0
LINE
8
PARAMETRIX
10
-15.3533
20
740.8879
11
-103.6873
21
898.2672
0
LINE
8
PARAMETRIX
10
-103.6873
20
898.2672
11
-112.4076
21
893.3727
0
ENDSEC
0
EOF
