<svg width="432" height="675" viewBox="-113 -34 432 675" xmlns="http://www.w3.org/2000/svg"><path d="M 0.0000 604.8349 L 200.0000 604.8349 L 200.0000 594.8349 L 0.0000 594.8349 L 0.0000 604.8349 Z" stroke="green" stroke-width="1" fill="none" /><path d="M 200.0000 604.8349 A 25.0000 25.0000 0 0 0 223.4923 588.3854 L 214.0954 584.9652 A 15.0000 15.0000 0 0 1 200.0000 594.8349 L 200.0000 604.8349 Z" stroke="green" stroke-width="1" fill="none" /><path d="M 223.4923 588.3854 L 291.8963 400.4468 L 282.4994 397.0266 L 214.0954 584.9652 L 223.4923 588.3854 Z" stroke="green" stroke-width="1" fill="none" /><path d="M 0.0000 594.8349 A 15.0000 15.0000 0 0 1 -14.0954 584.9652 L -23.4923 588.3854 A 25.0000 25.0000 0 0 0 -0.0000 604.8349 L 0.0000 594.8349 Z" stroke="green" stroke-width="1" fill="none" /><path d="M -14.0954 584.9652 L -82.4994 397.0266 L -91.8963 400.4468 L -23.4923 588.3854 L -14.0954 584.9652 Z" stroke="green" stroke-width="1" fill="none" /><path d="M 0.0000 304.8349 L 200.0000 304.8349 L 200.0000 294.8349 L 0.0000 294.8349 L 0.0000 304.8349 Z" stroke="green" stroke-width="1" fill="none" /><path d="M 200.0000 304.8349 A 25.0000 25.0000 0 0 0 223.4923 288.3854 L 214.0954 284.9652 A 15.0000 15.0000 0 0 1 200.0000 294.8349 L 200.0000 304.8349 Z" stroke="green" stroke-width="1" fill="none" /><path d="M 223.4923 288.3854 L 291.8963 100.4468 L 282.4994 97.0266 L 214.0954 284.9652 L 223.4923 288.3854 Z" stroke="green" stroke-width="1" fill="none" /><path d="M 291.8963 100.4468 A 25.0000 25.0000 0 0 0 276.9545 68.4040 L 273.5343 77.8010 A 15.0000 15.0000 0 0 1 282.4994 97.0266 L 291.8963 100.4468 Z" stroke="green" stroke-width="1" fill="none" /><path d="M 276.9545 68.4040 L 89.0160 0.0000 L 85.5958 9.3969 L 273.5343 77.8010 L 276.9545 68.4040 Z" stroke="green" stroke-width="1" fill="none" /><path d="M 0.0000 294.8349 A 15.0000 15.0000 0 0 1 -14.0954 284.9652 L -23.4923 288.3854 A 25.0000 25.0000 0 0 0 -0.0000 304.8349 L 0.0000 294.8349 Z" stroke="green" stroke-width="1" fill="none" /><path d="M -14.0954 284.9652 L -82.4994 97.0266 L -91.8963 100.4468 L -23.4923 288.3854 L -14.0954 284.9652 Z" stroke="green" stroke-width="1" fill="none" /></svg>