<svg width="978" height="724" viewBox="-273 -261 978 724" xmlns="http://www.w3.org/2000/svg"><path d="M 0.0000 200.0000 L 0.0000 224.4346 L 0.0000 424.4346 L 200.0000 424.4346 L 200.0000 224.4346 L 200.0000 200.0000 L 224.4346 200.0000 L 424.4346 200.0000 L 455.8505 200.0000 L 655.8505 200.0000 L 655.8505 -0.0000 L 455.8505 -0.0000 L 424.4346 -0.0000 L 224.4346 -0.0000 L 200.0000 -0.0000 L 200.0000 -24.4346 L 200.0000 -224.4346 L 0.0000 -224.4346 L 0.0000 -24.4346 L 0.0000 -0.0000 L -24.4346 -0.0000 L -224.4346 -0.0000 L -224.4346 200.0000 L -24.4346 200.0000 L 0.0000 200.0000 Z" stroke="green" stroke-width="1" fill="none" /><path d="M 0.0000 200.0000 L 0.0000 224.4346 L 0.0000 424.4346 L 200.0000 424.4346 L 200.0000 224.4346 L 200.0000 200.0000 L 224.4346 200.0000 L 424.4346 200.0000 L 455.8505 200.0000 L 655.8505 200.0000 L 655.8505 -0.0000 L 455.8505 -0.0000 L 424.4346 -0.0000 L 224.4346 -0.0000 L 200.0000 -0.0000 L 200.0000 -24.4346 L 200.0000 -224.4346 L 0.0000 -224.4346 L 0.0000 -24.4346 L 0.0000 -0.0000 L -24.4346 -0.0000 L -224.4346 -0.0000 L -224.4346 200.0000 L -24.4346 200.0000 L 0.0000 200.0000 Z" stroke="green" stroke-width="1" fill="none" /><circle cx="100.0000" cy="100.0000" r="25.0000" stroke="green" stroke-width="1" fill="none" /><circle cx="291.1013" cy="133.3333" r="25.0000" stroke="green" stroke-width="1" fill="none" /><circle cx="357.7679" cy="66.6667" r="25.0000" stroke="green" stroke-width="1" fill="none" /><circle cx="50.0000" cy="374.4346" r="25.0000" stroke="green" stroke-width="1" fill="none" /><circle cx="100.0000" cy="324.4346" r="25.0000" stroke="green" stroke-width="1" fill="none" /><circle cx="150.0000" cy="274.4346" r="25.0000" stroke="green" stroke-width="1" fill="none" /><circle cx="50.0000" cy="-74.4346" r="25.0000" stroke="green" stroke-width="1" fill="none" /><circle cx="50.0000" cy="-174.4346" r="25.0000" stroke="green" stroke-width="1" fill="none" /><circle cx="150.0000" cy="-74.4346" r="25.0000" stroke="green" stroke-width="1" fill="none" /><circle cx="150.0000" cy="-174.4346" r="25.0000" stroke="green" stroke-width="1" fill="none" /><circle cx="-124.4346" cy="100.0000" r="25.0000" stroke="green" stroke-width="1" fill="none" /><circle cx="-174.4346" cy="150.0000" r="25.0000" stroke="green" stroke-width="1" fill="none" /><circle cx="-74.4346" cy="150.0000" r="25.0000" stroke="green" stroke-width="1" fill="none" /><circle cx="-174.4346" cy="50.0000" r="25.0000" stroke="green" stroke-width="1" fill="none" /><circle cx="-74.4346" cy="50.0000" r="25.0000" stroke="green" stroke-width="1" fill="none" /><circle cx="605.8505" cy="50.0000" r="25.0000" stroke="green" stroke-width="1" fill="none" /><circle cx="555.8505" cy="50.0000" r="25.0000" stroke="green" stroke-width="1" fill="none" /><circle cx="505.8505" cy="50.0000" r="25.0000" stroke="green" stroke-width="1" fill="none" /><circle cx="605.8505" cy="150.0000" r="25.0000" stroke="green" stroke-width="1" fill="none" /><circle cx="555.8505" cy="150.0000" r="25.0000" stroke="green" stroke-width="1" fill="none" /><circle cx="505.8505" cy="150.0000" r="25.0000" stroke="green" stroke-width="1" fill="none" /><path d="M 99.0000 223.4346 A 1.0000 1.0000 0 0 0 101.0000 223.4346 L 101.0000 201.0000 A 1.0000 1.0000 0 0 0 99.0000 201.0000 L 99.0000 223.4346 Z" stroke="green" stroke-width="1" fill="none" /><path d="M 223.4346 101.0000 A 1.0000 1.0000 0 0 0 223.4346 99.0000 L 201.0000 99.0000 A 1.0000 1.0000 0 0 0 201.0000 101.0000 L 223.4346 101.0000 Z" stroke="green" stroke-width="1" fill="none" /><path d="M 101.0000 -23.4346 A 1.0000 1.0000 0 0 0 99.0000 -23.4346 L 99.0000 -1.0000 A 1.0000 1.0000 0 0 0 101.0000 -1.0000 L 101.0000 -23.4346 Z" stroke="green" stroke-width="1" fill="none" /><path d="M -23.4346 99.0000 A 1.0000 1.0000 0 0 0 -23.4346 101.0000 L -1.0000 101.0000 A 1.0000 1.0000 0 0 0 -1.0000 99.0000 L -23.4346 99.0000 Z" stroke="green" stroke-width="1" fill="none" /><path d="M 454.8505 101.0000 A 1.0000 1.0000 0 0 0 454.8505 99.0000 L 425.4346 99.0000 A 1.0000 1.0000 0 0 0 425.4346 101.0000 L 454.8505 101.0000 Z" stroke="green" stroke-width="1" fill="none" /></svg>