0
SECTION
2
ENTITIES
0
LINE
8
PARAMETRIX
10
0.0000
20
0.0000
11
0.0000
21
-24.4346
0
LINE
8
PARAMETRIX
10
0.0000
20
-24.4346
11
0.0000
21
-224.4346
0
LINE
8
PARAMETRIX
10
0.0000
20
-224.4346
11
200.0000
21
-224.4346
0
LINE
8
PARAMETRIX
10
200.0000
20
-224.4346
11
200.0000
21
-24.4346
0
LINE
8
PARAMETRIX
10
200.0000
20
-24.4346
11
200.0000
21
0.0000
0
LINE
8
PARAMETRIX
10
200.0000
20
0.0000
11
224.4346
21
-0.0000
0
LINE
8
PARAMETRIX
10
224.4346
20
-0.0000
11
424.4346
21
-0.0000
0
LINE
8
PARAMETRIX
10
424.4346
20
-0.0000
11
455.8505
21
-0.0000
0
LINE
8
PARAMETRIX
10
455.8505
20
-0.0000
11
655.8505
21
-0.0000
0
LINE
8
PARAMETRIX
10
655.8505
20
-0.0000
11
655.8505
21
200.0000
0
LINE
8
PARAMETRIX
10
655.8505
20
200.0000
11
455.8505
21
200.0000
0
LINE
8
PARAMETRIX
10
455.8505
20
200.0000
11
424.4346
21
200.0000
0
LINE
8
PARAMETRIX
10
424.4346
20
200.0000
11
224.4346
21
200.0000
0
LINE
8
PARAMETRIX
10
224.4346
20
200.0000
11
200.0000
21
200.0000
0
LINE
8
PARAMETRIX
10
200.0000
20
200.0000
11
200.0000
21
224.4346
0
LINE
8
PARAMETRIX
10
200.0000
20
224.4346
11
200.0000
21
424.4346
0
LINE
8
PARAMETRIX
10
200.0000
20
424.4346
11
0.0000
21
424.4346
0
LINE
8
PARAMETRIX
10
0.0000
20
424.4346
11
0.0000
21
224.4346
0
LINE
8
PARAMETRIX
10
0.0000
20
224.4346
11
0.0000
21
200.0000
0
LINE
8
PARAMETRIX
10
0.0000
20
200.0000
11
-24.4346
21
200.0000
0
LINE
8
PARAMETRIX
10
-24.4346
20
200.0000
11
-224.4346
21
200.0000
0
LINE
8
PARAMETRIX
10
-224.4346
20
200.0000
11
-224.4346
21
0.0000
0
LINE
8
PARAMETRIX
10
-224.4346
20
0.0000
11
-24.4346
21
0.0000
0
LINE
8
PARAMETRIX
10
-24.4346
20
0.0000
11
0.0000
21
0.0000
0
LINE
8
PARAMETRIX
10
0.0000
20
0.0000
11
0.0000
21
-24.4346
0
LINE
8
PARAMETRIX
10
0.0000
20
-24.4346
11
0.0000
21
-224.4346
0
LINE
8
PARAMETRIX
10
0.0000
20
-224.4346
11
200.0000
21
-224.4346
0
LINE
8
PARAMETRIX
10
200.0000
20
-224.4346
11
200.0000
21
-24.4346
0
LINE
8
PARAMETRIX
10
200.0000
20
-24.4346
11
200.0000
21
0.0000
0
LINE
8
PARAMETRIX
10
200.0000
20
0.0000
11
224.4346
21
-0.0000
0
LINE
8
PARAMETRIX
10
224.4346
20
-0.0000
11
424.4346
21
-0.0000
0
LINE
8
PARAMETRIX
10
424.4346
20
-0.0000
11
455.8505
21
-0.0000
0
LINE
8
PARAMETRIX
10
455.8505
20
-0.0000
11
655.8505
21
-0.0000
0
LINE
8
PARAMETRIX
10
655.8505
20
-0.0000
11
655.8505
21
200.0000
0
LINE
8
PARAMETRIX
10
655.8505
20
200.0000
11
455.8505
21
200.0000
0
LINE
8
PARAMETRIX
10
455.8505
20
200.0000
11
424.4346
21
200.0000
0
LINE
8
PARAMETRIX
10
424.4346
20
200.0000
11
224.4346
21
200.0000
0
LINE
8
PARAMETRIX
10
224.4346
20
200.0000
11
200.0000
21
200.0000
0
LINE
8
PARAMETRIX
10
200.0000
20
200.0000
11
200.0000
21
224.4346
0
LINE
8
PARAMETRIX
10
200.0000
20
224.4346
11
200.0000
21
424.4346
0
LINE
8
PARAMETRIX
10
200.0000
20
424.4346
11
0.0000
21
424.4346
0
LINE
8
PARAMETRIX
10
0.0000
20
424.4346
11
0.0000
21
224.4346
0
LINE
8
PARAMETRIX
10
0.0000
20
224.4346
11
0.0000
21
200.0000
0
LINE
8
PARAMETRIX
10
0.0000
20
200.0000
11
-24.4346
21
200.0000
0
LINE
8
PARAMETRIX
10
-24.4346
20
200.0000
11
-224.4346
21
200.0000
0
LINE
8
PARAMETRIX
10
-224.4346
20
200.0000
11
-224.4346
21
0.0000
0
LINE
8
PARAMETRIX
10
-224.4346
20
0.0000
11
-24.4346
21
0.0000
0
LINE
8
PARAMETRIX
10
-24.4346
20
0.0000
11
0.0000
21
0.0000
0
CIRCLE
8
PARAMETRIX
10
100.0000
20
100.0000
40
25.0000
0
CIRCLE
8
PARAMETRIX
10
291.1013
20
66.6667
40
25.0000
0
CIRCLE
8
PARAMETRIX
10
357.7679
20
133.3333
40
25.0000
0
CIRCLE
8
PARAMETRIX
10
50.0000
20
-174.4346
40
25.0000
0
CIRCLE
8
PARAMETRIX
10
100.0000
20
-124.4346
40
25.0000
0
CIRCLE
8
PARAMETRIX
10
150.0000
20
-74.4346
40
25.0000
0
CIRCLE
8
PARAMETRIX
10
50.0000
20
274.4346
40
25.0000
0
CIRCLE
8
PARAMETRIX
10
50.0000
20
374.4346
40
25.0000
0
CIRCLE
8
PARAMETRIX
10
150.0000
20
274.4346
40
25.0000
0
CIRCLE
8
PARAMETRIX
10
150.0000
20
374.4346
40
25.0000
0
CIRCLE
8
PARAMETRIX
10
-124.4346
20
100.0000
40
25.0000
0
CIRCLE
8
PARAMETRIX
10
-174.4346
20
50.0000
40
25.0000
0
CIRCLE
8
PARAMETRIX
10
-74.4346
20
50.0000
40
25.0000
0
CIRCLE
8
PARAMETRIX
10
-174.4346
20
150.0000
40
25.0000
0
CIRCLE
8
PARAMETRIX
10
-74.4346
20
150.0000
40
25.0000
0
CIRCLE
8
PARAMETRIX
10
605.8505
20
150.0000
40
25.0000
0
CIRCLE
8
PARAMETRIX
10
555.8505
20
150.0000
40
25.0000
0
CIRCLE
8
PARAMETRIX
10
505.8505
20
150.0000
40
25.0000
0
CIRCLE
8
PARAMETRIX
10
605.8505
20
50.0000
40
25.0000
0
CIRCLE
8
PARAMETRIX
10
555.8505
20
50.0000
40
25.0000
0
CIRCLE
8
PARAMETRIX
10
505.8505
20
50.0000
40
25.0000
0
ARC
8
PARAMETRIX
10
100.0000
20
-23.4346
40
1.0000
50
180.0000
51
0.0000
0
LINE
8
PARAMETRIX
10
101.0000
20
-23.4346
11
101.0000
21
-1.0000
0
ARC
8
PARAMETRIX
10
100.0000
20
-1.0000
40
1.0000
50
0.0000
51
180.0000
0
LINE
8
PARAMETRIX
10
99.0000
20
-1.0000
11
99.0000
21
-23.4346
0
ARC
8
PARAMETRIX
10
223.4346
20
100.0000
40
1.0000
50
270.0000
51
90.0000
0
LINE
8
PARAMETRIX
10
223.4346
20
101.0000
11
201.0000
21
101.0000
0
ARC
8
PARAMETRIX
10
201.0000
20
100.0000
40
1.0000
50
90.0000
51
270.0000
0
LINE
8
PARAMETRIX
10
201.0000
20
99.0000
11
223.4346
21
99.0000
0
ARC
8
PARAMETRIX
10
100.0000
20
223.4346
40
1.0000
50
0.0000
51
180.0000
0
LINE
8
PARAMETRIX
10
99.0000
20
223.4346
11
99.0000
21
201.0000
0
ARC
8
PARAMETRIX
10
100.0000
20
201.0000
40
1.0000
50
180.0000
51
0.0000
0
LINE
8
PARAMETRIX
10
101.0000
20
201.0000
11
101.0000
21
223.4346
0
ARC
8
PARAMETRIX
10
-23.4346
20
100.0000
40
1.0000
50
90.0000
51
270.0000
0
LINE
8
PARAMETRIX
10
-23.4346
20
99.0000
11
-1.0000
21
99.0000
0
ARC
8
PARAMETRIX
10
-1.0000
20
100.0000
40
1.0000
50
270.0000
51
90.0000
0
LINE
8
PARAMETRIX
10
-1.0000
20
101.0000
11
-23.4346
21
101.0000
0
ARC
8
PARAMETRIX
10
454.8505
20
100.0000
40
1.0000
50
270.0000
51
90.0000
0
LINE
8
PARAMETRIX
10
454.8505
20
101.0000
11
425.4346
21
101.0000
0
ARC
8
PARAMETRIX
10
425.4346
20
100.0000
40
1.0000
50
90.0000
51
270.0000
0
LINE
8
PARAMETRIX
10
425.4346
20
99.0000
11
454.8505
21
99.0000
0
ENDSEC
0
EOF
