0
SECTION
2
ENTITIES
0
LINE
8
PARAMETRIX
10
0.0000
20
0.0000
11
200.0000
21
0.0000
0
LINE
8
PARAMETRIX
10
200.0000
20
0.0000
11
200.0000
21
10.0000
0
LINE
8
PARAMETRIX
10
200.0000
20
10.0000
11
0.0000
21
10.0000
0
LINE
8
PARAMETRIX
10
0.0000
20
10.0000
11
0.0000
21
0.0000
0
ARC
8
PARAMETRIX
10
200.0000
20
25.0000
40
25.0000
50
270.0000
51
340.0000
0
LINE
8
PARAMETRIX
10
223.4923
20
16.4495
11
214.0954
21
19.8697
0
ARC
8
PARAMETRIX
10
200.0000
20
25.0000
40
15.0000
50
270.0000
51
340.0000
0
LINE
8
PARAMETRIX
10
200.0000
20
10.0000
11
200.0000
21
0.0000
0
LINE
8
PARAMETRIX
10
223.4923
20
16.4495
11
291.8963
21
204.3880
0
LINE
8
PARAMETRIX
10
291.8963
20
204.3880
11
282.4994
21
207.8082
0
LINE
8
PARAMETRIX
10
282.4994
20
207.8082
11
214.0954
21
19.8697
0
LINE
8
PARAMETRIX
10
214.0954
20
19.8697
11
223.4923
21
16.4495
0
ARC
8
PARAMETRIX
10
0.0000
20
25.0000
40
15.0000
50
200.0000
51
270.0000
0
LINE
8
PARAMETRIX
10
-14.0954
20
19.8697
11
-23.4923
21
16.4495
0
ARC
8
PARAMETRIX
10
0.0000
20
25.0000
40
25.0000
50
200.0000
51
270.0000
0
LINE
8
PARAMETRIX
10
-0.0000
20
0.0000
11
0.0000
21
10.0000
0
LINE
8
PARAMETRIX
10
-14.0954
20
19.8697
11
-82.4994
21
207.8082
0
LINE
8
PARAMETRIX
10
-82.4994
20
207.8082
11
-91.8963
21
204.3880
0
LINE
8
PARAMETRIX
10
-91.8963
20
204.3880
11
-23.4923
21
16.4495
0
LINE
8
PARAMETRIX
10
-23.4923
20
16.4495
11
-14.0954
21
19.8697
0
LINE
8
PARAMETRIX
10
0.0000
20
300.0000
11
200.0000
21
300.0000
0
LINE
8
PARAMETRIX
10
200.0000
20
300.0000
11
200.0000
21
310.0000
0
LINE
8
PARAMETRIX
10
200.0000
20
310.0000
11
0.0000
21
310.0000
0
LINE
8
PARAMETRIX
10
0.0000
20
310.0000
11
0.0000
21
300.0000
0
ARC
8
PARAMETRIX
10
200.0000
20
325.0000
40
25.0000
50
270.0000
51
340.0000
0
LINE
8
PARAMETRIX
10
223.4923
20
316.4495
11
214.0954
21
319.8697
0
ARC
8
PARAMETRIX
10
200.0000
20
325.0000
40
15.0000
50
270.0000
51
340.0000
0
LINE
8
PARAMETRIX
10
200.0000
20
310.0000
11
200.0000
21
300.0000
0
LINE
8
PARAMETRIX
10
223.4923
20
316.4495
11
291.8963
21
504.3880
0
LINE
8
PARAMETRIX
10
291.8963
20
504.3880
11
282.4994
21
507.8082
0
LINE
8
PARAMETRIX
10
282.4994
20
507.8082
11
214.0954
21
319.8697
0
LINE
8
PARAMETRIX
10
214.0954
20
319.8697
11
223.4923
21
316.4495
0
ARC
8
PARAMETRIX
10
268.4040
20
512.9385
40
25.0000
50
340.0000
51
70.0000
0
LINE
8
PARAMETRIX
10
276.9545
20
536.4308
11
273.5343
21
527.0339
0
ARC
8
PARAMETRIX
10
268.4040
20
512.9385
40
15.0000
50
340.0000
51
70.0000
0
LINE
8
PARAMETRIX
10
282.4994
20
507.8082
11
291.8963
21
504.3880
0
LINE
8
PARAMETRIX
10
276.9545
20
536.4308
11
89.0160
21
604.8349
0
LINE
8
PARAMETRIX
10
89.0160
20
604.8349
11
85.5958
21
595.4379
0
LINE
8
PARAMETRIX
10
85.5958
20
595.4379
11
273.5343
21
527.0339
0
LINE
8
PARAMETRIX
10
273.5343
20
527.0339
11
276.9545
21
536.4308
0
ARC
8
PARAMETRIX
10
-0.0000
20
325.0000
40
15.0000
50
200.0000
51
270.0000
0
LINE
8
PARAMETRIX
10
-14.0954
20
319.8697
11
-23.4923
21
316.4495
0
ARC
8
PARAMETRIX
10
0.0000
20
325.0000
40
25.0000
50
200.0000
51
270.0000
0
LINE
8
PARAMETRIX
10
-0.0000
20
300.0000
11
0.0000
21
310.0000
0
LINE
8
PARAMETRIX
10
-14.0954
20
319.8697
11
-82.4994
21
507.8082
0
LINE
8
PARAMETRIX
10
-82.4994
20
507.8082
11
-91.8963
21
504.3880
0
LINE
8
PARAMETRIX
10
-91.8963
20
504.3880
11
-23.4923
21
316.4495
0
LINE
8
PARAMETRIX
10
-23.4923
20
316.4495
11
-14.0954
21
319.8697
0
ENDSEC
0
EOF
